{"accessors":[{"bufferView":0,"componentType":5126,"count":266,"max":[1.2572920322418213,1.0468125343322754,7.197346210479736],"min":[-0.5959429740905762,-7.063340187072754,-0.30552300810813904],"type":"VEC3"},{"bufferView":1,"componentType":5125,"count":405,"type":"SCALAR"},{"bufferView":2,"componentType":5126,"count":266,"type":"VEC3"},{"bufferView":3,"componentType":5126,"count":266,"type":"VEC4"},{"bufferView":4,"componentType":5126,"count":266,"type":"VEC2"}],"asset":{"version":"2.0"},"bufferViews":[{"buffer":0,"byteLength":3192,"target":34962},{"buffer":1,"byteLength":1620,"target":34963},{"buffer":2,"byteLength":3192,"target":34962},{"buffer":3,"byteLength":4256,"target":34962},{"buffer":4,"byteLength":2128,"target":34962}],"buffers":[{"byteLength":3192,"uri":"data:application/octet-stream;base64,"},{"byteLength":1620,"uri":"data:application/octet-stream;base64,"},{"byteLength":3192,"uri":"data:application/octet-stream;base64,"},{"byteLength":4256,"uri":"data:application/octet-stream;base64,"},{"byteLength":2128,"uri":"data:application/octet-stream;base64,"}],"images":[{"uri":"textures/haaland.png"}],"materials":[{"doubleSided":false,"pbrMetallicRoughness":{"baseColorTexture":{"index":0},"metallicFactor":0.0,"roughnessFactor":0.6}}],"meshes":[{"primitives":[{"attributes":{"NORMAL":2,"POSITION":0,"TANGENT":3,"TEXCOORD_0":4},"indices":1,"material":0,"mode":5}]}],"nodes":[{"mesh":0,"name":"_gltfNode_0"},{"children":[0],"name":"GLTF Converted Scene","rotation":[-0.7071067811865475,0.0,0.0,0.7071067811865476],"scale":[1.0,1.0,1.0],"translation":[0.0,0.0,0.0]}],"samplers":[{"magFilter":9729,"minFilter":9729,"wrapS":10497,"wrapT":10497}],"scene":0,"scenes":[{"nodes":[1]}],"textures":[{"sampler":0,"source":0}]}