# 3DTin generated OBJ
# http://www.3dtin.com
mtllib Minecraft Firework.mtl
o Object0

# Vertices
v 0.750000 -0.750000 6.750000
v 2.250000 -0.750000 6.750000
v 2.250000 0.750000 6.750000
v 0.750000 0.750000 6.750000
v 0.750000 -0.750000 8.250000
v 2.250000 -0.750000 8.250000
v 2.250000 0.750000 8.250000
v 0.750000 0.750000 8.250000
v 3.750000 -0.750000 6.750000
v 3.750000 0.750000 6.750000
v 3.750000 -0.750000 8.250000
v 3.750000 0.750000 8.250000
v 5.250000 2.250000 6.750000
v 6.750000 2.250000 6.750000
v 6.750000 3.750000 6.750000
v 5.250000 3.750000 6.750000
v 5.250000 2.250000 8.250000
v 6.750000 2.250000 8.250000
v 6.750000 3.750000 8.250000
v 5.250000 3.750000 8.250000
v 5.250000 0.750000 6.750000
v 3.750000 2.250000 6.750000
v 5.250000 0.750000 8.250000
v 3.750000 2.250000 8.250000
v 8.250000 2.250000 6.750000
v 8.250000 3.750000 6.750000
v 8.250000 2.250000 8.250000
v 8.250000 3.750000 8.250000
v -0.750000 0.750000 6.750000
v 0.750000 2.250000 6.750000
v -0.750000 2.250000 6.750000
v -0.750000 0.750000 8.250000
v 0.750000 2.250000 8.250000
v -0.750000 2.250000 8.250000
v 0.750000 3.750000 6.750000
v -0.750000 3.750000 6.750000
v 0.750000 3.750000 8.250000
v -0.750000 3.750000 8.250000
v -2.250000 2.250000 6.750000
v -2.250000 3.750000 6.750000
v -2.250000 2.250000 8.250000
v -2.250000 3.750000 8.250000
v 2.250000 2.250000 6.750000
v 2.250000 3.750000 6.750000
v 2.250000 2.250000 8.250000
v 2.250000 3.750000 8.250000


# Faces
usemtl color38_0
s off
f 4 3 2
f 4 2 1
f 5 6 7
f 5 7 8
f 8 7 3
f 8 3 4
f 6 5 1
f 6 1 2
f 5 8 4
f 5 4 1
f 3 10 9
f 3 9 2
f 6 11 12
f 6 12 7
f 7 12 10
f 7 10 3
f 11 6 2
f 11 2 9
f 12 11 9
f 12 9 10
f 16 15 14
f 16 14 13
f 17 18 19
f 17 19 20
f 20 19 15
f 20 15 16
f 18 17 13
f 18 13 14
f 17 20 16
f 17 16 13
f 22 13 21
f 22 21 10
f 12 23 17
f 12 17 24
f 24 17 13
f 24 13 22
f 23 12 10
f 23 10 21
f 17 23 21
f 17 21 13
f 12 24 22
f 12 22 10
f 15 26 25
f 15 25 14
f 18 27 28
f 18 28 19
f 19 28 26
f 19 26 15
f 27 18 14
f 27 14 25
f 28 27 25
f 28 25 26
f 31 30 4
f 31 4 29
f 32 8 33
f 32 33 34
f 8 32 29
f 8 29 4
f 33 8 4
f 33 4 30
f 32 34 31
f 32 31 29

usemtl color38_1
s off
f 36 35 30
f 36 30 31
f 34 33 37
f 34 37 38
f 38 37 35
f 38 35 36
f 40 36 31
f 40 31 39
f 41 34 38
f 41 38 42
f 42 38 36
f 42 36 40
f 34 41 39
f 34 39 31
f 41 42 40
f 41 40 39

usemtl color38_2
s off
f 35 44 43
f 35 43 30
f 33 45 46
f 33 46 37
f 37 46 44
f 37 44 35
f 45 33 30
f 45 30 43
f 46 45 43
f 46 43 44


o Object1

# Vertices


# Faces


o Object2

# Vertices


# Faces


o Object3

# Vertices


# Faces


o Object4

# Vertices


# Faces


o Object5

# Vertices


# Faces


o Object6

# Vertices


# Faces


o Object7

# Vertices


# Faces


o Object8

# Vertices
v 0.750000 3.750000 6.750000
v 2.250000 3.750000 6.750000
v 2.250000 5.250000 6.750000
v 0.750000 5.250000 6.750000
v 0.750000 3.750000 8.250000
v 2.250000 3.750000 8.250000
v 2.250000 5.250000 8.250000
v 0.750000 5.250000 8.250000
v -0.750000 3.750000 6.750000
v -0.750000 5.250000 6.750000
v -0.750000 3.750000 8.250000
v -0.750000 5.250000 8.250000
v -2.250000 3.750000 6.750000
v -2.250000 5.250000 6.750000
v -2.250000 3.750000 8.250000
v -2.250000 5.250000 8.250000
v -0.750000 6.750000 6.750000
v -2.250000 6.750000 6.750000
v -0.750000 6.750000 8.250000
v -2.250000 6.750000 8.250000
v -0.750000 8.250000 6.750000
v -2.250000 8.250000 6.750000
v -0.750000 8.250000 8.250000
v -2.250000 8.250000 8.250000
v -0.750000 9.750000 6.750000
v -2.250000 9.750000 6.750000
v -0.750000 9.750000 8.250000
v -2.250000 9.750000 8.250000
v -0.750000 11.250000 6.750000
v -2.250000 11.250000 6.750000
v -0.750000 11.250000 8.250000
v -2.250000 11.250000 8.250000
v -0.750000 12.750000 6.750000
v -2.250000 12.750000 6.750000
v -0.750000 12.750000 8.250000
v -2.250000 12.750000 8.250000
v -0.750000 14.250000 6.750000
v -2.250000 14.250000 6.750000
v -0.750000 14.250000 8.250000
v -2.250000 14.250000 8.250000
v -0.750000 15.750000 6.750000
v -2.250000 15.750000 6.750000
v -0.750000 15.750000 8.250000
v -2.250000 15.750000 8.250000
v 0.750000 14.250000 6.750000
v 0.750000 15.750000 6.750000
v 0.750000 14.250000 8.250000
v 0.750000 15.750000 8.250000
v 2.250000 14.250000 6.750000
v 2.250000 15.750000 6.750000
v 2.250000 14.250000 8.250000
v 2.250000 15.750000 8.250000
v 0.750000 12.750000 6.750000
v 2.250000 12.750000 6.750000
v 0.750000 12.750000 8.250000
v 2.250000 12.750000 8.250000
v 0.750000 11.250000 6.750000
v 2.250000 11.250000 6.750000
v 0.750000 11.250000 8.250000
v 2.250000 11.250000 8.250000
v 0.750000 9.750000 6.750000
v 2.250000 9.750000 6.750000
v 0.750000 9.750000 8.250000
v 2.250000 9.750000 8.250000
v 0.750000 8.250000 6.750000
v 2.250000 8.250000 6.750000
v 0.750000 8.250000 8.250000
v 2.250000 8.250000 8.250000
v 0.750000 6.750000 6.750000
v 2.250000 6.750000 6.750000
v 0.750000 6.750000 8.250000
v 2.250000 6.750000 8.250000


# Faces
usemtl color46_0
s off
f 50 49 48
f 50 48 47
f 51 52 53
f 51 53 54
f 52 51 47
f 52 47 48
f 53 52 48
f 53 48 49
f 56 50 47
f 56 47 55
f 57 51 54
f 57 54 58
f 51 57 55
f 51 55 47
f 60 56 55
f 60 55 59
f 61 57 58
f 61 58 62
f 57 61 59
f 57 59 55
f 61 62 60
f 61 60 59
f 72 71 67
f 72 67 68
f 70 69 73
f 70 73 74
f 70 74 72
f 70 72 68
f 76 75 71
f 76 71 72
f 74 73 77
f 74 77 78
f 74 78 76
f 74 76 72
f 88 87 83
f 88 83 84
f 86 85 89
f 86 89 90
f 90 89 87
f 90 87 88
f 86 90 88
f 86 88 84
f 91 95 100
f 91 100 99
f 101 102 97
f 101 97 93
f 97 102 100
f 97 100 95
f 99 100 104
f 99 104 103
f 105 106 102
f 105 102 101
f 102 106 104
f 102 104 100
f 111 112 116
f 111 116 115
f 117 118 114
f 117 114 113
f 114 118 116
f 114 116 112
f 115 116 49
f 115 49 50
f 54 53 118
f 54 118 117
f 118 53 49
f 118 49 116
f 63 115 50
f 63 50 56
f 58 54 117
f 58 117 65
f 75 103 107
f 75 107 71
f 73 109 105
f 73 105 77
f 79 99 103
f 79 103 75
f 77 105 101
f 77 101 81

usemtl color46_1
s off
f 64 63 56
f 64 56 60
f 62 58 65
f 62 65 66
f 62 66 64
f 62 64 60
f 68 67 63
f 68 63 64
f 66 65 69
f 66 69 70
f 66 70 68
f 66 68 64
f 80 79 75
f 80 75 76
f 78 77 81
f 78 81 82
f 78 82 80
f 78 80 76
f 84 83 79
f 84 79 80
f 82 81 85
f 82 85 86
f 82 86 84
f 82 84 80
f 87 92 91
f 87 91 83
f 85 93 94
f 85 94 89
f 89 94 92
f 89 92 87
f 92 96 95
f 92 95 91
f 93 97 98
f 93 98 94
f 94 98 96
f 94 96 92
f 98 97 95
f 98 95 96
f 103 104 108
f 103 108 107
f 109 110 106
f 109 106 105
f 106 110 108
f 106 108 104
f 107 108 112
f 107 112 111
f 113 114 110
f 113 110 109
f 110 114 112
f 110 112 108
f 67 111 115
f 67 115 63
f 65 117 113
f 65 113 69
f 71 107 111
f 71 111 67
f 69 113 109
f 69 109 73
f 83 91 99
f 83 99 79
f 81 101 93
f 81 93 85


o Object9

# Vertices
v 2.250000 15.750000 6.750000
v 3.750000 15.750000 6.750000
v 3.750000 17.250000 6.750000
v 2.250000 17.250000 6.750000
v 2.250000 15.750000 8.250000
v 3.750000 15.750000 8.250000
v 3.750000 17.250000 8.250000
v 2.250000 17.250000 8.250000
v 0.750000 15.750000 6.750000
v 0.750000 17.250000 6.750000
v 0.750000 15.750000 8.250000
v 0.750000 17.250000 8.250000
v -0.750000 15.750000 6.750000
v -0.750000 17.250000 6.750000
v -0.750000 15.750000 8.250000
v -0.750000 17.250000 8.250000
v -2.250000 15.750000 6.750000
v -2.250000 17.250000 6.750000
v -2.250000 15.750000 8.250000
v -2.250000 17.250000 8.250000
v -3.750000 15.750000 6.750000
v -3.750000 17.250000 6.750000
v -3.750000 15.750000 8.250000
v -3.750000 17.250000 8.250000
v -2.250000 18.750000 6.750000
v -3.750000 18.750000 6.750000
v -2.250000 18.750000 8.250000
v -3.750000 18.750000 8.250000
v -0.750000 18.750000 6.750000
v -0.750000 18.750000 8.250000
v 0.750000 18.750000 6.750000
v 0.750000 18.750000 8.250000
v 2.250000 18.750000 6.750000
v 2.250000 18.750000 8.250000
v 3.750000 18.750000 6.750000
v 3.750000 18.750000 8.250000
v 2.250000 20.250000 6.750000
v 0.750000 20.250000 6.750000
v 2.250000 20.250000 8.250000
v 0.750000 20.250000 8.250000
v -0.750000 20.250000 6.750000
v -0.750000 20.250000 8.250000
v 0.750000 21.750000 6.750000
v -0.750000 21.750000 6.750000
v 0.750000 21.750000 8.250000
v -0.750000 21.750000 8.250000
v -2.250000 20.250000 6.750000
v -2.250000 20.250000 8.250000


# Faces
usemtl color47_0
s off
f 122 121 120
f 122 120 119
f 123 124 125
f 123 125 126
f 124 123 119
f 124 119 120
f 125 124 120
f 125 120 121
f 128 122 119
f 128 119 127
f 129 123 126
f 129 126 130
f 123 129 127
f 123 127 119
f 132 128 127
f 132 127 131
f 133 129 130
f 133 130 134
f 129 133 131
f 129 131 127
f 136 132 131
f 136 131 135
f 137 133 134
f 137 134 138
f 133 137 135
f 133 135 131
f 140 136 135
f 140 135 139
f 141 137 138
f 141 138 142
f 137 141 139
f 137 139 135
f 141 142 140
f 141 140 139
f 144 143 136
f 144 136 140
f 142 138 145
f 142 145 146
f 146 145 143
f 146 143 144
f 142 146 144
f 142 144 140
f 143 147 132
f 143 132 136
f 138 134 148
f 138 148 145
f 147 149 128
f 147 128 132
f 134 130 150
f 134 150 148
f 149 151 122
f 149 122 128
f 130 126 152
f 130 152 150
f 151 153 121
f 151 121 122
f 126 125 154
f 126 154 152
f 152 154 153
f 152 153 151
f 154 125 121
f 154 121 153
f 156 155 151
f 156 151 149
f 150 152 157
f 150 157 158
f 158 157 155
f 158 155 156
f 157 152 151
f 157 151 155
f 159 156 149
f 159 149 147
f 148 150 158
f 148 158 160
f 162 161 156
f 162 156 159
f 160 158 163
f 160 163 164
f 164 163 161
f 164 161 162
f 163 158 156
f 163 156 161
f 160 164 162
f 160 162 159
f 165 159 147
f 165 147 143
f 145 148 160
f 145 160 166
f 166 160 159
f 166 159 165
f 145 166 165
f 145 165 143


