{
  "accessors": [
    {
      "bufferView": 2,
      "componentType": 5126,
      "count": 1584,
      "max": [
        12.974906921386719,
        -18.004528045654297,
        1.894562005996704
      ],
      "min": [
        10.774433135986328,
        -20.205001831054688,
        -0.3373050093650818
      ],
      "type": "VEC3"
    },
    {
      "bufferView": 2,
      "byteOffset": 19008,
      "componentType": 5126,
      "count": 1584,
      "max": [
        0.9775733947753906,
        0.9775733947753906,
        1.0
      ],
      "min": [
        -0.9775733947753906,
        -0.9775733947753906,
        -1.0
      ],
      "type": "VEC3"
    },
    {
      "bufferView": 1,
      "componentType": 5126,
      "count": 1584,
      "max": [
        0.8540409803390503,
        0.848147988319397
      ],
      "min": [
        0.13118499517440796,
        0.14890800416469574
      ],
      "type": "VEC2"
    },
    {
      "bufferView": 0,
      "componentType": 5125,
      "count": 2436,
      "type": "SCALAR"
    }
  ],
  "asset": {
    "extras": {
      "author": "KateGirl.SK (https://sketchfab.com/KateGirl.SK)",
      "license": "CC-BY-4.0 (http://creativecommons.org/licenses/by/4.0/)",
      "source": "https://sketchfab.com/3d-models/beach-ball-e369ebe4a6574b768af1281a72e19711",
      "title": "Beach Ball"
    },
    "generator": "Sketchfab-15.30.0",
    "version": "2.0"
  },
  "bufferViews": [
    {
      "buffer": 0,
      "byteLength": 9744,
      "name": "floatBufferViews",
      "target": 34963
    },
    {
      "buffer": 0,
      "byteLength": 12672,
      "byteOffset": 9744,
      "byteStride": 8,
      "name": "floatBufferViews",
      "target": 34962
    },
    {
      "buffer": 0,
      "byteLength": 38016,
      "byteOffset": 22416,
      "byteStride": 12,
      "name": "floatBufferViews",
      "target": 34962
    }
  ],
  "buffers": [
    {
      "byteLength": 60432,
      "uri": "scene.bin"
    }
  ],
  "images": [
    {
      "uri": "textures/Materil.031_baseColor.png"
    }
  ],
  "materials": [
    {
      "doubleSided": true,
      "name": "Materil.031",
      "pbrMetallicRoughness": {
        "baseColorTexture": {
          "index": 0
        },
        "metallicFactor": 0.0,
        "roughnessFactor": 0.8211145618000169
      }
    }
  ],
  "meshes": [
    {
      "name": "Object_0",
      "primitives": [
        {
          "attributes": {
            "NORMAL": 1,
            "POSITION": 0,
            "TEXCOORD_0": 2
          },
          "indices": 3,
          "material": 0,
          "mode": 4
        }
      ]
    }
  ],
  "nodes": [
    {
      "children": [
        1
      ],
      "matrix": [
        0.6235212683677673,
        0.3219493329524992,
        0.7124393582344056,
        0.0,
        0.6330337524414063,
        0.32686102390289323,
        -0.701733648777008,
        0.0,
        -0.4587913751602173,
        0.8885440230369568,
        2.528075577849968e-16,
        0.0,
        0.0,
        0.0,
        0.0,
        1.0
      ],
      "name": "Sketchfab_model"
    },
    {
      "children": [
        2
      ],
      "name": "e78729edba7745e28b7154a01f7f8fe2.obj.cleaner.materialmerger.gles"
    },
    {
      "mesh": 0,
      "name": "Object_2"
    }
  ],
  "samplers": [
    {
      "magFilter": 9729,
      "minFilter": 9987,
      "wrapS": 10497,
      "wrapT": 10497
    }
  ],
  "scene": 0,
  "scenes": [
    {
      "name": "Sketchfab_Scene",
      "nodes": [
        0
      ]
    }
  ],
  "textures": [
    {
      "sampler": 0,
      "source": 0
    }
  ]
}
