{
  "accessors": [
    {
      "bufferView": 2,
      "componentType": 5126,
      "count": 7384,
      "max": [
        198.72930908203125,
        128.1597900390625,
        99.22091674804688
      ],
      "min": [
        -198.7292938232422,
        -216.1927947998047,
        -50.378082275390625
      ],
      "type": "VEC3"
    },
    {
      "bufferView": 2,
      "byteOffset": 88608,
      "componentType": 5126,
      "count": 7384,
      "max": [
        0.9998952150344849,
        1.0,
        0.9997363090515137
      ],
      "min": [
        -0.9998950958251953,
        -1.0,
        -0.999933123588562
      ],
      "type": "VEC3"
    },
    {
      "bufferView": 1,
      "componentType": 5126,
      "count": 7384,
      "max": [
        0.9968434572219849,
        0.9982455372810364
      ],
      "min": [
        0.0017544695874676108,
        0.0017544155707582831
      ],
      "type": "VEC2"
    },
    {
      "bufferView": 1,
      "byteOffset": 59072,
      "componentType": 5126,
      "count": 7384,
      "max": [
        0.9184867143630981,
        0.9998567700386047
      ],
      "min": [
        0.0,
        0.0
      ],
      "type": "VEC2"
    },
    {
      "bufferView": 1,
      "byteOffset": 118144,
      "componentType": 5126,
      "count": 7384,
      "max": [
        0.9184867143630981,
        0.9998567700386047
      ],
      "min": [
        0.0,
        0.0
      ],
      "type": "VEC2"
    },
    {
      "bufferView": 1,
      "byteOffset": 177216,
      "componentType": 5126,
      "count": 7384,
      "max": [
        0.9184867143630981,
        0.9998567700386047
      ],
      "min": [
        0.0,
        0.0
      ],
      "type": "VEC2"
    },
    {
      "bufferView": 0,
      "componentType": 5125,
      "count": 21144,
      "type": "SCALAR"
    },
    {
      "bufferView": 2,
      "byteOffset": 177216,
      "componentType": 5126,
      "count": 3046,
      "max": [
        86.20506286621094,
        178.3626708984375,
        118.38933563232422
      ],
      "min": [
        -84.3091812133789,
        -3.3120245933532715,
        -74.96220397949219
      ],
      "type": "VEC3"
    },
    {
      "bufferView": 2,
      "byteOffset": 213768,
      "componentType": 5126,
      "count": 3046,
      "max": [
        0.9989864230155945,
        0.9996205568313599,
        0.9998500347137451
      ],
      "min": [
        -0.9990074038505554,
        -0.9998109340667725,
        -0.9996408224105835
      ],
      "type": "VEC3"
    },
    {
      "bufferView": 1,
      "byteOffset": 236288,
      "componentType": 5126,
      "count": 3046,
      "max": [
        0.9672510027885437,
        0.9792550206184387
      ],
      "min": [
        0.004215000197291374,
        0.0042150020599365234
      ],
      "type": "VEC2"
    },
    {
      "bufferView": 1,
      "byteOffset": 260656,
      "componentType": 5126,
      "count": 3046,
      "max": [
        0.0,
        0.0
      ],
      "min": [
        0.0,
        0.0
      ],
      "type": "VEC2"
    },
    {
      "bufferView": 1,
      "byteOffset": 285024,
      "componentType": 5126,
      "count": 3046,
      "max": [
        0.0,
        0.0
      ],
      "min": [
        0.0,
        0.0
      ],
      "type": "VEC2"
    },
    {
      "bufferView": 1,
      "byteOffset": 309392,
      "componentType": 5126,
      "count": 3046,
      "max": [
        0.0,
        0.0
      ],
      "min": [
        0.0,
        0.0
      ],
      "type": "VEC2"
    },
    {
      "bufferView": 0,
      "byteOffset": 84576,
      "componentType": 5125,
      "count": 16104,
      "type": "SCALAR"
    }
  ],
  "asset": {
    "extras": {
      "author": "K.Victoria (https://sketchfab.com/K.Victoria)",
      "license": "CC-BY-4.0 (http://creativecommons.org/licenses/by/4.0/)",
      "source": "https://sketchfab.com/3d-models/lin--gang--boxing-07ce076c18aa4144abcc8ca7fd3c5690",
      "title": "Lin_ Gang_ Boxing"
    },
    "generator": "Sketchfab-17.1.0",
    "version": "2.0"
  },
  "bufferViews": [
    {
      "buffer": 0,
      "byteLength": 148992,
      "name": "floatBufferViews",
      "target": 34963
    },
    {
      "buffer": 0,
      "byteLength": 333760,
      "byteOffset": 148992,
      "byteStride": 8,
      "name": "floatBufferViews",
      "target": 34962
    },
    {
      "buffer": 0,
      "byteLength": 250320,
      "byteOffset": 482752,
      "byteStride": 12,
      "name": "floatBufferViews",
      "target": 34962
    }
  ],
  "buffers": [
    {
      "byteLength": 733072,
      "uri": "scene.bin"
    }
  ],
  "images": [
    {
      "uri": "textures/Body_baseColor.png"
    },
    {
      "uri": "textures/Face_baseColor.png"
    }
  ],
  "materials": [
    {
      "doubleSided": true,
      "name": "Body",
      "pbrMetallicRoughness": {
        "baseColorTexture": {
          "index": 0
        },
        "metallicFactor": 0.0,
        "roughnessFactor": 0.8381921229022118
      }
    },
    {
      "doubleSided": true,
      "name": "Face",
      "pbrMetallicRoughness": {
        "baseColorTexture": {
          "index": 1
        },
        "metallicFactor": 0.0,
        "roughnessFactor": 0.8211145618000169
      }
    }
  ],
  "meshes": [
    {
      "name": "Lin gang Boxing_Body_0",
      "primitives": [
        {
          "attributes": {
            "NORMAL": 1,
            "POSITION": 0,
            "TEXCOORD_0": 2,
            "TEXCOORD_1": 3,
            "TEXCOORD_2": 4,
            "TEXCOORD_3": 5
          },
          "indices": 6,
          "material": 0,
          "mode": 4
        }
      ]
    },
    {
      "name": "Lin gang Boxing_Face_0",
      "primitives": [
        {
          "attributes": {
            "NORMAL": 8,
            "POSITION": 7,
            "TEXCOORD_0": 9,
            "TEXCOORD_1": 10,
            "TEXCOORD_2": 11,
            "TEXCOORD_3": 12
          },
          "indices": 13,
          "material": 1,
          "mode": 4
        }
      ]
    }
  ],
  "nodes": [
    {
      "children": [
        1
      ],
      "matrix": [
        1.0,
        0.0,
        0.0,
        0.0,
        0.0,
        2.220446049250313e-16,
        -1.0,
        0.0,
        0.0,
        1.0,
        2.220446049250313e-16,
        0.0,
        0.0,
        0.0,
        0.0,
        1.0
      ],
      "name": "Sketchfab_model"
    },
    {
      "children": [
        2
      ],
      "matrix": [
        0.009999999776482582,
        0.0,
        0.0,
        0.0,
        0.0,
        0.0,
        0.009999999776482582,
        0.0,
        0.0,
        -0.009999999776482582,
        0.0,
        0.0,
        0.0,
        0.0,
        0.0,
        1.0
      ],
      "name": "2909a550df874e89955b39f62da6d457.fbx"
    },
    {
      "children": [
        3
      ],
      "name": "RootNode"
    },
    {
      "children": [
        4,
        5
      ],
      "matrix": [
        0.22666993737220764,
        0.0,
        0.0,
        0.0,
        0.0,
        0.22666993737220764,
        0.0,
        0.0,
        0.0,
        0.0,
        0.22666993737220764,
        0.0,
        0.0,
        49.991302490234375,
        -3.312154531478882,
        1.0
      ],
      "name": "Lin gang Boxing"
    },
    {
      "mesh": 0,
      "name": "Lin gang Boxing_Body_0"
    },
    {
      "mesh": 1,
      "name": "Lin gang Boxing_Face_0"
    }
  ],
  "samplers": [
    {
      "magFilter": 9729,
      "minFilter": 9987,
      "wrapS": 10497,
      "wrapT": 10497
    }
  ],
  "scene": 0,
  "scenes": [
    {
      "name": "Sketchfab_Scene",
      "nodes": [
        0
      ]
    }
  ],
  "textures": [
    {
      "sampler": 0,
      "source": 0
    },
    {
      "sampler": 0,
      "source": 1
    }
  ]
}
