{
  "accessors": [
    {
      "bufferView": 0,
      "componentType": 5126,
      "count": 166,
      "max": [
        2.0000057220458984,
        1.5000057220458984,
        -3.999995231628418
      ],
      "min": [
        -1.5,
        -2.0,
        -8.0
      ],
      "type": "VEC3"
    },
    {
      "bufferView": 1,
      "componentType": 5125,
      "count": 250,
      "type": "SCALAR"
    },
    {
      "bufferView": 2,
      "componentType": 5126,
      "count": 166,
      "type": "VEC3"
    },
    {
      "bufferView": 3,
      "componentType": 5126,
      "count": 166,
      "type": "VEC4"
    },
    {
      "bufferView": 4,
      "componentType": 5126,
      "count": 166,
      "type": "VEC2"
    }
  ],
  "asset": {
    "version": "2.0"
  },
  "bufferViews": [
    {
      "buffer": 0,
      "byteLength": 1992,
      "target": 34962
    },
    {
      "buffer": 1,
      "byteLength": 1000,
      "target": 34963
    },
    {
      "buffer": 2,
      "byteLength": 1992,
      "target": 34962
    },
    {
      "buffer": 3,
      "byteLength": 2656,
      "target": 34962
    },
    {
      "buffer": 4,
      "byteLength": 1328,
      "target": 34962
    }
  ],
  "buffers": [
    {
      "byteLength": 1992,
      "uri": "data:application/octet-stream;base64,"
    },
    {
      "byteLength": 1000,
      "uri": "data:application/octet-stream;base64,"
    },
    {
      "byteLength": 1992,
      "uri": "data:application/octet-stream;base64,"
    },
    {
      "byteLength": 2656,
      "uri": "data:application/octet-stream;base64,"
    },
    {
      "byteLength": 1328,
      "uri": "data:application/octet-stream;base64,"
    }
  ],
  "materials": [
    {
      "doubleSided": true,
      "name": "19",
      "pbrMetallicRoughness": {
        "baseColorFactor": [
          0.800000011920929,
          0.800000011920929,
          0.800000011920929,
          1.0
        ]
      }
    }
  ],
  "meshes": [
    {
      "primitives": [
        {
          "attributes": {
            "NORMAL": 2,
            "POSITION": 0,
            "TANGENT": 3,
            "TEXCOORD_0": 4
          },
          "indices": 1,
          "material": 0,
          "mode": 5
        }
      ]
    }
  ],
  "nodes": [
    {
      "mesh": 0,
      "name": "_gltfNode_0"
    },
    {
      "children": [
        0
      ],
      "name": "GLTF Converted Scene",
      "rotation": [
        -0.7071067811865475,
        0.0,
        0.0,
        0.7071067811865476
      ],
      "scale": [
        1.0,
        1.0,
        1.0
      ],
      "translation": [
        0.0,
        0.0,
        0.0
      ]
    }
  ],
  "scene": 0,
  "scenes": [
    {
      "nodes": [
        1
      ]
    }
  ]
}
