{"accessors":[{"bufferView":0,"componentType":5126,"count":1028,"max":[-0.47313717007637024,9.594400405883787,4.793932914733887],"min":[-0.9859679937362672,0.007132399827241898,-4.055759906768799],"type":"VEC3"},{"bufferView":1,"componentType":5125,"count":1606,"type":"SCALAR"},{"bufferView":2,"componentType":5126,"count":1028,"type":"VEC3"},{"bufferView":3,"componentType":5126,"count":1028,"type":"VEC4"},{"bufferView":4,"componentType":5126,"count":1028,"type":"VEC2"},{"bufferView":5,"componentType":5126,"count":1028,"max":[-0.47313717007637024,9.594400405883787,4.793932914733887],"min":[-0.9859679937362672,0.007132399827241898,-4.055759906768799],"type":"VEC3"},{"bufferView":6,"componentType":5125,"count":27,"type":"SCALAR"},{"bufferView":7,"componentType":5126,"count":1028,"type":"VEC3"},{"bufferView":8,"componentType":5126,"count":1028,"type":"VEC4"},{"bufferView":9,"componentType":5126,"count":1028,"type":"VEC2"}],"asset":{"version":"2.0"},"bufferViews":[{"buffer":0,"byteLength":12336,"target":34962},{"buffer":1,"byteLength":6424,"target":34963},{"buffer":2,"byteLength":12336,"target":34962},{"buffer":3,"byteLength":16448,"target":34962},{"buffer":4,"byteLength":8224,"target":34962},{"buffer":0,"byteLength":12336,"target":34962},{"buffer":5,"byteLength":108,"target":34963},{"buffer":2,"byteLength":12336,"target":34962},{"buffer":3,"byteLength":16448,"target":34962},{"buffer":4,"byteLength":8224,"target":34962}],"buffers":[{"byteLength":12336,"uri":"data:application/octet-stream;base64,"},{"byteLength":6424,"uri":"data:application/octet-stream;base64,"},{"byteLength":12336,"uri":"data:application/octet-stream;base64,"},{"byteLength":16448,"uri":"data:application/octet-stream;base64,"},{"byteLength":8224,"uri":"data:application/octet-stream;base64,"},{"byteLength":108,"uri":"data:application/octet-stream;base64,"}],"images":[{"uri":"textures/diamond.png"},{"uri":"textures/diamondSpecular.png"}],"materials":[{"doubleSided":false,"emissiveFactor":[0.017101318853709996,0.017101318853709996,0.017101318853709996],"emissiveTexture":{"index":1},"pbrMetallicRoughness":{"baseColorTexture":{"index":0},"metallicFactor":0.0,"roughnessFactor":0.6}}],"meshes":[{"name":"Diamond_aiStandardSurface1_0","primitives":[{"attributes":{"NORMAL":2,"POSITION":0,"TANGENT":3,"TEXCOORD_0":4},"indices":1,"material":0,"mode":5},{"attributes":{"NORMAL":7,"POSITION":5,"TANGENT":8,"TEXCOORD_0":9},"indices":6,"material":0,"mode":4}]}],"nodes":[{"mesh":0,"name":"Diamond_aiStandardSurface1_0"},{"children":[0],"name":"Diamond"},{"children":[1],"name":"RootNode"},{"children":[2],"name":"Minecraft Diamond","rotation":[1.1102230246251563e-16,0.0,0.0,1.0],"scale":[1.0,1.0,1.0],"translation":[0.0,0.0,0.0]}],"samplers":[{"magFilter":9729,"minFilter":9729,"wrapS":10497,"wrapT":10497}],"scene":0,"scenes":[{"nodes":[3]}],"textures":[{"sampler":0,"source":0},{"sampler":0,"source":1}]}