{"accessors":[{"bufferView":0,"componentType":5126,"count":24,"max":[-10.000099182128906,-7.00007963180542,-7.500097751617432],"min":[-11.000100135803224,-8.000080108642578,-11.500100135803224],"type":"VEC3"},{"bufferView":1,"componentType":5125,"count":34,"type":"SCALAR"},{"bufferView":2,"componentType":5126,"count":24,"type":"VEC3"},{"bufferView":3,"componentType":5126,"count":24,"type":"VEC4"},{"bufferView":4,"componentType":5126,"count":24,"type":"VEC2"},{"bufferView":5,"componentType":5126,"count":24,"max":[-7.000097751617432,-7.00007963180542,-7.50007963180542],"min":[-11.000100135803224,-8.000080108642578,-8.500080108642578],"type":"VEC3"},{"bufferView":6,"componentType":5125,"count":34,"type":"SCALAR"},{"bufferView":7,"componentType":5126,"count":24,"type":"VEC3"},{"bufferView":8,"componentType":5126,"count":24,"type":"VEC4"},{"bufferView":9,"componentType":5126,"count":24,"type":"VEC2"},{"bufferView":10,"componentType":5126,"count":24,"max":[4.000150680541992,-6.000035285949707,-7.00006628036499],"min":[-8.0,-8.000009536743164,-8.0],"type":"VEC3"},{"bufferView":11,"componentType":5125,"count":34,"type":"SCALAR"},{"bufferView":12,"componentType":5126,"count":24,"type":"VEC3"},{"bufferView":13,"componentType":5126,"count":24,"type":"VEC4"},{"bufferView":14,"componentType":5126,"count":24,"type":"VEC2"},{"bufferView":15,"componentType":5126,"count":24,"max":[4.000150680541992,-6.000035285949707,-7.00006628036499],"min":[-8.0,-8.000009536743164,-8.0],"type":"VEC3"},{"bufferView":16,"componentType":5125,"count":34,"type":"SCALAR"},{"bufferView":17,"componentType":5126,"count":24,"type":"VEC3"},{"bufferView":18,"componentType":5126,"count":24,"type":"VEC4"},{"bufferView":19,"componentType":5126,"count":24,"type":"VEC2"},{"bufferView":20,"componentType":5126,"count":24,"max":[-7.00006628036499,-6.000035285949707,6.000018119812012],"min":[-8.0,-8.000009536743164,-8.0],"type":"VEC3"},{"bufferView":21,"componentType":5125,"count":34,"type":"SCALAR"},{"bufferView":22,"componentType":5126,"count":24,"type":"VEC3"},{"bufferView":23,"componentType":5126,"count":24,"type":"VEC4"},{"bufferView":24,"componentType":5126,"count":24,"type":"VEC2"},{"bufferView":25,"componentType":5126,"count":24,"max":[-7.00006628036499,-6.000035285949707,6.000018119812012],"min":[-8.0,-8.000009536743164,-8.0],"type":"VEC3"},{"bufferView":26,"componentType":5125,"count":34,"type":"SCALAR"},{"bufferView":27,"componentType":5126,"count":24,"type":"VEC3"},{"bufferView":28,"componentType":5126,"count":24,"type":"VEC4"},{"bufferView":29,"componentType":5126,"count":24,"type":"VEC2"},{"bufferView":30,"componentType":5126,"count":4,"max":[4.000154972076416,-7.0000224113464355,4.000150680541992],"min":[4.000154972076416,-8.000009536743164,-8.0],"type":"VEC3"},{"bufferView":31,"componentType":5125,"count":4,"type":"SCALAR"},{"bufferView":32,"componentType":5126,"count":4,"type":"VEC3"},{"bufferView":33,"componentType":5126,"count":4,"type":"VEC4"},{"bufferView":34,"componentType":5126,"count":4,"type":"VEC2"},{"bufferView":35,"componentType":5126,"count":4,"max":[-8.0,-7.0000224113464355,4.000150680541992],"min":[-8.0,-8.000009536743164,-8.0],"type":"VEC3"},{"bufferView":36,"componentType":5125,"count":4,"type":"SCALAR"},{"bufferView":37,"componentType":5126,"count":4,"type":"VEC3"},{"bufferView":38,"componentType":5126,"count":4,"type":"VEC4"},{"bufferView":39,"componentType":5126,"count":4,"type":"VEC2"},{"bufferView":40,"componentType":5126,"count":4,"max":[4.000150680541992,-7.0000200271606445,4.000150680541992],"min":[-8.0,-7.0000200271606445,-8.0],"type":"VEC3"},{"bufferView":41,"componentType":5125,"count":4,"type":"SCALAR"},{"bufferView":42,"componentType":5126,"count":4,"type":"VEC3"},{"bufferView":43,"componentType":5126,"count":4,"type":"VEC4"},{"bufferView":44,"componentType":5126,"count":4,"type":"VEC2"},{"bufferView":45,"componentType":5126,"count":4,"max":[4.000150680541992,-8.000009536743164,4.000150680541992],"min":[-8.0,-8.000009536743164,-8.0],"type":"VEC3"},{"bufferView":46,"componentType":5125,"count":4,"type":"SCALAR"},{"bufferView":47,"componentType":5126,"count":4,"type":"VEC3"},{"bufferView":48,"componentType":5126,"count":4,"type":"VEC4"},{"bufferView":49,"componentType":5126,"count":4,"type":"VEC2"},{"bufferView":50,"componentType":5126,"count":4,"max":[4.000150680541992,-7.0000224113464355,4.000154972076416],"min":[-8.0,-8.000009536743164,4.000154972076416],"type":"VEC3"},{"bufferView":51,"componentType":5125,"count":4,"type":"SCALAR"},{"bufferView":52,"componentType":5126,"count":4,"type":"VEC3"},{"bufferView":53,"componentType":5126,"count":4,"type":"VEC4"},{"bufferView":54,"componentType":5126,"count":4,"type":"VEC2"},{"bufferView":55,"componentType":5126,"count":4,"max":[4.000150680541992,-7.0000224113464355,-8.0],"min":[-8.0,-8.000009536743164,-8.0],"type":"VEC3"},{"bufferView":56,"componentType":5125,"count":4,"type":"SCALAR"},{"bufferView":57,"componentType":5126,"count":4,"type":"VEC3"},{"bufferView":58,"componentType":5126,"count":4,"type":"VEC4"},{"bufferView":59,"componentType":5126,"count":4,"type":"VEC2"}],"asset":{"version":"2.0"},"bufferViews":[{"buffer":0,"byteLength":288,"target":34962},{"buffer":1,"byteLength":136,"target":34963},{"buffer":2,"byteLength":288,"target":34962},{"buffer":3,"byteLength":384,"target":34962},{"buffer":4,"byteLength":192,"target":34962},{"buffer":5,"byteLength":288,"target":34962},{"buffer":6,"byteLength":136,"target":34963},{"buffer":7,"byteLength":288,"target":34962},{"buffer":8,"byteLength":384,"target":34962},{"buffer":9,"byteLength":192,"target":34962},{"buffer":10,"byteLength":288,"target":34962},{"buffer":11,"byteLength":136,"target":34963},{"buffer":12,"byteLength":288,"target":34962},{"buffer":13,"byteLength":384,"target":34962},{"buffer":14,"byteLength":192,"target":34962},{"buffer":15,"byteLength":288,"target":34962},{"buffer":16,"byteLength":136,"target":34963},{"buffer":17,"byteLength":288,"target":34962},{"buffer":18,"byteLength":384,"target":34962},{"buffer":19,"byteLength":192,"target":34962},{"buffer":20,"byteLength":288,"target":34962},{"buffer":21,"byteLength":136,"target":34963},{"buffer":22,"byteLength":288,"target":34962},{"buffer":23,"byteLength":384,"target":34962},{"buffer":24,"byteLength":192,"target":34962},{"buffer":25,"byteLength":288,"target":34962},{"buffer":26,"byteLength":136,"target":34963},{"buffer":27,"byteLength":288,"target":34962},{"buffer":28,"byteLength":384,"target":34962},{"buffer":29,"byteLength":192,"target":34962},{"buffer":30,"byteLength":48,"target":34962},{"buffer":31,"byteLength":16,"target":34963},{"buffer":32,"byteLength":48,"target":34962},{"buffer":33,"byteLength":64,"target":34962},{"buffer":34,"byteLength":32,"target":34962},{"buffer":35,"byteLength":48,"target":34962},{"buffer":36,"byteLength":16,"target":34963},{"buffer":37,"byteLength":48,"target":34962},{"buffer":38,"byteLength":64,"target":34962},{"buffer":39,"byteLength":32,"target":34962},{"buffer":40,"byteLength":48,"target":34962},{"buffer":41,"byteLength":16,"target":34963},{"buffer":42,"byteLength":48,"target":34962},{"buffer":43,"byteLength":64,"target":34962},{"buffer":44,"byteLength":32,"target":34962},{"buffer":45,"byteLength":48,"target":34962},{"buffer":46,"byteLength":16,"target":34963},{"buffer":47,"byteLength":48,"target":34962},{"buffer":48,"byteLength":64,"target":34962},{"buffer":49,"byteLength":32,"target":34962},{"buffer":50,"byteLength":48,"target":34962},{"buffer":51,"byteLength":16,"target":34963},{"buffer":52,"byteLength":48,"target":34962},{"buffer":53,"byteLength":64,"target":34962},{"buffer":54,"byteLength":32,"target":34962},{"buffer":55,"byteLength":48,"target":34962},{"buffer":56,"byteLength":16,"target":34963},{"buffer":57,"byteLength":48,"target":34962},{"buffer":58,"byteLength":64,"target":34962},{"buffer":59,"byteLength":32,"target":34962}],"buffers":[{"byteLength":288,"uri":"data:application/octet-stream;base64,"},{"byteLength":136,"uri":"data:application/octet-stream;base64,"},{"byteLength":288,"uri":"data:application/octet-stream;base64,"},{"byteLength":384,"uri":"data:application/octet-stream;base64,"},{"byteLength":192,"uri":"data:application/octet-stream;base64,"},{"byteLength":288,"uri":"data:application/octet-stream;base64,"},{"byteLength":136,"uri":"data:application/octet-stream;base64,"},{"byteLength":288,"uri":"data:application/octet-stream;base64,"},{"byteLength":384,"uri":"data:application/octet-stream;base64,"},{"byteLength":192,"uri":"data:application/octet-stream;base64,"},{"byteLength":288,"uri":"data:application/octet-stream;base64,"},{"byteLength":136,"uri":"data:application/octet-stream;base64,"},{"byteLength":288,"uri":"data:application/octet-stream;base64,"},{"byteLength":384,"uri":"data:application/octet-stream;base64,"},{"byteLength":192,"uri":"data:application/octet-stream;base64,"},{"byteLength":288,"uri":"data:application/octet-stream;base64,"},{"byteLength":136,"uri":"data:application/octet-stream;base64,"},{"byteLength":288,"uri":"data:application/octet-stream;base64,"},{"byteLength":384,"uri":"data:application/octet-stream;base64,"},{"byteLength":192,"uri":"data:application/octet-stream;base64,"},{"byteLength":288,"uri":"data:application/octet-stream;base64,"},{"byteLength":136,"uri":"data:application/octet-stream;base64,"},{"byteLength":288,"uri":"data:application/octet-stream;base64,"},{"byteLength":384,"uri":"data:application/octet-stream;base64,"},{"byteLength":192,"uri":"data:application/octet-stream;base64,"},{"byteLength":288,"uri":"data:application/octet-stream;base64,"},{"byteLength":136,"uri":"data:application/octet-stream;base64,"},{"byteLength":288,"uri":"data:application/octet-stream;base64,"},{"byteLength":384,"uri":"data:application/octet-stream;base64,"},{"byteLength":192,"uri":"data:application/octet-stream;base64,"},{"byteLength":48,"uri":"data:application/octet-stream;base64,"},{"byteLength":16,"uri":"data:application/octet-stream;base64,"},{"byteLength":48,"uri":"data:application/octet-stream;base64,"},{"byteLength":64,"uri":"data:application/octet-stream;base64,"},{"byteLength":32,"uri":"data:application/octet-stream;base64,"},{"byteLength":48,"uri":"data:application/octet-stream;base64,"},{"byteLength":16,"uri":"data:application/octet-stream;base64,"},{"byteLength":48,"uri":"data:application/octet-stream;base64,"},{"byteLength":64,"uri":"data:application/octet-stream;base64,"},{"byteLength":32,"uri":"data:application/octet-stream;base64,"},{"byteLength":48,"uri":"data:application/octet-stream;base64,"},{"byteLength":16,"uri":"data:application/octet-stream;base64,"},{"byteLength":48,"uri":"data:application/octet-stream;base64,"},{"byteLength":64,"uri":"data:application/octet-stream;base64,"},{"byteLength":32,"uri":"data:application/octet-stream;base64,"},{"byteLength":48,"uri":"data:application/octet-stream;base64,"},{"byteLength":16,"uri":"data:application/octet-stream;base64,"},{"byteLength":48,"uri":"data:application/octet-stream;base64,"},{"byteLength":64,"uri":"data:application/octet-stream;base64,"},{"byteLength":32,"uri":"data:application/octet-stream;base64,"},{"byteLength":48,"uri":"data:application/octet-stream;base64,"},{"byteLength":16,"uri":"data:application/octet-stream;base64,"},{"byteLength":48,"uri":"data:application/octet-stream;base64,"},{"byteLength":64,"uri":"data:application/octet-stream;base64,"},{"byteLength":32,"uri":"data:application/octet-stream;base64,"},{"byteLength":48,"uri":"data:application/octet-stream;base64,"},{"byteLength":16,"uri":"data:application/octet-stream;base64,"},{"byteLength":48,"uri":"data:application/octet-stream;base64,"},{"byteLength":64,"uri":"data:application/octet-stream;base64,"},{"byteLength":32,"uri":"data:application/octet-stream;base64,"}],"images":[{"uri":"textures/gltf_embedded_0.png"},{"uri":"textures/gltf_embedded_1.png"}],"materials":[{"alphaCutoff":0.05,"alphaMode":"MASK","doubleSided":false,"pbrMetallicRoughness":{"baseColorTexture":{"index":0},"metallicFactor":0.0,"roughnessFactor":1.0}},{"alphaCutoff":0.05,"alphaMode":"MASK","doubleSided":false,"pbrMetallicRoughness":{"baseColorTexture":{"index":1},"metallicFactor":0.0,"roughnessFactor":1.0}}],"meshes":[{"primitives":[{"attributes":{"NORMAL":2,"POSITION":0,"TANGENT":3,"TEXCOORD_0":4},"indices":1,"material":0,"mode":5}]},{"primitives":[{"attributes":{"NORMAL":7,"POSITION":5,"TANGENT":8,"TEXCOORD_0":9},"indices":6,"material":0,"mode":5}]},{"primitives":[{"attributes":{"NORMAL":12,"POSITION":10,"TANGENT":13,"TEXCOORD_0":14},"indices":11,"material":0,"mode":5}]},{"primitives":[{"attributes":{"NORMAL":17,"POSITION":15,"TANGENT":18,"TEXCOORD_0":19},"indices":16,"material":0,"mode":5}]},{"primitives":[{"attributes":{"NORMAL":22,"POSITION":20,"TANGENT":23,"TEXCOORD_0":24},"indices":21,"material":0,"mode":5}]},{"primitives":[{"attributes":{"NORMAL":27,"POSITION":25,"TANGENT":28,"TEXCOORD_0":29},"indices":26,"material":0,"mode":5}]},{"primitives":[{"attributes":{"NORMAL":32,"POSITION":30,"TANGENT":33,"TEXCOORD_0":34},"indices":31,"material":1,"mode":5}]},{"primitives":[{"attributes":{"NORMAL":37,"POSITION":35,"TANGENT":38,"TEXCOORD_0":39},"indices":36,"material":1,"mode":5}]},{"primitives":[{"attributes":{"NORMAL":42,"POSITION":40,"TANGENT":43,"TEXCOORD_0":44},"indices":41,"material":1,"mode":5}]},{"primitives":[{"attributes":{"NORMAL":47,"POSITION":45,"TANGENT":48,"TEXCOORD_0":49},"indices":46,"material":0,"mode":5}]},{"primitives":[{"attributes":{"NORMAL":52,"POSITION":50,"TANGENT":53,"TEXCOORD_0":54},"indices":51,"material":1,"mode":5}]},{"primitives":[{"attributes":{"NORMAL":57,"POSITION":55,"TANGENT":58,"TEXCOORD_0":59},"indices":56,"material":1,"mode":5}]}],"nodes":[{"mesh":0,"name":"_gltfNode_0"},{"children":[0],"name":"93d47732-3ab0-0c55-e404-1da6d2171057_0","rotation":[0.0,-0.3826834323650872,0.0,0.9238795325112932],"scale":[1.0000003576278689,1.0,1.0000003576278689],"translation":[10.0,9.0,21.0]},{"mesh":1,"name":"_gltfNode_2"},{"children":[2],"name":"18503a09-a8ab-779e-1392-b79fca94e9f4_1","rotation":[0.0,0.0,0.0,1.0],"scale":[1.0,1.0,1.0],"translation":[15.0,9.0,16.0]},{"mesh":2,"name":"_gltfNode_4"},{"children":[4],"name":"4b5c35cf-fcaf-92ca-5341-9cacce191080_2","rotation":[0.0,0.0,0.0,1.0],"scale":[1.0,1.0,1.0],"translation":[10.0,8.0,22.0]},{"mesh":3,"name":"_gltfNode_6"},{"children":[6],"name":"f0ebc59a-2510-b4b1-adfb-251e9d19a0d7_3","rotation":[0.0,0.0,0.0,1.0],"scale":[1.0,1.0,1.0],"translation":[10.0,8.0,9.0]},{"mesh":4,"name":"_gltfNode_8"},{"children":[8],"name":"6224bccb-26c6-f8d6-5770-d80ed0518c00_4","rotation":[0.0,0.0,0.0,1.0],"scale":[1.0,1.0,1.0],"translation":[22.0,8.0,9.0]},{"mesh":5,"name":"_gltfNode_10"},{"children":[10],"name":"83cd060e-8ca8-9eb5-c9c8-b79ef38026ac_5","rotation":[0.0,0.0,0.0,1.0],"scale":[1.0,1.0,1.0],"translation":[9.0,8.0,9.0]},{"mesh":6,"name":"_gltfNode_12"},{"mesh":7,"name":"_gltfNode_13"},{"mesh":8,"name":"_gltfNode_14"},{"mesh":9,"name":"_gltfNode_15"},{"mesh":10,"name":"_gltfNode_16"},{"mesh":11,"name":"_gltfNode_17"},{"children":[12,13,14,15,16,17],"name":"3efc48af-f20b-6d9b-5293-e1fd70157794_6","rotation":[0.0,0.0,0.0,1.0],"scale":[1.0,1.0,1.0],"translation":[10.0,8.0,10.0]},{"children":[1,3,5,7,9,11,18],"name":"Clock","rotation":[-1.9753748434203097e-22,0.0,0.0,1.0],"scale":[1.0,1.0,1.0],"translation":[0.0,0.0,0.0]}],"samplers":[{"magFilter":9728,"minFilter":9728,"wrapS":33071,"wrapT":33071}],"scene":0,"scenes":[{"nodes":[19]}],"textures":[{"sampler":0,"source":0},{"sampler":0,"source":1}]}