{
  "accessors": [
    {
      "bufferView": 0,
      "componentType": 5126,
      "count": 24,
      "max": [
        0.18750052154064178,
        0.750000536441803,
        0.1874997615814209
      ],
      "min": [
        -0.1875,
        0.375,
        -0.25
      ],
      "type": "VEC3"
    },
    {
      "bufferView": 1,
      "componentType": 5125,
      "count": 34,
      "type": "SCALAR"
    },
    {
      "bufferView": 2,
      "componentType": 5126,
      "count": 24,
      "type": "VEC3"
    },
    {
      "bufferView": 3,
      "componentType": 5126,
      "count": 24,
      "type": "VEC4"
    },
    {
      "bufferView": 4,
      "componentType": 5126,
      "count": 24,
      "type": "VEC2"
    },
    {
      "bufferView": 5,
      "componentType": 5126,
      "count": 24,
      "max": [
        6.24950771452859e-05,
        0.6249508261680603,
        0.6561657786369324
      ],
      "min": [
        -4.92125984408176e-09,
        -4.9212598241865635e-05,
        -0.4063340127468109
      ],
      "type": "VEC3"
    },
    {
      "bufferView": 6,
      "componentType": 5125,
      "count": 34,
      "type": "SCALAR"
    },
    {
      "bufferView": 7,
      "componentType": 5126,
      "count": 24,
      "type": "VEC3"
    },
    {
      "bufferView": 8,
      "componentType": 5126,
      "count": 24,
      "type": "VEC4"
    },
    {
      "bufferView": 9,
      "componentType": 5126,
      "count": 24,
      "type": "VEC2"
    },
    {
      "bufferView": 10,
      "componentType": 5126,
      "count": 24,
      "max": [
        6.24950771452859e-05,
        0.6249508261680603,
        0.6561657786369324
      ],
      "min": [
        -4.92125984408176e-09,
        -4.9212598241865635e-05,
        -0.4063340127468109
      ],
      "type": "VEC3"
    },
    {
      "bufferView": 11,
      "componentType": 5125,
      "count": 34,
      "type": "SCALAR"
    },
    {
      "bufferView": 12,
      "componentType": 5126,
      "count": 24,
      "type": "VEC3"
    },
    {
      "bufferView": 13,
      "componentType": 5126,
      "count": 24,
      "type": "VEC4"
    },
    {
      "bufferView": 14,
      "componentType": 5126,
      "count": 24,
      "type": "VEC2"
    },
    {
      "bufferView": 15,
      "componentType": 5126,
      "count": 24,
      "max": [
        0.1249995008111,
        0.687500536441803,
        0.5625002980232239
      ],
      "min": [
        -0.125,
        0.3125,
        0.0625
      ],
      "type": "VEC3"
    },
    {
      "bufferView": 16,
      "componentType": 5125,
      "count": 34,
      "type": "SCALAR"
    },
    {
      "bufferView": 17,
      "componentType": 5126,
      "count": 24,
      "type": "VEC3"
    },
    {
      "bufferView": 18,
      "componentType": 5126,
      "count": 24,
      "type": "VEC4"
    },
    {
      "bufferView": 19,
      "componentType": 5126,
      "count": 24,
      "type": "VEC2"
    },
    {
      "bufferView": 20,
      "componentType": 5126,
      "count": 24,
      "max": [
        0.18750052154064178,
        0.40625,
        0.25
      ],
      "min": [
        -0.1875,
        0.09375,
        -0.0625
      ],
      "type": "VEC3"
    },
    {
      "bufferView": 21,
      "componentType": 5125,
      "count": 34,
      "type": "SCALAR"
    },
    {
      "bufferView": 22,
      "componentType": 5126,
      "count": 24,
      "type": "VEC3"
    },
    {
      "bufferView": 23,
      "componentType": 5126,
      "count": 24,
      "type": "VEC4"
    },
    {
      "bufferView": 24,
      "componentType": 5126,
      "count": 24,
      "type": "VEC2"
    },
    {
      "bufferView": 25,
      "componentType": 5126,
      "count": 24,
      "max": [
        0.1249995008111,
        0.031249500811100006,
        0.4062497615814209
      ],
      "min": [
        -0.125,
        -0.21875,
        -0.03125
      ],
      "type": "VEC3"
    },
    {
      "bufferView": 26,
      "componentType": 5125,
      "count": 34,
      "type": "SCALAR"
    },
    {
      "bufferView": 27,
      "componentType": 5126,
      "count": 24,
      "type": "VEC3"
    },
    {
      "bufferView": 28,
      "componentType": 5126,
      "count": 24,
      "type": "VEC4"
    },
    {
      "bufferView": 29,
      "componentType": 5126,
      "count": 24,
      "type": "VEC2"
    },
    {
      "bufferView": 30,
      "componentType": 5126,
      "count": 24,
      "max": [
        0.1249995008111,
        0.2812502682209015,
        -0.06249973922967911
      ],
      "min": [
        -0.125,
        0.09375,
        -0.25
      ],
      "type": "VEC3"
    },
    {
      "bufferView": 31,
      "componentType": 5125,
      "count": 34,
      "type": "SCALAR"
    },
    {
      "bufferView": 32,
      "componentType": 5126,
      "count": 24,
      "type": "VEC3"
    },
    {
      "bufferView": 33,
      "componentType": 5126,
      "count": 24,
      "type": "VEC4"
    },
    {
      "bufferView": 34,
      "componentType": 5126,
      "count": 24,
      "type": "VEC2"
    },
    {
      "bufferView": 35,
      "componentType": 5126,
      "count": 24,
      "max": [
        6.25000029685907e-05,
        0.40625,
        -0.062499988824129105
      ],
      "min": [
        0.0,
        0.09375,
        -0.375
      ],
      "type": "VEC3"
    },
    {
      "bufferView": 36,
      "componentType": 5125,
      "count": 34,
      "type": "SCALAR"
    },
    {
      "bufferView": 37,
      "componentType": 5126,
      "count": 24,
      "type": "VEC3"
    },
    {
      "bufferView": 38,
      "componentType": 5126,
      "count": 24,
      "type": "VEC4"
    },
    {
      "bufferView": 39,
      "componentType": 5126,
      "count": 24,
      "type": "VEC2"
    },
    {
      "bufferView": 40,
      "componentType": 5126,
      "count": 24,
      "max": [
        0.1249995008111,
        -4.999999987376214e-07,
        0.2499994933605194
      ],
      "min": [
        -0.125,
        -0.25,
        0.0
      ],
      "type": "VEC3"
    },
    {
      "bufferView": 41,
      "componentType": 5125,
      "count": 34,
      "type": "SCALAR"
    },
    {
      "bufferView": 42,
      "componentType": 5126,
      "count": 24,
      "type": "VEC3"
    },
    {
      "bufferView": 43,
      "componentType": 5126,
      "count": 24,
      "type": "VEC4"
    },
    {
      "bufferView": 44,
      "componentType": 5126,
      "count": 24,
      "type": "VEC2"
    },
    {
      "bufferView": 45,
      "componentType": 5126,
      "count": 24,
      "max": [
        0.0625000074505806,
        0.09687525779008865,
        0.543749988079071
      ],
      "min": [
        -0.0625,
        -0.09062500298023224,
        0.23125000298023224
      ],
      "type": "VEC3"
    },
    {
      "bufferView": 46,
      "componentType": 5125,
      "count": 34,
      "type": "SCALAR"
    },
    {
      "bufferView": 47,
      "componentType": 5126,
      "count": 24,
      "type": "VEC3"
    },
    {
      "bufferView": 48,
      "componentType": 5126,
      "count": 24,
      "type": "VEC4"
    },
    {
      "bufferView": 49,
      "componentType": 5126,
      "count": 24,
      "type": "VEC2"
    },
    {
      "bufferView": 50,
      "componentType": 5126,
      "count": 24,
      "max": [
        0.0625000074505806,
        0.1875002533197403,
        0.3125
      ],
      "min": [
        -0.0625,
        -2.8232499671432265e-11,
        0.0
      ],
      "type": "VEC3"
    },
    {
      "bufferView": 51,
      "componentType": 5125,
      "count": 34,
      "type": "SCALAR"
    },
    {
      "bufferView": 52,
      "componentType": 5126,
      "count": 24,
      "type": "VEC3"
    },
    {
      "bufferView": 53,
      "componentType": 5126,
      "count": 24,
      "type": "VEC4"
    },
    {
      "bufferView": 54,
      "componentType": 5126,
      "count": 24,
      "type": "VEC2"
    },
    {
      "bufferView": 55,
      "componentType": 5126,
      "count": 24,
      "max": [
        0.062490202486515045,
        0.15622501075267792,
        0.12497950345277786
      ],
      "min": [
        -0.06250979751348495,
        -0.15627500414848328,
        -0.12501999735832214
      ],
      "type": "VEC3"
    },
    {
      "bufferView": 56,
      "componentType": 5125,
      "count": 34,
      "type": "SCALAR"
    },
    {
      "bufferView": 57,
      "componentType": 5126,
      "count": 24,
      "type": "VEC3"
    },
    {
      "bufferView": 58,
      "componentType": 5126,
      "count": 24,
      "type": "VEC4"
    },
    {
      "bufferView": 59,
      "componentType": 5126,
      "count": 24,
      "type": "VEC2"
    },
    {
      "bufferView": 60,
      "componentType": 5126,
      "count": 24,
      "max": [
        0.062490202486515045,
        -0.09377049654722214,
        0.24999000132083893
      ],
      "min": [
        -0.06250979751348495,
        -0.34376999735832214,
        0.12499000132083893
      ],
      "type": "VEC3"
    },
    {
      "bufferView": 61,
      "componentType": 5125,
      "count": 34,
      "type": "SCALAR"
    },
    {
      "bufferView": 62,
      "componentType": 5126,
      "count": 24,
      "type": "VEC3"
    },
    {
      "bufferView": 63,
      "componentType": 5126,
      "count": 24,
      "type": "VEC4"
    },
    {
      "bufferView": 64,
      "componentType": 5126,
      "count": 24,
      "type": "VEC2"
    },
    {
      "bufferView": 65,
      "componentType": 5126,
      "count": 24,
      "max": [
        0.1250002533197403,
        -0.40625,
        0.5312502384185791
      ],
      "min": [
        -0.0625,
        -0.53125,
        0.34375
      ],
      "type": "VEC3"
    },
    {
      "bufferView": 66,
      "componentType": 5125,
      "count": 34,
      "type": "SCALAR"
    },
    {
      "bufferView": 67,
      "componentType": 5126,
      "count": 24,
      "type": "VEC3"
    },
    {
      "bufferView": 68,
      "componentType": 5126,
      "count": 24,
      "type": "VEC4"
    },
    {
      "bufferView": 69,
      "componentType": 5126,
      "count": 24,
      "type": "VEC2"
    },
    {
      "bufferView": 70,
      "componentType": 5126,
      "count": 24,
      "max": [
        0.062490202486515045,
        0.15622501075267792,
        0.12497950345277786
      ],
      "min": [
        -0.06250979751348495,
        -0.15627500414848328,
        -0.12501999735832214
      ],
      "type": "VEC3"
    },
    {
      "bufferView": 71,
      "componentType": 5125,
      "count": 34,
      "type": "SCALAR"
    },
    {
      "bufferView": 72,
      "componentType": 5126,
      "count": 24,
      "type": "VEC3"
    },
    {
      "bufferView": 73,
      "componentType": 5126,
      "count": 24,
      "type": "VEC4"
    },
    {
      "bufferView": 74,
      "componentType": 5126,
      "count": 24,
      "type": "VEC2"
    },
    {
      "bufferView": 75,
      "componentType": 5126,
      "count": 24,
      "max": [
        0.062490202486515045,
        -0.09377049654722214,
        0.24999000132083893
      ],
      "min": [
        -0.06250979751348495,
        -0.34376999735832214,
        0.12499000132083893
      ],
      "type": "VEC3"
    },
    {
      "bufferView": 76,
      "componentType": 5125,
      "count": 34,
      "type": "SCALAR"
    },
    {
      "bufferView": 77,
      "componentType": 5126,
      "count": 24,
      "type": "VEC3"
    },
    {
      "bufferView": 78,
      "componentType": 5126,
      "count": 24,
      "type": "VEC4"
    },
    {
      "bufferView": 79,
      "componentType": 5126,
      "count": 24,
      "type": "VEC2"
    },
    {
      "bufferView": 80,
      "componentType": 5126,
      "count": 24,
      "max": [
        0.06250026077032089,
        -0.40625,
        0.5312502384185791
      ],
      "min": [
        -0.125,
        -0.53125,
        0.34375
      ],
      "type": "VEC3"
    },
    {
      "bufferView": 81,
      "componentType": 5125,
      "count": 34,
      "type": "SCALAR"
    },
    {
      "bufferView": 82,
      "componentType": 5126,
      "count": 24,
      "type": "VEC3"
    },
    {
      "bufferView": 83,
      "componentType": 5126,
      "count": 24,
      "type": "VEC4"
    },
    {
      "bufferView": 84,
      "componentType": 5126,
      "count": 24,
      "type": "VEC2"
    },
    {
      "bufferView": 85,
      "componentType": 5126,
      "count": 24,
      "max": [
        0.06250026077032089,
        0.0937500074505806,
        0.1562494933605194
      ],
      "min": [
        -0.125,
        -0.21875,
        -0.09375
      ],
      "type": "VEC3"
    },
    {
      "bufferView": 86,
      "componentType": 5125,
      "count": 34,
      "type": "SCALAR"
    },
    {
      "bufferView": 87,
      "componentType": 5126,
      "count": 24,
      "type": "VEC3"
    },
    {
      "bufferView": 88,
      "componentType": 5126,
      "count": 24,
      "type": "VEC4"
    },
    {
      "bufferView": 89,
      "componentType": 5126,
      "count": 24,
      "type": "VEC2"
    },
    {
      "bufferView": 90,
      "componentType": 5126,
      "count": 24,
      "max": [
        0.062490202486515045,
        0.24997541308403015,
        0.15624020993709564
      ],
      "min": [
        -0.06250979751348495,
        -0.06252460181713104,
        0.031240200623869896
      ],
      "type": "VEC3"
    },
    {
      "bufferView": 91,
      "componentType": 5125,
      "count": 34,
      "type": "SCALAR"
    },
    {
      "bufferView": 92,
      "componentType": 5126,
      "count": 24,
      "type": "VEC3"
    },
    {
      "bufferView": 93,
      "componentType": 5126,
      "count": 24,
      "type": "VEC4"
    },
    {
      "bufferView": 94,
      "componentType": 5126,
      "count": 24,
      "type": "VEC2"
    },
    {
      "bufferView": 95,
      "componentType": 5126,
      "count": 24,
      "max": [
        0.06250026077032089,
        -0.40625,
        0.03125026077032089
      ],
      "min": [
        -0.125,
        -0.53125,
        -0.15625
      ],
      "type": "VEC3"
    },
    {
      "bufferView": 96,
      "componentType": 5125,
      "count": 34,
      "type": "SCALAR"
    },
    {
      "bufferView": 97,
      "componentType": 5126,
      "count": 24,
      "type": "VEC3"
    },
    {
      "bufferView": 98,
      "componentType": 5126,
      "count": 24,
      "type": "VEC4"
    },
    {
      "bufferView": 99,
      "componentType": 5126,
      "count": 24,
      "type": "VEC2"
    },
    {
      "bufferView": 100,
      "componentType": 5126,
      "count": 24,
      "max": [
        0.1250002533197403,
        0.0937500074505806,
        0.1562494933605194
      ],
      "min": [
        -0.0625,
        -0.21875,
        -0.09375
      ],
      "type": "VEC3"
    },
    {
      "bufferView": 101,
      "componentType": 5125,
      "count": 34,
      "type": "SCALAR"
    },
    {
      "bufferView": 102,
      "componentType": 5126,
      "count": 24,
      "type": "VEC3"
    },
    {
      "bufferView": 103,
      "componentType": 5126,
      "count": 24,
      "type": "VEC4"
    },
    {
      "bufferView": 104,
      "componentType": 5126,
      "count": 24,
      "type": "VEC2"
    },
    {
      "bufferView": 105,
      "componentType": 5126,
      "count": 24,
      "max": [
        0.062490202486515045,
        0.24997541308403015,
        0.15624020993709564
      ],
      "min": [
        -0.06250979751348495,
        -0.06252460181713104,
        0.031240200623869896
      ],
      "type": "VEC3"
    },
    {
      "bufferView": 106,
      "componentType": 5125,
      "count": 34,
      "type": "SCALAR"
    },
    {
      "bufferView": 107,
      "componentType": 5126,
      "count": 24,
      "type": "VEC3"
    },
    {
      "bufferView": 108,
      "componentType": 5126,
      "count": 24,
      "type": "VEC4"
    },
    {
      "bufferView": 109,
      "componentType": 5126,
      "count": 24,
      "type": "VEC2"
    },
    {
      "bufferView": 110,
      "componentType": 5126,
      "count": 24,
      "max": [
        0.1250002533197403,
        -0.40625,
        0.03125026077032089
      ],
      "min": [
        -0.0625,
        -0.53125,
        -0.15625
      ],
      "type": "VEC3"
    },
    {
      "bufferView": 111,
      "componentType": 5125,
      "count": 34,
      "type": "SCALAR"
    },
    {
      "bufferView": 112,
      "componentType": 5126,
      "count": 24,
      "type": "VEC3"
    },
    {
      "bufferView": 113,
      "componentType": 5126,
      "count": 24,
      "type": "VEC4"
    },
    {
      "bufferView": 114,
      "componentType": 5126,
      "count": 24,
      "type": "VEC2"
    },
    {
      "bufferView": 115,
      "componentType": 5126,
      "count": 24,
      "max": [
        -0.06249973922967911,
        1.250000238418579,
        -0.06249973922967911
      ],
      "min": [
        -0.25,
        1.0625,
        -0.25
      ],
      "type": "VEC3"
    },
    {
      "bufferView": 116,
      "componentType": 5125,
      "count": 34,
      "type": "SCALAR"
    },
    {
      "bufferView": 117,
      "componentType": 5126,
      "count": 24,
      "type": "VEC3"
    },
    {
      "bufferView": 118,
      "componentType": 5126,
      "count": 24,
      "type": "VEC4"
    },
    {
      "bufferView": 119,
      "componentType": 5126,
      "count": 24,
      "type": "VEC2"
    },
    {
      "bufferView": 120,
      "componentType": 5126,
      "count": 24,
      "max": [
        -0.1249927431344986,
        1.312509536743164,
        -0.18744046986103058
      ],
      "min": [
        -0.3125,
        1.125,
        -0.1875
      ],
      "type": "VEC3"
    },
    {
      "bufferView": 121,
      "componentType": 5125,
      "count": 34,
      "type": "SCALAR"
    },
    {
      "bufferView": 122,
      "componentType": 5126,
      "count": 24,
      "type": "VEC3"
    },
    {
      "bufferView": 123,
      "componentType": 5126,
      "count": 24,
      "type": "VEC4"
    },
    {
      "bufferView": 124,
      "componentType": 5126,
      "count": 24,
      "type": "VEC2"
    },
    {
      "bufferView": 125,
      "componentType": 5126,
      "count": 24,
      "max": [
        -0.3124259412288666,
        1.312509536743164,
        0.12499921768903732
      ],
      "min": [
        -0.3125,
        1.125,
        -0.1875
      ],
      "type": "VEC3"
    },
    {
      "bufferView": 126,
      "componentType": 5125,
      "count": 34,
      "type": "SCALAR"
    },
    {
      "bufferView": 127,
      "componentType": 5126,
      "count": 24,
      "type": "VEC3"
    },
    {
      "bufferView": 128,
      "componentType": 5126,
      "count": 24,
      "type": "VEC4"
    },
    {
      "bufferView": 129,
      "componentType": 5126,
      "count": 24,
      "type": "VEC2"
    },
    {
      "bufferView": 130,
      "componentType": 5126,
      "count": 24,
      "max": [
        -0.1249927431344986,
        1.312509536743164,
        0.12505853176116943
      ],
      "min": [
        -0.3125,
        1.125,
        0.12499900162220001
      ],
      "type": "VEC3"
    },
    {
      "bufferView": 131,
      "componentType": 5125,
      "count": 34,
      "type": "SCALAR"
    },
    {
      "bufferView": 132,
      "componentType": 5126,
      "count": 24,
      "type": "VEC3"
    },
    {
      "bufferView": 133,
      "componentType": 5126,
      "count": 24,
      "type": "VEC4"
    },
    {
      "bufferView": 134,
      "componentType": 5126,
      "count": 24,
      "type": "VEC2"
    },
    {
      "bufferView": 135,
      "componentType": 5126,
      "count": 24,
      "max": [
        -0.1249927431344986,
        1.3126068115234375,
        0.12499921768903732
      ],
      "min": [
        -0.3125,
        1.312503457069397,
        -0.1875
      ],
      "type": "VEC3"
    },
    {
      "bufferView": 136,
      "componentType": 5125,
      "count": 34,
      "type": "SCALAR"
    },
    {
      "bufferView": 137,
      "componentType": 5126,
      "count": 24,
      "type": "VEC3"
    },
    {
      "bufferView": 138,
      "componentType": 5126,
      "count": 24,
      "type": "VEC4"
    },
    {
      "bufferView": 139,
      "componentType": 5126,
      "count": 24,
      "type": "VEC2"
    },
    {
      "bufferView": 140,
      "componentType": 5126,
      "count": 24,
      "max": [
        0.2500002682209015,
        1.250000238418579,
        -0.06249973922967911
      ],
      "min": [
        0.0625,
        1.0625,
        -0.25
      ],
      "type": "VEC3"
    },
    {
      "bufferView": 141,
      "componentType": 5125,
      "count": 34,
      "type": "SCALAR"
    },
    {
      "bufferView": 142,
      "componentType": 5126,
      "count": 24,
      "type": "VEC3"
    },
    {
      "bufferView": 143,
      "componentType": 5126,
      "count": 24,
      "type": "VEC4"
    },
    {
      "bufferView": 144,
      "componentType": 5126,
      "count": 24,
      "type": "VEC2"
    },
    {
      "bufferView": 145,
      "componentType": 5126,
      "count": 24,
      "max": [
        0.3125072717666626,
        1.312509536743164,
        -0.18744046986103058
      ],
      "min": [
        0.125,
        1.125,
        -0.1875
      ],
      "type": "VEC3"
    },
    {
      "bufferView": 146,
      "componentType": 5125,
      "count": 34,
      "type": "SCALAR"
    },
    {
      "bufferView": 147,
      "componentType": 5126,
      "count": 24,
      "type": "VEC3"
    },
    {
      "bufferView": 148,
      "componentType": 5126,
      "count": 24,
      "type": "VEC4"
    },
    {
      "bufferView": 149,
      "componentType": 5126,
      "count": 24,
      "type": "VEC2"
    },
    {
      "bufferView": 150,
      "componentType": 5126,
      "count": 24,
      "max": [
        0.31255605816841125,
        1.312509536743164,
        0.12499921768903732
      ],
      "min": [
        0.31250667572021484,
        1.125,
        -0.1875
      ],
      "type": "VEC3"
    },
    {
      "bufferView": 151,
      "componentType": 5125,
      "count": 34,
      "type": "SCALAR"
    },
    {
      "bufferView": 152,
      "componentType": 5126,
      "count": 24,
      "type": "VEC3"
    },
    {
      "bufferView": 153,
      "componentType": 5126,
      "count": 24,
      "type": "VEC4"
    },
    {
      "bufferView": 154,
      "componentType": 5126,
      "count": 24,
      "type": "VEC2"
    },
    {
      "bufferView": 155,
      "componentType": 5126,
      "count": 24,
      "max": [
        0.3125072717666626,
        1.312509536743164,
        0.12505853176116943
      ],
      "min": [
        0.125,
        1.125,
        0.12499900162220001
      ],
      "type": "VEC3"
    },
    {
      "bufferView": 156,
      "componentType": 5125,
      "count": 34,
      "type": "SCALAR"
    },
    {
      "bufferView": 157,
      "componentType": 5126,
      "count": 24,
      "type": "VEC3"
    },
    {
      "bufferView": 158,
      "componentType": 5126,
      "count": 24,
      "type": "VEC4"
    },
    {
      "bufferView": 159,
      "componentType": 5126,
      "count": 24,
      "type": "VEC2"
    },
    {
      "bufferView": 160,
      "componentType": 5126,
      "count": 24,
      "max": [
        0.3125072717666626,
        1.3126068115234375,
        0.12499921768903732
      ],
      "min": [
        0.125,
        1.312503457069397,
        -0.1875
      ],
      "type": "VEC3"
    },
    {
      "bufferView": 161,
      "componentType": 5125,
      "count": 34,
      "type": "SCALAR"
    },
    {
      "bufferView": 162,
      "componentType": 5126,
      "count": 24,
      "type": "VEC3"
    },
    {
      "bufferView": 163,
      "componentType": 5126,
      "count": 24,
      "type": "VEC4"
    },
    {
      "bufferView": 164,
      "componentType": 5126,
      "count": 24,
      "type": "VEC2"
    },
    {
      "bufferView": 165,
      "componentType": 5126,
      "count": 24,
      "max": [
        -0.6874997019767761,
        0.4999997615814209,
        0.4375002682209015
      ],
      "min": [
        -1.1875,
        0.0625,
        -0.0625
      ],
      "type": "VEC3"
    },
    {
      "bufferView": 166,
      "componentType": 5125,
      "count": 34,
      "type": "SCALAR"
    },
    {
      "bufferView": 167,
      "componentType": 5126,
      "count": 24,
      "type": "VEC3"
    },
    {
      "bufferView": 168,
      "componentType": 5126,
      "count": 24,
      "type": "VEC4"
    },
    {
      "bufferView": 169,
      "componentType": 5126,
      "count": 24,
      "type": "VEC2"
    },
    {
      "bufferView": 170,
      "componentType": 5126,
      "count": 24,
      "max": [
        -0.749999463558197,
        0.0625,
        0.3750005066394806
      ],
      "min": [
        -1.125,
        0.0,
        0.0
      ],
      "type": "VEC3"
    },
    {
      "bufferView": 171,
      "componentType": 5125,
      "count": 34,
      "type": "SCALAR"
    },
    {
      "bufferView": 172,
      "componentType": 5126,
      "count": 24,
      "type": "VEC3"
    },
    {
      "bufferView": 173,
      "componentType": 5126,
      "count": 24,
      "type": "VEC4"
    },
    {
      "bufferView": 174,
      "componentType": 5126,
      "count": 24,
      "type": "VEC2"
    },
    {
      "bufferView": 175,
      "componentType": 5126,
      "count": 24,
      "max": [
        -0.8125004768371582,
        0.6875,
        0.3124994933605194
      ],
      "min": [
        -1.0625,
        0.625,
        0.0625
      ],
      "type": "VEC3"
    },
    {
      "bufferView": 176,
      "componentType": 5125,
      "count": 34,
      "type": "SCALAR"
    },
    {
      "bufferView": 177,
      "componentType": 5126,
      "count": 24,
      "type": "VEC3"
    },
    {
      "bufferView": 178,
      "componentType": 5126,
      "count": 24,
      "type": "VEC4"
    },
    {
      "bufferView": 179,
      "componentType": 5126,
      "count": 24,
      "type": "VEC2"
    },
    {
      "bufferView": 180,
      "componentType": 5126,
      "count": 24,
      "max": [
        -0.749999463558197,
        0.625,
        0.3750005066394806
      ],
      "min": [
        -1.125,
        0.5,
        0.0
      ],
      "type": "VEC3"
    },
    {
      "bufferView": 181,
      "componentType": 5125,
      "count": 34,
      "type": "SCALAR"
    },
    {
      "bufferView": 182,
      "componentType": 5126,
      "count": 24,
      "type": "VEC3"
    },
    {
      "bufferView": 183,
      "componentType": 5126,
      "count": 24,
      "type": "VEC4"
    },
    {
      "bufferView": 184,
      "componentType": 5126,
      "count": 24,
      "type": "VEC2"
    }
  ],
  "asset": {
    "version": "2.0"
  },
  "bufferViews": [
    {
      "buffer": 0,
      "byteLength": 288,
      "target": 34962
    },
    {
      "buffer": 1,
      "byteLength": 136,
      "target": 34963
    },
    {
      "buffer": 2,
      "byteLength": 288,
      "target": 34962
    },
    {
      "buffer": 3,
      "byteLength": 384,
      "target": 34962
    },
    {
      "buffer": 4,
      "byteLength": 192,
      "target": 34962
    },
    {
      "buffer": 5,
      "byteLength": 288,
      "target": 34962
    },
    {
      "buffer": 6,
      "byteLength": 136,
      "target": 34963
    },
    {
      "buffer": 7,
      "byteLength": 288,
      "target": 34962
    },
    {
      "buffer": 8,
      "byteLength": 384,
      "target": 34962
    },
    {
      "buffer": 9,
      "byteLength": 192,
      "target": 34962
    },
    {
      "buffer": 10,
      "byteLength": 288,
      "target": 34962
    },
    {
      "buffer": 11,
      "byteLength": 136,
      "target": 34963
    },
    {
      "buffer": 12,
      "byteLength": 288,
      "target": 34962
    },
    {
      "buffer": 13,
      "byteLength": 384,
      "target": 34962
    },
    {
      "buffer": 14,
      "byteLength": 192,
      "target": 34962
    },
    {
      "buffer": 15,
      "byteLength": 288,
      "target": 34962
    },
    {
      "buffer": 16,
      "byteLength": 136,
      "target": 34963
    },
    {
      "buffer": 17,
      "byteLength": 288,
      "target": 34962
    },
    {
      "buffer": 18,
      "byteLength": 384,
      "target": 34962
    },
    {
      "buffer": 19,
      "byteLength": 192,
      "target": 34962
    },
    {
      "buffer": 20,
      "byteLength": 288,
      "target": 34962
    },
    {
      "buffer": 21,
      "byteLength": 136,
      "target": 34963
    },
    {
      "buffer": 22,
      "byteLength": 288,
      "target": 34962
    },
    {
      "buffer": 23,
      "byteLength": 384,
      "target": 34962
    },
    {
      "buffer": 24,
      "byteLength": 192,
      "target": 34962
    },
    {
      "buffer": 25,
      "byteLength": 288,
      "target": 34962
    },
    {
      "buffer": 26,
      "byteLength": 136,
      "target": 34963
    },
    {
      "buffer": 27,
      "byteLength": 288,
      "target": 34962
    },
    {
      "buffer": 28,
      "byteLength": 384,
      "target": 34962
    },
    {
      "buffer": 29,
      "byteLength": 192,
      "target": 34962
    },
    {
      "buffer": 30,
      "byteLength": 288,
      "target": 34962
    },
    {
      "buffer": 31,
      "byteLength": 136,
      "target": 34963
    },
    {
      "buffer": 32,
      "byteLength": 288,
      "target": 34962
    },
    {
      "buffer": 33,
      "byteLength": 384,
      "target": 34962
    },
    {
      "buffer": 34,
      "byteLength": 192,
      "target": 34962
    },
    {
      "buffer": 35,
      "byteLength": 288,
      "target": 34962
    },
    {
      "buffer": 36,
      "byteLength": 136,
      "target": 34963
    },
    {
      "buffer": 37,
      "byteLength": 288,
      "target": 34962
    },
    {
      "buffer": 38,
      "byteLength": 384,
      "target": 34962
    },
    {
      "buffer": 39,
      "byteLength": 192,
      "target": 34962
    },
    {
      "buffer": 40,
      "byteLength": 288,
      "target": 34962
    },
    {
      "buffer": 41,
      "byteLength": 136,
      "target": 34963
    },
    {
      "buffer": 42,
      "byteLength": 288,
      "target": 34962
    },
    {
      "buffer": 43,
      "byteLength": 384,
      "target": 34962
    },
    {
      "buffer": 44,
      "byteLength": 192,
      "target": 34962
    },
    {
      "buffer": 45,
      "byteLength": 288,
      "target": 34962
    },
    {
      "buffer": 46,
      "byteLength": 136,
      "target": 34963
    },
    {
      "buffer": 47,
      "byteLength": 288,
      "target": 34962
    },
    {
      "buffer": 48,
      "byteLength": 384,
      "target": 34962
    },
    {
      "buffer": 49,
      "byteLength": 192,
      "target": 34962
    },
    {
      "buffer": 50,
      "byteLength": 288,
      "target": 34962
    },
    {
      "buffer": 51,
      "byteLength": 136,
      "target": 34963
    },
    {
      "buffer": 52,
      "byteLength": 288,
      "target": 34962
    },
    {
      "buffer": 53,
      "byteLength": 384,
      "target": 34962
    },
    {
      "buffer": 54,
      "byteLength": 192,
      "target": 34962
    },
    {
      "buffer": 55,
      "byteLength": 288,
      "target": 34962
    },
    {
      "buffer": 56,
      "byteLength": 136,
      "target": 34963
    },
    {
      "buffer": 57,
      "byteLength": 288,
      "target": 34962
    },
    {
      "buffer": 58,
      "byteLength": 384,
      "target": 34962
    },
    {
      "buffer": 59,
      "byteLength": 192,
      "target": 34962
    },
    {
      "buffer": 60,
      "byteLength": 288,
      "target": 34962
    },
    {
      "buffer": 61,
      "byteLength": 136,
      "target": 34963
    },
    {
      "buffer": 62,
      "byteLength": 288,
      "target": 34962
    },
    {
      "buffer": 63,
      "byteLength": 384,
      "target": 34962
    },
    {
      "buffer": 64,
      "byteLength": 192,
      "target": 34962
    },
    {
      "buffer": 65,
      "byteLength": 288,
      "target": 34962
    },
    {
      "buffer": 66,
      "byteLength": 136,
      "target": 34963
    },
    {
      "buffer": 67,
      "byteLength": 288,
      "target": 34962
    },
    {
      "buffer": 68,
      "byteLength": 384,
      "target": 34962
    },
    {
      "buffer": 69,
      "byteLength": 192,
      "target": 34962
    },
    {
      "buffer": 70,
      "byteLength": 288,
      "target": 34962
    },
    {
      "buffer": 71,
      "byteLength": 136,
      "target": 34963
    },
    {
      "buffer": 72,
      "byteLength": 288,
      "target": 34962
    },
    {
      "buffer": 73,
      "byteLength": 384,
      "target": 34962
    },
    {
      "buffer": 74,
      "byteLength": 192,
      "target": 34962
    },
    {
      "buffer": 75,
      "byteLength": 288,
      "target": 34962
    },
    {
      "buffer": 76,
      "byteLength": 136,
      "target": 34963
    },
    {
      "buffer": 77,
      "byteLength": 288,
      "target": 34962
    },
    {
      "buffer": 78,
      "byteLength": 384,
      "target": 34962
    },
    {
      "buffer": 79,
      "byteLength": 192,
      "target": 34962
    },
    {
      "buffer": 80,
      "byteLength": 288,
      "target": 34962
    },
    {
      "buffer": 81,
      "byteLength": 136,
      "target": 34963
    },
    {
      "buffer": 82,
      "byteLength": 288,
      "target": 34962
    },
    {
      "buffer": 83,
      "byteLength": 384,
      "target": 34962
    },
    {
      "buffer": 84,
      "byteLength": 192,
      "target": 34962
    },
    {
      "buffer": 85,
      "byteLength": 288,
      "target": 34962
    },
    {
      "buffer": 86,
      "byteLength": 136,
      "target": 34963
    },
    {
      "buffer": 87,
      "byteLength": 288,
      "target": 34962
    },
    {
      "buffer": 88,
      "byteLength": 384,
      "target": 34962
    },
    {
      "buffer": 89,
      "byteLength": 192,
      "target": 34962
    },
    {
      "buffer": 90,
      "byteLength": 288,
      "target": 34962
    },
    {
      "buffer": 91,
      "byteLength": 136,
      "target": 34963
    },
    {
      "buffer": 92,
      "byteLength": 288,
      "target": 34962
    },
    {
      "buffer": 93,
      "byteLength": 384,
      "target": 34962
    },
    {
      "buffer": 94,
      "byteLength": 192,
      "target": 34962
    },
    {
      "buffer": 95,
      "byteLength": 288,
      "target": 34962
    },
    {
      "buffer": 96,
      "byteLength": 136,
      "target": 34963
    },
    {
      "buffer": 97,
      "byteLength": 288,
      "target": 34962
    },
    {
      "buffer": 98,
      "byteLength": 384,
      "target": 34962
    },
    {
      "buffer": 99,
      "byteLength": 192,
      "target": 34962
    },
    {
      "buffer": 100,
      "byteLength": 288,
      "target": 34962
    },
    {
      "buffer": 101,
      "byteLength": 136,
      "target": 34963
    },
    {
      "buffer": 102,
      "byteLength": 288,
      "target": 34962
    },
    {
      "buffer": 103,
      "byteLength": 384,
      "target": 34962
    },
    {
      "buffer": 104,
      "byteLength": 192,
      "target": 34962
    },
    {
      "buffer": 105,
      "byteLength": 288,
      "target": 34962
    },
    {
      "buffer": 106,
      "byteLength": 136,
      "target": 34963
    },
    {
      "buffer": 107,
      "byteLength": 288,
      "target": 34962
    },
    {
      "buffer": 108,
      "byteLength": 384,
      "target": 34962
    },
    {
      "buffer": 109,
      "byteLength": 192,
      "target": 34962
    },
    {
      "buffer": 110,
      "byteLength": 288,
      "target": 34962
    },
    {
      "buffer": 111,
      "byteLength": 136,
      "target": 34963
    },
    {
      "buffer": 112,
      "byteLength": 288,
      "target": 34962
    },
    {
      "buffer": 113,
      "byteLength": 384,
      "target": 34962
    },
    {
      "buffer": 114,
      "byteLength": 192,
      "target": 34962
    },
    {
      "buffer": 115,
      "byteLength": 288,
      "target": 34962
    },
    {
      "buffer": 116,
      "byteLength": 136,
      "target": 34963
    },
    {
      "buffer": 117,
      "byteLength": 288,
      "target": 34962
    },
    {
      "buffer": 118,
      "byteLength": 384,
      "target": 34962
    },
    {
      "buffer": 119,
      "byteLength": 192,
      "target": 34962
    },
    {
      "buffer": 120,
      "byteLength": 288,
      "target": 34962
    },
    {
      "buffer": 121,
      "byteLength": 136,
      "target": 34963
    },
    {
      "buffer": 122,
      "byteLength": 288,
      "target": 34962
    },
    {
      "buffer": 123,
      "byteLength": 384,
      "target": 34962
    },
    {
      "buffer": 124,
      "byteLength": 192,
      "target": 34962
    },
    {
      "buffer": 125,
      "byteLength": 288,
      "target": 34962
    },
    {
      "buffer": 126,
      "byteLength": 136,
      "target": 34963
    },
    {
      "buffer": 127,
      "byteLength": 288,
      "target": 34962
    },
    {
      "buffer": 128,
      "byteLength": 384,
      "target": 34962
    },
    {
      "buffer": 129,
      "byteLength": 192,
      "target": 34962
    },
    {
      "buffer": 130,
      "byteLength": 288,
      "target": 34962
    },
    {
      "buffer": 131,
      "byteLength": 136,
      "target": 34963
    },
    {
      "buffer": 132,
      "byteLength": 288,
      "target": 34962
    },
    {
      "buffer": 133,
      "byteLength": 384,
      "target": 34962
    },
    {
      "buffer": 134,
      "byteLength": 192,
      "target": 34962
    },
    {
      "buffer": 135,
      "byteLength": 288,
      "target": 34962
    },
    {
      "buffer": 136,
      "byteLength": 136,
      "target": 34963
    },
    {
      "buffer": 137,
      "byteLength": 288,
      "target": 34962
    },
    {
      "buffer": 138,
      "byteLength": 384,
      "target": 34962
    },
    {
      "buffer": 139,
      "byteLength": 192,
      "target": 34962
    },
    {
      "buffer": 140,
      "byteLength": 288,
      "target": 34962
    },
    {
      "buffer": 141,
      "byteLength": 136,
      "target": 34963
    },
    {
      "buffer": 142,
      "byteLength": 288,
      "target": 34962
    },
    {
      "buffer": 143,
      "byteLength": 384,
      "target": 34962
    },
    {
      "buffer": 144,
      "byteLength": 192,
      "target": 34962
    },
    {
      "buffer": 145,
      "byteLength": 288,
      "target": 34962
    },
    {
      "buffer": 146,
      "byteLength": 136,
      "target": 34963
    },
    {
      "buffer": 147,
      "byteLength": 288,
      "target": 34962
    },
    {
      "buffer": 148,
      "byteLength": 384,
      "target": 34962
    },
    {
      "buffer": 149,
      "byteLength": 192,
      "target": 34962
    },
    {
      "buffer": 150,
      "byteLength": 288,
      "target": 34962
    },
    {
      "buffer": 151,
      "byteLength": 136,
      "target": 34963
    },
    {
      "buffer": 152,
      "byteLength": 288,
      "target": 34962
    },
    {
      "buffer": 153,
      "byteLength": 384,
      "target": 34962
    },
    {
      "buffer": 154,
      "byteLength": 192,
      "target": 34962
    },
    {
      "buffer": 155,
      "byteLength": 288,
      "target": 34962
    },
    {
      "buffer": 156,
      "byteLength": 136,
      "target": 34963
    },
    {
      "buffer": 157,
      "byteLength": 288,
      "target": 34962
    },
    {
      "buffer": 158,
      "byteLength": 384,
      "target": 34962
    },
    {
      "buffer": 159,
      "byteLength": 192,
      "target": 34962
    },
    {
      "buffer": 160,
      "byteLength": 288,
      "target": 34962
    },
    {
      "buffer": 161,
      "byteLength": 136,
      "target": 34963
    },
    {
      "buffer": 162,
      "byteLength": 288,
      "target": 34962
    },
    {
      "buffer": 163,
      "byteLength": 384,
      "target": 34962
    },
    {
      "buffer": 164,
      "byteLength": 192,
      "target": 34962
    },
    {
      "buffer": 165,
      "byteLength": 288,
      "target": 34962
    },
    {
      "buffer": 166,
      "byteLength": 136,
      "target": 34963
    },
    {
      "buffer": 167,
      "byteLength": 288,
      "target": 34962
    },
    {
      "buffer": 168,
      "byteLength": 384,
      "target": 34962
    },
    {
      "buffer": 169,
      "byteLength": 192,
      "target": 34962
    },
    {
      "buffer": 170,
      "byteLength": 288,
      "target": 34962
    },
    {
      "buffer": 171,
      "byteLength": 136,
      "target": 34963
    },
    {
      "buffer": 172,
      "byteLength": 288,
      "target": 34962
    },
    {
      "buffer": 173,
      "byteLength": 384,
      "target": 34962
    },
    {
      "buffer": 174,
      "byteLength": 192,
      "target": 34962
    },
    {
      "buffer": 175,
      "byteLength": 288,
      "target": 34962
    },
    {
      "buffer": 176,
      "byteLength": 136,
      "target": 34963
    },
    {
      "buffer": 177,
      "byteLength": 288,
      "target": 34962
    },
    {
      "buffer": 178,
      "byteLength": 384,
      "target": 34962
    },
    {
      "buffer": 179,
      "byteLength": 192,
      "target": 34962
    },
    {
      "buffer": 180,
      "byteLength": 288,
      "target": 34962
    },
    {
      "buffer": 181,
      "byteLength": 136,
      "target": 34963
    },
    {
      "buffer": 182,
      "byteLength": 288,
      "target": 34962
    },
    {
      "buffer": 183,
      "byteLength": 384,
      "target": 34962
    },
    {
      "buffer": 184,
      "byteLength": 192,
      "target": 34962
    }
  ],
  "buffers": [
    {
      "byteLength": 288,
      "uri": "data:application/octet-stream;base64,"
    },
    {
      "byteLength": 136,
      "uri": "data:application/octet-stream;base64,"
    },
    {
      "byteLength": 288,
      "uri": "data:application/octet-stream;base64,"
    },
    {
      "byteLength": 384,
      "uri": "data:application/octet-stream;base64,"
    },
    {
      "byteLength": 192,
      "uri": "data:application/octet-stream;base64,"
    },
    {
      "byteLength": 288,
      "uri": "data:application/octet-stream;base64,"
    },
    {
      "byteLength": 136,
      "uri": "data:application/octet-stream;base64,"
    },
    {
      "byteLength": 288,
      "uri": "data:application/octet-stream;base64,"
    },
    {
      "byteLength": 384,
      "uri": "data:application/octet-stream;base64,"
    },
    {
      "byteLength": 192,
      "uri": "data:application/octet-stream;base64,"
    },
    {
      "byteLength": 288,
      "uri": "data:application/octet-stream;base64,"
    },
    {
      "byteLength": 136,
      "uri": "data:application/octet-stream;base64,"
    },
    {
      "byteLength": 288,
      "uri": "data:application/octet-stream;base64,"
    },
    {
      "byteLength": 384,
      "uri": "data:application/octet-stream;base64,"
    },
    {
      "byteLength": 192,
      "uri": "data:application/octet-stream;base64,"
    },
    {
      "byteLength": 288,
      "uri": "data:application/octet-stream;base64,"
    },
    {
      "byteLength": 136,
      "uri": "data:application/octet-stream;base64,"
    },
    {
      "byteLength": 288,
      "uri": "data:application/octet-stream;base64,"
    },
    {
      "byteLength": 384,
      "uri": "data:application/octet-stream;base64,"
    },
    {
      "byteLength": 192,
      "uri": "data:application/octet-stream;base64,"
    },
    {
      "byteLength": 288,
      "uri": "data:application/octet-stream;base64,"
    },
    {
      "byteLength": 136,
      "uri": "data:application/octet-stream;base64,"
    },
    {
      "byteLength": 288,
      "uri": "data:application/octet-stream;base64,"
    },
    {
      "byteLength": 384,
      "uri": "data:application/octet-stream;base64,"
    },
    {
      "byteLength": 192,
      "uri": "data:application/octet-stream;base64,"
    },
    {
      "byteLength": 288,
      "uri": "data:application/octet-stream;base64,"
    },
    {
      "byteLength": 136,
      "uri": "data:application/octet-stream;base64,"
    },
    {
      "byteLength": 288,
      "uri": "data:application/octet-stream;base64,"
    },
    {
      "byteLength": 384,
      "uri": "data:application/octet-stream;base64,"
    },
    {
      "byteLength": 192,
      "uri": "data:application/octet-stream;base64,"
    },
    {
      "byteLength": 288,
      "uri": "data:application/octet-stream;base64,"
    },
    {
      "byteLength": 136,
      "uri": "data:application/octet-stream;base64,"
    },
    {
      "byteLength": 288,
      "uri": "data:application/octet-stream;base64,"
    },
    {
      "byteLength": 384,
      "uri": "data:application/octet-stream;base64,"
    },
    {
      "byteLength": 192,
      "uri": "data:application/octet-stream;base64,"
    },
    {
      "byteLength": 288,
      "uri": "data:application/octet-stream;base64,"
    },
    {
      "byteLength": 136,
      "uri": "data:application/octet-stream;base64,"
    },
    {
      "byteLength": 288,
      "uri": "data:application/octet-stream;base64,"
    },
    {
      "byteLength": 384,
      "uri": "data:application/octet-stream;base64,"
    },
    {
      "byteLength": 192,
      "uri": "data:application/octet-stream;base64,"
    },
    {
      "byteLength": 288,
      "uri": "data:application/octet-stream;base64,"
    },
    {
      "byteLength": 136,
      "uri": "data:application/octet-stream;base64,"
    },
    {
      "byteLength": 288,
      "uri": "data:application/octet-stream;base64,"
    },
    {
      "byteLength": 384,
      "uri": "data:application/octet-stream;base64,"
    },
    {
      "byteLength": 192,
      "uri": "data:application/octet-stream;base64,"
    },
    {
      "byteLength": 288,
      "uri": "data:application/octet-stream;base64,"
    },
    {
      "byteLength": 136,
      "uri": "data:application/octet-stream;base64,"
    },
    {
      "byteLength": 288,
      "uri": "data:application/octet-stream;base64,"
    },
    {
      "byteLength": 384,
      "uri": "data:application/octet-stream;base64,"
    },
    {
      "byteLength": 192,
      "uri": "data:application/octet-stream;base64,"
    },
    {
      "byteLength": 288,
      "uri": "data:application/octet-stream;base64,"
    },
    {
      "byteLength": 136,
      "uri": "data:application/octet-stream;base64,"
    },
    {
      "byteLength": 288,
      "uri": "data:application/octet-stream;base64,"
    },
    {
      "byteLength": 384,
      "uri": "data:application/octet-stream;base64,"
    },
    {
      "byteLength": 192,
      "uri": "data:application/octet-stream;base64,"
    },
    {
      "byteLength": 288,
      "uri": "data:application/octet-stream;base64,"
    },
    {
      "byteLength": 136,
      "uri": "data:application/octet-stream;base64,"
    },
    {
      "byteLength": 288,
      "uri": "data:application/octet-stream;base64,"
    },
    {
      "byteLength": 384,
      "uri": "data:application/octet-stream;base64,"
    },
    {
      "byteLength": 192,
      "uri": "data:application/octet-stream;base64,"
    },
    {
      "byteLength": 288,
      "uri": "data:application/octet-stream;base64,"
    },
    {
      "byteLength": 136,
      "uri": "data:application/octet-stream;base64,"
    },
    {
      "byteLength": 288,
      "uri": "data:application/octet-stream;base64,"
    },
    {
      "byteLength": 384,
      "uri": "data:application/octet-stream;base64,"
    },
    {
      "byteLength": 192,
      "uri": "data:application/octet-stream;base64,"
    },
    {
      "byteLength": 288,
      "uri": "data:application/octet-stream;base64,"
    },
    {
      "byteLength": 136,
      "uri": "data:application/octet-stream;base64,"
    },
    {
      "byteLength": 288,
      "uri": "data:application/octet-stream;base64,"
    },
    {
      "byteLength": 384,
      "uri": "data:application/octet-stream;base64,"
    },
    {
      "byteLength": 192,
      "uri": "data:application/octet-stream;base64,"
    },
    {
      "byteLength": 288,
      "uri": "data:application/octet-stream;base64,"
    },
    {
      "byteLength": 136,
      "uri": "data:application/octet-stream;base64,"
    },
    {
      "byteLength": 288,
      "uri": "data:application/octet-stream;base64,"
    },
    {
      "byteLength": 384,
      "uri": "data:application/octet-stream;base64,"
    },
    {
      "byteLength": 192,
      "uri": "data:application/octet-stream;base64,"
    },
    {
      "byteLength": 288,
      "uri": "data:application/octet-stream;base64,"
    },
    {
      "byteLength": 136,
      "uri": "data:application/octet-stream;base64,"
    },
    {
      "byteLength": 288,
      "uri": "data:application/octet-stream;base64,"
    },
    {
      "byteLength": 384,
      "uri": "data:application/octet-stream;base64,"
    },
    {
      "byteLength": 192,
      "uri": "data:application/octet-stream;base64,"
    },
    {
      "byteLength": 288,
      "uri": "data:application/octet-stream;base64,"
    },
    {
      "byteLength": 136,
      "uri": "data:application/octet-stream;base64,"
    },
    {
      "byteLength": 288,
      "uri": "data:application/octet-stream;base64,"
    },
    {
      "byteLength": 384,
      "uri": "data:application/octet-stream;base64,"
    },
    {
      "byteLength": 192,
      "uri": "data:application/octet-stream;base64,"
    },
    {
      "byteLength": 288,
      "uri": "data:application/octet-stream;base64,"
    },
    {
      "byteLength": 136,
      "uri": "data:application/octet-stream;base64,"
    },
    {
      "byteLength": 288,
      "uri": "data:application/octet-stream;base64,"
    },
    {
      "byteLength": 384,
      "uri": "data:application/octet-stream;base64,"
    },
    {
      "byteLength": 192,
      "uri": "data:application/octet-stream;base64,"
    },
    {
      "byteLength": 288,
      "uri": "data:application/octet-stream;base64,"
    },
    {
      "byteLength": 136,
      "uri": "data:application/octet-stream;base64,"
    },
    {
      "byteLength": 288,
      "uri": "data:application/octet-stream;base64,"
    },
    {
      "byteLength": 384,
      "uri": "data:application/octet-stream;base64,"
    },
    {
      "byteLength": 192,
      "uri": "data:application/octet-stream;base64,"
    },
    {
      "byteLength": 288,
      "uri": "data:application/octet-stream;base64,"
    },
    {
      "byteLength": 136,
      "uri": "data:application/octet-stream;base64,"
    },
    {
      "byteLength": 288,
      "uri": "data:application/octet-stream;base64,"
    },
    {
      "byteLength": 384,
      "uri": "data:application/octet-stream;base64,"
    },
    {
      "byteLength": 192,
      "uri": "data:application/octet-stream;base64,"
    },
    {
      "byteLength": 288,
      "uri": "data:application/octet-stream;base64,"
    },
    {
      "byteLength": 136,
      "uri": "data:application/octet-stream;base64,"
    },
    {
      "byteLength": 288,
      "uri": "data:application/octet-stream;base64,"
    },
    {
      "byteLength": 384,
      "uri": "data:application/octet-stream;base64,"
    },
    {
      "byteLength": 192,
      "uri": "data:application/octet-stream;base64,"
    },
    {
      "byteLength": 288,
      "uri": "data:application/octet-stream;base64,"
    },
    {
      "byteLength": 136,
      "uri": "data:application/octet-stream;base64,"
    },
    {
      "byteLength": 288,
      "uri": "data:application/octet-stream;base64,"
    },
    {
      "byteLength": 384,
      "uri": "data:application/octet-stream;base64,"
    },
    {
      "byteLength": 192,
      "uri": "data:application/octet-stream;base64,"
    },
    {
      "byteLength": 288,
      "uri": "data:application/octet-stream;base64,"
    },
    {
      "byteLength": 136,
      "uri": "data:application/octet-stream;base64,"
    },
    {
      "byteLength": 288,
      "uri": "data:application/octet-stream;base64,"
    },
    {
      "byteLength": 384,
      "uri": "data:application/octet-stream;base64,"
    },
    {
      "byteLength": 192,
      "uri": "data:application/octet-stream;base64,"
    },
    {
      "byteLength": 288,
      "uri": "data:application/octet-stream;base64,"
    },
    {
      "byteLength": 136,
      "uri": "data:application/octet-stream;base64,"
    },
    {
      "byteLength": 288,
      "uri": "data:application/octet-stream;base64,"
    },
    {
      "byteLength": 384,
      "uri": "data:application/octet-stream;base64,"
    },
    {
      "byteLength": 192,
      "uri": "data:application/octet-stream;base64,"
    },
    {
      "byteLength": 288,
      "uri": "data:application/octet-stream;base64,"
    },
    {
      "byteLength": 136,
      "uri": "data:application/octet-stream;base64,"
    },
    {
      "byteLength": 288,
      "uri": "data:application/octet-stream;base64,"
    },
    {
      "byteLength": 384,
      "uri": "data:application/octet-stream;base64,"
    },
    {
      "byteLength": 192,
      "uri": "data:application/octet-stream;base64,"
    },
    {
      "byteLength": 288,
      "uri": "data:application/octet-stream;base64,"
    },
    {
      "byteLength": 136,
      "uri": "data:application/octet-stream;base64,"
    },
    {
      "byteLength": 288,
      "uri": "data:application/octet-stream;base64,"
    },
    {
      "byteLength": 384,
      "uri": "data:application/octet-stream;base64,"
    },
    {
      "byteLength": 192,
      "uri": "data:application/octet-stream;base64,"
    },
    {
      "byteLength": 288,
      "uri": "data:application/octet-stream;base64,"
    },
    {
      "byteLength": 136,
      "uri": "data:application/octet-stream;base64,"
    },
    {
      "byteLength": 288,
      "uri": "data:application/octet-stream;base64,"
    },
    {
      "byteLength": 384,
      "uri": "data:application/octet-stream;base64,"
    },
    {
      "byteLength": 192,
      "uri": "data:application/octet-stream;base64,"
    },
    {
      "byteLength": 288,
      "uri": "data:application/octet-stream;base64,"
    },
    {
      "byteLength": 136,
      "uri": "data:application/octet-stream;base64,"
    },
    {
      "byteLength": 288,
      "uri": "data:application/octet-stream;base64,"
    },
    {
      "byteLength": 384,
      "uri": "data:application/octet-stream;base64,"
    },
    {
      "byteLength": 192,
      "uri": "data:application/octet-stream;base64,"
    },
    {
      "byteLength": 288,
      "uri": "data:application/octet-stream;base64,"
    },
    {
      "byteLength": 136,
      "uri": "data:application/octet-stream;base64,"
    },
    {
      "byteLength": 288,
      "uri": "data:application/octet-stream;base64,"
    },
    {
      "byteLength": 384,
      "uri": "data:application/octet-stream;base64,"
    },
    {
      "byteLength": 192,
      "uri": "data:application/octet-stream;base64,"
    },
    {
      "byteLength": 288,
      "uri": "data:application/octet-stream;base64,"
    },
    {
      "byteLength": 136,
      "uri": "data:application/octet-stream;base64,"
    },
    {
      "byteLength": 288,
      "uri": "data:application/octet-stream;base64,"
    },
    {
      "byteLength": 384,
      "uri": "data:application/octet-stream;base64,"
    },
    {
      "byteLength": 192,
      "uri": "data:application/octet-stream;base64,"
    },
    {
      "byteLength": 288,
      "uri": "data:application/octet-stream;base64,"
    },
    {
      "byteLength": 136,
      "uri": "data:application/octet-stream;base64,"
    },
    {
      "byteLength": 288,
      "uri": "data:application/octet-stream;base64,"
    },
    {
      "byteLength": 384,
      "uri": "data:application/octet-stream;base64,"
    },
    {
      "byteLength": 192,
      "uri": "data:application/octet-stream;base64,"
    },
    {
      "byteLength": 288,
      "uri": "data:application/octet-stream;base64,"
    },
    {
      "byteLength": 136,
      "uri": "data:application/octet-stream;base64,"
    },
    {
      "byteLength": 288,
      "uri": "data:application/octet-stream;base64,"
    },
    {
      "byteLength": 384,
      "uri": "data:application/octet-stream;base64,"
    },
    {
      "byteLength": 192,
      "uri": "data:application/octet-stream;base64,"
    },
    {
      "byteLength": 288,
      "uri": "data:application/octet-stream;base64,"
    },
    {
      "byteLength": 136,
      "uri": "data:application/octet-stream;base64,"
    },
    {
      "byteLength": 288,
      "uri": "data:application/octet-stream;base64,"
    },
    {
      "byteLength": 384,
      "uri": "data:application/octet-stream;base64,"
    },
    {
      "byteLength": 192,
      "uri": "data:application/octet-stream;base64,"
    },
    {
      "byteLength": 288,
      "uri": "data:application/octet-stream;base64,"
    },
    {
      "byteLength": 136,
      "uri": "data:application/octet-stream;base64,"
    },
    {
      "byteLength": 288,
      "uri": "data:application/octet-stream;base64,"
    },
    {
      "byteLength": 384,
      "uri": "data:application/octet-stream;base64,"
    },
    {
      "byteLength": 192,
      "uri": "data:application/octet-stream;base64,"
    },
    {
      "byteLength": 288,
      "uri": "data:application/octet-stream;base64,"
    },
    {
      "byteLength": 136,
      "uri": "data:application/octet-stream;base64,"
    },
    {
      "byteLength": 288,
      "uri": "data:application/octet-stream;base64,"
    },
    {
      "byteLength": 384,
      "uri": "data:application/octet-stream;base64,"
    },
    {
      "byteLength": 192,
      "uri": "data:application/octet-stream;base64,"
    },
    {
      "byteLength": 288,
      "uri": "data:application/octet-stream;base64,"
    },
    {
      "byteLength": 136,
      "uri": "data:application/octet-stream;base64,"
    },
    {
      "byteLength": 288,
      "uri": "data:application/octet-stream;base64,"
    },
    {
      "byteLength": 384,
      "uri": "data:application/octet-stream;base64,"
    },
    {
      "byteLength": 192,
      "uri": "data:application/octet-stream;base64,"
    },
    {
      "byteLength": 288,
      "uri": "data:application/octet-stream;base64,"
    },
    {
      "byteLength": 136,
      "uri": "data:application/octet-stream;base64,"
    },
    {
      "byteLength": 288,
      "uri": "data:application/octet-stream;base64,"
    },
    {
      "byteLength": 384,
      "uri": "data:application/octet-stream;base64,"
    },
    {
      "byteLength": 192,
      "uri": "data:application/octet-stream;base64,"
    }
  ],
  "materials": [
    {
      "doubleSided": true
    }
  ],
  "meshes": [
    {
      "primitives": [
        {
          "attributes": {
            "NORMAL": 2,
            "POSITION": 0,
            "TANGENT": 3,
            "TEXCOORD_0": 4
          },
          "indices": 1,
          "material": 0,
          "mode": 5
        }
      ]
    },
    {
      "primitives": [
        {
          "attributes": {
            "NORMAL": 7,
            "POSITION": 5,
            "TANGENT": 8,
            "TEXCOORD_0": 9
          },
          "indices": 6,
          "material": 0,
          "mode": 5
        }
      ]
    },
    {
      "primitives": [
        {
          "attributes": {
            "NORMAL": 12,
            "POSITION": 10,
            "TANGENT": 13,
            "TEXCOORD_0": 14
          },
          "indices": 11,
          "material": 0,
          "mode": 5
        }
      ]
    },
    {
      "primitives": [
        {
          "attributes": {
            "NORMAL": 17,
            "POSITION": 15,
            "TANGENT": 18,
            "TEXCOORD_0": 19
          },
          "indices": 16,
          "material": 0,
          "mode": 5
        }
      ]
    },
    {
      "primitives": [
        {
          "attributes": {
            "NORMAL": 22,
            "POSITION": 20,
            "TANGENT": 23,
            "TEXCOORD_0": 24
          },
          "indices": 21,
          "material": 0,
          "mode": 5
        }
      ]
    },
    {
      "primitives": [
        {
          "attributes": {
            "NORMAL": 27,
            "POSITION": 25,
            "TANGENT": 28,
            "TEXCOORD_0": 29
          },
          "indices": 26,
          "material": 0,
          "mode": 5
        }
      ]
    },
    {
      "primitives": [
        {
          "attributes": {
            "NORMAL": 32,
            "POSITION": 30,
            "TANGENT": 33,
            "TEXCOORD_0": 34
          },
          "indices": 31,
          "material": 0,
          "mode": 5
        }
      ]
    },
    {
      "primitives": [
        {
          "attributes": {
            "NORMAL": 37,
            "POSITION": 35,
            "TANGENT": 38,
            "TEXCOORD_0": 39
          },
          "indices": 36,
          "material": 0,
          "mode": 5
        }
      ]
    },
    {
      "primitives": [
        {
          "attributes": {
            "NORMAL": 42,
            "POSITION": 40,
            "TANGENT": 43,
            "TEXCOORD_0": 44
          },
          "indices": 41,
          "material": 0,
          "mode": 5
        }
      ]
    },
    {
      "primitives": [
        {
          "attributes": {
            "NORMAL": 47,
            "POSITION": 45,
            "TANGENT": 48,
            "TEXCOORD_0": 49
          },
          "indices": 46,
          "material": 0,
          "mode": 5
        }
      ]
    },
    {
      "primitives": [
        {
          "attributes": {
            "NORMAL": 52,
            "POSITION": 50,
            "TANGENT": 53,
            "TEXCOORD_0": 54
          },
          "indices": 51,
          "material": 0,
          "mode": 5
        }
      ]
    },
    {
      "primitives": [
        {
          "attributes": {
            "NORMAL": 57,
            "POSITION": 55,
            "TANGENT": 58,
            "TEXCOORD_0": 59
          },
          "indices": 56,
          "material": 0,
          "mode": 5
        }
      ]
    },
    {
      "primitives": [
        {
          "attributes": {
            "NORMAL": 62,
            "POSITION": 60,
            "TANGENT": 63,
            "TEXCOORD_0": 64
          },
          "indices": 61,
          "material": 0,
          "mode": 5
        }
      ]
    },
    {
      "primitives": [
        {
          "attributes": {
            "NORMAL": 67,
            "POSITION": 65,
            "TANGENT": 68,
            "TEXCOORD_0": 69
          },
          "indices": 66,
          "material": 0,
          "mode": 5
        }
      ]
    },
    {
      "primitives": [
        {
          "attributes": {
            "NORMAL": 72,
            "POSITION": 70,
            "TANGENT": 73,
            "TEXCOORD_0": 74
          },
          "indices": 71,
          "material": 0,
          "mode": 5
        }
      ]
    },
    {
      "primitives": [
        {
          "attributes": {
            "NORMAL": 77,
            "POSITION": 75,
            "TANGENT": 78,
            "TEXCOORD_0": 79
          },
          "indices": 76,
          "material": 0,
          "mode": 5
        }
      ]
    },
    {
      "primitives": [
        {
          "attributes": {
            "NORMAL": 82,
            "POSITION": 80,
            "TANGENT": 83,
            "TEXCOORD_0": 84
          },
          "indices": 81,
          "material": 0,
          "mode": 5
        }
      ]
    },
    {
      "primitives": [
        {
          "attributes": {
            "NORMAL": 87,
            "POSITION": 85,
            "TANGENT": 88,
            "TEXCOORD_0": 89
          },
          "indices": 86,
          "material": 0,
          "mode": 5
        }
      ]
    },
    {
      "primitives": [
        {
          "attributes": {
            "NORMAL": 92,
            "POSITION": 90,
            "TANGENT": 93,
            "TEXCOORD_0": 94
          },
          "indices": 91,
          "material": 0,
          "mode": 5
        }
      ]
    },
    {
      "primitives": [
        {
          "attributes": {
            "NORMAL": 97,
            "POSITION": 95,
            "TANGENT": 98,
            "TEXCOORD_0": 99
          },
          "indices": 96,
          "material": 0,
          "mode": 5
        }
      ]
    },
    {
      "primitives": [
        {
          "attributes": {
            "NORMAL": 102,
            "POSITION": 100,
            "TANGENT": 103,
            "TEXCOORD_0": 104
          },
          "indices": 101,
          "material": 0,
          "mode": 5
        }
      ]
    },
    {
      "primitives": [
        {
          "attributes": {
            "NORMAL": 107,
            "POSITION": 105,
            "TANGENT": 108,
            "TEXCOORD_0": 109
          },
          "indices": 106,
          "material": 0,
          "mode": 5
        }
      ]
    },
    {
      "primitives": [
        {
          "attributes": {
            "NORMAL": 112,
            "POSITION": 110,
            "TANGENT": 113,
            "TEXCOORD_0": 114
          },
          "indices": 111,
          "material": 0,
          "mode": 5
        }
      ]
    },
    {
      "primitives": [
        {
          "attributes": {
            "NORMAL": 117,
            "POSITION": 115,
            "TANGENT": 118,
            "TEXCOORD_0": 119
          },
          "indices": 116,
          "material": 0,
          "mode": 5
        }
      ]
    },
    {
      "primitives": [
        {
          "attributes": {
            "NORMAL": 122,
            "POSITION": 120,
            "TANGENT": 123,
            "TEXCOORD_0": 124
          },
          "indices": 121,
          "material": 0,
          "mode": 5
        }
      ]
    },
    {
      "primitives": [
        {
          "attributes": {
            "NORMAL": 127,
            "POSITION": 125,
            "TANGENT": 128,
            "TEXCOORD_0": 129
          },
          "indices": 126,
          "material": 0,
          "mode": 5
        }
      ]
    },
    {
      "primitives": [
        {
          "attributes": {
            "NORMAL": 132,
            "POSITION": 130,
            "TANGENT": 133,
            "TEXCOORD_0": 134
          },
          "indices": 131,
          "material": 0,
          "mode": 5
        }
      ]
    },
    {
      "primitives": [
        {
          "attributes": {
            "NORMAL": 137,
            "POSITION": 135,
            "TANGENT": 138,
            "TEXCOORD_0": 139
          },
          "indices": 136,
          "material": 0,
          "mode": 5
        }
      ]
    },
    {
      "primitives": [
        {
          "attributes": {
            "NORMAL": 142,
            "POSITION": 140,
            "TANGENT": 143,
            "TEXCOORD_0": 144
          },
          "indices": 141,
          "material": 0,
          "mode": 5
        }
      ]
    },
    {
      "primitives": [
        {
          "attributes": {
            "NORMAL": 147,
            "POSITION": 145,
            "TANGENT": 148,
            "TEXCOORD_0": 149
          },
          "indices": 146,
          "material": 0,
          "mode": 5
        }
      ]
    },
    {
      "primitives": [
        {
          "attributes": {
            "NORMAL": 152,
            "POSITION": 150,
            "TANGENT": 153,
            "TEXCOORD_0": 154
          },
          "indices": 151,
          "material": 0,
          "mode": 5
        }
      ]
    },
    {
      "primitives": [
        {
          "attributes": {
            "NORMAL": 157,
            "POSITION": 155,
            "TANGENT": 158,
            "TEXCOORD_0": 159
          },
          "indices": 156,
          "material": 0,
          "mode": 5
        }
      ]
    },
    {
      "primitives": [
        {
          "attributes": {
            "NORMAL": 162,
            "POSITION": 160,
            "TANGENT": 163,
            "TEXCOORD_0": 164
          },
          "indices": 161,
          "material": 0,
          "mode": 5
        }
      ]
    },
    {
      "primitives": [
        {
          "attributes": {
            "NORMAL": 167,
            "POSITION": 165,
            "TANGENT": 168,
            "TEXCOORD_0": 169
          },
          "indices": 166,
          "material": 0,
          "mode": 5
        }
      ]
    },
    {
      "primitives": [
        {
          "attributes": {
            "NORMAL": 172,
            "POSITION": 170,
            "TANGENT": 173,
            "TEXCOORD_0": 174
          },
          "indices": 171,
          "material": 0,
          "mode": 5
        }
      ]
    },
    {
      "primitives": [
        {
          "attributes": {
            "NORMAL": 177,
            "POSITION": 175,
            "TANGENT": 178,
            "TEXCOORD_0": 179
          },
          "indices": 176,
          "material": 0,
          "mode": 5
        }
      ]
    },
    {
      "primitives": [
        {
          "attributes": {
            "NORMAL": 182,
            "POSITION": 180,
            "TANGENT": 183,
            "TEXCOORD_0": 184
          },
          "indices": 181,
          "material": 0,
          "mode": 5
        }
      ]
    }
  ],
  "nodes": [
    {
      "mesh": 0,
      "name": "_gltfNode_0"
    },
    {
      "children": [
        0
      ],
      "name": "cube_0"
    },
    {
      "mesh": 1,
      "name": "_gltfNode_2"
    },
    {
      "children": [
        2
      ],
      "name": "left_wing_1",
      "rotation": [
        0.0,
        0.0,
        0.3826834323650872,
        0.9238795325112932
      ],
      "scale": [
        1.0000003576278687,
        1.0000003576278687,
        1.0
      ],
      "translation": [
        -0.1875,
        0.6875,
        0.21875
      ]
    },
    {
      "mesh": 2,
      "name": "_gltfNode_4"
    },
    {
      "children": [
        4
      ],
      "name": "left_wing_2",
      "rotation": [
        0.0,
        0.0,
        -0.3826834323650872,
        0.9238795325112932
      ],
      "scale": [
        1.0000003576278687,
        1.0000003576278687,
        1.0
      ],
      "translation": [
        0.1875,
        0.6875,
        0.21875
      ]
    },
    {
      "mesh": 3,
      "name": "_gltfNode_6"
    },
    {
      "children": [
        6
      ],
      "name": "cube_3"
    },
    {
      "mesh": 4,
      "name": "_gltfNode_8"
    },
    {
      "children": [
        8
      ],
      "name": "cube_4",
      "rotation": [
        0.0,
        0.0,
        0.0,
        1.0
      ],
      "scale": [
        1.0,
        1.0,
        1.0
      ],
      "translation": [
        0.0,
        0.78125,
        -0.4375
      ]
    },
    {
      "mesh": 5,
      "name": "_gltfNode_10"
    },
    {
      "children": [
        10
      ],
      "name": "cube_5",
      "rotation": [
        0.5555704734611676,
        0.0,
        0.0,
        0.8314694516445803
      ],
      "scale": [
        1.0,
        1.000000238418579,
        1.000000238418579
      ],
      "translation": [
        0.0,
        1.03125,
        -0.21875
      ]
    },
    {
      "mesh": 6,
      "name": "_gltfNode_12"
    },
    {
      "children": [
        12
      ],
      "name": "cube_6",
      "rotation": [
        0.0,
        0.0,
        0.0,
        1.0
      ],
      "scale": [
        1.0,
        1.0,
        1.0
      ],
      "translation": [
        0.0,
        0.78125,
        -0.375
      ]
    },
    {
      "mesh": 7,
      "name": "_gltfNode_14"
    },
    {
      "children": [
        14
      ],
      "name": "cube_7",
      "rotation": [
        0.0,
        0.0,
        0.0,
        1.0
      ],
      "scale": [
        1.0,
        1.0,
        1.0
      ],
      "translation": [
        0.0,
        0.78125,
        -0.4375
      ]
    },
    {
      "mesh": 8,
      "name": "_gltfNode_16"
    },
    {
      "children": [
        16
      ],
      "name": "cube_8",
      "rotation": [
        0.19509003839592318,
        0.0,
        0.0,
        0.9807853368187586
      ],
      "scale": [
        1.0,
        1.000000238418579,
        1.000000238418579
      ],
      "translation": [
        0.0,
        0.44857099652290344,
        -0.3204079866409302
      ]
    },
    {
      "mesh": 9,
      "name": "_gltfNode_18"
    },
    {
      "children": [
        18
      ],
      "name": "cube_9",
      "rotation": [
        0.3826834323650872,
        0.0,
        0.0,
        0.9238795325112932
      ],
      "scale": [
        1.0,
        1.0000003576278687,
        1.0000003576278687
      ],
      "translation": [
        0.0,
        0.44857099652290344,
        -0.3204079866409302
      ]
    },
    {
      "mesh": 10,
      "name": "_gltfNode_20"
    },
    {
      "children": [
        20
      ],
      "name": "cube_10",
      "rotation": [
        0.19509003839592318,
        0.0,
        0.0,
        0.9807853368187586
      ],
      "scale": [
        1.0,
        1.000000238418579,
        1.000000238418579
      ],
      "translation": [
        0.0,
        0.0,
        0.0
      ]
    },
    {
      "children": [
        17,
        19,
        21
      ],
      "name": "tail_11",
      "rotation": [
        0.0,
        0.0,
        0.0,
        1.0
      ],
      "scale": [
        1.0,
        1.0,
        1.0
      ],
      "translation": [
        0.0,
        0.23892900347709656,
        0.8829079866409302
      ]
    },
    {
      "mesh": 11,
      "name": "_gltfNode_23"
    },
    {
      "children": [
        23
      ],
      "name": "cube_12",
      "rotation": [
        0.19509003839592318,
        0.0,
        0.0,
        0.9807853368187586
      ],
      "scale": [
        1.0,
        1.000000238418579,
        1.000000238418579
      ],
      "translation": [
        0.0625,
        -0.07550469785928726,
        0.47099700570106506
      ]
    },
    {
      "mesh": 12,
      "name": "_gltfNode_25"
    },
    {
      "children": [
        25
      ],
      "name": "cube_13",
      "rotation": [
        0.19509003839592318,
        0.0,
        0.0,
        0.9807853368187586
      ],
      "scale": [
        1.0,
        1.000000238418579,
        1.000000238418579
      ],
      "translation": [
        0.0625,
        -0.07550469785928726,
        0.47099700570106506
      ]
    },
    {
      "mesh": 13,
      "name": "_gltfNode_27"
    },
    {
      "children": [
        27
      ],
      "name": "cube_14"
    },
    {
      "children": [
        24,
        26,
        28
      ],
      "name": "left_legb_15",
      "rotation": [
        0.0,
        0.0,
        0.0,
        1.0
      ],
      "scale": [
        1.0,
        1.0,
        1.0
      ],
      "translation": [
        -0.25,
        0.53125,
        0.03125
      ]
    },
    {
      "mesh": 14,
      "name": "_gltfNode_30"
    },
    {
      "children": [
        30
      ],
      "name": "cube_16",
      "rotation": [
        0.19509003839592318,
        0.0,
        0.0,
        0.9807853368187586
      ],
      "scale": [
        1.0,
        1.000000238418579,
        1.000000238418579
      ],
      "translation": [
        -0.0625,
        -0.07550469785928726,
        0.47099700570106506
      ]
    },
    {
      "mesh": 15,
      "name": "_gltfNode_32"
    },
    {
      "children": [
        32
      ],
      "name": "cube_17",
      "rotation": [
        0.19509003839592318,
        0.0,
        0.0,
        0.9807853368187586
      ],
      "scale": [
        1.0,
        1.000000238418579,
        1.000000238418579
      ],
      "translation": [
        -0.0625,
        -0.07550469785928726,
        0.47099700570106506
      ]
    },
    {
      "mesh": 16,
      "name": "_gltfNode_34"
    },
    {
      "children": [
        34
      ],
      "name": "cube_18"
    },
    {
      "children": [
        31,
        33,
        35
      ],
      "name": "right_legb_19",
      "rotation": [
        0.0,
        0.0,
        0.0,
        1.0
      ],
      "scale": [
        1.0,
        1.0,
        1.0
      ],
      "translation": [
        0.25,
        0.53125,
        0.03125
      ]
    },
    {
      "mesh": 17,
      "name": "_gltfNode_37"
    },
    {
      "children": [
        37
      ],
      "name": "cube_20",
      "rotation": [
        -0.19509003839592318,
        0.0,
        0.0,
        0.9807853368187586
      ],
      "scale": [
        1.0,
        1.000000238418579,
        1.000000238418579
      ],
      "translation": [
        0.0,
        0.0,
        0.0
      ]
    },
    {
      "mesh": 18,
      "name": "_gltfNode_39"
    },
    {
      "children": [
        39
      ],
      "name": "cube_21",
      "rotation": [
        0.19509003839592318,
        0.0,
        0.0,
        0.9807853368187586
      ],
      "scale": [
        1.0,
        1.000000238418579,
        1.000000238418579
      ],
      "translation": [
        0.0,
        -0.34375,
        -0.0625
      ]
    },
    {
      "mesh": 19,
      "name": "_gltfNode_41"
    },
    {
      "children": [
        41
      ],
      "name": "cube_22"
    },
    {
      "children": [
        38,
        40,
        42
      ],
      "name": "left_legf_23",
      "rotation": [
        0.0,
        0.0,
        0.0,
        1.0
      ],
      "scale": [
        1.0,
        1.0,
        1.0
      ],
      "translation": [
        -0.25,
        0.53125,
        -0.03125
      ]
    },
    {
      "mesh": 20,
      "name": "_gltfNode_44"
    },
    {
      "children": [
        44
      ],
      "name": "cube_24",
      "rotation": [
        -0.19509003839592318,
        0.0,
        0.0,
        0.9807853368187586
      ],
      "scale": [
        1.0,
        1.000000238418579,
        1.000000238418579
      ],
      "translation": [
        0.0,
        0.0,
        0.0
      ]
    },
    {
      "mesh": 21,
      "name": "_gltfNode_46"
    },
    {
      "children": [
        46
      ],
      "name": "cube_25",
      "rotation": [
        0.19509003839592318,
        0.0,
        0.0,
        0.9807853368187586
      ],
      "scale": [
        1.0,
        1.000000238418579,
        1.000000238418579
      ],
      "translation": [
        0.0,
        -0.34375,
        -0.0625
      ]
    },
    {
      "mesh": 22,
      "name": "_gltfNode_48"
    },
    {
      "children": [
        48
      ],
      "name": "cube_26"
    },
    {
      "children": [
        45,
        47,
        49
      ],
      "name": "right_legf_27",
      "rotation": [
        0.0,
        0.0,
        0.0,
        1.0
      ],
      "scale": [
        1.0,
        1.0,
        1.0
      ],
      "translation": [
        0.25,
        0.53125,
        -0.03125
      ]
    },
    {
      "mesh": 23,
      "name": "_gltfNode_51"
    },
    {
      "children": [
        51
      ],
      "name": "cube_28",
      "rotation": [
        0.0,
        0.0,
        0.0,
        1.0
      ],
      "scale": [
        1.0,
        1.0,
        1.0
      ],
      "translation": [
        0.0,
        0.0,
        -0.0625
      ]
    },
    {
      "mesh": 24,
      "name": "_gltfNode_53"
    },
    {
      "children": [
        53
      ],
      "name": "cube_29",
      "rotation": [
        0.0,
        0.0,
        0.0,
        1.0
      ],
      "scale": [
        1.0,
        1.0,
        1.0
      ],
      "translation": [
        0.0,
        0.0,
        -0.0625
      ]
    },
    {
      "mesh": 25,
      "name": "_gltfNode_55"
    },
    {
      "children": [
        55
      ],
      "name": "cube_30",
      "rotation": [
        0.0,
        0.0,
        0.0,
        1.0
      ],
      "scale": [
        1.0,
        1.0,
        1.0
      ],
      "translation": [
        0.0,
        0.0,
        -0.0625
      ]
    },
    {
      "mesh": 26,
      "name": "_gltfNode_57"
    },
    {
      "children": [
        57
      ],
      "name": "cube_31",
      "rotation": [
        0.0,
        0.0,
        0.0,
        1.0
      ],
      "scale": [
        1.0,
        1.0,
        1.0
      ],
      "translation": [
        0.0,
        0.0,
        -0.0625
      ]
    },
    {
      "mesh": 27,
      "name": "_gltfNode_59"
    },
    {
      "children": [
        59
      ],
      "name": "cube_32",
      "rotation": [
        0.0,
        0.0,
        0.0,
        1.0
      ],
      "scale": [
        1.0,
        1.0,
        1.0
      ],
      "translation": [
        0.0,
        0.0,
        -0.0625
      ]
    },
    {
      "children": [
        52,
        54,
        56,
        58,
        60
      ],
      "name": "left_horn_33"
    },
    {
      "mesh": 28,
      "name": "_gltfNode_62"
    },
    {
      "children": [
        62
      ],
      "name": "cube_34",
      "rotation": [
        0.0,
        0.0,
        0.0,
        1.0
      ],
      "scale": [
        1.0,
        1.0,
        1.0
      ],
      "translation": [
        0.0,
        0.0,
        -0.0625
      ]
    },
    {
      "mesh": 29,
      "name": "_gltfNode_64"
    },
    {
      "children": [
        64
      ],
      "name": "cube_35",
      "rotation": [
        0.0,
        0.0,
        0.0,
        1.0
      ],
      "scale": [
        1.0,
        1.0,
        1.0
      ],
      "translation": [
        0.0,
        0.0,
        -0.0625
      ]
    },
    {
      "mesh": 30,
      "name": "_gltfNode_66"
    },
    {
      "children": [
        66
      ],
      "name": "cube_36",
      "rotation": [
        0.0,
        0.0,
        0.0,
        1.0
      ],
      "scale": [
        1.0,
        1.0,
        1.0
      ],
      "translation": [
        0.0,
        0.0,
        -0.0625
      ]
    },
    {
      "mesh": 31,
      "name": "_gltfNode_68"
    },
    {
      "children": [
        68
      ],
      "name": "cube_37",
      "rotation": [
        0.0,
        0.0,
        0.0,
        1.0
      ],
      "scale": [
        1.0,
        1.0,
        1.0
      ],
      "translation": [
        0.0,
        0.0,
        -0.0625
      ]
    },
    {
      "mesh": 32,
      "name": "_gltfNode_70"
    },
    {
      "children": [
        70
      ],
      "name": "cube_38",
      "rotation": [
        0.0,
        0.0,
        0.0,
        1.0
      ],
      "scale": [
        1.0,
        1.0,
        1.0
      ],
      "translation": [
        0.0,
        0.0,
        -0.0625
      ]
    },
    {
      "children": [
        63,
        65,
        67,
        69,
        71
      ],
      "name": "right_horn_39"
    },
    {
      "children": [
        1,
        3,
        5,
        7,
        9,
        11,
        13,
        15,
        22,
        29,
        36,
        43,
        50,
        61,
        72
      ],
      "name": "Dragon_40",
      "rotation": [
        0.0,
        -0.21643945420640393,
        0.0,
        0.9762960425315852
      ],
      "scale": [
        1.0000001192092896,
        1.0,
        1.0000001192092896
      ],
      "translation": [
        0.375,
        0.0,
        -0.1875
      ]
    },
    {
      "mesh": 33,
      "name": "_gltfNode_74"
    },
    {
      "children": [
        74
      ],
      "name": "cube_41",
      "rotation": [
        0.0,
        0.0,
        0.0,
        1.0
      ],
      "scale": [
        1.0,
        1.0,
        1.0
      ],
      "translation": [
        0.9375,
        -0.3828119933605194,
        -0.1875
      ]
    },
    {
      "mesh": 34,
      "name": "_gltfNode_76"
    },
    {
      "children": [
        76
      ],
      "name": "cube_42",
      "rotation": [
        0.0,
        0.0,
        0.0,
        1.0
      ],
      "scale": [
        1.0,
        1.0,
        1.0
      ],
      "translation": [
        0.9375,
        -0.3828119933605194,
        -0.1875
      ]
    },
    {
      "mesh": 35,
      "name": "_gltfNode_78"
    },
    {
      "children": [
        78
      ],
      "name": "cube_43",
      "rotation": [
        0.0,
        0.0,
        0.0,
        1.0
      ],
      "scale": [
        1.0,
        1.0,
        1.0
      ],
      "translation": [
        0.9375,
        -0.3828119933605194,
        -0.1875
      ]
    },
    {
      "mesh": 36,
      "name": "_gltfNode_80"
    },
    {
      "children": [
        80
      ],
      "name": "cube_44",
      "rotation": [
        0.0,
        0.0,
        0.0,
        1.0
      ],
      "scale": [
        1.0,
        1.0,
        1.0
      ],
      "translation": [
        0.9375,
        -0.3828119933605194,
        -0.1875
      ]
    },
    {
      "children": [
        75,
        77,
        79,
        81
      ],
      "name": "egg_45",
      "rotation": [
        0.0,
        0.23768602153161605,
        0.0,
        0.971342038196888
      ],
      "scale": [
        1.0000003576278687,
        1.0,
        1.0000003576278687
      ],
      "translation": [
        -0.6875,
        0.3828119933605194,
        0.1875
      ]
    },
    {
      "children": [
        73,
        82
      ],
      "name": "_46"
    },
    {
      "children": [
        83
      ],
      "name": "GLTF_SceneRootNode",
      "rotation": [
        -1.9753748434203095e-22,
        0.0,
        0.0,
        1.0
      ],
      "scale": [
        1.0,
        1.0,
        1.0
      ],
      "translation": [
        0.0,
        0.0,
        0.0
      ]
    }
  ],
  "scene": 0,
  "scenes": [
    {
      "nodes": [
        84
      ]
    }
  ]
}
