{"accessors":[{"bufferView":0,"componentType":5126,"count":345,"max":[0.3332463502883911,0.3335714638233185,1.2499866485595703],"min":[-0.16687600314617157,-0.33325836062431335,0.416679322719574],"type":"VEC3"},{"bufferView":1,"componentType":5125,"count":526,"type":"SCALAR"},{"bufferView":2,"componentType":5126,"count":345,"type":"VEC3"},{"bufferView":3,"componentType":5126,"count":345,"type":"VEC4"},{"bufferView":4,"componentType":5126,"count":345,"type":"VEC2"},{"bufferView":5,"componentType":5126,"count":484,"max":[0.6354846954345703,-0.197849303483963,0.4999999701976776],"min":[0.1979150027036667,-0.6354190111160278,0.41666701436042786],"type":"VEC3"},{"bufferView":6,"componentType":5125,"count":724,"type":"SCALAR"},{"bufferView":7,"componentType":5126,"count":484,"type":"VEC3"},{"bufferView":8,"componentType":5126,"count":484,"type":"VEC4"},{"bufferView":9,"componentType":5126,"count":484,"type":"VEC2"},{"bufferView":10,"componentType":5126,"count":96,"max":[0.21354100108146667,-0.3333410322666168,0.49999499320983887],"min":[0.2031240016222,-0.4166739881038666,0.4427030086517334],"type":"VEC3"},{"bufferView":11,"componentType":5125,"count":142,"type":"SCALAR"},{"bufferView":12,"componentType":5126,"count":96,"type":"VEC3"},{"bufferView":13,"componentType":5126,"count":96,"type":"VEC4"},{"bufferView":14,"componentType":5126,"count":96,"type":"VEC2"},{"bufferView":15,"componentType":5126,"count":1516,"max":[0.6666615605354309,0.5833275318145752,0.4166795313358307],"min":[-0.5833389759063721,-0.6666730046272278,0.33333298563957214],"type":"VEC3"},{"bufferView":16,"componentType":5125,"count":3046,"type":"SCALAR"},{"bufferView":17,"componentType":5126,"count":1516,"type":"VEC3"},{"bufferView":18,"componentType":5126,"count":1516,"type":"VEC4"},{"bufferView":19,"componentType":5126,"count":1516,"type":"VEC2"},{"bufferView":20,"componentType":5126,"count":416,"max":[0.5904639363288879,0.5847495198249817,0.4999999701976776],"min":[-0.5943970084190369,-0.5947809815406799,0.41666701436042786],"type":"VEC3"},{"bufferView":21,"componentType":5125,"count":622,"type":"SCALAR"},{"bufferView":22,"componentType":5126,"count":416,"type":"VEC3"},{"bufferView":23,"componentType":5126,"count":416,"type":"VEC4"},{"bufferView":24,"componentType":5126,"count":416,"type":"VEC2"},{"bufferView":25,"componentType":5126,"count":4,"max":[0.08349041640758514,0.00015644999803043902,0.33333298563957214],"min":[-0.00016862999473232776,-0.08350259810686111,0.33333298563957214],"type":"VEC3"},{"bufferView":26,"componentType":5125,"count":4,"type":"SCALAR"},{"bufferView":27,"componentType":5126,"count":4,"type":"VEC3"},{"bufferView":28,"componentType":5126,"count":4,"type":"VEC4"},{"bufferView":29,"componentType":5126,"count":4,"type":"VEC2"},{"bufferView":30,"componentType":5126,"count":424,"max":[0.4169054627418518,0.4166202545166016,1.2499874830245972],"min":[-0.24992434680461884,-0.41691699624061584,0.6666669845581055],"type":"VEC3"},{"bufferView":31,"componentType":5125,"count":634,"type":"SCALAR"},{"bufferView":32,"componentType":5126,"count":424,"type":"VEC3"},{"bufferView":33,"componentType":5126,"count":424,"type":"VEC4"},{"bufferView":34,"componentType":5126,"count":424,"type":"VEC2"},{"bufferView":35,"componentType":5126,"count":44,"max":[0.4774859845638275,-0.3351759612560272,0.506943941116333],"min":[0.4391799867153168,-0.4148240089416504,0.41666701436042786],"type":"VEC3"},{"bufferView":36,"componentType":5125,"count":64,"type":"SCALAR"},{"bufferView":37,"componentType":5126,"count":44,"type":"VEC3"},{"bufferView":38,"componentType":5126,"count":44,"type":"VEC4"},{"bufferView":39,"componentType":5126,"count":44,"type":"VEC2"},{"bufferView":40,"componentType":5126,"count":544,"max":[0.5910999774932861,0.5881384015083313,0.583332896232605],"min":[-0.5872740149497986,-0.6585010290145874,0.41666701436042786],"type":"VEC3"},{"bufferView":41,"componentType":5125,"count":814,"type":"SCALAR"},{"bufferView":42,"componentType":5126,"count":544,"type":"VEC3"},{"bufferView":43,"componentType":5126,"count":544,"type":"VEC4"},{"bufferView":44,"componentType":5126,"count":544,"type":"VEC2"},{"bufferView":45,"componentType":5126,"count":464,"max":[0.5833302736282349,-0.19784942269325256,0.4999999701976776],"min":[0.1979150027036667,-0.5832647085189819,0.41666701436042786],"type":"VEC3"},{"bufferView":46,"componentType":5125,"count":694,"type":"SCALAR"},{"bufferView":47,"componentType":5126,"count":464,"type":"VEC3"},{"bufferView":48,"componentType":5126,"count":464,"type":"VEC4"},{"bufferView":49,"componentType":5126,"count":464,"type":"VEC2"},{"bufferView":50,"componentType":5126,"count":96,"max":[0.21354100108146667,-0.41667404770851135,0.49999499320983887],"min":[0.2031240016222,-0.5000069737434387,0.4427030086517334],"type":"VEC3"},{"bufferView":51,"componentType":5125,"count":142,"type":"SCALAR"},{"bufferView":52,"componentType":5126,"count":96,"type":"VEC3"},{"bufferView":53,"componentType":5126,"count":96,"type":"VEC4"},{"bufferView":54,"componentType":5126,"count":96,"type":"VEC2"},{"bufferView":55,"componentType":5126,"count":628,"max":[0.4169054627418518,0.4166202545166016,1.333333969116211],"min":[-0.24992434680461884,-0.41691699624061584,0.6666669845581055],"type":"VEC3"},{"bufferView":56,"componentType":5125,"count":940,"type":"SCALAR"},{"bufferView":57,"componentType":5126,"count":628,"type":"VEC3"},{"bufferView":58,"componentType":5126,"count":628,"type":"VEC4"},{"bufferView":59,"componentType":5126,"count":628,"type":"VEC2"}],"asset":{"version":"2.0"},"bufferViews":[{"buffer":0,"byteLength":4140,"target":34962},{"buffer":1,"byteLength":2104,"target":34963},{"buffer":2,"byteLength":4140,"target":34962},{"buffer":3,"byteLength":5520,"target":34962},{"buffer":4,"byteLength":2760,"target":34962},{"buffer":5,"byteLength":5808,"target":34962},{"buffer":6,"byteLength":2896,"target":34963},{"buffer":7,"byteLength":5808,"target":34962},{"buffer":8,"byteLength":7744,"target":34962},{"buffer":9,"byteLength":3872,"target":34962},{"buffer":10,"byteLength":1152,"target":34962},{"buffer":11,"byteLength":568,"target":34963},{"buffer":12,"byteLength":1152,"target":34962},{"buffer":13,"byteLength":1536,"target":34962},{"buffer":14,"byteLength":768,"target":34962},{"buffer":15,"byteLength":18192,"target":34962},{"buffer":16,"byteLength":12184,"target":34963},{"buffer":17,"byteLength":18192,"target":34962},{"buffer":18,"byteLength":24256,"target":34962},{"buffer":19,"byteLength":12128,"target":34962},{"buffer":20,"byteLength":4992,"target":34962},{"buffer":21,"byteLength":2488,"target":34963},{"buffer":22,"byteLength":4992,"target":34962},{"buffer":23,"byteLength":6656,"target":34962},{"buffer":24,"byteLength":3328,"target":34962},{"buffer":25,"byteLength":48,"target":34962},{"buffer":26,"byteLength":16,"target":34963},{"buffer":27,"byteLength":48,"target":34962},{"buffer":28,"byteLength":64,"target":34962},{"buffer":29,"byteLength":32,"target":34962},{"buffer":30,"byteLength":5088,"target":34962},{"buffer":31,"byteLength":2536,"target":34963},{"buffer":32,"byteLength":5088,"target":34962},{"buffer":33,"byteLength":6784,"target":34962},{"buffer":34,"byteLength":3392,"target":34962},{"buffer":35,"byteLength":528,"target":34962},{"buffer":36,"byteLength":256,"target":34963},{"buffer":37,"byteLength":528,"target":34962},{"buffer":38,"byteLength":704,"target":34962},{"buffer":39,"byteLength":352,"target":34962},{"buffer":40,"byteLength":6528,"target":34962},{"buffer":41,"byteLength":3256,"target":34963},{"buffer":42,"byteLength":6528,"target":34962},{"buffer":43,"byteLength":8704,"target":34962},{"buffer":44,"byteLength":4352,"target":34962},{"buffer":45,"byteLength":5568,"target":34962},{"buffer":46,"byteLength":2776,"target":34963},{"buffer":47,"byteLength":5568,"target":34962},{"buffer":48,"byteLength":7424,"target":34962},{"buffer":49,"byteLength":3712,"target":34962},{"buffer":50,"byteLength":1152,"target":34962},{"buffer":51,"byteLength":568,"target":34963},{"buffer":52,"byteLength":1152,"target":34962},{"buffer":53,"byteLength":1536,"target":34962},{"buffer":54,"byteLength":768,"target":34962},{"buffer":55,"byteLength":7536,"target":34962},{"buffer":56,"byteLength":3760,"target":34963},{"buffer":57,"byteLength":7536,"target":34962},{"buffer":58,"byteLength":10048,"target":34962},{"buffer":59,"byteLength":5024,"target":34962}],"buffers":[{"byteLength":4140,"uri":"data:application/octet-stream;base64,"},{"byteLength":2104,"uri":"data:application/octet-stream;base64,"},{"byteLength":4140,"uri":"data:application/octet-stream;base64,"},{"byteLength":5520,"uri":"data:application/octet-stream;base64,"},{"byteLength":2760,"uri":"data:application/octet-stream;base64,"},{"byteLength":5808,"uri":"data:application/octet-stream;base64,"},{"byteLength":2896,"uri":"data:application/octet-stream;base64,"},{"byteLength":5808,"uri":"data:application/octet-stream;base64,"},{"byteLength":7744,"uri":"data:application/octet-stream;base64,"},{"byteLength":3872,"uri":"data:application/octet-stream;base64,"},{"byteLength":1152,"uri":"data:application/octet-stream;base64,"},{"byteLength":568,"uri":"data:application/octet-stream;base64,"},{"byteLength":1152,"uri":"data:application/octet-stream;base64,"},{"byteLength":1536,"uri":"data:application/octet-stream;base64,"},{"byteLength":768,"uri":"data:application/octet-stream;base64,"},{"byteLength":18192,"uri":"data:application/octet-stream;base64,"},{"byteLength":12184,"uri":"data:application/octet-stream;base64,"},{"byteLength":18192,"uri":"data:application/octet-stream;base64,"},{"byteLength":24256,"uri":"data:application/octet-stream;base64,"},{"byteLength":12128,"uri":"data:application/octet-stream;base64,"},{"byteLength":4992,"uri":"data:application/octet-stream;base64,"},{"byteLength":2488,"uri":"data:application/octet-stream;base64,"},{"byteLength":4992,"uri":"data:application/octet-stream;base64,"},{"byteLength":6656,"uri":"data:application/octet-stream;base64,"},{"byteLength":3328,"uri":"data:application/octet-stream;base64,"},{"byteLength":48,"uri":"data:application/octet-stream;base64,"},{"byteLength":16,"uri":"data:application/octet-stream;base64,"},{"byteLength":48,"uri":"data:application/octet-stream;base64,"},{"byteLength":64,"uri":"data:application/octet-stream;base64,"},{"byteLength":32,"uri":"data:application/octet-stream;base64,"},{"byteLength":5088,"uri":"data:application/octet-stream;base64,"},{"byteLength":2536,"uri":"data:application/octet-stream;base64,"},{"byteLength":5088,"uri":"data:application/octet-stream;base64,"},{"byteLength":6784,"uri":"data:application/octet-stream;base64,"},{"byteLength":3392,"uri":"data:application/octet-stream;base64,"},{"byteLength":528,"uri":"data:application/octet-stream;base64,"},{"byteLength":256,"uri":"data:application/octet-stream;base64,"},{"byteLength":528,"uri":"data:application/octet-stream;base64,"},{"byteLength":704,"uri":"data:application/octet-stream;base64,"},{"byteLength":352,"uri":"data:application/octet-stream;base64,"},{"byteLength":6528,"uri":"data:application/octet-stream;base64,"},{"byteLength":3256,"uri":"data:application/octet-stream;base64,"},{"byteLength":6528,"uri":"data:application/octet-stream;base64,"},{"byteLength":8704,"uri":"data:application/octet-stream;base64,"},{"byteLength":4352,"uri":"data:application/octet-stream;base64,"},{"byteLength":5568,"uri":"data:application/octet-stream;base64,"},{"byteLength":2776,"uri":"data:application/octet-stream;base64,"},{"byteLength":5568,"uri":"data:application/octet-stream;base64,"},{"byteLength":7424,"uri":"data:application/octet-stream;base64,"},{"byteLength":3712,"uri":"data:application/octet-stream;base64,"},{"byteLength":1152,"uri":"data:application/octet-stream;base64,"},{"byteLength":568,"uri":"data:application/octet-stream;base64,"},{"byteLength":1152,"uri":"data:application/octet-stream;base64,"},{"byteLength":1536,"uri":"data:application/octet-stream;base64,"},{"byteLength":768,"uri":"data:application/octet-stream;base64,"},{"byteLength":7536,"uri":"data:application/octet-stream;base64,"},{"byteLength":3760,"uri":"data:application/octet-stream;base64,"},{"byteLength":7536,"uri":"data:application/octet-stream;base64,"},{"byteLength":10048,"uri":"data:application/octet-stream;base64,"},{"byteLength":5024,"uri":"data:application/octet-stream;base64,"}],"images":[{"uri":"textures/Mineways2Skfb-RGBA.png"}],"materials":[{"doubleSided":false,"pbrMetallicRoughness":{"baseColorTexture":{"index":0},"metallicFactor":0.0,"roughnessFactor":1.0}},{"doubleSided":false,"pbrMetallicRoughness":{"baseColorTexture":{"index":1},"metallicFactor":0.0,"roughnessFactor":1.0}},{"doubleSided":false,"pbrMetallicRoughness":{"baseColorTexture":{"index":2},"metallicFactor":0.0,"roughnessFactor":1.0}},{"doubleSided":false,"pbrMetallicRoughness":{"baseColorTexture":{"index":3},"metallicFactor":0.0,"roughnessFactor":1.0}},{"doubleSided":false,"pbrMetallicRoughness":{"baseColorTexture":{"index":4},"metallicFactor":0.0,"roughnessFactor":1.0}},{"doubleSided":false,"pbrMetallicRoughness":{"baseColorTexture":{"index":5},"metallicFactor":0.0,"roughnessFactor":1.0}},{"doubleSided":false,"pbrMetallicRoughness":{"baseColorTexture":{"index":6},"metallicFactor":0.0,"roughnessFactor":1.0}},{"doubleSided":false,"pbrMetallicRoughness":{"baseColorTexture":{"index":7},"metallicFactor":0.0,"roughnessFactor":1.0}},{"doubleSided":false,"pbrMetallicRoughness":{"baseColorTexture":{"index":8},"metallicFactor":0.0,"roughnessFactor":1.0}},{"doubleSided":false,"pbrMetallicRoughness":{"baseColorTexture":{"index":9},"metallicFactor":0.0,"roughnessFactor":1.0}},{"doubleSided":false,"pbrMetallicRoughness":{"baseColorTexture":{"index":10},"metallicFactor":0.0,"roughnessFactor":1.0}},{"doubleSided":false,"pbrMetallicRoughness":{"baseColorTexture":{"index":11},"metallicFactor":0.0,"roughnessFactor":1.0}}],"meshes":[{"primitives":[{"attributes":{"NORMAL":2,"POSITION":0,"TANGENT":3,"TEXCOORD_0":4},"indices":1,"material":0,"mode":5}]},{"primitives":[{"attributes":{"NORMAL":7,"POSITION":5,"TANGENT":8,"TEXCOORD_0":9},"indices":6,"material":1,"mode":5}]},{"primitives":[{"attributes":{"NORMAL":12,"POSITION":10,"TANGENT":13,"TEXCOORD_0":14},"indices":11,"material":2,"mode":5}]},{"primitives":[{"attributes":{"NORMAL":17,"POSITION":15,"TANGENT":18,"TEXCOORD_0":19},"indices":16,"material":3,"mode":5}]},{"primitives":[{"attributes":{"NORMAL":22,"POSITION":20,"TANGENT":23,"TEXCOORD_0":24},"indices":21,"material":4,"mode":5}]},{"primitives":[{"attributes":{"NORMAL":27,"POSITION":25,"TANGENT":28,"TEXCOORD_0":29},"indices":26,"material":5,"mode":5}]},{"primitives":[{"attributes":{"NORMAL":32,"POSITION":30,"TANGENT":33,"TEXCOORD_0":34},"indices":31,"material":6,"mode":5}]},{"primitives":[{"attributes":{"NORMAL":37,"POSITION":35,"TANGENT":38,"TEXCOORD_0":39},"indices":36,"material":7,"mode":5}]},{"primitives":[{"attributes":{"NORMAL":42,"POSITION":40,"TANGENT":43,"TEXCOORD_0":44},"indices":41,"material":8,"mode":5}]},{"primitives":[{"attributes":{"NORMAL":47,"POSITION":45,"TANGENT":48,"TEXCOORD_0":49},"indices":46,"material":9,"mode":5}]},{"primitives":[{"attributes":{"NORMAL":52,"POSITION":50,"TANGENT":53,"TEXCOORD_0":54},"indices":51,"material":10,"mode":5}]},{"primitives":[{"attributes":{"NORMAL":57,"POSITION":55,"TANGENT":58,"TEXCOORD_0":59},"indices":56,"material":11,"mode":5}]}],"nodes":[{"mesh":0,"name":"_gltfNode_0"},{"mesh":1,"name":"_gltfNode_1"},{"mesh":2,"name":"_gltfNode_2"},{"mesh":3,"name":"_gltfNode_3"},{"mesh":4,"name":"_gltfNode_4"},{"mesh":5,"name":"_gltfNode_5"},{"mesh":6,"name":"_gltfNode_6"},{"mesh":7,"name":"_gltfNode_7"},{"mesh":8,"name":"_gltfNode_8"},{"mesh":9,"name":"_gltfNode_9"},{"mesh":10,"name":"_gltfNode_10"},{"mesh":11,"name":"_gltfNode_11"},{"children":[0,1,2,3,4,5,6,7,8,9,10,11],"name":"GLTF Converted Scene","rotation":[-0.7071067811865475,0.0,0.0,0.7071067811865476],"scale":[1.0,1.0,1.0],"translation":[0.0,0.0,0.0]}],"samplers":[{"magFilter":9729,"minFilter":9729,"wrapS":10497,"wrapT":10497}],"scene":0,"scenes":[{"nodes":[12]}],"textures":[{"sampler":0,"source":0},{"sampler":0,"source":0},{"sampler":0,"source":0},{"sampler":0,"source":0},{"sampler":0,"source":0},{"sampler":0,"source":0},{"sampler":0,"source":0},{"sampler":0,"source":0},{"sampler":0,"source":0},{"sampler":0,"source":0},{"sampler":0,"source":0},{"sampler":0,"source":0}]}