# Blender 4.2.15 LTS
# www.blender.org
mtllib wolf-99-nights-in-the-forest-minecraft.mtl
o cuboid
v 0.187500 1.168750 -0.375000
v 0.187500 1.168750 0.375000
v 0.187500 0.543750 0.375000
v 0.187500 0.543750 -0.375000
v -0.656250 0.543750 0.375000
v -0.656250 1.168750 0.375000
v -0.656250 1.168750 -0.375000
v -0.656250 0.543750 -0.375000
v -0.656250 1.168750 0.375000
v 0.187500 1.168750 0.375000
v 0.187500 1.168750 -0.375000
v -0.656250 1.168750 -0.375000
v 0.187500 0.543750 -0.375000
v 0.187500 0.543750 0.375000
v -0.656250 0.543750 0.375000
v -0.656250 0.543750 -0.375000
v 0.187500 0.543750 0.375000
v 0.187500 1.168750 0.375000
v -0.656250 1.168750 0.375000
v -0.656250 0.543750 0.375000
v -0.656250 1.168750 -0.375000
v 0.187500 1.168750 -0.375000
v 0.187500 0.543750 -0.375000
v -0.656250 0.543750 -0.375000
v 0.187500 1.106250 0.281250
v 0.656250 1.106250 0.281250
v 0.656250 1.106250 -0.281250
v 0.187500 1.106250 -0.281250
v 0.656250 0.668750 -0.281250
v 0.656250 0.668750 0.281250
v 0.187500 0.668750 0.281250
v 0.187500 0.668750 -0.281250
v 0.656250 0.668750 0.281250
v 0.656250 1.106250 0.281250
v 0.187500 1.106250 0.281250
v 0.187500 0.668750 0.281250
v 0.187500 1.106250 -0.281250
v 0.656250 1.106250 -0.281250
v 0.656250 0.668750 -0.281250
v 0.187500 0.668750 -0.281250
v -0.693750 1.177431 0.385190
v 0.212500 1.215625 0.421875
v 0.212500 1.215625 -0.421875
v -0.693750 1.177431 -0.385190
vn 1.0000 -0.0000 -0.0000
vn -1.0000 -0.0000 -0.0000
vn -0.0000 1.0000 -0.0000
vn -0.0000 -1.0000 -0.0000
vn -0.0000 -0.0000 1.0000
vn -0.0000 -0.0000 -1.0000
vn -0.0421 0.9991 -0.0000
vt 0.343750 0.828125
vt 0.250000 0.828125
vt 0.250000 0.750000
vt 0.343750 0.750000
vt 0.343750 0.664062
vt 0.343750 0.742188
vt 0.250000 0.742188
vt 0.250000 0.664062
vt 0.000000 0.781250
vt 0.109375 0.781250
vt 0.109375 0.875000
vt 0.000000 0.875000
vt 0.226562 0.781250
vt 0.226562 0.875000
vt 0.117188 0.875000
vt 0.117188 0.781250
vt 0.343750 0.921875
vt 0.343750 1.000000
vt 0.234375 1.000000
vt 0.234375 0.921875
vt 0.343750 0.914062
vt 0.234375 0.914062
vt 0.234375 0.835938
vt 0.343750 0.835938
vt 0.367188 0.609375
vt 0.429688 0.609375
vt 0.429688 0.679688
vt 0.367188 0.679688
vt 0.062500 0.531250
vt 0.062500 0.601562
vt 0.000000 0.601562
vt 0.000000 0.531250
vt 0.062500 0.468750
vt 0.062500 0.523438
vt 0.000000 0.523438
vt 0.000000 0.468750
vt 0.539062 1.000000
vt 0.476562 1.000000
vt 0.476562 0.945312
vt 0.539062 0.945312
vt 0.220023 0.882812
vt 0.224609 1.000000
vt 0.119141 1.000000
vt 0.123727 0.882812
s 0
usemtl Material_0
f 1/1/1 2/2/1 3/3/1
f 1/1/1 3/3/1 4/4/1
f 5/5/2 6/6/2 7/7/2
f 5/5/2 7/7/2 8/8/2
f 9/9/3 10/10/3 11/11/3
f 9/9/3 11/11/3 12/12/3
f 13/13/4 14/14/4 15/15/4
f 13/13/4 15/15/4 16/16/4
f 17/17/5 18/18/5 19/19/5
f 17/17/5 19/19/5 20/20/5
f 21/21/6 22/22/6 23/23/6
f 21/21/6 23/23/6 24/24/6
f 25/25/3 26/26/3 27/27/3
f 25/25/3 27/27/3 28/28/3
f 29/29/4 30/30/4 31/31/4
f 29/29/4 31/31/4 32/32/4
f 33/33/5 34/34/5 35/35/5
f 33/33/5 35/35/5 36/36/5
f 37/37/6 38/38/6 39/39/6
f 37/37/6 39/39/6 40/40/6
f 41/41/7 42/42/7 43/43/7
f 41/41/7 43/43/7 44/44/7
o cuboid.001
v 0.306250 1.121875 0.328125
v 0.837500 1.153125 0.359375
v 0.837500 1.153125 -0.359375
v 0.306250 1.121875 -0.328125
v 0.821875 1.121875 -0.328125
v 0.821875 1.121875 0.328125
v 0.821875 0.621875 0.328125
v 0.821875 0.621875 -0.328125
v 0.321875 1.121875 0.328125
v 0.821875 1.121875 0.328125
v 0.821875 1.121875 -0.328125
v 0.321875 1.121875 -0.328125
v 0.821875 0.621875 -0.328125
v 0.821875 0.621875 0.328125
v 0.321875 0.621875 0.328125
v 0.321875 0.621875 -0.328125
v 0.821875 0.621875 0.328125
v 0.821875 1.121875 0.328125
v 0.321875 1.121875 0.328125
v 0.321875 0.621875 0.328125
v 0.321875 1.121875 -0.328125
v 0.821875 1.121875 -0.328125
v 0.821875 0.621875 -0.328125
v 0.321875 0.621875 -0.328125
v 0.321875 0.621875 0.328125
v 0.321875 1.121875 0.328125
v 0.321875 1.121875 -0.328125
v 0.321875 0.621875 -0.328125
vn -0.0587 0.9983 -0.0000
vn 1.0000 -0.0000 -0.0000
vn -0.0000 1.0000 -0.0000
vn -0.0000 -1.0000 -0.0000
vn -0.0000 -0.0000 1.0000
vn -0.0000 -0.0000 -1.0000
vn -1.0000 -0.0000 -0.0000
vt 0.087891 0.609375
vt 0.091797 0.679688
vt 0.001953 0.679688
vt 0.005859 0.609375
vt 0.289062 0.656250
vt 0.203125 0.656250
vt 0.203125 0.593750
vt 0.289062 0.593750
vt 0.296875 0.570312
vt 0.359375 0.570312
vt 0.359375 0.656250
vt 0.296875 0.656250
vt 0.414062 0.914062
vt 0.414062 1.000000
vt 0.351562 1.000000
vt 0.351562 0.914062
vt 0.500000 0.679688
vt 0.500000 0.742188
vt 0.437500 0.742188
vt 0.437500 0.679688
vt 0.351562 0.562500
vt 0.289062 0.562500
vt 0.289062 0.500000
vt 0.351562 0.500000
vt 0.437500 0.843750
vt 0.437500 0.906250
vt 0.351562 0.906250
vt 0.351562 0.843750
s 0
usemtl Material_0
f 45/45/8 46/46/8 47/47/8
f 45/45/8 47/47/8 48/48/8
f 49/49/9 50/50/9 51/51/9
f 49/49/9 51/51/9 52/52/9
f 53/53/10 54/54/10 55/55/10
f 53/53/10 55/55/10 56/56/10
f 57/57/11 58/58/11 59/59/11
f 57/57/11 59/59/11 60/60/11
f 61/61/12 62/62/12 63/63/12
f 61/61/12 63/63/12 64/64/12
f 65/65/13 66/66/13 67/67/13
f 65/65/13 67/67/13 68/68/13
f 69/69/14 70/70/14 71/71/14
f 69/69/14 71/71/14 72/72/14
o cuboid.002
v 0.181250 1.121875 0.328125
v 0.462500 1.153125 0.359375
v 0.462500 1.153125 -0.359375
v 0.181250 1.121875 -0.328125
vn -0.1104 0.9939 -0.0000
vt 0.525391 0.632812
vt 0.529297 0.671875
vt 0.439453 0.671875
vt 0.443359 0.632812
s 0
usemtl Material_0
f 73/73/15 74/74/15 75/75/15
f 73/73/15 75/75/15 76/76/15
o head
v -0.812500 1.137500 -0.187500
v -0.812500 1.137500 0.187500
v -0.812500 0.762500 0.187500
v -0.812500 0.762500 -0.187500
v -1.187500 0.762500 0.187500
v -1.187500 1.137500 0.187500
v -1.187500 1.137500 -0.187500
v -1.187500 0.762500 -0.187500
v -1.187500 1.137500 0.187500
v -0.812500 1.137500 0.187500
v -0.812500 1.137500 -0.187500
v -1.187500 1.137500 -0.187500
v -0.812500 0.762500 -0.187500
v -0.812500 0.762500 0.187500
v -1.187500 0.762500 0.187500
v -1.187500 0.762500 -0.187500
v -0.812500 0.762500 0.187500
v -0.812500 1.137500 0.187500
v -1.187500 1.137500 0.187500
v -1.187500 0.762500 0.187500
v -1.187500 1.137500 -0.187500
v -0.812500 1.137500 -0.187500
v -0.812500 0.762500 -0.187500
v -1.187500 0.762500 -0.187500
vn 1.0000 -0.0000 -0.0000
vn -1.0000 -0.0000 -0.0000
vn -0.0000 1.0000 -0.0000
vn -0.0000 -1.0000 -0.0000
vn -0.0000 -0.0000 1.0000
vn -0.0000 -0.0000 -1.0000
vt 0.171875 0.429688
vt 0.125000 0.429688
vt 0.125000 0.382812
vt 0.171875 0.382812
vt 0.625000 0.578125
vt 0.625000 0.625000
vt 0.578125 0.625000
vt 0.578125 0.578125
vt 0.578125 0.523438
vt 0.625000 0.523438
vt 0.625000 0.570312
vt 0.578125 0.570312
vt 0.632812 0.953125
vt 0.632812 1.000000
vt 0.585938 1.000000
vt 0.585938 0.953125
vt 0.632812 0.898438
vt 0.632812 0.945312
vt 0.585938 0.945312
vt 0.585938 0.898438
vt 0.632812 0.890625
vt 0.585938 0.890625
vt 0.585938 0.843750
vt 0.632812 0.843750
s 0
usemtl Material_0
f 77/77/16 78/78/16 79/79/16
f 77/77/16 79/79/16 80/80/16
f 81/81/17 82/82/17 83/83/17
f 81/81/17 83/83/17 84/84/17
f 85/85/18 86/86/18 87/87/18
f 85/85/18 87/87/18 88/88/18
f 89/89/19 90/90/19 91/91/19
f 89/89/19 91/91/19 92/92/19
f 93/93/20 94/94/20 95/95/20
f 93/93/20 95/95/20 96/96/20
f 97/97/21 98/98/21 99/99/21
f 97/97/21 99/99/21 100/100/21
o REye
v -1.103125 1.028125 -0.156250
v -1.103125 1.028125 -0.031250
v -1.103125 0.965625 -0.031250
v -1.103125 0.965625 -0.156250
v -1.196875 0.965625 -0.031250
v -1.196875 1.028125 -0.031250
v -1.196875 1.028125 -0.156250
v -1.196875 0.965625 -0.156250
v -1.196875 1.028125 -0.031250
v -1.103125 1.028125 -0.031250
v -1.103125 1.028125 -0.156250
v -1.196875 1.028125 -0.156250
v -1.103125 0.965625 -0.156250
v -1.103125 0.965625 -0.031250
v -1.196875 0.965625 -0.031250
v -1.196875 0.965625 -0.156250
v -1.103125 0.965625 -0.031250
v -1.103125 1.028125 -0.031250
v -1.196875 1.028125 -0.031250
v -1.196875 0.965625 -0.031250
v -1.196875 1.028125 -0.156250
v -1.103125 1.028125 -0.156250
v -1.103125 0.965625 -0.156250
v -1.196875 0.965625 -0.156250
vn 1.0000 -0.0000 -0.0000
vn -1.0000 -0.0000 -0.0000
vn -0.0000 1.0000 -0.0000
vn -0.0000 -1.0000 -0.0000
vn -0.0000 -0.0000 1.0000
vn -0.0000 -0.0000 -1.0000
vt 0.054688 0.460938
vt 0.039062 0.460938
vt 0.039062 0.453125
vt 0.054688 0.453125
vt 0.554688 0.507812
vt 0.554688 0.515625
vt 0.539062 0.515625
vt 0.539062 0.507812
vt 0.335938 0.437500
vt 0.351562 0.437500
vt 0.351562 0.453125
vt 0.335938 0.453125
vt 0.625000 0.460938
vt 0.625000 0.476562
vt 0.609375 0.476562
vt 0.609375 0.460938
vt 0.562500 0.710938
vt 0.562500 0.718750
vt 0.546875 0.718750
vt 0.546875 0.710938
vt 0.015625 0.367188
vt 0.000000 0.367188
vt 0.000000 0.359375
vt 0.015625 0.359375
s 0
usemtl Material_0
f 101/101/22 102/102/22 103/103/22
f 101/101/22 103/103/22 104/104/22
f 105/105/23 106/106/23 107/107/23
f 105/105/23 107/107/23 108/108/23
f 109/109/24 110/110/24 111/111/24
f 109/109/24 111/111/24 112/112/24
f 113/113/25 114/114/25 115/115/25
f 113/113/25 115/115/25 116/116/25
f 117/117/26 118/118/26 119/119/26
f 117/117/26 119/119/26 120/120/26
f 121/121/27 122/122/27 123/123/27
f 121/121/27 123/123/27 124/124/27
o LEye
v -1.103125 1.028125 0.031250
v -1.103125 1.028125 0.156250
v -1.103125 0.965625 0.156250
v -1.103125 0.965625 0.031250
v -1.196875 0.965625 0.156250
v -1.196875 1.028125 0.156250
v -1.196875 1.028125 0.031250
v -1.196875 0.965625 0.031250
v -1.196875 1.028125 0.156250
v -1.103125 1.028125 0.156250
v -1.103125 1.028125 0.031250
v -1.196875 1.028125 0.031250
v -1.103125 0.965625 0.031250
v -1.103125 0.965625 0.156250
v -1.196875 0.965625 0.156250
v -1.196875 0.965625 0.031250
v -1.103125 0.965625 0.156250
v -1.103125 1.028125 0.156250
v -1.196875 1.028125 0.156250
v -1.196875 0.965625 0.156250
v -1.196875 1.028125 0.031250
v -1.103125 1.028125 0.031250
v -1.103125 0.965625 0.031250
v -1.196875 0.965625 0.031250
vn 1.0000 -0.0000 -0.0000
vn -1.0000 -0.0000 -0.0000
vn -0.0000 1.0000 -0.0000
vn -0.0000 -1.0000 -0.0000
vn -0.0000 -0.0000 1.0000
vn -0.0000 -0.0000 -1.0000
vt 0.656250 0.851562
vt 0.640625 0.851562
vt 0.640625 0.843750
vt 0.656250 0.843750
vt 0.679688 0.843750
vt 0.679688 0.851562
vt 0.664062 0.851562
vt 0.664062 0.843750
vt 0.492188 0.328125
vt 0.507812 0.328125
vt 0.507812 0.343750
vt 0.492188 0.343750
vt 0.390625 0.273438
vt 0.390625 0.289062
vt 0.375000 0.289062
vt 0.375000 0.273438
vt 0.070312 0.289062
vt 0.070312 0.296875
vt 0.054688 0.296875
vt 0.054688 0.289062
vt 0.750000 0.851562
vt 0.734375 0.851562
vt 0.734375 0.843750
vt 0.750000 0.843750
s 0
usemtl Material_0
f 125/125/28 126/126/28 127/127/28
f 125/125/28 127/127/28 128/128/28
f 129/129/29 130/130/29 131/131/29
f 129/129/29 131/131/29 132/132/29
f 133/133/30 134/134/30 135/135/30
f 133/133/30 135/135/30 136/136/30
f 137/137/31 138/138/31 139/139/31
f 137/137/31 139/139/31 140/140/31
f 141/141/32 142/142/32 143/143/32
f 141/141/32 143/143/32 144/144/32
f 145/145/33 146/146/33 147/147/33
f 145/145/33 147/147/33 148/148/33
o LBrow
v -1.115625 1.067577 0.005176
v -1.115625 1.100043 0.151621
v -1.115625 1.026821 0.167854
v -1.115625 0.994355 0.021409
v -1.209375 1.026821 0.167854
v -1.209375 1.100043 0.151621
v -1.209375 1.067577 0.005176
v -1.209375 0.994355 0.021409
v -1.209375 1.100043 0.151621
v -1.115625 1.100043 0.151621
v -1.115625 1.067577 0.005176
v -1.209375 1.067577 0.005176
v -1.115625 0.994355 0.021409
v -1.115625 1.026821 0.167854
v -1.209375 1.026821 0.167854
v -1.209375 0.994355 0.021409
v -1.115625 1.026821 0.167854
v -1.115625 1.100043 0.151621
v -1.209375 1.100043 0.151621
v -1.209375 1.026821 0.167854
v -1.209375 1.067577 0.005176
v -1.115625 1.067577 0.005176
v -1.115625 0.994355 0.021409
v -1.209375 0.994355 0.021409
vn 1.0000 -0.0000 -0.0000
vn -1.0000 -0.0000 -0.0000
vn -0.0000 0.9763 -0.2164
vn -0.0000 -0.9763 0.2164
vn -0.0000 0.2164 0.9763
vn -0.0000 -0.2164 -0.9763
vt 0.804688 0.546875
vt 0.789062 0.546875
vt 0.789062 0.539062
vt 0.804688 0.539062
vt 0.804688 0.523438
vt 0.804688 0.531250
vt 0.789062 0.531250
vt 0.789062 0.523438
vt 0.335938 0.195312
vt 0.351562 0.195312
vt 0.351562 0.210938
vt 0.335938 0.210938
vt 0.375000 0.195312
vt 0.375000 0.210938
vt 0.359375 0.210938
vt 0.359375 0.195312
vt 0.492188 0.203125
vt 0.492188 0.210938
vt 0.476562 0.210938
vt 0.476562 0.203125
vt 0.515625 0.210938
vt 0.500000 0.210938
vt 0.500000 0.203125
vt 0.515625 0.203125
s 0
usemtl Material_0
f 149/149/34 150/150/34 151/151/34
f 149/149/34 151/151/34 152/152/34
f 153/153/35 154/154/35 155/155/35
f 153/153/35 155/155/35 156/156/35
f 157/157/36 158/158/36 159/159/36
f 157/157/36 159/159/36 160/160/36
f 161/161/37 162/162/37 163/163/37
f 161/161/37 163/163/37 164/164/37
f 165/165/38 166/166/38 167/167/38
f 165/165/38 167/167/38 168/168/38
f 169/169/39 170/170/39 171/171/39
f 169/169/39 171/171/39 172/172/39
o RBrow
v -1.115625 1.100043 -0.151621
v -1.115625 1.067577 -0.005176
v -1.115625 0.994355 -0.021409
v -1.115625 1.026821 -0.167854
v -1.209375 0.994355 -0.021409
v -1.209375 1.067577 -0.005176
v -1.209375 1.100043 -0.151621
v -1.209375 1.026821 -0.167854
v -1.209375 1.067577 -0.005176
v -1.115625 1.067577 -0.005176
v -1.115625 1.100043 -0.151621
v -1.209375 1.100043 -0.151621
v -1.115625 1.026821 -0.167854
v -1.115625 0.994355 -0.021409
v -1.209375 0.994355 -0.021409
v -1.209375 1.026821 -0.167854
v -1.115625 0.994355 -0.021409
v -1.115625 1.067577 -0.005176
v -1.209375 1.067577 -0.005176
v -1.209375 0.994355 -0.021409
v -1.209375 1.100043 -0.151621
v -1.115625 1.100043 -0.151621
v -1.115625 1.026821 -0.167854
v -1.209375 1.026821 -0.167854
vn 1.0000 -0.0000 -0.0000
vn -1.0000 -0.0000 -0.0000
vn -0.0000 0.9763 0.2164
vn -0.0000 -0.9763 -0.2164
vn -0.0000 -0.2164 0.9763
vn -0.0000 0.2164 -0.9763
vt 0.765625 0.375000
vt 0.750000 0.375000
vt 0.750000 0.367188
vt 0.765625 0.367188
vt 0.773438 0.804688
vt 0.773438 0.812500
vt 0.757812 0.812500
vt 0.757812 0.804688
vt 0.078125 0.226562
vt 0.093750 0.226562
vt 0.093750 0.242188
vt 0.078125 0.242188
vt 0.804688 0.679688
vt 0.804688 0.695312
vt 0.789062 0.695312
vt 0.789062 0.679688
vt 0.671875 0.234375
vt 0.671875 0.242188
vt 0.656250 0.242188
vt 0.656250 0.234375
vt 0.804688 0.867188
vt 0.789062 0.867188
vt 0.789062 0.859375
vt 0.804688 0.859375
s 0
usemtl Material_0
f 173/173/40 174/174/40 175/175/40
f 173/173/40 175/175/40 176/176/40
f 177/177/41 178/178/41 179/179/41
f 177/177/41 179/179/41 180/180/41
f 181/181/42 182/182/42 183/183/42
f 181/181/42 183/183/42 184/184/42
f 185/185/43 186/186/43 187/187/43
f 185/185/43 187/187/43 188/188/43
f 189/189/44 190/190/44 191/191/44
f 189/189/44 191/191/44 192/192/44
f 193/193/45 194/194/45 195/195/45
f 193/193/45 195/195/45 196/196/45
o neck
v -0.812500 1.121875 0.171875
v -0.656250 1.121875 0.171875
v -0.656250 1.121875 -0.171875
v -0.812500 1.121875 -0.171875
v -0.656250 0.778125 -0.171875
v -0.656250 0.778125 0.171875
v -0.812500 0.778125 0.171875
v -0.812500 0.778125 -0.171875
v -0.656250 0.778125 0.171875
v -0.656250 1.121875 0.171875
v -0.812500 1.121875 0.171875
v -0.812500 0.778125 0.171875
v -0.812500 1.121875 -0.171875
v -0.656250 1.121875 -0.171875
v -0.656250 0.778125 -0.171875
v -0.812500 0.778125 -0.171875
vn -0.0000 1.0000 -0.0000
vn -0.0000 -1.0000 -0.0000
vn -0.0000 -0.0000 1.0000
vn -0.0000 -0.0000 -1.0000
vt 0.046875 0.304688
vt 0.070312 0.304688
vt 0.070312 0.351562
vt 0.046875 0.351562
vt 0.468750 0.234375
vt 0.468750 0.281250
vt 0.445312 0.281250
vt 0.445312 0.234375
vt 0.125000 0.226562
vt 0.125000 0.273438
vt 0.101562 0.273438
vt 0.101562 0.226562
vt 0.750000 0.312500
vt 0.726562 0.312500
vt 0.726562 0.265625
vt 0.750000 0.265625
s 0
usemtl Material_0
f 197/197/46 198/198/46 199/199/46
f 197/197/46 199/199/46 200/200/46
f 201/201/47 202/202/47 203/203/47
f 201/201/47 203/203/47 204/204/47
f 205/205/48 206/206/48 207/207/48
f 205/205/48 207/207/48 208/208/48
f 209/209/49 210/210/49 211/211/49
f 209/209/49 211/211/49 212/212/49
o UpperJaw
v -1.412500 0.762500 0.115625
v -1.412500 0.856250 0.115625
v -1.412500 0.856250 -0.115625
v -1.412500 0.762500 -0.115625
v -1.187500 0.762500 0.115625
v -1.187500 0.856250 0.115625
v -1.412500 0.856250 0.115625
v -1.412500 0.762500 0.115625
v -1.412500 0.856250 -0.115625
v -1.187500 0.856250 -0.115625
v -1.187500 0.762500 -0.115625
v -1.412500 0.762500 -0.115625
v -1.390625 0.959375 -0.062500
v -1.390625 0.959375 0.062500
v -1.390625 0.871875 0.062500
v -1.390625 0.871875 -0.062500
v -1.468750 0.871875 0.062500
v -1.468750 0.959375 0.062500
v -1.468750 0.959375 -0.062500
v -1.468750 0.871875 -0.062500
v -1.468750 0.959375 0.062500
v -1.390625 0.959375 0.062500
v -1.390625 0.959375 -0.062500
v -1.468750 0.959375 -0.062500
v -1.390625 0.871875 -0.062500
v -1.390625 0.871875 0.062500
v -1.468750 0.871875 0.062500
v -1.468750 0.871875 -0.062500
v -1.390625 0.871875 0.062500
v -1.390625 0.959375 0.062500
v -1.468750 0.959375 0.062500
v -1.468750 0.871875 0.062500
v -1.468750 0.959375 -0.062500
v -1.390625 0.959375 -0.062500
v -1.390625 0.871875 -0.062500
v -1.468750 0.871875 -0.062500
v -1.187500 0.950000 -0.125000
v -1.187500 0.950000 0.125000
v -1.187500 0.825000 0.125000
v -1.187500 0.825000 -0.125000
v -1.437500 0.825000 0.125000
v -1.437500 0.950000 0.125000
v -1.437500 0.950000 -0.125000
v -1.437500 0.825000 -0.125000
v -1.437500 0.950000 0.125000
v -1.187500 0.950000 0.125000
v -1.187500 0.950000 -0.125000
v -1.437500 0.950000 -0.125000
v -1.187500 0.825000 -0.125000
v -1.187500 0.825000 0.125000
v -1.437500 0.825000 0.125000
v -1.437500 0.825000 -0.125000
v -1.187500 0.825000 0.125000
v -1.187500 0.950000 0.125000
v -1.437500 0.950000 0.125000
v -1.437500 0.825000 0.125000
v -1.437500 0.950000 -0.125000
v -1.187500 0.950000 -0.125000
v -1.187500 0.825000 -0.125000
v -1.437500 0.825000 -0.125000
vn -1.0000 -0.0000 -0.0000
vn -0.0000 -0.0000 1.0000
vn -0.0000 -0.0000 -1.0000
vn 1.0000 -0.0000 -0.0000
vn -0.0000 1.0000 -0.0000
vn -0.0000 -1.0000 -0.0000
vt 0.234375 0.664062
vt 0.234375 0.679688
vt 0.203125 0.679688
vt 0.203125 0.664062
vt 0.468750 0.609375
vt 0.468750 0.625000
vt 0.437500 0.625000
vt 0.437500 0.609375
vt 0.476562 0.859375
vt 0.445312 0.859375
vt 0.445312 0.843750
vt 0.476562 0.843750
vt 0.195312 0.601562
vt 0.179688 0.601562
vt 0.179688 0.593750
vt 0.195312 0.593750
vt 0.500000 0.750000
vt 0.500000 0.757812
vt 0.484375 0.757812
vt 0.484375 0.750000
vt 0.414062 0.195312
vt 0.421875 0.195312
vt 0.421875 0.210938
vt 0.414062 0.210938
vt 0.796875 0.554688
vt 0.796875 0.570312
vt 0.789062 0.570312
vt 0.789062 0.554688
vt 0.242188 0.781250
vt 0.242188 0.789062
vt 0.234375 0.789062
vt 0.234375 0.781250
vt 0.031250 0.367188
vt 0.023438 0.367188
vt 0.023438 0.359375
vt 0.031250 0.359375
vt 0.812500 0.343750
vt 0.781250 0.343750
vt 0.781250 0.328125
vt 0.812500 0.328125
vt 0.281250 0.195312
vt 0.281250 0.210938
vt 0.250000 0.210938
vt 0.250000 0.195312
vt 0.171875 0.226562
vt 0.203125 0.226562
vt 0.203125 0.257812
vt 0.171875 0.257812
vt 0.242188 0.226562
vt 0.242188 0.257812
vt 0.210938 0.257812
vt 0.210938 0.226562
vt 0.820312 0.726562
vt 0.820312 0.742188
vt 0.789062 0.742188
vt 0.789062 0.726562
vt 0.820312 0.718750
vt 0.789062 0.718750
vt 0.789062 0.703125
vt 0.820312 0.703125
s 0
usemtl Material_0
f 213/213/50 214/214/50 215/215/50
f 213/213/50 215/215/50 216/216/50
f 217/217/51 218/218/51 219/219/51
f 217/217/51 219/219/51 220/220/51
f 221/221/52 222/222/52 223/223/52
f 221/221/52 223/223/52 224/224/52
f 225/225/53 226/226/53 227/227/53
f 225/225/53 227/227/53 228/228/53
f 229/229/50 230/230/50 231/231/50
f 229/229/50 231/231/50 232/232/50
f 233/233/54 234/234/54 235/235/54
f 233/233/54 235/235/54 236/236/54
f 237/237/55 238/238/55 239/239/55
f 237/237/55 239/239/55 240/240/55
f 241/241/51 242/242/51 243/243/51
f 241/241/51 243/243/51 244/244/51
f 245/245/52 246/246/52 247/247/52
f 245/245/52 247/247/52 248/248/52
f 249/249/53 250/250/53 251/251/53
f 249/249/53 251/251/53 252/252/53
f 253/253/50 254/254/50 255/255/50
f 253/253/50 255/255/50 256/256/50
f 257/257/54 258/258/54 259/259/54
f 257/257/54 259/259/54 260/260/54
f 261/261/55 262/262/55 263/263/55
f 261/261/55 263/263/55 264/264/55
f 265/265/51 266/266/51 267/267/51
f 265/265/51 267/267/51 268/268/51
f 269/269/52 270/270/52 271/271/52
f 269/269/52 271/271/52 272/272/52
o REar
v -1.051594 1.302637 -0.274700
v -1.051594 1.356452 -0.144779
v -0.955923 1.143063 -0.056391
v -0.955923 1.089249 -0.186312
v -1.109336 1.334355 -0.135627
v -1.051594 1.356452 -0.144779
v -1.051594 1.302637 -0.274700
v -1.109336 1.280540 -0.265547
v -0.955923 1.089249 -0.186312
v -0.955923 1.143063 -0.056391
v -1.013666 1.120966 -0.047238
v -1.013666 1.067151 -0.177159
v -0.955923 1.143063 -0.056391
v -1.051594 1.356452 -0.144779
v -1.109336 1.334355 -0.135627
v -1.013666 1.120966 -0.047238
v -1.109336 1.280540 -0.265547
v -1.051594 1.302637 -0.274700
v -0.955923 1.089249 -0.186312
v -1.013666 1.067151 -0.177159
v -1.013666 1.120966 -0.047238
v -1.109336 1.334355 -0.135627
v -1.109336 1.280540 -0.265547
v -1.013666 1.067151 -0.177159
vn 0.9239 0.3536 -0.1464
vn -0.3827 0.8536 -0.3536
vn 0.3827 -0.8536 0.3536
vn -0.0000 0.3827 0.9239
vn -0.0000 -0.3827 -0.9239
vn -0.9239 -0.3536 0.1464
vt 0.500000 0.796875
vt 0.484375 0.796875
vt 0.484375 0.765625
vt 0.500000 0.765625
vt 0.351562 0.664062
vt 0.359375 0.664062
vt 0.359375 0.679688
vt 0.351562 0.679688
vt 0.640625 0.781250
vt 0.640625 0.796875
vt 0.632812 0.796875
vt 0.632812 0.781250
vt 0.242188 0.796875
vt 0.242188 0.828125
vt 0.234375 0.828125
vt 0.234375 0.796875
vt 0.367188 0.250000
vt 0.359375 0.250000
vt 0.359375 0.218750
vt 0.367188 0.218750
vt 0.351562 0.460938
vt 0.351562 0.492188
vt 0.335938 0.492188
vt 0.335938 0.460938
s 0
usemtl Material_0
f 273/273/56 274/274/56 275/275/56
f 273/273/56 275/275/56 276/276/56
f 277/277/57 278/278/57 279/279/57
f 277/277/57 279/279/57 280/280/57
f 281/281/58 282/282/58 283/283/58
f 281/281/58 283/283/58 284/284/58
f 285/285/59 286/286/59 287/287/59
f 285/285/59 287/287/59 288/288/59
f 289/289/60 290/290/60 291/291/60
f 289/289/60 291/291/60 292/292/60
f 293/293/61 294/294/61 295/295/61
f 293/293/61 295/295/61 296/296/61
o LEar
v -1.051594 1.356452 0.144779
v -1.051594 1.302637 0.274700
v -0.955923 1.089249 0.186312
v -0.955923 1.143063 0.056391
v -1.109336 1.280540 0.265547
v -1.051594 1.302637 0.274700
v -1.051594 1.356452 0.144779
v -1.109336 1.334355 0.135627
v -0.955923 1.143063 0.056391
v -0.955923 1.089249 0.186312
v -1.013666 1.067151 0.177159
v -1.013666 1.120966 0.047238
v -0.955923 1.089249 0.186312
v -1.051594 1.302637 0.274700
v -1.109336 1.280540 0.265547
v -1.013666 1.067151 0.177159
v -1.109336 1.334355 0.135627
v -1.051594 1.356452 0.144779
v -0.955923 1.143063 0.056391
v -1.013666 1.120966 0.047238
v -1.013666 1.067151 0.177159
v -1.109336 1.280540 0.265547
v -1.109336 1.334355 0.135627
v -1.013666 1.120966 0.047238
vn 0.9239 0.3536 0.1464
vn -0.3827 0.8536 0.3536
vn 0.3827 -0.8536 -0.3536
vn -0.0000 -0.3827 0.9239
vn -0.0000 0.3827 -0.9239
vn -0.9239 -0.3536 -0.1464
vt 0.164062 0.210938
vt 0.148438 0.210938
vt 0.148438 0.179688
vt 0.164062 0.179688
vt 0.382812 0.195312
vt 0.390625 0.195312
vt 0.390625 0.210938
vt 0.382812 0.210938
vt 0.406250 0.195312
vt 0.406250 0.210938
vt 0.398438 0.210938
vt 0.398438 0.195312
vt 0.765625 0.632812
vt 0.765625 0.664062
vt 0.757812 0.664062
vt 0.757812 0.632812
vt 0.617188 0.218750
vt 0.609375 0.218750
vt 0.609375 0.187500
vt 0.617188 0.187500
vt 0.804688 0.750000
vt 0.804688 0.781250
vt 0.789062 0.781250
vt 0.789062 0.750000
s 0
usemtl Material_0
f 297/297/62 298/298/62 299/299/62
f 297/297/62 299/299/62 300/300/62
f 301/301/63 302/302/63 303/303/63
f 301/301/63 303/303/63 304/304/63
f 305/305/64 306/306/64 307/307/64
f 305/305/64 307/307/64 308/308/64
f 309/309/65 310/310/65 311/311/65
f 309/309/65 311/311/65 312/312/65
f 313/313/66 314/314/66 315/315/66
f 313/313/66 315/315/66 316/316/66
f 317/317/67 318/318/67 319/319/67
f 317/317/67 319/319/67 320/320/67
o cuboid.003
v -1.171875 1.153125 0.203125
v -0.750000 1.168750 0.218750
v -0.750000 1.168750 -0.218750
v -1.171875 1.153125 -0.203125
v -0.750000 0.731250 -0.218750
v -0.750000 0.731250 0.218750
v -1.171875 0.746875 0.203125
v -1.171875 0.746875 -0.203125
v -0.750000 0.731250 0.218750
v -0.750000 1.168750 0.218750
v -1.171875 1.153125 0.203125
v -1.171875 0.746875 0.203125
v -1.171875 1.153125 -0.203125
v -0.750000 1.168750 -0.218750
v -0.750000 0.731250 -0.218750
v -1.171875 0.746875 -0.203125
vn -0.0370 0.9993 -0.0000
vn -0.0370 -0.9993 -0.0000
vn -0.0370 -0.0000 0.9993
vn -0.0370 -0.0000 -0.9993
vt 0.537109 0.804688
vt 0.539062 0.859375
vt 0.484375 0.859375
vt 0.486328 0.804688
vt 0.070312 0.453125
vt 0.125000 0.453125
vt 0.123047 0.507812
vt 0.072266 0.507812
vt 0.531250 0.570312
vt 0.531250 0.625000
vt 0.476562 0.623047
vt 0.476562 0.572266
vt 0.531250 0.560547
vt 0.476562 0.562500
vt 0.476562 0.507812
vt 0.531250 0.509766
s 0
usemtl Material_0
f 321/321/68 322/322/68 323/323/68
f 321/321/68 323/323/68 324/324/68
f 325/325/69 326/326/69 327/327/69
f 325/325/69 327/327/69 328/328/69
f 329/329/70 330/330/70 331/331/70
f 329/329/70 331/331/70 332/332/70
f 333/333/71 334/334/71 335/335/71
f 333/333/71 335/335/71 336/336/71
o plane
v -1.134095 0.629351 -0.078125
v -1.168954 0.699268 -0.078125
v -1.168954 0.699268 0.078125
v -1.134095 0.629351 0.078125
v -0.996508 0.802860 -0.109375
v -0.996508 0.802860 0.109375
v -0.989969 0.709338 0.109375
v -0.989969 0.709338 -0.109375
v -1.395230 0.681000 0.109375
v -1.401769 0.774522 0.109375
v -1.401769 0.774522 -0.109375
v -1.395230 0.681000 -0.109375
v -1.401769 0.774522 0.109375
v -0.996508 0.802860 0.109375
v -0.996508 0.802860 -0.109375
v -1.401769 0.774522 -0.109375
v -0.989969 0.709338 -0.109375
v -0.989969 0.709338 0.109375
v -1.395230 0.681000 0.109375
v -1.395230 0.681000 -0.109375
v -0.989969 0.709338 0.109375
v -0.996508 0.802860 0.109375
v -1.401769 0.774522 0.109375
v -1.395230 0.681000 0.109375
v -1.401769 0.774522 -0.109375
v -0.996508 0.802860 -0.109375
v -0.989969 0.709338 -0.109375
v -1.395230 0.681000 -0.109375
vn 0.8949 0.4462 -0.0000
vn 0.9976 0.0698 -0.0000
vn -0.9976 -0.0698 -0.0000
vn -0.0698 0.9976 -0.0000
vn 0.0698 -0.9976 -0.0000
vn -0.0000 -0.0000 1.0000
vn -0.0000 -0.0000 -1.0000
vt 0.257812 0.273438
vt 0.265625 0.273438
vt 0.265625 0.296875
vt 0.257812 0.296875
vt 0.304688 0.179688
vt 0.304688 0.210938
vt 0.289062 0.210938
vt 0.289062 0.179688
vt 0.328125 0.210938
vt 0.312500 0.210938
vt 0.312500 0.179688
vt 0.328125 0.179688
vt 0.703125 0.703125
vt 0.648438 0.703125
vt 0.648438 0.671875
vt 0.703125 0.671875
vt 0.703125 0.710938
vt 0.703125 0.742188
vt 0.648438 0.742188
vt 0.648438 0.710938
vt 0.828125 0.601562
vt 0.828125 0.617188
vt 0.773438 0.617188
vt 0.773438 0.601562
vt 0.828125 0.593750
vt 0.773438 0.593750
vt 0.773438 0.578125
vt 0.828125 0.578125
s 0
usemtl Material_0
f 337/337/72 338/338/72 339/339/72
f 337/337/72 339/339/72 340/340/72
f 341/341/73 342/342/73 343/343/73
f 341/341/73 343/343/73 344/344/73
f 345/345/74 346/346/74 347/347/74
f 345/345/74 347/347/74 348/348/74
f 349/349/75 350/350/75 351/351/75
f 349/349/75 351/351/75 352/352/75
f 353/353/76 354/354/76 355/355/76
f 353/353/76 355/355/76 356/356/76
f 357/357/77 358/358/77 359/359/77
f 357/357/77 359/359/77 360/360/77
f 361/361/78 362/362/78 363/363/78
f 361/361/78 363/363/78 364/364/78
o plane.001
v -1.080481 0.778125 0.179323
v -1.080481 1.106250 0.179323
v -0.925801 1.106250 0.334002
v -0.925801 0.778125 0.334002
vn 0.7071 -0.0000 -0.7071
vt 0.710938 0.968750
vt 0.750000 0.968750
vt 0.750000 1.000000
vt 0.710938 1.000000
s 0
usemtl Material_0
f 365/365/79 366/366/79 367/367/79
f 365/365/79 367/367/79 368/368/79
o plane.002
v -0.932464 0.778125 -0.327340
v -0.932464 1.106250 -0.327340
v -1.087143 1.106250 -0.172660
v -1.087143 0.778125 -0.172660
vn 0.7071 -0.0000 0.7071
vt 0.328125 0.257812
vt 0.367188 0.257812
vt 0.367188 0.289062
vt 0.328125 0.289062
s 0
usemtl Material_0
f 369/369/80 370/370/80 371/371/80
f 369/369/80 371/371/80 372/372/80
o cuboid.004
v -0.133105 1.072543 -0.578125
v -0.133105 1.072543 -0.359375
v 0.118032 0.466247 -0.359375
v 0.118032 0.466247 -0.578125
v -0.228423 0.322740 -0.359375
v -0.479559 0.929036 -0.359375
v -0.479559 0.929036 -0.578125
v -0.228423 0.322740 -0.578125
v -0.479559 0.929036 -0.359375
v -0.133105 1.072543 -0.359375
v -0.133105 1.072543 -0.578125
v -0.479559 0.929036 -0.578125
v 0.118032 0.466247 -0.578125
v 0.118032 0.466247 -0.359375
v -0.228423 0.322740 -0.359375
v -0.228423 0.322740 -0.578125
v 0.118032 0.466247 -0.359375
v -0.133105 1.072543 -0.359375
v -0.479559 0.929036 -0.359375
v -0.228423 0.322740 -0.359375
v -0.479559 0.929036 -0.578125
v -0.133105 1.072543 -0.578125
v 0.118032 0.466247 -0.578125
v -0.228423 0.322740 -0.578125
v -0.124648 1.092958 -0.593750
v -0.124648 1.092958 -0.343750
v -0.002583 0.839096 -0.328125
v -0.002583 0.839096 -0.609375
v -0.406780 0.671672 -0.328125
v -0.499974 0.937493 -0.343750
v -0.499974 0.937493 -0.593750
v -0.406780 0.671672 -0.609375
v -0.002583 0.839096 -0.328125
v -0.124648 1.092958 -0.343750
v -0.499974 0.937493 -0.343750
v -0.406780 0.671672 -0.328125
v -0.499974 0.937493 -0.593750
v -0.124648 1.092958 -0.593750
v -0.002583 0.839096 -0.609375
v -0.406780 0.671672 -0.609375
v 0.066693 0.631018 -0.593750
v 0.066693 0.631018 -0.343750
v 0.203194 0.383136 -0.312500
v 0.203194 0.383136 -0.625000
v -0.308633 0.475553 -0.343750
v 0.066693 0.631018 -0.343750
v 0.066693 0.631018 -0.593750
v -0.308633 0.475553 -0.593750
v 0.203194 0.383136 -0.312500
v 0.066693 0.631018 -0.343750
v -0.308633 0.475553 -0.343750
v -0.229874 0.203753 -0.312500
v -0.308633 0.475553 -0.593750
v 0.066693 0.631018 -0.593750
v 0.203194 0.383136 -0.625000
v -0.229874 0.203753 -0.625000
vn 0.9239 0.3827 -0.0000
vn -0.9239 -0.3827 -0.0000
vn -0.3827 0.9239 -0.0000
vn 0.3827 -0.9239 -0.0000
vn -0.0000 -0.0000 1.0000
vn -0.0000 -0.0000 -1.0000
vn 0.9012 0.4333 -0.0000
vn -0.9437 -0.3308 -0.0000
vn -0.0212 0.0512 0.9985
vn -0.0212 0.0512 -0.9985
vn 0.8760 0.4824 -0.0000
vn -0.0423 0.1020 0.9939
vn -0.0423 0.1020 -0.9939
vt 0.437500 0.507812
vt 0.406250 0.507812
vt 0.406250 0.421875
vt 0.437500 0.421875
vt 0.476562 0.414062
vt 0.476562 0.500000
vt 0.445312 0.500000
vt 0.445312 0.414062
vt 0.695312 0.765625
vt 0.742188 0.765625
vt 0.742188 0.796875
vt 0.695312 0.796875
vt 0.320312 0.273438
vt 0.320312 0.304688
vt 0.273438 0.304688
vt 0.273438 0.273438
vt 0.117188 0.515625
vt 0.117188 0.601562
vt 0.070312 0.601562
vt 0.070312 0.515625
vt 0.171875 0.601562
vt 0.125000 0.601562
vt 0.125000 0.515625
vt 0.171875 0.515625
vt 0.628906 0.304688
vt 0.597656 0.304688
vt 0.595703 0.265625
vt 0.630859 0.265625
vt 0.740234 0.414062
vt 0.738281 0.453125
vt 0.707031 0.453125
vt 0.705078 0.414062
vt 0.460938 0.367188
vt 0.458984 0.406250
vt 0.408203 0.406250
vt 0.406250 0.367188
vt 0.638672 0.773438
vt 0.587891 0.773438
vt 0.585938 0.734375
vt 0.640625 0.734375
vt 0.722656 0.882812
vt 0.691406 0.882812
vt 0.687500 0.843750
vt 0.726562 0.843750
vt 0.640625 0.351562
vt 0.640625 0.296875
vt 0.671875 0.296875
vt 0.671875 0.351562
vt 0.623047 0.406250
vt 0.619141 0.445312
vt 0.568359 0.445312
vt 0.564453 0.406250
vt 0.392578 0.429688
vt 0.341797 0.429688
vt 0.337891 0.390625
vt 0.396484 0.390625
s 0
usemtl Material_0
f 373/373/81 374/374/81 375/375/81
f 373/373/81 375/375/81 376/376/81
f 377/377/82 378/378/82 379/379/82
f 377/377/82 379/379/82 380/380/82
f 381/381/83 382/382/83 383/383/83
f 381/381/83 383/383/83 384/384/83
f 385/385/84 386/386/84 387/387/84
f 385/385/84 387/387/84 388/388/84
f 389/389/85 390/390/85 391/391/85
f 389/389/85 391/391/85 392/392/85
f 393/393/86 394/394/86 395/395/86
f 393/393/86 395/395/86 396/396/86
f 397/397/87 398/398/87 399/399/87
f 397/397/87 399/399/87 400/400/87
f 401/401/88 402/402/88 403/403/88
f 401/401/88 403/403/88 404/404/88
f 405/405/89 406/406/89 407/407/89
f 405/405/89 407/407/89 408/408/89
f 409/409/90 410/410/90 411/411/90
f 409/409/90 411/411/90 412/412/90
f 413/413/91 414/414/91 415/415/91
f 413/413/91 415/415/91 416/416/91
f 417/417/83 418/418/83 419/419/83
f 417/417/83 419/419/83 420/420/83
f 421/421/92 422/422/92 423/423/92
f 421/421/92 423/423/92 424/424/92
f 425/425/93 426/426/93 427/427/93
f 425/425/93 427/427/93 428/428/93
o cuboid.005
v -0.573326 0.173136 -0.562500
v -0.573326 0.173136 -0.375000
v -0.109287 0.637175 -0.375000
v -0.109287 0.637175 -0.562500
v 0.067489 0.460398 -0.375000
v -0.396550 -0.003641 -0.375000
v -0.396550 -0.003641 -0.562500
v 0.067489 0.460398 -0.562500
v -0.396550 -0.003641 -0.375000
v -0.573326 0.173136 -0.375000
v -0.573326 0.173136 -0.562500
v -0.396550 -0.003641 -0.562500
v -0.109287 0.637175 -0.562500
v -0.109287 0.637175 -0.375000
v 0.067489 0.460398 -0.375000
v 0.067489 0.460398 -0.562500
v -0.109287 0.637175 -0.375000
v -0.573326 0.173136 -0.375000
v -0.396550 -0.003641 -0.375000
v 0.067489 0.460398 -0.375000
v -0.396550 -0.003641 -0.562500
v -0.573326 0.173136 -0.562500
v -0.109287 0.637175 -0.562500
v 0.067489 0.460398 -0.562500
vn -0.7071 0.7071 -0.0000
vn 0.7071 -0.7071 -0.0000
vn -0.7071 -0.7071 -0.0000
vn 0.7071 0.7071 -0.0000
vn -0.0000 -0.0000 1.0000
vn -0.0000 -0.0000 -1.0000
vt 0.539062 0.406250
vt 0.515625 0.406250
vt 0.515625 0.320312
vt 0.539062 0.320312
vt 0.328125 0.312500
vt 0.328125 0.398438
vt 0.304688 0.398438
vt 0.304688 0.312500
vt 0.632812 0.523438
vt 0.664062 0.523438
vt 0.664062 0.546875
vt 0.632812 0.546875
vt 0.468750 0.203125
vt 0.468750 0.226562
vt 0.437500 0.226562
vt 0.437500 0.203125
vt 0.515625 0.414062
vt 0.515625 0.500000
vt 0.484375 0.500000
vt 0.484375 0.414062
vt 0.210938 0.492188
vt 0.179688 0.492188
vt 0.179688 0.406250
vt 0.210938 0.406250
s 0
usemtl Material_0
f 429/429/94 430/430/94 431/431/94
f 429/429/94 431/431/94 432/432/94
f 433/433/95 434/434/95 435/435/95
f 433/433/95 435/435/95 436/436/95
f 437/437/96 438/438/96 439/439/96
f 437/437/96 439/439/96 440/440/96
f 441/441/97 442/442/97 443/443/97
f 441/441/97 443/443/97 444/444/97
f 445/445/98 446/446/98 447/447/98
f 445/445/98 447/447/98 448/448/98
f 449/449/99 450/450/99 451/451/99
f 449/449/99 451/451/99 452/452/99
o cuboid.006
v -0.771875 0.168750 -0.625000
v -0.771875 0.168750 -0.312500
v -0.396875 0.168750 -0.312500
v -0.396875 0.168750 -0.625000
v -0.396875 -0.003125 -0.312500
v -0.771875 -0.003125 -0.312500
v -0.771875 -0.003125 -0.625000
v -0.396875 -0.003125 -0.625000
v -0.771875 -0.003125 -0.312500
v -0.771875 0.168750 -0.312500
v -0.771875 0.168750 -0.625000
v -0.771875 -0.003125 -0.625000
v -0.396875 0.168750 -0.625000
v -0.396875 0.168750 -0.312500
v -0.396875 -0.003125 -0.312500
v -0.396875 -0.003125 -0.625000
v -0.396875 0.168750 -0.312500
v -0.771875 0.168750 -0.312500
v -0.771875 -0.003125 -0.312500
v -0.396875 -0.003125 -0.312500
v -0.771875 -0.003125 -0.625000
v -0.771875 0.168750 -0.625000
v -0.396875 0.168750 -0.625000
v -0.396875 -0.003125 -0.625000
v -0.771875 -0.000000 -0.578125
v -0.771875 0.171875 -0.578125
v -0.959375 0.171875 -0.578125
v -0.959375 -0.000000 -0.578125
v -0.765625 -0.003125 -0.468750
v -0.765625 0.231250 -0.468750
v -1.015625 0.231250 -0.468750
v -1.015625 -0.003125 -0.468750
v -0.771875 -0.000000 -0.359375
v -0.771875 0.171875 -0.359375
v -0.959375 0.171875 -0.359375
v -0.959375 -0.000000 -0.359375
vn -0.0000 1.0000 -0.0000
vn -0.0000 -1.0000 -0.0000
vn -1.0000 -0.0000 -0.0000
vn 1.0000 -0.0000 -0.0000
vn -0.0000 -0.0000 1.0000
vn -0.0000 -0.0000 -1.0000
vt 0.679688 0.960938
vt 0.640625 0.960938
vt 0.640625 0.914062
vt 0.679688 0.914062
vt 0.679688 0.859375
vt 0.679688 0.906250
vt 0.640625 0.906250
vt 0.640625 0.859375
vt 0.273438 0.312500
vt 0.296875 0.312500
vt 0.296875 0.351562
vt 0.273438 0.351562
vt 0.781250 0.718750
vt 0.781250 0.757812
vt 0.757812 0.757812
vt 0.757812 0.718750
vt 0.281250 0.218750
vt 0.281250 0.265625
vt 0.257812 0.265625
vt 0.257812 0.218750
vt 0.312500 0.265625
vt 0.289062 0.265625
vt 0.289062 0.218750
vt 0.312500 0.218750
vt 0.507812 0.679688
vt 0.531250 0.679688
vt 0.531250 0.703125
vt 0.507812 0.703125
vt 0.585938 0.226562
vt 0.617188 0.226562
vt 0.617188 0.257812
vt 0.585938 0.257812
vt 0.578125 0.195312
vt 0.601562 0.195312
vt 0.601562 0.218750
vt 0.578125 0.218750
s 0
usemtl Material_0
f 453/453/100 454/454/100 455/455/100
f 453/453/100 455/455/100 456/456/100
f 457/457/101 458/458/101 459/459/101
f 457/457/101 459/459/101 460/460/101
f 461/461/102 462/462/102 463/463/102
f 461/461/102 463/463/102 464/464/102
f 465/465/103 466/466/103 467/467/103
f 465/465/103 467/467/103 468/468/103
f 469/469/104 470/470/104 471/471/104
f 469/469/104 471/471/104 472/472/104
f 473/473/105 474/474/105 475/475/105
f 473/473/105 475/475/105 476/476/105
f 477/477/104 478/478/104 479/479/104
f 477/477/104 479/479/104 480/480/104
f 481/481/104 482/482/104 483/483/104
f 481/481/104 483/483/104 484/484/104
f 485/485/104 486/486/104 487/487/104
f 485/485/104 487/487/104 488/488/104
o cuboid.007
v -0.133105 1.072543 0.359375
v -0.133105 1.072543 0.578125
v 0.118032 0.466247 0.578125
v 0.118032 0.466247 0.359375
v -0.228423 0.322740 0.578125
v -0.479559 0.929036 0.578125
v -0.479559 0.929036 0.359375
v -0.228423 0.322740 0.359375
v -0.479559 0.929036 0.578125
v -0.133105 1.072543 0.578125
v -0.133105 1.072543 0.359375
v -0.479559 0.929036 0.359375
v 0.118032 0.466247 0.359375
v 0.118032 0.466247 0.578125
v -0.228423 0.322740 0.578125
v -0.228423 0.322740 0.359375
v 0.118032 0.466247 0.578125
v -0.133105 1.072543 0.578125
v -0.479559 0.929036 0.578125
v -0.228423 0.322740 0.578125
v -0.479559 0.929036 0.359375
v -0.133105 1.072543 0.359375
v 0.118032 0.466247 0.359375
v -0.228423 0.322740 0.359375
v -0.124648 1.092958 0.343750
v -0.124648 1.092958 0.593750
v -0.002583 0.839096 0.609375
v -0.002583 0.839096 0.328125
v -0.406780 0.671672 0.609375
v -0.499974 0.937493 0.593750
v -0.499974 0.937493 0.343750
v -0.406780 0.671672 0.328125
v -0.002583 0.839096 0.609375
v -0.124648 1.092958 0.593750
v -0.499974 0.937493 0.593750
v -0.406780 0.671672 0.609375
v -0.499974 0.937493 0.343750
v -0.124648 1.092958 0.343750
v -0.002583 0.839096 0.328125
v -0.406780 0.671672 0.328125
v 0.066693 0.631018 0.343750
v 0.066693 0.631018 0.593750
v 0.203194 0.383136 0.625000
v 0.203194 0.383136 0.312500
v -0.308633 0.475553 0.593750
v 0.066693 0.631018 0.593750
v 0.066693 0.631018 0.343750
v -0.308633 0.475553 0.343750
v 0.203194 0.383136 0.625000
v 0.066693 0.631018 0.593750
v -0.308633 0.475553 0.593750
v -0.229874 0.203753 0.625000
v -0.308633 0.475553 0.343750
v 0.066693 0.631018 0.343750
v 0.203194 0.383136 0.312500
v -0.229874 0.203753 0.312500
vn 0.9239 0.3827 -0.0000
vn -0.9239 -0.3827 -0.0000
vn -0.3827 0.9239 -0.0000
vn 0.3827 -0.9239 -0.0000
vn -0.0000 -0.0000 1.0000
vn -0.0000 -0.0000 -1.0000
vn 0.9012 0.4333 -0.0000
vn -0.9437 -0.3308 -0.0000
vn -0.0212 0.0512 0.9985
vn -0.0212 0.0512 -0.9985
vn 0.8760 0.4824 -0.0000
vn -0.0423 0.1020 0.9939
vn -0.0423 0.1020 -0.9939
vt 0.539062 0.796875
vt 0.507812 0.796875
vt 0.507812 0.710938
vt 0.539062 0.710938
vt 0.250000 0.406250
vt 0.250000 0.492188
vt 0.218750 0.492188
vt 0.218750 0.406250
vt 0.539062 0.273438
vt 0.585938 0.273438
vt 0.585938 0.304688
vt 0.539062 0.304688
vt 0.742188 0.367188
vt 0.742188 0.398438
vt 0.695312 0.398438
vt 0.695312 0.367188
vt 0.414062 0.515625
vt 0.414062 0.601562
vt 0.367188 0.601562
vt 0.367188 0.515625
vt 0.226562 0.585938
vt 0.179688 0.585938
vt 0.179688 0.500000
vt 0.226562 0.500000
vt 0.746094 0.757812
vt 0.714844 0.757812
vt 0.712891 0.718750
vt 0.748047 0.718750
vt 0.748047 0.671875
vt 0.746094 0.710938
vt 0.714844 0.710938
vt 0.712891 0.671875
vt 0.296875 0.359375
vt 0.294922 0.398438
vt 0.244141 0.398438
vt 0.242188 0.359375
vt 0.232422 0.398438
vt 0.181641 0.398438
vt 0.179688 0.359375
vt 0.234375 0.359375
vt 0.527344 0.312500
vt 0.496094 0.312500
vt 0.492188 0.273438
vt 0.531250 0.273438
vt 0.109375 0.335938
vt 0.109375 0.281250
vt 0.140625 0.281250
vt 0.140625 0.335938
vt 0.638672 0.679688
vt 0.634766 0.718750
vt 0.583984 0.718750
vt 0.580078 0.679688
vt 0.634766 0.671875
vt 0.583984 0.671875
vt 0.580078 0.632812
vt 0.638672 0.632812
s 0
usemtl Material_0
f 489/489/106 490/490/106 491/491/106
f 489/489/106 491/491/106 492/492/106
f 493/493/107 494/494/107 495/495/107
f 493/493/107 495/495/107 496/496/107
f 497/497/108 498/498/108 499/499/108
f 497/497/108 499/499/108 500/500/108
f 501/501/109 502/502/109 503/503/109
f 501/501/109 503/503/109 504/504/109
f 505/505/110 506/506/110 507/507/110
f 505/505/110 507/507/110 508/508/110
f 509/509/111 510/510/111 511/511/111
f 509/509/111 511/511/111 512/512/111
f 513/513/112 514/514/112 515/515/112
f 513/513/112 515/515/112 516/516/112
f 517/517/113 518/518/113 519/519/113
f 517/517/113 519/519/113 520/520/113
f 521/521/114 522/522/114 523/523/114
f 521/521/114 523/523/114 524/524/114
f 525/525/115 526/526/115 527/527/115
f 525/525/115 527/527/115 528/528/115
f 529/529/116 530/530/116 531/531/116
f 529/529/116 531/531/116 532/532/116
f 533/533/108 534/534/108 535/535/108
f 533/533/108 535/535/108 536/536/108
f 537/537/117 538/538/117 539/539/117
f 537/537/117 539/539/117 540/540/117
f 541/541/118 542/542/118 543/543/118
f 541/541/118 543/543/118 544/544/118
o cuboid.008
v -0.573326 0.173136 0.375000
v -0.573326 0.173136 0.562500
v -0.109287 0.637175 0.562500
v -0.109287 0.637175 0.375000
v 0.067489 0.460398 0.562500
v -0.396550 -0.003641 0.562500
v -0.396550 -0.003641 0.375000
v 0.067489 0.460398 0.375000
v -0.396550 -0.003641 0.562500
v -0.573326 0.173136 0.562500
v -0.573326 0.173136 0.375000
v -0.396550 -0.003641 0.375000
v -0.109287 0.637175 0.375000
v -0.109287 0.637175 0.562500
v 0.067489 0.460398 0.562500
v 0.067489 0.460398 0.375000
v -0.109287 0.637175 0.562500
v -0.573326 0.173136 0.562500
v -0.396550 -0.003641 0.562500
v 0.067489 0.460398 0.562500
v -0.396550 -0.003641 0.375000
v -0.573326 0.173136 0.375000
v -0.109287 0.637175 0.375000
v 0.067489 0.460398 0.375000
vn -0.7071 0.7071 -0.0000
vn 0.7071 -0.7071 -0.0000
vn -0.7071 -0.7071 -0.0000
vn 0.7071 0.7071 -0.0000
vn -0.0000 -0.0000 1.0000
vn -0.0000 -0.0000 -1.0000
vt 0.570312 0.398438
vt 0.546875 0.398438
vt 0.546875 0.312500
vt 0.570312 0.312500
vt 0.601562 0.312500
vt 0.601562 0.398438
vt 0.578125 0.398438
vt 0.578125 0.312500
vt 0.773438 0.492188
vt 0.804688 0.492188
vt 0.804688 0.515625
vt 0.773438 0.515625
vt 0.804688 0.460938
vt 0.804688 0.484375
vt 0.773438 0.484375
vt 0.773438 0.460938
vt 0.289062 0.406250
vt 0.289062 0.492188
vt 0.257812 0.492188
vt 0.257812 0.406250
vt 0.328125 0.492188
vt 0.296875 0.492188
vt 0.296875 0.406250
vt 0.328125 0.406250
s 0
usemtl Material_0
f 545/545/119 546/546/119 547/547/119
f 545/545/119 547/547/119 548/548/119
f 549/549/120 550/550/120 551/551/120
f 549/549/120 551/551/120 552/552/120
f 553/553/121 554/554/121 555/555/121
f 553/553/121 555/555/121 556/556/121
f 557/557/122 558/558/122 559/559/122
f 557/557/122 559/559/122 560/560/122
f 561/561/123 562/562/123 563/563/123
f 561/561/123 563/563/123 564/564/123
f 565/565/124 566/566/124 567/567/124
f 565/565/124 567/567/124 568/568/124
o plane.003
v -0.771875 -0.000000 0.359375
v -0.771875 0.171875 0.359375
v -0.959375 0.171875 0.359375
v -0.959375 -0.000000 0.359375
v -0.765625 -0.003125 0.468750
v -0.765625 0.231250 0.468750
v -1.015625 0.231250 0.468750
v -1.015625 -0.003125 0.468750
v -0.771875 -0.000000 0.578125
v -0.771875 0.171875 0.578125
v -0.959375 0.171875 0.578125
v -0.959375 -0.000000 0.578125
v -0.771875 0.168750 0.312500
v -0.771875 0.168750 0.625000
v -0.396875 0.168750 0.625000
v -0.396875 0.168750 0.312500
v -0.396875 -0.003125 0.625000
v -0.771875 -0.003125 0.625000
v -0.771875 -0.003125 0.312500
v -0.396875 -0.003125 0.312500
v -0.771875 -0.003125 0.625000
v -0.771875 0.168750 0.625000
v -0.771875 0.168750 0.312500
v -0.771875 -0.003125 0.312500
v -0.396875 0.168750 0.312500
v -0.396875 0.168750 0.625000
v -0.396875 -0.003125 0.625000
v -0.396875 -0.003125 0.312500
v -0.396875 0.168750 0.625000
v -0.771875 0.168750 0.625000
v -0.771875 -0.003125 0.625000
v -0.396875 -0.003125 0.625000
v -0.771875 -0.003125 0.312500
v -0.771875 0.168750 0.312500
v -0.396875 0.168750 0.312500
v -0.396875 -0.003125 0.312500
vn -0.0000 -0.0000 1.0000
vn -0.0000 1.0000 -0.0000
vn -0.0000 -1.0000 -0.0000
vn -1.0000 -0.0000 -0.0000
vn 1.0000 -0.0000 -0.0000
vn -0.0000 -0.0000 -1.0000
vt 0.750000 0.195312
vt 0.750000 0.218750
vt 0.726562 0.218750
vt 0.726562 0.195312
vt 0.773438 0.328125
vt 0.773438 0.359375
vt 0.742188 0.359375
vt 0.742188 0.328125
vt 0.804688 0.351562
vt 0.804688 0.375000
vt 0.781250 0.375000
vt 0.781250 0.351562
vt 0.445312 0.320312
vt 0.445312 0.359375
vt 0.398438 0.359375
vt 0.398438 0.320312
vt 0.687500 0.398438
vt 0.640625 0.398438
vt 0.640625 0.359375
vt 0.687500 0.359375
vt 0.781250 0.710938
vt 0.757812 0.710938
vt 0.757812 0.671875
vt 0.781250 0.671875
vt 0.781250 0.523438
vt 0.781250 0.562500
vt 0.757812 0.562500
vt 0.757812 0.523438
vt 0.765625 0.515625
vt 0.718750 0.515625
vt 0.718750 0.492188
vt 0.765625 0.492188
vt 0.781250 0.859375
vt 0.781250 0.882812
vt 0.734375 0.882812
vt 0.734375 0.859375
s 0
usemtl Material_0
f 569/569/125 570/570/125 571/571/125
f 569/569/125 571/571/125 572/572/125
f 573/573/125 574/574/125 575/575/125
f 573/573/125 575/575/125 576/576/125
f 577/577/125 578/578/125 579/579/125
f 577/577/125 579/579/125 580/580/125
f 581/581/126 582/582/126 583/583/126
f 581/581/126 583/583/126 584/584/126
f 585/585/127 586/586/127 587/587/127
f 585/585/127 587/587/127 588/588/127
f 589/589/128 590/590/128 591/591/128
f 589/589/128 591/591/128 592/592/128
f 593/593/129 594/594/129 595/595/129
f 593/593/129 595/595/129 596/596/129
f 597/597/125 598/598/125 599/599/125
f 597/597/125 599/599/125 600/600/125
f 601/601/130 602/602/130 603/603/130
f 601/601/130 603/603/130 604/604/130
o cuboid.009
v 0.859737 1.065635 0.328125
v 0.859737 1.065635 0.546875
v 0.596642 0.430468 0.546875
v 0.596642 0.430468 0.328125
v 0.250187 0.573974 0.546875
v 0.513282 1.209142 0.546875
v 0.513282 1.209142 0.328125
v 0.250187 0.573974 0.328125
v 0.513282 1.209142 0.546875
v 0.859737 1.065635 0.546875
v 0.859737 1.065635 0.328125
v 0.513282 1.209142 0.328125
v 0.596642 0.430468 0.328125
v 0.596642 0.430468 0.546875
v 0.250187 0.573974 0.546875
v 0.250187 0.573974 0.328125
v 0.596642 0.430468 0.546875
v 0.859737 1.065635 0.546875
v 0.513282 1.209142 0.546875
v 0.250187 0.573974 0.546875
v 0.513282 1.209142 0.328125
v 0.859737 1.065635 0.328125
v 0.596642 0.430468 0.328125
v 0.250187 0.573974 0.328125
v 0.223792 0.551083 0.562500
v 0.333899 0.776073 0.546875
v 0.333899 0.776073 0.328125
v 0.223792 0.551083 0.312500
v 0.599118 0.395618 0.562500
v 0.680354 0.632567 0.546875
v 0.333899 0.776073 0.546875
v 0.223792 0.551083 0.562500
vn 0.9239 -0.3827 -0.0000
vn -0.9239 0.3827 -0.0000
vn 0.3827 0.9239 -0.0000
vn -0.3827 -0.9239 -0.0000
vn -0.0000 -0.0000 1.0000
vn -0.0000 -0.0000 -1.0000
vn -0.8982 0.4396 -0.0000
vn 0.0239 0.0576 0.9981
vt 0.554688 0.500000
vt 0.523438 0.500000
vt 0.523438 0.414062
vt 0.554688 0.414062
vt 0.031250 0.375000
vt 0.031250 0.460938
vt 0.000000 0.460938
vt 0.000000 0.375000
vt 0.000000 0.265625
vt 0.046875 0.265625
vt 0.046875 0.296875
vt 0.000000 0.296875
vt 0.195312 0.265625
vt 0.195312 0.296875
vt 0.148438 0.296875
vt 0.148438 0.265625
vt 0.281250 0.500000
vt 0.281250 0.585938
vt 0.234375 0.585938
vt 0.234375 0.500000
vt 0.468750 1.000000
vt 0.421875 1.000000
vt 0.421875 0.914062
vt 0.468750 0.914062
vt 0.757812 0.226562
vt 0.755859 0.257812
vt 0.728516 0.257812
vt 0.726562 0.226562
vt 0.701172 0.632812
vt 0.699219 0.664062
vt 0.652344 0.664062
vt 0.650391 0.632812
s 0
usemtl Material_0
f 605/605/131 606/606/131 607/607/131
f 605/605/131 607/607/131 608/608/131
f 609/609/132 610/610/132 611/611/132
f 609/609/132 611/611/132 612/612/132
f 613/613/133 614/614/133 615/615/133
f 613/613/133 615/615/133 616/616/133
f 617/617/134 618/618/134 619/619/134
f 617/617/134 619/619/134 620/620/134
f 621/621/135 622/622/135 623/623/135
f 621/621/135 623/623/135 624/624/135
f 625/625/136 626/626/136 627/627/136
f 625/625/136 627/627/136 628/628/136
f 629/629/137 630/630/137 631/631/137
f 629/629/137 631/631/137 632/632/137
f 633/633/138 634/634/138 635/635/138
f 633/633/138 635/635/138 636/636/138
o cuboid.010
v 0.421875 0.168750 0.281250
v 0.421875 0.168750 0.593750
v 0.796875 0.168750 0.593750
v 0.796875 0.168750 0.281250
v 0.796875 -0.003125 0.593750
v 0.421875 -0.003125 0.593750
v 0.421875 -0.003125 0.281250
v 0.796875 -0.003125 0.281250
v 0.421875 -0.003125 0.593750
v 0.421875 0.168750 0.593750
v 0.421875 0.168750 0.281250
v 0.421875 -0.003125 0.281250
v 0.796875 0.168750 0.281250
v 0.796875 0.168750 0.593750
v 0.796875 -0.003125 0.593750
v 0.796875 -0.003125 0.281250
v 0.796875 0.168750 0.593750
v 0.421875 0.168750 0.593750
v 0.421875 -0.003125 0.593750
v 0.796875 -0.003125 0.593750
v 0.421875 -0.003125 0.281250
v 0.421875 0.168750 0.281250
v 0.796875 0.168750 0.281250
v 0.796875 -0.003125 0.281250
v 0.415625 -0.000000 0.578125
v 0.415625 0.171875 0.578125
v 0.228125 0.171875 0.578125
v 0.228125 -0.000000 0.578125
v 0.421875 -0.003125 0.468750
v 0.421875 0.231250 0.468750
v 0.171875 0.231250 0.468750
v 0.171875 -0.003125 0.468750
v 0.415625 -0.000000 0.359375
v 0.415625 0.171875 0.359375
v 0.228125 0.171875 0.359375
v 0.228125 -0.000000 0.359375
vn -0.0000 1.0000 -0.0000
vn -0.0000 -1.0000 -0.0000
vn -1.0000 -0.0000 -0.0000
vn 1.0000 -0.0000 -0.0000
vn -0.0000 -0.0000 1.0000
vn -0.0000 -0.0000 -1.0000
vt 0.039062 0.351562
vt 0.000000 0.351562
vt 0.000000 0.304688
vt 0.039062 0.304688
vt 0.218750 0.304688
vt 0.218750 0.351562
vt 0.179688 0.351562
vt 0.179688 0.304688
vt 0.625000 0.203125
vt 0.648438 0.203125
vt 0.648438 0.242188
vt 0.625000 0.242188
vt 0.781250 0.281250
vt 0.781250 0.320312
vt 0.757812 0.320312
vt 0.757812 0.281250
vt 0.398438 0.218750
vt 0.398438 0.265625
vt 0.375000 0.265625
vt 0.375000 0.218750
vt 0.429688 0.265625
vt 0.406250 0.265625
vt 0.406250 0.218750
vt 0.429688 0.218750
vt 0.000000 0.187500
vt 0.023438 0.187500
vt 0.023438 0.210938
vt 0.000000 0.210938
vt 0.750000 0.890625
vt 0.781250 0.890625
vt 0.781250 0.921875
vt 0.750000 0.921875
vt 0.789062 0.937500
vt 0.812500 0.937500
vt 0.812500 0.960938
vt 0.789062 0.960938
s 0
usemtl Material_0
f 637/637/139 638/638/139 639/639/139
f 637/637/139 639/639/139 640/640/139
f 641/641/140 642/642/140 643/643/140
f 641/641/140 643/643/140 644/644/140
f 645/645/141 646/646/141 647/647/141
f 645/645/141 647/647/141 648/648/141
f 649/649/142 650/650/142 651/651/142
f 649/649/142 651/651/142 652/652/142
f 653/653/143 654/654/143 655/655/143
f 653/653/143 655/655/143 656/656/143
f 657/657/144 658/658/144 659/659/144
f 657/657/144 659/659/144 660/660/144
f 661/661/143 662/662/143 663/663/143
f 661/661/143 663/663/143 664/664/143
f 665/665/143 666/666/143 667/667/143
f 665/665/143 667/667/143 668/668/143
f 669/669/143 670/670/143 671/671/143
f 669/669/143 671/671/143 672/672/143
o cuboid.011
v 0.568972 0.054500 0.343750
v 0.568972 0.054500 0.531250
v 0.317836 0.660796 0.531250
v 0.317836 0.660796 0.343750
v 0.548806 0.756467 0.531250
v 0.799942 0.150171 0.531250
v 0.799942 0.150171 0.343750
v 0.548806 0.756467 0.343750
v 0.799942 0.150171 0.531250
v 0.568972 0.054500 0.531250
v 0.568972 0.054500 0.343750
v 0.799942 0.150171 0.343750
v 0.317836 0.660796 0.343750
v 0.317836 0.660796 0.531250
v 0.548806 0.756467 0.531250
v 0.548806 0.756467 0.343750
v 0.317836 0.660796 0.531250
v 0.568972 0.054500 0.531250
v 0.799942 0.150171 0.531250
v 0.548806 0.756467 0.531250
v 0.799942 0.150171 0.343750
v 0.568972 0.054500 0.343750
v 0.317836 0.660796 0.343750
v 0.548806 0.756467 0.343750
vn -0.9239 -0.3827 -0.0000
vn 0.9239 0.3827 -0.0000
vn 0.3827 -0.9239 -0.0000
vn -0.3827 0.9239 -0.0000
vn -0.0000 -0.0000 1.0000
vn -0.0000 -0.0000 -1.0000
vt 0.632812 0.398438
vt 0.609375 0.398438
vt 0.609375 0.312500
vt 0.632812 0.312500
vt 0.359375 0.296875
vt 0.359375 0.382812
vt 0.335938 0.382812
vt 0.335938 0.296875
vt 0.539062 0.203125
vt 0.570312 0.203125
vt 0.570312 0.226562
vt 0.539062 0.226562
vt 0.687500 0.203125
vt 0.687500 0.226562
vt 0.656250 0.226562
vt 0.656250 0.203125
vt 0.570312 0.617188
vt 0.570312 0.703125
vt 0.539062 0.703125
vt 0.539062 0.617188
vt 0.570312 0.609375
vt 0.539062 0.609375
vt 0.539062 0.523438
vt 0.570312 0.523438
s 0
usemtl Material_0
f 673/673/145 674/674/145 675/675/145
f 673/673/145 675/675/145 676/676/145
f 677/677/146 678/678/146 679/679/146
f 677/677/146 679/679/146 680/680/146
f 681/681/147 682/682/147 683/683/147
f 681/681/147 683/683/147 684/684/147
f 685/685/148 686/686/148 687/687/148
f 685/685/148 687/687/148 688/688/148
f 689/689/149 690/690/149 691/691/149
f 689/689/149 691/691/149 692/692/149
f 693/693/150 694/694/150 695/695/150
f 693/693/150 695/695/150 696/696/150
o cuboid.012
v 0.223792 0.551083 -0.312500
v 0.333899 0.776073 -0.328125
v 0.333899 0.776073 -0.546875
v 0.223792 0.551083 -0.562500
v 0.333899 0.776073 -0.546875
v 0.680354 0.632567 -0.546875
v 0.599118 0.395618 -0.562500
v 0.223792 0.551083 -0.562500
v 0.839322 1.057179 -0.546875
v 0.839322 1.057179 -0.328125
v 0.588186 0.450883 -0.328125
v 0.588186 0.450883 -0.546875
v 0.270602 0.582431 -0.328125
v 0.521738 1.188727 -0.328125
v 0.521738 1.188727 -0.546875
v 0.270602 0.582431 -0.546875
v 0.521738 1.188727 -0.328125
v 0.839322 1.057179 -0.328125
v 0.839322 1.057179 -0.546875
v 0.521738 1.188727 -0.546875
v 0.588186 0.450883 -0.546875
v 0.588186 0.450883 -0.328125
v 0.270602 0.582431 -0.328125
v 0.270602 0.582431 -0.546875
v 0.588186 0.450883 -0.328125
v 0.839322 1.057179 -0.328125
v 0.521738 1.188727 -0.328125
v 0.270602 0.582431 -0.328125
v 0.521738 1.188727 -0.546875
v 0.839322 1.057179 -0.546875
v 0.588186 0.450883 -0.546875
v 0.270602 0.582431 -0.546875
vn -0.8982 0.4396 -0.0000
vn 0.0239 0.0576 -0.9981
vn 0.9239 -0.3827 -0.0000
vn -0.9239 0.3827 -0.0000
vn 0.3827 0.9239 -0.0000
vn -0.3827 -0.9239 -0.0000
vn -0.0000 -0.0000 1.0000
vn -0.0000 -0.0000 -1.0000
vt 0.351562 0.218750
vt 0.349609 0.250000
vt 0.322266 0.250000
vt 0.320312 0.218750
vt 0.738281 0.921875
vt 0.691406 0.921875
vt 0.689453 0.890625
vt 0.740234 0.890625
vt 0.578125 1.000000
vt 0.546875 1.000000
vt 0.546875 0.914062
vt 0.578125 0.914062
vt 0.578125 0.820312
vt 0.578125 0.906250
vt 0.546875 0.906250
vt 0.546875 0.820312
vt 0.703125 0.804688
vt 0.750000 0.804688
vt 0.750000 0.835938
vt 0.703125 0.835938
vt 0.250000 0.265625
vt 0.250000 0.296875
vt 0.203125 0.296875
vt 0.203125 0.265625
vt 0.468750 0.515625
vt 0.468750 0.601562
vt 0.421875 0.601562
vt 0.421875 0.515625
vt 0.476562 0.835938
vt 0.429688 0.835938
vt 0.429688 0.750000
vt 0.476562 0.750000
s 0
usemtl Material_0
f 697/697/151 698/698/151 699/699/151
f 697/697/151 699/699/151 700/700/151
f 701/701/152 702/702/152 703/703/152
f 701/701/152 703/703/152 704/704/152
f 705/705/153 706/706/153 707/707/153
f 705/705/153 707/707/153 708/708/153
f 709/709/154 710/710/154 711/711/154
f 709/709/154 711/711/154 712/712/154
f 713/713/155 714/714/155 715/715/155
f 713/713/155 715/715/155 716/716/155
f 717/717/156 718/718/156 719/719/156
f 717/717/156 719/719/156 720/720/156
f 721/721/157 722/722/157 723/723/157
f 721/721/157 723/723/157 724/724/157
f 725/725/158 726/726/158 727/727/158
f 725/725/158 727/727/158 728/728/158
o cuboid.013
v 0.421875 0.168750 -0.593750
v 0.421875 0.168750 -0.281250
v 0.796875 0.168750 -0.281250
v 0.796875 0.168750 -0.593750
v 0.796875 -0.003125 -0.281250
v 0.421875 -0.003125 -0.281250
v 0.421875 -0.003125 -0.593750
v 0.796875 -0.003125 -0.593750
v 0.421875 -0.003125 -0.281250
v 0.421875 0.168750 -0.281250
v 0.421875 0.168750 -0.593750
v 0.421875 -0.003125 -0.593750
v 0.796875 0.168750 -0.593750
v 0.796875 0.168750 -0.281250
v 0.796875 -0.003125 -0.281250
v 0.796875 -0.003125 -0.593750
v 0.796875 0.168750 -0.281250
v 0.421875 0.168750 -0.281250
v 0.421875 -0.003125 -0.281250
v 0.796875 -0.003125 -0.281250
v 0.421875 -0.003125 -0.593750
v 0.421875 0.168750 -0.593750
v 0.796875 0.168750 -0.593750
v 0.796875 -0.003125 -0.593750
v 0.415625 -0.000000 -0.578125
v 0.415625 0.171875 -0.578125
v 0.228125 0.171875 -0.578125
v 0.228125 -0.000000 -0.578125
v 0.421875 -0.003125 -0.468750
v 0.421875 0.231250 -0.468750
v 0.171875 0.231250 -0.468750
v 0.171875 -0.003125 -0.468750
v 0.415625 -0.000000 -0.359375
v 0.415625 0.171875 -0.359375
v 0.228125 0.171875 -0.359375
v 0.228125 -0.000000 -0.359375
vn -0.0000 1.0000 -0.0000
vn -0.0000 -1.0000 -0.0000
vn -1.0000 -0.0000 -0.0000
vn 1.0000 -0.0000 -0.0000
vn -0.0000 -0.0000 1.0000
vn -0.0000 -0.0000 -1.0000
vt 0.687500 0.796875
vt 0.648438 0.796875
vt 0.648438 0.750000
vt 0.687500 0.750000
vt 0.265625 0.304688
vt 0.265625 0.351562
vt 0.226562 0.351562
vt 0.226562 0.304688
vt 0.765625 0.234375
vt 0.789062 0.234375
vt 0.789062 0.273438
vt 0.765625 0.273438
vt 0.796875 0.625000
vt 0.796875 0.664062
vt 0.773438 0.664062
vt 0.773438 0.625000
vt 0.500000 0.218750
vt 0.500000 0.265625
vt 0.476562 0.265625
vt 0.476562 0.218750
vt 0.531250 0.265625
vt 0.507812 0.265625
vt 0.507812 0.218750
vt 0.531250 0.218750
vt 0.789062 0.906250
vt 0.812500 0.906250
vt 0.812500 0.929688
vt 0.789062 0.929688
vt 0.750000 0.421875
vt 0.781250 0.421875
vt 0.781250 0.453125
vt 0.750000 0.453125
vt 0.789062 0.875000
vt 0.812500 0.875000
vt 0.812500 0.898438
vt 0.789062 0.898438
s 0
usemtl Material_0
f 729/729/159 730/730/159 731/731/159
f 729/729/159 731/731/159 732/732/159
f 733/733/160 734/734/160 735/735/160
f 733/733/160 735/735/160 736/736/160
f 737/737/161 738/738/161 739/739/161
f 737/737/161 739/739/161 740/740/161
f 741/741/162 742/742/162 743/743/162
f 741/741/162 743/743/162 744/744/162
f 745/745/163 746/746/163 747/747/163
f 745/745/163 747/747/163 748/748/163
f 749/749/164 750/750/164 751/751/164
f 749/749/164 751/751/164 752/752/164
f 753/753/163 754/754/163 755/755/163
f 753/753/163 755/755/163 756/756/163
f 757/757/163 758/758/163 759/759/163
f 757/757/163 759/759/163 760/760/163
f 761/761/163 762/762/163 763/763/163
f 761/761/163 763/763/163 764/764/163
o cuboid.014
v 0.568972 0.054500 -0.531250
v 0.568972 0.054500 -0.343750
v 0.317836 0.660796 -0.343750
v 0.317836 0.660796 -0.531250
v 0.548806 0.756467 -0.343750
v 0.799942 0.150171 -0.343750
v 0.799942 0.150171 -0.531250
v 0.548806 0.756467 -0.531250
v 0.799942 0.150171 -0.343750
v 0.568972 0.054500 -0.343750
v 0.568972 0.054500 -0.531250
v 0.799942 0.150171 -0.531250
v 0.317836 0.660796 -0.531250
v 0.317836 0.660796 -0.343750
v 0.548806 0.756467 -0.343750
v 0.548806 0.756467 -0.531250
v 0.317836 0.660796 -0.343750
v 0.568972 0.054500 -0.343750
v 0.799942 0.150171 -0.343750
v 0.548806 0.756467 -0.343750
v 0.799942 0.150171 -0.531250
v 0.568972 0.054500 -0.531250
v 0.317836 0.660796 -0.531250
v 0.548806 0.756467 -0.531250
vn -0.9239 -0.3827 -0.0000
vn 0.9239 0.3827 -0.0000
vn 0.3827 -0.9239 -0.0000
vn -0.3827 0.9239 -0.0000
vn -0.0000 -0.0000 1.0000
vn -0.0000 -0.0000 -1.0000
vt 0.390625 0.382812
vt 0.367188 0.382812
vt 0.367188 0.296875
vt 0.390625 0.296875
vt 0.101562 0.289062
vt 0.101562 0.375000
vt 0.078125 0.375000
vt 0.078125 0.289062
vt 0.765625 0.203125
vt 0.796875 0.203125
vt 0.796875 0.226562
vt 0.765625 0.226562
vt 0.109375 0.195312
vt 0.109375 0.218750
vt 0.078125 0.218750
vt 0.078125 0.195312
vt 0.578125 0.726562
vt 0.578125 0.812500
vt 0.546875 0.812500
vt 0.546875 0.726562
vt 0.070312 0.445312
vt 0.039062 0.445312
vt 0.039062 0.359375
vt 0.070312 0.359375
s 0
usemtl Material_0
f 765/765/165 766/766/165 767/767/165
f 765/765/165 767/767/165 768/768/165
f 769/769/166 770/770/166 771/771/166
f 769/769/166 771/771/166 772/772/166
f 773/773/167 774/774/167 775/775/167
f 773/773/167 775/775/167 776/776/167
f 777/777/168 778/778/168 779/779/168
f 777/777/168 779/779/168 780/780/168
f 781/781/169 782/782/169 783/783/169
f 781/781/169 783/783/169 784/784/169
f 785/785/170 786/786/170 787/787/170
f 785/785/170 787/787/170 788/788/170
o 1.001
v 1.321875 0.965625 -0.093750
v 1.321875 0.965625 0.093750
v 1.321875 0.778125 0.093750
v 1.321875 0.778125 -0.093750
v 0.821875 0.778125 0.093750
v 0.821875 0.965625 0.093750
v 0.821875 0.965625 -0.093750
v 0.821875 0.778125 -0.093750
v 0.821875 0.965625 0.093750
v 1.321875 0.965625 0.093750
v 1.321875 0.965625 -0.093750
v 0.821875 0.965625 -0.093750
v 1.321875 0.778125 -0.093750
v 1.321875 0.778125 0.093750
v 0.821875 0.778125 0.093750
v 0.821875 0.778125 -0.093750
v 1.321875 0.778125 0.093750
v 1.321875 0.965625 0.093750
v 0.821875 0.965625 0.093750
v 0.821875 0.778125 0.093750
v 0.821875 0.965625 -0.093750
v 1.321875 0.965625 -0.093750
v 1.321875 0.778125 -0.093750
v 0.821875 0.778125 -0.093750
v 0.946875 0.981250 0.109375
v 1.134375 0.996875 0.125000
v 1.134375 0.996875 -0.125000
v 0.946875 0.981250 -0.109375
v 1.134375 0.746875 -0.125000
v 1.134375 0.746875 0.125000
v 0.946875 0.762500 0.109375
v 0.946875 0.762500 -0.109375
v 1.134375 0.746875 0.125000
v 1.134375 0.996875 0.125000
v 0.946875 0.981250 0.109375
v 0.946875 0.762500 0.109375
v 0.946875 0.981250 -0.109375
v 1.134375 0.996875 -0.125000
v 1.134375 0.746875 -0.125000
v 0.946875 0.762500 -0.109375
vn 1.0000 -0.0000 -0.0000
vn -1.0000 -0.0000 -0.0000
vn -0.0000 1.0000 -0.0000
vn -0.0000 -1.0000 -0.0000
vn -0.0000 -0.0000 1.0000
vn -0.0000 -0.0000 -1.0000
vn -0.0830 0.9965 -0.0000
vn -0.0830 -0.9965 -0.0000
vn -0.0830 -0.0000 0.9965
vn -0.0830 -0.0000 -0.9965
vt 0.140625 0.210938
vt 0.117188 0.210938
vt 0.117188 0.187500
vt 0.140625 0.187500
vt 0.812500 0.789062
vt 0.812500 0.812500
vt 0.789062 0.812500
vt 0.789062 0.789062
vt 0.476562 0.914062
vt 0.539062 0.914062
vt 0.539062 0.937500
vt 0.476562 0.937500
vt 0.765625 0.601562
vt 0.765625 0.625000
vt 0.703125 0.625000
vt 0.703125 0.601562
vt 0.765625 0.570312
vt 0.765625 0.593750
vt 0.703125 0.593750
vt 0.703125 0.570312
vt 0.765625 0.484375
vt 0.703125 0.484375
vt 0.703125 0.460938
vt 0.765625 0.460938
vt 0.201172 0.195312
vt 0.203125 0.218750
vt 0.171875 0.218750
vt 0.173828 0.195312
vt 0.210938 0.195312
vt 0.242188 0.195312
vt 0.240234 0.218750
vt 0.212891 0.218750
vt 0.171875 0.304688
vt 0.171875 0.335938
vt 0.148438 0.333984
vt 0.148438 0.306641
vt 0.718750 0.224609
vt 0.695312 0.226562
vt 0.695312 0.195312
vt 0.718750 0.197266
s 0
usemtl Material_0
f 789/789/171 790/790/171 791/791/171
f 789/789/171 791/791/171 792/792/171
f 793/793/172 794/794/172 795/795/172
f 793/793/172 795/795/172 796/796/172
f 797/797/173 798/798/173 799/799/173
f 797/797/173 799/799/173 800/800/173
f 801/801/174 802/802/174 803/803/174
f 801/801/174 803/803/174 804/804/174
f 805/805/175 806/806/175 807/807/175
f 805/805/175 807/807/175 808/808/175
f 809/809/176 810/810/176 811/811/176
f 809/809/176 811/811/176 812/812/176
f 813/813/177 814/814/177 815/815/177
f 813/813/177 815/815/177 816/816/177
f 817/817/178 818/818/178 819/819/178
f 817/817/178 819/819/178 820/820/178
f 821/821/179 822/822/179 823/823/179
f 821/821/179 823/823/179 824/824/179
f 825/825/180 826/826/180 827/827/180
f 825/825/180 827/827/180 828/828/180
o 2.001
v 1.509375 0.981250 -0.109375
v 1.509375 0.981250 0.109375
v 1.509375 0.762500 0.109375
v 1.509375 0.762500 -0.109375
v 1.009375 0.762500 0.109375
v 1.009375 0.981250 0.109375
v 1.009375 0.981250 -0.109375
v 1.009375 0.762500 -0.109375
v 1.009375 0.981250 0.109375
v 1.509375 0.981250 0.109375
v 1.509375 0.981250 -0.109375
v 1.009375 0.981250 -0.109375
v 1.509375 0.762500 -0.109375
v 1.509375 0.762500 0.109375
v 1.009375 0.762500 0.109375
v 1.009375 0.762500 -0.109375
v 1.509375 0.762500 0.109375
v 1.509375 0.981250 0.109375
v 1.009375 0.981250 0.109375
v 1.009375 0.762500 0.109375
v 1.009375 0.981250 -0.109375
v 1.509375 0.981250 -0.109375
v 1.509375 0.762500 -0.109375
v 1.009375 0.762500 -0.109375
v 1.290625 0.994922 0.123047
v 1.509375 1.012500 0.140625
v 1.509375 1.012500 -0.140625
v 1.290625 0.994922 -0.123047
v 1.509375 0.731250 -0.140625
v 1.509375 0.731250 0.140625
v 1.290625 0.748828 0.123047
v 1.290625 0.748828 -0.123047
v 1.509375 0.731250 0.140625
v 1.509375 1.012500 0.140625
v 1.290625 0.994922 0.123047
v 1.290625 0.748828 0.123047
v 1.290625 0.994922 -0.123047
v 1.509375 1.012500 -0.140625
v 1.509375 0.731250 -0.140625
v 1.290625 0.748828 -0.123047
vn 1.0000 -0.0000 -0.0000
vn -1.0000 -0.0000 -0.0000
vn -0.0000 1.0000 -0.0000
vn -0.0000 -1.0000 -0.0000
vn -0.0000 -0.0000 1.0000
vn -0.0000 -0.0000 -1.0000
vn -0.0801 0.9968 -0.0000
vn -0.0801 -0.9968 -0.0000
vn -0.0801 -0.0000 0.9968
vn -0.0801 -0.0000 -0.9968
vt 0.781250 0.414062
vt 0.750000 0.414062
vt 0.750000 0.382812
vt 0.781250 0.382812
vt 0.789062 0.968750
vt 0.789062 1.000000
vt 0.757812 1.000000
vt 0.757812 0.968750
vt 0.609375 0.484375
vt 0.671875 0.484375
vt 0.671875 0.515625
vt 0.609375 0.515625
vt 0.171875 0.343750
vt 0.171875 0.375000
vt 0.109375 0.375000
vt 0.109375 0.343750
vt 0.695312 0.804688
vt 0.695312 0.835938
vt 0.632812 0.835938
vt 0.632812 0.804688
vt 0.695312 0.625000
vt 0.632812 0.625000
vt 0.632812 0.593750
vt 0.695312 0.593750
vt 0.573975 0.234375
vt 0.576172 0.265625
vt 0.541016 0.265625
vt 0.543213 0.234375
vt 0.681641 0.234375
vt 0.716797 0.234375
vt 0.714600 0.265625
vt 0.683838 0.265625
vt 0.031250 0.222656
vt 0.031250 0.257812
vt 0.000000 0.255615
vt 0.000000 0.224853
vt 0.164062 0.255615
vt 0.132812 0.257812
vt 0.132812 0.222656
vt 0.164062 0.224853
s 0
usemtl Material_0
f 829/829/181 830/830/181 831/831/181
f 829/829/181 831/831/181 832/832/181
f 833/833/182 834/834/182 835/835/182
f 833/833/182 835/835/182 836/836/182
f 837/837/183 838/838/183 839/839/183
f 837/837/183 839/839/183 840/840/183
f 841/841/184 842/842/184 843/843/184
f 841/841/184 843/843/184 844/844/184
f 845/845/185 846/846/185 847/847/185
f 845/845/185 847/847/185 848/848/185
f 849/849/186 850/850/186 851/851/186
f 849/849/186 851/851/186 852/852/186
f 853/853/187 854/854/187 855/855/187
f 853/853/187 855/855/187 856/856/187
f 857/857/188 858/858/188 859/859/188
f 857/857/188 859/859/188 860/860/188
f 861/861/189 862/862/189 863/863/189
f 861/861/189 863/863/189 864/864/189
f 865/865/190 866/866/190 867/867/190
f 865/865/190 867/867/190 868/868/190
o 3.001
v 1.821875 0.996875 -0.125000
v 1.821875 0.996875 0.125000
v 1.821875 0.746875 0.125000
v 1.821875 0.746875 -0.125000
v 1.321875 0.746875 0.125000
v 1.321875 0.996875 0.125000
v 1.321875 0.996875 -0.125000
v 1.321875 0.746875 -0.125000
v 1.321875 0.996875 0.125000
v 1.821875 0.996875 0.125000
v 1.821875 0.996875 -0.125000
v 1.321875 0.996875 -0.125000
v 1.821875 0.746875 -0.125000
v 1.821875 0.746875 0.125000
v 1.321875 0.746875 0.125000
v 1.321875 0.746875 -0.125000
v 1.821875 0.746875 0.125000
v 1.821875 0.996875 0.125000
v 1.321875 0.996875 0.125000
v 1.321875 0.746875 0.125000
v 1.321875 0.996875 -0.125000
v 1.821875 0.996875 -0.125000
v 1.821875 0.746875 -0.125000
v 1.321875 0.746875 -0.125000
v 1.712500 1.008594 0.136719
v 1.962500 1.028125 0.156250
v 1.962500 1.028125 -0.156250
v 1.712500 1.008594 -0.136719
v 1.962500 0.715625 -0.156250
v 1.962500 0.715625 0.156250
v 1.712500 0.735156 0.136719
v 1.712500 0.735156 -0.136719
v 1.962500 0.715625 0.156250
v 1.962500 1.028125 0.156250
v 1.712500 1.008594 0.136719
v 1.712500 0.735156 0.136719
v 1.712500 1.008594 -0.136719
v 1.962500 1.028125 -0.156250
v 1.962500 0.715625 -0.156250
v 1.712500 0.735156 -0.136719
vn 1.0000 -0.0000 -0.0000
vn -1.0000 -0.0000 -0.0000
vn -0.0000 1.0000 -0.0000
vn -0.0000 -1.0000 -0.0000
vn -0.0000 -0.0000 1.0000
vn -0.0000 -0.0000 -1.0000
vn -0.0779 0.9970 -0.0000
vn -0.0779 -0.9970 -0.0000
vn -0.0779 -0.0000 0.9970
vn -0.0779 -0.0000 -0.9970
vt 0.070312 0.242188
vt 0.039062 0.242188
vt 0.039062 0.210938
vt 0.070312 0.210938
vt 0.789062 0.820312
vt 0.789062 0.851562
vt 0.757812 0.851562
vt 0.757812 0.820312
vt 0.632812 0.554688
vt 0.695312 0.554688
vt 0.695312 0.585938
vt 0.632812 0.585938
vt 0.695312 0.445312
vt 0.695312 0.476562
vt 0.632812 0.476562
vt 0.632812 0.445312
vt 0.695312 0.406250
vt 0.695312 0.437500
vt 0.632812 0.437500
vt 0.632812 0.406250
vt 0.703125 1.000000
vt 0.640625 1.000000
vt 0.640625 0.968750
vt 0.703125 0.968750
vt 0.747559 0.632812
vt 0.750000 0.664062
vt 0.710938 0.664062
vt 0.713379 0.632812
vt 0.054688 0.250000
vt 0.093750 0.250000
vt 0.091309 0.281250
vt 0.057129 0.281250
vt 0.671875 0.250000
vt 0.671875 0.289062
vt 0.640625 0.286621
vt 0.640625 0.252441
vt 0.750000 0.560059
vt 0.718750 0.562500
vt 0.718750 0.523438
vt 0.750000 0.525879
s 0
usemtl Material_0
f 869/869/191 870/870/191 871/871/191
f 869/869/191 871/871/191 872/872/191
f 873/873/192 874/874/192 875/875/192
f 873/873/192 875/875/192 876/876/192
f 877/877/193 878/878/193 879/879/193
f 877/877/193 879/879/193 880/880/193
f 881/881/194 882/882/194 883/883/194
f 881/881/194 883/883/194 884/884/194
f 885/885/195 886/886/195 887/887/195
f 885/885/195 887/887/195 888/888/195
f 889/889/196 890/890/196 891/891/196
f 889/889/196 891/891/196 892/892/196
f 893/893/197 894/894/197 895/895/197
f 893/893/197 895/895/197 896/896/197
f 897/897/198 898/898/198 899/899/198
f 897/897/198 899/899/198 900/900/198
f 901/901/199 902/902/199 903/903/199
f 901/901/199 903/903/199 904/904/199
f 905/905/200 906/906/200 907/907/200
f 905/905/200 907/907/200 908/908/200
