{"accessors":[{"bufferView":0,"componentType":5126,"count":24,"max":[0.43749502301216125,0.7777290344238281,0.059893399477005005],"min":[-0.43750500679016113,-0.5347710251808167,0.028643399477005005],"type":"VEC3"},{"bufferView":1,"componentType":5125,"count":34,"type":"SCALAR"},{"bufferView":2,"componentType":5126,"count":24,"type":"VEC3"},{"bufferView":3,"componentType":5126,"count":24,"type":"VEC4"},{"bufferView":4,"componentType":5126,"count":24,"type":"VEC2"},{"bufferView":5,"componentType":5126,"count":24,"max":[0.49999502301216125,-0.5347710251808167,0.02864340133965015],"min":[-0.5000050067901611,-0.5972710251808167,-0.033856600522994995],"type":"VEC3"},{"bufferView":6,"componentType":5125,"count":34,"type":"SCALAR"},{"bufferView":7,"componentType":5126,"count":24,"type":"VEC3"},{"bufferView":8,"componentType":5126,"count":24,"type":"VEC4"},{"bufferView":9,"componentType":5126,"count":24,"type":"VEC2"},{"bufferView":10,"componentType":5126,"count":24,"max":[0.49999502301216125,0.8402289748191833,0.02864340133965015],"min":[-0.5000050067901611,0.7777289748191833,-0.033856600522994995],"type":"VEC3"},{"bufferView":11,"componentType":5125,"count":34,"type":"SCALAR"},{"bufferView":12,"componentType":5126,"count":24,"type":"VEC3"},{"bufferView":13,"componentType":5126,"count":24,"type":"VEC4"},{"bufferView":14,"componentType":5126,"count":24,"type":"VEC2"},{"bufferView":15,"componentType":5126,"count":24,"max":[0.49999499320983887,0.7777290344238281,0.02864340133965015],"min":[0.43749499320983887,-0.5347710251808167,-0.033856600522994995],"type":"VEC3"},{"bufferView":16,"componentType":5125,"count":34,"type":"SCALAR"},{"bufferView":17,"componentType":5126,"count":24,"type":"VEC3"},{"bufferView":18,"componentType":5126,"count":24,"type":"VEC4"},{"bufferView":19,"componentType":5126,"count":24,"type":"VEC2"},{"bufferView":20,"componentType":5126,"count":24,"max":[-0.43750500679016113,0.7777290344238281,0.02864340133965015],"min":[-0.5000050067901611,-0.5347710251808167,-0.033856600522994995],"type":"VEC3"},{"bufferView":21,"componentType":5125,"count":34,"type":"SCALAR"},{"bufferView":22,"componentType":5126,"count":24,"type":"VEC3"},{"bufferView":23,"componentType":5126,"count":24,"type":"VEC4"},{"bufferView":24,"componentType":5126,"count":24,"type":"VEC2"},{"bufferView":25,"componentType":5126,"count":24,"max":[0.17187462747097015,-0.5394539833068848,-0.002604197943583131],"min":[-0.171875,-0.6753910183906555,-0.06510420143604279],"type":"VEC3"},{"bufferView":26,"componentType":5125,"count":34,"type":"SCALAR"},{"bufferView":27,"componentType":5126,"count":24,"type":"VEC3"},{"bufferView":28,"componentType":5126,"count":24,"type":"VEC4"},{"bufferView":29,"componentType":5126,"count":24,"type":"VEC2"}],"asset":{"version":"2.0"},"bufferViews":[{"buffer":0,"byteLength":288,"target":34962},{"buffer":1,"byteLength":136,"target":34963},{"buffer":2,"byteLength":288,"target":34962},{"buffer":3,"byteLength":384,"target":34962},{"buffer":4,"byteLength":192,"target":34962},{"buffer":5,"byteLength":288,"target":34962},{"buffer":6,"byteLength":136,"target":34963},{"buffer":7,"byteLength":288,"target":34962},{"buffer":8,"byteLength":384,"target":34962},{"buffer":9,"byteLength":192,"target":34962},{"buffer":10,"byteLength":288,"target":34962},{"buffer":11,"byteLength":136,"target":34963},{"buffer":12,"byteLength":288,"target":34962},{"buffer":13,"byteLength":384,"target":34962},{"buffer":14,"byteLength":192,"target":34962},{"buffer":15,"byteLength":288,"target":34962},{"buffer":16,"byteLength":136,"target":34963},{"buffer":17,"byteLength":288,"target":34962},{"buffer":18,"byteLength":384,"target":34962},{"buffer":19,"byteLength":192,"target":34962},{"buffer":20,"byteLength":288,"target":34962},{"buffer":21,"byteLength":136,"target":34963},{"buffer":22,"byteLength":288,"target":34962},{"buffer":23,"byteLength":384,"target":34962},{"buffer":24,"byteLength":192,"target":34962},{"buffer":25,"byteLength":288,"target":34962},{"buffer":26,"byteLength":136,"target":34963},{"buffer":27,"byteLength":288,"target":34962},{"buffer":28,"byteLength":384,"target":34962},{"buffer":29,"byteLength":192,"target":34962}],"buffers":[{"byteLength":288,"uri":"data:application/octet-stream;base64,"},{"byteLength":136,"uri":"data:application/octet-stream;base64,"},{"byteLength":288,"uri":"data:application/octet-stream;base64,"},{"byteLength":384,"uri":"data:application/octet-stream;base64,"},{"byteLength":192,"uri":"data:application/octet-stream;base64,"},{"byteLength":288,"uri":"data:application/octet-stream;base64,"},{"byteLength":136,"uri":"data:application/octet-stream;base64,"},{"byteLength":288,"uri":"data:application/octet-stream;base64,"},{"byteLength":384,"uri":"data:application/octet-stream;base64,"},{"byteLength":192,"uri":"data:application/octet-stream;base64,"},{"byteLength":288,"uri":"data:application/octet-stream;base64,"},{"byteLength":136,"uri":"data:application/octet-stream;base64,"},{"byteLength":288,"uri":"data:application/octet-stream;base64,"},{"byteLength":384,"uri":"data:application/octet-stream;base64,"},{"byteLength":192,"uri":"data:application/octet-stream;base64,"},{"byteLength":288,"uri":"data:application/octet-stream;base64,"},{"byteLength":136,"uri":"data:application/octet-stream;base64,"},{"byteLength":288,"uri":"data:application/octet-stream;base64,"},{"byteLength":384,"uri":"data:application/octet-stream;base64,"},{"byteLength":192,"uri":"data:application/octet-stream;base64,"},{"byteLength":288,"uri":"data:application/octet-stream;base64,"},{"byteLength":136,"uri":"data:application/octet-stream;base64,"},{"byteLength":288,"uri":"data:application/octet-stream;base64,"},{"byteLength":384,"uri":"data:application/octet-stream;base64,"},{"byteLength":192,"uri":"data:application/octet-stream;base64,"},{"byteLength":288,"uri":"data:application/octet-stream;base64,"},{"byteLength":136,"uri":"data:application/octet-stream;base64,"},{"byteLength":288,"uri":"data:application/octet-stream;base64,"},{"byteLength":384,"uri":"data:application/octet-stream;base64,"},{"byteLength":192,"uri":"data:application/octet-stream;base64,"}],"images":[{"uri":"textures/gltf_embedded_0.png"}],"materials":[{"alphaCutoff":0.05,"alphaMode":"MASK","doubleSided":true,"pbrMetallicRoughness":{"baseColorTexture":{"index":0},"metallicFactor":0.0,"roughnessFactor":1.0}}],"meshes":[{"primitives":[{"attributes":{"NORMAL":2,"POSITION":0,"TANGENT":3,"TEXCOORD_0":4},"indices":1,"material":0,"mode":5}]},{"primitives":[{"attributes":{"NORMAL":7,"POSITION":5,"TANGENT":8,"TEXCOORD_0":9},"indices":6,"material":0,"mode":5}]},{"primitives":[{"attributes":{"NORMAL":12,"POSITION":10,"TANGENT":13,"TEXCOORD_0":14},"indices":11,"material":0,"mode":5}]},{"primitives":[{"attributes":{"NORMAL":17,"POSITION":15,"TANGENT":18,"TEXCOORD_0":19},"indices":16,"material":0,"mode":5}]},{"primitives":[{"attributes":{"NORMAL":22,"POSITION":20,"TANGENT":23,"TEXCOORD_0":24},"indices":21,"material":0,"mode":5}]},{"primitives":[{"attributes":{"NORMAL":27,"POSITION":25,"TANGENT":28,"TEXCOORD_0":29},"indices":26,"material":0,"mode":5}]}],"nodes":[{"mesh":0,"name":"_gltfNode_0"},{"children":[0],"name":"cube_0","rotation":[6.12325e-17,1.0,6.12325e-17,8.95115e-16],"scale":[1.0,1.0,1.0],"translation":[0.0,0.7222660183906555,-0.40364599227905273]},{"mesh":1,"name":"_gltfNode_2"},{"children":[2],"name":"cube_1","rotation":[6.12325e-17,1.0,6.12325e-17,8.95115e-16],"scale":[1.0,1.0,1.0],"translation":[0.0,0.7222660183906555,-0.40364599227905273]},{"mesh":2,"name":"_gltfNode_4"},{"children":[4],"name":"cube_2","rotation":[6.12325e-17,1.0,6.12325e-17,8.95115e-16],"scale":[1.0,1.0,1.0],"translation":[0.0,0.7222660183906555,-0.40364599227905273]},{"mesh":3,"name":"_gltfNode_6"},{"children":[6],"name":"cube_3","rotation":[6.12325e-17,1.0,6.12325e-17,8.95115e-16],"scale":[1.0,1.0,1.0],"translation":[0.0,0.7222660183906555,-0.40364599227905273]},{"mesh":4,"name":"_gltfNode_8"},{"children":[8],"name":"cube_4","rotation":[6.12325e-17,1.0,6.12325e-17,8.95115e-16],"scale":[1.0,1.0,1.0],"translation":[0.0,0.7222660183906555,-0.40364599227905273]},{"mesh":5,"name":"_gltfNode_10"},{"children":[10],"name":"cube_5","rotation":[6.12325e-17,1.0,6.12325e-17,8.95115e-16],"scale":[1.0,1.0,1.0],"translation":[0.0,0.7222660183906555,-0.40364599227905273]},{"children":[3,5,7,9,11],"name":"Frame_6"},{"children":[1,12],"name":"_7"},{"children":[13],"name":"Muesuem Art","rotation":[-1.9753748434203097e-22,0.0,0.0,1.0],"scale":[1.0,1.0,1.0],"translation":[0.0,0.0,0.0]}],"samplers":[{"magFilter":9728,"minFilter":9728,"wrapS":33071,"wrapT":33071}],"scene":0,"scenes":[{"nodes":[14]}],"textures":[{"sampler":0,"source":0}]}