{"accessors":[{"bufferView":0,"componentType":5126,"count":1367,"max":[102.44327545166016,207.20350646972656,46.72129821777344],"min":[-102.44300079345705,10.582599639892578,-24.183300018310547],"type":"VEC3"},{"bufferView":1,"componentType":5125,"count":2982,"type":"SCALAR"},{"bufferView":2,"componentType":5126,"count":1367,"type":"VEC3"},{"bufferView":3,"componentType":5126,"count":1367,"type":"VEC4"},{"bufferView":4,"componentType":5126,"count":1367,"type":"VEC2"},{"bufferView":5,"componentType":5126,"count":1367,"max":[102.44327545166016,207.20350646972656,46.72129821777344],"min":[-102.44300079345705,10.582599639892578,-24.183300018310547],"type":"VEC3"},{"bufferView":6,"componentType":5125,"count":225,"type":"SCALAR"},{"bufferView":7,"componentType":5126,"count":1367,"type":"VEC3"},{"bufferView":8,"componentType":5126,"count":1367,"type":"VEC4"},{"bufferView":9,"componentType":5126,"count":1367,"type":"VEC2"},{"bufferView":10,"componentType":5126,"count":307,"max":[44.15250396728515,231.76361083984375,37.189151763916016],"min":[-44.15250015258789,147.38900756835938,-52.23320007324219],"type":"VEC3"},{"bufferView":11,"componentType":5125,"count":660,"type":"SCALAR"},{"bufferView":12,"componentType":5126,"count":307,"type":"VEC3"},{"bufferView":13,"componentType":5126,"count":307,"type":"VEC4"},{"bufferView":14,"componentType":5126,"count":307,"type":"VEC2"},{"bufferView":15,"componentType":5126,"count":307,"max":[44.15250396728515,231.76361083984375,37.189151763916016],"min":[-44.15250015258789,147.38900756835938,-52.23320007324219],"type":"VEC3"},{"bufferView":16,"componentType":5125,"count":42,"type":"SCALAR"},{"bufferView":17,"componentType":5126,"count":307,"type":"VEC3"},{"bufferView":18,"componentType":5126,"count":307,"type":"VEC4"},{"bufferView":19,"componentType":5126,"count":307,"type":"VEC2"},{"bufferView":20,"componentType":5126,"count":491,"max":[35.91022872924805,129.657470703125,15.896615982055664],"min":[-35.91019821166992,37.5265007019043,-29.146799087524418],"type":"VEC3"},{"bufferView":21,"componentType":5125,"count":1138,"type":"SCALAR"},{"bufferView":22,"componentType":5126,"count":491,"type":"VEC3"},{"bufferView":23,"componentType":5126,"count":491,"type":"VEC4"},{"bufferView":24,"componentType":5126,"count":491,"type":"VEC2"},{"bufferView":25,"componentType":5126,"count":491,"max":[35.91022872924805,129.657470703125,15.896615982055664],"min":[-35.91019821166992,37.5265007019043,-29.146799087524418],"type":"VEC3"},{"bufferView":26,"componentType":5125,"count":72,"type":"SCALAR"},{"bufferView":27,"componentType":5126,"count":491,"type":"VEC3"},{"bufferView":28,"componentType":5126,"count":491,"type":"VEC4"},{"bufferView":29,"componentType":5126,"count":491,"type":"VEC2"},{"bufferView":30,"componentType":5126,"count":388,"max":[26.440256118774418,22.670665740966797,9.854515075683594],"min":[-26.440099716186523,-0.18040500581264496,-21.478300094604492],"type":"VEC3"},{"bufferView":31,"componentType":5125,"count":755,"type":"SCALAR"},{"bufferView":32,"componentType":5126,"count":388,"type":"VEC3"},{"bufferView":33,"componentType":5126,"count":388,"type":"VEC4"},{"bufferView":34,"componentType":5126,"count":388,"type":"VEC2"},{"bufferView":35,"componentType":5126,"count":388,"max":[26.440256118774418,22.670665740966797,9.854515075683594],"min":[-26.440099716186523,-0.18040500581264496,-21.478300094604492],"type":"VEC3"},{"bufferView":36,"componentType":5125,"count":33,"type":"SCALAR"},{"bufferView":37,"componentType":5126,"count":388,"type":"VEC3"},{"bufferView":38,"componentType":5126,"count":388,"type":"VEC4"},{"bufferView":39,"componentType":5126,"count":388,"type":"VEC2"},{"bufferView":40,"componentType":5126,"count":49,"type":"MAT4"},{"bufferView":41,"componentType":5123,"count":1367,"type":"VEC4"},{"bufferView":42,"componentType":5126,"count":1367,"type":"VEC4"},{"bufferView":43,"componentType":5123,"count":307,"type":"VEC4"},{"bufferView":44,"componentType":5126,"count":307,"type":"VEC4"},{"bufferView":45,"componentType":5123,"count":491,"type":"VEC4"},{"bufferView":46,"componentType":5126,"count":491,"type":"VEC4"},{"bufferView":47,"componentType":5123,"count":388,"type":"VEC4"},{"bufferView":48,"componentType":5126,"count":388,"type":"VEC4"},{"bufferView":49,"componentType":5126,"count":68,"max":[1.3333333730697632],"min":[0.0],"type":"SCALAR"},{"bufferView":50,"componentType":5126,"count":68,"type":"VEC3"},{"bufferView":51,"componentType":5126,"count":78,"max":[1.3333333730697632],"min":[0.0],"type":"SCALAR"},{"bufferView":52,"componentType":5126,"count":78,"type":"VEC4"},{"bufferView":53,"componentType":5126,"count":67,"max":[1.3333333730697632],"min":[0.0],"type":"SCALAR"},{"bufferView":54,"componentType":5126,"count":67,"type":"VEC3"},{"bufferView":55,"componentType":5126,"count":78,"max":[1.3333333730697632],"min":[0.0],"type":"SCALAR"},{"bufferView":56,"componentType":5126,"count":78,"type":"VEC4"},{"bufferView":57,"componentType":5126,"count":63,"max":[1.3333333730697632],"min":[0.0],"type":"SCALAR"},{"bufferView":58,"componentType":5126,"count":63,"type":"VEC3"},{"bufferView":59,"componentType":5126,"count":78,"max":[1.3333333730697632],"min":[0.0],"type":"SCALAR"},{"bufferView":60,"componentType":5126,"count":78,"type":"VEC4"},{"bufferView":61,"componentType":5126,"count":55,"max":[1.3333333730697632],"min":[0.0],"type":"SCALAR"},{"bufferView":62,"componentType":5126,"count":55,"type":"VEC3"},{"bufferView":63,"componentType":5126,"count":78,"max":[1.3333333730697632],"min":[0.0],"type":"SCALAR"},{"bufferView":64,"componentType":5126,"count":78,"type":"VEC4"},{"bufferView":65,"componentType":5126,"count":78,"max":[1.3333333730697632],"min":[0.0],"type":"SCALAR"},{"bufferView":66,"componentType":5126,"count":78,"type":"VEC4"},{"bufferView":67,"componentType":5126,"count":65,"max":[1.3333333730697632],"min":[0.0],"type":"SCALAR"},{"bufferView":68,"componentType":5126,"count":65,"type":"VEC3"},{"bufferView":69,"componentType":5126,"count":78,"max":[1.3333333730697632],"min":[0.0],"type":"SCALAR"},{"bufferView":70,"componentType":5126,"count":78,"type":"VEC4"},{"bufferView":71,"componentType":5126,"count":64,"max":[1.3333333730697632],"min":[0.0],"type":"SCALAR"},{"bufferView":72,"componentType":5126,"count":64,"type":"VEC3"},{"bufferView":73,"componentType":5126,"count":78,"max":[1.3333333730697632],"min":[0.0],"type":"SCALAR"},{"bufferView":74,"componentType":5126,"count":78,"type":"VEC4"},{"bufferView":75,"componentType":5126,"count":78,"max":[1.3333333730697632],"min":[0.0],"type":"SCALAR"},{"bufferView":76,"componentType":5126,"count":78,"type":"VEC4"},{"bufferView":77,"componentType":5126,"count":62,"max":[1.3333333730697632],"min":[0.0],"type":"SCALAR"},{"bufferView":78,"componentType":5126,"count":62,"type":"VEC3"},{"bufferView":79,"componentType":5126,"count":78,"max":[1.3333333730697632],"min":[0.0],"type":"SCALAR"},{"bufferView":80,"componentType":5126,"count":78,"type":"VEC4"},{"bufferView":81,"componentType":5126,"count":57,"max":[1.3333333730697632],"min":[0.0],"type":"SCALAR"},{"bufferView":82,"componentType":5126,"count":57,"type":"VEC3"},{"bufferView":83,"componentType":5126,"count":78,"max":[1.3333333730697632],"min":[0.0],"type":"SCALAR"},{"bufferView":84,"componentType":5126,"count":78,"type":"VEC4"},{"bufferView":85,"componentType":5126,"count":78,"max":[1.3333333730697632],"min":[0.0],"type":"SCALAR"},{"bufferView":86,"componentType":5126,"count":78,"type":"VEC4"},{"bufferView":87,"componentType":5126,"count":74,"max":[1.3333333730697632],"min":[0.0],"type":"SCALAR"},{"bufferView":88,"componentType":5126,"count":74,"type":"VEC3"},{"bufferView":89,"componentType":5126,"count":78,"max":[1.3333333730697632],"min":[0.0],"type":"SCALAR"},{"bufferView":90,"componentType":5126,"count":78,"type":"VEC4"},{"bufferView":91,"componentType":5126,"count":70,"max":[1.3333333730697632],"min":[0.0],"type":"SCALAR"},{"bufferView":92,"componentType":5126,"count":70,"type":"VEC3"},{"bufferView":93,"componentType":5126,"count":78,"max":[1.3333333730697632],"min":[0.0],"type":"SCALAR"},{"bufferView":94,"componentType":5126,"count":78,"type":"VEC4"},{"bufferView":95,"componentType":5126,"count":76,"max":[1.3333333730697632],"min":[0.0],"type":"SCALAR"},{"bufferView":96,"componentType":5126,"count":76,"type":"VEC3"},{"bufferView":97,"componentType":5126,"count":78,"max":[1.3333333730697632],"min":[0.0],"type":"SCALAR"},{"bufferView":98,"componentType":5126,"count":78,"type":"VEC4"},{"bufferView":99,"componentType":5126,"count":78,"max":[1.3333333730697632],"min":[0.0],"type":"SCALAR"},{"bufferView":100,"componentType":5126,"count":78,"type":"VEC4"},{"bufferView":101,"componentType":5126,"count":56,"max":[1.3333333730697632],"min":[0.0],"type":"SCALAR"},{"bufferView":102,"componentType":5126,"count":56,"type":"VEC3"},{"bufferView":103,"componentType":5126,"count":78,"max":[1.3333333730697632],"min":[0.0],"type":"SCALAR"},{"bufferView":104,"componentType":5126,"count":78,"type":"VEC4"},{"bufferView":105,"componentType":5126,"count":47,"max":[1.3333333730697632],"min":[0.0],"type":"SCALAR"},{"bufferView":106,"componentType":5126,"count":47,"type":"VEC3"},{"bufferView":107,"componentType":5126,"count":78,"max":[1.3333333730697632],"min":[0.0],"type":"SCALAR"},{"bufferView":108,"componentType":5126,"count":78,"type":"VEC4"},{"bufferView":109,"componentType":5126,"count":78,"max":[1.3333333730697632],"min":[0.0],"type":"SCALAR"},{"bufferView":110,"componentType":5126,"count":78,"type":"VEC4"},{"bufferView":111,"componentType":5126,"count":64,"max":[1.3333333730697632],"min":[0.0],"type":"SCALAR"},{"bufferView":112,"componentType":5126,"count":64,"type":"VEC3"},{"bufferView":113,"componentType":5126,"count":78,"max":[1.3333333730697632],"min":[0.0],"type":"SCALAR"},{"bufferView":114,"componentType":5126,"count":78,"type":"VEC4"},{"bufferView":115,"componentType":5126,"count":62,"max":[1.3333333730697632],"min":[0.0],"type":"SCALAR"},{"bufferView":116,"componentType":5126,"count":62,"type":"VEC3"},{"bufferView":117,"componentType":5126,"count":78,"max":[1.3333333730697632],"min":[0.0],"type":"SCALAR"},{"bufferView":118,"componentType":5126,"count":78,"type":"VEC4"},{"bufferView":119,"componentType":5126,"count":78,"max":[1.3333333730697632],"min":[0.0],"type":"SCALAR"},{"bufferView":120,"componentType":5126,"count":78,"type":"VEC4"},{"bufferView":121,"componentType":5126,"count":65,"max":[1.3333333730697632],"min":[0.0],"type":"SCALAR"},{"bufferView":122,"componentType":5126,"count":65,"type":"VEC3"},{"bufferView":123,"componentType":5126,"count":78,"max":[1.3333333730697632],"min":[0.0],"type":"SCALAR"},{"bufferView":124,"componentType":5126,"count":78,"type":"VEC4"},{"bufferView":125,"componentType":5126,"count":52,"max":[1.3333333730697632],"min":[0.0],"type":"SCALAR"},{"bufferView":126,"componentType":5126,"count":52,"type":"VEC3"},{"bufferView":127,"componentType":5126,"count":78,"max":[1.3333333730697632],"min":[0.0],"type":"SCALAR"},{"bufferView":128,"componentType":5126,"count":78,"type":"VEC4"},{"bufferView":129,"componentType":5126,"count":78,"max":[1.3333333730697632],"min":[0.0],"type":"SCALAR"},{"bufferView":130,"componentType":5126,"count":78,"type":"VEC4"},{"bufferView":131,"componentType":5126,"count":75,"max":[1.3333333730697632],"min":[0.0],"type":"SCALAR"},{"bufferView":132,"componentType":5126,"count":75,"type":"VEC3"},{"bufferView":133,"componentType":5126,"count":78,"max":[1.3333333730697632],"min":[0.0],"type":"SCALAR"},{"bufferView":134,"componentType":5126,"count":78,"type":"VEC4"},{"bufferView":135,"componentType":5126,"count":75,"max":[1.3333333730697632],"min":[0.0],"type":"SCALAR"},{"bufferView":136,"componentType":5126,"count":75,"type":"VEC3"},{"bufferView":137,"componentType":5126,"count":78,"max":[1.3333333730697632],"min":[0.0],"type":"SCALAR"},{"bufferView":138,"componentType":5126,"count":78,"type":"VEC4"},{"bufferView":139,"componentType":5126,"count":75,"max":[1.3333333730697632],"min":[0.0],"type":"SCALAR"},{"bufferView":140,"componentType":5126,"count":75,"type":"VEC3"},{"bufferView":141,"componentType":5126,"count":78,"max":[1.3333333730697632],"min":[0.0],"type":"SCALAR"},{"bufferView":142,"componentType":5126,"count":78,"type":"VEC4"},{"bufferView":143,"componentType":5126,"count":78,"max":[1.3333333730697632],"min":[0.0],"type":"SCALAR"},{"bufferView":144,"componentType":5126,"count":78,"type":"VEC4"},{"bufferView":145,"componentType":5126,"count":78,"max":[1.3333333730697632],"min":[0.0],"type":"SCALAR"},{"bufferView":146,"componentType":5126,"count":78,"type":"VEC3"},{"bufferView":147,"componentType":5126,"count":78,"max":[1.3333333730697632],"min":[0.0],"type":"SCALAR"},{"bufferView":148,"componentType":5126,"count":78,"type":"VEC4"},{"bufferView":149,"componentType":5126,"count":67,"max":[1.3333333730697632],"min":[0.0],"type":"SCALAR"},{"bufferView":150,"componentType":5126,"count":67,"type":"VEC3"},{"bufferView":151,"componentType":5126,"count":78,"max":[1.3333333730697632],"min":[0.0],"type":"SCALAR"},{"bufferView":152,"componentType":5126,"count":78,"type":"VEC4"},{"bufferView":153,"componentType":5126,"count":65,"max":[1.3333333730697632],"min":[0.0],"type":"SCALAR"},{"bufferView":154,"componentType":5126,"count":65,"type":"VEC3"},{"bufferView":155,"componentType":5126,"count":78,"max":[1.3333333730697632],"min":[0.0],"type":"SCALAR"},{"bufferView":156,"componentType":5126,"count":78,"type":"VEC4"},{"bufferView":157,"componentType":5126,"count":69,"max":[1.3333333730697632],"min":[0.0],"type":"SCALAR"},{"bufferView":158,"componentType":5126,"count":69,"type":"VEC3"},{"bufferView":159,"componentType":5126,"count":78,"max":[1.3333333730697632],"min":[0.0],"type":"SCALAR"},{"bufferView":160,"componentType":5126,"count":78,"type":"VEC4"},{"bufferView":161,"componentType":5126,"count":73,"max":[1.3333333730697632],"min":[0.0],"type":"SCALAR"},{"bufferView":162,"componentType":5126,"count":73,"type":"VEC3"},{"bufferView":163,"componentType":5126,"count":78,"max":[1.3333333730697632],"min":[0.0],"type":"SCALAR"},{"bufferView":164,"componentType":5126,"count":78,"type":"VEC4"},{"bufferView":165,"componentType":5126,"count":73,"max":[1.3333333730697632],"min":[0.0],"type":"SCALAR"},{"bufferView":166,"componentType":5126,"count":73,"type":"VEC3"},{"bufferView":167,"componentType":5126,"count":78,"max":[1.3333333730697632],"min":[0.0],"type":"SCALAR"},{"bufferView":168,"componentType":5126,"count":78,"type":"VEC4"},{"bufferView":169,"componentType":5126,"count":78,"max":[1.3333333730697632],"min":[0.0],"type":"SCALAR"},{"bufferView":170,"componentType":5126,"count":78,"type":"VEC4"},{"bufferView":171,"componentType":5126,"count":75,"max":[1.3333333730697632],"min":[0.0],"type":"SCALAR"},{"bufferView":172,"componentType":5126,"count":75,"type":"VEC3"},{"bufferView":173,"componentType":5126,"count":78,"max":[1.3333333730697632],"min":[0.0],"type":"SCALAR"},{"bufferView":174,"componentType":5126,"count":78,"type":"VEC4"},{"bufferView":175,"componentType":5126,"count":75,"max":[1.3333333730697632],"min":[0.0],"type":"SCALAR"},{"bufferView":176,"componentType":5126,"count":75,"type":"VEC3"},{"bufferView":177,"componentType":5126,"count":78,"max":[1.3333333730697632],"min":[0.0],"type":"SCALAR"},{"bufferView":178,"componentType":5126,"count":78,"type":"VEC4"},{"bufferView":179,"componentType":5126,"count":54,"max":[1.3333333730697632],"min":[0.0],"type":"SCALAR"},{"bufferView":180,"componentType":5126,"count":54,"type":"VEC3"},{"bufferView":181,"componentType":5126,"count":78,"max":[1.3333333730697632],"min":[0.0],"type":"SCALAR"},{"bufferView":182,"componentType":5126,"count":78,"type":"VEC4"},{"bufferView":183,"componentType":5126,"count":78,"max":[1.3333333730697632],"min":[0.0],"type":"SCALAR"},{"bufferView":184,"componentType":5126,"count":78,"type":"VEC4"},{"bufferView":185,"componentType":5126,"count":78,"max":[1.3333333730697632],"min":[0.0],"type":"SCALAR"},{"bufferView":186,"componentType":5126,"count":78,"type":"VEC3"},{"bufferView":187,"componentType":5126,"count":78,"max":[1.3333333730697632],"min":[0.0],"type":"SCALAR"},{"bufferView":188,"componentType":5126,"count":78,"type":"VEC4"}],"animations":[{"channels":[{"sampler":0,"target":{"node":5,"path":"translation"}},{"sampler":1,"target":{"node":5,"path":"rotation"}},{"sampler":2,"target":{"node":6,"path":"translation"}},{"sampler":3,"target":{"node":6,"path":"rotation"}},{"sampler":4,"target":{"node":8,"path":"translation"}},{"sampler":5,"target":{"node":8,"path":"rotation"}},{"sampler":6,"target":{"node":9,"path":"translation"}},{"sampler":7,"target":{"node":9,"path":"rotation"}},{"sampler":8,"target":{"node":10,"path":"rotation"}},{"sampler":9,"target":{"node":12,"path":"translation"}},{"sampler":10,"target":{"node":12,"path":"rotation"}},{"sampler":11,"target":{"node":13,"path":"translation"}},{"sampler":12,"target":{"node":13,"path":"rotation"}},{"sampler":13,"target":{"node":14,"path":"rotation"}},{"sampler":14,"target":{"node":16,"path":"translation"}},{"sampler":15,"target":{"node":16,"path":"rotation"}},{"sampler":16,"target":{"node":17,"path":"translation"}},{"sampler":17,"target":{"node":17,"path":"rotation"}},{"sampler":18,"target":{"node":18,"path":"rotation"}},{"sampler":19,"target":{"node":19,"path":"translation"}},{"sampler":20,"target":{"node":19,"path":"rotation"}},{"sampler":21,"target":{"node":20,"path":"translation"}},{"sampler":22,"target":{"node":20,"path":"rotation"}},{"sampler":23,"target":{"node":21,"path":"translation"}},{"sampler":24,"target":{"node":21,"path":"rotation"}},{"sampler":25,"target":{"node":22,"path":"rotation"}},{"sampler":26,"target":{"node":24,"path":"translation"}},{"sampler":27,"target":{"node":24,"path":"rotation"}},{"sampler":28,"target":{"node":25,"path":"translation"}},{"sampler":29,"target":{"node":25,"path":"rotation"}},{"sampler":30,"target":{"node":26,"path":"rotation"}},{"sampler":31,"target":{"node":28,"path":"translation"}},{"sampler":32,"target":{"node":28,"path":"rotation"}},{"sampler":33,"target":{"node":29,"path":"translation"}},{"sampler":34,"target":{"node":29,"path":"rotation"}},{"sampler":35,"target":{"node":30,"path":"rotation"}},{"sampler":36,"target":{"node":32,"path":"translation"}},{"sampler":37,"target":{"node":32,"path":"rotation"}},{"sampler":38,"target":{"node":33,"path":"translation"}},{"sampler":39,"target":{"node":33,"path":"rotation"}},{"sampler":40,"target":{"node":34,"path":"rotation"}},{"sampler":41,"target":{"node":35,"path":"translation"}},{"sampler":42,"target":{"node":35,"path":"rotation"}},{"sampler":43,"target":{"node":36,"path":"translation"}},{"sampler":44,"target":{"node":36,"path":"rotation"}},{"sampler":45,"target":{"node":37,"path":"translation"}},{"sampler":46,"target":{"node":37,"path":"rotation"}},{"sampler":47,"target":{"node":38,"path":"rotation"}},{"sampler":48,"target":{"node":39,"path":"translation"}},{"sampler":49,"target":{"node":39,"path":"rotation"}},{"sampler":50,"target":{"node":40,"path":"translation"}},{"sampler":51,"target":{"node":40,"path":"rotation"}},{"sampler":52,"target":{"node":41,"path":"translation"}},{"sampler":53,"target":{"node":41,"path":"rotation"}},{"sampler":54,"target":{"node":43,"path":"translation"}},{"sampler":55,"target":{"node":43,"path":"rotation"}},{"sampler":56,"target":{"node":44,"path":"translation"}},{"sampler":57,"target":{"node":44,"path":"rotation"}},{"sampler":58,"target":{"node":45,"path":"translation"}},{"sampler":59,"target":{"node":45,"path":"rotation"}},{"sampler":60,"target":{"node":46,"path":"rotation"}},{"sampler":61,"target":{"node":48,"path":"translation"}},{"sampler":62,"target":{"node":48,"path":"rotation"}},{"sampler":63,"target":{"node":49,"path":"translation"}},{"sampler":64,"target":{"node":49,"path":"rotation"}},{"sampler":65,"target":{"node":50,"path":"translation"}},{"sampler":66,"target":{"node":50,"path":"rotation"}},{"sampler":67,"target":{"node":51,"path":"rotation"}},{"sampler":68,"target":{"node":52,"path":"translation"}},{"sampler":69,"target":{"node":52,"path":"rotation"}}],"name":"mixamo.com","samplers":[{"input":49,"interpolation":"LINEAR","output":50},{"input":51,"interpolation":"LINEAR","output":52},{"input":53,"interpolation":"LINEAR","output":54},{"input":55,"interpolation":"LINEAR","output":56},{"input":57,"interpolation":"LINEAR","output":58},{"input":59,"interpolation":"LINEAR","output":60},{"input":61,"interpolation":"LINEAR","output":62},{"input":63,"interpolation":"LINEAR","output":64},{"input":65,"interpolation":"LINEAR","output":66},{"input":67,"interpolation":"LINEAR","output":68},{"input":69,"interpolation":"LINEAR","output":70},{"input":71,"interpolation":"LINEAR","output":72},{"input":73,"interpolation":"LINEAR","output":74},{"input":75,"interpolation":"LINEAR","output":76},{"input":77,"interpolation":"LINEAR","output":78},{"input":79,"interpolation":"LINEAR","output":80},{"input":81,"interpolation":"LINEAR","output":82},{"input":83,"interpolation":"LINEAR","output":84},{"input":85,"interpolation":"LINEAR","output":86},{"input":87,"interpolation":"LINEAR","output":88},{"input":89,"interpolation":"LINEAR","output":90},{"input":91,"interpolation":"LINEAR","output":92},{"input":93,"interpolation":"LINEAR","output":94},{"input":95,"interpolation":"LINEAR","output":96},{"input":97,"interpolation":"LINEAR","output":98},{"input":99,"interpolation":"LINEAR","output":100},{"input":101,"interpolation":"LINEAR","output":102},{"input":103,"interpolation":"LINEAR","output":104},{"input":105,"interpolation":"LINEAR","output":106},{"input":107,"interpolation":"LINEAR","output":108},{"input":109,"interpolation":"LINEAR","output":110},{"input":111,"interpolation":"LINEAR","output":112},{"input":113,"interpolation":"LINEAR","output":114},{"input":115,"interpolation":"LINEAR","output":116},{"input":117,"interpolation":"LINEAR","output":118},{"input":119,"interpolation":"LINEAR","output":120},{"input":121,"interpolation":"LINEAR","output":122},{"input":123,"interpolation":"LINEAR","output":124},{"input":125,"interpolation":"LINEAR","output":126},{"input":127,"interpolation":"LINEAR","output":128},{"input":129,"interpolation":"LINEAR","output":130},{"input":131,"interpolation":"LINEAR","output":132},{"input":133,"interpolation":"LINEAR","output":134},{"input":135,"interpolation":"LINEAR","output":136},{"input":137,"interpolation":"LINEAR","output":138},{"input":139,"interpolation":"LINEAR","output":140},{"input":141,"interpolation":"LINEAR","output":142},{"input":143,"interpolation":"LINEAR","output":144},{"input":145,"interpolation":"LINEAR","output":146},{"input":147,"interpolation":"LINEAR","output":148},{"input":149,"interpolation":"LINEAR","output":150},{"input":151,"interpolation":"LINEAR","output":152},{"input":153,"interpolation":"LINEAR","output":154},{"input":155,"interpolation":"LINEAR","output":156},{"input":157,"interpolation":"LINEAR","output":158},{"input":159,"interpolation":"LINEAR","output":160},{"input":161,"interpolation":"LINEAR","output":162},{"input":163,"interpolation":"LINEAR","output":164},{"input":165,"interpolation":"LINEAR","output":166},{"input":167,"interpolation":"LINEAR","output":168},{"input":169,"interpolation":"LINEAR","output":170},{"input":171,"interpolation":"LINEAR","output":172},{"input":173,"interpolation":"LINEAR","output":174},{"input":175,"interpolation":"LINEAR","output":176},{"input":177,"interpolation":"LINEAR","output":178},{"input":179,"interpolation":"LINEAR","output":180},{"input":181,"interpolation":"LINEAR","output":182},{"input":183,"interpolation":"LINEAR","output":184},{"input":185,"interpolation":"LINEAR","output":186},{"input":187,"interpolation":"LINEAR","output":188}]}],"asset":{"version":"2.0"},"bufferViews":[{"buffer":0,"byteLength":16404,"target":34962},{"buffer":1,"byteLength":11928,"target":34963},{"buffer":2,"byteLength":16404,"target":34962},{"buffer":3,"byteLength":21872,"target":34962},{"buffer":4,"byteLength":10936,"target":34962},{"buffer":0,"byteLength":16404,"target":34962},{"buffer":5,"byteLength":900,"target":34963},{"buffer":2,"byteLength":16404,"target":34962},{"buffer":3,"byteLength":21872,"target":34962},{"buffer":4,"byteLength":10936,"target":34962},{"buffer":6,"byteLength":3684,"target":34962},{"buffer":7,"byteLength":2640,"target":34963},{"buffer":8,"byteLength":3684,"target":34962},{"buffer":9,"byteLength":4912,"target":34962},{"buffer":10,"byteLength":2456,"target":34962},{"buffer":6,"byteLength":3684,"target":34962},{"buffer":11,"byteLength":168,"target":34963},{"buffer":8,"byteLength":3684,"target":34962},{"buffer":9,"byteLength":4912,"target":34962},{"buffer":10,"byteLength":2456,"target":34962},{"buffer":12,"byteLength":5892,"target":34962},{"buffer":13,"byteLength":4552,"target":34963},{"buffer":14,"byteLength":5892,"target":34962},{"buffer":15,"byteLength":7856,"target":34962},{"buffer":16,"byteLength":3928,"target":34962},{"buffer":12,"byteLength":5892,"target":34962},{"buffer":17,"byteLength":288,"target":34963},{"buffer":14,"byteLength":5892,"target":34962},{"buffer":15,"byteLength":7856,"target":34962},{"buffer":16,"byteLength":3928,"target":34962},{"buffer":18,"byteLength":4656,"target":34962},{"buffer":19,"byteLength":3020,"target":34963},{"buffer":20,"byteLength":4656,"target":34962},{"buffer":21,"byteLength":6208,"target":34962},{"buffer":22,"byteLength":3104,"target":34962},{"buffer":18,"byteLength":4656,"target":34962},{"buffer":23,"byteLength":132,"target":34963},{"buffer":20,"byteLength":4656,"target":34962},{"buffer":21,"byteLength":6208,"target":34962},{"buffer":22,"byteLength":3104,"target":34962},{"buffer":24,"byteLength":3136},{"buffer":25,"byteLength":10936,"target":34962},{"buffer":26,"byteLength":21872,"target":34962},{"buffer":27,"byteLength":2456,"target":34962},{"buffer":28,"byteLength":4912,"target":34962},{"buffer":29,"byteLength":3928,"target":34962},{"buffer":30,"byteLength":7856,"target":34962},{"buffer":31,"byteLength":3104,"target":34962},{"buffer":32,"byteLength":6208,"target":34962},{"buffer":33,"byteLength":272},{"buffer":34,"byteLength":816},{"buffer":35,"byteLength":312},{"buffer":36,"byteLength":1248},{"buffer":37,"byteLength":268},{"buffer":38,"byteLength":804},{"buffer":39,"byteLength":312},{"buffer":40,"byteLength":1248},{"buffer":41,"byteLength":252},{"buffer":42,"byteLength":756},{"buffer":43,"byteLength":312},{"buffer":44,"byteLength":1248},{"buffer":45,"byteLength":220},{"buffer":46,"byteLength":660},{"buffer":47,"byteLength":312},{"buffer":48,"byteLength":1248},{"buffer":49,"byteLength":312},{"buffer":50,"byteLength":1248},{"buffer":51,"byteLength":260},{"buffer":52,"byteLength":780},{"buffer":53,"byteLength":312},{"buffer":54,"byteLength":1248},{"buffer":55,"byteLength":256},{"buffer":56,"byteLength":768},{"buffer":57,"byteLength":312},{"buffer":58,"byteLength":1248},{"buffer":59,"byteLength":312},{"buffer":60,"byteLength":1248},{"buffer":61,"byteLength":248},{"buffer":62,"byteLength":744},{"buffer":63,"byteLength":312},{"buffer":64,"byteLength":1248},{"buffer":65,"byteLength":228},{"buffer":66,"byteLength":684},{"buffer":67,"byteLength":312},{"buffer":68,"byteLength":1248},{"buffer":69,"byteLength":312},{"buffer":70,"byteLength":1248},{"buffer":71,"byteLength":296},{"buffer":72,"byteLength":888},{"buffer":73,"byteLength":312},{"buffer":74,"byteLength":1248},{"buffer":75,"byteLength":280},{"buffer":76,"byteLength":840},{"buffer":77,"byteLength":312},{"buffer":78,"byteLength":1248},{"buffer":79,"byteLength":304},{"buffer":80,"byteLength":912},{"buffer":81,"byteLength":312},{"buffer":82,"byteLength":1248},{"buffer":83,"byteLength":312},{"buffer":84,"byteLength":1248},{"buffer":85,"byteLength":224},{"buffer":86,"byteLength":672},{"buffer":87,"byteLength":312},{"buffer":88,"byteLength":1248},{"buffer":89,"byteLength":188},{"buffer":90,"byteLength":564},{"buffer":91,"byteLength":312},{"buffer":92,"byteLength":1248},{"buffer":93,"byteLength":312},{"buffer":94,"byteLength":1248},{"buffer":95,"byteLength":256},{"buffer":96,"byteLength":768},{"buffer":97,"byteLength":312},{"buffer":98,"byteLength":1248},{"buffer":99,"byteLength":248},{"buffer":100,"byteLength":744},{"buffer":101,"byteLength":312},{"buffer":102,"byteLength":1248},{"buffer":103,"byteLength":312},{"buffer":104,"byteLength":1248},{"buffer":105,"byteLength":260},{"buffer":106,"byteLength":780},{"buffer":107,"byteLength":312},{"buffer":108,"byteLength":1248},{"buffer":109,"byteLength":208},{"buffer":110,"byteLength":624},{"buffer":111,"byteLength":312},{"buffer":112,"byteLength":1248},{"buffer":113,"byteLength":312},{"buffer":114,"byteLength":1248},{"buffer":115,"byteLength":300},{"buffer":116,"byteLength":900},{"buffer":117,"byteLength":312},{"buffer":118,"byteLength":1248},{"buffer":119,"byteLength":300},{"buffer":120,"byteLength":900},{"buffer":121,"byteLength":312},{"buffer":122,"byteLength":1248},{"buffer":123,"byteLength":300},{"buffer":124,"byteLength":900},{"buffer":125,"byteLength":312},{"buffer":126,"byteLength":1248},{"buffer":127,"byteLength":312},{"buffer":128,"byteLength":1248},{"buffer":129,"byteLength":312},{"buffer":130,"byteLength":936},{"buffer":131,"byteLength":312},{"buffer":132,"byteLength":1248},{"buffer":133,"byteLength":268},{"buffer":134,"byteLength":804},{"buffer":135,"byteLength":312},{"buffer":136,"byteLength":1248},{"buffer":137,"byteLength":260},{"buffer":138,"byteLength":780},{"buffer":139,"byteLength":312},{"buffer":140,"byteLength":1248},{"buffer":141,"byteLength":276},{"buffer":142,"byteLength":828},{"buffer":143,"byteLength":312},{"buffer":144,"byteLength":1248},{"buffer":145,"byteLength":292},{"buffer":146,"byteLength":876},{"buffer":147,"byteLength":312},{"buffer":148,"byteLength":1248},{"buffer":149,"byteLength":292},{"buffer":150,"byteLength":876},{"buffer":151,"byteLength":312},{"buffer":152,"byteLength":1248},{"buffer":153,"byteLength":312},{"buffer":154,"byteLength":1248},{"buffer":155,"byteLength":300},{"buffer":156,"byteLength":900},{"buffer":157,"byteLength":312},{"buffer":158,"byteLength":1248},{"buffer":159,"byteLength":300},{"buffer":160,"byteLength":900},{"buffer":161,"byteLength":312},{"buffer":162,"byteLength":1248},{"buffer":163,"byteLength":216},{"buffer":164,"byteLength":648},{"buffer":165,"byteLength":312},{"buffer":166,"byteLength":1248},{"buffer":167,"byteLength":312},{"buffer":168,"byteLength":1248},{"buffer":169,"byteLength":312},{"buffer":170,"byteLength":936},{"buffer":171,"byteLength":312},{"buffer":172,"byteLength":1248}],"buffers":[{"byteLength":16404,"uri":"data:application/octet-stream;base64,"},{"byteLength":11928,"uri":"data:application/octet-stream;base64,"},{"byteLength":16404,"uri":"data:application/octet-stream;base64,"},{"byteLength":21872,"uri":"data:application/octet-stream;base64,"},{"byteLength":10936,"uri":"data:application/octet-stream;base64,"},{"byteLength":900,"uri":"data:application/octet-stream;base64,"},{"byteLength":3684,"uri":"data:application/octet-stream;base64,"},{"byteLength":2640,"uri":"data:application/octet-stream;base64,"},{"byteLength":3684,"uri":"data:application/octet-stream;base64,"},{"byteLength":4912,"uri":"data:application/octet-stream;base64,"},{"byteLength":2456,"uri":"data:application/octet-stream;base64,"},{"byteLength":168,"uri":"data:application/octet-stream;base64,"},{"byteLength":5892,"uri":"data:application/octet-stream;base64,"},{"byteLength":4552,"uri":"data:application/octet-stream;base64,"},{"byteLength":5892,"uri":"data:application/octet-stream;base64,"},{"byteLength":7856,"uri":"data:application/octet-stream;base64,"},{"byteLength":3928,"uri":"data:application/octet-stream;base64,"},{"byteLength":288,"uri":"data:application/octet-stream;base64,"},{"byteLength":4656,"uri":"data:application/octet-stream;base64,"},{"byteLength":3020,"uri":"data:application/octet-stream;base64,"},{"byteLength":4656,"uri":"data:application/octet-stream;base64,"},{"byteLength":6208,"uri":"data:application/octet-stream;base64,"},{"byteLength":3104,"uri":"data:application/octet-stream;base64,"},{"byteLength":132,"uri":"data:application/octet-stream;base64,"},{"byteLength":3136,"uri":"data:application/octet-stream;base64,"},{"byteLength":10936,"uri":"data:application/octet-stream;base64,"},{"byteLength":21872,"uri":"data:application/octet-stream;base64,"},{"byteLength":2456,"uri":"data:application/octet-stream;base64,"},{"byteLength":4912,"uri":"data:application/octet-stream;base64,"},{"byteLength":3928,"uri":"data:application/octet-stream;base64,"},{"byteLength":7856,"uri":"data:application/octet-stream;base64,"},{"byteLength":3104,"uri":"data:application/octet-stream;base64,"},{"byteLength":6208,"uri":"data:application/octet-stream;base64,"},{"byteLength":272,"uri":"data:application/octet-stream;base64,"},{"byteLength":816,"uri":"data:application/octet-stream;base64,"},{"byteLength":312,"uri":"data:application/octet-stream;base64,"},{"byteLength":1248,"uri":"data:application/octet-stream;base64,"},{"byteLength":268,"uri":"data:application/octet-stream;base64,"},{"byteLength":804,"uri":"data:application/octet-stream;base64,"},{"byteLength":312,"uri":"data:application/octet-stream;base64,"},{"byteLength":1248,"uri":"data:application/octet-stream;base64,"},{"byteLength":252,"uri":"data:application/octet-stream;base64,"},{"byteLength":756,"uri":"data:application/octet-stream;base64,"},{"byteLength":312,"uri":"data:application/octet-stream;base64,"},{"byteLength":1248,"uri":"data:application/octet-stream;base64,"},{"byteLength":220,"uri":"data:application/octet-stream;base64,"},{"byteLength":660,"uri":"data:application/octet-stream;base64,"},{"byteLength":312,"uri":"data:application/octet-stream;base64,"},{"byteLength":1248,"uri":"data:application/octet-stream;base64,"},{"byteLength":312,"uri":"data:application/octet-stream;base64,"},{"byteLength":1248,"uri":"data:application/octet-stream;base64,"},{"byteLength":260,"uri":"data:application/octet-stream;base64,"},{"byteLength":780,"uri":"data:application/octet-stream;base64,"},{"byteLength":312,"uri":"data:application/octet-stream;base64,"},{"byteLength":1248,"uri":"data:application/octet-stream;base64,"},{"byteLength":256,"uri":"data:application/octet-stream;base64,"},{"byteLength":768,"uri":"data:application/octet-stream;base64,"},{"byteLength":312,"uri":"data:application/octet-stream;base64,"},{"byteLength":1248,"uri":"data:application/octet-stream;base64,"},{"byteLength":312,"uri":"data:application/octet-stream;base64,"},{"byteLength":1248,"uri":"data:application/octet-stream;base64,"},{"byteLength":248,"uri":"data:application/octet-stream;base64,"},{"byteLength":744,"uri":"data:application/octet-stream;base64,"},{"byteLength":312,"uri":"data:application/octet-stream;base64,"},{"byteLength":1248,"uri":"data:application/octet-stream;base64,"},{"byteLength":228,"uri":"data:application/octet-stream;base64,"},{"byteLength":684,"uri":"data:application/octet-stream;base64,"},{"byteLength":312,"uri":"data:application/octet-stream;base64,"},{"byteLength":1248,"uri":"data:application/octet-stream;base64,"},{"byteLength":312,"uri":"data:application/octet-stream;base64,"},{"byteLength":1248,"uri":"data:application/octet-stream;base64,"},{"byteLength":296,"uri":"data:application/octet-stream;base64,"},{"byteLength":888,"uri":"data:application/octet-stream;base64,"},{"byteLength":312,"uri":"data:application/octet-stream;base64,"},{"byteLength":1248,"uri":"data:application/octet-stream;base64,"},{"byteLength":280,"uri":"data:application/octet-stream;base64,"},{"byteLength":840,"uri":"data:application/octet-stream;base64,"},{"byteLength":312,"uri":"data:application/octet-stream;base64,"},{"byteLength":1248,"uri":"data:application/octet-stream;base64,"},{"byteLength":304,"uri":"data:application/octet-stream;base64,"},{"byteLength":912,"uri":"data:application/octet-stream;base64,"},{"byteLength":312,"uri":"data:application/octet-stream;base64,"},{"byteLength":1248,"uri":"data:application/octet-stream;base64,"},{"byteLength":312,"uri":"data:application/octet-stream;base64,"},{"byteLength":1248,"uri":"data:application/octet-stream;base64,"},{"byteLength":224,"uri":"data:application/octet-stream;base64,"},{"byteLength":672,"uri":"data:application/octet-stream;base64,"},{"byteLength":312,"uri":"data:application/octet-stream;base64,"},{"byteLength":1248,"uri":"data:application/octet-stream;base64,"},{"byteLength":188,"uri":"data:application/octet-stream;base64,"},{"byteLength":564,"uri":"data:application/octet-stream;base64,"},{"byteLength":312,"uri":"data:application/octet-stream;base64,"},{"byteLength":1248,"uri":"data:application/octet-stream;base64,"},{"byteLength":312,"uri":"data:application/octet-stream;base64,"},{"byteLength":1248,"uri":"data:application/octet-stream;base64,"},{"byteLength":256,"uri":"data:application/octet-stream;base64,"},{"byteLength":768,"uri":"data:application/octet-stream;base64,"},{"byteLength":312,"uri":"data:application/octet-stream;base64,"},{"byteLength":1248,"uri":"data:application/octet-stream;base64,"},{"byteLength":248,"uri":"data:application/octet-stream;base64,"},{"byteLength":744,"uri":"data:application/octet-stream;base64,"},{"byteLength":312,"uri":"data:application/octet-stream;base64,"},{"byteLength":1248,"uri":"data:application/octet-stream;base64,"},{"byteLength":312,"uri":"data:application/octet-stream;base64,"},{"byteLength":1248,"uri":"data:application/octet-stream;base64,"},{"byteLength":260,"uri":"data:application/octet-stream;base64,"},{"byteLength":780,"uri":"data:application/octet-stream;base64,"},{"byteLength":312,"uri":"data:application/octet-stream;base64,"},{"byteLength":1248,"uri":"data:application/octet-stream;base64,"},{"byteLength":208,"uri":"data:application/octet-stream;base64,"},{"byteLength":624,"uri":"data:application/octet-stream;base64,"},{"byteLength":312,"uri":"data:application/octet-stream;base64,"},{"byteLength":1248,"uri":"data:application/octet-stream;base64,"},{"byteLength":312,"uri":"data:application/octet-stream;base64,"},{"byteLength":1248,"uri":"data:application/octet-stream;base64,"},{"byteLength":300,"uri":"data:application/octet-stream;base64,"},{"byteLength":900,"uri":"data:application/octet-stream;base64,"},{"byteLength":312,"uri":"data:application/octet-stream;base64,"},{"byteLength":1248,"uri":"data:application/octet-stream;base64,"},{"byteLength":300,"uri":"data:application/octet-stream;base64,"},{"byteLength":900,"uri":"data:application/octet-stream;base64,"},{"byteLength":312,"uri":"data:application/octet-stream;base64,"},{"byteLength":1248,"uri":"data:application/octet-stream;base64,"},{"byteLength":300,"uri":"data:application/octet-stream;base64,"},{"byteLength":900,"uri":"data:application/octet-stream;base64,"},{"byteLength":312,"uri":"data:application/octet-stream;base64,"},{"byteLength":1248,"uri":"data:application/octet-stream;base64,"},{"byteLength":312,"uri":"data:application/octet-stream;base64,"},{"byteLength":1248,"uri":"data:application/octet-stream;base64,"},{"byteLength":312,"uri":"data:application/octet-stream;base64,"},{"byteLength":936,"uri":"data:application/octet-stream;base64,"},{"byteLength":312,"uri":"data:application/octet-stream;base64,"},{"byteLength":1248,"uri":"data:application/octet-stream;base64,"},{"byteLength":268,"uri":"data:application/octet-stream;base64,"},{"byteLength":804,"uri":"data:application/octet-stream;base64,"},{"byteLength":312,"uri":"data:application/octet-stream;base64,"},{"byteLength":1248,"uri":"data:application/octet-stream;base64,"},{"byteLength":260,"uri":"data:application/octet-stream;base64,"},{"byteLength":780,"uri":"data:application/octet-stream;base64,"},{"byteLength":312,"uri":"data:application/octet-stream;base64,"},{"byteLength":1248,"uri":"data:application/octet-stream;base64,"},{"byteLength":276,"uri":"data:application/octet-stream;base64,"},{"byteLength":828,"uri":"data:application/octet-stream;base64,"},{"byteLength":312,"uri":"data:application/octet-stream;base64,"},{"byteLength":1248,"uri":"data:application/octet-stream;base64,"},{"byteLength":292,"uri":"data:application/octet-stream;base64,"},{"byteLength":876,"uri":"data:application/octet-stream;base64,"},{"byteLength":312,"uri":"data:application/octet-stream;base64,"},{"byteLength":1248,"uri":"data:application/octet-stream;base64,"},{"byteLength":292,"uri":"data:application/octet-stream;base64,"},{"byteLength":876,"uri":"data:application/octet-stream;base64,"},{"byteLength":312,"uri":"data:application/octet-stream;base64,"},{"byteLength":1248,"uri":"data:application/octet-stream;base64,"},{"byteLength":312,"uri":"data:application/octet-stream;base64,"},{"byteLength":1248,"uri":"data:application/octet-stream;base64,"},{"byteLength":300,"uri":"data:application/octet-stream;base64,"},{"byteLength":900,"uri":"data:application/octet-stream;base64,"},{"byteLength":312,"uri":"data:application/octet-stream;base64,"},{"byteLength":1248,"uri":"data:application/octet-stream;base64,"},{"byteLength":300,"uri":"data:application/octet-stream;base64,"},{"byteLength":900,"uri":"data:application/octet-stream;base64,"},{"byteLength":312,"uri":"data:application/octet-stream;base64,"},{"byteLength":1248,"uri":"data:application/octet-stream;base64,"},{"byteLength":216,"uri":"data:application/octet-stream;base64,"},{"byteLength":648,"uri":"data:application/octet-stream;base64,"},{"byteLength":312,"uri":"data:application/octet-stream;base64,"},{"byteLength":1248,"uri":"data:application/octet-stream;base64,"},{"byteLength":312,"uri":"data:application/octet-stream;base64,"},{"byteLength":1248,"uri":"data:application/octet-stream;base64,"},{"byteLength":312,"uri":"data:application/octet-stream;base64,"},{"byteLength":936,"uri":"data:application/octet-stream;base64,"},{"byteLength":312,"uri":"data:application/octet-stream;base64,"},{"byteLength":1248,"uri":"data:application/octet-stream;base64,"}],"images":[],"materials":[{"pbrMetallicRoughness":{"metallicFactor":0.0,"roughnessFactor":1.0}}],"meshes":[{"name":"polySurface164_lambert7_0","primitives":[{"attributes":{"JOINTS_0":41,"NORMAL":2,"POSITION":0,"TANGENT":3,"TEXCOORD_0":4,"WEIGHTS_0":42},"indices":1,"material":0,"mode":5},{"attributes":{"JOINTS_0":41,"NORMAL":7,"POSITION":5,"TANGENT":8,"TEXCOORD_0":9,"WEIGHTS_0":42},"indices":6,"material":0,"mode":4}]},{"name":"polySurface164_capelli1_0","primitives":[{"attributes":{"JOINTS_0":43,"NORMAL":12,"POSITION":10,"TANGENT":13,"TEXCOORD_0":14,"WEIGHTS_0":44},"indices":11,"material":0,"mode":5},{"attributes":{"JOINTS_0":43,"NORMAL":17,"POSITION":15,"TANGENT":18,"TEXCOORD_0":19,"WEIGHTS_0":44},"indices":16,"material":0,"mode":4}]},{"name":"polySurface164_lambert8_0","primitives":[{"attributes":{"JOINTS_0":45,"NORMAL":22,"POSITION":20,"TANGENT":23,"TEXCOORD_0":24,"WEIGHTS_0":46},"indices":21,"material":0,"mode":5},{"attributes":{"JOINTS_0":45,"NORMAL":27,"POSITION":25,"TANGENT":28,"TEXCOORD_0":29,"WEIGHTS_0":46},"indices":26,"material":0,"mode":4}]},{"name":"polySurface164_lambert9_0","primitives":[{"attributes":{"JOINTS_0":47,"NORMAL":32,"POSITION":30,"TANGENT":33,"TEXCOORD_0":34,"WEIGHTS_0":48},"indices":31,"material":0,"mode":5},{"attributes":{"JOINTS_0":47,"NORMAL":37,"POSITION":35,"TANGENT":38,"TEXCOORD_0":39,"WEIGHTS_0":48},"indices":36,"material":0,"mode":4}]}],"nodes":[{"mesh":0,"name":"polySurface164_lambert7_0","skin":0},{"mesh":1,"name":"polySurface164_capelli1_0","skin":0},{"mesh":2,"name":"polySurface164_lambert8_0","skin":0},{"mesh":3,"name":"polySurface164_lambert9_0","skin":0},{"name":"mixamorig:HeadTop_End_07","rotation":[0.0,0.0,0.0,1.0],"scale":[1.0,1.0,1.0],"translation":[0.0,95.2239990234375,10.381799697875977]},{"children":[4],"name":"mixamorig:Head_06","rotation":[0.0,0.0,0.0,1.0],"scale":[1.0,1.0,1.0],"translation":[0.0,10.993900299072266,1.1986199617385864]},{"children":[5],"name":"mixamorig:Neck_05","rotation":[0.04828487608712655,0.0,0.0,0.9988336051321328],"scale":[1.0,0.9999998807907104,0.9999998807907104],"translation":[0.0,14.99619960784912,1.1055300319640082e-6]},{"name":"mixamorig:LeftHandThumb4_014","rotation":[-7.19725e-9,6.9389e-18,4.9941e-26,1.0],"scale":[1.0,1.0,1.0],"translation":[0.7926539778709412,7.01209020614624,-2.5561701022525085e-7]},{"children":[7],"name":"mixamorig:LeftHandThumb3_013","rotation":[-0.13694677931912477,2.369305160331366e-17,3.129512868626581e-17,0.9905784066060204],"scale":[1.0,0.9999998211860656,0.9999998211860656],"translation":[-2.36572003364563,8.163069725036621,-2.1363800328799698e-7]},{"children":[8],"name":"mixamorig:LeftHandThumb2_00","rotation":[0.127969117550277,-1.0655546777695293e-17,-8.258196919371045e-17,0.9917781530934264],"scale":[1.0,1.000000238418579,1.000000238418579],"translation":[1.573070049285889,6.253399848937988,5.287990134661413e-8]},{"children":[9],"name":"mixamorig:LeftHandThumb1_012","rotation":[0.1174928063006496,0.05869596837977735,0.44303480790170807,0.8868316541210824],"scale":[0.9999996423721312,1.0000003576278689,0.9999993443489076],"translation":[-4.853670120239258,6.1046600341796875,2.0355000495910645]},{"name":"mixamorig:LeftHandIndex4_018","rotation":[-6.4635e-9,-1.040835e-17,1.1102249999999995e-16,1.0],"scale":[1.0,1.0,1.0],"translation":[0.008129949681460857,4.330679893493652,-9.74447988966176e-9]},{"children":[11],"name":"mixamorig:LeftHandIndex3_017","rotation":[-0.032702444773305354,-2.641471041619476e-18,2.7684008606826747e-17,0.9994651320110424],"scale":[1.0,0.9999998807907104,0.9999998807907104],"translation":[-0.004966400098055601,6.113369941711426,-2.544580013363884e-8]},{"children":[12],"name":"mixamorig:LeftHandIndex2_016","rotation":[0.011632791257957366,1.614376676030197e-19,1.3876866427200012e-17,0.9999323367946276],"scale":[1.0,0.9999996423721312,0.9999996423721312],"translation":[-0.003163740038871765,6.594729900360107,-7.786859868019748e-8]},{"children":[13],"name":"mixamorig:LeftHandIndex1_015","rotation":[-0.006463523570751154,0.0001593434653139789,-0.02464527404330149,0.9996753512716688],"scale":[0.9999998211860656,1.0000003576278689,0.9999995827674866],"translation":[-5.1184000968933105,19.765300750732425,0.02549310028553009]},{"name":"mixamorig:LeftHandMiddle4_022","rotation":[-1.77963e-9,3.469445e-18,-8.32665e-17,1.0],"scale":[1.0,1.0,1.0],"translation":[0.016193199902772903,4.378689765930176,-2.431439938277435e-8]},{"children":[15],"name":"mixamorig:LeftHandMiddle3_021","rotation":[-0.006531187256799014,0.0,0.0,0.9999786715690634],"scale":[1.0,1.0000003576278689,1.0000003576278689],"translation":[0.020545700564980507,6.577779769897461,-9.224530117535325e-8]},{"children":[16],"name":"mixamorig:LeftHandMiddle2_020","rotation":[-0.1313577491854752,-1.955307993567804e-17,2.5407307750846506e-17,0.991335030012022],"scale":[1.0,0.999999701976776,0.999999701976776],"translation":[-0.03673870116472244,6.792240142822266,-3.6143198656191096e-8]},{"children":[17],"name":"mixamorig:LeftHandMiddle1_019","rotation":[0.11335283591626216,-0.005655497507580918,-0.049508895234616386,0.992304398473749],"scale":[1.000000238418579,1.0,0.999999701976776],"translation":[5.1184000968933105,18.219999313354492,-0.571008026599884]},{"children":[10,14,18],"name":"mixamorig:LeftHand_011","rotation":[0.05676426982125075,0.1866573065799222,0.11630275484916712,0.9738637157151756],"scale":[0.999999463558197,1.0,1.0000003576278689],"translation":[-7.173299820806278e-8,29.507299423217773,-1.5133299768876898e-7]},{"children":[19],"name":"mixamorig:LeftForeArm_010","rotation":[0.1702752023355706,0.014808344651752807,0.0853654111194823,0.9815802641570808],"scale":[1.0,1.0000001192092896,0.9999995231628418],"translation":[1.5878400461133427e-7,13.942500114440918,-1.829209992365577e-7]},{"children":[20],"name":"mixamorig:LeftArm_09","rotation":[-0.3125583981595029,-0.1832723453178561,-0.06159401105960853,0.930013264950159],"scale":[1.0000003576278689,1.0,1.0000001192092896],"translation":[3.5920301399983146e-8,17.650699615478516,2.930320022187516e-7]},{"children":[21],"name":"mixamorig:LeftShoulder_08","rotation":[-0.5814362095069932,-0.387253838777137,0.6138683471967867,-0.3676031160592935],"scale":[1.0,1.0000003576278689,0.999999701976776],"translation":[8.01494026184082,11.019200325012209,-0.44117599725723267]},{"name":"mixamorig:RightHandThumb4_030","rotation":[5.334199999999999e-9,2.77556e-17,-2.77556e-17,1.0],"scale":[1.0,1.0,1.0],"translation":[-0.8603749871253967,6.706960201263428,6.851669809293527e-8]},{"children":[23],"name":"mixamorig:RightHandThumb3_029","rotation":[-0.1056126483035027,2.466901342846167e-17,3.0531703974263265e-17,0.9944073453662342],"scale":[1.0,1.0000001192092896,1.0000001192092896],"translation":[2.208580017089844,8.24629020690918,-1.1323899684612117e-7]},{"children":[24],"name":"mixamorig:RightHandThumb2_028","rotation":[0.09226860455839456,1.1257621020394729e-17,-2.8917659164918267e-17,0.9957341535835992],"scale":[1.0,1.0,1.0],"translation":[-1.3481999635696411,6.2824201583862305,-2.4390300268350984e-7]},{"children":[25],"name":"mixamorig:RightHandThumb1_027","rotation":[0.12372330057656858,-0.059036808039600513,-0.4265865870952702,0.8939972504998958],"scale":[0.9999999403953552,1.0000001192092896,0.9999995231628418],"translation":[4.814899921417236,6.064499855041504,2.1327600479125977]},{"name":"mixamorig:RightHandIndex4_034","rotation":[-1.21955e-8,-2.6020849999999994e-18,-1.3877799999999996e-17,1.0],"scale":[1.0,1.0,1.0],"translation":[0.025837799534201625,3.743890047073364,7.071950136605665e-9]},{"children":[27],"name":"mixamorig:RightHandIndex3_033","rotation":[0.09790283431022144,-2.589585492571683e-18,2.5475125415128903e-19,0.9951959782043064],"scale":[1.0,0.9999999403953552,0.9999999403953552],"translation":[-0.01873119920492172,6.182549953460693,-1.0167899944235614e-7]},{"children":[28],"name":"mixamorig:RightHandIndex2_032","rotation":[-0.012958040255279794,-4.3364444692385474e-19,-5.6196496584285526e-21,0.9999160410718224],"scale":[1.0,0.9999998211860656,0.9999998211860656],"translation":[-0.007106630131602287,6.306550025939941,-4.925799856891899e-8]},{"children":[29],"name":"mixamorig:RightHandIndex1_031","rotation":[0.012643842024197651,0.0011522316604019572,0.09074626281722016,0.9957931117485974],"scale":[1.0000004768371582,0.999999463558197,1.0000003576278689],"translation":[4.82774019241333,20.41360092163086,-0.08797500282526016]},{"name":"mixamorig:RightHandMiddle4_038","rotation":[8.0135e-10,-1.7347250000000002e-18,2.08167e-17,1.0],"scale":[1.0,1.0,1.0],"translation":[-0.03224819898605347,5.375629901885986,-3.968250172903254e-9]},{"children":[31],"name":"mixamorig:RightHandMiddle3_037","rotation":[-0.06617200257290762,5.245626715183716e-18,-1.3560393148721589e-17,0.997808231112331],"scale":[1.0,1.0000004768371582,1.0000004768371582],"translation":[0.01465499959886074,7.017670154571533,1.0966500241238465e-7]},{"children":[32],"name":"mixamorig:RightHandMiddle2_036","rotation":[-0.12902546880066565,1.2866495738543173e-17,8.67148287110255e-18,0.9916412801012124],"scale":[1.0,1.0000001192092896,1.0000001192092896],"translation":[0.017593100666999817,6.892590045928955,1.0980500064761145e-7]},{"children":[33],"name":"mixamorig:RightHandMiddle1_035","rotation":[0.11489706157151752,0.0093569756486862,0.08062802730225233,0.990055671900521],"scale":[0.9999996423721312,1.0000005960464478,0.9999998211860656],"translation":[-4.82774019241333,16.98310089111328,-0.5215319991111755]},{"children":[26,30,34],"name":"mixamorig:RightHand_026","rotation":[0.0545263984706397,-0.1892284090928581,-0.1261608215281243,0.9722669017164984],"scale":[1.0000001192092896,1.0000003576278689,0.999999701976776],"translation":[-6.449520029150335e-9,29.50979995727539,2.3411399485695483e-9]},{"children":[35],"name":"mixamorig:RightForeArm_025","rotation":[0.1739809995530315,-0.01739774271481958,-0.09796888113759308,0.9797091551433612],"scale":[1.0000001192092896,0.9999993443489076,1.0000003576278689],"translation":[8.796150297030182e-8,13.974300384521484,-5.783270040637945e-8]},{"children":[36],"name":"mixamorig:RightArm_024","rotation":[-0.31158584767650244,0.17992290229311508,0.06021099529171412,0.9310835863681564],"scale":[1.0000003576278689,0.9999995827674866,1.0000004768371582],"translation":[3.1185198423600013e-8,17.653099060058594,-2.080130059312069e-7]},{"children":[37],"name":"mixamorig:RightShoulder_023","rotation":[0.577373206837065,-0.38994721099580826,0.6172241641803338,0.36553479152493895],"scale":[1.0000001192092896,1.0,1.0000003576278689],"translation":[-8.01494026184082,11.028800010681152,-0.5409680008888245]},{"children":[6,22,38],"name":"mixamorig:Spine2_04","rotation":[1.38778e-17,0.0,0.0,1.0],"scale":[1.0,1.0,1.0],"translation":[0.0,13.329999923706056,-9.18327991428214e-9]},{"children":[39],"name":"mixamorig:Spine1_03","rotation":[-3.9953849999999914e-8,0.0,0.0,0.9999999999999992],"scale":[1.0,1.0,1.0],"translation":[0.0,11.663700103759766,-6.150659714876383e-8]},{"children":[40],"name":"mixamorig:Spine_02","rotation":[-0.04828482637830968,0.0,0.0,0.9988336075351186],"scale":[1.0,0.9999998211860656,0.9999998211860656],"translation":[0.0,9.9508695602417,-0.9643290042877196]},{"name":"mixamorig:LeftToe_End_043","rotation":[-1.98911e-10,-6.905e-18,-2.6020850000000002e-18,1.0],"scale":[1.0,1.0,1.0],"translation":[-5.403750225063675e-10,7.529669761657715,2.6373900841036853e-9]},{"children":[42],"name":"mixamorig:LeftToeBase_042","rotation":[0.3732227754638712,-0.03619691681886039,0.01457461765235083,0.926920775259768],"scale":[1.000000238418579,1.0000003576278689,0.9999999403953552],"translation":[2.0255800592394735e-8,16.518400192260742,-1.82815000471237e-7]},{"children":[43],"name":"mixamorig:LeftFoot_041","rotation":[0.4363142803807636,0.02760955747408169,-0.01339578756220938,0.8992708790723316],"scale":[1.0000004768371582,1.0000003576278689,0.9999998211860656],"translation":[-4.376330053901256e-8,24.455900192260746,1.1369899688418172e-8]},{"children":[44],"name":"mixamorig:LeftLeg_040","rotation":[-0.017545999770399785,0.00010157374079754284,-0.005787988746387188,0.9998292988111096],"scale":[1.0,0.999999701976776,0.9999997615814208],"translation":[-3.139840032417851e-8,29.884899139404297,2.8169599985972127e-8]},{"children":[45],"name":"mixamorig:LeftUpLeg_039","rotation":[-0.0010135335749190985,-0.03475385064048701,0.9989706708302296,-0.029133167291149564],"scale":[0.9999995231628418,1.0000001192092896,0.999999701976776],"translation":[12.864800453186035,-5.537519931793213,-0.47578999400138855]},{"name":"mixamorig:RightToe_End_048","rotation":[-3.515355e-10,-1.19242e-16,-3.469445e-18,1.0],"scale":[1.0,1.0,1.0],"translation":[1.3906400475605094e-9,7.429029941558838,5.187529961148129e-9]},{"children":[47],"name":"mixamorig:RightToeBase_047","rotation":[0.37231476909115024,0.035505933889748875,-0.014255492571603322,0.9273175412482996],"scale":[0.9999997615814208,1.000000238418579,0.9999996423721312],"translation":[1.5155499966112984e-8,16.549999237060547,2.498179973997594e-8]},{"children":[48],"name":"mixamorig:RightFoot_046","rotation":[0.4436210639029268,-0.0268567746391541,0.013301381132317722,0.8957132010736552],"scale":[1.0000004768371582,1.0000001192092896,0.9999998807907104],"translation":[-1.4824699690052512e-8,24.4955997467041,1.4862600039577956e-8]},{"children":[49],"name":"mixamorig:RightLeg_045","rotation":[-0.019404775701306495,-0.0001125505349805702,0.005798962632044723,0.9997948859864998],"scale":[1.000000238418579,1.0000003576278689,1.0000001192092896],"translation":[-4.6216598548198824e-8,29.908899307250977,1.529780035980366e-7]},{"children":[50],"name":"mixamorig:RightUpLeg_044","rotation":[0.0011688870743914205,-0.04011314241214416,0.9987705102062404,0.029103907834289636],"scale":[0.9999998211860656,1.000000238418579,0.9999998807907104],"translation":[-12.864800453186035,-5.537519931793213,-0.16470900177955627]},{"children":[41,46,51],"name":"mixamorig:Hips_01","rotation":[0.0,0.0,0.0,1.0],"scale":[1.0,1.0,1.0],"translation":[0.0,71.20960235595703,-4.628210067749023]},{"children":[52],"name":"Skeleton"},{"children":[53],"name":"RootNode"},{"children":[54],"name":"Stylized Soccer Player","rotation":[1.1102230246251563e-16,0.0,0.0,1.0],"scale":[1.0,1.0,1.0],"translation":[0.0,0.0,0.0]}],"samplers":[{"magFilter":9729,"minFilter":9729,"wrapS":10497,"wrapT":10497},{"magFilter":9729,"minFilter":9729,"wrapS":10497,"wrapT":10497},{"magFilter":9729,"minFilter":9729,"wrapS":10497,"wrapT":10497},{"magFilter":9729,"minFilter":9729,"wrapS":10497,"wrapT":10497}],"scene":0,"scenes":[{"nodes":[55,0,1,2,3]}],"skins":[{"inverseBindMatrices":40,"joints":[4,5,6,7,8,9,10,11,12,13,14,15,16,17,18,19,20,21,22,23,24,25,26,27,28,29,30,31,32,33,34,35,36,37,38,39,40,41,42,43,44,45,46,47,48,49,50,51,52]}],"textures":[]}