{"accessors":[{"bufferView":0,"componentType":5126,"count":24,"max":[0.006249499972909689,0.7499997615814209,0.1249995008111],"min":[-0.24375000596046448,0.0,-0.125],"type":"VEC3"},{"bufferView":1,"componentType":5125,"count":34,"type":"SCALAR"},{"bufferView":2,"componentType":5126,"count":24,"type":"VEC3"},{"bufferView":3,"componentType":5126,"count":24,"type":"VEC4"},{"bufferView":4,"componentType":5126,"count":24,"type":"VEC2"},{"bufferView":5,"componentType":5126,"count":24,"max":[0.02187539078295231,0.7656244039535522,0.14062538743019104],"min":[-0.2593750059604645,-0.015625,-0.140625],"type":"VEC3"},{"bufferView":6,"componentType":5125,"count":34,"type":"SCALAR"},{"bufferView":7,"componentType":5126,"count":24,"type":"VEC3"},{"bufferView":8,"componentType":5126,"count":24,"type":"VEC4"},{"bufferView":9,"componentType":5126,"count":24,"type":"VEC2"},{"bufferView":10,"componentType":5126,"count":24,"max":[0.2437494993209839,0.7499997615814209,0.1249995008111],"min":[-0.0062500000931322575,0.0,-0.125],"type":"VEC3"},{"bufferView":11,"componentType":5125,"count":34,"type":"SCALAR"},{"bufferView":12,"componentType":5126,"count":24,"type":"VEC3"},{"bufferView":13,"componentType":5126,"count":24,"type":"VEC4"},{"bufferView":14,"componentType":5126,"count":24,"type":"VEC2"},{"bufferView":15,"componentType":5126,"count":24,"max":[0.2593753933906555,0.7656244039535522,0.14062538743019104],"min":[-0.02187499962747097,-0.015625,-0.140625],"type":"VEC3"},{"bufferView":16,"componentType":5125,"count":34,"type":"SCALAR"},{"bufferView":17,"componentType":5126,"count":24,"type":"VEC3"},{"bufferView":18,"componentType":5126,"count":24,"type":"VEC4"},{"bufferView":19,"componentType":5126,"count":24,"type":"VEC2"},{"bufferView":20,"componentType":5126,"count":24,"max":[0.26562488079071045,1.5156244039535522,0.14062538743019104],"min":[-0.265625,0.734375,-0.140625],"type":"VEC3"},{"bufferView":21,"componentType":5125,"count":34,"type":"SCALAR"},{"bufferView":22,"componentType":5126,"count":24,"type":"VEC3"},{"bufferView":23,"componentType":5126,"count":24,"type":"VEC4"},{"bufferView":24,"componentType":5126,"count":24,"type":"VEC2"},{"bufferView":25,"componentType":5126,"count":24,"max":[0.2504778206348419,1.4999407529830933,0.12497950345277786],"min":[-0.250014990568161,0.7499409914016724,-0.12501999735832214],"type":"VEC3"},{"bufferView":26,"componentType":5125,"count":34,"type":"SCALAR"},{"bufferView":27,"componentType":5126,"count":24,"type":"VEC3"},{"bufferView":28,"componentType":5126,"count":24,"type":"VEC4"},{"bufferView":29,"componentType":5126,"count":24,"type":"VEC2"},{"bufferView":30,"componentType":5126,"count":24,"max":[0.2500002682209015,1.4374995231628418,0.1249995008111],"min":[-0.25,1.1875,-0.125],"type":"VEC3"},{"bufferView":31,"componentType":5125,"count":34,"type":"SCALAR"},{"bufferView":32,"componentType":5126,"count":24,"type":"VEC3"},{"bufferView":33,"componentType":5126,"count":24,"type":"VEC4"},{"bufferView":34,"componentType":5126,"count":24,"type":"VEC2"},{"bufferView":35,"componentType":5126,"count":24,"max":[0.26562488079071045,1.4531303644180298,0.14062538743019104],"min":[-0.265625,1.1718800067901611,-0.140625],"type":"VEC3"},{"bufferView":36,"componentType":5125,"count":34,"type":"SCALAR"},{"bufferView":37,"componentType":5126,"count":24,"type":"VEC3"},{"bufferView":38,"componentType":5126,"count":24,"type":"VEC4"},{"bufferView":39,"componentType":5126,"count":24,"type":"VEC2"},{"bufferView":40,"componentType":5126,"count":24,"max":[0.2500002682209015,2.000000238418579,0.2500002682209015],"min":[-0.25,1.5,-0.25],"type":"VEC3"},{"bufferView":41,"componentType":5125,"count":34,"type":"SCALAR"},{"bufferView":42,"componentType":5126,"count":24,"type":"VEC3"},{"bufferView":43,"componentType":5126,"count":24,"type":"VEC4"},{"bufferView":44,"componentType":5126,"count":24,"type":"VEC2"},{"bufferView":45,"componentType":5126,"count":24,"max":[0.2812495231628418,2.031249523162842,0.2812495231628418],"min":[-0.28125,1.46875,-0.28125],"type":"VEC3"},{"bufferView":46,"componentType":5125,"count":34,"type":"SCALAR"},{"bufferView":47,"componentType":5126,"count":24,"type":"VEC3"},{"bufferView":48,"componentType":5126,"count":24,"type":"VEC4"},{"bufferView":49,"componentType":5126,"count":24,"type":"VEC2"},{"bufferView":50,"componentType":5126,"count":24,"max":[-0.2500147521495819,1.4999407529830933,0.12497950345277786],"min":[-0.437514990568161,0.7499409914016724,-0.12501999735832214],"type":"VEC3"},{"bufferView":51,"componentType":5125,"count":34,"type":"SCALAR"},{"bufferView":52,"componentType":5126,"count":24,"type":"VEC3"},{"bufferView":53,"componentType":5126,"count":24,"type":"VEC4"},{"bufferView":54,"componentType":5126,"count":24,"type":"VEC2"},{"bufferView":55,"componentType":5126,"count":24,"max":[-0.23437511920928955,1.5156244039535522,0.14062538743019104],"min":[-0.453125,0.734375,-0.140625],"type":"VEC3"},{"bufferView":56,"componentType":5125,"count":34,"type":"SCALAR"},{"bufferView":57,"componentType":5126,"count":24,"type":"VEC3"},{"bufferView":58,"componentType":5126,"count":24,"type":"VEC4"},{"bufferView":59,"componentType":5126,"count":24,"type":"VEC2"},{"bufferView":60,"componentType":5126,"count":24,"max":[0.4379776418209076,1.4999407529830933,0.12497950345277786],"min":[0.2504773736000061,0.7499409914016724,-0.12501999735832214],"type":"VEC3"},{"bufferView":61,"componentType":5125,"count":34,"type":"SCALAR"},{"bufferView":62,"componentType":5126,"count":24,"type":"VEC3"},{"bufferView":63,"componentType":5126,"count":24,"type":"VEC4"},{"bufferView":64,"componentType":5126,"count":24,"type":"VEC2"},{"bufferView":65,"componentType":5126,"count":24,"max":[0.4531248807907105,1.5156244039535522,0.14062538743019104],"min":[0.234375,0.734375,-0.140625],"type":"VEC3"},{"bufferView":66,"componentType":5125,"count":34,"type":"SCALAR"},{"bufferView":67,"componentType":5126,"count":24,"type":"VEC3"},{"bufferView":68,"componentType":5126,"count":24,"type":"VEC4"},{"bufferView":69,"componentType":5126,"count":24,"type":"VEC2"},{"bufferView":70,"componentType":5126,"count":12,"max":[2.5],"min":[0.0],"type":"SCALAR"},{"bufferView":71,"componentType":5126,"count":12,"type":"VEC3"},{"bufferView":72,"componentType":5126,"count":12,"max":[2.5],"min":[0.0],"type":"SCALAR"},{"bufferView":73,"componentType":5126,"count":12,"type":"VEC3"},{"bufferView":74,"componentType":5126,"count":12,"max":[2.5],"min":[0.0],"type":"SCALAR"},{"bufferView":75,"componentType":5126,"count":12,"type":"VEC4"},{"bufferView":76,"componentType":5126,"count":12,"max":[2.5],"min":[0.0],"type":"SCALAR"},{"bufferView":77,"componentType":5126,"count":12,"type":"VEC3"},{"bufferView":78,"componentType":5126,"count":12,"max":[2.5],"min":[0.0],"type":"SCALAR"},{"bufferView":79,"componentType":5126,"count":12,"type":"VEC4"},{"bufferView":80,"componentType":5126,"count":8,"max":[2.5],"min":[0.0],"type":"SCALAR"},{"bufferView":81,"componentType":5126,"count":8,"type":"VEC3"},{"bufferView":82,"componentType":5126,"count":12,"max":[2.5],"min":[0.0],"type":"SCALAR"},{"bufferView":83,"componentType":5126,"count":12,"type":"VEC4"},{"bufferView":84,"componentType":5126,"count":7,"max":[2.0833332538604736],"min":[0.25],"type":"SCALAR"},{"bufferView":85,"componentType":5126,"count":7,"type":"VEC3"},{"bufferView":86,"componentType":5126,"count":12,"max":[2.5],"min":[0.0],"type":"SCALAR"},{"bufferView":87,"componentType":5126,"count":12,"type":"VEC4"},{"bufferView":88,"componentType":5126,"count":12,"max":[2.5],"min":[0.0],"type":"SCALAR"},{"bufferView":89,"componentType":5126,"count":12,"type":"VEC3"},{"bufferView":90,"componentType":5126,"count":4,"max":[2.5],"min":[0.0],"type":"SCALAR"},{"bufferView":91,"componentType":5126,"count":4,"type":"VEC4"},{"bufferView":92,"componentType":5126,"count":4,"max":[2.5],"min":[0.0],"type":"SCALAR"},{"bufferView":93,"componentType":5126,"count":4,"type":"VEC3"},{"bufferView":94,"componentType":5126,"count":4,"max":[2.5],"min":[0.0],"type":"SCALAR"},{"bufferView":95,"componentType":5126,"count":4,"type":"VEC3"},{"bufferView":96,"componentType":5126,"count":4,"max":[2.5],"min":[0.0],"type":"SCALAR"},{"bufferView":97,"componentType":5126,"count":4,"type":"VEC4"},{"bufferView":98,"componentType":5126,"count":4,"max":[2.5],"min":[0.0],"type":"SCALAR"},{"bufferView":99,"componentType":5126,"count":4,"type":"VEC3"},{"bufferView":100,"componentType":5126,"count":4,"max":[2.5],"min":[0.0],"type":"SCALAR"},{"bufferView":101,"componentType":5126,"count":4,"type":"VEC4"},{"bufferView":102,"componentType":5126,"count":4,"max":[2.5],"min":[0.0],"type":"SCALAR"},{"bufferView":103,"componentType":5126,"count":4,"type":"VEC3"},{"bufferView":104,"componentType":5126,"count":4,"max":[2.5],"min":[0.0],"type":"SCALAR"},{"bufferView":105,"componentType":5126,"count":4,"type":"VEC4"},{"bufferView":106,"componentType":5126,"count":4,"max":[2.5],"min":[0.0],"type":"SCALAR"},{"bufferView":107,"componentType":5126,"count":4,"type":"VEC3"},{"bufferView":108,"componentType":5126,"count":4,"max":[2.5],"min":[0.0],"type":"SCALAR"},{"bufferView":109,"componentType":5126,"count":4,"type":"VEC4"},{"bufferView":110,"componentType":5126,"count":4,"max":[2.5],"min":[0.0],"type":"SCALAR"},{"bufferView":111,"componentType":5126,"count":4,"type":"VEC3"},{"bufferView":112,"componentType":5126,"count":5,"max":[2.4166667461395264],"min":[0.0],"type":"SCALAR"},{"bufferView":113,"componentType":5126,"count":5,"type":"VEC4"},{"bufferView":114,"componentType":5126,"count":11,"max":[2.4166667461395264],"min":[0.0],"type":"SCALAR"},{"bufferView":115,"componentType":5126,"count":11,"type":"VEC3"},{"bufferView":116,"componentType":5126,"count":5,"max":[2.4166667461395264],"min":[0.0],"type":"SCALAR"},{"bufferView":117,"componentType":5126,"count":5,"type":"VEC4"},{"bufferView":118,"componentType":5126,"count":7,"max":[2.4166667461395264],"min":[0.0],"type":"SCALAR"},{"bufferView":119,"componentType":5126,"count":7,"type":"VEC3"},{"bufferView":120,"componentType":5126,"count":6,"max":[2.4166667461395264],"min":[0.0],"type":"SCALAR"},{"bufferView":121,"componentType":5126,"count":6,"type":"VEC3"},{"bufferView":122,"componentType":5126,"count":11,"max":[2.4166667461395264],"min":[0.0],"type":"SCALAR"},{"bufferView":123,"componentType":5126,"count":11,"type":"VEC4"},{"bufferView":124,"componentType":5126,"count":5,"max":[2.4166667461395264],"min":[0.0],"type":"SCALAR"},{"bufferView":125,"componentType":5126,"count":5,"type":"VEC3"},{"bufferView":126,"componentType":5126,"count":11,"max":[2.4166667461395264],"min":[0.0],"type":"SCALAR"},{"bufferView":127,"componentType":5126,"count":11,"type":"VEC4"},{"bufferView":128,"componentType":5126,"count":5,"max":[2.4166667461395264],"min":[0.0],"type":"SCALAR"},{"bufferView":129,"componentType":5126,"count":5,"type":"VEC3"},{"bufferView":130,"componentType":5126,"count":5,"max":[2.4166667461395264],"min":[0.0],"type":"SCALAR"},{"bufferView":131,"componentType":5126,"count":5,"type":"VEC4"},{"bufferView":132,"componentType":5126,"count":11,"max":[2.4166667461395264],"min":[0.0],"type":"SCALAR"},{"bufferView":133,"componentType":5126,"count":11,"type":"VEC3"},{"bufferView":134,"componentType":5126,"count":5,"max":[2.4166667461395264],"min":[0.0],"type":"SCALAR"},{"bufferView":135,"componentType":5126,"count":5,"type":"VEC4"},{"bufferView":136,"componentType":5126,"count":5,"max":[2.5],"min":[0.0],"type":"SCALAR"},{"bufferView":137,"componentType":5126,"count":5,"type":"VEC3"},{"bufferView":138,"componentType":5126,"count":5,"max":[2.5],"min":[0.0],"type":"SCALAR"},{"bufferView":139,"componentType":5126,"count":5,"type":"VEC4"},{"bufferView":140,"componentType":5126,"count":5,"max":[2.5],"min":[0.0],"type":"SCALAR"},{"bufferView":141,"componentType":5126,"count":5,"type":"VEC3"},{"bufferView":142,"componentType":5126,"count":4,"max":[2.5],"min":[0.0],"type":"SCALAR"},{"bufferView":143,"componentType":5126,"count":4,"type":"VEC4"},{"bufferView":144,"componentType":5126,"count":3,"max":[2.5],"min":[0.0],"type":"SCALAR"},{"bufferView":145,"componentType":5126,"count":3,"type":"VEC3"},{"bufferView":146,"componentType":5126,"count":3,"max":[2.5],"min":[0.0],"type":"SCALAR"},{"bufferView":147,"componentType":5126,"count":3,"type":"VEC3"},{"bufferView":148,"componentType":5126,"count":6,"max":[2.5],"min":[0.0],"type":"SCALAR"},{"bufferView":149,"componentType":5126,"count":6,"type":"VEC4"},{"bufferView":150,"componentType":5126,"count":4,"max":[2.5],"min":[0.0],"type":"SCALAR"},{"bufferView":151,"componentType":5126,"count":4,"type":"VEC3"},{"bufferView":152,"componentType":5126,"count":6,"max":[2.5],"min":[0.0],"type":"SCALAR"},{"bufferView":153,"componentType":5126,"count":6,"type":"VEC4"},{"bufferView":154,"componentType":5126,"count":4,"max":[2.5],"min":[0.0],"type":"SCALAR"},{"bufferView":155,"componentType":5126,"count":4,"type":"VEC3"},{"bufferView":156,"componentType":5126,"count":5,"max":[2.5],"min":[0.0],"type":"SCALAR"},{"bufferView":157,"componentType":5126,"count":5,"type":"VEC4"},{"bufferView":158,"componentType":5126,"count":5,"max":[2.5],"min":[0.0],"type":"SCALAR"},{"bufferView":159,"componentType":5126,"count":5,"type":"VEC3"},{"bufferView":160,"componentType":5126,"count":4,"max":[2.5],"min":[0.0],"type":"SCALAR"},{"bufferView":161,"componentType":5126,"count":4,"type":"VEC4"},{"bufferView":162,"componentType":5126,"count":4,"max":[2.5],"min":[0.0],"type":"SCALAR"},{"bufferView":163,"componentType":5126,"count":4,"type":"VEC3"},{"bufferView":164,"componentType":5126,"count":9,"max":[5.041666507720947],"min":[0.0],"type":"SCALAR"},{"bufferView":165,"componentType":5126,"count":9,"type":"VEC4"},{"bufferView":166,"componentType":5126,"count":9,"max":[5.041666507720947],"min":[0.0],"type":"SCALAR"},{"bufferView":167,"componentType":5126,"count":9,"type":"VEC4"},{"bufferView":168,"componentType":5126,"count":4,"max":[5.041666507720947],"min":[0.0],"type":"SCALAR"},{"bufferView":169,"componentType":5126,"count":4,"type":"VEC4"},{"bufferView":170,"componentType":5126,"count":9,"max":[5.041666507720947],"min":[0.0],"type":"SCALAR"},{"bufferView":171,"componentType":5126,"count":9,"type":"VEC4"},{"bufferView":172,"componentType":5126,"count":4,"max":[5.041666507720947],"min":[0.0],"type":"SCALAR"},{"bufferView":173,"componentType":5126,"count":4,"type":"VEC4"},{"bufferView":174,"componentType":5126,"count":4,"max":[3.0],"min":[0.0],"type":"SCALAR"},{"bufferView":175,"componentType":5126,"count":4,"type":"VEC4"},{"bufferView":176,"componentType":5126,"count":7,"max":[3.0],"min":[0.0],"type":"SCALAR"},{"bufferView":177,"componentType":5126,"count":7,"type":"VEC4"},{"bufferView":178,"componentType":5126,"count":3,"max":[3.5],"min":[0.0],"type":"SCALAR"},{"bufferView":179,"componentType":5126,"count":3,"type":"VEC4"},{"bufferView":180,"componentType":5126,"count":7,"max":[3.0],"min":[0.0],"type":"SCALAR"},{"bufferView":181,"componentType":5126,"count":7,"type":"VEC4"},{"bufferView":182,"componentType":5126,"count":3,"max":[3.5],"min":[0.0],"type":"SCALAR"},{"bufferView":183,"componentType":5126,"count":3,"type":"VEC4"}],"animations":[{"channels":[{"sampler":0,"target":{"node":25,"path":"translation"}},{"sampler":1,"target":{"node":20,"path":"translation"}},{"sampler":2,"target":{"node":35,"path":"rotation"}},{"sampler":3,"target":{"node":35,"path":"translation"}},{"sampler":4,"target":{"node":30,"path":"rotation"}},{"sampler":5,"target":{"node":30,"path":"translation"}},{"sampler":6,"target":{"node":9,"path":"rotation"}},{"sampler":7,"target":{"node":9,"path":"translation"}},{"sampler":8,"target":{"node":4,"path":"rotation"}},{"sampler":9,"target":{"node":4,"path":"translation"}}],"name":"animation.model.walking","samplers":[{"input":70,"interpolation":"LINEAR","output":71},{"input":72,"interpolation":"LINEAR","output":73},{"input":74,"interpolation":"LINEAR","output":75},{"input":76,"interpolation":"LINEAR","output":77},{"input":78,"interpolation":"LINEAR","output":79},{"input":80,"interpolation":"LINEAR","output":81},{"input":82,"interpolation":"LINEAR","output":83},{"input":84,"interpolation":"LINEAR","output":85},{"input":86,"interpolation":"LINEAR","output":87},{"input":88,"interpolation":"LINEAR","output":89}]},{"channels":[{"sampler":0,"target":{"node":9,"path":"rotation"}},{"sampler":1,"target":{"node":9,"path":"translation"}},{"sampler":2,"target":{"node":25,"path":"translation"}},{"sampler":3,"target":{"node":20,"path":"rotation"}},{"sampler":4,"target":{"node":20,"path":"translation"}},{"sampler":5,"target":{"node":35,"path":"rotation"}},{"sampler":6,"target":{"node":35,"path":"translation"}},{"sampler":7,"target":{"node":30,"path":"rotation"}},{"sampler":8,"target":{"node":30,"path":"translation"}},{"sampler":9,"target":{"node":4,"path":"rotation"}},{"sampler":10,"target":{"node":4,"path":"translation"}}],"name":"animation.model.crouch","samplers":[{"input":90,"interpolation":"LINEAR","output":91},{"input":92,"interpolation":"LINEAR","output":93},{"input":94,"interpolation":"LINEAR","output":95},{"input":96,"interpolation":"LINEAR","output":97},{"input":98,"interpolation":"LINEAR","output":99},{"input":100,"interpolation":"LINEAR","output":101},{"input":102,"interpolation":"LINEAR","output":103},{"input":104,"interpolation":"LINEAR","output":105},{"input":106,"interpolation":"LINEAR","output":107},{"input":108,"interpolation":"LINEAR","output":109},{"input":110,"interpolation":"LINEAR","output":111}]},{"channels":[{"sampler":0,"target":{"node":9,"path":"rotation"}},{"sampler":1,"target":{"node":9,"path":"translation"}},{"sampler":2,"target":{"node":25,"path":"rotation"}},{"sampler":3,"target":{"node":25,"path":"translation"}},{"sampler":4,"target":{"node":20,"path":"translation"}},{"sampler":5,"target":{"node":35,"path":"rotation"}},{"sampler":6,"target":{"node":35,"path":"translation"}},{"sampler":7,"target":{"node":30,"path":"rotation"}},{"sampler":8,"target":{"node":30,"path":"translation"}},{"sampler":9,"target":{"node":4,"path":"rotation"}},{"sampler":10,"target":{"node":4,"path":"translation"}},{"sampler":11,"target":{"node":37,"path":"rotation"}}],"name":"animation.model.runing","samplers":[{"input":112,"interpolation":"LINEAR","output":113},{"input":114,"interpolation":"LINEAR","output":115},{"input":116,"interpolation":"LINEAR","output":117},{"input":118,"interpolation":"LINEAR","output":119},{"input":120,"interpolation":"LINEAR","output":121},{"input":122,"interpolation":"LINEAR","output":123},{"input":124,"interpolation":"LINEAR","output":125},{"input":126,"interpolation":"LINEAR","output":127},{"input":128,"interpolation":"LINEAR","output":129},{"input":130,"interpolation":"LINEAR","output":131},{"input":132,"interpolation":"LINEAR","output":133},{"input":134,"interpolation":"LINEAR","output":135}]},{"channels":[{"sampler":0,"target":{"node":38,"path":"translation"}},{"sampler":1,"target":{"node":9,"path":"rotation"}},{"sampler":2,"target":{"node":9,"path":"translation"}},{"sampler":3,"target":{"node":25,"path":"rotation"}},{"sampler":4,"target":{"node":25,"path":"translation"}},{"sampler":5,"target":{"node":20,"path":"translation"}},{"sampler":6,"target":{"node":35,"path":"rotation"}},{"sampler":7,"target":{"node":35,"path":"translation"}},{"sampler":8,"target":{"node":30,"path":"rotation"}},{"sampler":9,"target":{"node":30,"path":"translation"}},{"sampler":10,"target":{"node":4,"path":"rotation"}},{"sampler":11,"target":{"node":4,"path":"translation"}},{"sampler":12,"target":{"node":37,"path":"rotation"}},{"sampler":13,"target":{"node":37,"path":"translation"}}],"name":"Jumping","samplers":[{"input":136,"interpolation":"LINEAR","output":137},{"input":138,"interpolation":"LINEAR","output":139},{"input":140,"interpolation":"LINEAR","output":141},{"input":142,"interpolation":"LINEAR","output":143},{"input":144,"interpolation":"LINEAR","output":145},{"input":146,"interpolation":"LINEAR","output":147},{"input":148,"interpolation":"LINEAR","output":149},{"input":150,"interpolation":"LINEAR","output":151},{"input":152,"interpolation":"LINEAR","output":153},{"input":154,"interpolation":"LINEAR","output":155},{"input":156,"interpolation":"LINEAR","output":157},{"input":158,"interpolation":"LINEAR","output":159},{"input":160,"interpolation":"LINEAR","output":161},{"input":162,"interpolation":"LINEAR","output":163}]},{"channels":[{"sampler":0,"target":{"node":38,"path":"rotation"}},{"sampler":1,"target":{"node":9,"path":"rotation"}},{"sampler":2,"target":{"node":25,"path":"rotation"}},{"sampler":3,"target":{"node":4,"path":"rotation"}},{"sampler":4,"target":{"node":37,"path":"rotation"}}],"name":"animation.model.turning_clockwise","samplers":[{"input":164,"interpolation":"LINEAR","output":165},{"input":166,"interpolation":"LINEAR","output":167},{"input":168,"interpolation":"LINEAR","output":169},{"input":170,"interpolation":"LINEAR","output":171},{"input":172,"interpolation":"LINEAR","output":173}]},{"channels":[{"sampler":0,"target":{"node":38,"path":"rotation"}},{"sampler":1,"target":{"node":9,"path":"rotation"}},{"sampler":2,"target":{"node":25,"path":"rotation"}},{"sampler":3,"target":{"node":4,"path":"rotation"}},{"sampler":4,"target":{"node":37,"path":"rotation"}}],"name":"turning counter clockwise","samplers":[{"input":174,"interpolation":"LINEAR","output":175},{"input":176,"interpolation":"LINEAR","output":177},{"input":178,"interpolation":"LINEAR","output":179},{"input":180,"interpolation":"LINEAR","output":181},{"input":182,"interpolation":"LINEAR","output":183}]}],"asset":{"version":"2.0"},"bufferViews":[{"buffer":0,"byteLength":288,"target":34962},{"buffer":1,"byteLength":136,"target":34963},{"buffer":2,"byteLength":288,"target":34962},{"buffer":3,"byteLength":384,"target":34962},{"buffer":4,"byteLength":192,"target":34962},{"buffer":5,"byteLength":288,"target":34962},{"buffer":6,"byteLength":136,"target":34963},{"buffer":7,"byteLength":288,"target":34962},{"buffer":8,"byteLength":384,"target":34962},{"buffer":9,"byteLength":192,"target":34962},{"buffer":10,"byteLength":288,"target":34962},{"buffer":11,"byteLength":136,"target":34963},{"buffer":12,"byteLength":288,"target":34962},{"buffer":13,"byteLength":384,"target":34962},{"buffer":14,"byteLength":192,"target":34962},{"buffer":15,"byteLength":288,"target":34962},{"buffer":16,"byteLength":136,"target":34963},{"buffer":17,"byteLength":288,"target":34962},{"buffer":18,"byteLength":384,"target":34962},{"buffer":19,"byteLength":192,"target":34962},{"buffer":20,"byteLength":288,"target":34962},{"buffer":21,"byteLength":136,"target":34963},{"buffer":22,"byteLength":288,"target":34962},{"buffer":23,"byteLength":384,"target":34962},{"buffer":24,"byteLength":192,"target":34962},{"buffer":25,"byteLength":288,"target":34962},{"buffer":26,"byteLength":136,"target":34963},{"buffer":27,"byteLength":288,"target":34962},{"buffer":28,"byteLength":384,"target":34962},{"buffer":29,"byteLength":192,"target":34962},{"buffer":30,"byteLength":288,"target":34962},{"buffer":31,"byteLength":136,"target":34963},{"buffer":32,"byteLength":288,"target":34962},{"buffer":33,"byteLength":384,"target":34962},{"buffer":34,"byteLength":192,"target":34962},{"buffer":35,"byteLength":288,"target":34962},{"buffer":36,"byteLength":136,"target":34963},{"buffer":37,"byteLength":288,"target":34962},{"buffer":38,"byteLength":384,"target":34962},{"buffer":39,"byteLength":192,"target":34962},{"buffer":40,"byteLength":288,"target":34962},{"buffer":41,"byteLength":136,"target":34963},{"buffer":42,"byteLength":288,"target":34962},{"buffer":43,"byteLength":384,"target":34962},{"buffer":44,"byteLength":192,"target":34962},{"buffer":45,"byteLength":288,"target":34962},{"buffer":46,"byteLength":136,"target":34963},{"buffer":47,"byteLength":288,"target":34962},{"buffer":48,"byteLength":384,"target":34962},{"buffer":49,"byteLength":192,"target":34962},{"buffer":50,"byteLength":288,"target":34962},{"buffer":51,"byteLength":136,"target":34963},{"buffer":52,"byteLength":288,"target":34962},{"buffer":53,"byteLength":384,"target":34962},{"buffer":54,"byteLength":192,"target":34962},{"buffer":55,"byteLength":288,"target":34962},{"buffer":56,"byteLength":136,"target":34963},{"buffer":57,"byteLength":288,"target":34962},{"buffer":58,"byteLength":384,"target":34962},{"buffer":59,"byteLength":192,"target":34962},{"buffer":60,"byteLength":288,"target":34962},{"buffer":61,"byteLength":136,"target":34963},{"buffer":62,"byteLength":288,"target":34962},{"buffer":63,"byteLength":384,"target":34962},{"buffer":64,"byteLength":192,"target":34962},{"buffer":65,"byteLength":288,"target":34962},{"buffer":66,"byteLength":136,"target":34963},{"buffer":67,"byteLength":288,"target":34962},{"buffer":68,"byteLength":384,"target":34962},{"buffer":69,"byteLength":192,"target":34962},{"buffer":70,"byteLength":48},{"buffer":71,"byteLength":144},{"buffer":72,"byteLength":48},{"buffer":73,"byteLength":144},{"buffer":74,"byteLength":48},{"buffer":75,"byteLength":192},{"buffer":76,"byteLength":48},{"buffer":77,"byteLength":144},{"buffer":78,"byteLength":48},{"buffer":79,"byteLength":192},{"buffer":80,"byteLength":32},{"buffer":81,"byteLength":96},{"buffer":82,"byteLength":48},{"buffer":83,"byteLength":192},{"buffer":84,"byteLength":28},{"buffer":85,"byteLength":84},{"buffer":86,"byteLength":48},{"buffer":87,"byteLength":192},{"buffer":88,"byteLength":48},{"buffer":89,"byteLength":144},{"buffer":90,"byteLength":16},{"buffer":91,"byteLength":64},{"buffer":92,"byteLength":16},{"buffer":93,"byteLength":48},{"buffer":94,"byteLength":16},{"buffer":95,"byteLength":48},{"buffer":96,"byteLength":16},{"buffer":97,"byteLength":64},{"buffer":98,"byteLength":16},{"buffer":99,"byteLength":48},{"buffer":100,"byteLength":16},{"buffer":101,"byteLength":64},{"buffer":102,"byteLength":16},{"buffer":103,"byteLength":48},{"buffer":104,"byteLength":16},{"buffer":105,"byteLength":64},{"buffer":106,"byteLength":16},{"buffer":107,"byteLength":48},{"buffer":108,"byteLength":16},{"buffer":109,"byteLength":64},{"buffer":110,"byteLength":16},{"buffer":111,"byteLength":48},{"buffer":112,"byteLength":20},{"buffer":113,"byteLength":80},{"buffer":114,"byteLength":44},{"buffer":115,"byteLength":132},{"buffer":116,"byteLength":20},{"buffer":117,"byteLength":80},{"buffer":118,"byteLength":28},{"buffer":119,"byteLength":84},{"buffer":120,"byteLength":24},{"buffer":121,"byteLength":72},{"buffer":122,"byteLength":44},{"buffer":123,"byteLength":176},{"buffer":124,"byteLength":20},{"buffer":125,"byteLength":60},{"buffer":126,"byteLength":44},{"buffer":127,"byteLength":176},{"buffer":128,"byteLength":20},{"buffer":129,"byteLength":60},{"buffer":130,"byteLength":20},{"buffer":131,"byteLength":80},{"buffer":132,"byteLength":44},{"buffer":133,"byteLength":132},{"buffer":134,"byteLength":20},{"buffer":135,"byteLength":80},{"buffer":136,"byteLength":20},{"buffer":137,"byteLength":60},{"buffer":138,"byteLength":20},{"buffer":139,"byteLength":80},{"buffer":140,"byteLength":20},{"buffer":141,"byteLength":60},{"buffer":142,"byteLength":16},{"buffer":143,"byteLength":64},{"buffer":144,"byteLength":12},{"buffer":145,"byteLength":36},{"buffer":146,"byteLength":12},{"buffer":147,"byteLength":36},{"buffer":148,"byteLength":24},{"buffer":149,"byteLength":96},{"buffer":150,"byteLength":16},{"buffer":151,"byteLength":48},{"buffer":152,"byteLength":24},{"buffer":153,"byteLength":96},{"buffer":154,"byteLength":16},{"buffer":155,"byteLength":48},{"buffer":156,"byteLength":20},{"buffer":157,"byteLength":80},{"buffer":158,"byteLength":20},{"buffer":159,"byteLength":60},{"buffer":160,"byteLength":16},{"buffer":161,"byteLength":64},{"buffer":162,"byteLength":16},{"buffer":163,"byteLength":48},{"buffer":164,"byteLength":36},{"buffer":165,"byteLength":144},{"buffer":166,"byteLength":36},{"buffer":167,"byteLength":144},{"buffer":168,"byteLength":16},{"buffer":169,"byteLength":64},{"buffer":170,"byteLength":36},{"buffer":171,"byteLength":144},{"buffer":172,"byteLength":16},{"buffer":173,"byteLength":64},{"buffer":174,"byteLength":16},{"buffer":175,"byteLength":64},{"buffer":176,"byteLength":28},{"buffer":177,"byteLength":112},{"buffer":178,"byteLength":12},{"buffer":179,"byteLength":48},{"buffer":180,"byteLength":28},{"buffer":181,"byteLength":112},{"buffer":182,"byteLength":12},{"buffer":183,"byteLength":48}],"buffers":[{"byteLength":288,"uri":"data:application/octet-stream;base64,"},{"byteLength":136,"uri":"data:application/octet-stream;base64,"},{"byteLength":288,"uri":"data:application/octet-stream;base64,"},{"byteLength":384,"uri":"data:application/octet-stream;base64,"},{"byteLength":192,"uri":"data:application/octet-stream;base64,"},{"byteLength":288,"uri":"data:application/octet-stream;base64,"},{"byteLength":136,"uri":"data:application/octet-stream;base64,"},{"byteLength":288,"uri":"data:application/octet-stream;base64,"},{"byteLength":384,"uri":"data:application/octet-stream;base64,"},{"byteLength":192,"uri":"data:application/octet-stream;base64,"},{"byteLength":288,"uri":"data:application/octet-stream;base64,"},{"byteLength":136,"uri":"data:application/octet-stream;base64,"},{"byteLength":288,"uri":"data:application/octet-stream;base64,"},{"byteLength":384,"uri":"data:application/octet-stream;base64,"},{"byteLength":192,"uri":"data:application/octet-stream;base64,"},{"byteLength":288,"uri":"data:application/octet-stream;base64,"},{"byteLength":136,"uri":"data:application/octet-stream;base64,"},{"byteLength":288,"uri":"data:application/octet-stream;base64,"},{"byteLength":384,"uri":"data:application/octet-stream;base64,"},{"byteLength":192,"uri":"data:application/octet-stream;base64,"},{"byteLength":288,"uri":"data:application/octet-stream;base64,"},{"byteLength":136,"uri":"data:application/octet-stream;base64,"},{"byteLength":288,"uri":"data:application/octet-stream;base64,"},{"byteLength":384,"uri":"data:application/octet-stream;base64,"},{"byteLength":192,"uri":"data:application/octet-stream;base64,"},{"byteLength":288,"uri":"data:application/octet-stream;base64,"},{"byteLength":136,"uri":"data:application/octet-stream;base64,"},{"byteLength":288,"uri":"data:application/octet-stream;base64,"},{"byteLength":384,"uri":"data:application/octet-stream;base64,"},{"byteLength":192,"uri":"data:application/octet-stream;base64,"},{"byteLength":288,"uri":"data:application/octet-stream;base64,"},{"byteLength":136,"uri":"data:application/octet-stream;base64,"},{"byteLength":288,"uri":"data:application/octet-stream;base64,"},{"byteLength":384,"uri":"data:application/octet-stream;base64,"},{"byteLength":192,"uri":"data:application/octet-stream;base64,"},{"byteLength":288,"uri":"data:application/octet-stream;base64,"},{"byteLength":136,"uri":"data:application/octet-stream;base64,"},{"byteLength":288,"uri":"data:application/octet-stream;base64,"},{"byteLength":384,"uri":"data:application/octet-stream;base64,"},{"byteLength":192,"uri":"data:application/octet-stream;base64,"},{"byteLength":288,"uri":"data:application/octet-stream;base64,"},{"byteLength":136,"uri":"data:application/octet-stream;base64,"},{"byteLength":288,"uri":"data:application/octet-stream;base64,"},{"byteLength":384,"uri":"data:application/octet-stream;base64,"},{"byteLength":192,"uri":"data:application/octet-stream;base64,"},{"byteLength":288,"uri":"data:application/octet-stream;base64,"},{"byteLength":136,"uri":"data:application/octet-stream;base64,"},{"byteLength":288,"uri":"data:application/octet-stream;base64,"},{"byteLength":384,"uri":"data:application/octet-stream;base64,"},{"byteLength":192,"uri":"data:application/octet-stream;base64,"},{"byteLength":288,"uri":"data:application/octet-stream;base64,"},{"byteLength":136,"uri":"data:application/octet-stream;base64,"},{"byteLength":288,"uri":"data:application/octet-stream;base64,"},{"byteLength":384,"uri":"data:application/octet-stream;base64,"},{"byteLength":192,"uri":"data:application/octet-stream;base64,"},{"byteLength":288,"uri":"data:application/octet-stream;base64,"},{"byteLength":136,"uri":"data:application/octet-stream;base64,"},{"byteLength":288,"uri":"data:application/octet-stream;base64,"},{"byteLength":384,"uri":"data:application/octet-stream;base64,"},{"byteLength":192,"uri":"data:application/octet-stream;base64,"},{"byteLength":288,"uri":"data:application/octet-stream;base64,"},{"byteLength":136,"uri":"data:application/octet-stream;base64,"},{"byteLength":288,"uri":"data:application/octet-stream;base64,"},{"byteLength":384,"uri":"data:application/octet-stream;base64,"},{"byteLength":192,"uri":"data:application/octet-stream;base64,"},{"byteLength":288,"uri":"data:application/octet-stream;base64,"},{"byteLength":136,"uri":"data:application/octet-stream;base64,"},{"byteLength":288,"uri":"data:application/octet-stream;base64,"},{"byteLength":384,"uri":"data:application/octet-stream;base64,"},{"byteLength":192,"uri":"data:application/octet-stream;base64,"},{"byteLength":48,"uri":"data:application/octet-stream;base64,"},{"byteLength":144,"uri":"data:application/octet-stream;base64,"},{"byteLength":48,"uri":"data:application/octet-stream;base64,"},{"byteLength":144,"uri":"data:application/octet-stream;base64,"},{"byteLength":48,"uri":"data:application/octet-stream;base64,"},{"byteLength":192,"uri":"data:application/octet-stream;base64,"},{"byteLength":48,"uri":"data:application/octet-stream;base64,"},{"byteLength":144,"uri":"data:application/octet-stream;base64,"},{"byteLength":48,"uri":"data:application/octet-stream;base64,"},{"byteLength":192,"uri":"data:application/octet-stream;base64,"},{"byteLength":32,"uri":"data:application/octet-stream;base64,"},{"byteLength":96,"uri":"data:application/octet-stream;base64,"},{"byteLength":48,"uri":"data:application/octet-stream;base64,"},{"byteLength":192,"uri":"data:application/octet-stream;base64,"},{"byteLength":28,"uri":"data:application/octet-stream;base64,"},{"byteLength":84,"uri":"data:application/octet-stream;base64,"},{"byteLength":48,"uri":"data:application/octet-stream;base64,"},{"byteLength":192,"uri":"data:application/octet-stream;base64,"},{"byteLength":48,"uri":"data:application/octet-stream;base64,"},{"byteLength":144,"uri":"data:application/octet-stream;base64,"},{"byteLength":16,"uri":"data:application/octet-stream;base64,"},{"byteLength":64,"uri":"data:application/octet-stream;base64,"},{"byteLength":16,"uri":"data:application/octet-stream;base64,"},{"byteLength":48,"uri":"data:application/octet-stream;base64,"},{"byteLength":16,"uri":"data:application/octet-stream;base64,"},{"byteLength":48,"uri":"data:application/octet-stream;base64,"},{"byteLength":16,"uri":"data:application/octet-stream;base64,"},{"byteLength":64,"uri":"data:application/octet-stream;base64,"},{"byteLength":16,"uri":"data:application/octet-stream;base64,"},{"byteLength":48,"uri":"data:application/octet-stream;base64,"},{"byteLength":16,"uri":"data:application/octet-stream;base64,"},{"byteLength":64,"uri":"data:application/octet-stream;base64,"},{"byteLength":16,"uri":"data:application/octet-stream;base64,"},{"byteLength":48,"uri":"data:application/octet-stream;base64,"},{"byteLength":16,"uri":"data:application/octet-stream;base64,"},{"byteLength":64,"uri":"data:application/octet-stream;base64,"},{"byteLength":16,"uri":"data:application/octet-stream;base64,"},{"byteLength":48,"uri":"data:application/octet-stream;base64,"},{"byteLength":16,"uri":"data:application/octet-stream;base64,"},{"byteLength":64,"uri":"data:application/octet-stream;base64,"},{"byteLength":16,"uri":"data:application/octet-stream;base64,"},{"byteLength":48,"uri":"data:application/octet-stream;base64,"},{"byteLength":20,"uri":"data:application/octet-stream;base64,"},{"byteLength":80,"uri":"data:application/octet-stream;base64,"},{"byteLength":44,"uri":"data:application/octet-stream;base64,"},{"byteLength":132,"uri":"data:application/octet-stream;base64,"},{"byteLength":20,"uri":"data:application/octet-stream;base64,"},{"byteLength":80,"uri":"data:application/octet-stream;base64,"},{"byteLength":28,"uri":"data:application/octet-stream;base64,"},{"byteLength":84,"uri":"data:application/octet-stream;base64,"},{"byteLength":24,"uri":"data:application/octet-stream;base64,"},{"byteLength":72,"uri":"data:application/octet-stream;base64,"},{"byteLength":44,"uri":"data:application/octet-stream;base64,"},{"byteLength":176,"uri":"data:application/octet-stream;base64,"},{"byteLength":20,"uri":"data:application/octet-stream;base64,"},{"byteLength":60,"uri":"data:application/octet-stream;base64,"},{"byteLength":44,"uri":"data:application/octet-stream;base64,"},{"byteLength":176,"uri":"data:application/octet-stream;base64,"},{"byteLength":20,"uri":"data:application/octet-stream;base64,"},{"byteLength":60,"uri":"data:application/octet-stream;base64,"},{"byteLength":20,"uri":"data:application/octet-stream;base64,"},{"byteLength":80,"uri":"data:application/octet-stream;base64,"},{"byteLength":44,"uri":"data:application/octet-stream;base64,"},{"byteLength":132,"uri":"data:application/octet-stream;base64,"},{"byteLength":20,"uri":"data:application/octet-stream;base64,"},{"byteLength":80,"uri":"data:application/octet-stream;base64,"},{"byteLength":20,"uri":"data:application/octet-stream;base64,"},{"byteLength":60,"uri":"data:application/octet-stream;base64,"},{"byteLength":20,"uri":"data:application/octet-stream;base64,"},{"byteLength":80,"uri":"data:application/octet-stream;base64,"},{"byteLength":20,"uri":"data:application/octet-stream;base64,"},{"byteLength":60,"uri":"data:application/octet-stream;base64,"},{"byteLength":16,"uri":"data:application/octet-stream;base64,"},{"byteLength":64,"uri":"data:application/octet-stream;base64,"},{"byteLength":12,"uri":"data:application/octet-stream;base64,"},{"byteLength":36,"uri":"data:application/octet-stream;base64,"},{"byteLength":12,"uri":"data:application/octet-stream;base64,"},{"byteLength":36,"uri":"data:application/octet-stream;base64,"},{"byteLength":24,"uri":"data:application/octet-stream;base64,"},{"byteLength":96,"uri":"data:application/octet-stream;base64,"},{"byteLength":16,"uri":"data:application/octet-stream;base64,"},{"byteLength":48,"uri":"data:application/octet-stream;base64,"},{"byteLength":24,"uri":"data:application/octet-stream;base64,"},{"byteLength":96,"uri":"data:application/octet-stream;base64,"},{"byteLength":16,"uri":"data:application/octet-stream;base64,"},{"byteLength":48,"uri":"data:application/octet-stream;base64,"},{"byteLength":20,"uri":"data:application/octet-stream;base64,"},{"byteLength":80,"uri":"data:application/octet-stream;base64,"},{"byteLength":20,"uri":"data:application/octet-stream;base64,"},{"byteLength":60,"uri":"data:application/octet-stream;base64,"},{"byteLength":16,"uri":"data:application/octet-stream;base64,"},{"byteLength":64,"uri":"data:application/octet-stream;base64,"},{"byteLength":16,"uri":"data:application/octet-stream;base64,"},{"byteLength":48,"uri":"data:application/octet-stream;base64,"},{"byteLength":36,"uri":"data:application/octet-stream;base64,"},{"byteLength":144,"uri":"data:application/octet-stream;base64,"},{"byteLength":36,"uri":"data:application/octet-stream;base64,"},{"byteLength":144,"uri":"data:application/octet-stream;base64,"},{"byteLength":16,"uri":"data:application/octet-stream;base64,"},{"byteLength":64,"uri":"data:application/octet-stream;base64,"},{"byteLength":36,"uri":"data:application/octet-stream;base64,"},{"byteLength":144,"uri":"data:application/octet-stream;base64,"},{"byteLength":16,"uri":"data:application/octet-stream;base64,"},{"byteLength":64,"uri":"data:application/octet-stream;base64,"},{"byteLength":16,"uri":"data:application/octet-stream;base64,"},{"byteLength":64,"uri":"data:application/octet-stream;base64,"},{"byteLength":28,"uri":"data:application/octet-stream;base64,"},{"byteLength":112,"uri":"data:application/octet-stream;base64,"},{"byteLength":12,"uri":"data:application/octet-stream;base64,"},{"byteLength":48,"uri":"data:application/octet-stream;base64,"},{"byteLength":28,"uri":"data:application/octet-stream;base64,"},{"byteLength":112,"uri":"data:application/octet-stream;base64,"},{"byteLength":12,"uri":"data:application/octet-stream;base64,"},{"byteLength":48,"uri":"data:application/octet-stream;base64,"}],"images":[{"uri":"textures/gltf_embedded_0.png"}],"materials":[{"alphaCutoff":0.05,"alphaMode":"MASK","doubleSided":true,"pbrMetallicRoughness":{"baseColorTexture":{"index":0},"metallicFactor":0.0,"roughnessFactor":1.0}}],"meshes":[{"primitives":[{"attributes":{"NORMAL":2,"POSITION":0,"TANGENT":3,"TEXCOORD_0":4},"indices":1,"material":0,"mode":5}]},{"primitives":[{"attributes":{"NORMAL":7,"POSITION":5,"TANGENT":8,"TEXCOORD_0":9},"indices":6,"material":0,"mode":5}]},{"primitives":[{"attributes":{"NORMAL":12,"POSITION":10,"TANGENT":13,"TEXCOORD_0":14},"indices":11,"material":0,"mode":5}]},{"primitives":[{"attributes":{"NORMAL":17,"POSITION":15,"TANGENT":18,"TEXCOORD_0":19},"indices":16,"material":0,"mode":5}]},{"primitives":[{"attributes":{"NORMAL":22,"POSITION":20,"TANGENT":23,"TEXCOORD_0":24},"indices":21,"material":0,"mode":5}]},{"primitives":[{"attributes":{"NORMAL":27,"POSITION":25,"TANGENT":28,"TEXCOORD_0":29},"indices":26,"material":0,"mode":5}]},{"primitives":[{"attributes":{"NORMAL":32,"POSITION":30,"TANGENT":33,"TEXCOORD_0":34},"indices":31,"material":0,"mode":5}]},{"primitives":[{"attributes":{"NORMAL":37,"POSITION":35,"TANGENT":38,"TEXCOORD_0":39},"indices":36,"material":0,"mode":5}]},{"primitives":[{"attributes":{"NORMAL":42,"POSITION":40,"TANGENT":43,"TEXCOORD_0":44},"indices":41,"material":0,"mode":5}]},{"primitives":[{"attributes":{"NORMAL":47,"POSITION":45,"TANGENT":48,"TEXCOORD_0":49},"indices":46,"material":0,"mode":5}]},{"primitives":[{"attributes":{"NORMAL":52,"POSITION":50,"TANGENT":53,"TEXCOORD_0":54},"indices":51,"material":0,"mode":5}]},{"primitives":[{"attributes":{"NORMAL":57,"POSITION":55,"TANGENT":58,"TEXCOORD_0":59},"indices":56,"material":0,"mode":5}]},{"primitives":[{"attributes":{"NORMAL":62,"POSITION":60,"TANGENT":63,"TEXCOORD_0":64},"indices":61,"material":0,"mode":5}]},{"primitives":[{"attributes":{"NORMAL":67,"POSITION":65,"TANGENT":68,"TEXCOORD_0":69},"indices":66,"material":0,"mode":5}]}],"nodes":[{"mesh":0,"name":"_gltfNode_0"},{"children":[0],"name":"Left Leg_0","rotation":[0.0,0.0,0.0,1.0],"scale":[1.0,1.0,1.0],"translation":[0.11874999850988388,-0.75,0.0]},{"mesh":1,"name":"_gltfNode_2"},{"children":[2],"name":"Left Leg Layer_1","rotation":[0.0,0.0,0.0,1.0],"scale":[1.0,1.0,1.0],"translation":[0.11874999850988388,-0.75,0.0]},{"children":[1,3],"name":"LeftLeg_2","rotation":[0.0,0.0,-0.04361935294911949,0.9990482230845072],"scale":[1.000000238418579,1.000000238418579,1.0],"translation":[-0.11874999850988388,0.75,0.0]},{"mesh":2,"name":"_gltfNode_5"},{"children":[5],"name":"Right Leg_3","rotation":[0.0,0.0,0.0,1.0],"scale":[1.0,1.0,1.0],"translation":[-0.11874999850988388,-0.75,0.0]},{"mesh":3,"name":"_gltfNode_7"},{"children":[7],"name":"Right Leg Layer_4","rotation":[0.0,0.0,0.0,1.0],"scale":[1.0,1.0,1.0],"translation":[-0.11874999850988388,-0.75,0.0]},{"children":[6,8],"name":"RightLeg_5","rotation":[0.0,0.0,0.021814896175863296,0.999762026836808],"scale":[0.9999997615814208,0.9999997615814208,1.0],"translation":[0.11874999850988388,0.75,0.0]},{"children":[4,9],"name":"bone2_6"},{"mesh":4,"name":"_gltfNode_11"},{"children":[11],"name":"Body Layer_7","rotation":[0.0,0.0,0.0,1.0],"scale":[1.0,1.0,1.0],"translation":[0.0,-1.5,0.0]},{"mesh":5,"name":"_gltfNode_13"},{"children":[13],"name":"Body_8","rotation":[0.0,0.0,0.0,1.0],"scale":[1.0,1.0,1.0],"translation":[0.0,-1.5,0.0]},{"mesh":6,"name":"_gltfNode_15"},{"children":[15],"name":"Body_9","rotation":[0.0,0.0,0.0,1.0],"scale":[1.0,1.0,1.0],"translation":[0.0,-1.5,0.0]},{"mesh":7,"name":"_gltfNode_17"},{"children":[17],"name":"Body Layer_10","rotation":[0.0,0.0,0.0,1.0],"scale":[1.0,1.0,1.0],"translation":[0.0,-1.5,0.0]},{"children":[16,18],"name":"Body2_11","rotation":[0.300705641170647,0.0,0.0,0.953717000670618],"scale":[1.0,0.999999701976776,0.999999701976776],"translation":[0.0,-0.125,0.0625]},{"children":[12,14,19],"name":"Body_12","rotation":[0.0,0.0,0.0,1.0],"scale":[1.0,1.0,1.0],"translation":[0.0,0.75,0.0]},{"mesh":8,"name":"_gltfNode_21"},{"children":[21],"name":"Head_13","rotation":[0.0,0.0,0.0,1.0],"scale":[1.0,1.0,1.0],"translation":[0.0,-1.5,0.0]},{"mesh":9,"name":"_gltfNode_23"},{"children":[23],"name":"Hat Layer_14","rotation":[0.0,0.0,0.0,1.0],"scale":[1.0,1.0,1.0],"translation":[0.0,-1.5,0.0]},{"children":[22,24],"name":"Head_15","rotation":[0.0,0.0,0.0,1.0],"scale":[1.0,1.0,1.0],"translation":[0.0,0.75,0.0]},{"mesh":10,"name":"_gltfNode_26"},{"children":[26],"name":"Left Arm_16","rotation":[0.0,0.0,0.0,1.0],"scale":[1.0,1.0,1.0],"translation":[0.3125,-1.375,0.0]},{"mesh":11,"name":"_gltfNode_28"},{"children":[28],"name":"Left Arm Layer_17","rotation":[0.0,0.0,0.0,1.0],"scale":[1.0,1.0,1.0],"translation":[0.3125,-1.375,0.0]},{"children":[27,29],"name":"LeftArm_18","rotation":[0.0,0.0,-0.06540302511857798,0.9978589300624312],"scale":[1.0000001192092896,1.0000001192092896,1.0],"translation":[-0.3125,1.375,0.0]},{"mesh":12,"name":"_gltfNode_31"},{"children":[31],"name":"Right Arm_19","rotation":[0.0,0.0,0.0,1.0],"scale":[1.0,1.0,1.0],"translation":[-0.3125,-1.375,0.0]},{"mesh":13,"name":"_gltfNode_33"},{"children":[33],"name":"Right Arm Layer_20","rotation":[0.0,0.0,0.0,1.0],"scale":[1.0,1.0,1.0],"translation":[-0.3125,-1.375,0.0]},{"children":[32,34],"name":"RightArm_21","rotation":[0.0,0.0,0.04361935294911949,0.9990482230845072],"scale":[1.000000238418579,1.000000238418579,1.0],"translation":[0.3125,1.375,0.0]},{"children":[30,35],"name":"bone3_22","rotation":[0.0,0.0,0.0,1.0],"scale":[1.0,1.0,1.0],"translation":[0.0,-0.75,0.0]},{"children":[20,25,36],"name":"bone_23","rotation":[0.0,0.0,0.0,1.0],"scale":[1.0,1.0,1.0],"translation":[0.0,0.75,0.0]},{"children":[10,37],"name":"player1_24"},{"children":[38],"name":"_25"},{"children":[39],"name":"Girl-minecraft player","rotation":[-1.9753748434203097e-22,0.0,0.0,1.0],"scale":[1.0,1.0,1.0],"translation":[0.0,0.0,0.0]}],"samplers":[{"magFilter":9728,"minFilter":9728,"wrapS":33071,"wrapT":33071}],"scene":0,"scenes":[{"nodes":[40]}],"textures":[{"sampler":0,"source":0}]}