{"accessors":[{"bufferView":0,"componentType":5126,"count":24,"max":[0.9998360276222228,1.0000295639038086,0.9998360276222228],"min":[-1.0001599788665771,-1.0,-1.0001599788665771],"type":"VEC3"},{"bufferView":1,"componentType":5125,"count":34,"type":"SCALAR"},{"bufferView":2,"componentType":5126,"count":24,"type":"VEC3"},{"bufferView":3,"componentType":5126,"count":24,"type":"VEC4"},{"bufferView":4,"componentType":5126,"count":24,"type":"VEC2"},{"bufferView":5,"componentType":5126,"count":24,"max":[0.9998360276222228,1.0000295639038086,0.9998360276222228],"min":[-1.0001599788665771,-1.0,-1.0001599788665771],"type":"VEC3"},{"bufferView":6,"componentType":5125,"count":34,"type":"SCALAR"},{"bufferView":7,"componentType":5126,"count":24,"type":"VEC3"},{"bufferView":8,"componentType":5126,"count":24,"type":"VEC4"},{"bufferView":9,"componentType":5126,"count":24,"type":"VEC2"},{"bufferView":10,"componentType":5126,"count":24,"max":[0.9998360276222228,1.0000295639038086,0.9998360276222228],"min":[-1.0001599788665771,-1.0,-1.0001599788665771],"type":"VEC3"},{"bufferView":11,"componentType":5125,"count":34,"type":"SCALAR"},{"bufferView":12,"componentType":5126,"count":24,"type":"VEC3"},{"bufferView":13,"componentType":5126,"count":24,"type":"VEC4"},{"bufferView":14,"componentType":5126,"count":24,"type":"VEC2"},{"bufferView":15,"componentType":5126,"count":20,"max":[0.9998360276222228,1.0000295639038086,0.9998360276222228],"min":[-1.0001599788665771,-1.0,-1.0001599788665771],"type":"VEC3"},{"bufferView":16,"componentType":5125,"count":28,"type":"SCALAR"},{"bufferView":17,"componentType":5126,"count":20,"type":"VEC3"},{"bufferView":18,"componentType":5126,"count":20,"type":"VEC4"},{"bufferView":19,"componentType":5126,"count":20,"type":"VEC2"},{"bufferView":20,"componentType":5126,"count":4,"max":[0.9998360276222228,1.0000298023223877,0.9998360276222228],"min":[-1.0001599788665771,1.0000298023223877,-1.0001599788665771],"type":"VEC3"},{"bufferView":21,"componentType":5125,"count":4,"type":"SCALAR"},{"bufferView":22,"componentType":5126,"count":4,"type":"VEC3"},{"bufferView":23,"componentType":5126,"count":4,"type":"VEC4"},{"bufferView":24,"componentType":5126,"count":4,"type":"VEC2"},{"bufferView":25,"componentType":5126,"count":24,"max":[0.9998360276222228,1.0000295639038086,0.9998360276222228],"min":[-1.0001599788665771,-1.0,-1.0001599788665771],"type":"VEC3"},{"bufferView":26,"componentType":5125,"count":34,"type":"SCALAR"},{"bufferView":27,"componentType":5126,"count":24,"type":"VEC3"},{"bufferView":28,"componentType":5126,"count":24,"type":"VEC4"},{"bufferView":29,"componentType":5126,"count":24,"type":"VEC2"},{"bufferView":30,"componentType":5126,"count":491,"max":[1.0000008344650269,0.4839578866958618,1.0000008344650269],"min":[-1.0,0.0,-1.0],"type":"VEC3"},{"bufferView":31,"componentType":5125,"count":1018,"type":"SCALAR"},{"bufferView":32,"componentType":5126,"count":491,"type":"VEC3"},{"bufferView":33,"componentType":5126,"count":491,"type":"VEC4"},{"bufferView":34,"componentType":5126,"count":491,"type":"VEC2"}],"asset":{"version":"2.0"},"bufferViews":[{"buffer":0,"byteLength":288,"target":34962},{"buffer":1,"byteLength":136,"target":34963},{"buffer":2,"byteLength":288,"target":34962},{"buffer":3,"byteLength":384,"target":34962},{"buffer":4,"byteLength":192,"target":34962},{"buffer":5,"byteLength":288,"target":34962},{"buffer":6,"byteLength":136,"target":34963},{"buffer":7,"byteLength":288,"target":34962},{"buffer":8,"byteLength":384,"target":34962},{"buffer":9,"byteLength":192,"target":34962},{"buffer":10,"byteLength":288,"target":34962},{"buffer":11,"byteLength":136,"target":34963},{"buffer":12,"byteLength":288,"target":34962},{"buffer":13,"byteLength":384,"target":34962},{"buffer":14,"byteLength":192,"target":34962},{"buffer":15,"byteLength":240,"target":34962},{"buffer":16,"byteLength":112,"target":34963},{"buffer":17,"byteLength":240,"target":34962},{"buffer":18,"byteLength":320,"target":34962},{"buffer":19,"byteLength":160,"target":34962},{"buffer":20,"byteLength":48,"target":34962},{"buffer":21,"byteLength":16,"target":34963},{"buffer":22,"byteLength":48,"target":34962},{"buffer":23,"byteLength":64,"target":34962},{"buffer":24,"byteLength":32,"target":34962},{"buffer":25,"byteLength":288,"target":34962},{"buffer":26,"byteLength":136,"target":34963},{"buffer":27,"byteLength":288,"target":34962},{"buffer":28,"byteLength":384,"target":34962},{"buffer":29,"byteLength":192,"target":34962},{"buffer":30,"byteLength":5892,"target":34962},{"buffer":31,"byteLength":4072,"target":34963},{"buffer":32,"byteLength":5892,"target":34962},{"buffer":33,"byteLength":7856,"target":34962},{"buffer":34,"byteLength":3928,"target":34962}],"buffers":[{"byteLength":288,"uri":"data:application/octet-stream;base64,"},{"byteLength":136,"uri":"data:application/octet-stream;base64,"},{"byteLength":288,"uri":"data:application/octet-stream;base64,"},{"byteLength":384,"uri":"data:application/octet-stream;base64,"},{"byteLength":192,"uri":"data:application/octet-stream;base64,"},{"byteLength":288,"uri":"data:application/octet-stream;base64,"},{"byteLength":136,"uri":"data:application/octet-stream;base64,"},{"byteLength":288,"uri":"data:application/octet-stream;base64,"},{"byteLength":384,"uri":"data:application/octet-stream;base64,"},{"byteLength":192,"uri":"data:application/octet-stream;base64,"},{"byteLength":288,"uri":"data:application/octet-stream;base64,"},{"byteLength":136,"uri":"data:application/octet-stream;base64,"},{"byteLength":288,"uri":"data:application/octet-stream;base64,"},{"byteLength":384,"uri":"data:application/octet-stream;base64,"},{"byteLength":192,"uri":"data:application/octet-stream;base64,"},{"byteLength":240,"uri":"data:application/octet-stream;base64,"},{"byteLength":112,"uri":"data:application/octet-stream;base64,"},{"byteLength":240,"uri":"data:application/octet-stream;base64,"},{"byteLength":320,"uri":"data:application/octet-stream;base64,"},{"byteLength":160,"uri":"data:application/octet-stream;base64,"},{"byteLength":48,"uri":"data:application/octet-stream;base64,"},{"byteLength":16,"uri":"data:application/octet-stream;base64,"},{"byteLength":48,"uri":"data:application/octet-stream;base64,"},{"byteLength":64,"uri":"data:application/octet-stream;base64,"},{"byteLength":32,"uri":"data:application/octet-stream;base64,"},{"byteLength":288,"uri":"data:application/octet-stream;base64,"},{"byteLength":136,"uri":"data:application/octet-stream;base64,"},{"byteLength":288,"uri":"data:application/octet-stream;base64,"},{"byteLength":384,"uri":"data:application/octet-stream;base64,"},{"byteLength":192,"uri":"data:application/octet-stream;base64,"},{"byteLength":5892,"uri":"data:application/octet-stream;base64,"},{"byteLength":4072,"uri":"data:application/octet-stream;base64,"},{"byteLength":5892,"uri":"data:application/octet-stream;base64,"},{"byteLength":7856,"uri":"data:application/octet-stream;base64,"},{"byteLength":3928,"uri":"data:application/octet-stream;base64,"}],"extensionsUsed":["KHR_materials_specular"],"images":[{"uri":"textures/dirt.png"},{"uri":"textures/_mr__dirt.png"},{"uri":"textures/stone.png"},{"uri":"textures/_mr__cobblestone.png"},{"uri":"textures/oak_planks.png"},{"uri":"textures/_mr__oak_planks.png"},{"uri":"textures/grass_block_side.png"},{"uri":"textures/_mr__grass_block_side.png"},{"uri":"textures/grass_block_top.png"},{"uri":"textures/_mr__grass_block_top.png"},{"uri":"textures/cobblestone.png"}],"materials":[{"doubleSided":false,"pbrMetallicRoughness":{"baseColorTexture":{"index":0},"metallicFactor":1.0,"metallicRoughnessTexture":{"index":1},"roughnessFactor":1.0}},{"doubleSided":false,"pbrMetallicRoughness":{"baseColorTexture":{"index":2},"metallicFactor":1.0,"metallicRoughnessTexture":{"index":3},"roughnessFactor":1.0}},{"doubleSided":false,"pbrMetallicRoughness":{"baseColorTexture":{"index":4},"metallicFactor":1.0,"metallicRoughnessTexture":{"index":5},"roughnessFactor":1.0}},{"doubleSided":false,"pbrMetallicRoughness":{"baseColorTexture":{"index":6},"metallicFactor":1.0,"metallicRoughnessTexture":{"index":7},"roughnessFactor":1.0}},{"doubleSided":false,"pbrMetallicRoughness":{"baseColorTexture":{"index":8},"metallicFactor":1.0,"metallicRoughnessTexture":{"index":9},"roughnessFactor":1.0}},{"doubleSided":false,"pbrMetallicRoughness":{"baseColorTexture":{"index":10},"metallicFactor":1.0,"metallicRoughnessTexture":{"index":11},"roughnessFactor":1.0}},{"doubleSided":false,"pbrMetallicRoughness":{"baseColorFactor":[0.0,0.0,0.0,1.0],"metallicFactor":0.0,"roughnessFactor":1.0}}],"meshes":[{"primitives":[{"attributes":{"NORMAL":2,"POSITION":0,"TANGENT":3,"TEXCOORD_0":4},"indices":1,"material":0,"mode":5}]},{"primitives":[{"attributes":{"NORMAL":7,"POSITION":5,"TANGENT":8,"TEXCOORD_0":9},"indices":6,"material":1,"mode":5}]},{"primitives":[{"attributes":{"NORMAL":12,"POSITION":10,"TANGENT":13,"TEXCOORD_0":14},"indices":11,"material":2,"mode":5}]},{"primitives":[{"attributes":{"NORMAL":17,"POSITION":15,"TANGENT":18,"TEXCOORD_0":19},"indices":16,"material":3,"mode":5}]},{"primitives":[{"attributes":{"NORMAL":22,"POSITION":20,"TANGENT":23,"TEXCOORD_0":24},"indices":21,"material":4,"mode":5}]},{"primitives":[{"attributes":{"NORMAL":27,"POSITION":25,"TANGENT":28,"TEXCOORD_0":29},"indices":26,"material":5,"mode":5}]},{"primitives":[{"attributes":{"NORMAL":32,"POSITION":30,"TANGENT":33,"TEXCOORD_0":34},"indices":31,"material":6,"mode":5}]}],"nodes":[{"mesh":0,"name":"_gltfNode_0"},{"children":[0],"name":"Dirt_0"},{"mesh":1,"name":"_gltfNode_2"},{"children":[2],"name":"Stone_3","rotation":[0.0,0.0,0.0,1.0],"scale":[1.0,1.0,1.0],"translation":[0.0,0.0,-3.0]},{"mesh":2,"name":"_gltfNode_4"},{"children":[4],"name":"Oak_Planks_4","rotation":[0.0,0.0,0.0,1.0],"scale":[1.0,1.0,1.0],"translation":[0.0,0.0,3.0]},{"mesh":3,"name":"_gltfNode_6"},{"mesh":4,"name":"_gltfNode_7"},{"children":[6,7],"name":"Dirt.001_5","rotation":[0.0,0.0,0.0,1.0],"scale":[1.0,1.0,1.0],"translation":[0.0,0.0,-6.0]},{"mesh":5,"name":"_gltfNode_9"},{"children":[9],"name":"Dirt.002_6","rotation":[0.0,0.0,0.0,1.0],"scale":[1.0,1.0,1.0],"translation":[0.0,0.0,6.0]},{"mesh":6,"name":"_gltfNode_11"},{"children":[11],"name":"Plane_7","rotation":[0.0,0.0,0.0,1.0],"scale":[11.2878999710083,11.2878999710083,11.2878999710083],"translation":[0.0,-1.0,0.0]},{"children":[1,3,5,8,10,12],"name":"Minecraft Block Collection","rotation":[-1.9753748434203097e-22,0.0,0.0,1.0],"scale":[1.0,1.0,1.0],"translation":[0.0,0.0,0.0]}],"samplers":[{"magFilter":9729,"minFilter":9729,"wrapS":10497,"wrapT":10497}],"scene":0,"scenes":[{"nodes":[13]}],"textures":[{"sampler":0,"source":0},{"sampler":0,"source":1},{"sampler":0,"source":2},{"sampler":0,"source":3},{"sampler":0,"source":4},{"sampler":0,"source":5},{"sampler":0,"source":6},{"sampler":0,"source":7},{"sampler":0,"source":8},{"sampler":0,"source":9},{"sampler":0,"source":10},{"sampler":0,"source":3}]}