{"accessors": [{"bufferView": 0, "componentType": 5126, "count": 7071, "max": [0.28846433758735657, 1.000185251235962, 0.30715128779411316], "min": [-0.28841298818588257, -0.00017756200395524502, -0.30822399258613586], "type": "VEC3"}, {"bufferView": 1, "componentType": 5125, "count": 16575, "type": "SCALAR"}, {"bufferView": 2, "componentType": 5126, "count": 7071, "type": "VEC3"}, {"bufferView": 3, "componentType": 5126, "count": 7071, "type": "VEC4"}, {"bufferView": 4, "componentType": 5126, "count": 7071, "type": "VEC2"}, {"bufferView": 5, "componentType": 5126, "count": 17, "type": "MAT4"}, {"bufferView": 6, "componentType": 5123, "count": 7071, "type": "VEC4"}, {"bufferView": 7, "componentType": 5126, "count": 7071, "type": "VEC4"}, {"bufferView": 8, "componentType": 5126, "count": 12, "max": [0.7916666865348816], "min": [3.2091570290049276e-08], "type": "SCALAR"}, {"bufferView": 9, "componentType": 5126, "count": 12, "type": "VEC3"}, {"bufferView": 10, "componentType": 5126, "count": 20, "max": [0.7916666865348816], "min": [3.2091570290049276e-08], "type": "SCALAR"}, {"bufferView": 11, "componentType": 5126, "count": 20, "type": "VEC4"}, {"bufferView": 12, "componentType": 5126, "count": 20, "max": [0.7916666865348816], "min": [3.2091570290049276e-08], "type": "SCALAR"}, {"bufferView": 13, "componentType": 5126, "count": 20, "type": "VEC4"}, {"bufferView": 14, "componentType": 5126, "count": 12, "max": [0.7916666865348816], "min": [3.2091570290049276e-08], "type": "SCALAR"}, {"bufferView": 15, "componentType": 5126, "count": 12, "type": "VEC3"}, {"bufferView": 16, "componentType": 5126, "count": 12, "max": [0.7916666865348816], "min": [3.2091570290049276e-08], "type": "SCALAR"}, {"bufferView": 17, "componentType": 5126, "count": 12, "type": "VEC4"}, {"bufferView": 18, "componentType": 5126, "count": 20, "max": [0.7916666269302368], "min": [0.0], "type": "SCALAR"}, {"bufferView": 19, "componentType": 5126, "count": 20, "type": "VEC4"}, {"bufferView": 20, "componentType": 5126, "count": 20, "max": [0.7916666865348816], "min": [3.2091570290049276e-08], "type": "SCALAR"}, {"bufferView": 21, "componentType": 5126, "count": 20, "type": "VEC3"}, {"bufferView": 22, "componentType": 5126, "count": 20, "max": [0.7916666269302368], "min": [0.0], "type": "SCALAR"}, {"bufferView": 23, "componentType": 5126, "count": 20, "type": "VEC4"}, {"bufferView": 24, "componentType": 5126, "count": 3, "max": [0.7916666269302368], "min": [0.0], "type": "SCALAR"}, {"bufferView": 25, "componentType": 5126, "count": 3, "type": "VEC3"}, {"bufferView": 26, "componentType": 5126, "count": 2, "max": [0.7916666269302368], "min": [0.0], "type": "SCALAR"}, {"bufferView": 27, "componentType": 5126, "count": 2, "type": "VEC4"}, {"bufferView": 28, "componentType": 5126, "count": 3, "max": [0.7916666269302368], "min": [0.0], "type": "SCALAR"}, {"bufferView": 29, "componentType": 5126, "count": 3, "type": "VEC3"}, {"bufferView": 30, "componentType": 5126, "count": 2, "max": [0.7916666269302368], "min": [0.0], "type": "SCALAR"}, {"bufferView": 31, "componentType": 5126, "count": 2, "type": "VEC4"}, {"bufferView": 32, "componentType": 5126, "count": 2, "max": [0.7916666269302368], "min": [0.0], "type": "SCALAR"}, {"bufferView": 33, "componentType": 5126, "count": 2, "type": "VEC3"}, {"bufferView": 34, "componentType": 5126, "count": 3, "max": [0.7916666269302368], "min": [0.0], "type": "SCALAR"}, {"bufferView": 35, "componentType": 5126, "count": 3, "type": "VEC3"}, {"bufferView": 36, "componentType": 5126, "count": 2, "max": [0.7916666269302368], "min": [0.0], "type": "SCALAR"}, {"bufferView": 37, "componentType": 5126, "count": 2, "type": "VEC4"}, {"bufferView": 38, "componentType": 5126, "count": 3, "max": [0.7916666269302368], "min": [0.0], "type": "SCALAR"}, {"bufferView": 39, "componentType": 5126, "count": 3, "type": "VEC3"}, {"bufferView": 40, "componentType": 5126, "count": 3, "max": [0.7916666269302368], "min": [0.0], "type": "SCALAR"}, {"bufferView": 41, "componentType": 5126, "count": 3, "type": "VEC3"}, {"bufferView": 42, "componentType": 5126, "count": 2, "max": [0.7916666269302368], "min": [0.0], "type": "SCALAR"}, {"bufferView": 43, "componentType": 5126, "count": 2, "type": "VEC4"}, {"bufferView": 44, "componentType": 5126, "count": 3, "max": [0.7916666269302368], "min": [0.0], "type": "SCALAR"}, {"bufferView": 45, "componentType": 5126, "count": 3, "type": "VEC3"}, {"bufferView": 46, "componentType": 5126, "count": 3, "max": [0.7916666269302368], "min": [0.0], "type": "SCALAR"}, {"bufferView": 47, "componentType": 5126, "count": 3, "type": "VEC3"}, {"bufferView": 48, "componentType": 5126, "count": 2, "max": [0.7916666269302368], "min": [0.0], "type": "SCALAR"}, {"bufferView": 49, "componentType": 5126, "count": 2, "type": "VEC4"}, {"bufferView": 50, "componentType": 5126, "count": 2, "max": [0.7916666269302368], "min": [0.0], "type": "SCALAR"}, {"bufferView": 51, "componentType": 5126, "count": 2, "type": "VEC3"}, {"bufferView": 52, "componentType": 5126, "count": 3, "max": [0.7916666269302368], "min": [0.0], "type": "SCALAR"}, {"bufferView": 53, "componentType": 5126, "count": 3, "type": "VEC3"}, {"bufferView": 54, "componentType": 5126, "count": 2, "max": [0.7916666269302368], "min": [0.0], "type": "SCALAR"}, {"bufferView": 55, "componentType": 5126, "count": 2, "type": "VEC4"}, {"bufferView": 56, "componentType": 5126, "count": 3, "max": [0.7916666269302368], "min": [0.0], "type": "SCALAR"}, {"bufferView": 57, "componentType": 5126, "count": 3, "type": "VEC3"}, {"bufferView": 58, "componentType": 5126, "count": 3, "max": [0.7916666269302368], "min": [0.0], "type": "SCALAR"}, {"bufferView": 59, "componentType": 5126, "count": 3, "type": "VEC3"}, {"bufferView": 60, "componentType": 5126, "count": 2, "max": [0.7916666269302368], "min": [0.0], "type": "SCALAR"}, {"bufferView": 61, "componentType": 5126, "count": 2, "type": "VEC4"}, {"bufferView": 62, "componentType": 5126, "count": 3, "max": [0.7916666269302368], "min": [0.0], "type": "SCALAR"}, {"bufferView": 63, "componentType": 5126, "count": 3, "type": "VEC3"}, {"bufferView": 64, "componentType": 5126, "count": 20, "max": [0.7916666865348816], "min": [3.2091570290049276e-08], "type": "SCALAR"}, {"bufferView": 65, "componentType": 5126, "count": 20, "type": "VEC3"}, {"bufferView": 66, "componentType": 5126, "count": 20, "max": [0.7916666269302368], "min": [0.0], "type": "SCALAR"}, {"bufferView": 67, "componentType": 5126, "count": 20, "type": "VEC4"}, {"bufferView": 68, "componentType": 5126, "count": 3, "max": [0.7916666269302368], "min": [0.0], "type": "SCALAR"}, {"bufferView": 69, "componentType": 5126, "count": 3, "type": "VEC3"}, {"bufferView": 70, "componentType": 5126, "count": 2, "max": [0.7916666269302368], "min": [0.0], "type": "SCALAR"}, {"bufferView": 71, "componentType": 5126, "count": 2, "type": "VEC4"}, {"bufferView": 72, "componentType": 5126, "count": 3, "max": [0.7916666269302368], "min": [0.0], "type": "SCALAR"}, {"bufferView": 73, "componentType": 5126, "count": 3, "type": "VEC3"}, {"bufferView": 74, "componentType": 5126, "count": 3, "max": [0.7916666269302368], "min": [0.0], "type": "SCALAR"}, {"bufferView": 75, "componentType": 5126, "count": 3, "type": "VEC3"}, {"bufferView": 76, "componentType": 5126, "count": 20, "max": [0.7916666269302368], "min": [0.0], "type": "SCALAR"}, {"bufferView": 77, "componentType": 5126, "count": 20, "type": "VEC4"}, {"bufferView": 78, "componentType": 5126, "count": 3, "max": [0.7916666269302368], "min": [0.0], "type": "SCALAR"}, {"bufferView": 79, "componentType": 5126, "count": 3, "type": "VEC3"}, {"bufferView": 80, "componentType": 5126, "count": 20, "max": [0.7916666865348816], "min": [3.2091570290049276e-08], "type": "SCALAR"}, {"bufferView": 81, "componentType": 5126, "count": 20, "type": "VEC4"}, {"bufferView": 82, "componentType": 5126, "count": 2, "max": [0.7916666269302368], "min": [0.0], "type": "SCALAR"}, {"bufferView": 83, "componentType": 5126, "count": 2, "type": "VEC3"}, {"bufferView": 84, "componentType": 5126, "count": 3, "max": [0.7916666269302368], "min": [0.0], "type": "SCALAR"}, {"bufferView": 85, "componentType": 5126, "count": 3, "type": "VEC3"}, {"bufferView": 86, "componentType": 5126, "count": 2, "max": [0.7916666269302368], "min": [0.0], "type": "SCALAR"}, {"bufferView": 87, "componentType": 5126, "count": 2, "type": "VEC4"}, {"bufferView": 88, "componentType": 5126, "count": 3, "max": [0.7916666269302368], "min": [0.0], "type": "SCALAR"}, {"bufferView": 89, "componentType": 5126, "count": 3, "type": "VEC3"}, {"bufferView": 90, "componentType": 5126, "count": 3, "max": [0.7916666269302368], "min": [0.0], "type": "SCALAR"}, {"bufferView": 91, "componentType": 5126, "count": 3, "type": "VEC3"}, {"bufferView": 92, "componentType": 5126, "count": 20, "max": [0.7916666269302368], "min": [0.0], "type": "SCALAR"}, {"bufferView": 93, "componentType": 5126, "count": 20, "type": "VEC4"}, {"bufferView": 94, "componentType": 5126, "count": 3, "max": [0.7916666269302368], "min": [0.0], "type": "SCALAR"}, {"bufferView": 95, "componentType": 5126, "count": 3, "type": "VEC3"}, {"bufferView": 96, "componentType": 5126, "count": 20, "max": [0.7916666865348816], "min": [3.2091570290049276e-08], "type": "SCALAR"}, {"bufferView": 97, "componentType": 5126, "count": 20, "type": "VEC4"}, {"bufferView": 98, "componentType": 5126, "count": 2, "max": [0.7916666269302368], "min": [0.0], "type": "SCALAR"}, {"bufferView": 99, "componentType": 5126, "count": 2, "type": "VEC3"}, {"bufferView": 100, "componentType": 5126, "count": 3, "max": [0.7916666269302368], "min": [0.0], "type": "SCALAR"}, {"bufferView": 101, "componentType": 5126, "count": 3, "type": "VEC3"}, {"bufferView": 102, "componentType": 5126, "count": 2, "max": [0.7916666269302368], "min": [0.0], "type": "SCALAR"}, {"bufferView": 103, "componentType": 5126, "count": 2, "type": "VEC4"}, {"bufferView": 104, "componentType": 5126, "count": 3, "max": [0.7916666269302368], "min": [0.0], "type": "SCALAR"}, {"bufferView": 105, "componentType": 5126, "count": 3, "type": "VEC3"}, {"bufferView": 106, "componentType": 5126, "count": 2, "max": [0.7916666269302368], "min": [0.0], "type": "SCALAR"}, {"bufferView": 107, "componentType": 5126, "count": 2, "type": "VEC4"}, {"bufferView": 108, "componentType": 5126, "count": 80, "max": [3.2916665077209473], "min": [0.0], "type": "SCALAR"}, {"bufferView": 109, "componentType": 5126, "count": 80, "type": "VEC3"}, {"bufferView": 110, "componentType": 5126, "count": 80, "max": [3.2916665077209473], "min": [0.0], "type": "SCALAR"}, {"bufferView": 111, "componentType": 5126, "count": 80, "type": "VEC4"}, {"bufferView": 112, "componentType": 5126, "count": 80, "max": [3.2916665077209473], "min": [0.0], "type": "SCALAR"}, {"bufferView": 113, "componentType": 5126, "count": 80, "type": "VEC4"}, {"bufferView": 114, "componentType": 5126, "count": 80, "max": [3.2916665077209473], "min": [0.0], "type": "SCALAR"}, {"bufferView": 115, "componentType": 5126, "count": 80, "type": "VEC4"}, {"bufferView": 116, "componentType": 5126, "count": 80, "max": [3.2916665077209473], "min": [0.0], "type": "SCALAR"}, {"bufferView": 117, "componentType": 5126, "count": 80, "type": "VEC4"}, {"bufferView": 118, "componentType": 5126, "count": 20, "max": [0.7916666865348816], "min": [3.2091570290049276e-08], "type": "SCALAR"}, {"bufferView": 119, "componentType": 5126, "count": 20, "type": "VEC3"}, {"bufferView": 120, "componentType": 5126, "count": 20, "max": [0.7916666865348816], "min": [3.2091570290049276e-08], "type": "SCALAR"}, {"bufferView": 121, "componentType": 5126, "count": 20, "type": "VEC4"}, {"bufferView": 122, "componentType": 5126, "count": 20, "max": [0.7916666865348816], "min": [3.2091570290049276e-08], "type": "SCALAR"}, {"bufferView": 123, "componentType": 5126, "count": 20, "type": "VEC4"}, {"bufferView": 124, "componentType": 5126, "count": 20, "max": [0.7916666269302368], "min": [0.0], "type": "SCALAR"}, {"bufferView": 125, "componentType": 5126, "count": 20, "type": "VEC4"}, {"bufferView": 126, "componentType": 5126, "count": 20, "max": [0.7916666269302368], "min": [0.0], "type": "SCALAR"}, {"bufferView": 127, "componentType": 5126, "count": 20, "type": "VEC4"}, {"bufferView": 128, "componentType": 5126, "count": 20, "max": [0.7916666269302368], "min": [0.0], "type": "SCALAR"}, {"bufferView": 129, "componentType": 5126, "count": 20, "type": "VEC4"}, {"bufferView": 130, "componentType": 5126, "count": 20, "max": [0.7916666269302368], "min": [0.0], "type": "SCALAR"}, {"bufferView": 131, "componentType": 5126, "count": 20, "type": "VEC4"}, {"bufferView": 132, "componentType": 5126, "count": 20, "max": [0.7916666269302368], "min": [0.0], "type": "SCALAR"}, {"bufferView": 133, "componentType": 5126, "count": 20, "type": "VEC4"}, {"bufferView": 134, "componentType": 5126, "count": 20, "max": [0.7916666269302368], "min": [0.0], "type": "SCALAR"}, {"bufferView": 135, "componentType": 5126, "count": 20, "type": "VEC4"}, {"bufferView": 136, "componentType": 5126, "count": 20, "max": [0.7916666865348816], "min": [3.2091570290049276e-08], "type": "SCALAR"}, {"bufferView": 137, "componentType": 5126, "count": 20, "type": "VEC3"}, {"bufferView": 138, "componentType": 5126, "count": 20, "max": [0.7916666865348816], "min": [3.2091570290049276e-08], "type": "SCALAR"}, {"bufferView": 139, "componentType": 5126, "count": 20, "type": "VEC4"}, {"bufferView": 140, "componentType": 5126, "count": 20, "max": [0.7916666269302368], "min": [0.0], "type": "SCALAR"}, {"bufferView": 141, "componentType": 5126, "count": 20, "type": "VEC4"}, {"bufferView": 142, "componentType": 5126, "count": 20, "max": [0.7916666269302368], "min": [0.0], "type": "SCALAR"}, {"bufferView": 143, "componentType": 5126, "count": 20, "type": "VEC4"}, {"bufferView": 144, "componentType": 5126, "count": 20, "max": [0.7916666269302368], "min": [0.0], "type": "SCALAR"}, {"bufferView": 145, "componentType": 5126, "count": 20, "type": "VEC4"}, {"bufferView": 146, "componentType": 5126, "count": 20, "max": [0.7916666269302368], "min": [0.0], "type": "SCALAR"}, {"bufferView": 147, "componentType": 5126, "count": 20, "type": "VEC4"}, {"bufferView": 148, "componentType": 5126, "count": 20, "max": [0.7916666269302368], "min": [0.0], "type": "SCALAR"}, {"bufferView": 149, "componentType": 5126, "count": 20, "type": "VEC4"}, {"bufferView": 150, "componentType": 5126, "count": 20, "max": [0.7916666269302368], "min": [0.0], "type": "SCALAR"}, {"bufferView": 151, "componentType": 5126, "count": 20, "type": "VEC4"}, {"bufferView": 152, "componentType": 5126, "count": 20, "max": [0.7916666865348816], "min": [3.2091570290049276e-08], "type": "SCALAR"}, {"bufferView": 153, "componentType": 5126, "count": 20, "type": "VEC4"}, {"bufferView": 154, "componentType": 5126, "count": 20, "max": [0.7916666865348816], "min": [3.2091570290049276e-08], "type": "SCALAR"}, {"bufferView": 155, "componentType": 5126, "count": 20, "type": "VEC4"}, {"bufferView": 156, "componentType": 5126, "count": 20, "max": [0.7916666865348816], "min": [3.2091570290049276e-08], "type": "SCALAR"}, {"bufferView": 157, "componentType": 5126, "count": 20, "type": "VEC3"}, {"bufferView": 158, "componentType": 5126, "count": 20, "max": [0.7916666269302368], "min": [0.0], "type": "SCALAR"}, {"bufferView": 159, "componentType": 5126, "count": 20, "type": "VEC4"}, {"bufferView": 160, "componentType": 5126, "count": 20, "max": [0.7916666865348816], "min": [3.2091570290049276e-08], "type": "SCALAR"}, {"bufferView": 161, "componentType": 5126, "count": 20, "type": "VEC4"}, {"bufferView": 162, "componentType": 5126, "count": 20, "max": [0.7916666269302368], "min": [0.0], "type": "SCALAR"}, {"bufferView": 163, "componentType": 5126, "count": 20, "type": "VEC4"}, {"bufferView": 164, "componentType": 5126, "count": 20, "max": [0.7916666865348816], "min": [3.2091570290049276e-08], "type": "SCALAR"}, {"bufferView": 165, "componentType": 5126, "count": 20, "type": "VEC4"}, {"bufferView": 166, "componentType": 5126, "count": 20, "max": [0.7916666865348816], "min": [3.2091570290049276e-08], "type": "SCALAR"}, {"bufferView": 167, "componentType": 5126, "count": 20, "type": "VEC3"}, {"bufferView": 168, "componentType": 5126, "count": 20, "max": [0.7916666269302368], "min": [0.0], "type": "SCALAR"}, {"bufferView": 169, "componentType": 5126, "count": 20, "type": "VEC4"}, {"bufferView": 170, "componentType": 5126, "count": 20, "max": [0.7916666269302368], "min": [0.0], "type": "SCALAR"}, {"bufferView": 171, "componentType": 5126, "count": 20, "type": "VEC4"}], "animations": [{"channels": [{"sampler": 0, "target": {"node": 8, "path": "translation"}}, {"sampler": 1, "target": {"node": 8, "path": "rotation"}}, {"sampler": 2, "target": {"node": 1, "path": "rotation"}}, {"sampler": 3, "target": {"node": 17, "path": "translation"}}, {"sampler": 4, "target": {"node": 17, "path": "rotation"}}, {"sampler": 5, "target": {"node": 15, "path": "rotation"}}], "name": "attack", "samplers": [{"input": 8, "interpolation": "LINEAR", "output": 9}, {"input": 10, "interpolation": "LINEAR", "output": 11}, {"input": 12, "interpolation": "LINEAR", "output": 13}, {"input": 14, "interpolation": "LINEAR", "output": 15}, {"input": 16, "interpolation": "LINEAR", "output": 17}, {"input": 18, "interpolation": "LINEAR", "output": 19}]}, {"channels": [{"sampler": 0, "target": {"node": 8, "path": "translation"}}, {"sampler": 1, "target": {"node": 8, "path": "rotation"}}, {"sampler": 2, "target": {"node": 1, "path": "translation"}}, {"sampler": 3, "target": {"node": 1, "path": "rotation"}}, {"sampler": 4, "target": {"node": 4, "path": "translation"}}, {"sampler": 5, "target": {"node": 4, "path": "rotation"}}, {"sampler": 6, "target": {"node": 4, "path": "scale"}}, {"sampler": 7, "target": {"node": 3, "path": "translation"}}, {"sampler": 8, "target": {"node": 3, "path": "rotation"}}, {"sampler": 9, "target": {"node": 3, "path": "scale"}}, {"sampler": 10, "target": {"node": 2, "path": "translation"}}, {"sampler": 11, "target": {"node": 2, "path": "rotation"}}, {"sampler": 12, "target": {"node": 2, "path": "scale"}}, {"sampler": 13, "target": {"node": 7, "path": "translation"}}, {"sampler": 14, "target": {"node": 7, "path": "rotation"}}, {"sampler": 15, "target": {"node": 7, "path": "scale"}}, {"sampler": 16, "target": {"node": 6, "path": "translation"}}, {"sampler": 17, "target": {"node": 6, "path": "rotation"}}, {"sampler": 18, "target": {"node": 6, "path": "scale"}}, {"sampler": 19, "target": {"node": 5, "path": "translation"}}, {"sampler": 20, "target": {"node": 5, "path": "rotation"}}, {"sampler": 21, "target": {"node": 5, "path": "scale"}}, {"sampler": 22, "target": {"node": 17, "path": "translation"}}, {"sampler": 23, "target": {"node": 17, "path": "rotation"}}, {"sampler": 24, "target": {"node": 11, "path": "translation"}}, {"sampler": 25, "target": {"node": 11, "path": "rotation"}}, {"sampler": 26, "target": {"node": 11, "path": "scale"}}, {"sampler": 27, "target": {"node": 10, "path": "translation"}}, {"sampler": 28, "target": {"node": 10, "path": "rotation"}}, {"sampler": 29, "target": {"node": 9, "path": "translation"}}, {"sampler": 30, "target": {"node": 9, "path": "rotation"}}, {"sampler": 31, "target": {"node": 9, "path": "scale"}}, {"sampler": 32, "target": {"node": 14, "path": "translation"}}, {"sampler": 33, "target": {"node": 14, "path": "rotation"}}, {"sampler": 34, "target": {"node": 14, "path": "scale"}}, {"sampler": 35, "target": {"node": 13, "path": "translation"}}, {"sampler": 36, "target": {"node": 13, "path": "rotation"}}, {"sampler": 37, "target": {"node": 12, "path": "translation"}}, {"sampler": 38, "target": {"node": 12, "path": "rotation"}}, {"sampler": 39, "target": {"node": 12, "path": "scale"}}, {"sampler": 40, "target": {"node": 16, "path": "translation"}}, {"sampler": 41, "target": {"node": 16, "path": "rotation"}}, {"sampler": 42, "target": {"node": 15, "path": "translation"}}, {"sampler": 43, "target": {"node": 15, "path": "rotation"}}], "name": "dead", "samplers": [{"input": 20, "interpolation": "LINEAR", "output": 21}, {"input": 22, "interpolation": "LINEAR", "output": 23}, {"input": 24, "interpolation": "LINEAR", "output": 25}, {"input": 26, "interpolation": "LINEAR", "output": 27}, {"input": 28, "interpolation": "LINEAR", "output": 29}, {"input": 30, "interpolation": "LINEAR", "output": 31}, {"input": 32, "interpolation": "LINEAR", "output": 33}, {"input": 34, "interpolation": "LINEAR", "output": 35}, {"input": 36, "interpolation": "LINEAR", "output": 37}, {"input": 38, "interpolation": "LINEAR", "output": 39}, {"input": 40, "interpolation": "LINEAR", "output": 41}, {"input": 42, "interpolation": "LINEAR", "output": 43}, {"input": 44, "interpolation": "LINEAR", "output": 45}, {"input": 46, "interpolation": "LINEAR", "output": 47}, {"input": 48, "interpolation": "LINEAR", "output": 49}, {"input": 50, "interpolation": "LINEAR", "output": 51}, {"input": 52, "interpolation": "LINEAR", "output": 53}, {"input": 54, "interpolation": "LINEAR", "output": 55}, {"input": 56, "interpolation": "LINEAR", "output": 57}, {"input": 58, "interpolation": "LINEAR", "output": 59}, {"input": 60, "interpolation": "LINEAR", "output": 61}, {"input": 62, "interpolation": "LINEAR", "output": 63}, {"input": 64, "interpolation": "LINEAR", "output": 65}, {"input": 66, "interpolation": "LINEAR", "output": 67}, {"input": 68, "interpolation": "LINEAR", "output": 69}, {"input": 70, "interpolation": "LINEAR", "output": 71}, {"input": 72, "interpolation": "LINEAR", "output": 73}, {"input": 74, "interpolation": "LINEAR", "output": 75}, {"input": 76, "interpolation": "LINEAR", "output": 77}, {"input": 78, "interpolation": "LINEAR", "output": 79}, {"input": 80, "interpolation": "LINEAR", "output": 81}, {"input": 82, "interpolation": "LINEAR", "output": 83}, {"input": 84, "interpolation": "LINEAR", "output": 85}, {"input": 86, "interpolation": "LINEAR", "output": 87}, {"input": 88, "interpolation": "LINEAR", "output": 89}, {"input": 90, "interpolation": "LINEAR", "output": 91}, {"input": 92, "interpolation": "LINEAR", "output": 93}, {"input": 94, "interpolation": "LINEAR", "output": 95}, {"input": 96, "interpolation": "LINEAR", "output": 97}, {"input": 98, "interpolation": "LINEAR", "output": 99}, {"input": 100, "interpolation": "LINEAR", "output": 101}, {"input": 102, "interpolation": "LINEAR", "output": 103}, {"input": 104, "interpolation": "LINEAR", "output": 105}, {"input": 106, "interpolation": "LINEAR", "output": 107}]}, {"channels": [{"sampler": 0, "target": {"node": 8, "path": "translation"}}, {"sampler": 1, "target": {"node": 3, "path": "rotation"}}, {"sampler": 2, "target": {"node": 2, "path": "rotation"}}, {"sampler": 3, "target": {"node": 6, "path": "rotation"}}, {"sampler": 4, "target": {"node": 5, "path": "rotation"}}], "name": "idle", "samplers": [{"input": 108, "interpolation": "LINEAR", "output": 109}, {"input": 110, "interpolation": "LINEAR", "output": 111}, {"input": 112, "interpolation": "LINEAR", "output": 113}, {"input": 114, "interpolation": "LINEAR", "output": 115}, {"input": 116, "interpolation": "LINEAR", "output": 117}]}, {"channels": [{"sampler": 0, "target": {"node": 8, "path": "translation"}}, {"sampler": 1, "target": {"node": 8, "path": "rotation"}}, {"sampler": 2, "target": {"node": 1, "path": "rotation"}}, {"sampler": 3, "target": {"node": 4, "path": "rotation"}}, {"sampler": 4, "target": {"node": 3, "path": "rotation"}}, {"sampler": 5, "target": {"node": 2, "path": "rotation"}}, {"sampler": 6, "target": {"node": 7, "path": "rotation"}}, {"sampler": 7, "target": {"node": 6, "path": "rotation"}}, {"sampler": 8, "target": {"node": 5, "path": "rotation"}}, {"sampler": 9, "target": {"node": 17, "path": "translation"}}, {"sampler": 10, "target": {"node": 17, "path": "rotation"}}, {"sampler": 11, "target": {"node": 11, "path": "rotation"}}, {"sampler": 12, "target": {"node": 10, "path": "rotation"}}, {"sampler": 13, "target": {"node": 9, "path": "rotation"}}, {"sampler": 14, "target": {"node": 14, "path": "rotation"}}, {"sampler": 15, "target": {"node": 13, "path": "rotation"}}, {"sampler": 16, "target": {"node": 12, "path": "rotation"}}, {"sampler": 17, "target": {"node": 16, "path": "rotation"}}, {"sampler": 18, "target": {"node": 15, "path": "rotation"}}], "name": "jump", "samplers": [{"input": 118, "interpolation": "LINEAR", "output": 119}, {"input": 120, "interpolation": "LINEAR", "output": 121}, {"input": 122, "interpolation": "LINEAR", "output": 123}, {"input": 124, "interpolation": "LINEAR", "output": 125}, {"input": 126, "interpolation": "LINEAR", "output": 127}, {"input": 128, "interpolation": "LINEAR", "output": 129}, {"input": 130, "interpolation": "LINEAR", "output": 131}, {"input": 132, "interpolation": "LINEAR", "output": 133}, {"input": 134, "interpolation": "LINEAR", "output": 135}, {"input": 136, "interpolation": "LINEAR", "output": 137}, {"input": 138, "interpolation": "LINEAR", "output": 139}, {"input": 140, "interpolation": "LINEAR", "output": 141}, {"input": 142, "interpolation": "LINEAR", "output": 143}, {"input": 144, "interpolation": "LINEAR", "output": 145}, {"input": 146, "interpolation": "LINEAR", "output": 147}, {"input": 148, "interpolation": "LINEAR", "output": 149}, {"input": 150, "interpolation": "LINEAR", "output": 151}, {"input": 152, "interpolation": "LINEAR", "output": 153}, {"input": 154, "interpolation": "LINEAR", "output": 155}]}, {"channels": [{"sampler": 0, "target": {"node": 8, "path": "translation"}}, {"sampler": 1, "target": {"node": 3, "path": "rotation"}}, {"sampler": 2, "target": {"node": 2, "path": "rotation"}}, {"sampler": 3, "target": {"node": 6, "path": "rotation"}}, {"sampler": 4, "target": {"node": 5, "path": "rotation"}}, {"sampler": 5, "target": {"node": 17, "path": "translation"}}, {"sampler": 6, "target": {"node": 10, "path": "rotation"}}, {"sampler": 7, "target": {"node": 13, "path": "rotation"}}], "name": "walk", "samplers": [{"input": 156, "interpolation": "LINEAR", "output": 157}, {"input": 158, "interpolation": "LINEAR", "output": 159}, {"input": 160, "interpolation": "LINEAR", "output": 161}, {"input": 162, "interpolation": "LINEAR", "output": 163}, {"input": 164, "interpolation": "LINEAR", "output": 165}, {"input": 166, "interpolation": "LINEAR", "output": 167}, {"input": 168, "interpolation": "LINEAR", "output": 169}, {"input": 170, "interpolation": "LINEAR", "output": 171}]}], "asset": {"version": "2.0"}, "bufferViews": [{"buffer": 0, "byteLength": 84852, "target": 34962}, {"buffer": 1, "byteLength": 66300, "target": 34963}, {"buffer": 2, "byteLength": 84852, "target": 34962}, {"buffer": 3, "byteLength": 113136, "target": 34962}, {"buffer": 4, "byteLength": 56568, "target": 34962}, {"buffer": 5, "byteLength": 1088}, {"buffer": 6, "byteLength": 56568, "target": 34962}, {"buffer": 7, "byteLength": 113136, "target": 34962}, {"buffer": 8, "byteLength": 48}, {"buffer": 9, "byteLength": 144}, {"buffer": 10, "byteLength": 80}, {"buffer": 11, "byteLength": 320}, {"buffer": 12, "byteLength": 80}, {"buffer": 13, "byteLength": 320}, {"buffer": 14, "byteLength": 48}, {"buffer": 15, "byteLength": 144}, {"buffer": 16, "byteLength": 48}, {"buffer": 17, "byteLength": 192}, {"buffer": 18, "byteLength": 80}, {"buffer": 19, "byteLength": 320}, {"buffer": 20, "byteLength": 80}, {"buffer": 21, "byteLength": 240}, {"buffer": 22, "byteLength": 80}, {"buffer": 23, "byteLength": 320}, {"buffer": 24, "byteLength": 12}, {"buffer": 25, "byteLength": 36}, {"buffer": 26, "byteLength": 8}, {"buffer": 27, "byteLength": 32}, {"buffer": 28, "byteLength": 12}, {"buffer": 29, "byteLength": 36}, {"buffer": 30, "byteLength": 8}, {"buffer": 31, "byteLength": 32}, {"buffer": 32, "byteLength": 8}, {"buffer": 33, "byteLength": 24}, {"buffer": 34, "byteLength": 12}, {"buffer": 35, "byteLength": 36}, {"buffer": 36, "byteLength": 8}, {"buffer": 37, "byteLength": 32}, {"buffer": 38, "byteLength": 12}, {"buffer": 39, "byteLength": 36}, {"buffer": 40, "byteLength": 12}, {"buffer": 41, "byteLength": 36}, {"buffer": 42, "byteLength": 8}, {"buffer": 43, "byteLength": 32}, {"buffer": 44, "byteLength": 12}, {"buffer": 45, "byteLength": 36}, {"buffer": 46, "byteLength": 12}, {"buffer": 47, "byteLength": 36}, {"buffer": 48, "byteLength": 8}, {"buffer": 49, "byteLength": 32}, {"buffer": 50, "byteLength": 8}, {"buffer": 51, "byteLength": 24}, {"buffer": 52, "byteLength": 12}, {"buffer": 53, "byteLength": 36}, {"buffer": 54, "byteLength": 8}, {"buffer": 55, "byteLength": 32}, {"buffer": 56, "byteLength": 12}, {"buffer": 57, "byteLength": 36}, {"buffer": 58, "byteLength": 12}, {"buffer": 59, "byteLength": 36}, {"buffer": 60, "byteLength": 8}, {"buffer": 61, "byteLength": 32}, {"buffer": 62, "byteLength": 12}, {"buffer": 63, "byteLength": 36}, {"buffer": 64, "byteLength": 80}, {"buffer": 65, "byteLength": 240}, {"buffer": 66, "byteLength": 80}, {"buffer": 67, "byteLength": 320}, {"buffer": 68, "byteLength": 12}, {"buffer": 69, "byteLength": 36}, {"buffer": 70, "byteLength": 8}, {"buffer": 71, "byteLength": 32}, {"buffer": 72, "byteLength": 12}, {"buffer": 73, "byteLength": 36}, {"buffer": 74, "byteLength": 12}, {"buffer": 75, "byteLength": 36}, {"buffer": 76, "byteLength": 80}, {"buffer": 77, "byteLength": 320}, {"buffer": 78, "byteLength": 12}, {"buffer": 79, "byteLength": 36}, {"buffer": 80, "byteLength": 80}, {"buffer": 81, "byteLength": 320}, {"buffer": 82, "byteLength": 8}, {"buffer": 83, "byteLength": 24}, {"buffer": 84, "byteLength": 12}, {"buffer": 85, "byteLength": 36}, {"buffer": 86, "byteLength": 8}, {"buffer": 87, "byteLength": 32}, {"buffer": 88, "byteLength": 12}, {"buffer": 89, "byteLength": 36}, {"buffer": 90, "byteLength": 12}, {"buffer": 91, "byteLength": 36}, {"buffer": 92, "byteLength": 80}, {"buffer": 93, "byteLength": 320}, {"buffer": 94, "byteLength": 12}, {"buffer": 95, "byteLength": 36}, {"buffer": 96, "byteLength": 80}, {"buffer": 97, "byteLength": 320}, {"buffer": 98, "byteLength": 8}, {"buffer": 99, "byteLength": 24}, {"buffer": 100, "byteLength": 12}, {"buffer": 101, "byteLength": 36}, {"buffer": 102, "byteLength": 8}, {"buffer": 103, "byteLength": 32}, {"buffer": 104, "byteLength": 12}, {"buffer": 105, "byteLength": 36}, {"buffer": 106, "byteLength": 8}, {"buffer": 107, "byteLength": 32}, {"buffer": 108, "byteLength": 320}, {"buffer": 109, "byteLength": 960}, {"buffer": 110, "byteLength": 320}, {"buffer": 111, "byteLength": 1280}, {"buffer": 112, "byteLength": 320}, {"buffer": 113, "byteLength": 1280}, {"buffer": 114, "byteLength": 320}, {"buffer": 115, "byteLength": 1280}, {"buffer": 116, "byteLength": 320}, {"buffer": 117, "byteLength": 1280}, {"buffer": 118, "byteLength": 80}, {"buffer": 119, "byteLength": 240}, {"buffer": 120, "byteLength": 80}, {"buffer": 121, "byteLength": 320}, {"buffer": 122, "byteLength": 80}, {"buffer": 123, "byteLength": 320}, {"buffer": 124, "byteLength": 80}, {"buffer": 125, "byteLength": 320}, {"buffer": 126, "byteLength": 80}, {"buffer": 127, "byteLength": 320}, {"buffer": 128, "byteLength": 80}, {"buffer": 129, "byteLength": 320}, {"buffer": 130, "byteLength": 80}, {"buffer": 131, "byteLength": 320}, {"buffer": 132, "byteLength": 80}, {"buffer": 133, "byteLength": 320}, {"buffer": 134, "byteLength": 80}, {"buffer": 135, "byteLength": 320}, {"buffer": 136, "byteLength": 80}, {"buffer": 137, "byteLength": 240}, {"buffer": 138, "byteLength": 80}, {"buffer": 139, "byteLength": 320}, {"buffer": 140, "byteLength": 80}, {"buffer": 141, "byteLength": 320}, {"buffer": 142, "byteLength": 80}, {"buffer": 143, "byteLength": 320}, {"buffer": 144, "byteLength": 80}, {"buffer": 145, "byteLength": 320}, {"buffer": 146, "byteLength": 80}, {"buffer": 147, "byteLength": 320}, {"buffer": 148, "byteLength": 80}, {"buffer": 149, "byteLength": 320}, {"buffer": 150, "byteLength": 80}, {"buffer": 151, "byteLength": 320}, {"buffer": 152, "byteLength": 80}, {"buffer": 153, "byteLength": 320}, {"buffer": 154, "byteLength": 80}, {"buffer": 155, "byteLength": 320}, {"buffer": 156, "byteLength": 80}, {"buffer": 157, "byteLength": 240}, {"buffer": 158, "byteLength": 80}, {"buffer": 159, "byteLength": 320}, {"buffer": 160, "byteLength": 80}, {"buffer": 161, "byteLength": 320}, {"buffer": 162, "byteLength": 80}, {"buffer": 163, "byteLength": 320}, {"buffer": 164, "byteLength": 80}, {"buffer": 165, "byteLength": 320}, {"buffer": 166, "byteLength": 80}, {"buffer": 167, "byteLength": 240}, {"buffer": 168, "byteLength": 80}, {"buffer": 169, "byteLength": 320}, {"buffer": 170, "byteLength": 80}, {"buffer": 171, "byteLength": 320}], "buffers": [{"byteLength": 84852, "uri": "data:application/octet-stream;base64,"}, {"byteLength": 66300, "uri": "data:application/octet-stream;base64,"}, {"byteLength": 84852, "uri": "data:application/octet-stream;base64,"}, {"byteLength": 113136, "uri": "data:application/octet-stream;base64,"}, {"byteLength": 56568, "uri": "data:application/octet-stream;base64,"}, {"byteLength": 1088, "uri": "data:application/octet-stream;base64,"}, {"byteLength": 56568, "uri": "data:application/octet-stream;base64,"}, {"byteLength": 113136, "uri": "data:application/octet-stream;base64,"}, {"byteLength": 48, "uri": "data:application/octet-stream;base64,"}, {"byteLength": 144, "uri": "data:application/octet-stream;base64,"}, {"byteLength": 80, "uri": "data:application/octet-stream;base64,"}, {"byteLength": 320, "uri": "data:application/octet-stream;base64,"}, {"byteLength": 80, "uri": "data:application/octet-stream;base64,"}, {"byteLength": 320, "uri": "data:application/octet-stream;base64,"}, {"byteLength": 48, "uri": "data:application/octet-stream;base64,"}, {"byteLength": 144, "uri": "data:application/octet-stream;base64,"}, {"byteLength": 48, "uri": "data:application/octet-stream;base64,"}, {"byteLength": 192, "uri": "data:application/octet-stream;base64,"}, {"byteLength": 80, "uri": "data:application/octet-stream;base64,"}, {"byteLength": 320, "uri": "data:application/octet-stream;base64,"}, {"byteLength": 80, "uri": "data:application/octet-stream;base64,"}, {"byteLength": 240, "uri": "data:application/octet-stream;base64,"}, {"byteLength": 80, "uri": "data:application/octet-stream;base64,"}, {"byteLength": 320, "uri": "data:application/octet-stream;base64,"}, {"byteLength": 12, "uri": "data:application/octet-stream;base64,"}, {"byteLength": 36, "uri": "data:application/octet-stream;base64,"}, {"byteLength": 8, "uri": "data:application/octet-stream;base64,"}, {"byteLength": 32, "uri": "data:application/octet-stream;base64,"}, {"byteLength": 12, "uri": "data:application/octet-stream;base64,"}, {"byteLength": 36, "uri": "data:application/octet-stream;base64,"}, {"byteLength": 8, "uri": "data:application/octet-stream;base64,"}, {"byteLength": 32, "uri": "data:application/octet-stream;base64,"}, {"byteLength": 8, "uri": "data:application/octet-stream;base64,"}, {"byteLength": 24, "uri": "data:application/octet-stream;base64,"}, {"byteLength": 12, "uri": "data:application/octet-stream;base64,"}, {"byteLength": 36, "uri": "data:application/octet-stream;base64,"}, {"byteLength": 8, "uri": "data:application/octet-stream;base64,"}, {"byteLength": 32, "uri": "data:application/octet-stream;base64,"}, {"byteLength": 12, "uri": "data:application/octet-stream;base64,"}, {"byteLength": 36, "uri": "data:application/octet-stream;base64,"}, {"byteLength": 12, "uri": "data:application/octet-stream;base64,"}, {"byteLength": 36, "uri": "data:application/octet-stream;base64,"}, {"byteLength": 8, "uri": "data:application/octet-stream;base64,"}, {"byteLength": 32, "uri": "data:application/octet-stream;base64,"}, {"byteLength": 12, "uri": "data:application/octet-stream;base64,"}, {"byteLength": 36, "uri": "data:application/octet-stream;base64,"}, {"byteLength": 12, "uri": "data:application/octet-stream;base64,"}, {"byteLength": 36, "uri": "data:application/octet-stream;base64,"}, {"byteLength": 8, "uri": "data:application/octet-stream;base64,"}, {"byteLength": 32, "uri": "data:application/octet-stream;base64,"}, {"byteLength": 8, "uri": "data:application/octet-stream;base64,"}, {"byteLength": 24, "uri": "data:application/octet-stream;base64,"}, {"byteLength": 12, "uri": "data:application/octet-stream;base64,"}, {"byteLength": 36, "uri": "data:application/octet-stream;base64,"}, {"byteLength": 8, "uri": "data:application/octet-stream;base64,"}, {"byteLength": 32, "uri": "data:application/octet-stream;base64,"}, {"byteLength": 12, "uri": "data:application/octet-stream;base64,"}, {"byteLength": 36, "uri": "data:application/octet-stream;base64,"}, {"byteLength": 12, "uri": "data:application/octet-stream;base64,"}, {"byteLength": 36, "uri": "data:application/octet-stream;base64,"}, {"byteLength": 8, "uri": "data:application/octet-stream;base64,"}, {"byteLength": 32, "uri": "data:application/octet-stream;base64,"}, {"byteLength": 12, "uri": "data:application/octet-stream;base64,"}, {"byteLength": 36, "uri": "data:application/octet-stream;base64,"}, {"byteLength": 80, "uri": "data:application/octet-stream;base64,"}, {"byteLength": 240, "uri": "data:application/octet-stream;base64,"}, {"byteLength": 80, "uri": "data:application/octet-stream;base64,"}, {"byteLength": 320, "uri": "data:application/octet-stream;base64,"}, {"byteLength": 12, "uri": "data:application/octet-stream;base64,"}, {"byteLength": 36, "uri": "data:application/octet-stream;base64,"}, {"byteLength": 8, "uri": "data:application/octet-stream;base64,"}, {"byteLength": 32, "uri": "data:application/octet-stream;base64,"}, {"byteLength": 12, "uri": "data:application/octet-stream;base64,"}, {"byteLength": 36, "uri": "data:application/octet-stream;base64,"}, {"byteLength": 12, "uri": "data:application/octet-stream;base64,"}, {"byteLength": 36, "uri": "data:application/octet-stream;base64,"}, {"byteLength": 80, "uri": "data:application/octet-stream;base64,"}, {"byteLength": 320, "uri": "data:application/octet-stream;base64,"}, {"byteLength": 12, "uri": "data:application/octet-stream;base64,"}, {"byteLength": 36, "uri": "data:application/octet-stream;base64,"}, {"byteLength": 80, "uri": "data:application/octet-stream;base64,"}, {"byteLength": 320, "uri": "data:application/octet-stream;base64,"}, {"byteLength": 8, "uri": "data:application/octet-stream;base64,"}, {"byteLength": 24, "uri": "data:application/octet-stream;base64,"}, {"byteLength": 12, "uri": "data:application/octet-stream;base64,"}, {"byteLength": 36, "uri": "data:application/octet-stream;base64,"}, {"byteLength": 8, "uri": "data:application/octet-stream;base64,"}, {"byteLength": 32, "uri": "data:application/octet-stream;base64,"}, {"byteLength": 12, "uri": "data:application/octet-stream;base64,"}, {"byteLength": 36, "uri": "data:application/octet-stream;base64,"}, {"byteLength": 12, "uri": "data:application/octet-stream;base64,"}, {"byteLength": 36, "uri": "data:application/octet-stream;base64,"}, {"byteLength": 80, "uri": "data:application/octet-stream;base64,"}, {"byteLength": 320, "uri": "data:application/octet-stream;base64,"}, {"byteLength": 12, "uri": "data:application/octet-stream;base64,"}, {"byteLength": 36, "uri": "data:application/octet-stream;base64,"}, {"byteLength": 80, "uri": "data:application/octet-stream;base64,"}, {"byteLength": 320, "uri": "data:application/octet-stream;base64,"}, {"byteLength": 8, "uri": "data:application/octet-stream;base64,"}, {"byteLength": 24, "uri": "data:application/octet-stream;base64,"}, {"byteLength": 12, "uri": "data:application/octet-stream;base64,"}, {"byteLength": 36, "uri": "data:application/octet-stream;base64,"}, {"byteLength": 8, "uri": "data:application/octet-stream;base64,"}, {"byteLength": 32, "uri": "data:application/octet-stream;base64,"}, {"byteLength": 12, "uri": "data:application/octet-stream;base64,"}, {"byteLength": 36, "uri": "data:application/octet-stream;base64,"}, {"byteLength": 8, "uri": "data:application/octet-stream;base64,"}, {"byteLength": 32, "uri": "data:application/octet-stream;base64,"}, {"byteLength": 320, "uri": "data:application/octet-stream;base64,"}, {"byteLength": 960, "uri": "data:application/octet-stream;base64,"}, {"byteLength": 320, "uri": "data:application/octet-stream;base64,"}, {"byteLength": 1280, "uri": "data:application/octet-stream;base64,"}, {"byteLength": 320, "uri": "data:application/octet-stream;base64,"}, {"byteLength": 1280, "uri": "data:application/octet-stream;base64,"}, {"byteLength": 320, "uri": "data:application/octet-stream;base64,"}, {"byteLength": 1280, "uri": "data:application/octet-stream;base64,"}, {"byteLength": 320, "uri": "data:application/octet-stream;base64,"}, {"byteLength": 1280, "uri": "data:application/octet-stream;base64,"}, {"byteLength": 80, "uri": "data:application/octet-stream;base64,"}, {"byteLength": 240, "uri": "data:application/octet-stream;base64,"}, {"byteLength": 80, "uri": "data:application/octet-stream;base64,"}, {"byteLength": 320, "uri": "data:application/octet-stream;base64,"}, {"byteLength": 80, "uri": "data:application/octet-stream;base64,"}, {"byteLength": 320, "uri": "data:application/octet-stream;base64,"}, {"byteLength": 80, "uri": "data:application/octet-stream;base64,"}, {"byteLength": 320, "uri": "data:application/octet-stream;base64,"}, {"byteLength": 80, "uri": "data:application/octet-stream;base64,"}, {"byteLength": 320, "uri": "data:application/octet-stream;base64,"}, {"byteLength": 80, "uri": "data:application/octet-stream;base64,"}, {"byteLength": 320, "uri": "data:application/octet-stream;base64,"}, {"byteLength": 80, "uri": "data:application/octet-stream;base64,"}, {"byteLength": 320, "uri": "data:application/octet-stream;base64,"}, {"byteLength": 80, "uri": "data:application/octet-stream;base64,"}, {"byteLength": 320, "uri": "data:application/octet-stream;base64,"}, {"byteLength": 80, "uri": "data:application/octet-stream;base64,"}, {"byteLength": 320, "uri": "data:application/octet-stream;base64,"}, {"byteLength": 80, "uri": "data:application/octet-stream;base64,"}, {"byteLength": 240, "uri": "data:application/octet-stream;base64,"}, {"byteLength": 80, "uri": "data:application/octet-stream;base64,"}, {"byteLength": 320, "uri": "data:application/octet-stream;base64,"}, {"byteLength": 80, "uri": "data:application/octet-stream;base64,"}, {"byteLength": 320, "uri": "data:application/octet-stream;base64,"}, {"byteLength": 80, "uri": "data:application/octet-stream;base64,"}, {"byteLength": 320, "uri": "data:application/octet-stream;base64,"}, {"byteLength": 80, "uri": "data:application/octet-stream;base64,"}, {"byteLength": 320, "uri": "data:application/octet-stream;base64,"}, {"byteLength": 80, "uri": "data:application/octet-stream;base64,"}, {"byteLength": 320, "uri": "data:application/octet-stream;base64,"}, {"byteLength": 80, "uri": "data:application/octet-stream;base64,"}, {"byteLength": 320, "uri": "data:application/octet-stream;base64,"}, {"byteLength": 80, "uri": "data:application/octet-stream;base64,"}, {"byteLength": 320, "uri": "data:application/octet-stream;base64,"}, {"byteLength": 80, "uri": "data:application/octet-stream;base64,"}, {"byteLength": 320, "uri": "data:application/octet-stream;base64,"}, {"byteLength": 80, "uri": "data:application/octet-stream;base64,"}, {"byteLength": 320, "uri": "data:application/octet-stream;base64,"}, {"byteLength": 80, "uri": "data:application/octet-stream;base64,"}, {"byteLength": 240, "uri": "data:application/octet-stream;base64,"}, {"byteLength": 80, "uri": "data:application/octet-stream;base64,"}, {"byteLength": 320, "uri": "data:application/octet-stream;base64,"}, {"byteLength": 80, "uri": "data:application/octet-stream;base64,"}, {"byteLength": 320, "uri": "data:application/octet-stream;base64,"}, {"byteLength": 80, "uri": "data:application/octet-stream;base64,"}, {"byteLength": 320, "uri": "data:application/octet-stream;base64,"}, {"byteLength": 80, "uri": "data:application/octet-stream;base64,"}, {"byteLength": 320, "uri": "data:application/octet-stream;base64,"}, {"byteLength": 80, "uri": "data:application/octet-stream;base64,"}, {"byteLength": 240, "uri": "data:application/octet-stream;base64,"}, {"byteLength": 80, "uri": "data:application/octet-stream;base64,"}, {"byteLength": 320, "uri": "data:application/octet-stream;base64,"}, {"byteLength": 80, "uri": "data:application/octet-stream;base64,"}, {"byteLength": 320, "uri": "data:application/octet-stream;base64,"}], "images": [{"uri": "textures/Image_0_0.png"}], "materials": [{"pbrMetallicRoughness": {"baseColorTexture": {"index": 0}, "metallicFactor": 0.0, "roughnessFactor": 0.9}, "doubleSided": false}], "meshes": [{"primitives": [{"attributes": {"JOINTS_0": 6, "NORMAL": 2, "POSITION": 0, "TANGENT": 3, "TEXCOORD_0": 4, "WEIGHTS_0": 7}, "indices": 1, "material": 0, "mode": 5}]}], "nodes": [{"mesh": 0, "name": "_gltfNode_0", "skin": 0}, {"name": "Bone.001_0", "rotation": [-3.55271e-15, 1.776355e-14, -2.0194825e-28, 1.0], "scale": [1.0, 1.0, 1.0], "translation": [0.0, 0.2375050038099289, 0.0]}, {"name": "Bone_L.002_1", "rotation": [4.011591029978594e-09, -2.8798412013062932e-08, -0.05388477845756718, 0.9985471599531894], "scale": [1.0000001192092896, 1.0000001192092896, 1.0], "translation": [1.8318698964556396e-15, 0.08582740277051926, 8.881779961836516e-15]}, {"children": [2], "name": "Bone_L.001_2", "rotation": [6.513806255367374e-08, -7.266283348131097e-08, -0.35956281700133924, 0.9331208821101674], "scale": [0.9999997615814209, 0.9999997615814209, 1.0], "translation": [-1.1175900205273592e-08, 0.15592500567436218, 7.993610012465863e-15]}, {"children": [3], "name": "Bone_L_3", "rotation": [2.4086445912452684e-07, 6.045954947286373e-08, -0.8100119987308105, 0.586413302980106], "scale": [1.0000003576278687, 1.0000003576278687, 1.0], "translation": [0.0, 0.2375050038099289, 0.0]}, {"name": "Bone_R.002_4", "rotation": [4.01159851908177e-09, 2.8798411608927095e-08, 0.05388477845756719, 0.9985471599531894], "scale": [1.0000001192092896, 1.0000001192092896, 1.0], "translation": [-1.8318698964556396e-15, 0.08582740277051926, 0.0]}, {"children": [5], "name": "Bone_R.001_5", "rotation": [6.513806255367374e-08, 7.266283348131097e-08, 0.35956281700133924, 0.9331208821101674], "scale": [0.9999997615814209, 0.9999997615814209, 1.0], "translation": [1.1175900205273592e-08, 0.15592500567436218, 1.2878599791146025e-14]}, {"children": [6], "name": "Bone_R_6", "rotation": [4.774258779181417e-08, -2.0027098466950236e-07, 0.8100119987308185, 0.5864133029801116], "scale": [1.0000003576278687, 1.0000003576278687, 1.0], "translation": [0.0, 0.2375050038099289, 0.0]}, {"children": [1, 4, 7], "name": "Bone_7", "rotation": [-2.980229999999975e-08, 1.192094999999974e-07, 0.0, 0.9999999999999925], "scale": [1.0, 1.0, 1.0], "translation": [0.0, 0.21298900246620178, 0.0]}, {"name": "Bone.002_L.002_8", "rotation": [-0.7219333177351033, 0.0, 0.2540839226076723, 0.6436253918363078], "scale": [1.0000005960464478, 0.9999995827674866, 0.9999997019767761], "translation": [3.725290076417309e-09, 0.0286507997661829, -1.8626500342122654e-09]}, {"children": [9], "name": "Bone.002_L.001_9", "rotation": [0.07685875820319021, -0.05189409673750877, 0.422538298415431, 0.9015881101609069], "scale": [1.000000238418579, 0.9999998807907104, 0.9999993443489075], "translation": [-1.0681099560372331e-08, 0.10201100260019302, 4.656610097519831e-10]}, {"children": [10], "name": "Bone.002_L_10", "rotation": [0.09334828588083886, -0.05321264250142929, -0.4378676765678706, 0.8925953226508897], "scale": [1.0000003576278687, 1.0000005960464478, 0.9999997019767761], "translation": [0.0, 0.0932283028960228, 0.0]}, {"name": "Bone.002_R.002_11", "rotation": [-0.7219333177351033, 0.0, -0.2540839226076723, 0.6436253918363078], "scale": [1.0000005960464478, 0.9999995827674866, 0.9999997019767761], "translation": [-3.725290076417309e-09, 0.0286507997661829, -1.8626500342122654e-09]}, {"children": [12], "name": "Bone.002_R.001_12", "rotation": [0.07685875820319021, 0.05189409673750877, -0.422538298415431, 0.9015881101609069], "scale": [1.000000238418579, 0.9999998807907104, 0.9999993443489075], "translation": [1.0681099560372331e-08, 0.10201100260019302, 4.656610097519831e-10]}, {"children": [13], "name": "Bone.002_R_13", "rotation": [0.09334828588083886, 0.05321264250142929, 0.4378676765678706, 0.8925953226508897], "scale": [1.0000003576278687, 1.0000005960464478, 0.9999997019767761], "translation": [0.0, 0.0932283028960228, 0.0]}, {"name": "Bone.004_14", "rotation": [-0.04918198145736395, 2.4969749190538245e-24, 1.0920617211949535e-17, 0.9987898340992145], "scale": [1.0, 0.9999997615814209, 0.9999997615814209], "translation": [2.988839895486863e-26, 0.15643000602722168, -4.423780008977474e-09]}, {"children": [15], "name": "Bone.003_15", "rotation": [0.711773841855151, 1.0397279600149759e-18, -1.0397280660786831e-18, 0.7024087115424738], "scale": [1.0, 0.9999997019767761, 0.9999997019767761], "translation": [0.0, 0.0932283028960228, 0.0]}, {"children": [11, 14, 16], "name": "Bone.002_16", "rotation": [1.0, 0.0, 0.0, 0.0], "scale": [1.0, 1.0, 1.0], "translation": [0.0, 0.21298900246620178, 0.0]}, {"children": [8, 17], "name": "GLTF_created_0"}, {"children": [18], "name": "Armature_18"}, {"children": [19], "name": "gugu gagaa characters 3D Animated", "rotation": [-1.9753748434203095e-22, 0.0, 0.0, 1.0], "scale": [1.0, 1.0, 1.0], "translation": [0.0, 0.0, 0.0]}], "samplers": [{"magFilter": 9729, "minFilter": 9729, "wrapS": 10497, "wrapT": 10497}], "scene": 0, "scenes": [{"nodes": [20, 0]}], "skins": [{"inverseBindMatrices": 5, "joints": [1, 2, 3, 4, 5, 6, 7, 8, 9, 10, 11, 12, 13, 14, 15, 16, 17]}], "textures": [{"source": 0, "sampler": 0}]}