# Blender 4.2.15 LTS
# www.blender.org
mtllib minecraft-villager-archer-20.mtl
o 8a0322ec-38c2-2d0f-daf7-e8eba0583438
v 4.000000 24.000000 3.000000
v 4.000000 12.000000 3.000000
v 4.000000 24.000000 -3.000000
v 4.000000 12.000000 3.000000
v 4.000000 12.000000 -3.000000
v 4.000000 24.000000 -3.000000
v -4.000000 24.000000 -3.000000
v -4.000000 12.000000 -3.000000
v -4.000000 24.000000 3.000000
v -4.000000 12.000000 -3.000000
v -4.000000 12.000000 3.000000
v -4.000000 24.000000 3.000000
v -4.000000 24.000000 -3.000000
v -4.000000 24.000000 3.000000
v 4.000000 24.000000 -3.000000
v -4.000000 24.000000 3.000000
v 4.000000 24.000000 3.000000
v 4.000000 24.000000 -3.000000
v -4.000000 12.000000 3.000000
v -4.000000 12.000000 -3.000000
v 4.000000 12.000000 3.000000
v -4.000000 12.000000 -3.000000
v 4.000000 12.000000 -3.000000
v 4.000000 12.000000 3.000000
v -4.000000 24.000000 3.000000
v -4.000000 12.000000 3.000000
v 4.000000 24.000000 3.000000
v -4.000000 12.000000 3.000000
v 4.000000 12.000000 3.000000
v 4.000000 24.000000 3.000000
v 4.000000 24.000000 -3.000000
v 4.000000 12.000000 -3.000000
v -4.000000 24.000000 -3.000000
v 4.000000 12.000000 -3.000000
v -4.000000 12.000000 -3.000000
v -4.000000 24.000000 -3.000000
vn 1.0000 -0.0000 -0.0000
vn -1.0000 -0.0000 -0.0000
vn -0.0000 1.0000 -0.0000
vn -0.0000 -1.0000 -0.0000
vn -0.0000 -0.0000 1.0000
vn -0.0000 -0.0000 -1.0000
vt 0.000122 0.203247
vt 0.000122 0.296753
vt 0.046753 0.203247
vt 0.046753 0.296753
vt 0.109497 0.203247
vt 0.109497 0.296753
vt 0.156128 0.203247
vt 0.156128 0.296753
vt 0.109253 0.203003
vt 0.109253 0.156372
vt 0.046997 0.203003
vt 0.046997 0.156372
vt 0.171753 0.156372
vt 0.171753 0.203003
vt 0.109497 0.156372
vt 0.109497 0.203003
vt 0.156372 0.203247
vt 0.156372 0.296753
vt 0.218628 0.203247
vt 0.218628 0.296753
vt 0.046997 0.203247
vt 0.046997 0.296753
vt 0.109253 0.203247
vt 0.109253 0.296753
s 0
usemtl Archer.png
f 1/1/1 2/2/1 3/3/1
f 4/2/1 5/4/1 6/3/1
f 7/5/2 8/6/2 9/7/2
f 10/6/2 11/8/2 12/7/2
f 13/9/3 14/10/3 15/11/3
f 16/10/3 17/12/3 18/11/3
f 19/13/4 20/14/4 21/15/4
f 22/14/4 23/16/4 24/15/4
f 25/17/5 26/18/5 27/19/5
f 28/18/5 29/20/5 30/19/5
f 31/21/6 32/22/6 33/23/6
f 34/22/6 35/24/6 36/23/6
o 868acf81-676d-e60a-8749-557f9c88a315
v 4.200000 24.200001 3.200000
v 4.200000 5.800000 3.200000
v 4.200000 24.200001 -3.200000
v 4.200000 5.800000 3.200000
v 4.200000 5.800000 -3.200000
v 4.200000 24.200001 -3.200000
v -4.200000 24.200001 -3.200000
v -4.200000 5.800000 -3.200000
v -4.200000 24.200001 3.200000
v -4.200000 5.800000 -3.200000
v -4.200000 5.800000 3.200000
v -4.200000 24.200001 3.200000
v -4.200000 24.200001 -3.200000
v -4.200000 24.200001 3.200000
v 4.200000 24.200001 -3.200000
v -4.200000 24.200001 3.200000
v 4.200000 24.200001 3.200000
v 4.200000 24.200001 -3.200000
v -4.200000 5.800000 3.200000
v -4.200000 5.800000 -3.200000
v 4.200000 5.800000 3.200000
v -4.200000 5.800000 -3.200000
v 4.200000 5.800000 -3.200000
v 4.200000 5.800000 3.200000
v -4.200000 24.200001 3.200000
v -4.200000 5.800000 3.200000
v 4.200000 24.200001 3.200000
v -4.200000 5.800000 3.200000
v 4.200000 5.800000 3.200000
v 4.200000 24.200001 3.200000
v 4.200000 24.200001 -3.200000
v 4.200000 5.800000 -3.200000
v -4.200000 24.200001 -3.200000
v 4.200000 5.800000 -3.200000
v -4.200000 5.800000 -3.200000
v -4.200000 24.200001 -3.200000
vn 1.0000 -0.0000 -0.0000
vn -1.0000 -0.0000 -0.0000
vn -0.0000 1.0000 -0.0000
vn -0.0000 -1.0000 -0.0000
vn -0.0000 -0.0000 1.0000
vn -0.0000 -0.0000 -1.0000
vt 0.000122 0.343872
vt 0.000122 0.484253
vt 0.046753 0.343872
vt 0.046753 0.484253
vt 0.109497 0.343872
vt 0.109497 0.484253
vt 0.156128 0.343872
vt 0.156128 0.484253
vt 0.109253 0.343628
vt 0.109253 0.296997
vt 0.046997 0.343628
vt 0.046997 0.296997
vt 0.171753 0.296997
vt 0.171753 0.343628
vt 0.109497 0.296997
vt 0.109497 0.343628
vt 0.156372 0.343872
vt 0.156372 0.484253
vt 0.218628 0.343872
vt 0.218628 0.484253
vt 0.046997 0.343872
vt 0.046997 0.484253
vt 0.109253 0.343872
vt 0.109253 0.484253
s 0
usemtl Archer.png
f 37/25/7 38/26/7 39/27/7
f 40/26/7 41/28/7 42/27/7
f 43/29/8 44/30/8 45/31/8
f 46/30/8 47/32/8 48/31/8
f 49/33/9 50/34/9 51/35/9
f 52/34/9 53/36/9 54/35/9
f 55/37/10 56/38/10 57/39/10
f 58/38/10 59/40/10 60/39/10
f 61/41/11 62/42/11 63/43/11
f 64/42/11 65/44/11 66/43/11
f 67/45/12 68/46/12 69/47/12
f 70/46/12 71/48/12 72/47/12
o 0fe7bf71-9271-5556-cd34-2504ca4cb709
v 6.000000 27.000000 4.301000
v 6.000000 14.000000 4.301000
v 6.000000 27.000000 4.300000
v 6.000000 14.000000 4.301000
v 6.000000 14.000000 4.300000
v 6.000000 27.000000 4.300000
v -7.000000 27.000000 4.300000
v -7.000000 14.000000 4.300000
v -7.000000 27.000000 4.301000
v -7.000000 14.000000 4.300000
v -7.000000 14.000000 4.301000
v -7.000000 27.000000 4.301000
v -7.000000 27.000000 4.300000
v -7.000000 27.000000 4.301000
v 6.000000 27.000000 4.300000
v -7.000000 27.000000 4.301000
v 6.000000 27.000000 4.301000
v 6.000000 27.000000 4.300000
v -7.000000 14.000000 4.301000
v -7.000000 14.000000 4.300000
v 6.000000 14.000000 4.301000
v -7.000000 14.000000 4.300000
v 6.000000 14.000000 4.300000
v 6.000000 14.000000 4.301000
v -7.000000 27.000000 4.301000
v -7.000000 14.000000 4.301000
v 6.000000 27.000000 4.301000
v -7.000000 14.000000 4.301000
v 6.000000 14.000000 4.301000
v 6.000000 27.000000 4.301000
v 6.000000 27.000000 4.300000
v 6.000000 14.000000 4.300000
v -7.000000 27.000000 4.300000
v 6.000000 14.000000 4.300000
v -7.000000 14.000000 4.300000
v -7.000000 27.000000 4.300000
vn 1.0000 -0.0000 -0.0000
vn -1.0000 -0.0000 -0.0000
vn -0.0000 1.0000 -0.0000
vn -0.0000 -1.0000 -0.0000
vn -0.0000 -0.0000 1.0000
vn -0.0000 -0.0000 -1.0000
vt 0.234497 0.484497
vt 0.234497 0.585815
vt 0.234253 0.484497
vt 0.234253 0.585815
vt 0.336060 0.484497
vt 0.336060 0.585815
vt 0.335815 0.484497
vt 0.335815 0.585815
vt 0.335815 0.484253
vt 0.234497 0.484253
vt 0.437378 0.484497
vt 0.437378 0.484253
vt 0.336060 0.484253
vt 0.437378 0.585815
s 0
usemtl Archer.png
f 73/49/13 74/50/13 75/51/13
f 76/50/13 77/52/13 78/51/13
f 79/53/14 80/54/14 81/55/14
f 82/54/14 83/56/14 84/55/14
f 85/55/15 86/57/15 87/49/15
f 88/57/15 89/58/15 90/49/15
f 91/59/16 92/60/16 93/53/16
f 94/60/16 95/61/16 96/53/16
f 97/53/17 98/54/17 99/59/17
f 100/54/17 101/62/17 102/59/17
f 103/49/18 104/50/18 105/55/18
f 106/50/18 107/56/18 108/55/18
o 113fcf86-8b6f-c64b-f735-5e2c8f1c217d
v 2.000000 22.000000 6.050000
v 2.000000 14.000000 6.050000
v 2.000000 22.000000 3.050000
v 2.000000 14.000000 6.050000
v 2.000000 14.000000 3.050000
v 2.000000 22.000000 3.050000
v -2.000000 22.000000 3.050000
v -2.000000 14.000000 3.050000
v -2.000000 22.000000 6.050000
v -2.000000 14.000000 3.050000
v -2.000000 14.000000 6.050000
v -2.000000 22.000000 6.050000
v -2.000000 22.000000 3.050000
v -2.000000 22.000000 6.050000
v 2.000000 22.000000 3.050000
v -2.000000 22.000000 6.050000
v 2.000000 22.000000 6.050000
v 2.000000 22.000000 3.050000
v -2.000000 14.000000 6.050000
v -2.000000 14.000000 3.050000
v 2.000000 14.000000 6.050000
v -2.000000 14.000000 3.050000
v 2.000000 14.000000 3.050000
v 2.000000 14.000000 6.050000
v -2.000000 22.000000 6.050000
v -2.000000 14.000000 6.050000
v 2.000000 22.000000 6.050000
v -2.000000 14.000000 6.050000
v 2.000000 14.000000 6.050000
v 2.000000 22.000000 6.050000
v 2.000000 22.000000 3.050000
v 2.000000 14.000000 3.050000
v -2.000000 22.000000 3.050000
v 2.000000 14.000000 3.050000
v -2.000000 14.000000 3.050000
v -2.000000 22.000000 3.050000
vn 1.0000 -0.0000 -0.0000
vn -1.0000 -0.0000 -0.0000
vn -0.0000 1.0000 -0.0000
vn -0.0000 -1.0000 -0.0000
vn -0.0000 -0.0000 1.0000
vn -0.0000 -0.0000 -1.0000
vt 0.343872 0.234497
vt 0.343872 0.296753
vt 0.367065 0.234497
vt 0.367065 0.296753
vt 0.398560 0.234497
vt 0.398560 0.296753
vt 0.421753 0.234497
vt 0.421753 0.296753
vt 0.398315 0.234253
vt 0.398315 0.211060
vt 0.367310 0.234253
vt 0.367310 0.211060
vt 0.429565 0.211060
vt 0.429565 0.234253
vt 0.398560 0.211060
vt 0.398560 0.234253
vt 0.421997 0.234497
vt 0.421997 0.296753
vt 0.453003 0.234497
vt 0.453003 0.296753
vt 0.367310 0.234497
vt 0.367310 0.296753
vt 0.398315 0.234497
vt 0.398315 0.296753
s 0
usemtl Archer.png
f 109/63/19 110/64/19 111/65/19
f 112/64/19 113/66/19 114/65/19
f 115/67/20 116/68/20 117/69/20
f 118/68/20 119/70/20 120/69/20
f 121/71/21 122/72/21 123/73/21
f 124/72/21 125/74/21 126/73/21
f 127/75/22 128/76/22 129/77/22
f 130/76/22 131/78/22 132/77/22
f 133/79/23 134/80/23 135/81/23
f 136/80/23 137/82/23 138/81/23
f 139/83/24 140/84/24 141/85/24
f 142/84/24 143/86/24 144/85/24
o e55f436d-2867-a77f-4609-0cc7270c2a25
v 0.001000 24.000000 6.050000
v 0.001000 20.000000 6.050000
v 0.001000 24.000000 3.050000
v 0.001000 20.000000 6.050000
v 0.001000 20.000000 3.050000
v 0.001000 24.000000 3.050000
v 0.000000 24.000000 3.050000
v 0.000000 20.000000 3.050000
v 0.000000 24.000000 6.050000
v 0.000000 20.000000 3.050000
v 0.000000 20.000000 6.050000
v 0.000000 24.000000 6.050000
v 0.000000 24.000000 3.050000
v 0.000000 24.000000 6.050000
v 0.001000 24.000000 3.050000
v 0.000000 24.000000 6.050000
v 0.001000 24.000000 6.050000
v 0.001000 24.000000 3.050000
v 0.000000 20.000000 6.050000
v 0.000000 20.000000 3.050000
v 0.001000 20.000000 6.050000
v 0.000000 20.000000 3.050000
v 0.001000 20.000000 3.050000
v 0.001000 20.000000 6.050000
v 0.000000 24.000000 6.050000
v 0.000000 20.000000 6.050000
v 0.001000 24.000000 6.050000
v 0.000000 20.000000 6.050000
v 0.001000 20.000000 6.050000
v 0.001000 24.000000 6.050000
v 0.001000 24.000000 3.050000
v 0.001000 20.000000 3.050000
v 0.000000 24.000000 3.050000
v 0.001000 20.000000 3.050000
v 0.000000 20.000000 3.050000
v 0.000000 24.000000 3.050000
vn 1.0000 -0.0000 -0.0000
vn -1.0000 -0.0000 -0.0000
vn -0.0000 1.0000 -0.0000
vn -0.0000 -1.0000 -0.0000
vn -0.0000 -0.0000 1.0000
vn -0.0000 -0.0000 -1.0000
vt 0.429810 0.203247
vt 0.429810 0.234253
vt 0.453003 0.203247
vt 0.453003 0.234253
vt 0.453247 0.203247
vt 0.453247 0.234253
vt 0.476440 0.203247
vt 0.476440 0.234253
vt 0.453247 0.203003
vt 0.453247 0.179810
vt 0.453003 0.203003
vt 0.453003 0.179810
vt 0.476685 0.203247
vt 0.476685 0.234253
s 0
usemtl Archer.png
f 145/87/25 146/88/25 147/89/25
f 148/88/25 149/90/25 150/89/25
f 151/91/26 152/92/26 153/93/26
f 154/92/26 155/94/26 156/93/26
f 157/95/27 158/96/27 159/97/27
f 160/96/27 161/98/27 162/97/27
f 163/96/28 164/95/28 165/98/28
f 166/95/28 167/97/28 168/98/28
f 169/99/29 170/100/29 171/93/29
f 172/100/29 173/94/29 174/93/29
f 175/91/30 176/92/30 177/89/30
f 178/92/30 179/90/30 180/89/30
o 9f48d7fd-e743-0b99-188e-8824ca1328be
v 1.500000 24.000000 4.551000
v 1.500000 20.000000 4.551000
v 1.500000 24.000000 4.550000
v 1.500000 20.000000 4.551000
v 1.500000 20.000000 4.550000
v 1.500000 24.000000 4.550000
v -1.500000 24.000000 4.550000
v -1.500000 20.000000 4.550000
v -1.500000 24.000000 4.551000
v -1.500000 20.000000 4.550000
v -1.500000 20.000000 4.551000
v -1.500000 24.000000 4.551000
v -1.500000 24.000000 4.550000
v -1.500000 24.000000 4.551000
v 1.500000 24.000000 4.550000
v -1.500000 24.000000 4.551000
v 1.500000 24.000000 4.551000
v 1.500000 24.000000 4.550000
v -1.500000 20.000000 4.551000
v -1.500000 20.000000 4.550000
v 1.500000 20.000000 4.551000
v -1.500000 20.000000 4.550000
v 1.500000 20.000000 4.550000
v 1.500000 20.000000 4.551000
v -1.500000 24.000000 4.551000
v -1.500000 20.000000 4.551000
v 1.500000 24.000000 4.551000
v -1.500000 20.000000 4.551000
v 1.500000 20.000000 4.551000
v 1.500000 24.000000 4.551000
v 1.500000 24.000000 4.550000
v 1.500000 20.000000 4.550000
v -1.500000 24.000000 4.550000
v 1.500000 20.000000 4.550000
v -1.500000 20.000000 4.550000
v -1.500000 24.000000 4.550000
vn 1.0000 -0.0000 -0.0000
vn -1.0000 -0.0000 -0.0000
vn -0.0000 1.0000 -0.0000
vn -0.0000 -1.0000 -0.0000
vn -0.0000 -0.0000 1.0000
vn -0.0000 -0.0000 -1.0000
vt 0.453247 0.203247
vt 0.453247 0.234253
vt 0.453003 0.203247
vt 0.453003 0.234253
vt 0.429810 0.203247
vt 0.429810 0.234253
vt 0.429565 0.203247
vt 0.429565 0.234253
vt 0.429810 0.203003
vt 0.453003 0.203003
vt 0.453247 0.203003
vt 0.476440 0.203247
vt 0.476440 0.203003
vt 0.476440 0.234253
s 0
usemtl Archer.png
f 181/101/31 182/102/31 183/103/31
f 184/102/31 185/104/31 186/103/31
f 187/105/32 188/106/32 189/107/32
f 190/106/32 191/108/32 192/107/32
f 193/105/33 194/109/33 195/103/33
f 196/109/33 197/110/33 198/103/33
f 199/101/34 200/111/34 201/112/34
f 202/111/34 203/113/34 204/112/34
f 205/112/35 206/114/35 207/101/35
f 208/114/35 209/102/35 210/101/35
f 211/103/36 212/104/36 213/105/36
f 214/104/36 215/106/36 216/105/36
o d1aa91d1-cf70-3f7b-4081-768623328925
v 4.000000 34.000000 4.000000
v 4.000000 24.000000 4.000000
v 4.000000 34.000000 -4.000000
v 4.000000 24.000000 4.000000
v 4.000000 24.000000 -4.000000
v 4.000000 34.000000 -4.000000
v -4.000000 34.000000 -4.000000
v -4.000000 24.000000 -4.000000
v -4.000000 34.000000 4.000000
v -4.000000 24.000000 -4.000000
v -4.000000 24.000000 4.000000
v -4.000000 34.000000 4.000000
v -4.000000 34.000000 -4.000000
v -4.000000 34.000000 4.000000
v 4.000000 34.000000 -4.000000
v -4.000000 34.000000 4.000000
v 4.000000 34.000000 4.000000
v 4.000000 34.000000 -4.000000
v -4.000000 24.000000 4.000000
v -4.000000 24.000000 -4.000000
v 4.000000 24.000000 4.000000
v -4.000000 24.000000 -4.000000
v 4.000000 24.000000 -4.000000
v 4.000000 24.000000 4.000000
v -4.000000 34.000000 4.000000
v -4.000000 24.000000 4.000000
v 4.000000 34.000000 4.000000
v -4.000000 24.000000 4.000000
v 4.000000 24.000000 4.000000
v 4.000000 34.000000 4.000000
v 4.000000 34.000000 -4.000000
v 4.000000 24.000000 -4.000000
v -4.000000 34.000000 -4.000000
v 4.000000 24.000000 -4.000000
v -4.000000 24.000000 -4.000000
v -4.000000 34.000000 -4.000000
vn 1.0000 -0.0000 -0.0000
vn -1.0000 -0.0000 -0.0000
vn -0.0000 1.0000 -0.0000
vn -0.0000 -1.0000 -0.0000
vn -0.0000 -0.0000 1.0000
vn -0.0000 -0.0000 -1.0000
vt 0.000122 0.062622
vt 0.000122 0.140503
vt 0.062378 0.062622
vt 0.062378 0.140503
vt 0.125122 0.062622
vt 0.125122 0.140503
vt 0.187378 0.062622
vt 0.187378 0.140503
vt 0.124878 0.062378
vt 0.124878 0.000122
vt 0.062622 0.062378
vt 0.062622 0.000122
vt 0.187378 0.000122
vt 0.187378 0.062378
vt 0.125122 0.000122
vt 0.125122 0.062378
vt 0.187622 0.062622
vt 0.187622 0.140503
vt 0.249878 0.062622
vt 0.249878 0.140503
vt 0.062622 0.062622
vt 0.062622 0.140503
vt 0.124878 0.062622
vt 0.124878 0.140503
s 0
usemtl Archer.png
f 217/115/37 218/116/37 219/117/37
f 220/116/37 221/118/37 222/117/37
f 223/119/38 224/120/38 225/121/38
f 226/120/38 227/122/38 228/121/38
f 229/123/39 230/124/39 231/125/39
f 232/124/39 233/126/39 234/125/39
f 235/127/40 236/128/40 237/129/40
f 238/128/40 239/130/40 240/129/40
f 241/131/41 242/132/41 243/133/41
f 244/132/41 245/134/41 246/133/41
f 247/135/42 248/136/42 249/137/42
f 250/136/42 251/138/42 252/137/42
o 8b1451da-dd0e-c22b-4b58-513f1ce71b28
v 1.000000 27.000000 -4.000000
v 1.000000 23.000000 -4.000000
v 1.000000 27.000000 -6.000000
v 1.000000 23.000000 -4.000000
v 1.000000 23.000000 -6.000000
v 1.000000 27.000000 -6.000000
v -1.000000 27.000000 -6.000000
v -1.000000 23.000000 -6.000000
v -1.000000 27.000000 -4.000000
v -1.000000 23.000000 -6.000000
v -1.000000 23.000000 -4.000000
v -1.000000 27.000000 -4.000000
v -1.000000 27.000000 -6.000000
v -1.000000 27.000000 -4.000000
v 1.000000 27.000000 -6.000000
v -1.000000 27.000000 -4.000000
v 1.000000 27.000000 -4.000000
v 1.000000 27.000000 -6.000000
v -1.000000 23.000000 -4.000000
v -1.000000 23.000000 -6.000000
v 1.000000 23.000000 -4.000000
v -1.000000 23.000000 -6.000000
v 1.000000 23.000000 -6.000000
v 1.000000 23.000000 -4.000000
v -1.000000 27.000000 -4.000000
v -1.000000 23.000000 -4.000000
v 1.000000 27.000000 -4.000000
v -1.000000 23.000000 -4.000000
v 1.000000 23.000000 -4.000000
v 1.000000 27.000000 -4.000000
v 1.000000 27.000000 -6.000000
v 1.000000 23.000000 -6.000000
v -1.000000 27.000000 -6.000000
v 1.000000 23.000000 -6.000000
v -1.000000 23.000000 -6.000000
v -1.000000 27.000000 -6.000000
vn 1.0000 -0.0000 -0.0000
vn -1.0000 -0.0000 -0.0000
vn -0.0000 1.0000 -0.0000
vn -0.0000 -1.0000 -0.0000
vn -0.0000 -0.0000 1.0000
vn -0.0000 -0.0000 -1.0000
vt 0.187622 0.015747
vt 0.187622 0.046753
vt 0.203003 0.015747
vt 0.203003 0.046753
vt 0.218872 0.015747
vt 0.218872 0.046753
vt 0.234253 0.015747
vt 0.234253 0.046753
vt 0.218628 0.015503
vt 0.218628 0.000122
vt 0.203247 0.015503
vt 0.203247 0.000122
vt 0.234253 0.000122
vt 0.234253 0.015503
vt 0.218872 0.000122
vt 0.218872 0.015503
vt 0.234497 0.015747
vt 0.234497 0.046753
vt 0.249878 0.015747
vt 0.249878 0.046753
vt 0.203247 0.015747
vt 0.203247 0.046753
vt 0.218628 0.015747
vt 0.218628 0.046753
s 0
usemtl Archer.png
f 253/139/43 254/140/43 255/141/43
f 256/140/43 257/142/43 258/141/43
f 259/143/44 260/144/44 261/145/44
f 262/144/44 263/146/44 264/145/44
f 265/147/45 266/148/45 267/149/45
f 268/148/45 269/150/45 270/149/45
f 271/151/46 272/152/46 273/153/46
f 274/152/46 275/154/46 276/153/46
f 277/155/47 278/156/47 279/157/47
f 280/156/47 281/158/47 282/157/47
f 283/159/48 284/160/48 285/161/48
f 286/160/48 287/162/48 288/161/48
o 9836660a-e2db-9e9e-e5ad-3b3d82a02406
v 4.500000 34.500000 4.500000
v 4.500000 29.500000 4.500000
v 4.500000 34.500000 -4.500000
v 4.500000 29.500000 4.500000
v 4.500000 29.500000 -4.500000
v 4.500000 34.500000 -4.500000
v -4.500000 34.500000 -4.500000
v -4.500000 29.500000 -4.500000
v -4.500000 34.500000 4.500000
v -4.500000 29.500000 -4.500000
v -4.500000 29.500000 4.500000
v -4.500000 34.500000 4.500000
v -4.500000 34.500000 -4.500000
v -4.500000 34.500000 4.500000
v 4.500000 34.500000 -4.500000
v -4.500000 34.500000 4.500000
v 4.500000 34.500000 4.500000
v 4.500000 34.500000 -4.500000
v -4.500000 29.500000 4.500000
v -4.500000 29.500000 -4.500000
v 4.500000 29.500000 4.500000
v -4.500000 29.500000 -4.500000
v 4.500000 29.500000 -4.500000
v 4.500000 29.500000 4.500000
v -4.500000 34.500000 4.500000
v -4.500000 29.500000 4.500000
v 4.500000 34.500000 4.500000
v -4.500000 29.500000 4.500000
v 4.500000 29.500000 4.500000
v 4.500000 34.500000 4.500000
v 4.500000 34.500000 -4.500000
v 4.500000 29.500000 -4.500000
v -4.500000 34.500000 -4.500000
v 4.500000 29.500000 -4.500000
v -4.500000 29.500000 -4.500000
v -4.500000 34.500000 -4.500000
vn 1.0000 -0.0000 -0.0000
vn -1.0000 -0.0000 -0.0000
vn -0.0000 1.0000 -0.0000
vn -0.0000 -1.0000 -0.0000
vn -0.0000 -0.0000 1.0000
vn -0.0000 -0.0000 -1.0000
vt 0.218872 0.140747
vt 0.218872 0.179565
vt 0.288940 0.140747
vt 0.288940 0.179565
vt 0.359497 0.140747
vt 0.359497 0.179565
vt 0.429565 0.140747
vt 0.429565 0.179565
vt 0.359253 0.140503
vt 0.359253 0.070435
vt 0.289185 0.140503
vt 0.289185 0.070435
vt 0.429565 0.070435
vt 0.429565 0.140503
vt 0.359497 0.070435
vt 0.359497 0.140503
vt 0.429810 0.140747
vt 0.429810 0.179565
vt 0.499878 0.140747
vt 0.499878 0.179565
vt 0.289185 0.140747
vt 0.289185 0.179565
vt 0.359253 0.140747
vt 0.359253 0.179565
s 0
usemtl Archer.png
f 289/163/49 290/164/49 291/165/49
f 292/164/49 293/166/49 294/165/49
f 295/167/50 296/168/50 297/169/50
f 298/168/50 299/170/50 300/169/50
f 301/171/51 302/172/51 303/173/51
f 304/172/51 305/174/51 306/173/51
f 307/175/52 308/176/52 309/177/52
f 310/176/52 311/178/52 312/177/52
f 313/179/53 314/180/53 315/181/53
f 316/180/53 317/182/53 318/181/53
f 319/183/54 320/184/54 321/185/54
f 322/184/54 323/186/54 324/185/54
o d597f116-ecbf-f329-80ef-8e60fdb31279
v 6.500000 29.500999 6.500000
v 6.500000 29.500000 6.500000
v 6.500000 29.500999 -6.500000
v 6.500000 29.500000 6.500000
v 6.500000 29.500000 -6.500000
v 6.500000 29.500999 -6.500000
v -6.500000 29.500999 -6.500000
v -6.500000 29.500000 -6.500000
v -6.500000 29.500999 6.500000
v -6.500000 29.500000 -6.500000
v -6.500000 29.500000 6.500000
v -6.500000 29.500999 6.500000
v -6.500000 29.500999 -6.500000
v -6.500000 29.500999 6.500000
v 6.500000 29.500999 -6.500000
v -6.500000 29.500999 6.500000
v 6.500000 29.500999 6.500000
v 6.500000 29.500999 -6.500000
v -6.500000 29.500000 6.500000
v -6.500000 29.500000 -6.500000
v 6.500000 29.500000 6.500000
v -6.500000 29.500000 -6.500000
v 6.500000 29.500000 -6.500000
v 6.500000 29.500000 6.500000
v -6.500000 29.500999 6.500000
v -6.500000 29.500000 6.500000
v 6.500000 29.500999 6.500000
v -6.500000 29.500000 6.500000
v 6.500000 29.500000 6.500000
v 6.500000 29.500999 6.500000
v 6.500000 29.500999 -6.500000
v 6.500000 29.500000 -6.500000
v -6.500000 29.500999 -6.500000
v 6.500000 29.500000 -6.500000
v -6.500000 29.500000 -6.500000
v -6.500000 29.500999 -6.500000
vn 1.0000 -0.0000 -0.0000
vn -1.0000 -0.0000 -0.0000
vn -0.0000 1.0000 -0.0000
vn -0.0000 -1.0000 -0.0000
vn -0.0000 -0.0000 1.0000
vn -0.0000 -0.0000 -1.0000
vt 0.398560 0.492310
vt 0.398560 0.492065
vt 0.499878 0.492310
vt 0.499878 0.492065
vt 0.601685 0.492310
vt 0.601685 0.492065
vt 0.703003 0.492310
vt 0.703003 0.492065
vt 0.601440 0.492065
vt 0.601440 0.390747
vt 0.500122 0.492065
vt 0.500122 0.390747
vt 0.703003 0.390747
vt 0.601685 0.390747
vt 0.703247 0.492310
vt 0.703247 0.492065
vt 0.804565 0.492310
vt 0.804565 0.492065
vt 0.500122 0.492310
vt 0.601440 0.492310
s 0
usemtl Archer.png
f 325/187/55 326/188/55 327/189/55
f 328/188/55 329/190/55 330/189/55
f 331/191/56 332/192/56 333/193/56
f 334/192/56 335/194/56 336/193/56
f 337/195/57 338/196/57 339/197/57
f 340/196/57 341/198/57 342/197/57
f 343/199/58 344/194/58 345/200/58
f 346/194/58 347/192/58 348/200/58
f 349/201/59 350/202/59 351/203/59
f 352/202/59 353/204/59 354/203/59
f 355/205/60 356/197/60 357/206/60
f 358/197/60 359/195/60 360/206/60
o 8e49b925-2e10-e3fb-e262-72505efe3c6f
v -4.599000 40.500000 5.500000
v -4.599000 29.500000 5.500000
v -4.599000 40.500000 -3.500000
v -4.599000 29.500000 5.500000
v -4.599000 29.500000 -3.500000
v -4.599000 40.500000 -3.500000
v -4.600000 40.500000 -3.500000
v -4.600000 29.500000 -3.500000
v -4.600000 40.500000 5.500000
v -4.600000 29.500000 -3.500000
v -4.600000 29.500000 5.500000
v -4.600000 40.500000 5.500000
v -4.600000 40.500000 -3.500000
v -4.600000 40.500000 5.500000
v -4.599000 40.500000 -3.500000
v -4.600000 40.500000 5.500000
v -4.599000 40.500000 5.500000
v -4.599000 40.500000 -3.500000
v -4.600000 29.500000 5.500000
v -4.600000 29.500000 -3.500000
v -4.599000 29.500000 5.500000
v -4.600000 29.500000 -3.500000
v -4.599000 29.500000 -3.500000
v -4.599000 29.500000 5.500000
v -4.600000 40.500000 5.500000
v -4.600000 29.500000 5.500000
v -4.599000 40.500000 5.500000
v -4.600000 29.500000 5.500000
v -4.599000 29.500000 5.500000
v -4.599000 40.500000 5.500000
v -4.599000 40.500000 -3.500000
v -4.599000 29.500000 -3.500000
v -4.600000 40.500000 -3.500000
v -4.599000 29.500000 -3.500000
v -4.600000 29.500000 -3.500000
v -4.600000 40.500000 -3.500000
vn 1.0000 -0.0000 -0.0000
vn -1.0000 -0.0000 -0.0000
vn -0.0000 1.0000 -0.0000
vn -0.0000 -1.0000 -0.0000
vn -0.0000 -0.0000 1.0000
vn -0.0000 -0.0000 -1.0000
vt 0.039185 0.656372
vt 0.039185 0.742065
vt 0.109253 0.656372
vt 0.109253 0.742065
vt 0.109497 0.656372
vt 0.109497 0.742065
vt 0.179565 0.656372
vt 0.179565 0.742065
vt 0.109497 0.656128
vt 0.109497 0.586060
vt 0.109253 0.656128
vt 0.109253 0.586060
vt 0.179810 0.656372
vt 0.179810 0.742065
s 0
usemtl Archer.png
f 361/207/61 362/208/61 363/209/61
f 364/208/61 365/210/61 366/209/61
f 367/211/62 368/212/62 369/213/62
f 370/212/62 371/214/62 372/213/62
f 373/215/63 374/216/63 375/217/63
f 376/216/63 377/218/63 378/217/63
f 379/216/64 380/215/64 381/218/64
f 382/215/64 383/217/64 384/218/64
f 385/219/65 386/220/65 387/213/65
f 388/220/65 389/214/65 390/213/65
f 391/211/66 392/212/66 393/209/66
f 394/212/66 395/210/66 396/209/66
o 3678d1f1-f899-afc6-8282-f2873e9d4534
v 8.000000 24.000000 2.000000
v 8.000000 16.000000 2.000000
v 8.000000 24.000000 -2.000000
v 8.000000 16.000000 2.000000
v 8.000000 16.000000 -2.000000
v 8.000000 24.000000 -2.000000
v 4.000000 24.000000 -2.000000
v 4.000000 16.000000 -2.000000
v 4.000000 24.000000 2.000000
v 4.000000 16.000000 -2.000000
v 4.000000 16.000000 2.000000
v 4.000000 24.000000 2.000000
v 4.000000 24.000000 -2.000000
v 4.000000 24.000000 2.000000
v 8.000000 24.000000 -2.000000
v 4.000000 24.000000 2.000000
v 8.000000 24.000000 2.000000
v 8.000000 24.000000 -2.000000
v 4.000000 16.000000 2.000000
v 4.000000 16.000000 -2.000000
v 8.000000 16.000000 2.000000
v 4.000000 16.000000 -2.000000
v 8.000000 16.000000 -2.000000
v 8.000000 16.000000 2.000000
v 4.000000 24.000000 2.000000
v 4.000000 16.000000 2.000000
v 8.000000 24.000000 2.000000
v 4.000000 16.000000 2.000000
v 8.000000 16.000000 2.000000
v 8.000000 24.000000 2.000000
v 8.000000 24.000000 -2.000000
v 8.000000 16.000000 -2.000000
v 4.000000 24.000000 -2.000000
v 8.000000 16.000000 -2.000000
v 4.000000 16.000000 -2.000000
v 4.000000 24.000000 -2.000000
vn 1.0000 -0.0000 -0.0000
vn -1.0000 -0.0000 -0.0000
vn -0.0000 1.0000 -0.0000
vn -0.0000 -1.0000 -0.0000
vn -0.0000 -0.0000 1.0000
vn -0.0000 -0.0000 -1.0000
vt 0.218872 0.265747
vt 0.218872 0.328003
vt 0.249878 0.265747
vt 0.249878 0.328003
vt 0.281372 0.265747
vt 0.281372 0.328003
vt 0.312378 0.265747
vt 0.312378 0.328003
vt 0.281128 0.265503
vt 0.281128 0.234497
vt 0.250122 0.265503
vt 0.250122 0.234497
vt 0.312378 0.234497
vt 0.312378 0.265503
vt 0.281372 0.234497
vt 0.281372 0.265503
vt 0.312622 0.265747
vt 0.312622 0.328003
vt 0.343628 0.265747
vt 0.343628 0.328003
vt 0.250122 0.265747
vt 0.250122 0.328003
vt 0.281128 0.265747
vt 0.281128 0.328003
s 0
usemtl Archer.png
f 397/221/67 398/222/67 399/223/67
f 400/222/67 401/224/67 402/223/67
f 403/225/68 404/226/68 405/227/68
f 406/226/68 407/228/68 408/227/68
f 409/229/69 410/230/69 411/231/69
f 412/230/69 413/232/69 414/231/69
f 415/233/70 416/234/70 417/235/70
f 418/234/70 419/236/70 420/235/70
f 421/237/71 422/238/71 423/239/71
f 424/238/71 425/240/71 426/239/71
f 427/241/72 428/242/72 429/243/72
f 430/242/72 431/244/72 432/243/72
o 0278b5c6-7bce-d0a1-5ca8-026a39d7de0d
v -4.000000 24.000000 2.000000
v -4.000000 16.000000 2.000000
v -4.000000 24.000000 -2.000000
v -4.000000 16.000000 2.000000
v -4.000000 16.000000 -2.000000
v -4.000000 24.000000 -2.000000
v -8.000000 24.000000 -2.000000
v -8.000000 16.000000 -2.000000
v -8.000000 24.000000 2.000000
v -8.000000 16.000000 -2.000000
v -8.000000 16.000000 2.000000
v -8.000000 24.000000 2.000000
v -8.000000 24.000000 -2.000000
v -8.000000 24.000000 2.000000
v -4.000000 24.000000 -2.000000
v -8.000000 24.000000 2.000000
v -4.000000 24.000000 2.000000
v -4.000000 24.000000 -2.000000
v -8.000000 16.000000 2.000000
v -8.000000 16.000000 -2.000000
v -4.000000 16.000000 2.000000
v -8.000000 16.000000 -2.000000
v -4.000000 16.000000 -2.000000
v -4.000000 16.000000 2.000000
v -8.000000 24.000000 2.000000
v -8.000000 16.000000 2.000000
v -4.000000 24.000000 2.000000
v -8.000000 16.000000 2.000000
v -4.000000 16.000000 2.000000
v -4.000000 24.000000 2.000000
v -4.000000 24.000000 -2.000000
v -4.000000 16.000000 -2.000000
v -8.000000 24.000000 -2.000000
v -4.000000 16.000000 -2.000000
v -8.000000 16.000000 -2.000000
v -8.000000 24.000000 -2.000000
vn 1.0000 -0.0000 -0.0000
vn -1.0000 -0.0000 -0.0000
vn -0.0000 1.0000 -0.0000
vn -0.0000 -1.0000 -0.0000
vn -0.0000 -0.0000 1.0000
vn -0.0000 -0.0000 -1.0000
vt 0.312378 0.265747
vt 0.312378 0.328003
vt 0.281372 0.265747
vt 0.281372 0.328003
vt 0.249878 0.265747
vt 0.249878 0.328003
vt 0.218872 0.265747
vt 0.218872 0.328003
vt 0.250122 0.265503
vt 0.250122 0.234497
vt 0.281128 0.265503
vt 0.281128 0.234497
vt 0.281372 0.234497
vt 0.281372 0.265503
vt 0.312378 0.234497
vt 0.312378 0.265503
vt 0.343628 0.265747
vt 0.343628 0.328003
vt 0.312622 0.265747
vt 0.312622 0.328003
vt 0.281128 0.265747
vt 0.281128 0.328003
vt 0.250122 0.265747
vt 0.250122 0.328003
s 0
usemtl Archer.png
f 433/245/73 434/246/73 435/247/73
f 436/246/73 437/248/73 438/247/73
f 439/249/74 440/250/74 441/251/74
f 442/250/74 443/252/74 444/251/74
f 445/253/75 446/254/75 447/255/75
f 448/254/75 449/256/75 450/255/75
f 451/257/76 452/258/76 453/259/76
f 454/258/76 455/260/76 456/259/76
f 457/261/77 458/262/77 459/263/77
f 460/262/77 461/264/77 462/263/77
f 463/265/78 464/266/78 465/267/78
f 466/266/78 467/268/78 468/267/78
o 3eb48849-581a-ddec-32a5-fa1ed5aae054
v 4.000000 20.000000 2.000000
v 4.000000 16.000000 2.000000
v 4.000000 20.000000 -2.000000
v 4.000000 16.000000 2.000000
v 4.000000 16.000000 -2.000000
v 4.000000 20.000000 -2.000000
v -4.000000 20.000000 -2.000000
v -4.000000 16.000000 -2.000000
v -4.000000 20.000000 2.000000
v -4.000000 16.000000 -2.000000
v -4.000000 16.000000 2.000000
v -4.000000 20.000000 2.000000
v -4.000000 20.000000 -2.000000
v -4.000000 20.000000 2.000000
v 4.000000 20.000000 -2.000000
v -4.000000 20.000000 2.000000
v 4.000000 20.000000 2.000000
v 4.000000 20.000000 -2.000000
v -4.000000 16.000000 2.000000
v -4.000000 16.000000 -2.000000
v 4.000000 16.000000 2.000000
v -4.000000 16.000000 -2.000000
v 4.000000 16.000000 -2.000000
v 4.000000 16.000000 2.000000
v -4.000000 20.000000 2.000000
v -4.000000 16.000000 2.000000
v 4.000000 20.000000 2.000000
v -4.000000 16.000000 2.000000
v 4.000000 16.000000 2.000000
v 4.000000 20.000000 2.000000
v 4.000000 20.000000 -2.000000
v 4.000000 16.000000 -2.000000
v -4.000000 20.000000 -2.000000
v 4.000000 16.000000 -2.000000
v -4.000000 16.000000 -2.000000
v -4.000000 20.000000 -2.000000
vn 1.0000 -0.0000 -0.0000
vn -1.0000 -0.0000 -0.0000
vn -0.0000 1.0000 -0.0000
vn -0.0000 -1.0000 -0.0000
vn -0.0000 -0.0000 1.0000
vn -0.0000 -0.0000 -1.0000
vt 0.312622 0.328247
vt 0.312622 0.359253
vt 0.343628 0.328247
vt 0.343628 0.359253
vt 0.406372 0.328247
vt 0.406372 0.359253
vt 0.437378 0.328247
vt 0.437378 0.359253
vt 0.406128 0.328003
vt 0.406128 0.296997
vt 0.343872 0.328003
vt 0.343872 0.296997
vt 0.468628 0.296997
vt 0.468628 0.328003
vt 0.406372 0.296997
vt 0.406372 0.328003
vt 0.437622 0.328247
vt 0.437622 0.359253
vt 0.499878 0.328247
vt 0.499878 0.359253
vt 0.343872 0.328247
vt 0.343872 0.359253
vt 0.406128 0.328247
vt 0.406128 0.359253
s 0
usemtl Archer.png
f 469/269/79 470/270/79 471/271/79
f 472/270/79 473/272/79 474/271/79
f 475/273/80 476/274/80 477/275/80
f 478/274/80 479/276/80 480/275/80
f 481/277/81 482/278/81 483/279/81
f 484/278/81 485/280/81 486/279/81
f 487/281/82 488/282/82 489/283/82
f 490/282/82 491/284/82 492/283/82
f 493/285/83 494/286/83 495/287/83
f 496/286/83 497/288/83 498/287/83
f 499/289/84 500/290/84 501/291/84
f 502/290/84 503/292/84 504/291/84
o d9f6706d-a510-6ac1-543b-87a6834f6b8b
v 8.000000 24.000000 2.000000
v 8.000000 20.000000 2.000000
v 8.000000 24.000000 -2.000000
v 8.000000 20.000000 2.000000
v 8.000000 20.000000 -2.000000
v 8.000000 24.000000 -2.000000
v 4.000000 24.000000 -2.000000
v 4.000000 20.000000 -2.000000
v 4.000000 24.000000 2.000000
v 4.000000 20.000000 -2.000000
v 4.000000 20.000000 2.000000
v 4.000000 24.000000 2.000000
v 4.000000 24.000000 -2.000000
v 4.000000 24.000000 2.000000
v 8.000000 24.000000 -2.000000
v 4.000000 24.000000 2.000000
v 8.000000 24.000000 2.000000
v 8.000000 24.000000 -2.000000
v 4.000000 20.000000 2.000000
v 4.000000 20.000000 -2.000000
v 8.000000 20.000000 2.000000
v 4.000000 20.000000 -2.000000
v 8.000000 20.000000 -2.000000
v 8.000000 20.000000 2.000000
v 4.000000 24.000000 2.000000
v 4.000000 20.000000 2.000000
v 8.000000 24.000000 2.000000
v 4.000000 20.000000 2.000000
v 8.000000 20.000000 2.000000
v 8.000000 24.000000 2.000000
v 8.000000 24.000000 -2.000000
v 8.000000 20.000000 -2.000000
v 4.000000 24.000000 -2.000000
v 8.000000 20.000000 -2.000000
v 4.000000 20.000000 -2.000000
v 4.000000 24.000000 -2.000000
vn 1.0000 -0.0000 -0.0000
vn -1.0000 -0.0000 -0.0000
vn -0.0000 1.0000 -0.0000
vn -0.0000 -1.0000 -0.0000
vn -0.0000 -0.0000 1.0000
vn -0.0000 -0.0000 -1.0000
vt 0.218872 0.265747
vt 0.218872 0.296753
vt 0.249878 0.265747
vt 0.249878 0.296753
vt 0.281372 0.265747
vt 0.281372 0.296753
vt 0.312378 0.265747
vt 0.312378 0.296753
vt 0.281128 0.265503
vt 0.281128 0.234497
vt 0.250122 0.265503
vt 0.250122 0.234497
vt 0.312378 0.234497
vt 0.312378 0.265503
vt 0.281372 0.234497
vt 0.281372 0.265503
vt 0.312622 0.265747
vt 0.312622 0.296753
vt 0.343628 0.265747
vt 0.343628 0.296753
vt 0.250122 0.265747
vt 0.250122 0.296753
vt 0.281128 0.265747
vt 0.281128 0.296753
s 0
usemtl Archer.png
f 505/293/85 506/294/85 507/295/85
f 508/294/85 509/296/85 510/295/85
f 511/297/86 512/298/86 513/299/86
f 514/298/86 515/300/86 516/299/86
f 517/301/87 518/302/87 519/303/87
f 520/302/87 521/304/87 522/303/87
f 523/305/88 524/306/88 525/307/88
f 526/306/88 527/308/88 528/307/88
f 529/309/89 530/310/89 531/311/89
f 532/310/89 533/312/89 534/311/89
f 535/313/90 536/314/90 537/315/90
f 538/314/90 539/316/90 540/315/90
o 5d4672f7-823b-2454-7198-e4808f77b41d
v -4.000000 24.000000 2.000000
v -4.000000 20.000000 2.000000
v -4.000000 24.000000 -2.000000
v -4.000000 20.000000 2.000000
v -4.000000 20.000000 -2.000000
v -4.000000 24.000000 -2.000000
v -8.000000 24.000000 -2.000000
v -8.000000 20.000000 -2.000000
v -8.000000 24.000000 2.000000
v -8.000000 20.000000 -2.000000
v -8.000000 20.000000 2.000000
v -8.000000 24.000000 2.000000
v -8.000000 24.000000 -2.000000
v -8.000000 24.000000 2.000000
v -4.000000 24.000000 -2.000000
v -8.000000 24.000000 2.000000
v -4.000000 24.000000 2.000000
v -4.000000 24.000000 -2.000000
v -8.000000 20.000000 2.000000
v -8.000000 20.000000 -2.000000
v -4.000000 20.000000 2.000000
v -8.000000 20.000000 -2.000000
v -4.000000 20.000000 -2.000000
v -4.000000 20.000000 2.000000
v -8.000000 24.000000 2.000000
v -8.000000 20.000000 2.000000
v -4.000000 24.000000 2.000000
v -8.000000 20.000000 2.000000
v -4.000000 20.000000 2.000000
v -4.000000 24.000000 2.000000
v -4.000000 24.000000 -2.000000
v -4.000000 20.000000 -2.000000
v -8.000000 24.000000 -2.000000
v -4.000000 20.000000 -2.000000
v -8.000000 20.000000 -2.000000
v -8.000000 24.000000 -2.000000
vn 1.0000 -0.0000 -0.0000
vn -1.0000 -0.0000 -0.0000
vn -0.0000 1.0000 -0.0000
vn -0.0000 -1.0000 -0.0000
vn -0.0000 -0.0000 1.0000
vn -0.0000 -0.0000 -1.0000
vt 0.312378 0.265747
vt 0.312378 0.296753
vt 0.281372 0.265747
vt 0.281372 0.296753
vt 0.249878 0.265747
vt 0.249878 0.296753
vt 0.218872 0.265747
vt 0.218872 0.296753
vt 0.250122 0.265503
vt 0.250122 0.234497
vt 0.281128 0.265503
vt 0.281128 0.234497
vt 0.281372 0.234497
vt 0.281372 0.265503
vt 0.312378 0.234497
vt 0.312378 0.265503
vt 0.343628 0.265747
vt 0.343628 0.296753
vt 0.312622 0.265747
vt 0.312622 0.296753
vt 0.281128 0.265747
vt 0.281128 0.296753
vt 0.250122 0.265747
vt 0.250122 0.296753
s 0
usemtl Archer.png
f 541/317/91 542/318/91 543/319/91
f 544/318/91 545/320/91 546/319/91
f 547/321/92 548/322/92 549/323/92
f 550/322/92 551/324/92 552/323/92
f 553/325/93 554/326/93 555/327/93
f 556/326/93 557/328/93 558/327/93
f 559/329/94 560/330/94 561/331/94
f 562/330/94 563/332/94 564/331/94
f 565/333/95 566/334/95 567/335/95
f 568/334/95 569/336/95 570/335/95
f 571/337/96 572/338/96 573/339/96
f 574/338/96 575/340/96 576/339/96
o 953c743e-3a8a-14c9-f500-ff22fcd46843
v 4.000000 12.000000 2.000000
v 4.000000 0.000000 2.000000
v 4.000000 12.000000 -2.000000
v 4.000000 0.000000 2.000000
v 4.000000 0.000000 -2.000000
v 4.000000 12.000000 -2.000000
v 0.000000 12.000000 -2.000000
v 0.000000 0.000000 -2.000000
v 0.000000 12.000000 2.000000
v 0.000000 0.000000 -2.000000
v 0.000000 0.000000 2.000000
v 0.000000 12.000000 2.000000
v 0.000000 12.000000 -2.000000
v 0.000000 12.000000 2.000000
v 4.000000 12.000000 -2.000000
v 0.000000 12.000000 2.000000
v 4.000000 12.000000 2.000000
v 4.000000 12.000000 -2.000000
v 0.000000 0.000000 2.000000
v 0.000000 0.000000 -2.000000
v 4.000000 0.000000 2.000000
v 0.000000 0.000000 -2.000000
v 4.000000 0.000000 -2.000000
v 4.000000 0.000000 2.000000
v 0.000000 12.000000 2.000000
v 0.000000 0.000000 2.000000
v 4.000000 12.000000 2.000000
v 0.000000 0.000000 2.000000
v 4.000000 0.000000 2.000000
v 4.000000 12.000000 2.000000
v 4.000000 12.000000 -2.000000
v 4.000000 0.000000 -2.000000
v 0.000000 12.000000 -2.000000
v 4.000000 0.000000 -2.000000
v 0.000000 0.000000 -2.000000
v 0.000000 12.000000 -2.000000
vn 1.0000 -0.0000 -0.0000
vn -1.0000 -0.0000 -0.0000
vn -0.0000 1.0000 -0.0000
vn -0.0000 -1.0000 -0.0000
vn -0.0000 -0.0000 1.0000
vn -0.0000 -0.0000 -1.0000
vt 0.312378 0.390747
vt 0.312378 0.484253
vt 0.281372 0.390747
vt 0.281372 0.484253
vt 0.249878 0.390747
vt 0.249878 0.484253
vt 0.218872 0.390747
vt 0.218872 0.484253
vt 0.250122 0.390503
vt 0.250122 0.359497
vt 0.281128 0.390503
vt 0.281128 0.359497
vt 0.281372 0.359497
vt 0.281372 0.390503
vt 0.312378 0.359497
vt 0.312378 0.390503
vt 0.343628 0.390747
vt 0.343628 0.484253
vt 0.312622 0.390747
vt 0.312622 0.484253
vt 0.281128 0.390747
vt 0.281128 0.484253
vt 0.250122 0.390747
vt 0.250122 0.484253
s 0
usemtl Archer.png
f 577/341/97 578/342/97 579/343/97
f 580/342/97 581/344/97 582/343/97
f 583/345/98 584/346/98 585/347/98
f 586/346/98 587/348/98 588/347/98
f 589/349/99 590/350/99 591/351/99
f 592/350/99 593/352/99 594/351/99
f 595/353/100 596/354/100 597/355/100
f 598/354/100 599/356/100 600/355/100
f 601/357/101 602/358/101 603/359/101
f 604/358/101 605/360/101 606/359/101
f 607/361/102 608/362/102 609/363/102
f 610/362/102 611/364/102 612/363/102
o 99f7a372-5485-f98c-394c-3abe0674b374
v 0.000000 12.000000 2.000000
v 0.000000 0.000000 2.000000
v 0.000000 12.000000 -2.000000
v 0.000000 0.000000 2.000000
v 0.000000 0.000000 -2.000000
v 0.000000 12.000000 -2.000000
v -4.000000 12.000000 -2.000000
v -4.000000 0.000000 -2.000000
v -4.000000 12.000000 2.000000
v -4.000000 0.000000 -2.000000
v -4.000000 0.000000 2.000000
v -4.000000 12.000000 2.000000
v -4.000000 12.000000 -2.000000
v -4.000000 12.000000 2.000000
v 0.000000 12.000000 -2.000000
v -4.000000 12.000000 2.000000
v 0.000000 12.000000 2.000000
v 0.000000 12.000000 -2.000000
v -4.000000 0.000000 2.000000
v -4.000000 0.000000 -2.000000
v 0.000000 0.000000 2.000000
v -4.000000 0.000000 -2.000000
v 0.000000 0.000000 -2.000000
v 0.000000 0.000000 2.000000
v -4.000000 12.000000 2.000000
v -4.000000 0.000000 2.000000
v 0.000000 12.000000 2.000000
v -4.000000 0.000000 2.000000
v 0.000000 0.000000 2.000000
v 0.000000 12.000000 2.000000
v 0.000000 12.000000 -2.000000
v 0.000000 0.000000 -2.000000
v -4.000000 12.000000 -2.000000
v 0.000000 0.000000 -2.000000
v -4.000000 0.000000 -2.000000
v -4.000000 12.000000 -2.000000
vn 1.0000 -0.0000 -0.0000
vn -1.0000 -0.0000 -0.0000
vn -0.0000 1.0000 -0.0000
vn -0.0000 -1.0000 -0.0000
vn -0.0000 -0.0000 1.0000
vn -0.0000 -0.0000 -1.0000
vt 0.312378 0.390747
vt 0.312378 0.484253
vt 0.281372 0.390747
vt 0.281372 0.484253
vt 0.249878 0.390747
vt 0.249878 0.484253
vt 0.218872 0.390747
vt 0.218872 0.484253
vt 0.250122 0.390503
vt 0.250122 0.359497
vt 0.281128 0.390503
vt 0.281128 0.359497
vt 0.281372 0.359497
vt 0.281372 0.390503
vt 0.312378 0.359497
vt 0.312378 0.390503
vt 0.343628 0.390747
vt 0.343628 0.484253
vt 0.312622 0.390747
vt 0.312622 0.484253
vt 0.281128 0.390747
vt 0.281128 0.484253
vt 0.250122 0.390747
vt 0.250122 0.484253
s 0
usemtl Archer.png
f 613/365/103 614/366/103 615/367/103
f 616/366/103 617/368/103 618/367/103
f 619/369/104 620/370/104 621/371/104
f 622/370/104 623/372/104 624/371/104
f 625/373/105 626/374/105 627/375/105
f 628/374/105 629/376/105 630/375/105
f 631/377/106 632/378/106 633/379/106
f 634/378/106 635/380/106 636/379/106
f 637/381/107 638/382/107 639/383/107
f 640/382/107 641/384/107 642/383/107
f 643/385/108 644/386/108 645/387/108
f 646/386/108 647/388/108 648/387/108
o 8a98470c-99ab-0acd-e797-cd33cc4b5a95
v 8.803077 20.413048 -0.134842
v 1.228024 18.150072 -9.162437
v 8.318206 24.341278 -0.712688
v 1.228024 18.150072 -9.162437
v 0.743154 22.078302 -9.740284
v 8.318206 24.341278 -0.712688
v 5.254029 24.341278 1.858462
v -2.321025 22.078302 -7.169134
v 5.738900 20.413048 2.436309
v -2.321025 22.078302 -7.169134
v -1.836154 18.150072 -6.591288
v 5.738900 20.413048 2.436309
v 5.254029 24.341278 1.858462
v 5.738900 20.413048 2.436309
v 8.318206 24.341278 -0.712688
v 5.738900 20.413048 2.436309
v 8.803077 20.413048 -0.134842
v 8.318206 24.341278 -0.712688
v -1.836154 18.150072 -6.591288
v -2.321025 22.078302 -7.169134
v 1.228024 18.150072 -9.162437
v -2.321025 22.078302 -7.169134
v 0.743154 22.078302 -9.740284
v 1.228024 18.150072 -9.162437
v 5.738900 20.413048 2.436309
v -1.836154 18.150072 -6.591288
v 8.803077 20.413048 -0.134842
v -1.836154 18.150072 -6.591288
v 1.228024 18.150072 -9.162437
v 8.803077 20.413048 -0.134842
v 8.318206 24.341278 -0.712688
v 0.743154 22.078302 -9.740284
v 5.254029 24.341278 1.858462
v 0.743154 22.078302 -9.740284
v -2.321025 22.078302 -7.169134
v 5.254029 24.341278 1.858462
vn 0.7660 -0.0000 -0.6428
vn -0.7660 -0.0000 0.6428
vn 0.6313 0.1886 0.7523
vn -0.6313 -0.1886 -0.7523
vn 0.1212 -0.9821 0.1445
vn -0.1212 0.9821 -0.1445
vt 0.375122 0.390747
vt 0.375122 0.484253
vt 0.406128 0.390747
vt 0.406128 0.484253
vt 0.437622 0.390747
vt 0.437622 0.484253
vt 0.468628 0.390747
vt 0.468628 0.484253
vt 0.437378 0.390503
vt 0.437378 0.359497
vt 0.406372 0.390503
vt 0.406372 0.359497
vt 0.468628 0.359497
vt 0.468628 0.390503
vt 0.437622 0.359497
vt 0.437622 0.390503
vt 0.468872 0.390747
vt 0.468872 0.484253
vt 0.499878 0.390747
vt 0.499878 0.484253
vt 0.406372 0.390747
vt 0.406372 0.484253
vt 0.437378 0.390747
vt 0.437378 0.484253
s 0
usemtl Archer.png
f 649/389/109 650/390/109 651/391/109
f 652/390/109 653/392/109 654/391/109
f 655/393/110 656/394/110 657/395/110
f 658/394/110 659/396/110 660/395/110
f 661/397/111 662/398/111 663/399/111
f 664/398/111 665/400/111 666/399/111
f 667/401/112 668/402/112 669/403/112
f 670/402/112 671/404/112 672/403/112
f 673/405/113 674/406/113 675/407/113
f 676/406/113 677/408/113 678/407/113
f 679/409/114 680/410/114 681/411/114
f 682/410/114 683/412/114 684/411/114
o 8add61d9-8344-3c97-561f-0fc785fa0799
v 9.410483 20.095657 -0.033251
v 6.380462 19.190468 -3.644289
v 8.828639 24.809534 -0.726667
v 6.380462 19.190468 -3.644289
v 5.798617 23.904345 -4.337706
v 8.828639 24.809534 -0.726667
v 5.151626 24.809534 2.358713
v 2.121604 23.904345 -1.252325
v 5.733470 20.095657 3.052130
v 2.121604 23.904345 -1.252325
v 2.703449 19.190468 -0.558908
v 5.733470 20.095657 3.052130
v 5.151626 24.809534 2.358713
v 5.733470 20.095657 3.052130
v 8.828639 24.809534 -0.726667
v 5.733470 20.095657 3.052130
v 9.410483 20.095657 -0.033251
v 8.828639 24.809534 -0.726667
v 2.703449 19.190468 -0.558908
v 2.121604 23.904345 -1.252325
v 6.380462 19.190468 -3.644289
v 2.121604 23.904345 -1.252325
v 5.798617 23.904345 -4.337706
v 6.380462 19.190468 -3.644289
v 5.733470 20.095657 3.052130
v 2.703449 19.190468 -0.558908
v 9.410483 20.095657 -0.033251
v 2.703449 19.190468 -0.558908
v 6.380462 19.190468 -3.644289
v 9.410483 20.095657 -0.033251
v 8.828639 24.809534 -0.726667
v 5.798617 23.904345 -4.337706
v 5.151626 24.809534 2.358713
v 5.798617 23.904345 -4.337706
v 2.121604 23.904345 -1.252325
v 5.151626 24.809534 2.358713
vn 0.7660 -0.0000 -0.6428
vn -0.7660 -0.0000 0.6428
vn 0.6313 0.1886 0.7523
vn -0.6313 -0.1886 -0.7523
vn 0.1212 -0.9821 0.1445
vn -0.1212 0.9821 -0.1445
vt 0.562378 0.359497
vt 0.562378 0.390503
vt 0.531372 0.359497
vt 0.531372 0.390503
vt 0.499878 0.359497
vt 0.499878 0.390503
vt 0.468872 0.359497
vt 0.468872 0.390503
vt 0.500122 0.359253
vt 0.500122 0.328247
vt 0.531128 0.359253
vt 0.531128 0.328247
vt 0.531372 0.328247
vt 0.531372 0.359253
vt 0.562378 0.328247
vt 0.562378 0.359253
vt 0.593628 0.359497
vt 0.593628 0.390503
vt 0.562622 0.359497
vt 0.562622 0.390503
vt 0.531128 0.359497
vt 0.531128 0.390503
vt 0.500122 0.359497
vt 0.500122 0.390503
s 0
usemtl Archer.png
f 685/413/115 686/414/115 687/415/115
f 688/414/115 689/416/115 690/415/115
f 691/417/116 692/418/116 693/419/116
f 694/418/116 695/420/116 696/419/116
f 697/421/117 698/422/117 699/423/117
f 700/422/117 701/424/117 702/423/117
f 703/425/118 704/426/118 705/427/118
f 706/426/118 707/428/118 708/427/118
f 709/429/119 710/430/119 711/431/119
f 712/430/119 713/432/119 714/431/119
f 715/433/120 716/434/120 717/435/120
f 718/434/120 719/436/120 720/435/120
o a8eb4e79-5a0d-8db9-cd4a-ecf42767f516
v -4.861072 20.413048 2.542101
v -0.830470 18.150072 -8.531885
v -4.603077 24.341278 1.833267
v -0.830470 18.150072 -8.531885
v -0.572475 22.078302 -9.240719
v -4.603077 24.341278 1.833267
v -8.361848 24.341278 0.465187
v -4.331246 22.078302 -10.608800
v -8.619842 20.413048 1.174021
v -4.331246 22.078302 -10.608800
v -4.589240 18.150072 -9.899965
v -8.619842 20.413048 1.174021
v -8.361848 24.341278 0.465187
v -8.619842 20.413048 1.174021
v -4.603077 24.341278 1.833267
v -8.619842 20.413048 1.174021
v -4.861072 20.413048 2.542101
v -4.603077 24.341278 1.833267
v -4.589240 18.150072 -9.899965
v -4.331246 22.078302 -10.608800
v -0.830470 18.150072 -8.531885
v -4.331246 22.078302 -10.608800
v -0.572475 22.078302 -9.240719
v -0.830470 18.150072 -8.531885
v -8.619842 20.413048 1.174021
v -4.589240 18.150072 -9.899965
v -4.861072 20.413048 2.542101
v -4.589240 18.150072 -9.899965
v -0.830470 18.150072 -8.531885
v -4.861072 20.413048 2.542101
v -4.603077 24.341278 1.833267
v -0.572475 22.078302 -9.240719
v -8.361848 24.341278 0.465187
v -0.572475 22.078302 -9.240719
v -4.331246 22.078302 -10.608800
v -8.361848 24.341278 0.465187
vn 0.9397 -0.0000 0.3420
vn -0.9397 -0.0000 -0.3420
vn -0.3359 0.1886 0.9228
vn 0.3359 -0.1886 -0.9228
vn -0.0645 -0.9821 0.1772
vn 0.0645 0.9821 -0.1772
vt 0.468628 0.390747
vt 0.468628 0.484253
vt 0.437622 0.390747
vt 0.437622 0.484253
vt 0.406128 0.390747
vt 0.406128 0.484253
vt 0.375122 0.390747
vt 0.375122 0.484253
vt 0.406372 0.390503
vt 0.406372 0.359497
vt 0.437378 0.390503
vt 0.437378 0.359497
vt 0.437622 0.359497
vt 0.437622 0.390503
vt 0.468628 0.359497
vt 0.468628 0.390503
vt 0.499878 0.390747
vt 0.499878 0.484253
vt 0.468872 0.390747
vt 0.468872 0.484253
vt 0.437378 0.390747
vt 0.437378 0.484253
vt 0.406372 0.390747
vt 0.406372 0.484253
s 0
usemtl Archer.png
f 721/437/121 722/438/121 723/439/121
f 724/438/121 725/440/121 726/439/121
f 727/441/122 728/442/122 729/443/122
f 730/442/122 731/444/122 732/443/122
f 733/445/123 734/446/123 735/447/123
f 736/446/123 737/448/123 738/447/123
f 739/449/124 740/450/124 741/451/124
f 742/450/124 743/452/124 744/451/124
f 745/453/125 746/454/125 747/455/125
f 748/454/125 749/456/125 750/455/125
f 751/457/126 752/458/126 753/459/126
f 754/458/126 755/460/126 756/459/126
o b37c3f7c-1480-702e-af08-271467badae1
v -4.645348 20.095657 3.118927
v -3.033107 19.190468 -1.310669
v -4.335754 24.809534 2.268326
v -3.033107 19.190468 -1.310669
v -2.723514 23.904343 -2.161268
v -4.335754 24.809534 2.268326
v -8.846278 24.809534 0.626629
v -7.234038 23.904343 -3.802965
v -9.155871 20.095657 1.477230
v -7.234038 23.904343 -3.802965
v -7.543632 19.190468 -2.952364
v -9.155871 20.095657 1.477230
v -8.846278 24.809534 0.626629
v -9.155871 20.095657 1.477230
v -4.335754 24.809534 2.268326
v -9.155871 20.095657 1.477230
v -4.645348 20.095657 3.118927
v -4.335754 24.809534 2.268326
v -7.543632 19.190468 -2.952364
v -7.234038 23.904343 -3.802965
v -3.033107 19.190468 -1.310669
v -7.234038 23.904343 -3.802965
v -2.723514 23.904343 -2.161268
v -3.033107 19.190468 -1.310669
v -9.155871 20.095657 1.477230
v -7.543632 19.190468 -2.952364
v -4.645348 20.095657 3.118927
v -7.543632 19.190468 -2.952364
v -3.033107 19.190468 -1.310669
v -4.645348 20.095657 3.118927
v -4.335754 24.809534 2.268326
v -2.723514 23.904343 -2.161268
v -8.846278 24.809534 0.626629
v -2.723514 23.904343 -2.161268
v -7.234038 23.904343 -3.802965
v -8.846278 24.809534 0.626629
vn 0.9397 -0.0000 0.3420
vn -0.9397 -0.0000 -0.3420
vn -0.3359 0.1886 0.9228
vn 0.3359 -0.1886 -0.9228
vn -0.0645 -0.9821 0.1772
vn 0.0645 0.9821 -0.1772
vt 0.468872 0.359497
vt 0.468872 0.390503
vt 0.499878 0.359497
vt 0.499878 0.390503
vt 0.531372 0.359497
vt 0.531372 0.390503
vt 0.562378 0.359497
vt 0.562378 0.390503
vt 0.531128 0.359253
vt 0.531128 0.328247
vt 0.500122 0.359253
vt 0.500122 0.328247
vt 0.562378 0.328247
vt 0.562378 0.359253
vt 0.531372 0.328247
vt 0.531372 0.359253
vt 0.562622 0.359497
vt 0.562622 0.390503
vt 0.593628 0.359497
vt 0.593628 0.390503
vt 0.500122 0.359497
vt 0.500122 0.390503
vt 0.531128 0.359497
vt 0.531128 0.390503
s 0
usemtl Archer.png
f 757/461/127 758/462/127 759/463/127
f 760/462/127 761/464/127 762/463/127
f 763/465/128 764/466/128 765/467/128
f 766/466/128 767/468/128 768/467/128
f 769/469/129 770/470/129 771/471/129
f 772/470/129 773/472/129 774/471/129
f 775/473/130 776/474/130 777/475/130
f 778/474/130 779/476/130 780/475/130
f 781/477/131 782/478/131 783/479/131
f 784/478/131 785/480/131 786/479/131
f 787/481/132 788/482/132 789/483/132
f 790/482/132 791/484/132 792/483/132
