{
  "accessors": [
    {
      "bufferView": 0,
      "componentType": 5126,
      "count": 24,
      "max": [
        0.0625000074505806,
        0.2812502682209015,
        -0.25
      ],
      "min": [
        -0.0625,
        0.09375,
        -0.375
      ],
      "type": "VEC3"
    },
    {
      "bufferView": 1,
      "componentType": 5125,
      "count": 34,
      "type": "SCALAR"
    },
    {
      "bufferView": 2,
      "componentType": 5126,
      "count": 24,
      "type": "VEC3"
    },
    {
      "bufferView": 3,
      "componentType": 5126,
      "count": 24,
      "type": "VEC4"
    },
    {
      "bufferView": 4,
      "componentType": 5126,
      "count": 24,
      "type": "VEC2"
    },
    {
      "bufferView": 5,
      "componentType": 5126,
      "count": 24,
      "max": [
        0.0625000074505806,
        0.3124994933605194,
        0.1874997615814209
      ],
      "min": [
        -0.0625,
        0.0625,
        -0.25
      ],
      "type": "VEC3"
    },
    {
      "bufferView": 6,
      "componentType": 5125,
      "count": 34,
      "type": "SCALAR"
    },
    {
      "bufferView": 7,
      "componentType": 5126,
      "count": 24,
      "type": "VEC3"
    },
    {
      "bufferView": 8,
      "componentType": 5126,
      "count": 24,
      "type": "VEC4"
    },
    {
      "bufferView": 9,
      "componentType": 5126,
      "count": 24,
      "type": "VEC2"
    },
    {
      "bufferView": 10,
      "componentType": 5126,
      "count": 24,
      "max": [
        6.25000029685907e-05,
        0.1250002533197403,
        0.2500002682209015
      ],
      "min": [
        0.0,
        -0.0625,
        -0.25
      ],
      "type": "VEC3"
    },
    {
      "bufferView": 11,
      "componentType": 5125,
      "count": 34,
      "type": "SCALAR"
    },
    {
      "bufferView": 12,
      "componentType": 5126,
      "count": 24,
      "type": "VEC3"
    },
    {
      "bufferView": 13,
      "componentType": 5126,
      "count": 24,
      "type": "VEC4"
    },
    {
      "bufferView": 14,
      "componentType": 5126,
      "count": 24,
      "type": "VEC2"
    },
    {
      "bufferView": 15,
      "componentType": 5126,
      "count": 24,
      "max": [
        6.25000029685907e-05,
        0.4375002682209015,
        0.2500002682209015
      ],
      "min": [
        0.0,
        0.25,
        -0.25
      ],
      "type": "VEC3"
    },
    {
      "bufferView": 16,
      "componentType": 5125,
      "count": 34,
      "type": "SCALAR"
    },
    {
      "bufferView": 17,
      "componentType": 5126,
      "count": 24,
      "type": "VEC3"
    },
    {
      "bufferView": 18,
      "componentType": 5126,
      "count": 24,
      "type": "VEC4"
    },
    {
      "bufferView": 19,
      "componentType": 5126,
      "count": 24,
      "type": "VEC2"
    },
    {
      "bufferView": 20,
      "componentType": 5126,
      "count": 24,
      "max": [
        3.999999886872274e-09,
        3.999999886872274e-09,
        6.25000029685907e-05
      ],
      "min": [
        -0.125,
        -0.125,
        0.0
      ],
      "type": "VEC3"
    },
    {
      "bufferView": 21,
      "componentType": 5125,
      "count": 34,
      "type": "SCALAR"
    },
    {
      "bufferView": 22,
      "componentType": 5126,
      "count": 24,
      "type": "VEC3"
    },
    {
      "bufferView": 23,
      "componentType": 5126,
      "count": 24,
      "type": "VEC4"
    },
    {
      "bufferView": 24,
      "componentType": 5126,
      "count": 24,
      "type": "VEC2"
    },
    {
      "bufferView": 25,
      "componentType": 5126,
      "count": 24,
      "max": [
        0.125,
        0.0312500037252903,
        6.25000029685907e-05
      ],
      "min": [
        0.0,
        -0.09375,
        0.0
      ],
      "type": "VEC3"
    },
    {
      "bufferView": 26,
      "componentType": 5125,
      "count": 34,
      "type": "SCALAR"
    },
    {
      "bufferView": 27,
      "componentType": 5126,
      "count": 24,
      "type": "VEC3"
    },
    {
      "bufferView": 28,
      "componentType": 5126,
      "count": 24,
      "type": "VEC4"
    },
    {
      "bufferView": 29,
      "componentType": 5126,
      "count": 24,
      "type": "VEC2"
    },
    {
      "bufferView": 30,
      "componentType": 5126,
      "count": 24,
      "max": [
        0.0625000074505806,
        0.25,
        0.25
      ],
      "min": [
        -0.0625,
        0.125,
        0.1875
      ],
      "type": "VEC3"
    },
    {
      "bufferView": 31,
      "componentType": 5125,
      "count": 34,
      "type": "SCALAR"
    },
    {
      "bufferView": 32,
      "componentType": 5126,
      "count": 24,
      "type": "VEC3"
    },
    {
      "bufferView": 33,
      "componentType": 5126,
      "count": 24,
      "type": "VEC4"
    },
    {
      "bufferView": 34,
      "componentType": 5126,
      "count": 24,
      "type": "VEC2"
    },
    {
      "bufferView": 35,
      "componentType": 5126,
      "count": 24,
      "max": [
        6.25000029685907e-05,
        0.3124994933605194,
        0.4375002682209015
      ],
      "min": [
        0.0,
        0.0625,
        0.25
      ],
      "type": "VEC3"
    },
    {
      "bufferView": 36,
      "componentType": 5125,
      "count": 34,
      "type": "SCALAR"
    },
    {
      "bufferView": 37,
      "componentType": 5126,
      "count": 24,
      "type": "VEC3"
    },
    {
      "bufferView": 38,
      "componentType": 5126,
      "count": 24,
      "type": "VEC4"
    },
    {
      "bufferView": 39,
      "componentType": 5126,
      "count": 24,
      "type": "VEC2"
    },
    {
      "bufferView": 40,
      "componentType": 5126,
      "count": 3,
      "max": [
        0.5
      ],
      "min": [
        0.0
      ],
      "type": "SCALAR"
    },
    {
      "bufferView": 41,
      "componentType": 5126,
      "count": 3,
      "type": "VEC4"
    },
    {
      "bufferView": 42,
      "componentType": 5126,
      "count": 3,
      "max": [
        0.5
      ],
      "min": [
        0.0
      ],
      "type": "SCALAR"
    },
    {
      "bufferView": 43,
      "componentType": 5126,
      "count": 3,
      "type": "VEC4"
    },
    {
      "bufferView": 44,
      "componentType": 5126,
      "count": 3,
      "max": [
        0.5
      ],
      "min": [
        0.0
      ],
      "type": "SCALAR"
    },
    {
      "bufferView": 45,
      "componentType": 5126,
      "count": 3,
      "type": "VEC4"
    },
    {
      "bufferView": 46,
      "componentType": 5126,
      "count": 3,
      "max": [
        0.5
      ],
      "min": [
        0.0
      ],
      "type": "SCALAR"
    },
    {
      "bufferView": 47,
      "componentType": 5126,
      "count": 3,
      "type": "VEC4"
    },
    {
      "bufferView": 48,
      "componentType": 5126,
      "count": 3,
      "max": [
        0.5
      ],
      "min": [
        0.0
      ],
      "type": "SCALAR"
    },
    {
      "bufferView": 49,
      "componentType": 5126,
      "count": 3,
      "type": "VEC4"
    },
    {
      "bufferView": 50,
      "componentType": 5126,
      "count": 3,
      "max": [
        0.5
      ],
      "min": [
        0.0
      ],
      "type": "SCALAR"
    },
    {
      "bufferView": 51,
      "componentType": 5126,
      "count": 3,
      "type": "VEC4"
    }
  ],
  "animations": [
    {
      "channels": [
        {
          "sampler": 0,
          "target": {
            "node": 21,
            "path": "rotation"
          }
        },
        {
          "sampler": 1,
          "target": {
            "node": 6,
            "path": "rotation"
          }
        },
        {
          "sampler": 2,
          "target": {
            "node": 9,
            "path": "rotation"
          }
        },
        {
          "sampler": 3,
          "target": {
            "node": 12,
            "path": "rotation"
          }
        },
        {
          "sampler": 4,
          "target": {
            "node": 15,
            "path": "rotation"
          }
        },
        {
          "sampler": 5,
          "target": {
            "node": 20,
            "path": "rotation"
          }
        }
      ],
      "name": "ClownfishSwim",
      "samplers": [
        {
          "input": 40,
          "interpolation": "LINEAR",
          "output": 41
        },
        {
          "input": 42,
          "interpolation": "LINEAR",
          "output": 43
        },
        {
          "input": 44,
          "interpolation": "LINEAR",
          "output": 45
        },
        {
          "input": 46,
          "interpolation": "LINEAR",
          "output": 47
        },
        {
          "input": 48,
          "interpolation": "LINEAR",
          "output": 49
        },
        {
          "input": 50,
          "interpolation": "LINEAR",
          "output": 51
        }
      ]
    }
  ],
  "asset": {
    "version": "2.0"
  },
  "bufferViews": [
    {
      "buffer": 0,
      "byteLength": 288,
      "target": 34962
    },
    {
      "buffer": 1,
      "byteLength": 136,
      "target": 34963
    },
    {
      "buffer": 2,
      "byteLength": 288,
      "target": 34962
    },
    {
      "buffer": 3,
      "byteLength": 384,
      "target": 34962
    },
    {
      "buffer": 4,
      "byteLength": 192,
      "target": 34962
    },
    {
      "buffer": 5,
      "byteLength": 288,
      "target": 34962
    },
    {
      "buffer": 6,
      "byteLength": 136,
      "target": 34963
    },
    {
      "buffer": 7,
      "byteLength": 288,
      "target": 34962
    },
    {
      "buffer": 8,
      "byteLength": 384,
      "target": 34962
    },
    {
      "buffer": 9,
      "byteLength": 192,
      "target": 34962
    },
    {
      "buffer": 10,
      "byteLength": 288,
      "target": 34962
    },
    {
      "buffer": 11,
      "byteLength": 136,
      "target": 34963
    },
    {
      "buffer": 12,
      "byteLength": 288,
      "target": 34962
    },
    {
      "buffer": 13,
      "byteLength": 384,
      "target": 34962
    },
    {
      "buffer": 14,
      "byteLength": 192,
      "target": 34962
    },
    {
      "buffer": 15,
      "byteLength": 288,
      "target": 34962
    },
    {
      "buffer": 16,
      "byteLength": 136,
      "target": 34963
    },
    {
      "buffer": 17,
      "byteLength": 288,
      "target": 34962
    },
    {
      "buffer": 18,
      "byteLength": 384,
      "target": 34962
    },
    {
      "buffer": 19,
      "byteLength": 192,
      "target": 34962
    },
    {
      "buffer": 20,
      "byteLength": 288,
      "target": 34962
    },
    {
      "buffer": 21,
      "byteLength": 136,
      "target": 34963
    },
    {
      "buffer": 22,
      "byteLength": 288,
      "target": 34962
    },
    {
      "buffer": 23,
      "byteLength": 384,
      "target": 34962
    },
    {
      "buffer": 24,
      "byteLength": 192,
      "target": 34962
    },
    {
      "buffer": 25,
      "byteLength": 288,
      "target": 34962
    },
    {
      "buffer": 26,
      "byteLength": 136,
      "target": 34963
    },
    {
      "buffer": 27,
      "byteLength": 288,
      "target": 34962
    },
    {
      "buffer": 28,
      "byteLength": 384,
      "target": 34962
    },
    {
      "buffer": 29,
      "byteLength": 192,
      "target": 34962
    },
    {
      "buffer": 30,
      "byteLength": 288,
      "target": 34962
    },
    {
      "buffer": 31,
      "byteLength": 136,
      "target": 34963
    },
    {
      "buffer": 32,
      "byteLength": 288,
      "target": 34962
    },
    {
      "buffer": 33,
      "byteLength": 384,
      "target": 34962
    },
    {
      "buffer": 34,
      "byteLength": 192,
      "target": 34962
    },
    {
      "buffer": 35,
      "byteLength": 288,
      "target": 34962
    },
    {
      "buffer": 36,
      "byteLength": 136,
      "target": 34963
    },
    {
      "buffer": 37,
      "byteLength": 288,
      "target": 34962
    },
    {
      "buffer": 38,
      "byteLength": 384,
      "target": 34962
    },
    {
      "buffer": 39,
      "byteLength": 192,
      "target": 34962
    },
    {
      "buffer": 40,
      "byteLength": 12
    },
    {
      "buffer": 41,
      "byteLength": 48
    },
    {
      "buffer": 42,
      "byteLength": 12
    },
    {
      "buffer": 43,
      "byteLength": 48
    },
    {
      "buffer": 44,
      "byteLength": 12
    },
    {
      "buffer": 45,
      "byteLength": 48
    },
    {
      "buffer": 46,
      "byteLength": 12
    },
    {
      "buffer": 47,
      "byteLength": 48
    },
    {
      "buffer": 48,
      "byteLength": 12
    },
    {
      "buffer": 49,
      "byteLength": 48
    },
    {
      "buffer": 50,
      "byteLength": 12
    },
    {
      "buffer": 51,
      "byteLength": 48
    }
  ],
  "buffers": [
    {
      "byteLength": 288,
      "uri": "data:application/octet-stream;base64,"
    },
    {
      "byteLength": 136,
      "uri": "data:application/octet-stream;base64,"
    },
    {
      "byteLength": 288,
      "uri": "data:application/octet-stream;base64,"
    },
    {
      "byteLength": 384,
      "uri": "data:application/octet-stream;base64,"
    },
    {
      "byteLength": 192,
      "uri": "data:application/octet-stream;base64,"
    },
    {
      "byteLength": 288,
      "uri": "data:application/octet-stream;base64,"
    },
    {
      "byteLength": 136,
      "uri": "data:application/octet-stream;base64,"
    },
    {
      "byteLength": 288,
      "uri": "data:application/octet-stream;base64,"
    },
    {
      "byteLength": 384,
      "uri": "data:application/octet-stream;base64,"
    },
    {
      "byteLength": 192,
      "uri": "data:application/octet-stream;base64,"
    },
    {
      "byteLength": 288,
      "uri": "data:application/octet-stream;base64,"
    },
    {
      "byteLength": 136,
      "uri": "data:application/octet-stream;base64,"
    },
    {
      "byteLength": 288,
      "uri": "data:application/octet-stream;base64,"
    },
    {
      "byteLength": 384,
      "uri": "data:application/octet-stream;base64,"
    },
    {
      "byteLength": 192,
      "uri": "data:application/octet-stream;base64,"
    },
    {
      "byteLength": 288,
      "uri": "data:application/octet-stream;base64,"
    },
    {
      "byteLength": 136,
      "uri": "data:application/octet-stream;base64,"
    },
    {
      "byteLength": 288,
      "uri": "data:application/octet-stream;base64,"
    },
    {
      "byteLength": 384,
      "uri": "data:application/octet-stream;base64,"
    },
    {
      "byteLength": 192,
      "uri": "data:application/octet-stream;base64,"
    },
    {
      "byteLength": 288,
      "uri": "data:application/octet-stream;base64,"
    },
    {
      "byteLength": 136,
      "uri": "data:application/octet-stream;base64,"
    },
    {
      "byteLength": 288,
      "uri": "data:application/octet-stream;base64,"
    },
    {
      "byteLength": 384,
      "uri": "data:application/octet-stream;base64,"
    },
    {
      "byteLength": 192,
      "uri": "data:application/octet-stream;base64,"
    },
    {
      "byteLength": 288,
      "uri": "data:application/octet-stream;base64,"
    },
    {
      "byteLength": 136,
      "uri": "data:application/octet-stream;base64,"
    },
    {
      "byteLength": 288,
      "uri": "data:application/octet-stream;base64,"
    },
    {
      "byteLength": 384,
      "uri": "data:application/octet-stream;base64,"
    },
    {
      "byteLength": 192,
      "uri": "data:application/octet-stream;base64,"
    },
    {
      "byteLength": 288,
      "uri": "data:application/octet-stream;base64,"
    },
    {
      "byteLength": 136,
      "uri": "data:application/octet-stream;base64,"
    },
    {
      "byteLength": 288,
      "uri": "data:application/octet-stream;base64,"
    },
    {
      "byteLength": 384,
      "uri": "data:application/octet-stream;base64,"
    },
    {
      "byteLength": 192,
      "uri": "data:application/octet-stream;base64,"
    },
    {
      "byteLength": 288,
      "uri": "data:application/octet-stream;base64,"
    },
    {
      "byteLength": 136,
      "uri": "data:application/octet-stream;base64,"
    },
    {
      "byteLength": 288,
      "uri": "data:application/octet-stream;base64,"
    },
    {
      "byteLength": 384,
      "uri": "data:application/octet-stream;base64,"
    },
    {
      "byteLength": 192,
      "uri": "data:application/octet-stream;base64,"
    },
    {
      "byteLength": 12,
      "uri": "data:application/octet-stream;base64,"
    },
    {
      "byteLength": 48,
      "uri": "data:application/octet-stream;base64,"
    },
    {
      "byteLength": 12,
      "uri": "data:application/octet-stream;base64,"
    },
    {
      "byteLength": 48,
      "uri": "data:application/octet-stream;base64,"
    },
    {
      "byteLength": 12,
      "uri": "data:application/octet-stream;base64,"
    },
    {
      "byteLength": 48,
      "uri": "data:application/octet-stream;base64,"
    },
    {
      "byteLength": 12,
      "uri": "data:application/octet-stream;base64,"
    },
    {
      "byteLength": 48,
      "uri": "data:application/octet-stream;base64,"
    },
    {
      "byteLength": 12,
      "uri": "data:application/octet-stream;base64,"
    },
    {
      "byteLength": 48,
      "uri": "data:application/octet-stream;base64,"
    },
    {
      "byteLength": 12,
      "uri": "data:application/octet-stream;base64,"
    },
    {
      "byteLength": 48,
      "uri": "data:application/octet-stream;base64,"
    }
  ],
  "materials": [
    {
      "doubleSided": true,
      "name": "material_0",
      "alphaMode" : "BLEND",
      "pbrMetallicRoughness": {
        "baseColorTexture" : {"index" : 0},
        "baseColorFactor": [
          1.0,
          1.0,
          1.0,
          1.0
        ]
      }
    }
  ],
  "images": [
    {
         "uri" : "629a841473ce431a95ce7fbbeaf8cd58_A_gltf_embedded_0.png"
    }
  ],
  "textures": [
    {
         "source" : 0
    }
  ],
  "meshes": [
    {
      "primitives": [
        {
          "attributes": {
            "NORMAL": 2,
            "POSITION": 0,
            "TANGENT": 3,
            "TEXCOORD_0": 4
          },
          "indices": 1,
          "material": 0,
          "mode": 5
        }
      ]
    },
    {
      "primitives": [
        {
          "attributes": {
            "NORMAL": 7,
            "POSITION": 5,
            "TANGENT": 8,
            "TEXCOORD_0": 9
          },
          "indices": 6,
          "material": 0,
          "mode": 5
        }
      ]
    },
    {
      "primitives": [
        {
          "attributes": {
            "NORMAL": 12,
            "POSITION": 10,
            "TANGENT": 13,
            "TEXCOORD_0": 14
          },
          "indices": 11,
          "material": 0,
          "mode": 5
        }
      ]
    },
    {
      "primitives": [
        {
          "attributes": {
            "NORMAL": 17,
            "POSITION": 15,
            "TANGENT": 18,
            "TEXCOORD_0": 19
          },
          "indices": 16,
          "material": 0,
          "mode": 5
        }
      ]
    },
    {
      "primitives": [
        {
          "attributes": {
            "NORMAL": 22,
            "POSITION": 20,
            "TANGENT": 23,
            "TEXCOORD_0": 24
          },
          "indices": 21,
          "material": 0,
          "mode": 5
        }
      ]
    },
    {
      "primitives": [
        {
          "attributes": {
            "NORMAL": 27,
            "POSITION": 25,
            "TANGENT": 28,
            "TEXCOORD_0": 29
          },
          "indices": 26,
          "material": 0,
          "mode": 5
        }
      ]
    },
    {
      "primitives": [
        {
          "attributes": {
            "NORMAL": 32,
            "POSITION": 30,
            "TANGENT": 33,
            "TEXCOORD_0": 34
          },
          "indices": 31,
          "material": 0,
          "mode": 5
        }
      ]
    },
    {
      "primitives": [
        {
          "attributes": {
            "NORMAL": 37,
            "POSITION": 35,
            "TANGENT": 38,
            "TEXCOORD_0": 39
          },
          "indices": 36,
          "material": 0,
          "mode": 5
        }
      ]
    }
  ],
  "nodes": [
    {
      "mesh": 0,
      "name": "_gltfNode_0"
    },
    {
      "children": [
        0
      ],
      "name": "cube_1",
      "rotation": [
        0.0,
        0.0,
        0.0,
        1.0
      ],
      "scale": [
        1.0,
        1.0,
        1.0
      ],
      "translation": [
        0.0,
        0.0625,
        -0.03125
      ]
    },
    {
      "mesh": 1,
      "name": "_gltfNode_2"
    },
    {
      "children": [
        2
      ],
      "name": "cube_2",
      "rotation": [
        0.0,
        0.0,
        0.0,
        1.0
      ],
      "scale": [
        1.0,
        1.0,
        1.0
      ],
      "translation": [
        0.0,
        0.0625,
        -0.03125
      ]
    },
    {
      "mesh": 2,
      "name": "_gltfNode_4"
    },
    {
      "children": [
        4
      ],
      "name": "cube_3",
      "rotation": [
        0.0,
        0.0,
        0.0,
        1.0
      ],
      "scale": [
        1.0,
        1.0,
        1.0
      ],
      "translation": [
        0.0,
        -0.09375,
        0.0
      ]
    },
    {
      "children": [
        5
      ],
      "name": "analfin_4",
      "rotation": [
        0.0,
        0.0,
        0.0,
        1.0
      ],
      "scale": [
        1.0,
        1.0,
        1.0
      ],
      "translation": [
        0.0,
        0.15625,
        -0.03125
      ]
    },
    {
      "mesh": 3,
      "name": "_gltfNode_7"
    },
    {
      "children": [
        7
      ],
      "name": "cube_5",
      "rotation": [
        0.0,
        0.0,
        0.0,
        1.0
      ],
      "scale": [
        1.0,
        1.0,
        1.0
      ],
      "translation": [
        0.0,
        -0.28125,
        0.0
      ]
    },
    {
      "children": [
        8
      ],
      "name": "dorsalfin_6",
      "rotation": [
        0.0,
        0.0,
        0.0,
        1.0
      ],
      "scale": [
        1.0,
        1.0,
        1.0
      ],
      "translation": [
        0.0,
        0.34375,
        -0.03125
      ]
    },
    {
      "mesh": 4,
      "name": "_gltfNode_10"
    },
    {
      "children": [
        10
      ],
      "name": "cube_7",
      "rotation": [
        0.0,
        0.300705641170647,
        0.0,
        0.9537170006706179
      ],
      "scale": [
        0.9999997019767761,
        1.0,
        0.9999997019767761
      ],
      "translation": [
        0.0,
        0.03125,
        0.0
      ]
    },
    {
      "children": [
        11
      ],
      "name": "leftfin_8",
      "rotation": [
        0.0,
        0.0,
        0.0,
        1.0
      ],
      "scale": [
        1.0,
        1.0,
        1.0
      ],
      "translation": [
        -0.0625,
        0.21875,
        -0.21875
      ]
    },
    {
      "mesh": 5,
      "name": "_gltfNode_13"
    },
    {
      "children": [
        13
      ],
      "name": "cube_9",
      "rotation": [
        0.0,
        -0.300705641170647,
        0.0,
        0.9537170006706179
      ],
      "scale": [
        0.9999997019767761,
        1.0,
        0.9999997019767761
      ],
      "translation": [
        0.0,
        -0.03125,
        0.0
      ]
    },
    {
      "children": [
        14
      ],
      "name": "rightfin_10",
      "rotation": [
        0.0,
        0.0,
        0.0,
        1.0
      ],
      "scale": [
        1.0,
        1.0,
        1.0
      ],
      "translation": [
        0.0625,
        0.25,
        -0.21875
      ]
    },
    {
      "mesh": 6,
      "name": "_gltfNode_16"
    },
    {
      "children": [
        16
      ],
      "name": "cube_11",
      "rotation": [
        0.0,
        0.0,
        0.0,
        1.0
      ],
      "scale": [
        1.0,
        1.0,
        1.0
      ],
      "translation": [
        0.0,
        -0.1875,
        -0.21875
      ]
    },
    {
      "mesh": 7,
      "name": "_gltfNode_18"
    },
    {
      "children": [
        18
      ],
      "name": "cube_12",
      "rotation": [
        0.0,
        0.0,
        0.0,
        1.0
      ],
      "scale": [
        1.0,
        1.0,
        1.0
      ],
      "translation": [
        0.0,
        -0.1875,
        -0.21875
      ]
    },
    {
      "children": [
        17,
        19
      ],
      "name": "tail_13",
      "rotation": [
        0.0,
        0.0,
        0.0,
        1.0
      ],
      "scale": [
        1.0,
        1.0,
        1.0
      ],
      "translation": [
        0.0,
        0.25,
        0.1875
      ]
    },
    {
      "children": [
        1,
        3,
        6,
        9,
        12,
        15,
        20
      ],
      "name": "body_14"
    },
    {
      "children": [
        21
      ],
      "name": "_15"
    },
    {
      "children": [
        22
      ],
      "name": "GLTF_SceneRootNode",
      "rotation": [
        -1.9753748434203095e-22,
        0.0,
        0.0,
        1.0
      ],
      "scale": [
        1.0,
        1.0,
        1.0
      ],
      "translation": [
        0.0,
        0.0,
        0.0
      ]
    }
  ],
  "scene": 0,
  "scenes": [
    {
      "nodes": [
        23
      ]
    }
  ]
}
