{
  "accessors": [
    {
      "bufferView": 0,
      "componentType": 5126,
      "count": 864,
      "max": [
        22.713315963745117,
        13.878172874450684,
        64.73331451416016
      ],
      "min": [
        -22.695899963378906,
        -6.364590167999268,
        0.006969079840928316
      ],
      "type": "VEC3"
    },
    {
      "bufferView": 1,
      "componentType": 5125,
      "count": 1294,
      "type": "SCALAR"
    },
    {
      "bufferView": 2,
      "componentType": 5126,
      "count": 864,
      "type": "VEC3"
    },
    {
      "bufferView": 3,
      "componentType": 5126,
      "count": 864,
      "type": "VEC4"
    },
    {
      "bufferView": 4,
      "componentType": 5126,
      "count": 864,
      "type": "VEC2"
    }
  ],
  "asset": {
    "version": "2.0"
  },
  "bufferViews": [
    {
      "buffer": 0,
      "byteLength": 10368,
      "target": 34962
    },
    {
      "buffer": 1,
      "byteLength": 5176,
      "target": 34963
    },
    {
      "buffer": 2,
      "byteLength": 10368,
      "target": 34962
    },
    {
      "buffer": 3,
      "byteLength": 13824,
      "target": 34962
    },
    {
      "buffer": 4,
      "byteLength": 6912,
      "target": 34962
    }
  ],
  "buffers": [
    {
      "byteLength": 10368,
      "uri": "data:application/octet-stream;base64,"
    },
    {
      "byteLength": 5176,
      "uri": "data:application/octet-stream;base64,"
    },
    {
      "byteLength": 10368,
      "uri": "data:application/octet-stream;base64,"
    },
    {
      "byteLength": 13824,
      "uri": "data:application/octet-stream;base64,"
    },
    {
      "byteLength": 6912,
      "uri": "data:application/octet-stream;base64,"
    }
  ],
  "materials": [
    {
      "doubleSided": true,
      "name": "1",
      "pbrMetallicRoughness": {
        "baseColorFactor": [
          0.800000011920929,
          0.800000011920929,
          0.800000011920929,
          1.0
        ]
      }
    }
  ],
  "meshes": [
    {
      "primitives": [
        {
          "attributes": {
            "NORMAL": 2,
            "POSITION": 0,
            "TANGENT": 3,
            "TEXCOORD_0": 4
          },
          "indices": 1,
          "material": 0,
          "mode": 5
        }
      ]
    }
  ],
  "nodes": [
    {
      "mesh": 0,
      "name": "_gltfNode_0"
    },
    {
      "children": [
        0
      ],
      "name": "GLTF Converted Scene",
      "rotation": [
        -0.7071067811865475,
        0.0,
        0.0,
        0.7071067811865476
      ],
      "scale": [
        1.0,
        1.0,
        1.0
      ],
      "translation": [
        0.0,
        0.0,
        0.0
      ]
    }
  ],
  "scene": 0,
  "scenes": [
    {
      "nodes": [
        1
      ]
    }
  ]
}
