{
  "accessors": [
    {
      "bufferView": 0,
      "componentType": 5126,
      "count": 24,
      "max": [
        0.2555822730064392,
        0.03159103915095329,
        -0.12074693292379379
      ],
      "min": [
        -0.2494180053472519,
        -0.029658900573849678,
        -0.24449700117111206
      ],
      "type": "VEC3"
    },
    {
      "bufferView": 1,
      "componentType": 5125,
      "count": 34,
      "type": "SCALAR"
    },
    {
      "bufferView": 2,
      "componentType": 5126,
      "count": 24,
      "type": "VEC3"
    },
    {
      "bufferView": 3,
      "componentType": 5126,
      "count": 24,
      "type": "VEC4"
    },
    {
      "bufferView": 4,
      "componentType": 5126,
      "count": 24,
      "type": "VEC2"
    },
    {
      "bufferView": 5,
      "componentType": 5126,
      "count": 24,
      "max": [
        0.968750536441803,
        6.25000029685907e-05,
        0.0312500037252903
      ],
      "min": [
        -0.03125,
        -1.1102199806005023e-16,
        -0.03125
      ],
      "type": "VEC3"
    },
    {
      "bufferView": 6,
      "componentType": 5125,
      "count": 34,
      "type": "SCALAR"
    },
    {
      "bufferView": 7,
      "componentType": 5126,
      "count": 24,
      "type": "VEC3"
    },
    {
      "bufferView": 8,
      "componentType": 5126,
      "count": 24,
      "type": "VEC4"
    },
    {
      "bufferView": 9,
      "componentType": 5126,
      "count": 24,
      "type": "VEC2"
    },
    {
      "bufferView": 10,
      "componentType": 5126,
      "count": 24,
      "max": [
        -0.806440532207489,
        0.06596583873033524,
        -0.06153526157140732
      ],
      "min": [
        -1.0614399909973145,
        -0.06403390318155289,
        -0.19153499603271484
      ],
      "type": "VEC3"
    },
    {
      "bufferView": 11,
      "componentType": 5125,
      "count": 34,
      "type": "SCALAR"
    },
    {
      "bufferView": 12,
      "componentType": 5126,
      "count": 24,
      "type": "VEC3"
    },
    {
      "bufferView": 13,
      "componentType": 5126,
      "count": 24,
      "type": "VEC4"
    },
    {
      "bufferView": 14,
      "componentType": 5126,
      "count": 24,
      "type": "VEC2"
    },
    {
      "bufferView": 15,
      "componentType": 5126,
      "count": 24,
      "max": [
        -0.13714301586151123,
        0.06352857500314713,
        -0.19708803296089172
      ],
      "min": [
        -0.5122680068016052,
        -0.061596401035785675,
        -0.32221299409866333
      ],
      "type": "VEC3"
    },
    {
      "bufferView": 16,
      "componentType": 5125,
      "count": 34,
      "type": "SCALAR"
    },
    {
      "bufferView": 17,
      "componentType": 5126,
      "count": 24,
      "type": "VEC3"
    },
    {
      "bufferView": 18,
      "componentType": 5126,
      "count": 24,
      "type": "VEC4"
    },
    {
      "bufferView": 19,
      "componentType": 5126,
      "count": 24,
      "type": "VEC2"
    },
    {
      "bufferView": 20,
      "componentType": 5126,
      "count": 24,
      "max": [
        -0.34996747970581055,
        0.06346610188484192,
        -0.36872199177742004
      ],
      "min": [
        -0.7249680161476135,
        -0.06153390184044838,
        -0.49372199177742004
      ],
      "type": "VEC3"
    },
    {
      "bufferView": 21,
      "componentType": 5125,
      "count": 34,
      "type": "SCALAR"
    },
    {
      "bufferView": 22,
      "componentType": 5126,
      "count": 24,
      "type": "VEC3"
    },
    {
      "bufferView": 23,
      "componentType": 5126,
      "count": 24,
      "type": "VEC4"
    },
    {
      "bufferView": 24,
      "componentType": 5126,
      "count": 24,
      "type": "VEC2"
    },
    {
      "bufferView": 25,
      "componentType": 5126,
      "count": 24,
      "max": [
        0.0943322405219078,
        0.0328410342335701,
        1.067997932434082
      ],
      "min": [
        -0.09441769868135452,
        -0.030908899381756783,
        -0.37074699997901917
      ],
      "type": "VEC3"
    },
    {
      "bufferView": 26,
      "componentType": 5125,
      "count": 34,
      "type": "SCALAR"
    },
    {
      "bufferView": 27,
      "componentType": 5126,
      "count": 24,
      "type": "VEC3"
    },
    {
      "bufferView": 28,
      "componentType": 5126,
      "count": 24,
      "type": "VEC4"
    },
    {
      "bufferView": 29,
      "componentType": 5126,
      "count": 24,
      "type": "VEC2"
    },
    {
      "bufferView": 30,
      "componentType": 5126,
      "count": 24,
      "max": [
        0.03120730258524418,
        0.39781248569488525,
        0.7911980152130127
      ],
      "min": [
        -0.03129269927740097,
        0.14781300723552704,
        0.7286980152130127
      ],
      "type": "VEC3"
    },
    {
      "bufferView": 31,
      "componentType": 5125,
      "count": 34,
      "type": "SCALAR"
    },
    {
      "bufferView": 32,
      "componentType": 5126,
      "count": 24,
      "type": "VEC3"
    },
    {
      "bufferView": 33,
      "componentType": 5126,
      "count": 24,
      "type": "VEC4"
    },
    {
      "bufferView": 34,
      "componentType": 5126,
      "count": 24,
      "type": "VEC2"
    },
    {
      "bufferView": 35,
      "componentType": 5126,
      "count": 24,
      "max": [
        0.031124938279390335,
        -0.0670640617609024,
        0.09611032903194427
      ],
      "min": [
        -0.03112499974668026,
        -0.12931400537490845,
        -0.2786400020122528
      ],
      "type": "VEC3"
    },
    {
      "bufferView": 36,
      "componentType": 5125,
      "count": 34,
      "type": "SCALAR"
    },
    {
      "bufferView": 37,
      "componentType": 5126,
      "count": 24,
      "type": "VEC3"
    },
    {
      "bufferView": 38,
      "componentType": 5126,
      "count": 24,
      "type": "VEC4"
    },
    {
      "bufferView": 39,
      "componentType": 5126,
      "count": 24,
      "type": "VEC2"
    },
    {
      "bufferView": 40,
      "componentType": 5126,
      "count": 24,
      "max": [
        0.0312500037252903,
        0.1562500149011612,
        0.101808100938797
      ],
      "min": [
        -0.03125,
        -0.15625,
        0.039308100938797
      ],
      "type": "VEC3"
    },
    {
      "bufferView": 41,
      "componentType": 5125,
      "count": 34,
      "type": "SCALAR"
    },
    {
      "bufferView": 42,
      "componentType": 5126,
      "count": 24,
      "type": "VEC3"
    },
    {
      "bufferView": 43,
      "componentType": 5126,
      "count": 24,
      "type": "VEC4"
    },
    {
      "bufferView": 44,
      "componentType": 5126,
      "count": 24,
      "type": "VEC2"
    },
    {
      "bufferView": 45,
      "componentType": 5126,
      "count": 24,
      "max": [
        0.031124938279390335,
        0.12931354343891144,
        0.09611036628484726
      ],
      "min": [
        -0.03112499974668026,
        0.0670635998249054,
        -0.09113969653844833
      ],
      "type": "VEC3"
    },
    {
      "bufferView": 46,
      "componentType": 5125,
      "count": 34,
      "type": "SCALAR"
    },
    {
      "bufferView": 47,
      "componentType": 5126,
      "count": 24,
      "type": "VEC3"
    },
    {
      "bufferView": 48,
      "componentType": 5126,
      "count": 24,
      "type": "VEC4"
    },
    {
      "bufferView": 49,
      "componentType": 5126,
      "count": 24,
      "type": "VEC2"
    },
    {
      "bufferView": 50,
      "componentType": 5126,
      "count": 24,
      "max": [
        0.09375053644180298,
        6.25000029685907e-05,
        0.09375
      ],
      "min": [
        -0.90625,
        -1.1102199806005023e-16,
        0.03125
      ],
      "type": "VEC3"
    },
    {
      "bufferView": 51,
      "componentType": 5125,
      "count": 34,
      "type": "SCALAR"
    },
    {
      "bufferView": 52,
      "componentType": 5126,
      "count": 24,
      "type": "VEC3"
    },
    {
      "bufferView": 53,
      "componentType": 5126,
      "count": 24,
      "type": "VEC4"
    },
    {
      "bufferView": 54,
      "componentType": 5126,
      "count": 24,
      "type": "VEC2"
    },
    {
      "bufferView": 55,
      "componentType": 5126,
      "count": 24,
      "max": [
        1.061442494392395,
        0.06596583873033524,
        -0.06153526157140732
      ],
      "min": [
        0.8064429759979248,
        -0.06403390318155289,
        -0.19153499603271484
      ],
      "type": "VEC3"
    },
    {
      "bufferView": 56,
      "componentType": 5125,
      "count": 34,
      "type": "SCALAR"
    },
    {
      "bufferView": 57,
      "componentType": 5126,
      "count": 24,
      "type": "VEC3"
    },
    {
      "bufferView": 58,
      "componentType": 5126,
      "count": 24,
      "type": "VEC4"
    },
    {
      "bufferView": 59,
      "componentType": 5126,
      "count": 24,
      "type": "VEC2"
    },
    {
      "bufferView": 60,
      "componentType": 5126,
      "count": 24,
      "max": [
        0.7249684929847717,
        0.06346610188484192,
        -0.36872199177742004
      ],
      "min": [
        0.34996798634529114,
        -0.06153390184044838,
        -0.49372199177742004
      ],
      "type": "VEC3"
    },
    {
      "bufferView": 61,
      "componentType": 5125,
      "count": 34,
      "type": "SCALAR"
    },
    {
      "bufferView": 62,
      "componentType": 5126,
      "count": 24,
      "type": "VEC3"
    },
    {
      "bufferView": 63,
      "componentType": 5126,
      "count": 24,
      "type": "VEC4"
    },
    {
      "bufferView": 64,
      "componentType": 5126,
      "count": 24,
      "type": "VEC2"
    },
    {
      "bufferView": 65,
      "componentType": 5126,
      "count": 24,
      "max": [
        0.5122680068016052,
        0.06352857500314713,
        -0.19708803296089172
      ],
      "min": [
        0.13714300096035004,
        -0.061596401035785675,
        -0.32221299409866333
      ],
      "type": "VEC3"
    },
    {
      "bufferView": 66,
      "componentType": 5125,
      "count": 34,
      "type": "SCALAR"
    },
    {
      "bufferView": 67,
      "componentType": 5126,
      "count": 24,
      "type": "VEC3"
    },
    {
      "bufferView": 68,
      "componentType": 5126,
      "count": 24,
      "type": "VEC4"
    },
    {
      "bufferView": 69,
      "componentType": 5126,
      "count": 24,
      "type": "VEC2"
    },
    {
      "bufferView": 70,
      "componentType": 5126,
      "count": 24,
      "max": [
        1.9789802536251955e-05,
        0.09471610188484192,
        0.879878044128418
      ],
      "min": [
        -4.271019861334935e-05,
        0.03221609815955162,
        -0.3701219856739044
      ],
      "type": "VEC3"
    },
    {
      "bufferView": 71,
      "componentType": 5125,
      "count": 34,
      "type": "SCALAR"
    },
    {
      "bufferView": 72,
      "componentType": 5126,
      "count": 24,
      "type": "VEC3"
    },
    {
      "bufferView": 73,
      "componentType": 5126,
      "count": 24,
      "type": "VEC4"
    },
    {
      "bufferView": 74,
      "componentType": 5126,
      "count": 24,
      "type": "VEC2"
    },
    {
      "bufferView": 75,
      "componentType": 5126,
      "count": 24,
      "max": [
        6.25000029685907e-05,
        0.0312500037252903,
        0.5312500596046448
      ],
      "min": [
        5.551119755337213e-17,
        -0.03125,
        -0.71875
      ],
      "type": "VEC3"
    },
    {
      "bufferView": 76,
      "componentType": 5125,
      "count": 34,
      "type": "SCALAR"
    },
    {
      "bufferView": 77,
      "componentType": 5126,
      "count": 24,
      "type": "VEC3"
    },
    {
      "bufferView": 78,
      "componentType": 5126,
      "count": 24,
      "type": "VEC4"
    },
    {
      "bufferView": 79,
      "componentType": 5126,
      "count": 24,
      "type": "VEC2"
    },
    {
      "bufferView": 80,
      "componentType": 5126,
      "count": 24,
      "max": [
        1.9789802536251955e-05,
        0.1259661316871643,
        -0.3701219856739044
      ],
      "min": [
        -4.271019861334935e-05,
        0.013466100208461285,
        -0.4826219975948334
      ],
      "type": "VEC3"
    },
    {
      "bufferView": 81,
      "componentType": 5125,
      "count": 34,
      "type": "SCALAR"
    },
    {
      "bufferView": 82,
      "componentType": 5126,
      "count": 24,
      "type": "VEC3"
    },
    {
      "bufferView": 83,
      "componentType": 5126,
      "count": 24,
      "type": "VEC4"
    },
    {
      "bufferView": 84,
      "componentType": 5126,
      "count": 24,
      "type": "VEC2"
    },
    {
      "bufferView": 85,
      "componentType": 5126,
      "count": 24,
      "max": [
        6.24950771452859e-05,
        0.05624112859368324,
        0.05624112859368324
      ],
      "min": [
        -4.92125984408176e-09,
        -0.056258898228406906,
        -0.056258898228406906
      ],
      "type": "VEC3"
    },
    {
      "bufferView": 86,
      "componentType": 5125,
      "count": 34,
      "type": "SCALAR"
    },
    {
      "bufferView": 87,
      "componentType": 5126,
      "count": 24,
      "type": "VEC3"
    },
    {
      "bufferView": 88,
      "componentType": 5126,
      "count": 24,
      "type": "VEC4"
    },
    {
      "bufferView": 89,
      "componentType": 5126,
      "count": 24,
      "type": "VEC2"
    },
    {
      "bufferView": 90,
      "componentType": 5126,
      "count": 24,
      "max": [
        6.24950771452859e-05,
        0.05624112859368324,
        0.05624112859368324
      ],
      "min": [
        -4.92125984408176e-09,
        -0.056258898228406906,
        -0.056258898228406906
      ],
      "type": "VEC3"
    },
    {
      "bufferView": 91,
      "componentType": 5125,
      "count": 34,
      "type": "SCALAR"
    },
    {
      "bufferView": 92,
      "componentType": 5126,
      "count": 24,
      "type": "VEC3"
    },
    {
      "bufferView": 93,
      "componentType": 5126,
      "count": 24,
      "type": "VEC4"
    },
    {
      "bufferView": 94,
      "componentType": 5126,
      "count": 24,
      "type": "VEC2"
    },
    {
      "bufferView": 95,
      "componentType": 5126,
      "count": 24,
      "max": [
        1.9789802536251955e-05,
        0.1259661316871643,
        0.48262202739715576
      ],
      "min": [
        -4.271019861334935e-05,
        0.013466100208461285,
        0.3701219856739044
      ],
      "type": "VEC3"
    },
    {
      "bufferView": 96,
      "componentType": 5125,
      "count": 34,
      "type": "SCALAR"
    },
    {
      "bufferView": 97,
      "componentType": 5126,
      "count": 24,
      "type": "VEC3"
    },
    {
      "bufferView": 98,
      "componentType": 5126,
      "count": 24,
      "type": "VEC4"
    },
    {
      "bufferView": 99,
      "componentType": 5126,
      "count": 24,
      "type": "VEC2"
    }
  ],
  "asset": {
    "version": "2.0"
  },
  "bufferViews": [
    {
      "buffer": 0,
      "byteLength": 288,
      "target": 34962
    },
    {
      "buffer": 1,
      "byteLength": 136,
      "target": 34963
    },
    {
      "buffer": 2,
      "byteLength": 288,
      "target": 34962
    },
    {
      "buffer": 3,
      "byteLength": 384,
      "target": 34962
    },
    {
      "buffer": 4,
      "byteLength": 192,
      "target": 34962
    },
    {
      "buffer": 5,
      "byteLength": 288,
      "target": 34962
    },
    {
      "buffer": 6,
      "byteLength": 136,
      "target": 34963
    },
    {
      "buffer": 7,
      "byteLength": 288,
      "target": 34962
    },
    {
      "buffer": 8,
      "byteLength": 384,
      "target": 34962
    },
    {
      "buffer": 9,
      "byteLength": 192,
      "target": 34962
    },
    {
      "buffer": 10,
      "byteLength": 288,
      "target": 34962
    },
    {
      "buffer": 11,
      "byteLength": 136,
      "target": 34963
    },
    {
      "buffer": 12,
      "byteLength": 288,
      "target": 34962
    },
    {
      "buffer": 13,
      "byteLength": 384,
      "target": 34962
    },
    {
      "buffer": 14,
      "byteLength": 192,
      "target": 34962
    },
    {
      "buffer": 15,
      "byteLength": 288,
      "target": 34962
    },
    {
      "buffer": 16,
      "byteLength": 136,
      "target": 34963
    },
    {
      "buffer": 17,
      "byteLength": 288,
      "target": 34962
    },
    {
      "buffer": 18,
      "byteLength": 384,
      "target": 34962
    },
    {
      "buffer": 19,
      "byteLength": 192,
      "target": 34962
    },
    {
      "buffer": 20,
      "byteLength": 288,
      "target": 34962
    },
    {
      "buffer": 21,
      "byteLength": 136,
      "target": 34963
    },
    {
      "buffer": 22,
      "byteLength": 288,
      "target": 34962
    },
    {
      "buffer": 23,
      "byteLength": 384,
      "target": 34962
    },
    {
      "buffer": 24,
      "byteLength": 192,
      "target": 34962
    },
    {
      "buffer": 25,
      "byteLength": 288,
      "target": 34962
    },
    {
      "buffer": 26,
      "byteLength": 136,
      "target": 34963
    },
    {
      "buffer": 27,
      "byteLength": 288,
      "target": 34962
    },
    {
      "buffer": 28,
      "byteLength": 384,
      "target": 34962
    },
    {
      "buffer": 29,
      "byteLength": 192,
      "target": 34962
    },
    {
      "buffer": 30,
      "byteLength": 288,
      "target": 34962
    },
    {
      "buffer": 31,
      "byteLength": 136,
      "target": 34963
    },
    {
      "buffer": 32,
      "byteLength": 288,
      "target": 34962
    },
    {
      "buffer": 33,
      "byteLength": 384,
      "target": 34962
    },
    {
      "buffer": 34,
      "byteLength": 192,
      "target": 34962
    },
    {
      "buffer": 35,
      "byteLength": 288,
      "target": 34962
    },
    {
      "buffer": 36,
      "byteLength": 136,
      "target": 34963
    },
    {
      "buffer": 37,
      "byteLength": 288,
      "target": 34962
    },
    {
      "buffer": 38,
      "byteLength": 384,
      "target": 34962
    },
    {
      "buffer": 39,
      "byteLength": 192,
      "target": 34962
    },
    {
      "buffer": 40,
      "byteLength": 288,
      "target": 34962
    },
    {
      "buffer": 41,
      "byteLength": 136,
      "target": 34963
    },
    {
      "buffer": 42,
      "byteLength": 288,
      "target": 34962
    },
    {
      "buffer": 43,
      "byteLength": 384,
      "target": 34962
    },
    {
      "buffer": 44,
      "byteLength": 192,
      "target": 34962
    },
    {
      "buffer": 45,
      "byteLength": 288,
      "target": 34962
    },
    {
      "buffer": 46,
      "byteLength": 136,
      "target": 34963
    },
    {
      "buffer": 47,
      "byteLength": 288,
      "target": 34962
    },
    {
      "buffer": 48,
      "byteLength": 384,
      "target": 34962
    },
    {
      "buffer": 49,
      "byteLength": 192,
      "target": 34962
    },
    {
      "buffer": 50,
      "byteLength": 288,
      "target": 34962
    },
    {
      "buffer": 51,
      "byteLength": 136,
      "target": 34963
    },
    {
      "buffer": 52,
      "byteLength": 288,
      "target": 34962
    },
    {
      "buffer": 53,
      "byteLength": 384,
      "target": 34962
    },
    {
      "buffer": 54,
      "byteLength": 192,
      "target": 34962
    },
    {
      "buffer": 55,
      "byteLength": 288,
      "target": 34962
    },
    {
      "buffer": 56,
      "byteLength": 136,
      "target": 34963
    },
    {
      "buffer": 57,
      "byteLength": 288,
      "target": 34962
    },
    {
      "buffer": 58,
      "byteLength": 384,
      "target": 34962
    },
    {
      "buffer": 59,
      "byteLength": 192,
      "target": 34962
    },
    {
      "buffer": 60,
      "byteLength": 288,
      "target": 34962
    },
    {
      "buffer": 61,
      "byteLength": 136,
      "target": 34963
    },
    {
      "buffer": 62,
      "byteLength": 288,
      "target": 34962
    },
    {
      "buffer": 63,
      "byteLength": 384,
      "target": 34962
    },
    {
      "buffer": 64,
      "byteLength": 192,
      "target": 34962
    },
    {
      "buffer": 65,
      "byteLength": 288,
      "target": 34962
    },
    {
      "buffer": 66,
      "byteLength": 136,
      "target": 34963
    },
    {
      "buffer": 67,
      "byteLength": 288,
      "target": 34962
    },
    {
      "buffer": 68,
      "byteLength": 384,
      "target": 34962
    },
    {
      "buffer": 69,
      "byteLength": 192,
      "target": 34962
    },
    {
      "buffer": 70,
      "byteLength": 288,
      "target": 34962
    },
    {
      "buffer": 71,
      "byteLength": 136,
      "target": 34963
    },
    {
      "buffer": 72,
      "byteLength": 288,
      "target": 34962
    },
    {
      "buffer": 73,
      "byteLength": 384,
      "target": 34962
    },
    {
      "buffer": 74,
      "byteLength": 192,
      "target": 34962
    },
    {
      "buffer": 75,
      "byteLength": 288,
      "target": 34962
    },
    {
      "buffer": 76,
      "byteLength": 136,
      "target": 34963
    },
    {
      "buffer": 77,
      "byteLength": 288,
      "target": 34962
    },
    {
      "buffer": 78,
      "byteLength": 384,
      "target": 34962
    },
    {
      "buffer": 79,
      "byteLength": 192,
      "target": 34962
    },
    {
      "buffer": 80,
      "byteLength": 288,
      "target": 34962
    },
    {
      "buffer": 81,
      "byteLength": 136,
      "target": 34963
    },
    {
      "buffer": 82,
      "byteLength": 288,
      "target": 34962
    },
    {
      "buffer": 83,
      "byteLength": 384,
      "target": 34962
    },
    {
      "buffer": 84,
      "byteLength": 192,
      "target": 34962
    },
    {
      "buffer": 85,
      "byteLength": 288,
      "target": 34962
    },
    {
      "buffer": 86,
      "byteLength": 136,
      "target": 34963
    },
    {
      "buffer": 87,
      "byteLength": 288,
      "target": 34962
    },
    {
      "buffer": 88,
      "byteLength": 384,
      "target": 34962
    },
    {
      "buffer": 89,
      "byteLength": 192,
      "target": 34962
    },
    {
      "buffer": 90,
      "byteLength": 288,
      "target": 34962
    },
    {
      "buffer": 91,
      "byteLength": 136,
      "target": 34963
    },
    {
      "buffer": 92,
      "byteLength": 288,
      "target": 34962
    },
    {
      "buffer": 93,
      "byteLength": 384,
      "target": 34962
    },
    {
      "buffer": 94,
      "byteLength": 192,
      "target": 34962
    },
    {
      "buffer": 95,
      "byteLength": 288,
      "target": 34962
    },
    {
      "buffer": 96,
      "byteLength": 136,
      "target": 34963
    },
    {
      "buffer": 97,
      "byteLength": 288,
      "target": 34962
    },
    {
      "buffer": 98,
      "byteLength": 384,
      "target": 34962
    },
    {
      "buffer": 99,
      "byteLength": 192,
      "target": 34962
    }
  ],
  "buffers": [
    {
      "byteLength": 288,
      "uri": "data:application/octet-stream;base64,"
    },
    {
      "byteLength": 136,
      "uri": "data:application/octet-stream;base64,"
    },
    {
      "byteLength": 288,
      "uri": "data:application/octet-stream;base64,"
    },
    {
      "byteLength": 384,
      "uri": "data:application/octet-stream;base64,"
    },
    {
      "byteLength": 192,
      "uri": "data:application/octet-stream;base64,"
    },
    {
      "byteLength": 288,
      "uri": "data:application/octet-stream;base64,"
    },
    {
      "byteLength": 136,
      "uri": "data:application/octet-stream;base64,"
    },
    {
      "byteLength": 288,
      "uri": "data:application/octet-stream;base64,"
    },
    {
      "byteLength": 384,
      "uri": "data:application/octet-stream;base64,"
    },
    {
      "byteLength": 192,
      "uri": "data:application/octet-stream;base64,"
    },
    {
      "byteLength": 288,
      "uri": "data:application/octet-stream;base64,"
    },
    {
      "byteLength": 136,
      "uri": "data:application/octet-stream;base64,"
    },
    {
      "byteLength": 288,
      "uri": "data:application/octet-stream;base64,"
    },
    {
      "byteLength": 384,
      "uri": "data:application/octet-stream;base64,"
    },
    {
      "byteLength": 192,
      "uri": "data:application/octet-stream;base64,"
    },
    {
      "byteLength": 288,
      "uri": "data:application/octet-stream;base64,"
    },
    {
      "byteLength": 136,
      "uri": "data:application/octet-stream;base64,"
    },
    {
      "byteLength": 288,
      "uri": "data:application/octet-stream;base64,"
    },
    {
      "byteLength": 384,
      "uri": "data:application/octet-stream;base64,"
    },
    {
      "byteLength": 192,
      "uri": "data:application/octet-stream;base64,"
    },
    {
      "byteLength": 288,
      "uri": "data:application/octet-stream;base64,"
    },
    {
      "byteLength": 136,
      "uri": "data:application/octet-stream;base64,"
    },
    {
      "byteLength": 288,
      "uri": "data:application/octet-stream;base64,"
    },
    {
      "byteLength": 384,
      "uri": "data:application/octet-stream;base64,"
    },
    {
      "byteLength": 192,
      "uri": "data:application/octet-stream;base64,"
    },
    {
      "byteLength": 288,
      "uri": "data:application/octet-stream;base64,"
    },
    {
      "byteLength": 136,
      "uri": "data:application/octet-stream;base64,"
    },
    {
      "byteLength": 288,
      "uri": "data:application/octet-stream;base64,"
    },
    {
      "byteLength": 384,
      "uri": "data:application/octet-stream;base64,"
    },
    {
      "byteLength": 192,
      "uri": "data:application/octet-stream;base64,"
    },
    {
      "byteLength": 288,
      "uri": "data:application/octet-stream;base64,"
    },
    {
      "byteLength": 136,
      "uri": "data:application/octet-stream;base64,"
    },
    {
      "byteLength": 288,
      "uri": "data:application/octet-stream;base64,"
    },
    {
      "byteLength": 384,
      "uri": "data:application/octet-stream;base64,"
    },
    {
      "byteLength": 192,
      "uri": "data:application/octet-stream;base64,"
    },
    {
      "byteLength": 288,
      "uri": "data:application/octet-stream;base64,"
    },
    {
      "byteLength": 136,
      "uri": "data:application/octet-stream;base64,"
    },
    {
      "byteLength": 288,
      "uri": "data:application/octet-stream;base64,"
    },
    {
      "byteLength": 384,
      "uri": "data:application/octet-stream;base64,"
    },
    {
      "byteLength": 192,
      "uri": "data:application/octet-stream;base64,"
    },
    {
      "byteLength": 288,
      "uri": "data:application/octet-stream;base64,"
    },
    {
      "byteLength": 136,
      "uri": "data:application/octet-stream;base64,"
    },
    {
      "byteLength": 288,
      "uri": "data:application/octet-stream;base64,"
    },
    {
      "byteLength": 384,
      "uri": "data:application/octet-stream;base64,"
    },
    {
      "byteLength": 192,
      "uri": "data:application/octet-stream;base64,"
    },
    {
      "byteLength": 288,
      "uri": "data:application/octet-stream;base64,"
    },
    {
      "byteLength": 136,
      "uri": "data:application/octet-stream;base64,"
    },
    {
      "byteLength": 288,
      "uri": "data:application/octet-stream;base64,"
    },
    {
      "byteLength": 384,
      "uri": "data:application/octet-stream;base64,"
    },
    {
      "byteLength": 192,
      "uri": "data:application/octet-stream;base64,"
    },
    {
      "byteLength": 288,
      "uri": "data:application/octet-stream;base64,"
    },
    {
      "byteLength": 136,
      "uri": "data:application/octet-stream;base64,"
    },
    {
      "byteLength": 288,
      "uri": "data:application/octet-stream;base64,"
    },
    {
      "byteLength": 384,
      "uri": "data:application/octet-stream;base64,"
    },
    {
      "byteLength": 192,
      "uri": "data:application/octet-stream;base64,"
    },
    {
      "byteLength": 288,
      "uri": "data:application/octet-stream;base64,"
    },
    {
      "byteLength": 136,
      "uri": "data:application/octet-stream;base64,"
    },
    {
      "byteLength": 288,
      "uri": "data:application/octet-stream;base64,"
    },
    {
      "byteLength": 384,
      "uri": "data:application/octet-stream;base64,"
    },
    {
      "byteLength": 192,
      "uri": "data:application/octet-stream;base64,"
    },
    {
      "byteLength": 288,
      "uri": "data:application/octet-stream;base64,"
    },
    {
      "byteLength": 136,
      "uri": "data:application/octet-stream;base64,"
    },
    {
      "byteLength": 288,
      "uri": "data:application/octet-stream;base64,"
    },
    {
      "byteLength": 384,
      "uri": "data:application/octet-stream;base64,"
    },
    {
      "byteLength": 192,
      "uri": "data:application/octet-stream;base64,"
    },
    {
      "byteLength": 288,
      "uri": "data:application/octet-stream;base64,"
    },
    {
      "byteLength": 136,
      "uri": "data:application/octet-stream;base64,"
    },
    {
      "byteLength": 288,
      "uri": "data:application/octet-stream;base64,"
    },
    {
      "byteLength": 384,
      "uri": "data:application/octet-stream;base64,"
    },
    {
      "byteLength": 192,
      "uri": "data:application/octet-stream;base64,"
    },
    {
      "byteLength": 288,
      "uri": "data:application/octet-stream;base64,"
    },
    {
      "byteLength": 136,
      "uri": "data:application/octet-stream;base64,"
    },
    {
      "byteLength": 288,
      "uri": "data:application/octet-stream;base64,"
    },
    {
      "byteLength": 384,
      "uri": "data:application/octet-stream;base64,"
    },
    {
      "byteLength": 192,
      "uri": "data:application/octet-stream;base64,"
    },
    {
      "byteLength": 288,
      "uri": "data:application/octet-stream;base64,"
    },
    {
      "byteLength": 136,
      "uri": "data:application/octet-stream;base64,"
    },
    {
      "byteLength": 288,
      "uri": "data:application/octet-stream;base64,"
    },
    {
      "byteLength": 384,
      "uri": "data:application/octet-stream;base64,"
    },
    {
      "byteLength": 192,
      "uri": "data:application/octet-stream;base64,"
    },
    {
      "byteLength": 288,
      "uri": "data:application/octet-stream;base64,"
    },
    {
      "byteLength": 136,
      "uri": "data:application/octet-stream;base64,"
    },
    {
      "byteLength": 288,
      "uri": "data:application/octet-stream;base64,"
    },
    {
      "byteLength": 384,
      "uri": "data:application/octet-stream;base64,"
    },
    {
      "byteLength": 192,
      "uri": "data:application/octet-stream;base64,"
    },
    {
      "byteLength": 288,
      "uri": "data:application/octet-stream;base64,"
    },
    {
      "byteLength": 136,
      "uri": "data:application/octet-stream;base64,"
    },
    {
      "byteLength": 288,
      "uri": "data:application/octet-stream;base64,"
    },
    {
      "byteLength": 384,
      "uri": "data:application/octet-stream;base64,"
    },
    {
      "byteLength": 192,
      "uri": "data:application/octet-stream;base64,"
    },
    {
      "byteLength": 288,
      "uri": "data:application/octet-stream;base64,"
    },
    {
      "byteLength": 136,
      "uri": "data:application/octet-stream;base64,"
    },
    {
      "byteLength": 288,
      "uri": "data:application/octet-stream;base64,"
    },
    {
      "byteLength": 384,
      "uri": "data:application/octet-stream;base64,"
    },
    {
      "byteLength": 192,
      "uri": "data:application/octet-stream;base64,"
    },
    {
      "byteLength": 288,
      "uri": "data:application/octet-stream;base64,"
    },
    {
      "byteLength": 136,
      "uri": "data:application/octet-stream;base64,"
    },
    {
      "byteLength": 288,
      "uri": "data:application/octet-stream;base64,"
    },
    {
      "byteLength": 384,
      "uri": "data:application/octet-stream;base64,"
    },
    {
      "byteLength": 192,
      "uri": "data:application/octet-stream;base64,"
    }
  ],
  "materials": [
    {
      "doubleSided": true
    }
  ],
  "meshes": [
    {
      "primitives": [
        {
          "attributes": {
            "NORMAL": 2,
            "POSITION": 0,
            "TANGENT": 3,
            "TEXCOORD_0": 4
          },
          "indices": 1,
          "material": 0,
          "mode": 5
        }
      ]
    },
    {
      "primitives": [
        {
          "attributes": {
            "NORMAL": 7,
            "POSITION": 5,
            "TANGENT": 8,
            "TEXCOORD_0": 9
          },
          "indices": 6,
          "material": 0,
          "mode": 5
        }
      ]
    },
    {
      "primitives": [
        {
          "attributes": {
            "NORMAL": 12,
            "POSITION": 10,
            "TANGENT": 13,
            "TEXCOORD_0": 14
          },
          "indices": 11,
          "material": 0,
          "mode": 5
        }
      ]
    },
    {
      "primitives": [
        {
          "attributes": {
            "NORMAL": 17,
            "POSITION": 15,
            "TANGENT": 18,
            "TEXCOORD_0": 19
          },
          "indices": 16,
          "material": 0,
          "mode": 5
        }
      ]
    },
    {
      "primitives": [
        {
          "attributes": {
            "NORMAL": 22,
            "POSITION": 20,
            "TANGENT": 23,
            "TEXCOORD_0": 24
          },
          "indices": 21,
          "material": 0,
          "mode": 5
        }
      ]
    },
    {
      "primitives": [
        {
          "attributes": {
            "NORMAL": 27,
            "POSITION": 25,
            "TANGENT": 28,
            "TEXCOORD_0": 29
          },
          "indices": 26,
          "material": 0,
          "mode": 5
        }
      ]
    },
    {
      "primitives": [
        {
          "attributes": {
            "NORMAL": 32,
            "POSITION": 30,
            "TANGENT": 33,
            "TEXCOORD_0": 34
          },
          "indices": 31,
          "material": 0,
          "mode": 5
        }
      ]
    },
    {
      "primitives": [
        {
          "attributes": {
            "NORMAL": 37,
            "POSITION": 35,
            "TANGENT": 38,
            "TEXCOORD_0": 39
          },
          "indices": 36,
          "material": 0,
          "mode": 5
        }
      ]
    },
    {
      "primitives": [
        {
          "attributes": {
            "NORMAL": 42,
            "POSITION": 40,
            "TANGENT": 43,
            "TEXCOORD_0": 44
          },
          "indices": 41,
          "material": 0,
          "mode": 5
        }
      ]
    },
    {
      "primitives": [
        {
          "attributes": {
            "NORMAL": 47,
            "POSITION": 45,
            "TANGENT": 48,
            "TEXCOORD_0": 49
          },
          "indices": 46,
          "material": 0,
          "mode": 5
        }
      ]
    },
    {
      "primitives": [
        {
          "attributes": {
            "NORMAL": 52,
            "POSITION": 50,
            "TANGENT": 53,
            "TEXCOORD_0": 54
          },
          "indices": 51,
          "material": 0,
          "mode": 5
        }
      ]
    },
    {
      "primitives": [
        {
          "attributes": {
            "NORMAL": 57,
            "POSITION": 55,
            "TANGENT": 58,
            "TEXCOORD_0": 59
          },
          "indices": 56,
          "material": 0,
          "mode": 5
        }
      ]
    },
    {
      "primitives": [
        {
          "attributes": {
            "NORMAL": 62,
            "POSITION": 60,
            "TANGENT": 63,
            "TEXCOORD_0": 64
          },
          "indices": 61,
          "material": 0,
          "mode": 5
        }
      ]
    },
    {
      "primitives": [
        {
          "attributes": {
            "NORMAL": 67,
            "POSITION": 65,
            "TANGENT": 68,
            "TEXCOORD_0": 69
          },
          "indices": 66,
          "material": 0,
          "mode": 5
        }
      ]
    },
    {
      "primitives": [
        {
          "attributes": {
            "NORMAL": 72,
            "POSITION": 70,
            "TANGENT": 73,
            "TEXCOORD_0": 74
          },
          "indices": 71,
          "material": 0,
          "mode": 5
        }
      ]
    },
    {
      "primitives": [
        {
          "attributes": {
            "NORMAL": 77,
            "POSITION": 75,
            "TANGENT": 78,
            "TEXCOORD_0": 79
          },
          "indices": 76,
          "material": 0,
          "mode": 5
        }
      ]
    },
    {
      "primitives": [
        {
          "attributes": {
            "NORMAL": 82,
            "POSITION": 80,
            "TANGENT": 83,
            "TEXCOORD_0": 84
          },
          "indices": 81,
          "material": 0,
          "mode": 5
        }
      ]
    },
    {
      "primitives": [
        {
          "attributes": {
            "NORMAL": 87,
            "POSITION": 85,
            "TANGENT": 88,
            "TEXCOORD_0": 89
          },
          "indices": 86,
          "material": 0,
          "mode": 5
        }
      ]
    },
    {
      "primitives": [
        {
          "attributes": {
            "NORMAL": 92,
            "POSITION": 90,
            "TANGENT": 93,
            "TEXCOORD_0": 94
          },
          "indices": 91,
          "material": 0,
          "mode": 5
        }
      ]
    },
    {
      "primitives": [
        {
          "attributes": {
            "NORMAL": 97,
            "POSITION": 95,
            "TANGENT": 98,
            "TEXCOORD_0": 99
          },
          "indices": 96,
          "material": 0,
          "mode": 5
        }
      ]
    }
  ],
  "nodes": [
    {
      "mesh": 0,
      "name": "_gltfNode_0"
    },
    {
      "children": [
        0
      ],
      "name": "cube_0",
      "rotation": [
        0.0,
        0.0,
        0.0,
        1.0
      ],
      "scale": [
        1.0,
        1.0,
        1.0
      ],
      "translation": [
        1.2969199419021606,
        -0.12596599757671356,
        -0.1923779994249344
      ]
    },
    {
      "mesh": 1,
      "name": "_gltfNode_2"
    },
    {
      "children": [
        2
      ],
      "name": "cube_1",
      "rotation": [
        0.0,
        -0.34202041763550756,
        0.0,
        0.9396925209452472
      ],
      "scale": [
        0.9999999403953552,
        1.0,
        0.9999999403953552
      ],
      "translation": [
        0.5548120141029358,
        -0.09362500160932541,
        -0.002974150003865361
      ]
    },
    {
      "mesh": 2,
      "name": "_gltfNode_4"
    },
    {
      "children": [
        4
      ],
      "name": "cube_2",
      "rotation": [
        0.0,
        0.19509003839592318,
        0.0,
        0.9807853368187586
      ],
      "scale": [
        1.000000238418579,
        1.0,
        1.000000238418579
      ],
      "translation": [
        1.2969199419021606,
        -0.12596599757671356,
        -0.1923779994249344
      ]
    },
    {
      "mesh": 3,
      "name": "_gltfNode_6"
    },
    {
      "children": [
        6
      ],
      "name": "cube_3",
      "rotation": [
        0.0,
        0.19509003839592318,
        0.0,
        0.9807853368187586
      ],
      "scale": [
        1.000000238418579,
        1.0,
        1.000000238418579
      ],
      "translation": [
        1.2969199419021606,
        -0.12596599757671356,
        -0.1923779994249344
      ]
    },
    {
      "mesh": 4,
      "name": "_gltfNode_8"
    },
    {
      "children": [
        8
      ],
      "name": "cube_4",
      "rotation": [
        0.0,
        0.3826834323650872,
        0.0,
        0.9238795325112932
      ],
      "scale": [
        1.0000003576278687,
        1.0,
        1.0000003576278687
      ],
      "translation": [
        1.2969199419021606,
        -0.12596599757671356,
        -0.1923779994249344
      ]
    },
    {
      "mesh": 5,
      "name": "_gltfNode_10"
    },
    {
      "children": [
        10
      ],
      "name": "cube_5",
      "rotation": [
        0.0,
        0.0,
        0.0,
        1.0
      ],
      "scale": [
        1.0,
        1.0,
        1.0
      ],
      "translation": [
        1.2969199419021606,
        -0.12596599757671356,
        -0.1923779994249344
      ]
    },
    {
      "mesh": 6,
      "name": "_gltfNode_12"
    },
    {
      "children": [
        12
      ],
      "name": "cube_6",
      "rotation": [
        0.19509003839592318,
        0.0,
        0.0,
        0.9807853368187586
      ],
      "scale": [
        1.0,
        1.000000238418579,
        1.000000238418579
      ],
      "translation": [
        1.2969199419021606,
        -0.12596599757671356,
        -0.1923779994249344
      ]
    },
    {
      "mesh": 7,
      "name": "_gltfNode_14"
    },
    {
      "children": [
        14
      ],
      "name": "cube_7",
      "rotation": [
        0.19509003839592318,
        0.0,
        0.0,
        0.9807853368187586
      ],
      "scale": [
        1.0,
        1.000000238418579,
        1.000000238418579
      ],
      "translation": [
        1.2999999523162842,
        -0.171875,
        0.9169420003890991
      ]
    },
    {
      "mesh": 8,
      "name": "_gltfNode_16"
    },
    {
      "children": [
        16
      ],
      "name": "cube_8",
      "rotation": [
        0.0,
        0.0,
        0.0,
        1.0
      ],
      "scale": [
        1.0,
        1.0,
        1.0
      ],
      "translation": [
        1.2999999523162842,
        -0.171875,
        0.9169420003890991
      ]
    },
    {
      "mesh": 9,
      "name": "_gltfNode_18"
    },
    {
      "children": [
        18
      ],
      "name": "cube_9",
      "rotation": [
        -0.19509003839592318,
        0.0,
        0.0,
        0.9807853368187586
      ],
      "scale": [
        1.0,
        1.000000238418579,
        1.000000238418579
      ],
      "translation": [
        1.2999999523162842,
        -0.171875,
        0.9169420003890991
      ]
    },
    {
      "mesh": 10,
      "name": "_gltfNode_20"
    },
    {
      "children": [
        20
      ],
      "name": "cube_10",
      "rotation": [
        0.0,
        0.34202041763550756,
        0.0,
        0.9396925209452472
      ],
      "scale": [
        0.9999999403953552,
        1.0,
        0.9999999403953552
      ],
      "translation": [
        1.9451899528503418,
        -0.09362500160932541,
        -0.002974150003865361
      ]
    },
    {
      "mesh": 11,
      "name": "_gltfNode_22"
    },
    {
      "children": [
        22
      ],
      "name": "cube_11",
      "rotation": [
        0.0,
        -0.19509003839592318,
        0.0,
        0.9807853368187586
      ],
      "scale": [
        1.000000238418579,
        1.0,
        1.000000238418579
      ],
      "translation": [
        1.3030799627304077,
        -0.12596599757671356,
        -0.1923779994249344
      ]
    },
    {
      "mesh": 12,
      "name": "_gltfNode_24"
    },
    {
      "children": [
        24
      ],
      "name": "cube_12",
      "rotation": [
        0.0,
        -0.3826834323650872,
        0.0,
        0.9238795325112932
      ],
      "scale": [
        1.0000003576278687,
        1.0,
        1.0000003576278687
      ],
      "translation": [
        1.3030799627304077,
        -0.12596599757671356,
        -0.1923779994249344
      ]
    },
    {
      "mesh": 13,
      "name": "_gltfNode_26"
    },
    {
      "children": [
        26
      ],
      "name": "cube_13",
      "rotation": [
        0.0,
        -0.19509003839592318,
        0.0,
        0.9807853368187586
      ],
      "scale": [
        1.000000238418579,
        1.0,
        1.000000238418579
      ],
      "translation": [
        1.3030799627304077,
        -0.12596599757671356,
        -0.1923779994249344
      ]
    },
    {
      "mesh": 14,
      "name": "_gltfNode_28"
    },
    {
      "children": [
        28
      ],
      "name": "cube_14",
      "rotation": [
        0.0,
        0.0,
        0.0,
        1.0
      ],
      "scale": [
        1.0,
        1.0,
        1.0
      ],
      "translation": [
        1.2969199419021606,
        -0.12596599757671356,
        -0.3173780143260956
      ]
    },
    {
      "mesh": 15,
      "name": "_gltfNode_30"
    },
    {
      "children": [
        30
      ],
      "name": "cube_15",
      "rotation": [
        0.0,
        0.0,
        0.7071067811865475,
        0.7071067811865476
      ],
      "scale": [
        1.0,
        1.0,
        1.0
      ],
      "translation": [
        1.2968800067901611,
        -0.0625,
        0.03125
      ]
    },
    {
      "mesh": 16,
      "name": "_gltfNode_32"
    },
    {
      "children": [
        32
      ],
      "name": "cube_16",
      "rotation": [
        0.0,
        0.0,
        0.0,
        1.0
      ],
      "scale": [
        1.0,
        1.0,
        1.0
      ],
      "translation": [
        1.2969199419021606,
        -0.13221600651741028,
        -0.3173780143260956
      ]
    },
    {
      "mesh": 17,
      "name": "_gltfNode_34"
    },
    {
      "children": [
        34
      ],
      "name": "cube_17",
      "rotation": [
        0.0,
        0.0,
        0.7071067811865475,
        0.7071067811865476
      ],
      "scale": [
        1.0,
        1.0,
        1.0
      ],
      "translation": [
        1.2968800067901611,
        -0.0625,
        -0.7437499761581421
      ]
    },
    {
      "mesh": 18,
      "name": "_gltfNode_36"
    },
    {
      "children": [
        36
      ],
      "name": "cube_18",
      "rotation": [
        0.0,
        0.0,
        0.7071067811865475,
        0.7071067811865476
      ],
      "scale": [
        1.0,
        1.0,
        1.0
      ],
      "translation": [
        1.2968800067901611,
        -0.0625,
        0.581250011920929
      ]
    },
    {
      "mesh": 19,
      "name": "_gltfNode_38"
    },
    {
      "children": [
        38
      ],
      "name": "cube_19",
      "rotation": [
        0.0,
        0.0,
        0.0,
        1.0
      ],
      "scale": [
        1.0,
        1.0,
        1.0
      ],
      "translation": [
        1.2969199419021606,
        -0.13221600651741028,
        0.15487800538539886
      ]
    },
    {
      "children": [
        1,
        3,
        5,
        7,
        9,
        11,
        13,
        15,
        17,
        19,
        21,
        23,
        25,
        27,
        29,
        31,
        33,
        35,
        37,
        39
      ],
      "name": "bow_20",
      "rotation": [
        0.0,
        0.0,
        0.0,
        1.0
      ],
      "scale": [
        1.0,
        1.0,
        1.0
      ],
      "translation": [
        -1.2999999523162842,
        0.1875,
        -0.125
      ]
    },
    {
      "children": [
        40
      ],
      "name": "_21"
    },
    {
      "children": [
        41
      ],
      "name": "Crossbow",
      "rotation": [
        -1.9753748434203095e-22,
        0.0,
        0.0,
        1.0
      ],
      "scale": [
        1.0,
        1.0,
        1.0
      ],
      "translation": [
        0.0,
        0.0,
        0.0
      ]
    }
  ],
  "scene": 0,
  "scenes": [
    {
      "nodes": [
        42
      ]
    }
  ]
}
