{
  "accessors": [
    {
      "bufferView": 0,
      "componentType": 5126,
      "count": 24,
      "max": [
        0.17812524735927582,
        0.17812524735927582,
        0.09999947994947433
      ],
      "min": [
        -0.17812499403953552,
        -0.17812499403953552,
        -0.3187499940395355
      ],
      "type": "VEC3"
    },
    {
      "bufferView": 1,
      "componentType": 5125,
      "count": 34,
      "type": "SCALAR"
    },
    {
      "bufferView": 2,
      "componentType": 5126,
      "count": 24,
      "type": "VEC3"
    },
    {
      "bufferView": 3,
      "componentType": 5126,
      "count": 24,
      "type": "VEC4"
    },
    {
      "bufferView": 4,
      "componentType": 5126,
      "count": 24,
      "type": "VEC2"
    },
    {
      "bufferView": 5,
      "componentType": 5126,
      "count": 24,
      "max": [
        0.22500036656856537,
        0.24062536656856537,
        0.10000036656856537
      ],
      "min": [
        -0.22499999403953552,
        -0.20937499403953552,
        -0.3499999940395355
      ],
      "type": "VEC3"
    },
    {
      "bufferView": 6,
      "componentType": 5125,
      "count": 34,
      "type": "SCALAR"
    },
    {
      "bufferView": 7,
      "componentType": 5126,
      "count": 24,
      "type": "VEC3"
    },
    {
      "bufferView": 8,
      "componentType": 5126,
      "count": 24,
      "type": "VEC4"
    },
    {
      "bufferView": 9,
      "componentType": 5126,
      "count": 24,
      "type": "VEC2"
    },
    {
      "bufferView": 10,
      "componentType": 5126,
      "count": 24,
      "max": [
        0.1562500149011612,
        0.0781245008111,
        0.0937500074505806
      ],
      "min": [
        -0.15625,
        -0.171875,
        -0.21875
      ],
      "type": "VEC3"
    },
    {
      "bufferView": 11,
      "componentType": 5125,
      "count": 34,
      "type": "SCALAR"
    },
    {
      "bufferView": 12,
      "componentType": 5126,
      "count": 24,
      "type": "VEC3"
    },
    {
      "bufferView": 13,
      "componentType": 5126,
      "count": 24,
      "type": "VEC4"
    },
    {
      "bufferView": 14,
      "componentType": 5126,
      "count": 24,
      "type": "VEC2"
    },
    {
      "bufferView": 15,
      "componentType": 5126,
      "count": 24,
      "max": [
        0.18750052154064178,
        0.21875052154064178,
        0.031250011175870895
      ],
      "min": [
        -0.1875,
        -0.15625,
        -0.28125
      ],
      "type": "VEC3"
    },
    {
      "bufferView": 16,
      "componentType": 5125,
      "count": 34,
      "type": "SCALAR"
    },
    {
      "bufferView": 17,
      "componentType": 5126,
      "count": 24,
      "type": "VEC3"
    },
    {
      "bufferView": 18,
      "componentType": 5126,
      "count": 24,
      "type": "VEC4"
    },
    {
      "bufferView": 19,
      "componentType": 5126,
      "count": 24,
      "type": "VEC2"
    },
    {
      "bufferView": 20,
      "componentType": 5126,
      "count": 24,
      "max": [
        0.09375026077032089,
        0.03125026077032089,
        -0.2656247317790985
      ],
      "min": [
        -0.09375,
        -0.15625,
        -0.453125
      ],
      "type": "VEC3"
    },
    {
      "bufferView": 21,
      "componentType": 5125,
      "count": 34,
      "type": "SCALAR"
    },
    {
      "bufferView": 22,
      "componentType": 5126,
      "count": 24,
      "type": "VEC3"
    },
    {
      "bufferView": 23,
      "componentType": 5126,
      "count": 24,
      "type": "VEC4"
    },
    {
      "bufferView": 24,
      "componentType": 5126,
      "count": 24,
      "type": "VEC2"
    },
    {
      "bufferView": 25,
      "componentType": 5126,
      "count": 24,
      "max": [
        -2.049999966402538e-05,
        0.14060449600219727,
        0.12499015778303146
      ],
      "min": [
        -0.25001999735832214,
        -0.10939499735832214,
        -9.842519830272067e-06
      ],
      "type": "VEC3"
    },
    {
      "bufferView": 26,
      "componentType": 5125,
      "count": 34,
      "type": "SCALAR"
    },
    {
      "bufferView": 27,
      "componentType": 5126,
      "count": 24,
      "type": "VEC3"
    },
    {
      "bufferView": 28,
      "componentType": 5126,
      "count": 24,
      "type": "VEC4"
    },
    {
      "bufferView": 29,
      "componentType": 5126,
      "count": 24,
      "type": "VEC2"
    },
    {
      "bufferView": 30,
      "componentType": 5126,
      "count": 24,
      "max": [
        0.24997979402542114,
        0.14060449600219727,
        0.12499015778303146
      ],
      "min": [
        -1.970029916265048e-05,
        -0.10939499735832214,
        -9.842519830272067e-06
      ],
      "type": "VEC3"
    },
    {
      "bufferView": 31,
      "componentType": 5125,
      "count": 34,
      "type": "SCALAR"
    },
    {
      "bufferView": 32,
      "componentType": 5126,
      "count": 24,
      "type": "VEC3"
    },
    {
      "bufferView": 33,
      "componentType": 5126,
      "count": 24,
      "type": "VEC4"
    },
    {
      "bufferView": 34,
      "componentType": 5126,
      "count": 24,
      "type": "VEC2"
    },
    {
      "bufferView": 35,
      "componentType": 5126,
      "count": 24,
      "max": [
        0.1250002533197403,
        0.2343744933605194,
        0.09375
      ],
      "min": [
        -0.0625,
        -0.015625,
        0.03125
      ],
      "type": "VEC3"
    },
    {
      "bufferView": 36,
      "componentType": 5125,
      "count": 34,
      "type": "SCALAR"
    },
    {
      "bufferView": 37,
      "componentType": 5126,
      "count": 24,
      "type": "VEC3"
    },
    {
      "bufferView": 38,
      "componentType": 5126,
      "count": 24,
      "type": "VEC4"
    },
    {
      "bufferView": 39,
      "componentType": 5126,
      "count": 24,
      "type": "VEC2"
    },
    {
      "bufferView": 40,
      "componentType": 5126,
      "count": 24,
      "max": [
        0.06250026077032089,
        0.2343744933605194,
        0.09375
      ],
      "min": [
        -0.125,
        -0.015625,
        0.03125
      ],
      "type": "VEC3"
    },
    {
      "bufferView": 41,
      "componentType": 5125,
      "count": 34,
      "type": "SCALAR"
    },
    {
      "bufferView": 42,
      "componentType": 5126,
      "count": 24,
      "type": "VEC3"
    },
    {
      "bufferView": 43,
      "componentType": 5126,
      "count": 24,
      "type": "VEC4"
    },
    {
      "bufferView": 44,
      "componentType": 5126,
      "count": 24,
      "type": "VEC2"
    },
    {
      "bufferView": 45,
      "componentType": 5126,
      "count": 24,
      "max": [
        0.07811207324266434,
        -0.04689661040902138,
        0.015617603436112404
      ],
      "min": [
        -0.07813730090856552,
        -0.3281469941139221,
        -0.07813239842653275
      ],
      "type": "VEC3"
    },
    {
      "bufferView": 46,
      "componentType": 5125,
      "count": 34,
      "type": "SCALAR"
    },
    {
      "bufferView": 47,
      "componentType": 5126,
      "count": 24,
      "type": "VEC3"
    },
    {
      "bufferView": 48,
      "componentType": 5126,
      "count": 24,
      "type": "VEC4"
    },
    {
      "bufferView": 49,
      "componentType": 5126,
      "count": 24,
      "type": "VEC2"
    },
    {
      "bufferView": 50,
      "componentType": 5126,
      "count": 24,
      "max": [
        0.07811207324266434,
        0.07808288931846619,
        0.07811207324266434
      ],
      "min": [
        -0.07813730090856552,
        -0.45316699147224426,
        -0.07813730090856552
      ],
      "type": "VEC3"
    },
    {
      "bufferView": 51,
      "componentType": 5125,
      "count": 34,
      "type": "SCALAR"
    },
    {
      "bufferView": 52,
      "componentType": 5126,
      "count": 24,
      "type": "VEC3"
    },
    {
      "bufferView": 53,
      "componentType": 5126,
      "count": 24,
      "type": "VEC4"
    },
    {
      "bufferView": 54,
      "componentType": 5126,
      "count": 24,
      "type": "VEC2"
    },
    {
      "bufferView": 55,
      "componentType": 5126,
      "count": 24,
      "max": [
        0.07811207324266434,
        0.07808288931846619,
        0.07811207324266434
      ],
      "min": [
        -0.07813730090856552,
        -0.45316699147224426,
        -0.07813730090856552
      ],
      "type": "VEC3"
    },
    {
      "bufferView": 56,
      "componentType": 5125,
      "count": 34,
      "type": "SCALAR"
    },
    {
      "bufferView": 57,
      "componentType": 5126,
      "count": 24,
      "type": "VEC3"
    },
    {
      "bufferView": 58,
      "componentType": 5126,
      "count": 24,
      "type": "VEC4"
    },
    {
      "bufferView": 59,
      "componentType": 5126,
      "count": 24,
      "type": "VEC2"
    },
    {
      "bufferView": 60,
      "componentType": 5126,
      "count": 24,
      "max": [
        0.07811207324266434,
        -0.04689661040902138,
        0.015617603436112404
      ],
      "min": [
        -0.07813730090856552,
        -0.3281469941139221,
        -0.07813239842653275
      ],
      "type": "VEC3"
    },
    {
      "bufferView": 61,
      "componentType": 5125,
      "count": 34,
      "type": "SCALAR"
    },
    {
      "bufferView": 62,
      "componentType": 5126,
      "count": 24,
      "type": "VEC3"
    },
    {
      "bufferView": 63,
      "componentType": 5126,
      "count": 24,
      "type": "VEC4"
    },
    {
      "bufferView": 64,
      "componentType": 5126,
      "count": 24,
      "type": "VEC2"
    },
    {
      "bufferView": 65,
      "componentType": 5126,
      "count": 24,
      "max": [
        0.07811207324266434,
        0.14059314131736755,
        0.14060339331626892
      ],
      "min": [
        -0.07813730090856552,
        -0.2656570076942444,
        -0.14064699411392212
      ],
      "type": "VEC3"
    },
    {
      "bufferView": 66,
      "componentType": 5125,
      "count": 34,
      "type": "SCALAR"
    },
    {
      "bufferView": 67,
      "componentType": 5126,
      "count": 24,
      "type": "VEC3"
    },
    {
      "bufferView": 68,
      "componentType": 5126,
      "count": 24,
      "type": "VEC4"
    },
    {
      "bufferView": 69,
      "componentType": 5126,
      "count": 24,
      "type": "VEC2"
    },
    {
      "bufferView": 70,
      "componentType": 5126,
      "count": 24,
      "max": [
        0.07186373323202133,
        -0.11566095799207687,
        0.18123872578144073
      ],
      "min": [
        -0.07188630104064941,
        -0.5719109773635864,
        0.037488698959350586
      ],
      "type": "VEC3"
    },
    {
      "bufferView": 71,
      "componentType": 5125,
      "count": 34,
      "type": "SCALAR"
    },
    {
      "bufferView": 72,
      "componentType": 5126,
      "count": 24,
      "type": "VEC3"
    },
    {
      "bufferView": 73,
      "componentType": 5126,
      "count": 24,
      "type": "VEC4"
    },
    {
      "bufferView": 74,
      "componentType": 5126,
      "count": 24,
      "type": "VEC2"
    },
    {
      "bufferView": 75,
      "componentType": 5126,
      "count": 24,
      "max": [
        0.07811207324266434,
        0.14059314131736755,
        0.14060339331626892
      ],
      "min": [
        -0.07813730090856552,
        -0.2656570076942444,
        -0.14064699411392212
      ],
      "type": "VEC3"
    },
    {
      "bufferView": 76,
      "componentType": 5125,
      "count": 34,
      "type": "SCALAR"
    },
    {
      "bufferView": 77,
      "componentType": 5126,
      "count": 24,
      "type": "VEC3"
    },
    {
      "bufferView": 78,
      "componentType": 5126,
      "count": 24,
      "type": "VEC4"
    },
    {
      "bufferView": 79,
      "componentType": 5126,
      "count": 24,
      "type": "VEC2"
    },
    {
      "bufferView": 80,
      "componentType": 5126,
      "count": 24,
      "max": [
        0.07186373323202133,
        -0.11566095799207687,
        0.18123872578144073
      ],
      "min": [
        -0.07188630104064941,
        -0.5719109773635864,
        0.037488698959350586
      ],
      "type": "VEC3"
    },
    {
      "bufferView": 81,
      "componentType": 5125,
      "count": 34,
      "type": "SCALAR"
    },
    {
      "bufferView": 82,
      "componentType": 5126,
      "count": 24,
      "type": "VEC3"
    },
    {
      "bufferView": 83,
      "componentType": 5126,
      "count": 24,
      "type": "VEC4"
    },
    {
      "bufferView": 84,
      "componentType": 5126,
      "count": 24,
      "type": "VEC2"
    },
    {
      "bufferView": 85,
      "componentType": 5126,
      "count": 24,
      "max": [
        0.07812436670064926,
        0.0468750037252903,
        0.21874988079071045
      ],
      "min": [
        -0.078125,
        -0.046875,
        0.0
      ],
      "type": "VEC3"
    },
    {
      "bufferView": 86,
      "componentType": 5125,
      "count": 34,
      "type": "SCALAR"
    },
    {
      "bufferView": 87,
      "componentType": 5126,
      "count": 24,
      "type": "VEC3"
    },
    {
      "bufferView": 88,
      "componentType": 5126,
      "count": 24,
      "type": "VEC4"
    },
    {
      "bufferView": 89,
      "componentType": 5126,
      "count": 24,
      "type": "VEC2"
    },
    {
      "bufferView": 90,
      "componentType": 5126,
      "count": 24,
      "max": [
        0.09999959915876389,
        0.037499599158763885,
        0.31875061988830566
      ],
      "min": [
        -0.10000000149011612,
        -0.16249999403953552,
        -0.0062500000931322575
      ],
      "type": "VEC3"
    },
    {
      "bufferView": 91,
      "componentType": 5125,
      "count": 34,
      "type": "SCALAR"
    },
    {
      "bufferView": 92,
      "componentType": 5126,
      "count": 24,
      "type": "VEC3"
    },
    {
      "bufferView": 93,
      "componentType": 5126,
      "count": 24,
      "type": "VEC4"
    },
    {
      "bufferView": 94,
      "componentType": 5126,
      "count": 24,
      "type": "VEC2"
    },
    {
      "bufferView": 95,
      "componentType": 5126,
      "count": 24,
      "max": [
        0.1218755915760994,
        0.04374995455145836,
        0.4968755841255188
      ],
      "min": [
        -0.05937499925494194,
        -0.07500000298023224,
        0.31562501192092896
      ],
      "type": "VEC3"
    },
    {
      "bufferView": 96,
      "componentType": 5125,
      "count": 34,
      "type": "SCALAR"
    },
    {
      "bufferView": 97,
      "componentType": 5126,
      "count": 24,
      "type": "VEC3"
    },
    {
      "bufferView": 98,
      "componentType": 5126,
      "count": 24,
      "type": "VEC4"
    },
    {
      "bufferView": 99,
      "componentType": 5126,
      "count": 24,
      "type": "VEC2"
    },
    {
      "bufferView": 100,
      "componentType": 5126,
      "count": 3,
      "max": [
        4.0
      ],
      "min": [
        0.0
      ],
      "type": "SCALAR"
    },
    {
      "bufferView": 101,
      "componentType": 5126,
      "count": 3,
      "type": "VEC4"
    },
    {
      "bufferView": 102,
      "componentType": 5126,
      "count": 4,
      "max": [
        4.0
      ],
      "min": [
        0.0
      ],
      "type": "SCALAR"
    },
    {
      "bufferView": 103,
      "componentType": 5126,
      "count": 4,
      "type": "VEC4"
    },
    {
      "bufferView": 104,
      "componentType": 5126,
      "count": 4,
      "max": [
        4.0
      ],
      "min": [
        0.0
      ],
      "type": "SCALAR"
    },
    {
      "bufferView": 105,
      "componentType": 5126,
      "count": 4,
      "type": "VEC4"
    },
    {
      "bufferView": 106,
      "componentType": 5126,
      "count": 3,
      "max": [
        4.0
      ],
      "min": [
        0.0
      ],
      "type": "SCALAR"
    },
    {
      "bufferView": 107,
      "componentType": 5126,
      "count": 3,
      "type": "VEC4"
    },
    {
      "bufferView": 108,
      "componentType": 5126,
      "count": 3,
      "max": [
        4.0
      ],
      "min": [
        0.0
      ],
      "type": "SCALAR"
    },
    {
      "bufferView": 109,
      "componentType": 5126,
      "count": 3,
      "type": "VEC3"
    },
    {
      "bufferView": 110,
      "componentType": 5126,
      "count": 3,
      "max": [
        4.0
      ],
      "min": [
        0.0
      ],
      "type": "SCALAR"
    },
    {
      "bufferView": 111,
      "componentType": 5126,
      "count": 3,
      "type": "VEC4"
    },
    {
      "bufferView": 112,
      "componentType": 5126,
      "count": 3,
      "max": [
        4.0
      ],
      "min": [
        0.0
      ],
      "type": "SCALAR"
    },
    {
      "bufferView": 113,
      "componentType": 5126,
      "count": 3,
      "type": "VEC3"
    },
    {
      "bufferView": 114,
      "componentType": 5126,
      "count": 3,
      "max": [
        4.0
      ],
      "min": [
        0.0
      ],
      "type": "SCALAR"
    },
    {
      "bufferView": 115,
      "componentType": 5126,
      "count": 3,
      "type": "VEC4"
    },
    {
      "bufferView": 116,
      "componentType": 5126,
      "count": 3,
      "max": [
        4.0
      ],
      "min": [
        0.0
      ],
      "type": "SCALAR"
    },
    {
      "bufferView": 117,
      "componentType": 5126,
      "count": 3,
      "type": "VEC4"
    },
    {
      "bufferView": 118,
      "componentType": 5126,
      "count": 9,
      "max": [
        4.0
      ],
      "min": [
        0.0
      ],
      "type": "SCALAR"
    },
    {
      "bufferView": 119,
      "componentType": 5126,
      "count": 9,
      "type": "VEC4"
    },
    {
      "bufferView": 120,
      "componentType": 5126,
      "count": 17,
      "max": [
        4.0
      ],
      "min": [
        0.0
      ],
      "type": "SCALAR"
    },
    {
      "bufferView": 121,
      "componentType": 5126,
      "count": 17,
      "type": "VEC4"
    },
    {
      "bufferView": 122,
      "componentType": 5126,
      "count": 9,
      "max": [
        2.0
      ],
      "min": [
        0.0
      ],
      "type": "SCALAR"
    },
    {
      "bufferView": 123,
      "componentType": 5126,
      "count": 9,
      "type": "VEC4"
    }
  ],
  "animations": [
    {
      "channels": [
        {
          "sampler": 0,
          "target": {
            "node": 52,
            "path": "rotation"
          }
        },
        {
          "sampler": 1,
          "target": {
            "node": 16,
            "path": "rotation"
          }
        },
        {
          "sampler": 2,
          "target": {
            "node": 19,
            "path": "rotation"
          }
        },
        {
          "sampler": 3,
          "target": {
            "node": 26,
            "path": "rotation"
          }
        },
        {
          "sampler": 4,
          "target": {
            "node": 26,
            "path": "translation"
          }
        },
        {
          "sampler": 5,
          "target": {
            "node": 31,
            "path": "rotation"
          }
        },
        {
          "sampler": 6,
          "target": {
            "node": 31,
            "path": "translation"
          }
        },
        {
          "sampler": 7,
          "target": {
            "node": 37,
            "path": "rotation"
          }
        },
        {
          "sampler": 8,
          "target": {
            "node": 42,
            "path": "rotation"
          }
        },
        {
          "sampler": 9,
          "target": {
            "node": 51,
            "path": "rotation"
          }
        },
        {
          "sampler": 10,
          "target": {
            "node": 50,
            "path": "rotation"
          }
        },
        {
          "sampler": 11,
          "target": {
            "node": 49,
            "path": "rotation"
          }
        }
      ],
      "name": "idle",
      "samplers": [
        {
          "input": 100,
          "interpolation": "LINEAR",
          "output": 101
        },
        {
          "input": 102,
          "interpolation": "LINEAR",
          "output": 103
        },
        {
          "input": 104,
          "interpolation": "LINEAR",
          "output": 105
        },
        {
          "input": 106,
          "interpolation": "LINEAR",
          "output": 107
        },
        {
          "input": 108,
          "interpolation": "LINEAR",
          "output": 109
        },
        {
          "input": 110,
          "interpolation": "LINEAR",
          "output": 111
        },
        {
          "input": 112,
          "interpolation": "LINEAR",
          "output": 113
        },
        {
          "input": 114,
          "interpolation": "LINEAR",
          "output": 115
        },
        {
          "input": 116,
          "interpolation": "LINEAR",
          "output": 117
        },
        {
          "input": 118,
          "interpolation": "LINEAR",
          "output": 119
        },
        {
          "input": 120,
          "interpolation": "LINEAR",
          "output": 121
        },
        {
          "input": 122,
          "interpolation": "LINEAR",
          "output": 123
        }
      ]
    }
  ],
  "asset": {
    "version": "2.0"
  },
  "bufferViews": [
    {
      "buffer": 0,
      "byteLength": 288,
      "target": 34962
    },
    {
      "buffer": 1,
      "byteLength": 136,
      "target": 34963
    },
    {
      "buffer": 2,
      "byteLength": 288,
      "target": 34962
    },
    {
      "buffer": 3,
      "byteLength": 384,
      "target": 34962
    },
    {
      "buffer": 4,
      "byteLength": 192,
      "target": 34962
    },
    {
      "buffer": 5,
      "byteLength": 288,
      "target": 34962
    },
    {
      "buffer": 6,
      "byteLength": 136,
      "target": 34963
    },
    {
      "buffer": 7,
      "byteLength": 288,
      "target": 34962
    },
    {
      "buffer": 8,
      "byteLength": 384,
      "target": 34962
    },
    {
      "buffer": 9,
      "byteLength": 192,
      "target": 34962
    },
    {
      "buffer": 10,
      "byteLength": 288,
      "target": 34962
    },
    {
      "buffer": 11,
      "byteLength": 136,
      "target": 34963
    },
    {
      "buffer": 12,
      "byteLength": 288,
      "target": 34962
    },
    {
      "buffer": 13,
      "byteLength": 384,
      "target": 34962
    },
    {
      "buffer": 14,
      "byteLength": 192,
      "target": 34962
    },
    {
      "buffer": 15,
      "byteLength": 288,
      "target": 34962
    },
    {
      "buffer": 16,
      "byteLength": 136,
      "target": 34963
    },
    {
      "buffer": 17,
      "byteLength": 288,
      "target": 34962
    },
    {
      "buffer": 18,
      "byteLength": 384,
      "target": 34962
    },
    {
      "buffer": 19,
      "byteLength": 192,
      "target": 34962
    },
    {
      "buffer": 20,
      "byteLength": 288,
      "target": 34962
    },
    {
      "buffer": 21,
      "byteLength": 136,
      "target": 34963
    },
    {
      "buffer": 22,
      "byteLength": 288,
      "target": 34962
    },
    {
      "buffer": 23,
      "byteLength": 384,
      "target": 34962
    },
    {
      "buffer": 24,
      "byteLength": 192,
      "target": 34962
    },
    {
      "buffer": 25,
      "byteLength": 288,
      "target": 34962
    },
    {
      "buffer": 26,
      "byteLength": 136,
      "target": 34963
    },
    {
      "buffer": 27,
      "byteLength": 288,
      "target": 34962
    },
    {
      "buffer": 28,
      "byteLength": 384,
      "target": 34962
    },
    {
      "buffer": 29,
      "byteLength": 192,
      "target": 34962
    },
    {
      "buffer": 30,
      "byteLength": 288,
      "target": 34962
    },
    {
      "buffer": 31,
      "byteLength": 136,
      "target": 34963
    },
    {
      "buffer": 32,
      "byteLength": 288,
      "target": 34962
    },
    {
      "buffer": 33,
      "byteLength": 384,
      "target": 34962
    },
    {
      "buffer": 34,
      "byteLength": 192,
      "target": 34962
    },
    {
      "buffer": 35,
      "byteLength": 288,
      "target": 34962
    },
    {
      "buffer": 36,
      "byteLength": 136,
      "target": 34963
    },
    {
      "buffer": 37,
      "byteLength": 288,
      "target": 34962
    },
    {
      "buffer": 38,
      "byteLength": 384,
      "target": 34962
    },
    {
      "buffer": 39,
      "byteLength": 192,
      "target": 34962
    },
    {
      "buffer": 40,
      "byteLength": 288,
      "target": 34962
    },
    {
      "buffer": 41,
      "byteLength": 136,
      "target": 34963
    },
    {
      "buffer": 42,
      "byteLength": 288,
      "target": 34962
    },
    {
      "buffer": 43,
      "byteLength": 384,
      "target": 34962
    },
    {
      "buffer": 44,
      "byteLength": 192,
      "target": 34962
    },
    {
      "buffer": 45,
      "byteLength": 288,
      "target": 34962
    },
    {
      "buffer": 46,
      "byteLength": 136,
      "target": 34963
    },
    {
      "buffer": 47,
      "byteLength": 288,
      "target": 34962
    },
    {
      "buffer": 48,
      "byteLength": 384,
      "target": 34962
    },
    {
      "buffer": 49,
      "byteLength": 192,
      "target": 34962
    },
    {
      "buffer": 50,
      "byteLength": 288,
      "target": 34962
    },
    {
      "buffer": 51,
      "byteLength": 136,
      "target": 34963
    },
    {
      "buffer": 52,
      "byteLength": 288,
      "target": 34962
    },
    {
      "buffer": 53,
      "byteLength": 384,
      "target": 34962
    },
    {
      "buffer": 54,
      "byteLength": 192,
      "target": 34962
    },
    {
      "buffer": 55,
      "byteLength": 288,
      "target": 34962
    },
    {
      "buffer": 56,
      "byteLength": 136,
      "target": 34963
    },
    {
      "buffer": 57,
      "byteLength": 288,
      "target": 34962
    },
    {
      "buffer": 58,
      "byteLength": 384,
      "target": 34962
    },
    {
      "buffer": 59,
      "byteLength": 192,
      "target": 34962
    },
    {
      "buffer": 60,
      "byteLength": 288,
      "target": 34962
    },
    {
      "buffer": 61,
      "byteLength": 136,
      "target": 34963
    },
    {
      "buffer": 62,
      "byteLength": 288,
      "target": 34962
    },
    {
      "buffer": 63,
      "byteLength": 384,
      "target": 34962
    },
    {
      "buffer": 64,
      "byteLength": 192,
      "target": 34962
    },
    {
      "buffer": 65,
      "byteLength": 288,
      "target": 34962
    },
    {
      "buffer": 66,
      "byteLength": 136,
      "target": 34963
    },
    {
      "buffer": 67,
      "byteLength": 288,
      "target": 34962
    },
    {
      "buffer": 68,
      "byteLength": 384,
      "target": 34962
    },
    {
      "buffer": 69,
      "byteLength": 192,
      "target": 34962
    },
    {
      "buffer": 70,
      "byteLength": 288,
      "target": 34962
    },
    {
      "buffer": 71,
      "byteLength": 136,
      "target": 34963
    },
    {
      "buffer": 72,
      "byteLength": 288,
      "target": 34962
    },
    {
      "buffer": 73,
      "byteLength": 384,
      "target": 34962
    },
    {
      "buffer": 74,
      "byteLength": 192,
      "target": 34962
    },
    {
      "buffer": 75,
      "byteLength": 288,
      "target": 34962
    },
    {
      "buffer": 76,
      "byteLength": 136,
      "target": 34963
    },
    {
      "buffer": 77,
      "byteLength": 288,
      "target": 34962
    },
    {
      "buffer": 78,
      "byteLength": 384,
      "target": 34962
    },
    {
      "buffer": 79,
      "byteLength": 192,
      "target": 34962
    },
    {
      "buffer": 80,
      "byteLength": 288,
      "target": 34962
    },
    {
      "buffer": 81,
      "byteLength": 136,
      "target": 34963
    },
    {
      "buffer": 82,
      "byteLength": 288,
      "target": 34962
    },
    {
      "buffer": 83,
      "byteLength": 384,
      "target": 34962
    },
    {
      "buffer": 84,
      "byteLength": 192,
      "target": 34962
    },
    {
      "buffer": 85,
      "byteLength": 288,
      "target": 34962
    },
    {
      "buffer": 86,
      "byteLength": 136,
      "target": 34963
    },
    {
      "buffer": 87,
      "byteLength": 288,
      "target": 34962
    },
    {
      "buffer": 88,
      "byteLength": 384,
      "target": 34962
    },
    {
      "buffer": 89,
      "byteLength": 192,
      "target": 34962
    },
    {
      "buffer": 90,
      "byteLength": 288,
      "target": 34962
    },
    {
      "buffer": 91,
      "byteLength": 136,
      "target": 34963
    },
    {
      "buffer": 92,
      "byteLength": 288,
      "target": 34962
    },
    {
      "buffer": 93,
      "byteLength": 384,
      "target": 34962
    },
    {
      "buffer": 94,
      "byteLength": 192,
      "target": 34962
    },
    {
      "buffer": 95,
      "byteLength": 288,
      "target": 34962
    },
    {
      "buffer": 96,
      "byteLength": 136,
      "target": 34963
    },
    {
      "buffer": 97,
      "byteLength": 288,
      "target": 34962
    },
    {
      "buffer": 98,
      "byteLength": 384,
      "target": 34962
    },
    {
      "buffer": 99,
      "byteLength": 192,
      "target": 34962
    },
    {
      "buffer": 100,
      "byteLength": 12
    },
    {
      "buffer": 101,
      "byteLength": 48
    },
    {
      "buffer": 102,
      "byteLength": 16
    },
    {
      "buffer": 103,
      "byteLength": 64
    },
    {
      "buffer": 104,
      "byteLength": 16
    },
    {
      "buffer": 105,
      "byteLength": 64
    },
    {
      "buffer": 106,
      "byteLength": 12
    },
    {
      "buffer": 107,
      "byteLength": 48
    },
    {
      "buffer": 108,
      "byteLength": 12
    },
    {
      "buffer": 109,
      "byteLength": 36
    },
    {
      "buffer": 110,
      "byteLength": 12
    },
    {
      "buffer": 111,
      "byteLength": 48
    },
    {
      "buffer": 112,
      "byteLength": 12
    },
    {
      "buffer": 113,
      "byteLength": 36
    },
    {
      "buffer": 114,
      "byteLength": 12
    },
    {
      "buffer": 115,
      "byteLength": 48
    },
    {
      "buffer": 116,
      "byteLength": 12
    },
    {
      "buffer": 117,
      "byteLength": 48
    },
    {
      "buffer": 118,
      "byteLength": 36
    },
    {
      "buffer": 119,
      "byteLength": 144
    },
    {
      "buffer": 120,
      "byteLength": 68
    },
    {
      "buffer": 121,
      "byteLength": 272
    },
    {
      "buffer": 122,
      "byteLength": 36
    },
    {
      "buffer": 123,
      "byteLength": 144
    }
  ],
  "buffers": [
    {
      "byteLength": 288,
      "uri": "data:application/octet-stream;base64,"
    },
    {
      "byteLength": 136,
      "uri": "data:application/octet-stream;base64,"
    },
    {
      "byteLength": 288,
      "uri": "data:application/octet-stream;base64,"
    },
    {
      "byteLength": 384,
      "uri": "data:application/octet-stream;base64,"
    },
    {
      "byteLength": 192,
      "uri": "data:application/octet-stream;base64,"
    },
    {
      "byteLength": 288,
      "uri": "data:application/octet-stream;base64,"
    },
    {
      "byteLength": 136,
      "uri": "data:application/octet-stream;base64,"
    },
    {
      "byteLength": 288,
      "uri": "data:application/octet-stream;base64,"
    },
    {
      "byteLength": 384,
      "uri": "data:application/octet-stream;base64,"
    },
    {
      "byteLength": 192,
      "uri": "data:application/octet-stream;base64,"
    },
    {
      "byteLength": 288,
      "uri": "data:application/octet-stream;base64,"
    },
    {
      "byteLength": 136,
      "uri": "data:application/octet-stream;base64,"
    },
    {
      "byteLength": 288,
      "uri": "data:application/octet-stream;base64,"
    },
    {
      "byteLength": 384,
      "uri": "data:application/octet-stream;base64,"
    },
    {
      "byteLength": 192,
      "uri": "data:application/octet-stream;base64,"
    },
    {
      "byteLength": 288,
      "uri": "data:application/octet-stream;base64,"
    },
    {
      "byteLength": 136,
      "uri": "data:application/octet-stream;base64,"
    },
    {
      "byteLength": 288,
      "uri": "data:application/octet-stream;base64,"
    },
    {
      "byteLength": 384,
      "uri": "data:application/octet-stream;base64,"
    },
    {
      "byteLength": 192,
      "uri": "data:application/octet-stream;base64,"
    },
    {
      "byteLength": 288,
      "uri": "data:application/octet-stream;base64,"
    },
    {
      "byteLength": 136,
      "uri": "data:application/octet-stream;base64,"
    },
    {
      "byteLength": 288,
      "uri": "data:application/octet-stream;base64,"
    },
    {
      "byteLength": 384,
      "uri": "data:application/octet-stream;base64,"
    },
    {
      "byteLength": 192,
      "uri": "data:application/octet-stream;base64,"
    },
    {
      "byteLength": 288,
      "uri": "data:application/octet-stream;base64,"
    },
    {
      "byteLength": 136,
      "uri": "data:application/octet-stream;base64,"
    },
    {
      "byteLength": 288,
      "uri": "data:application/octet-stream;base64,"
    },
    {
      "byteLength": 384,
      "uri": "data:application/octet-stream;base64,"
    },
    {
      "byteLength": 192,
      "uri": "data:application/octet-stream;base64,"
    },
    {
      "byteLength": 288,
      "uri": "data:application/octet-stream;base64,"
    },
    {
      "byteLength": 136,
      "uri": "data:application/octet-stream;base64,"
    },
    {
      "byteLength": 288,
      "uri": "data:application/octet-stream;base64,"
    },
    {
      "byteLength": 384,
      "uri": "data:application/octet-stream;base64,"
    },
    {
      "byteLength": 192,
      "uri": "data:application/octet-stream;base64,"
    },
    {
      "byteLength": 288,
      "uri": "data:application/octet-stream;base64,"
    },
    {
      "byteLength": 136,
      "uri": "data:application/octet-stream;base64,"
    },
    {
      "byteLength": 288,
      "uri": "data:application/octet-stream;base64,"
    },
    {
      "byteLength": 384,
      "uri": "data:application/octet-stream;base64,"
    },
    {
      "byteLength": 192,
      "uri": "data:application/octet-stream;base64,"
    },
    {
      "byteLength": 288,
      "uri": "data:application/octet-stream;base64,"
    },
    {
      "byteLength": 136,
      "uri": "data:application/octet-stream;base64,"
    },
    {
      "byteLength": 288,
      "uri": "data:application/octet-stream;base64,"
    },
    {
      "byteLength": 384,
      "uri": "data:application/octet-stream;base64,"
    },
    {
      "byteLength": 192,
      "uri": "data:application/octet-stream;base64,"
    },
    {
      "byteLength": 288,
      "uri": "data:application/octet-stream;base64,"
    },
    {
      "byteLength": 136,
      "uri": "data:application/octet-stream;base64,"
    },
    {
      "byteLength": 288,
      "uri": "data:application/octet-stream;base64,"
    },
    {
      "byteLength": 384,
      "uri": "data:application/octet-stream;base64,"
    },
    {
      "byteLength": 192,
      "uri": "data:application/octet-stream;base64,"
    },
    {
      "byteLength": 288,
      "uri": "data:application/octet-stream;base64,"
    },
    {
      "byteLength": 136,
      "uri": "data:application/octet-stream;base64,"
    },
    {
      "byteLength": 288,
      "uri": "data:application/octet-stream;base64,"
    },
    {
      "byteLength": 384,
      "uri": "data:application/octet-stream;base64,"
    },
    {
      "byteLength": 192,
      "uri": "data:application/octet-stream;base64,"
    },
    {
      "byteLength": 288,
      "uri": "data:application/octet-stream;base64,"
    },
    {
      "byteLength": 136,
      "uri": "data:application/octet-stream;base64,"
    },
    {
      "byteLength": 288,
      "uri": "data:application/octet-stream;base64,"
    },
    {
      "byteLength": 384,
      "uri": "data:application/octet-stream;base64,"
    },
    {
      "byteLength": 192,
      "uri": "data:application/octet-stream;base64,"
    },
    {
      "byteLength": 288,
      "uri": "data:application/octet-stream;base64,"
    },
    {
      "byteLength": 136,
      "uri": "data:application/octet-stream;base64,"
    },
    {
      "byteLength": 288,
      "uri": "data:application/octet-stream;base64,"
    },
    {
      "byteLength": 384,
      "uri": "data:application/octet-stream;base64,"
    },
    {
      "byteLength": 192,
      "uri": "data:application/octet-stream;base64,"
    },
    {
      "byteLength": 288,
      "uri": "data:application/octet-stream;base64,"
    },
    {
      "byteLength": 136,
      "uri": "data:application/octet-stream;base64,"
    },
    {
      "byteLength": 288,
      "uri": "data:application/octet-stream;base64,"
    },
    {
      "byteLength": 384,
      "uri": "data:application/octet-stream;base64,"
    },
    {
      "byteLength": 192,
      "uri": "data:application/octet-stream;base64,"
    },
    {
      "byteLength": 288,
      "uri": "data:application/octet-stream;base64,"
    },
    {
      "byteLength": 136,
      "uri": "data:application/octet-stream;base64,"
    },
    {
      "byteLength": 288,
      "uri": "data:application/octet-stream;base64,"
    },
    {
      "byteLength": 384,
      "uri": "data:application/octet-stream;base64,"
    },
    {
      "byteLength": 192,
      "uri": "data:application/octet-stream;base64,"
    },
    {
      "byteLength": 288,
      "uri": "data:application/octet-stream;base64,"
    },
    {
      "byteLength": 136,
      "uri": "data:application/octet-stream;base64,"
    },
    {
      "byteLength": 288,
      "uri": "data:application/octet-stream;base64,"
    },
    {
      "byteLength": 384,
      "uri": "data:application/octet-stream;base64,"
    },
    {
      "byteLength": 192,
      "uri": "data:application/octet-stream;base64,"
    },
    {
      "byteLength": 288,
      "uri": "data:application/octet-stream;base64,"
    },
    {
      "byteLength": 136,
      "uri": "data:application/octet-stream;base64,"
    },
    {
      "byteLength": 288,
      "uri": "data:application/octet-stream;base64,"
    },
    {
      "byteLength": 384,
      "uri": "data:application/octet-stream;base64,"
    },
    {
      "byteLength": 192,
      "uri": "data:application/octet-stream;base64,"
    },
    {
      "byteLength": 288,
      "uri": "data:application/octet-stream;base64,"
    },
    {
      "byteLength": 136,
      "uri": "data:application/octet-stream;base64,"
    },
    {
      "byteLength": 288,
      "uri": "data:application/octet-stream;base64,"
    },
    {
      "byteLength": 384,
      "uri": "data:application/octet-stream;base64,"
    },
    {
      "byteLength": 192,
      "uri": "data:application/octet-stream;base64,"
    },
    {
      "byteLength": 288,
      "uri": "data:application/octet-stream;base64,"
    },
    {
      "byteLength": 136,
      "uri": "data:application/octet-stream;base64,"
    },
    {
      "byteLength": 288,
      "uri": "data:application/octet-stream;base64,"
    },
    {
      "byteLength": 384,
      "uri": "data:application/octet-stream;base64,"
    },
    {
      "byteLength": 192,
      "uri": "data:application/octet-stream;base64,"
    },
    {
      "byteLength": 288,
      "uri": "data:application/octet-stream;base64,"
    },
    {
      "byteLength": 136,
      "uri": "data:application/octet-stream;base64,"
    },
    {
      "byteLength": 288,
      "uri": "data:application/octet-stream;base64,"
    },
    {
      "byteLength": 384,
      "uri": "data:application/octet-stream;base64,"
    },
    {
      "byteLength": 192,
      "uri": "data:application/octet-stream;base64,"
    },
    {
      "byteLength": 12,
      "uri": "data:application/octet-stream;base64,"
    },
    {
      "byteLength": 48,
      "uri": "data:application/octet-stream;base64,"
    },
    {
      "byteLength": 16,
      "uri": "data:application/octet-stream;base64,"
    },
    {
      "byteLength": 64,
      "uri": "data:application/octet-stream;base64,"
    },
    {
      "byteLength": 16,
      "uri": "data:application/octet-stream;base64,"
    },
    {
      "byteLength": 64,
      "uri": "data:application/octet-stream;base64,"
    },
    {
      "byteLength": 12,
      "uri": "data:application/octet-stream;base64,"
    },
    {
      "byteLength": 48,
      "uri": "data:application/octet-stream;base64,"
    },
    {
      "byteLength": 12,
      "uri": "data:application/octet-stream;base64,"
    },
    {
      "byteLength": 36,
      "uri": "data:application/octet-stream;base64,"
    },
    {
      "byteLength": 12,
      "uri": "data:application/octet-stream;base64,"
    },
    {
      "byteLength": 48,
      "uri": "data:application/octet-stream;base64,"
    },
    {
      "byteLength": 12,
      "uri": "data:application/octet-stream;base64,"
    },
    {
      "byteLength": 36,
      "uri": "data:application/octet-stream;base64,"
    },
    {
      "byteLength": 12,
      "uri": "data:application/octet-stream;base64,"
    },
    {
      "byteLength": 48,
      "uri": "data:application/octet-stream;base64,"
    },
    {
      "byteLength": 12,
      "uri": "data:application/octet-stream;base64,"
    },
    {
      "byteLength": 48,
      "uri": "data:application/octet-stream;base64,"
    },
    {
      "byteLength": 36,
      "uri": "data:application/octet-stream;base64,"
    },
    {
      "byteLength": 144,
      "uri": "data:application/octet-stream;base64,"
    },
    {
      "byteLength": 68,
      "uri": "data:application/octet-stream;base64,"
    },
    {
      "byteLength": 272,
      "uri": "data:application/octet-stream;base64,"
    },
    {
      "byteLength": 36,
      "uri": "data:application/octet-stream;base64,"
    },
    {
      "byteLength": 144,
      "uri": "data:application/octet-stream;base64,"
    }
  ],
  "materials": [
    {
      "doubleSided": true
    }
  ],
  "meshes": [
    {
      "primitives": [
        {
          "attributes": {
            "NORMAL": 2,
            "POSITION": 0,
            "TANGENT": 3,
            "TEXCOORD_0": 4
          },
          "indices": 1,
          "material": 0,
          "mode": 5
        }
      ]
    },
    {
      "primitives": [
        {
          "attributes": {
            "NORMAL": 7,
            "POSITION": 5,
            "TANGENT": 8,
            "TEXCOORD_0": 9
          },
          "indices": 6,
          "material": 0,
          "mode": 5
        }
      ]
    },
    {
      "primitives": [
        {
          "attributes": {
            "NORMAL": 12,
            "POSITION": 10,
            "TANGENT": 13,
            "TEXCOORD_0": 14
          },
          "indices": 11,
          "material": 0,
          "mode": 5
        }
      ]
    },
    {
      "primitives": [
        {
          "attributes": {
            "NORMAL": 17,
            "POSITION": 15,
            "TANGENT": 18,
            "TEXCOORD_0": 19
          },
          "indices": 16,
          "material": 0,
          "mode": 5
        }
      ]
    },
    {
      "primitives": [
        {
          "attributes": {
            "NORMAL": 22,
            "POSITION": 20,
            "TANGENT": 23,
            "TEXCOORD_0": 24
          },
          "indices": 21,
          "material": 0,
          "mode": 5
        }
      ]
    },
    {
      "primitives": [
        {
          "attributes": {
            "NORMAL": 27,
            "POSITION": 25,
            "TANGENT": 28,
            "TEXCOORD_0": 29
          },
          "indices": 26,
          "material": 0,
          "mode": 5
        }
      ]
    },
    {
      "primitives": [
        {
          "attributes": {
            "NORMAL": 32,
            "POSITION": 30,
            "TANGENT": 33,
            "TEXCOORD_0": 34
          },
          "indices": 31,
          "material": 0,
          "mode": 5
        }
      ]
    },
    {
      "primitives": [
        {
          "attributes": {
            "NORMAL": 37,
            "POSITION": 35,
            "TANGENT": 38,
            "TEXCOORD_0": 39
          },
          "indices": 36,
          "material": 0,
          "mode": 5
        }
      ]
    },
    {
      "primitives": [
        {
          "attributes": {
            "NORMAL": 42,
            "POSITION": 40,
            "TANGENT": 43,
            "TEXCOORD_0": 44
          },
          "indices": 41,
          "material": 0,
          "mode": 5
        }
      ]
    },
    {
      "primitives": [
        {
          "attributes": {
            "NORMAL": 47,
            "POSITION": 45,
            "TANGENT": 48,
            "TEXCOORD_0": 49
          },
          "indices": 46,
          "material": 0,
          "mode": 5
        }
      ]
    },
    {
      "primitives": [
        {
          "attributes": {
            "NORMAL": 52,
            "POSITION": 50,
            "TANGENT": 53,
            "TEXCOORD_0": 54
          },
          "indices": 51,
          "material": 0,
          "mode": 5
        }
      ]
    },
    {
      "primitives": [
        {
          "attributes": {
            "NORMAL": 57,
            "POSITION": 55,
            "TANGENT": 58,
            "TEXCOORD_0": 59
          },
          "indices": 56,
          "material": 0,
          "mode": 5
        }
      ]
    },
    {
      "primitives": [
        {
          "attributes": {
            "NORMAL": 62,
            "POSITION": 60,
            "TANGENT": 63,
            "TEXCOORD_0": 64
          },
          "indices": 61,
          "material": 0,
          "mode": 5
        }
      ]
    },
    {
      "primitives": [
        {
          "attributes": {
            "NORMAL": 67,
            "POSITION": 65,
            "TANGENT": 68,
            "TEXCOORD_0": 69
          },
          "indices": 66,
          "material": 0,
          "mode": 5
        }
      ]
    },
    {
      "primitives": [
        {
          "attributes": {
            "NORMAL": 72,
            "POSITION": 70,
            "TANGENT": 73,
            "TEXCOORD_0": 74
          },
          "indices": 71,
          "material": 0,
          "mode": 5
        }
      ]
    },
    {
      "primitives": [
        {
          "attributes": {
            "NORMAL": 77,
            "POSITION": 75,
            "TANGENT": 78,
            "TEXCOORD_0": 79
          },
          "indices": 76,
          "material": 0,
          "mode": 5
        }
      ]
    },
    {
      "primitives": [
        {
          "attributes": {
            "NORMAL": 82,
            "POSITION": 80,
            "TANGENT": 83,
            "TEXCOORD_0": 84
          },
          "indices": 81,
          "material": 0,
          "mode": 5
        }
      ]
    },
    {
      "primitives": [
        {
          "attributes": {
            "NORMAL": 87,
            "POSITION": 85,
            "TANGENT": 88,
            "TEXCOORD_0": 89
          },
          "indices": 86,
          "material": 0,
          "mode": 5
        }
      ]
    },
    {
      "primitives": [
        {
          "attributes": {
            "NORMAL": 92,
            "POSITION": 90,
            "TANGENT": 93,
            "TEXCOORD_0": 94
          },
          "indices": 91,
          "material": 0,
          "mode": 5
        }
      ]
    },
    {
      "primitives": [
        {
          "attributes": {
            "NORMAL": 97,
            "POSITION": 95,
            "TANGENT": 98,
            "TEXCOORD_0": 99
          },
          "indices": 96,
          "material": 0,
          "mode": 5
        }
      ]
    }
  ],
  "nodes": [
    {
      "mesh": 0,
      "name": "_gltfNode_0"
    },
    {
      "children": [
        0
      ],
      "name": "torso_body_0"
    },
    {
      "mesh": 1,
      "name": "_gltfNode_2"
    },
    {
      "children": [
        2
      ],
      "name": "torso_front_1",
      "rotation": [
        0.0,
        0.0,
        0.0,
        1.0
      ],
      "scale": [
        1.0,
        1.0,
        1.0
      ],
      "translation": [
        0.0,
        -0.03125,
        0.0
      ]
    },
    {
      "mesh": 2,
      "name": "_gltfNode_4"
    },
    {
      "children": [
        4
      ],
      "name": "neck_2",
      "rotation": [
        0.0,
        0.0,
        0.0,
        1.0
      ],
      "scale": [
        1.0,
        1.0,
        1.0
      ],
      "translation": [
        0.0,
        0.046875,
        -0.09375
      ]
    },
    {
      "mesh": 3,
      "name": "_gltfNode_6"
    },
    {
      "children": [
        6
      ],
      "name": "head_3"
    },
    {
      "mesh": 4,
      "name": "_gltfNode_8"
    },
    {
      "children": [
        8
      ],
      "name": "snout_4"
    },
    {
      "mesh": 5,
      "name": "_gltfNode_10"
    },
    {
      "children": [
        10
      ],
      "name": "head_tuft_left_5",
      "rotation": [
        0.0,
        0.5735765446350929,
        0.0,
        0.8191519684676789
      ],
      "scale": [
        1.0000003576278687,
        1.0,
        1.0000003576278687
      ],
      "translation": [
        -0.1875,
        -0.03125,
        -0.28125
      ]
    },
    {
      "mesh": 6,
      "name": "_gltfNode_12"
    },
    {
      "children": [
        12
      ],
      "name": "head_tuft_right_6",
      "rotation": [
        0.0,
        -0.5735765446350929,
        0.0,
        0.8191519684676789
      ],
      "scale": [
        1.0000003576278687,
        1.0,
        1.0000003576278687
      ],
      "translation": [
        0.1875,
        -0.03125,
        -0.28125
      ]
    },
    {
      "mesh": 7,
      "name": "_gltfNode_14"
    },
    {
      "children": [
        14
      ],
      "name": "cube_7",
      "rotation": [
        0.0,
        0.0,
        0.0,
        1.0
      ],
      "scale": [
        1.0,
        1.0,
        1.0
      ],
      "translation": [
        -0.03125,
        0.0,
        -0.0625
      ]
    },
    {
      "children": [
        15
      ],
      "name": "ear_left_8",
      "rotation": [
        -9.07147904018526e-19,
        1.0368730098671385e-17,
        0.0871556342338106,
        0.9961947075854739
      ],
      "scale": [
        1.000000238418579,
        1.000000238418579,
        1.0
      ],
      "translation": [
        -0.125,
        0.140625,
        -0.09375
      ]
    },
    {
      "mesh": 8,
      "name": "_gltfNode_17"
    },
    {
      "children": [
        17
      ],
      "name": "cube_9",
      "rotation": [
        0.0,
        0.0,
        0.0,
        1.0
      ],
      "scale": [
        1.0,
        1.0,
        1.0
      ],
      "translation": [
        0.03125,
        0.0,
        -0.0625
      ]
    },
    {
      "children": [
        18
      ],
      "name": "ear_right_10",
      "rotation": [
        -9.07147904018526e-19,
        -1.0368730098671385e-17,
        -0.0871556342338106,
        0.9961947075854739
      ],
      "scale": [
        1.000000238418579,
        1.000000238418579,
        1.0
      ],
      "translation": [
        0.125,
        0.140625,
        -0.09375
      ]
    },
    {
      "children": [
        7,
        9,
        11,
        13,
        16,
        19
      ],
      "name": "head_11",
      "rotation": [
        -0.5555704734611676,
        0.0,
        0.0,
        0.8314694516445803
      ],
      "scale": [
        1.0,
        1.000000238418579,
        1.000000238418579
      ],
      "translation": [
        0.0,
        0.015625,
        -0.21875
      ]
    },
    {
      "children": [
        5,
        20
      ],
      "name": "neck_12",
      "rotation": [
        0.5555704734611676,
        0.0,
        0.0,
        0.8314694516445803
      ],
      "scale": [
        1.0,
        1.000000238418579,
        1.000000238418579
      ],
      "translation": [
        0.0,
        0.03125,
        -0.234375
      ]
    },
    {
      "mesh": 9,
      "name": "_gltfNode_22"
    },
    {
      "children": [
        22
      ],
      "name": "cube_13",
      "rotation": [
        0.0,
        0.0,
        0.0,
        1.0
      ],
      "scale": [
        1.0,
        1.0,
        1.0
      ],
      "translation": [
        0.0,
        0.125,
        0.109375
      ]
    },
    {
      "mesh": 10,
      "name": "_gltfNode_24"
    },
    {
      "children": [
        24
      ],
      "name": "cube_14"
    },
    {
      "children": [
        23,
        25
      ],
      "name": "foreleg_right_15",
      "rotation": [
        0.0,
        0.0,
        0.0,
        1.0
      ],
      "scale": [
        1.0,
        1.0,
        1.0
      ],
      "translation": [
        0.109375,
        -0.234375,
        -0.203125
      ]
    },
    {
      "mesh": 11,
      "name": "_gltfNode_27"
    },
    {
      "children": [
        27
      ],
      "name": "cube_16"
    },
    {
      "mesh": 12,
      "name": "_gltfNode_29"
    },
    {
      "children": [
        29
      ],
      "name": "cube_17",
      "rotation": [
        0.0,
        0.0,
        0.0,
        1.0
      ],
      "scale": [
        1.0,
        1.0,
        1.0
      ],
      "translation": [
        0.0,
        0.125,
        0.109375
      ]
    },
    {
      "children": [
        28,
        30
      ],
      "name": "foreleg_left_18",
      "rotation": [
        0.0,
        0.0,
        0.0,
        1.0
      ],
      "scale": [
        1.0,
        1.0,
        1.0
      ],
      "translation": [
        -0.109375,
        -0.234375,
        -0.203125
      ]
    },
    {
      "children": [
        3,
        21,
        26,
        31
      ],
      "name": "chest_19",
      "rotation": [
        0.0,
        0.0,
        0.0,
        1.0
      ],
      "scale": [
        1.0,
        1.0,
        1.0
      ],
      "translation": [
        0.0,
        0.015625,
        -0.375
      ]
    },
    {
      "mesh": 13,
      "name": "_gltfNode_33"
    },
    {
      "children": [
        33
      ],
      "name": "cube_20"
    },
    {
      "mesh": 14,
      "name": "_gltfNode_35"
    },
    {
      "children": [
        35
      ],
      "name": "cube_21"
    },
    {
      "children": [
        34,
        36
      ],
      "name": "hindleg_right_22",
      "rotation": [
        0.0,
        0.0,
        0.0,
        1.0
      ],
      "scale": [
        1.0,
        1.0,
        1.0
      ],
      "translation": [
        0.140625,
        -0.09375,
        -0.015625
      ]
    },
    {
      "mesh": 15,
      "name": "_gltfNode_38"
    },
    {
      "children": [
        38
      ],
      "name": "cube_23"
    },
    {
      "mesh": 16,
      "name": "_gltfNode_40"
    },
    {
      "children": [
        40
      ],
      "name": "cube_24"
    },
    {
      "children": [
        39,
        41
      ],
      "name": "hindleg_left_25",
      "rotation": [
        0.0,
        0.0,
        0.0,
        1.0
      ],
      "scale": [
        1.0,
        1.0,
        1.0
      ],
      "translation": [
        -0.140625,
        -0.09375,
        -0.015625
      ]
    },
    {
      "mesh": 17,
      "name": "_gltfNode_43"
    },
    {
      "children": [
        43
      ],
      "name": "cube_26"
    },
    {
      "mesh": 18,
      "name": "_gltfNode_45"
    },
    {
      "children": [
        45
      ],
      "name": "cube_27"
    },
    {
      "mesh": 19,
      "name": "_gltfNode_47"
    },
    {
      "children": [
        47
      ],
      "name": "cube_28",
      "rotation": [
        0.0,
        0.0,
        0.0,
        1.0
      ],
      "scale": [
        1.0,
        1.0,
        1.0
      ],
      "translation": [
        -0.03125,
        -0.015625,
        -0.3125
      ]
    },
    {
      "children": [
        48
      ],
      "name": "bone2_29",
      "rotation": [
        -0.7071067811865475,
        0.0,
        0.0,
        0.7071067811865476
      ],
      "scale": [
        1.0,
        1.0,
        1.0
      ],
      "translation": [
        0.0,
        -0.046875,
        0.265625
      ]
    },
    {
      "children": [
        46,
        49
      ],
      "name": "tail_tip_30",
      "rotation": [
        -0.6755902330141231,
        0.0,
        0.0,
        0.7372773135367212
      ],
      "scale": [
        1.0,
        1.000000238418579,
        1.000000238418579
      ],
      "translation": [
        0.0,
        0.015625,
        0.140625
      ]
    },
    {
      "children": [
        44,
        50
      ],
      "name": "tail_31",
      "rotation": [
        -0.2588191426090058,
        0.0,
        0.0,
        0.9659258001622864
      ],
      "scale": [
        1.0,
        0.9999996423721313,
        0.9999996423721313
      ],
      "translation": [
        0.0,
        0.125,
        0.078125
      ]
    },
    {
      "children": [
        1,
        32,
        37,
        42,
        51
      ],
      "name": "torso_32",
      "rotation": [
        0.0,
        0.0,
        0.0,
        1.0
      ],
      "scale": [
        1.0,
        1.0,
        1.0
      ],
      "translation": [
        0.0,
        0.671875,
        0.375
      ]
    },
    {
      "children": [
        52
      ],
      "name": "_33"
    },
    {
      "children": [
        53
      ],
      "name": "Husky - Custom Minecraft Model",
      "rotation": [
        -1.9753748434203095e-22,
        0.0,
        0.0,
        1.0
      ],
      "scale": [
        1.0,
        1.0,
        1.0
      ],
      "translation": [
        0.0,
        0.0,
        0.0
      ]
    }
  ],
  "scene": 0,
  "scenes": [
    {
      "nodes": [
        54
      ]
    }
  ]
}
