# Blender 4.2.15 LTS
# www.blender.org
mtllib minecraft-villager-knight.mtl
o 7b12aec5-8bf3-4ab7-517b-b1e7652136bb
v 1.000000 27.000000 -4.000000
v 1.000000 23.000000 -4.000000
v 1.000000 27.000000 -6.000000
v 1.000000 23.000000 -4.000000
v 1.000000 23.000000 -6.000000
v 1.000000 27.000000 -6.000000
v -1.000000 27.000000 -6.000000
v -1.000000 23.000000 -6.000000
v -1.000000 27.000000 -4.000000
v -1.000000 23.000000 -6.000000
v -1.000000 23.000000 -4.000000
v -1.000000 27.000000 -4.000000
v -1.000000 27.000000 -6.000000
v -1.000000 27.000000 -4.000000
v 1.000000 27.000000 -6.000000
v -1.000000 27.000000 -4.000000
v 1.000000 27.000000 -4.000000
v 1.000000 27.000000 -6.000000
v -1.000000 23.000000 -4.000000
v -1.000000 23.000000 -6.000000
v 1.000000 23.000000 -4.000000
v -1.000000 23.000000 -6.000000
v 1.000000 23.000000 -6.000000
v 1.000000 23.000000 -4.000000
v -1.000000 27.000000 -4.000000
v -1.000000 23.000000 -4.000000
v 1.000000 27.000000 -4.000000
v -1.000000 23.000000 -4.000000
v 1.000000 23.000000 -4.000000
v 1.000000 27.000000 -4.000000
v 1.000000 27.000000 -6.000000
v 1.000000 23.000000 -6.000000
v -1.000000 27.000000 -6.000000
v 1.000000 23.000000 -6.000000
v -1.000000 23.000000 -6.000000
v -1.000000 27.000000 -6.000000
vn 1.0000 -0.0000 -0.0000
vn -1.0000 -0.0000 -0.0000
vn -0.0000 1.0000 -0.0000
vn -0.0000 -1.0000 -0.0000
vn -0.0000 -0.0000 1.0000
vn -0.0000 -0.0000 -1.0000
vt 0.187622 0.015747
vt 0.187622 0.046753
vt 0.203003 0.015747
vt 0.203003 0.046753
vt 0.218872 0.015747
vt 0.218872 0.046753
vt 0.234253 0.015747
vt 0.234253 0.046753
vt 0.218628 0.015503
vt 0.218628 0.000122
vt 0.203247 0.015503
vt 0.203247 0.000122
vt 0.234253 0.000122
vt 0.234253 0.015503
vt 0.218872 0.000122
vt 0.218872 0.015503
vt 0.234497 0.015747
vt 0.234497 0.046753
vt 0.249878 0.015747
vt 0.249878 0.046753
vt 0.203247 0.015747
vt 0.203247 0.046753
vt 0.218628 0.015747
vt 0.218628 0.046753
s 0
usemtl Knight.png
f 1/1/1 2/2/1 3/3/1
f 4/2/1 5/4/1 6/3/1
f 7/5/2 8/6/2 9/7/2
f 10/6/2 11/8/2 12/7/2
f 13/9/3 14/10/3 15/11/3
f 16/10/3 17/12/3 18/11/3
f 19/13/4 20/14/4 21/15/4
f 22/14/4 23/16/4 24/15/4
f 25/17/5 26/18/5 27/19/5
f 28/18/5 29/20/5 30/19/5
f 31/21/6 32/22/6 33/23/6
f 34/22/6 35/24/6 36/23/6
o 48ccf4af-d8d2-3396-840f-f7303db32776
v 4.500000 34.500000 4.500000
v 4.500000 21.500000 4.500000
v 4.500000 34.500000 -4.500000
v 4.500000 21.500000 4.500000
v 4.500000 21.500000 -4.500000
v 4.500000 34.500000 -4.500000
v -4.500000 34.500000 -4.500000
v -4.500000 21.500000 -4.500000
v -4.500000 34.500000 4.500000
v -4.500000 21.500000 -4.500000
v -4.500000 21.500000 4.500000
v -4.500000 34.500000 4.500000
v -4.500000 34.500000 -4.500000
v -4.500000 34.500000 4.500000
v 4.500000 34.500000 -4.500000
v -4.500000 34.500000 4.500000
v 4.500000 34.500000 4.500000
v 4.500000 34.500000 -4.500000
v -4.500000 21.500000 4.500000
v -4.500000 21.500000 -4.500000
v 4.500000 21.500000 4.500000
v -4.500000 21.500000 -4.500000
v 4.500000 21.500000 -4.500000
v 4.500000 21.500000 4.500000
v -4.500000 34.500000 4.500000
v -4.500000 21.500000 4.500000
v 4.500000 34.500000 4.500000
v -4.500000 21.500000 4.500000
v 4.500000 21.500000 4.500000
v 4.500000 34.500000 4.500000
v 4.500000 34.500000 -4.500000
v 4.500000 21.500000 -4.500000
v -4.500000 34.500000 -4.500000
v 4.500000 21.500000 -4.500000
v -4.500000 21.500000 -4.500000
v -4.500000 34.500000 -4.500000
vn 1.0000 -0.0000 -0.0000
vn -1.0000 -0.0000 -0.0000
vn -0.0000 1.0000 -0.0000
vn -0.0000 -1.0000 -0.0000
vn -0.0000 -0.0000 1.0000
vn -0.0000 -0.0000 -1.0000
vt 0.250122 0.140747
vt 0.250122 0.234253
vt 0.312378 0.140747
vt 0.312378 0.234253
vt 0.375122 0.140747
vt 0.375122 0.234253
vt 0.437378 0.140747
vt 0.437378 0.234253
vt 0.374878 0.140503
vt 0.374878 0.078247
vt 0.312622 0.140503
vt 0.312622 0.078247
vt 0.437378 0.078247
vt 0.437378 0.140503
vt 0.375122 0.078247
vt 0.375122 0.140503
vt 0.437622 0.140747
vt 0.437622 0.234253
vt 0.499878 0.140747
vt 0.499878 0.234253
vt 0.312622 0.140747
vt 0.312622 0.234253
vt 0.374878 0.140747
vt 0.374878 0.234253
s 0
usemtl Knight.png
f 37/25/7 38/26/7 39/27/7
f 40/26/7 41/28/7 42/27/7
f 43/29/8 44/30/8 45/31/8
f 46/30/8 47/32/8 48/31/8
f 49/33/9 50/34/9 51/35/9
f 52/34/9 53/36/9 54/35/9
f 55/37/10 56/38/10 57/39/10
f 58/38/10 59/40/10 60/39/10
f 61/41/11 62/42/11 63/43/11
f 64/42/11 65/44/11 66/43/11
f 67/45/12 68/46/12 69/47/12
f 70/46/12 71/48/12 72/47/12
o 10a596a0-3966-ef90-e140-1cad27660591
v 0.001000 42.000000 9.000000
v 0.001000 32.000000 9.000000
v 0.001000 42.000000 -5.000000
v 0.001000 32.000000 9.000000
v 0.001000 32.000000 -5.000000
v 0.001000 42.000000 -5.000000
v 0.000000 42.000000 -5.000000
v 0.000000 32.000000 -5.000000
v 0.000000 42.000000 9.000000
v 0.000000 32.000000 -5.000000
v 0.000000 32.000000 9.000000
v 0.000000 42.000000 9.000000
v 0.000000 42.000000 -5.000000
v 0.000000 42.000000 9.000000
v 0.001000 42.000000 -5.000000
v 0.000000 42.000000 9.000000
v 0.001000 42.000000 9.000000
v 0.001000 42.000000 -5.000000
v 0.000000 32.000000 9.000000
v 0.000000 32.000000 -5.000000
v 0.001000 32.000000 9.000000
v 0.000000 32.000000 -5.000000
v 0.001000 32.000000 -5.000000
v 0.001000 32.000000 9.000000
v 0.000000 42.000000 9.000000
v 0.000000 32.000000 9.000000
v 0.001000 42.000000 9.000000
v 0.000000 32.000000 9.000000
v 0.001000 32.000000 9.000000
v 0.001000 42.000000 9.000000
v 0.001000 42.000000 -5.000000
v 0.001000 32.000000 -5.000000
v 0.000000 42.000000 -5.000000
v 0.001000 32.000000 -5.000000
v 0.000000 32.000000 -5.000000
v 0.000000 42.000000 -5.000000
vn 1.0000 -0.0000 -0.0000
vn -1.0000 -0.0000 -0.0000
vn -0.0000 1.0000 -0.0000
vn -0.0000 -1.0000 -0.0000
vn -0.0000 -0.0000 1.0000
vn -0.0000 -0.0000 -1.0000
vt 0.500122 0.421997
vt 0.500122 0.499878
vt 0.609253 0.421997
vt 0.609253 0.499878
vt 0.609497 0.421997
vt 0.609497 0.499878
vt 0.718628 0.421997
vt 0.718628 0.499878
vt 0.609497 0.421753
vt 0.609497 0.312622
vt 0.609253 0.421753
vt 0.609253 0.312622
vt 0.718872 0.421997
vt 0.718872 0.499878
s 0
usemtl Knight.png
f 73/49/13 74/50/13 75/51/13
f 76/50/13 77/52/13 78/51/13
f 79/53/14 80/54/14 81/55/14
f 82/54/14 83/56/14 84/55/14
f 85/57/15 86/58/15 87/59/15
f 88/58/15 89/60/15 90/59/15
f 91/58/16 92/57/16 93/60/16
f 94/57/16 95/59/16 96/60/16
f 97/61/17 98/62/17 99/55/17
f 100/62/17 101/56/17 102/55/17
f 103/53/18 104/54/18 105/51/18
f 106/54/18 107/52/18 108/51/18
o ce10b3f1-796d-36e2-3342-a374561ba127
v 4.000000 34.000000 4.000000
v 4.000000 24.000000 4.000000
v 4.000000 34.000000 -4.000000
v 4.000000 24.000000 4.000000
v 4.000000 24.000000 -4.000000
v 4.000000 34.000000 -4.000000
v -4.000000 34.000000 -4.000000
v -4.000000 24.000000 -4.000000
v -4.000000 34.000000 4.000000
v -4.000000 24.000000 -4.000000
v -4.000000 24.000000 4.000000
v -4.000000 34.000000 4.000000
v -4.000000 34.000000 -4.000000
v -4.000000 34.000000 4.000000
v 4.000000 34.000000 -4.000000
v -4.000000 34.000000 4.000000
v 4.000000 34.000000 4.000000
v 4.000000 34.000000 -4.000000
v -4.000000 24.000000 4.000000
v -4.000000 24.000000 -4.000000
v 4.000000 24.000000 4.000000
v -4.000000 24.000000 -4.000000
v 4.000000 24.000000 -4.000000
v 4.000000 24.000000 4.000000
v -4.000000 34.000000 4.000000
v -4.000000 24.000000 4.000000
v 4.000000 34.000000 4.000000
v -4.000000 24.000000 4.000000
v 4.000000 24.000000 4.000000
v 4.000000 34.000000 4.000000
v 4.000000 34.000000 -4.000000
v 4.000000 24.000000 -4.000000
v -4.000000 34.000000 -4.000000
v 4.000000 24.000000 -4.000000
v -4.000000 24.000000 -4.000000
v -4.000000 34.000000 -4.000000
vn 1.0000 -0.0000 -0.0000
vn -1.0000 -0.0000 -0.0000
vn -0.0000 1.0000 -0.0000
vn -0.0000 -1.0000 -0.0000
vn -0.0000 -0.0000 1.0000
vn -0.0000 -0.0000 -1.0000
vt 0.000122 0.062622
vt 0.000122 0.140503
vt 0.062378 0.062622
vt 0.062378 0.140503
vt 0.125122 0.062622
vt 0.125122 0.140503
vt 0.187378 0.062622
vt 0.187378 0.140503
vt 0.124878 0.062378
vt 0.124878 0.000122
vt 0.062622 0.062378
vt 0.062622 0.000122
vt 0.187378 0.000122
vt 0.187378 0.062378
vt 0.125122 0.000122
vt 0.125122 0.062378
vt 0.187622 0.062622
vt 0.187622 0.140503
vt 0.249878 0.062622
vt 0.249878 0.140503
vt 0.062622 0.062622
vt 0.062622 0.140503
vt 0.124878 0.062622
vt 0.124878 0.140503
s 0
usemtl Knight.png
f 109/63/19 110/64/19 111/65/19
f 112/64/19 113/66/19 114/65/19
f 115/67/20 116/68/20 117/69/20
f 118/68/20 119/70/20 120/69/20
f 121/71/21 122/72/21 123/73/21
f 124/72/21 125/74/21 126/73/21
f 127/75/22 128/76/22 129/77/22
f 130/76/22 131/78/22 132/77/22
f 133/79/23 134/80/23 135/81/23
f 136/80/23 137/82/23 138/81/23
f 139/83/24 140/84/24 141/85/24
f 142/84/24 143/86/24 144/85/24
o 2e493103-2fbd-fb0d-95e3-25eed4ad6b4a
v 8.000000 24.000000 2.000000
v 8.000000 16.000000 2.000000
v 8.000000 24.000000 -2.000000
v 8.000000 16.000000 2.000000
v 8.000000 16.000000 -2.000000
v 8.000000 24.000000 -2.000000
v 4.000000 24.000000 -2.000000
v 4.000000 16.000000 -2.000000
v 4.000000 24.000000 2.000000
v 4.000000 16.000000 -2.000000
v 4.000000 16.000000 2.000000
v 4.000000 24.000000 2.000000
v 4.000000 24.000000 -2.000000
v 4.000000 24.000000 2.000000
v 8.000000 24.000000 -2.000000
v 4.000000 24.000000 2.000000
v 8.000000 24.000000 2.000000
v 8.000000 24.000000 -2.000000
v 4.000000 16.000000 2.000000
v 4.000000 16.000000 -2.000000
v 8.000000 16.000000 2.000000
v 4.000000 16.000000 -2.000000
v 8.000000 16.000000 -2.000000
v 8.000000 16.000000 2.000000
v 4.000000 24.000000 2.000000
v 4.000000 16.000000 2.000000
v 8.000000 24.000000 2.000000
v 4.000000 16.000000 2.000000
v 8.000000 16.000000 2.000000
v 8.000000 24.000000 2.000000
v 8.000000 24.000000 -2.000000
v 8.000000 16.000000 -2.000000
v 4.000000 24.000000 -2.000000
v 8.000000 16.000000 -2.000000
v 4.000000 16.000000 -2.000000
v 4.000000 24.000000 -2.000000
vn 1.0000 -0.0000 -0.0000
vn -1.0000 -0.0000 -0.0000
vn -0.0000 1.0000 -0.0000
vn -0.0000 -1.0000 -0.0000
vn -0.0000 -0.0000 1.0000
vn -0.0000 -0.0000 -1.0000
vt 0.218872 0.265747
vt 0.218872 0.328003
vt 0.249878 0.265747
vt 0.249878 0.328003
vt 0.281372 0.265747
vt 0.281372 0.328003
vt 0.312378 0.265747
vt 0.312378 0.328003
vt 0.281128 0.265503
vt 0.281128 0.234497
vt 0.250122 0.265503
vt 0.250122 0.234497
vt 0.312378 0.234497
vt 0.312378 0.265503
vt 0.281372 0.234497
vt 0.281372 0.265503
vt 0.312622 0.265747
vt 0.312622 0.328003
vt 0.343628 0.265747
vt 0.343628 0.328003
vt 0.250122 0.265747
vt 0.250122 0.328003
vt 0.281128 0.265747
vt 0.281128 0.328003
s 0
usemtl Knight.png
f 145/87/25 146/88/25 147/89/25
f 148/88/25 149/90/25 150/89/25
f 151/91/26 152/92/26 153/93/26
f 154/92/26 155/94/26 156/93/26
f 157/95/27 158/96/27 159/97/27
f 160/96/27 161/98/27 162/97/27
f 163/99/28 164/100/28 165/101/28
f 166/100/28 167/102/28 168/101/28
f 169/103/29 170/104/29 171/105/29
f 172/104/29 173/106/29 174/105/29
f 175/107/30 176/108/30 177/109/30
f 178/108/30 179/110/30 180/109/30
o bee854e5-cb9b-2dbe-b35b-aa5a0a9fe8b0
v -4.000000 24.000000 2.000000
v -4.000000 16.000000 2.000000
v -4.000000 24.000000 -2.000000
v -4.000000 16.000000 2.000000
v -4.000000 16.000000 -2.000000
v -4.000000 24.000000 -2.000000
v -8.000000 24.000000 -2.000000
v -8.000000 16.000000 -2.000000
v -8.000000 24.000000 2.000000
v -8.000000 16.000000 -2.000000
v -8.000000 16.000000 2.000000
v -8.000000 24.000000 2.000000
v -8.000000 24.000000 -2.000000
v -8.000000 24.000000 2.000000
v -4.000000 24.000000 -2.000000
v -8.000000 24.000000 2.000000
v -4.000000 24.000000 2.000000
v -4.000000 24.000000 -2.000000
v -8.000000 16.000000 2.000000
v -8.000000 16.000000 -2.000000
v -4.000000 16.000000 2.000000
v -8.000000 16.000000 -2.000000
v -4.000000 16.000000 -2.000000
v -4.000000 16.000000 2.000000
v -8.000000 24.000000 2.000000
v -8.000000 16.000000 2.000000
v -4.000000 24.000000 2.000000
v -8.000000 16.000000 2.000000
v -4.000000 16.000000 2.000000
v -4.000000 24.000000 2.000000
v -4.000000 24.000000 -2.000000
v -4.000000 16.000000 -2.000000
v -8.000000 24.000000 -2.000000
v -4.000000 16.000000 -2.000000
v -8.000000 16.000000 -2.000000
v -8.000000 24.000000 -2.000000
vn 1.0000 -0.0000 -0.0000
vn -1.0000 -0.0000 -0.0000
vn -0.0000 1.0000 -0.0000
vn -0.0000 -1.0000 -0.0000
vn -0.0000 -0.0000 1.0000
vn -0.0000 -0.0000 -1.0000
vt 0.312378 0.265747
vt 0.312378 0.328003
vt 0.281372 0.265747
vt 0.281372 0.328003
vt 0.249878 0.265747
vt 0.249878 0.328003
vt 0.218872 0.265747
vt 0.218872 0.328003
vt 0.250122 0.265503
vt 0.250122 0.234497
vt 0.281128 0.265503
vt 0.281128 0.234497
vt 0.281372 0.234497
vt 0.281372 0.265503
vt 0.312378 0.234497
vt 0.312378 0.265503
vt 0.343628 0.265747
vt 0.343628 0.328003
vt 0.312622 0.265747
vt 0.312622 0.328003
vt 0.281128 0.265747
vt 0.281128 0.328003
vt 0.250122 0.265747
vt 0.250122 0.328003
s 0
usemtl Knight.png
f 181/111/31 182/112/31 183/113/31
f 184/112/31 185/114/31 186/113/31
f 187/115/32 188/116/32 189/117/32
f 190/116/32 191/118/32 192/117/32
f 193/119/33 194/120/33 195/121/33
f 196/120/33 197/122/33 198/121/33
f 199/123/34 200/124/34 201/125/34
f 202/124/34 203/126/34 204/125/34
f 205/127/35 206/128/35 207/129/35
f 208/128/35 209/130/35 210/129/35
f 211/131/36 212/132/36 213/133/36
f 214/132/36 215/134/36 216/133/36
o f8373e01-c614-cc49-a862-11f545e026c9
v 4.000000 20.000000 2.000000
v 4.000000 16.000000 2.000000
v 4.000000 20.000000 -2.000000
v 4.000000 16.000000 2.000000
v 4.000000 16.000000 -2.000000
v 4.000000 20.000000 -2.000000
v -4.000000 20.000000 -2.000000
v -4.000000 16.000000 -2.000000
v -4.000000 20.000000 2.000000
v -4.000000 16.000000 -2.000000
v -4.000000 16.000000 2.000000
v -4.000000 20.000000 2.000000
v -4.000000 20.000000 -2.000000
v -4.000000 20.000000 2.000000
v 4.000000 20.000000 -2.000000
v -4.000000 20.000000 2.000000
v 4.000000 20.000000 2.000000
v 4.000000 20.000000 -2.000000
v -4.000000 16.000000 2.000000
v -4.000000 16.000000 -2.000000
v 4.000000 16.000000 2.000000
v -4.000000 16.000000 -2.000000
v 4.000000 16.000000 -2.000000
v 4.000000 16.000000 2.000000
v -4.000000 20.000000 2.000000
v -4.000000 16.000000 2.000000
v 4.000000 20.000000 2.000000
v -4.000000 16.000000 2.000000
v 4.000000 16.000000 2.000000
v 4.000000 20.000000 2.000000
v 4.000000 20.000000 -2.000000
v 4.000000 16.000000 -2.000000
v -4.000000 20.000000 -2.000000
v 4.000000 16.000000 -2.000000
v -4.000000 16.000000 -2.000000
v -4.000000 20.000000 -2.000000
vn 1.0000 -0.0000 -0.0000
vn -1.0000 -0.0000 -0.0000
vn -0.0000 1.0000 -0.0000
vn -0.0000 -1.0000 -0.0000
vn -0.0000 -0.0000 1.0000
vn -0.0000 -0.0000 -1.0000
vt 0.312622 0.328247
vt 0.312622 0.359253
vt 0.343628 0.328247
vt 0.343628 0.359253
vt 0.406372 0.328247
vt 0.406372 0.359253
vt 0.437378 0.328247
vt 0.437378 0.359253
vt 0.406128 0.328003
vt 0.406128 0.296997
vt 0.343872 0.328003
vt 0.343872 0.296997
vt 0.468628 0.296997
vt 0.468628 0.328003
vt 0.406372 0.296997
vt 0.406372 0.328003
vt 0.437622 0.328247
vt 0.437622 0.359253
vt 0.499878 0.328247
vt 0.499878 0.359253
vt 0.343872 0.328247
vt 0.343872 0.359253
vt 0.406128 0.328247
vt 0.406128 0.359253
s 0
usemtl Knight.png
f 217/135/37 218/136/37 219/137/37
f 220/136/37 221/138/37 222/137/37
f 223/139/38 224/140/38 225/141/38
f 226/140/38 227/142/38 228/141/38
f 229/143/39 230/144/39 231/145/39
f 232/144/39 233/146/39 234/145/39
f 235/147/40 236/148/40 237/149/40
f 238/148/40 239/150/40 240/149/40
f 241/151/41 242/152/41 243/153/41
f 244/152/41 245/154/41 246/153/41
f 247/155/42 248/156/42 249/157/42
f 250/156/42 251/158/42 252/157/42
o 6631a5e6-c603-7b80-0e06-a4eb0d4d6373
v 8.500000 24.500000 2.500000
v 8.500000 19.500000 2.500000
v 8.500000 24.500000 -2.500000
v 8.500000 19.500000 2.500000
v 8.500000 19.500000 -2.500000
v 8.500000 24.500000 -2.500000
v 3.500000 24.500000 -2.500000
v 3.500000 19.500000 -2.500000
v 3.500000 24.500000 2.500000
v 3.500000 19.500000 -2.500000
v 3.500000 19.500000 2.500000
v 3.500000 24.500000 2.500000
v 3.500000 24.500000 -2.500000
v 3.500000 24.500000 2.500000
v 8.500000 24.500000 -2.500000
v 3.500000 24.500000 2.500000
v 8.500000 24.500000 2.500000
v 8.500000 24.500000 -2.500000
v 3.500000 19.500000 2.500000
v 3.500000 19.500000 -2.500000
v 8.500000 19.500000 2.500000
v 3.500000 19.500000 -2.500000
v 8.500000 19.500000 -2.500000
v 8.500000 19.500000 2.500000
v 3.500000 24.500000 2.500000
v 3.500000 19.500000 2.500000
v 8.500000 24.500000 2.500000
v 3.500000 19.500000 2.500000
v 8.500000 19.500000 2.500000
v 8.500000 24.500000 2.500000
v 8.500000 24.500000 -2.500000
v 8.500000 19.500000 -2.500000
v 3.500000 24.500000 -2.500000
v 8.500000 19.500000 -2.500000
v 3.500000 19.500000 -2.500000
v 3.500000 24.500000 -2.500000
vn 1.0000 -0.0000 -0.0000
vn -1.0000 -0.0000 -0.0000
vn -0.0000 1.0000 -0.0000
vn -0.0000 -1.0000 -0.0000
vn -0.0000 -0.0000 1.0000
vn -0.0000 -0.0000 -1.0000
vt 0.562378 0.359497
vt 0.562378 0.390503
vt 0.531372 0.359497
vt 0.531372 0.390503
vt 0.499878 0.359497
vt 0.499878 0.390503
vt 0.468872 0.359497
vt 0.468872 0.390503
vt 0.500122 0.359253
vt 0.500122 0.328247
vt 0.531128 0.359253
vt 0.531128 0.328247
vt 0.531372 0.328247
vt 0.531372 0.359253
vt 0.562378 0.328247
vt 0.562378 0.359253
vt 0.593628 0.359497
vt 0.593628 0.390503
vt 0.562622 0.359497
vt 0.562622 0.390503
vt 0.531128 0.359497
vt 0.531128 0.390503
vt 0.500122 0.359497
vt 0.500122 0.390503
s 0
usemtl Knight.png
f 253/159/43 254/160/43 255/161/43
f 256/160/43 257/162/43 258/161/43
f 259/163/44 260/164/44 261/165/44
f 262/164/44 263/166/44 264/165/44
f 265/167/45 266/168/45 267/169/45
f 268/168/45 269/170/45 270/169/45
f 271/171/46 272/172/46 273/173/46
f 274/172/46 275/174/46 276/173/46
f 277/175/47 278/176/47 279/177/47
f 280/176/47 281/178/47 282/177/47
f 283/179/48 284/180/48 285/181/48
f 286/180/48 287/182/48 288/181/48
o 17a14e03-8da8-f79a-1e5f-c468de774d4f
v -3.500000 24.500000 2.500000
v -3.500000 19.500000 2.500000
v -3.500000 24.500000 -2.500000
v -3.500000 19.500000 2.500000
v -3.500000 19.500000 -2.500000
v -3.500000 24.500000 -2.500000
v -8.500000 24.500000 -2.500000
v -8.500000 19.500000 -2.500000
v -8.500000 24.500000 2.500000
v -8.500000 19.500000 -2.500000
v -8.500000 19.500000 2.500000
v -8.500000 24.500000 2.500000
v -8.500000 24.500000 -2.500000
v -8.500000 24.500000 2.500000
v -3.500000 24.500000 -2.500000
v -8.500000 24.500000 2.500000
v -3.500000 24.500000 2.500000
v -3.500000 24.500000 -2.500000
v -8.500000 19.500000 2.500000
v -8.500000 19.500000 -2.500000
v -3.500000 19.500000 2.500000
v -8.500000 19.500000 -2.500000
v -3.500000 19.500000 -2.500000
v -3.500000 19.500000 2.500000
v -8.500000 24.500000 2.500000
v -8.500000 19.500000 2.500000
v -3.500000 24.500000 2.500000
v -8.500000 19.500000 2.500000
v -3.500000 19.500000 2.500000
v -3.500000 24.500000 2.500000
v -3.500000 24.500000 -2.500000
v -3.500000 19.500000 -2.500000
v -8.500000 24.500000 -2.500000
v -3.500000 19.500000 -2.500000
v -8.500000 19.500000 -2.500000
v -8.500000 24.500000 -2.500000
vn 1.0000 -0.0000 -0.0000
vn -1.0000 -0.0000 -0.0000
vn -0.0000 1.0000 -0.0000
vn -0.0000 -1.0000 -0.0000
vn -0.0000 -0.0000 1.0000
vn -0.0000 -0.0000 -1.0000
vt 0.468872 0.359497
vt 0.468872 0.390503
vt 0.499878 0.359497
vt 0.499878 0.390503
vt 0.531372 0.359497
vt 0.531372 0.390503
vt 0.562378 0.359497
vt 0.562378 0.390503
vt 0.531128 0.359253
vt 0.531128 0.328247
vt 0.500122 0.359253
vt 0.500122 0.328247
vt 0.562378 0.328247
vt 0.562378 0.359253
vt 0.531372 0.328247
vt 0.531372 0.359253
vt 0.562622 0.359497
vt 0.562622 0.390503
vt 0.593628 0.359497
vt 0.593628 0.390503
vt 0.500122 0.359497
vt 0.500122 0.390503
vt 0.531128 0.359497
vt 0.531128 0.390503
s 0
usemtl Knight.png
f 289/183/49 290/184/49 291/185/49
f 292/184/49 293/186/49 294/185/49
f 295/187/50 296/188/50 297/189/50
f 298/188/50 299/190/50 300/189/50
f 301/191/51 302/192/51 303/193/51
f 304/192/51 305/194/51 306/193/51
f 307/195/52 308/196/52 309/197/52
f 310/196/52 311/198/52 312/197/52
f 313/199/53 314/200/53 315/201/53
f 316/200/53 317/202/53 318/201/53
f 319/203/54 320/204/54 321/205/54
f 322/204/54 323/206/54 324/205/54
o 3a1e80f6-0b22-14e0-36e8-716693c5492c
v 4.000000 7.000000 1.800000
v 4.000000 3.400000 1.800000
v 5.599999 7.000000 1.800000
v 4.000000 3.400000 1.800000
v 5.599999 3.400000 1.800000
v 5.599999 7.000000 1.800000
v 5.600000 7.000000 -1.800000
v 5.600000 3.400000 -1.800000
v 4.000000 7.000000 -1.800000
v 5.600000 3.400000 -1.800000
v 4.000000 3.400000 -1.800000
v 4.000000 7.000000 -1.800000
v 5.600000 7.000000 -1.800000
v 4.000000 7.000000 -1.800000
v 5.599999 7.000000 1.800000
v 4.000000 7.000000 -1.800000
v 4.000000 7.000000 1.800000
v 5.599999 7.000000 1.800000
v 4.000000 3.400000 -1.800000
v 5.600000 3.400000 -1.800000
v 4.000000 3.400000 1.800000
v 5.600000 3.400000 -1.800000
v 5.599999 3.400000 1.800000
v 4.000000 3.400000 1.800000
v 4.000000 7.000000 -1.800000
v 4.000000 3.400000 -1.800000
v 4.000000 7.000000 1.800000
v 4.000000 3.400000 -1.800000
v 4.000000 3.400000 1.800000
v 4.000000 7.000000 1.800000
v 5.599999 7.000000 1.800000
v 5.599999 3.400000 1.800000
v 5.600000 7.000000 -1.800000
v 5.599999 3.400000 1.800000
v 5.600000 3.400000 -1.800000
v 5.600000 7.000000 -1.800000
vn -0.0000 -0.0000 1.0000
vn -0.0000 -0.0000 -1.0000
vn -0.0000 1.0000 -0.0000
vn -0.0000 -1.0000 -0.0000
vn -1.0000 -0.0000 -0.0000
vn 1.0000 -0.0000 -0.0000
vt 0.312378 0.015747
vt 0.312378 0.046753
vt 0.296997 0.015747
vt 0.296997 0.046753
vt 0.265503 0.015747
vt 0.265503 0.046753
vt 0.250122 0.015747
vt 0.250122 0.046753
vt 0.265747 0.015503
vt 0.265747 0.000122
vt 0.296753 0.015503
vt 0.296753 0.000122
vt 0.296997 0.000122
vt 0.296997 0.015503
vt 0.328003 0.000122
vt 0.328003 0.015503
vt 0.343628 0.015747
vt 0.343628 0.046753
vt 0.312622 0.015747
vt 0.312622 0.046753
vt 0.296753 0.015747
vt 0.296753 0.046753
vt 0.265747 0.015747
vt 0.265747 0.046753
s 0
usemtl Knight.png
f 325/207/55 326/208/55 327/209/55
f 328/208/55 329/210/55 330/209/55
f 331/211/56 332/212/56 333/213/56
f 334/212/56 335/214/56 336/213/56
f 337/215/57 338/216/57 339/217/57
f 340/216/57 341/218/57 342/217/57
f 343/219/58 344/220/58 345/221/58
f 346/220/58 347/222/58 348/221/58
f 349/223/59 350/224/59 351/225/59
f 352/224/59 353/226/59 354/225/59
f 355/227/60 356/228/60 357/229/60
f 358/228/60 359/230/60 360/229/60
o 5a8797b5-735e-8621-dcf3-6a0a80ef2464
v 4.000000 7.100000 1.900000
v 4.000000 5.100000 1.900000
v 5.800000 7.100000 1.900000
v 4.000000 5.100000 1.900000
v 5.800000 5.100000 1.900000
v 5.800000 7.100000 1.900000
v 5.800000 7.100000 -1.900000
v 5.800000 5.100000 -1.900000
v 4.000000 7.100000 -1.900001
v 5.800000 5.100000 -1.900000
v 4.000000 5.100000 -1.900001
v 4.000000 7.100000 -1.900001
v 5.800000 7.100000 -1.900000
v 4.000000 7.100000 -1.900001
v 5.800000 7.100000 1.900000
v 4.000000 7.100000 -1.900001
v 4.000000 7.100000 1.900000
v 5.800000 7.100000 1.900000
v 4.000000 5.100000 -1.900001
v 5.800000 5.100000 -1.900000
v 4.000000 5.100000 1.900000
v 5.800000 5.100000 -1.900000
v 5.800000 5.100000 1.900000
v 4.000000 5.100000 1.900000
v 4.000000 7.100000 -1.900001
v 4.000000 5.100000 -1.900001
v 4.000000 7.100000 1.900000
v 4.000000 5.100000 -1.900001
v 4.000000 5.100000 1.900000
v 4.000000 7.100000 1.900000
v 5.800000 7.100000 1.900000
v 5.800000 5.100000 1.900000
v 5.800000 7.100000 -1.900000
v 5.800000 5.100000 1.900000
v 5.800000 5.100000 -1.900000
v 5.800000 7.100000 -1.900000
vn -0.0000 -0.0000 1.0000
vn -0.0000 -0.0000 -1.0000
vn -0.0000 1.0000 -0.0000
vn -0.0000 -1.0000 -0.0000
vn -1.0000 -0.0000 -0.0000
vn 1.0000 -0.0000 -0.0000
vt 0.406128 0.015747
vt 0.406128 0.031128
vt 0.390747 0.015747
vt 0.390747 0.031128
vt 0.359253 0.015747
vt 0.359253 0.031128
vt 0.343872 0.015747
vt 0.343872 0.031128
vt 0.359497 0.015503
vt 0.359497 0.000122
vt 0.390503 0.015503
vt 0.390503 0.000122
vt 0.390747 0.000122
vt 0.390747 0.015503
vt 0.421753 0.000122
vt 0.421753 0.015503
vt 0.437378 0.015747
vt 0.437378 0.031128
vt 0.406372 0.015747
vt 0.406372 0.031128
vt 0.390503 0.015747
vt 0.390503 0.031128
vt 0.359497 0.015747
vt 0.359497 0.031128
s 0
usemtl Knight.png
f 361/231/61 362/232/61 363/233/61
f 364/232/61 365/234/61 366/233/61
f 367/235/62 368/236/62 369/237/62
f 370/236/62 371/238/62 372/237/62
f 373/239/63 374/240/63 375/241/63
f 376/240/63 377/242/63 378/241/63
f 379/243/64 380/244/64 381/245/64
f 382/244/64 383/246/64 384/245/64
f 385/247/65 386/248/65 387/249/65
f 388/248/65 389/250/65 390/249/65
f 391/251/66 392/252/66 393/253/66
f 394/252/66 395/254/66 396/253/66
o bf7a57d1-ce6a-4577-d8cd-2a3ae7245a72
v 4.000000 12.000000 2.000000
v 4.000000 0.000000 2.000000
v 4.000000 12.000000 -2.000000
v 4.000000 0.000000 2.000000
v 4.000000 0.000000 -2.000000
v 4.000000 12.000000 -2.000000
v 0.000000 12.000000 -2.000000
v 0.000000 0.000000 -2.000000
v 0.000000 12.000000 2.000000
v 0.000000 0.000000 -2.000000
v 0.000000 0.000000 2.000000
v 0.000000 12.000000 2.000000
v 0.000000 12.000000 -2.000000
v 0.000000 12.000000 2.000000
v 4.000000 12.000000 -2.000000
v 0.000000 12.000000 2.000000
v 4.000000 12.000000 2.000000
v 4.000000 12.000000 -2.000000
v 0.000000 0.000000 2.000000
v 0.000000 0.000000 -2.000000
v 4.000000 0.000000 2.000000
v 0.000000 0.000000 -2.000000
v 4.000000 0.000000 -2.000000
v 4.000000 0.000000 2.000000
v 0.000000 12.000000 2.000000
v 0.000000 0.000000 2.000000
v 4.000000 12.000000 2.000000
v 0.000000 0.000000 2.000000
v 4.000000 0.000000 2.000000
v 4.000000 12.000000 2.000000
v 4.000000 12.000000 -2.000000
v 4.000000 0.000000 -2.000000
v 0.000000 12.000000 -2.000000
v 4.000000 0.000000 -2.000000
v 0.000000 0.000000 -2.000000
v 0.000000 12.000000 -2.000000
vn 1.0000 -0.0000 -0.0000
vn -1.0000 -0.0000 -0.0000
vn -0.0000 1.0000 -0.0000
vn -0.0000 -1.0000 -0.0000
vn -0.0000 -0.0000 1.0000
vn -0.0000 -0.0000 -1.0000
vt 0.312378 0.390747
vt 0.312378 0.484253
vt 0.281372 0.390747
vt 0.281372 0.484253
vt 0.249878 0.390747
vt 0.249878 0.484253
vt 0.218872 0.390747
vt 0.218872 0.484253
vt 0.250122 0.390503
vt 0.250122 0.359497
vt 0.281128 0.390503
vt 0.281128 0.359497
vt 0.281372 0.359497
vt 0.281372 0.390503
vt 0.312378 0.359497
vt 0.312378 0.390503
vt 0.343628 0.390747
vt 0.343628 0.484253
vt 0.312622 0.390747
vt 0.312622 0.484253
vt 0.281128 0.390747
vt 0.281128 0.484253
vt 0.250122 0.390747
vt 0.250122 0.484253
s 0
usemtl Knight.png
f 397/255/67 398/256/67 399/257/67
f 400/256/67 401/258/67 402/257/67
f 403/259/68 404/260/68 405/261/68
f 406/260/68 407/262/68 408/261/68
f 409/263/69 410/264/69 411/265/69
f 412/264/69 413/266/69 414/265/69
f 415/267/70 416/268/70 417/269/70
f 418/268/70 419/270/70 420/269/70
f 421/271/71 422/272/71 423/273/71
f 424/272/71 425/274/71 426/273/71
f 427/275/72 428/276/72 429/277/72
f 430/276/72 431/278/72 432/277/72
o 99f000cd-4f59-2f50-d92f-d494e583ebb5
v -4.000000 7.000000 -1.800000
v -4.000000 3.400000 -1.800000
v -5.600000 7.000000 -1.800000
v -4.000000 3.400000 -1.800000
v -5.600000 3.400000 -1.800000
v -5.600000 7.000000 -1.800000
v -5.599999 7.000000 1.800000
v -5.599999 3.400000 1.800000
v -4.000000 7.000000 1.800000
v -5.599999 3.400000 1.800000
v -4.000000 3.400000 1.800000
v -4.000000 7.000000 1.800000
v -5.599999 7.000000 1.800000
v -4.000000 7.000000 1.800000
v -5.600000 7.000000 -1.800000
v -4.000000 7.000000 1.800000
v -4.000000 7.000000 -1.800000
v -5.600000 7.000000 -1.800000
v -4.000000 3.400000 1.800000
v -5.599999 3.400000 1.800000
v -4.000000 3.400000 -1.800000
v -5.599999 3.400000 1.800000
v -5.600000 3.400000 -1.800000
v -4.000000 3.400000 -1.800000
v -4.000000 7.000000 1.800000
v -4.000000 3.400000 1.800000
v -4.000000 7.000000 -1.800000
v -4.000000 3.400000 1.800000
v -4.000000 3.400000 -1.800000
v -4.000000 7.000000 -1.800000
v -5.600000 7.000000 -1.800000
v -5.600000 3.400000 -1.800000
v -5.599999 7.000000 1.800000
v -5.600000 3.400000 -1.800000
v -5.599999 3.400000 1.800000
v -5.599999 7.000000 1.800000
vn -0.0000 -0.0000 -1.0000
vn -0.0000 -0.0000 1.0000
vn -0.0000 1.0000 -0.0000
vn -0.0000 -1.0000 -0.0000
vn 1.0000 -0.0000 -0.0000
vn -1.0000 -0.0000 -0.0000
vt 0.312378 0.015747
vt 0.312378 0.046753
vt 0.296997 0.015747
vt 0.296997 0.046753
vt 0.265503 0.015747
vt 0.265503 0.046753
vt 0.250122 0.015747
vt 0.250122 0.046753
vt 0.265747 0.015503
vt 0.265747 0.000122
vt 0.296753 0.015503
vt 0.296753 0.000122
vt 0.296997 0.000122
vt 0.296997 0.015503
vt 0.328003 0.000122
vt 0.328003 0.015503
vt 0.343628 0.015747
vt 0.343628 0.046753
vt 0.312622 0.015747
vt 0.312622 0.046753
vt 0.296753 0.015747
vt 0.296753 0.046753
vt 0.265747 0.015747
vt 0.265747 0.046753
s 0
usemtl Knight.png
f 433/279/73 434/280/73 435/281/73
f 436/280/73 437/282/73 438/281/73
f 439/283/74 440/284/74 441/285/74
f 442/284/74 443/286/74 444/285/74
f 445/287/75 446/288/75 447/289/75
f 448/288/75 449/290/75 450/289/75
f 451/291/76 452/292/76 453/293/76
f 454/292/76 455/294/76 456/293/76
f 457/295/77 458/296/77 459/297/77
f 460/296/77 461/298/77 462/297/77
f 463/299/78 464/300/78 465/301/78
f 466/300/78 467/302/78 468/301/78
o 936fb4ce-687b-aa7e-00c5-842b48e6e9a0
v -4.000000 7.100000 -1.900000
v -4.000000 5.100000 -1.900000
v -5.800000 7.100000 -1.900000
v -4.000000 5.100000 -1.900000
v -5.800000 5.100000 -1.900000
v -5.800000 7.100000 -1.900000
v -5.800000 7.100000 1.900001
v -5.800000 5.100000 1.900001
v -4.000000 7.100000 1.900000
v -5.800000 5.100000 1.900001
v -4.000000 5.100000 1.900000
v -4.000000 7.100000 1.900000
v -5.800000 7.100000 1.900001
v -4.000000 7.100000 1.900000
v -5.800000 7.100000 -1.900000
v -4.000000 7.100000 1.900000
v -4.000000 7.100000 -1.900000
v -5.800000 7.100000 -1.900000
v -4.000000 5.100000 1.900000
v -5.800000 5.100000 1.900001
v -4.000000 5.100000 -1.900000
v -5.800000 5.100000 1.900001
v -5.800000 5.100000 -1.900000
v -4.000000 5.100000 -1.900000
v -4.000000 7.100000 1.900000
v -4.000000 5.100000 1.900000
v -4.000000 7.100000 -1.900000
v -4.000000 5.100000 1.900000
v -4.000000 5.100000 -1.900000
v -4.000000 7.100000 -1.900000
v -5.800000 7.100000 -1.900000
v -5.800000 5.100000 -1.900000
v -5.800000 7.100000 1.900001
v -5.800000 5.100000 -1.900000
v -5.800000 5.100000 1.900001
v -5.800000 7.100000 1.900001
vn -0.0000 -0.0000 -1.0000
vn -0.0000 -0.0000 1.0000
vn -0.0000 1.0000 -0.0000
vn -0.0000 -1.0000 -0.0000
vn 1.0000 -0.0000 -0.0000
vn -1.0000 -0.0000 -0.0000
vt 0.406128 0.015747
vt 0.406128 0.031128
vt 0.390747 0.015747
vt 0.390747 0.031128
vt 0.359253 0.015747
vt 0.359253 0.031128
vt 0.343872 0.015747
vt 0.343872 0.031128
vt 0.359497 0.015503
vt 0.359497 0.000122
vt 0.390503 0.015503
vt 0.390503 0.000122
vt 0.390747 0.000122
vt 0.390747 0.015503
vt 0.421753 0.000122
vt 0.421753 0.015503
vt 0.437378 0.015747
vt 0.437378 0.031128
vt 0.406372 0.015747
vt 0.406372 0.031128
vt 0.390503 0.015747
vt 0.390503 0.031128
vt 0.359497 0.015747
vt 0.359497 0.031128
s 0
usemtl Knight.png
f 469/303/79 470/304/79 471/305/79
f 472/304/79 473/306/79 474/305/79
f 475/307/80 476/308/80 477/309/80
f 478/308/80 479/310/80 480/309/80
f 481/311/81 482/312/81 483/313/81
f 484/312/81 485/314/81 486/313/81
f 487/315/82 488/316/82 489/317/82
f 490/316/82 491/318/82 492/317/82
f 493/319/83 494/320/83 495/321/83
f 496/320/83 497/322/83 498/321/83
f 499/323/84 500/324/84 501/325/84
f 502/324/84 503/326/84 504/325/84
o 2afa42cc-fd5f-f7bb-fa95-bbedb2c1648f
v 0.000000 12.000000 2.000000
v 0.000000 0.000000 2.000000
v 0.000000 12.000000 -2.000000
v 0.000000 0.000000 2.000000
v 0.000000 0.000000 -2.000000
v 0.000000 12.000000 -2.000000
v -4.000000 12.000000 -2.000000
v -4.000000 0.000000 -2.000000
v -4.000000 12.000000 2.000000
v -4.000000 0.000000 -2.000000
v -4.000000 0.000000 2.000000
v -4.000000 12.000000 2.000000
v -4.000000 12.000000 -2.000000
v -4.000000 12.000000 2.000000
v 0.000000 12.000000 -2.000000
v -4.000000 12.000000 2.000000
v 0.000000 12.000000 2.000000
v 0.000000 12.000000 -2.000000
v -4.000000 0.000000 2.000000
v -4.000000 0.000000 -2.000000
v 0.000000 0.000000 2.000000
v -4.000000 0.000000 -2.000000
v 0.000000 0.000000 -2.000000
v 0.000000 0.000000 2.000000
v -4.000000 12.000000 2.000000
v -4.000000 0.000000 2.000000
v 0.000000 12.000000 2.000000
v -4.000000 0.000000 2.000000
v 0.000000 0.000000 2.000000
v 0.000000 12.000000 2.000000
v 0.000000 12.000000 -2.000000
v 0.000000 0.000000 -2.000000
v -4.000000 12.000000 -2.000000
v 0.000000 0.000000 -2.000000
v -4.000000 0.000000 -2.000000
v -4.000000 12.000000 -2.000000
vn 1.0000 -0.0000 -0.0000
vn -1.0000 -0.0000 -0.0000
vn -0.0000 1.0000 -0.0000
vn -0.0000 -1.0000 -0.0000
vn -0.0000 -0.0000 1.0000
vn -0.0000 -0.0000 -1.0000
vt 0.312378 0.390747
vt 0.312378 0.484253
vt 0.281372 0.390747
vt 0.281372 0.484253
vt 0.249878 0.390747
vt 0.249878 0.484253
vt 0.218872 0.390747
vt 0.218872 0.484253
vt 0.250122 0.390503
vt 0.250122 0.359497
vt 0.281128 0.390503
vt 0.281128 0.359497
vt 0.281372 0.359497
vt 0.281372 0.390503
vt 0.312378 0.359497
vt 0.312378 0.390503
vt 0.343628 0.390747
vt 0.343628 0.484253
vt 0.312622 0.390747
vt 0.312622 0.484253
vt 0.281128 0.390747
vt 0.281128 0.484253
vt 0.250122 0.390747
vt 0.250122 0.484253
s 0
usemtl Knight.png
f 505/327/85 506/328/85 507/329/85
f 508/328/85 509/330/85 510/329/85
f 511/331/86 512/332/86 513/333/86
f 514/332/86 515/334/86 516/333/86
f 517/335/87 518/336/87 519/337/87
f 520/336/87 521/338/87 522/337/87
f 523/339/88 524/340/88 525/341/88
f 526/340/88 527/342/88 528/341/88
f 529/343/89 530/344/89 531/345/89
f 532/344/89 533/346/89 534/345/89
f 535/347/90 536/348/90 537/349/90
f 538/348/90 539/350/90 540/349/90
o 201d15e9-6563-fc53-4d60-0aa23ecfe3a2
v 8.000000 24.000000 2.000000
v 8.000000 12.000000 2.000000
v 8.000000 24.000000 -2.000000
v 8.000000 12.000000 2.000000
v 8.000000 12.000000 -2.000000
v 8.000000 24.000000 -2.000000
v 4.000000 24.000000 -2.000000
v 4.000000 12.000000 -2.000000
v 4.000000 24.000000 2.000000
v 4.000000 12.000000 -2.000000
v 4.000000 12.000000 2.000000
v 4.000000 24.000000 2.000000
v 4.000000 24.000000 -2.000000
v 4.000000 24.000000 2.000000
v 8.000000 24.000000 -2.000000
v 4.000000 24.000000 2.000000
v 8.000000 24.000000 2.000000
v 8.000000 24.000000 -2.000000
v 4.000000 12.000000 2.000000
v 4.000000 12.000000 -2.000000
v 8.000000 12.000000 2.000000
v 4.000000 12.000000 -2.000000
v 8.000000 12.000000 -2.000000
v 8.000000 12.000000 2.000000
v 4.000000 24.000000 2.000000
v 4.000000 12.000000 2.000000
v 8.000000 24.000000 2.000000
v 4.000000 12.000000 2.000000
v 8.000000 12.000000 2.000000
v 8.000000 24.000000 2.000000
v 8.000000 24.000000 -2.000000
v 8.000000 12.000000 -2.000000
v 4.000000 24.000000 -2.000000
v 8.000000 12.000000 -2.000000
v 4.000000 12.000000 -2.000000
v 4.000000 24.000000 -2.000000
vn 1.0000 -0.0000 -0.0000
vn -1.0000 -0.0000 -0.0000
vn -0.0000 1.0000 -0.0000
vn -0.0000 -1.0000 -0.0000
vn -0.0000 -0.0000 1.0000
vn -0.0000 -0.0000 -1.0000
vt 0.375122 0.390747
vt 0.375122 0.484253
vt 0.406128 0.390747
vt 0.406128 0.484253
vt 0.437622 0.390747
vt 0.437622 0.484253
vt 0.468628 0.390747
vt 0.468628 0.484253
vt 0.437378 0.390503
vt 0.437378 0.359497
vt 0.406372 0.390503
vt 0.406372 0.359497
vt 0.468628 0.359497
vt 0.468628 0.390503
vt 0.437622 0.359497
vt 0.437622 0.390503
vt 0.468872 0.390747
vt 0.468872 0.484253
vt 0.499878 0.390747
vt 0.499878 0.484253
vt 0.406372 0.390747
vt 0.406372 0.484253
vt 0.437378 0.390747
vt 0.437378 0.484253
s 0
usemtl Knight.png
f 541/351/91 542/352/91 543/353/91
f 544/352/91 545/354/91 546/353/91
f 547/355/92 548/356/92 549/357/92
f 550/356/92 551/358/92 552/357/92
f 553/359/93 554/360/93 555/361/93
f 556/360/93 557/362/93 558/361/93
f 559/363/94 560/364/94 561/365/94
f 562/364/94 563/366/94 564/365/94
f 565/367/95 566/368/95 567/369/95
f 568/368/95 569/370/95 570/369/95
f 571/371/96 572/372/96 573/373/96
f 574/372/96 575/374/96 576/373/96
o 7ec4c6b6-1ef2-6a4b-4f59-9e92653f88f8
v 8.000000 24.000000 2.000000
v 8.000000 20.000000 2.000000
v 8.000000 24.000000 -2.000000
v 8.000000 20.000000 2.000000
v 8.000000 20.000000 -2.000000
v 8.000000 24.000000 -2.000000
v 4.000000 24.000000 -2.000000
v 4.000000 20.000000 -2.000000
v 4.000000 24.000000 2.000000
v 4.000000 20.000000 -2.000000
v 4.000000 20.000000 2.000000
v 4.000000 24.000000 2.000000
v 4.000000 24.000000 -2.000000
v 4.000000 24.000000 2.000000
v 8.000000 24.000000 -2.000000
v 4.000000 24.000000 2.000000
v 8.000000 24.000000 2.000000
v 8.000000 24.000000 -2.000000
v 4.000000 20.000000 2.000000
v 4.000000 20.000000 -2.000000
v 8.000000 20.000000 2.000000
v 4.000000 20.000000 -2.000000
v 8.000000 20.000000 -2.000000
v 8.000000 20.000000 2.000000
v 4.000000 24.000000 2.000000
v 4.000000 20.000000 2.000000
v 8.000000 24.000000 2.000000
v 4.000000 20.000000 2.000000
v 8.000000 20.000000 2.000000
v 8.000000 24.000000 2.000000
v 8.000000 24.000000 -2.000000
v 8.000000 20.000000 -2.000000
v 4.000000 24.000000 -2.000000
v 8.000000 20.000000 -2.000000
v 4.000000 20.000000 -2.000000
v 4.000000 24.000000 -2.000000
vn 1.0000 -0.0000 -0.0000
vn -1.0000 -0.0000 -0.0000
vn -0.0000 1.0000 -0.0000
vn -0.0000 -1.0000 -0.0000
vn -0.0000 -0.0000 1.0000
vn -0.0000 -0.0000 -1.0000
vt 0.218872 0.265747
vt 0.218872 0.296753
vt 0.249878 0.265747
vt 0.249878 0.296753
vt 0.281372 0.265747
vt 0.281372 0.296753
vt 0.312378 0.265747
vt 0.312378 0.296753
vt 0.281128 0.265503
vt 0.281128 0.234497
vt 0.250122 0.265503
vt 0.250122 0.234497
vt 0.312378 0.234497
vt 0.312378 0.265503
vt 0.281372 0.234497
vt 0.281372 0.265503
vt 0.312622 0.265747
vt 0.312622 0.296753
vt 0.343628 0.265747
vt 0.343628 0.296753
vt 0.250122 0.265747
vt 0.250122 0.296753
vt 0.281128 0.265747
vt 0.281128 0.296753
s 0
usemtl Knight.png
f 577/375/97 578/376/97 579/377/97
f 580/376/97 581/378/97 582/377/97
f 583/379/98 584/380/98 585/381/98
f 586/380/98 587/382/98 588/381/98
f 589/383/99 590/384/99 591/385/99
f 592/384/99 593/386/99 594/385/99
f 595/387/100 596/388/100 597/389/100
f 598/388/100 599/390/100 600/389/100
f 601/391/101 602/392/101 603/393/101
f 604/392/101 605/394/101 606/393/101
f 607/395/102 608/396/102 609/397/102
f 610/396/102 611/398/102 612/397/102
o 5e819a2e-5077-cfc1-8202-c7eaff628f2e
v 8.500000 24.500000 2.500000
v 8.500000 19.500000 2.500000
v 8.500000 24.500000 -2.500000
v 8.500000 19.500000 2.500000
v 8.500000 19.500000 -2.500000
v 8.500000 24.500000 -2.500000
v 3.500000 24.500000 -2.500000
v 3.500000 19.500000 -2.500000
v 3.500000 24.500000 2.500000
v 3.500000 19.500000 -2.500000
v 3.500000 19.500000 2.500000
v 3.500000 24.500000 2.500000
v 3.500000 24.500000 -2.500000
v 3.500000 24.500000 2.500000
v 8.500000 24.500000 -2.500000
v 3.500000 24.500000 2.500000
v 8.500000 24.500000 2.500000
v 8.500000 24.500000 -2.500000
v 3.500000 19.500000 2.500000
v 3.500000 19.500000 -2.500000
v 8.500000 19.500000 2.500000
v 3.500000 19.500000 -2.500000
v 8.500000 19.500000 -2.500000
v 8.500000 19.500000 2.500000
v 3.500000 24.500000 2.500000
v 3.500000 19.500000 2.500000
v 8.500000 24.500000 2.500000
v 3.500000 19.500000 2.500000
v 8.500000 19.500000 2.500000
v 8.500000 24.500000 2.500000
v 8.500000 24.500000 -2.500000
v 8.500000 19.500000 -2.500000
v 3.500000 24.500000 -2.500000
v 8.500000 19.500000 -2.500000
v 3.500000 19.500000 -2.500000
v 3.500000 24.500000 -2.500000
vn 1.0000 -0.0000 -0.0000
vn -1.0000 -0.0000 -0.0000
vn -0.0000 1.0000 -0.0000
vn -0.0000 -1.0000 -0.0000
vn -0.0000 -0.0000 1.0000
vn -0.0000 -0.0000 -1.0000
vt 0.562378 0.359497
vt 0.562378 0.390503
vt 0.531372 0.359497
vt 0.531372 0.390503
vt 0.499878 0.359497
vt 0.499878 0.390503
vt 0.468872 0.359497
vt 0.468872 0.390503
vt 0.500122 0.359253
vt 0.500122 0.328247
vt 0.531128 0.359253
vt 0.531128 0.328247
vt 0.531372 0.328247
vt 0.531372 0.359253
vt 0.562378 0.328247
vt 0.562378 0.359253
vt 0.593628 0.359497
vt 0.593628 0.390503
vt 0.562622 0.359497
vt 0.562622 0.390503
vt 0.531128 0.359497
vt 0.531128 0.390503
vt 0.500122 0.359497
vt 0.500122 0.390503
s 0
usemtl Knight.png
f 613/399/103 614/400/103 615/401/103
f 616/400/103 617/402/103 618/401/103
f 619/403/104 620/404/104 621/405/104
f 622/404/104 623/406/104 624/405/104
f 625/407/105 626/408/105 627/409/105
f 628/408/105 629/410/105 630/409/105
f 631/411/106 632/412/106 633/413/106
f 634/412/106 635/414/106 636/413/106
f 637/415/107 638/416/107 639/417/107
f 640/416/107 641/418/107 642/417/107
f 643/419/108 644/420/108 645/421/108
f 646/420/108 647/422/108 648/421/108
o 025b074a-e5e8-3820-fc6a-14da8a5ac8b3
v -4.000000 24.000000 2.000000
v -4.000000 12.000000 2.000000
v -4.000000 24.000000 -2.000000
v -4.000000 12.000000 2.000000
v -4.000000 12.000000 -2.000000
v -4.000000 24.000000 -2.000000
v -8.000000 24.000000 -2.000000
v -8.000000 12.000000 -2.000000
v -8.000000 24.000000 2.000000
v -8.000000 12.000000 -2.000000
v -8.000000 12.000000 2.000000
v -8.000000 24.000000 2.000000
v -8.000000 24.000000 -2.000000
v -8.000000 24.000000 2.000000
v -4.000000 24.000000 -2.000000
v -8.000000 24.000000 2.000000
v -4.000000 24.000000 2.000000
v -4.000000 24.000000 -2.000000
v -8.000000 12.000000 2.000000
v -8.000000 12.000000 -2.000000
v -4.000000 12.000000 2.000000
v -8.000000 12.000000 -2.000000
v -4.000000 12.000000 -2.000000
v -4.000000 12.000000 2.000000
v -8.000000 24.000000 2.000000
v -8.000000 12.000000 2.000000
v -4.000000 24.000000 2.000000
v -8.000000 12.000000 2.000000
v -4.000000 12.000000 2.000000
v -4.000000 24.000000 2.000000
v -4.000000 24.000000 -2.000000
v -4.000000 12.000000 -2.000000
v -8.000000 24.000000 -2.000000
v -4.000000 12.000000 -2.000000
v -8.000000 12.000000 -2.000000
v -8.000000 24.000000 -2.000000
vn 1.0000 -0.0000 -0.0000
vn -1.0000 -0.0000 -0.0000
vn -0.0000 1.0000 -0.0000
vn -0.0000 -1.0000 -0.0000
vn -0.0000 -0.0000 1.0000
vn -0.0000 -0.0000 -1.0000
vt 0.468628 0.390747
vt 0.468628 0.484253
vt 0.437622 0.390747
vt 0.437622 0.484253
vt 0.406128 0.390747
vt 0.406128 0.484253
vt 0.375122 0.390747
vt 0.375122 0.484253
vt 0.406372 0.390503
vt 0.406372 0.359497
vt 0.437378 0.390503
vt 0.437378 0.359497
vt 0.437622 0.359497
vt 0.437622 0.390503
vt 0.468628 0.359497
vt 0.468628 0.390503
vt 0.499878 0.390747
vt 0.499878 0.484253
vt 0.468872 0.390747
vt 0.468872 0.484253
vt 0.437378 0.390747
vt 0.437378 0.484253
vt 0.406372 0.390747
vt 0.406372 0.484253
s 0
usemtl Knight.png
f 649/423/109 650/424/109 651/425/109
f 652/424/109 653/426/109 654/425/109
f 655/427/110 656/428/110 657/429/110
f 658/428/110 659/430/110 660/429/110
f 661/431/111 662/432/111 663/433/111
f 664/432/111 665/434/111 666/433/111
f 667/435/112 668/436/112 669/437/112
f 670/436/112 671/438/112 672/437/112
f 673/439/113 674/440/113 675/441/113
f 676/440/113 677/442/113 678/441/113
f 679/443/114 680/444/114 681/445/114
f 682/444/114 683/446/114 684/445/114
o a92bff52-73b2-502a-b442-7cf05dbd1f58
v -4.000000 24.000000 2.000000
v -4.000000 20.000000 2.000000
v -4.000000 24.000000 -2.000000
v -4.000000 20.000000 2.000000
v -4.000000 20.000000 -2.000000
v -4.000000 24.000000 -2.000000
v -8.000000 24.000000 -2.000000
v -8.000000 20.000000 -2.000000
v -8.000000 24.000000 2.000000
v -8.000000 20.000000 -2.000000
v -8.000000 20.000000 2.000000
v -8.000000 24.000000 2.000000
v -8.000000 24.000000 -2.000000
v -8.000000 24.000000 2.000000
v -4.000000 24.000000 -2.000000
v -8.000000 24.000000 2.000000
v -4.000000 24.000000 2.000000
v -4.000000 24.000000 -2.000000
v -8.000000 20.000000 2.000000
v -8.000000 20.000000 -2.000000
v -4.000000 20.000000 2.000000
v -8.000000 20.000000 -2.000000
v -4.000000 20.000000 -2.000000
v -4.000000 20.000000 2.000000
v -8.000000 24.000000 2.000000
v -8.000000 20.000000 2.000000
v -4.000000 24.000000 2.000000
v -8.000000 20.000000 2.000000
v -4.000000 20.000000 2.000000
v -4.000000 24.000000 2.000000
v -4.000000 24.000000 -2.000000
v -4.000000 20.000000 -2.000000
v -8.000000 24.000000 -2.000000
v -4.000000 20.000000 -2.000000
v -8.000000 20.000000 -2.000000
v -8.000000 24.000000 -2.000000
vn 1.0000 -0.0000 -0.0000
vn -1.0000 -0.0000 -0.0000
vn -0.0000 1.0000 -0.0000
vn -0.0000 -1.0000 -0.0000
vn -0.0000 -0.0000 1.0000
vn -0.0000 -0.0000 -1.0000
vt 0.312378 0.265747
vt 0.312378 0.296753
vt 0.281372 0.265747
vt 0.281372 0.296753
vt 0.249878 0.265747
vt 0.249878 0.296753
vt 0.218872 0.265747
vt 0.218872 0.296753
vt 0.250122 0.265503
vt 0.250122 0.234497
vt 0.281128 0.265503
vt 0.281128 0.234497
vt 0.281372 0.234497
vt 0.281372 0.265503
vt 0.312378 0.234497
vt 0.312378 0.265503
vt 0.343628 0.265747
vt 0.343628 0.296753
vt 0.312622 0.265747
vt 0.312622 0.296753
vt 0.281128 0.265747
vt 0.281128 0.296753
vt 0.250122 0.265747
vt 0.250122 0.296753
s 0
usemtl Knight.png
f 685/447/115 686/448/115 687/449/115
f 688/448/115 689/450/115 690/449/115
f 691/451/116 692/452/116 693/453/116
f 694/452/116 695/454/116 696/453/116
f 697/455/117 698/456/117 699/457/117
f 700/456/117 701/458/117 702/457/117
f 703/459/118 704/460/118 705/461/118
f 706/460/118 707/462/118 708/461/118
f 709/463/119 710/464/119 711/465/119
f 712/464/119 713/466/119 714/465/119
f 715/467/120 716/468/120 717/469/120
f 718/468/120 719/470/120 720/469/120
o adaa5220-ad5d-0805-dc7e-304198ed9dc0
v -3.500000 24.500000 2.500000
v -3.500000 19.500000 2.500000
v -3.500000 24.500000 -2.500000
v -3.500000 19.500000 2.500000
v -3.500000 19.500000 -2.500000
v -3.500000 24.500000 -2.500000
v -8.500000 24.500000 -2.500000
v -8.500000 19.500000 -2.500000
v -8.500000 24.500000 2.500000
v -8.500000 19.500000 -2.500000
v -8.500000 19.500000 2.500000
v -8.500000 24.500000 2.500000
v -8.500000 24.500000 -2.500000
v -8.500000 24.500000 2.500000
v -3.500000 24.500000 -2.500000
v -8.500000 24.500000 2.500000
v -3.500000 24.500000 2.500000
v -3.500000 24.500000 -2.500000
v -8.500000 19.500000 2.500000
v -8.500000 19.500000 -2.500000
v -3.500000 19.500000 2.500000
v -8.500000 19.500000 -2.500000
v -3.500000 19.500000 -2.500000
v -3.500000 19.500000 2.500000
v -8.500000 24.500000 2.500000
v -8.500000 19.500000 2.500000
v -3.500000 24.500000 2.500000
v -8.500000 19.500000 2.500000
v -3.500000 19.500000 2.500000
v -3.500000 24.500000 2.500000
v -3.500000 24.500000 -2.500000
v -3.500000 19.500000 -2.500000
v -8.500000 24.500000 -2.500000
v -3.500000 19.500000 -2.500000
v -8.500000 19.500000 -2.500000
v -8.500000 24.500000 -2.500000
vn 1.0000 -0.0000 -0.0000
vn -1.0000 -0.0000 -0.0000
vn -0.0000 1.0000 -0.0000
vn -0.0000 -1.0000 -0.0000
vn -0.0000 -0.0000 1.0000
vn -0.0000 -0.0000 -1.0000
vt 0.468872 0.359497
vt 0.468872 0.390503
vt 0.499878 0.359497
vt 0.499878 0.390503
vt 0.531372 0.359497
vt 0.531372 0.390503
vt 0.562378 0.359497
vt 0.562378 0.390503
vt 0.531128 0.359253
vt 0.531128 0.328247
vt 0.500122 0.359253
vt 0.500122 0.328247
vt 0.562378 0.328247
vt 0.562378 0.359253
vt 0.531372 0.328247
vt 0.531372 0.359253
vt 0.562622 0.359497
vt 0.562622 0.390503
vt 0.593628 0.359497
vt 0.593628 0.390503
vt 0.500122 0.359497
vt 0.500122 0.390503
vt 0.531128 0.359497
vt 0.531128 0.390503
s 0
usemtl Knight.png
f 721/471/121 722/472/121 723/473/121
f 724/472/121 725/474/121 726/473/121
f 727/475/122 728/476/122 729/477/122
f 730/476/122 731/478/122 732/477/122
f 733/479/123 734/480/123 735/481/123
f 736/480/123 737/482/123 738/481/123
f 739/483/124 740/484/124 741/485/124
f 742/484/124 743/486/124 744/485/124
f 745/487/125 746/488/125 747/489/125
f 748/488/125 749/490/125 750/489/125
f 751/491/126 752/492/126 753/493/126
f 754/492/126 755/494/126 756/493/126
o b6e41353-03be-3c15-3f5e-f1fdbe625102
v 4.000000 24.000000 3.000000
v 4.000000 12.000000 3.000000
v 4.000000 24.000000 -3.000000
v 4.000000 12.000000 3.000000
v 4.000000 12.000000 -3.000000
v 4.000000 24.000000 -3.000000
v -4.000000 24.000000 -3.000000
v -4.000000 12.000000 -3.000000
v -4.000000 24.000000 3.000000
v -4.000000 12.000000 -3.000000
v -4.000000 12.000000 3.000000
v -4.000000 24.000000 3.000000
v -4.000000 24.000000 -3.000000
v -4.000000 24.000000 3.000000
v 4.000000 24.000000 -3.000000
v -4.000000 24.000000 3.000000
v 4.000000 24.000000 3.000000
v 4.000000 24.000000 -3.000000
v -4.000000 12.000000 3.000000
v -4.000000 12.000000 -3.000000
v 4.000000 12.000000 3.000000
v -4.000000 12.000000 -3.000000
v 4.000000 12.000000 -3.000000
v 4.000000 12.000000 3.000000
v -4.000000 24.000000 3.000000
v -4.000000 12.000000 3.000000
v 4.000000 24.000000 3.000000
v -4.000000 12.000000 3.000000
v 4.000000 12.000000 3.000000
v 4.000000 24.000000 3.000000
v 4.000000 24.000000 -3.000000
v 4.000000 12.000000 -3.000000
v -4.000000 24.000000 -3.000000
v 4.000000 12.000000 -3.000000
v -4.000000 12.000000 -3.000000
v -4.000000 24.000000 -3.000000
vn 1.0000 -0.0000 -0.0000
vn -1.0000 -0.0000 -0.0000
vn -0.0000 1.0000 -0.0000
vn -0.0000 -1.0000 -0.0000
vn -0.0000 -0.0000 1.0000
vn -0.0000 -0.0000 -1.0000
vt 0.000122 0.203247
vt 0.000122 0.296753
vt 0.046753 0.203247
vt 0.046753 0.296753
vt 0.109497 0.203247
vt 0.109497 0.296753
vt 0.156128 0.203247
vt 0.156128 0.296753
vt 0.109253 0.203003
vt 0.109253 0.156372
vt 0.046997 0.203003
vt 0.046997 0.156372
vt 0.171753 0.156372
vt 0.171753 0.203003
vt 0.109497 0.156372
vt 0.109497 0.203003
vt 0.156372 0.203247
vt 0.156372 0.296753
vt 0.218628 0.203247
vt 0.218628 0.296753
vt 0.046997 0.203247
vt 0.046997 0.296753
vt 0.109253 0.203247
vt 0.109253 0.296753
s 0
usemtl Knight.png
f 757/495/127 758/496/127 759/497/127
f 760/496/127 761/498/127 762/497/127
f 763/499/128 764/500/128 765/501/128
f 766/500/128 767/502/128 768/501/128
f 769/503/129 770/504/129 771/505/129
f 772/504/129 773/506/129 774/505/129
f 775/507/130 776/508/130 777/509/130
f 778/508/130 779/510/130 780/509/130
f 781/511/131 782/512/131 783/513/131
f 784/512/131 785/514/131 786/513/131
f 787/515/132 788/516/132 789/517/132
f 790/516/132 791/518/132 792/517/132
o 56b0fed8-3864-3204-094c-546286527bac
v 4.200000 24.200001 3.200000
v 4.200000 7.800000 3.200000
v 4.200000 24.200001 -3.200000
v 4.200000 7.800000 3.200000
v 4.200000 7.800000 -3.200000
v 4.200000 24.200001 -3.200000
v -4.200000 24.200001 -3.200000
v -4.200000 7.800000 -3.200000
v -4.200000 24.200001 3.200000
v -4.200000 7.800000 -3.200000
v -4.200000 7.800000 3.200000
v -4.200000 24.200001 3.200000
v -4.200000 24.200001 -3.200000
v -4.200000 24.200001 3.200000
v 4.200000 24.200001 -3.200000
v -4.200000 24.200001 3.200000
v 4.200000 24.200001 3.200000
v 4.200000 24.200001 -3.200000
v -4.200000 7.800000 3.200000
v -4.200000 7.800000 -3.200000
v 4.200000 7.800000 3.200000
v -4.200000 7.800000 -3.200000
v 4.200000 7.800000 -3.200000
v 4.200000 7.800000 3.200000
v -4.200000 24.200001 3.200000
v -4.200000 7.800000 3.200000
v 4.200000 24.200001 3.200000
v -4.200000 7.800000 3.200000
v 4.200000 7.800000 3.200000
v 4.200000 24.200001 3.200000
v 4.200000 24.200001 -3.200000
v 4.200000 7.800000 -3.200000
v -4.200000 24.200001 -3.200000
v 4.200000 7.800000 -3.200000
v -4.200000 7.800000 -3.200000
v -4.200000 24.200001 -3.200000
vn 1.0000 -0.0000 -0.0000
vn -1.0000 -0.0000 -0.0000
vn -0.0000 1.0000 -0.0000
vn -0.0000 -1.0000 -0.0000
vn -0.0000 -0.0000 1.0000
vn -0.0000 -0.0000 -1.0000
vt 0.000122 0.343872
vt 0.000122 0.468628
vt 0.046753 0.343872
vt 0.046753 0.468628
vt 0.109497 0.343872
vt 0.109497 0.468628
vt 0.156128 0.343872
vt 0.156128 0.468628
vt 0.109253 0.343628
vt 0.109253 0.296997
vt 0.046997 0.343628
vt 0.046997 0.296997
vt 0.171753 0.296997
vt 0.171753 0.343628
vt 0.109497 0.296997
vt 0.109497 0.343628
vt 0.156372 0.343872
vt 0.156372 0.468628
vt 0.218628 0.343872
vt 0.218628 0.468628
vt 0.046997 0.343872
vt 0.046997 0.468628
vt 0.109253 0.343872
vt 0.109253 0.468628
s 0
usemtl Knight.png
f 793/519/133 794/520/133 795/521/133
f 796/520/133 797/522/133 798/521/133
f 799/523/134 800/524/134 801/525/134
f 802/524/134 803/526/134 804/525/134
f 805/527/135 806/528/135 807/529/135
f 808/528/135 809/530/135 810/529/135
f 811/531/136 812/532/136 813/533/136
f 814/532/136 815/534/136 816/533/136
f 817/535/137 818/536/137 819/537/137
f 820/536/137 821/538/137 822/537/137
f 823/539/138 824/540/138 825/541/138
f 826/540/138 827/542/138 828/541/138
o b6f61882-30d3-5688-7b5c-c803e630595d
v 5.000000 24.000000 6.000000
v 5.000000 20.000000 6.000000
v 5.000000 24.000000 2.000000
v 5.000000 20.000000 6.000000
v 5.000000 20.000000 2.000000
v 5.000000 24.000000 2.000000
v -5.000000 24.000000 2.000000
v -5.000000 20.000000 2.000000
v -5.000000 24.000000 6.000000
v -5.000000 20.000000 2.000000
v -5.000000 20.000000 6.000000
v -5.000000 24.000000 6.000000
v -5.000000 24.000000 2.000000
v -5.000000 24.000000 6.000000
v 5.000000 24.000000 2.000000
v -5.000000 24.000000 6.000000
v 5.000000 24.000000 6.000000
v 5.000000 24.000000 2.000000
v -5.000000 20.000000 6.000000
v -5.000000 20.000000 2.000000
v 5.000000 20.000000 6.000000
v -5.000000 20.000000 2.000000
v 5.000000 20.000000 2.000000
v 5.000000 20.000000 6.000000
v -5.000000 24.000000 6.000000
v -5.000000 20.000000 6.000000
v 5.000000 24.000000 6.000000
v -5.000000 20.000000 6.000000
v 5.000000 20.000000 6.000000
v 5.000000 24.000000 6.000000
v 5.000000 24.000000 2.000000
v 5.000000 20.000000 2.000000
v -5.000000 24.000000 2.000000
v 5.000000 20.000000 2.000000
v -5.000000 20.000000 2.000000
v -5.000000 24.000000 2.000000
vn 1.0000 -0.0000 -0.0000
vn -1.0000 -0.0000 -0.0000
vn -0.0000 1.0000 -0.0000
vn -0.0000 -1.0000 -0.0000
vn -0.0000 -0.0000 1.0000
vn -0.0000 -0.0000 -1.0000
vt 0.343872 0.265747
vt 0.343872 0.296753
vt 0.374878 0.265747
vt 0.374878 0.296753
vt 0.453247 0.265747
vt 0.453247 0.296753
vt 0.484253 0.265747
vt 0.484253 0.296753
vt 0.453003 0.265503
vt 0.453003 0.234497
vt 0.375122 0.265503
vt 0.375122 0.234497
vt 0.531128 0.234497
vt 0.531128 0.265503
vt 0.453247 0.234497
vt 0.453247 0.265503
vt 0.484497 0.265747
vt 0.484497 0.296753
vt 0.562378 0.265747
vt 0.562378 0.296753
vt 0.375122 0.265747
vt 0.375122 0.296753
vt 0.453003 0.265747
vt 0.453003 0.296753
s 0
usemtl Knight.png
f 829/543/139 830/544/139 831/545/139
f 832/544/139 833/546/139 834/545/139
f 835/547/140 836/548/140 837/549/140
f 838/548/140 839/550/140 840/549/140
f 841/551/141 842/552/141 843/553/141
f 844/552/141 845/554/141 846/553/141
f 847/555/142 848/556/142 849/557/142
f 850/556/142 851/558/142 852/557/142
f 853/559/143 854/560/143 855/561/143
f 856/560/143 857/562/143 858/561/143
f 859/563/144 860/564/144 861/565/144
f 862/564/144 863/566/144 864/565/144
