{
  "accessors": [
    {
      "bufferView": 0,
      "componentType": 5126,
      "count": 576,
      "max": [
        0.7437916994094849,
        0.9167370200157166,
        2.153116464614868
      ],
      "min": [
        -0.7325620055198669,
        -0.2593750059604645,
        0.0
      ],
      "type": "VEC3"
    },
    {
      "bufferView": 1,
      "componentType": 5125,
      "count": 862,
      "type": "SCALAR"
    },
    {
      "bufferView": 2,
      "componentType": 5126,
      "count": 576,
      "type": "VEC3"
    },
    {
      "bufferView": 3,
      "componentType": 5126,
      "count": 576,
      "type": "VEC4"
    },
    {
      "bufferView": 4,
      "componentType": 5126,
      "count": 576,
      "type": "VEC2"
    }
  ],
  "asset": {
    "version": "2.0"
  },
  "bufferViews": [
    {
      "buffer": 0,
      "byteLength": 6912,
      "target": 34962
    },
    {
      "buffer": 1,
      "byteLength": 3448,
      "target": 34963
    },
    {
      "buffer": 2,
      "byteLength": 6912,
      "target": 34962
    },
    {
      "buffer": 3,
      "byteLength": 9216,
      "target": 34962
    },
    {
      "buffer": 4,
      "byteLength": 4608,
      "target": 34962
    }
  ],
  "buffers": [
    {
      "byteLength": 6912,
      "uri": "data:application/octet-stream;base64,"
    },
    {
      "byteLength": 3448,
      "uri": "data:application/octet-stream;base64,"
    },
    {
      "byteLength": 6912,
      "uri": "data:application/octet-stream;base64,"
    },
    {
      "byteLength": 9216,
      "uri": "data:application/octet-stream;base64,"
    },
    {
      "byteLength": 4608,
      "uri": "data:application/octet-stream;base64,"
    }
  ],
  "materials": [
    {
      "doubleSided": true,
      "pbrMetallicRoughness": {
        "baseColorFactor": [
          0.800000011920929,
          0.800000011920929,
          0.800000011920929,
          1.0
        ]
      }
    }
  ],
  "meshes": [
    {
      "primitives": [
        {
          "attributes": {
            "NORMAL": 2,
            "POSITION": 0,
            "TANGENT": 3,
            "TEXCOORD_0": 4
          },
          "indices": 1,
          "material": 0,
          "mode": 5
        }
      ]
    }
  ],
  "nodes": [
    {
      "mesh": 0,
      "name": "_gltfNode_0"
    },
    {
      "children": [
        0
      ],
      "name": "GLTF Converted Scene",
      "rotation": [
        -0.7071067811865475,
        0.0,
        0.0,
        0.7071067811865476
      ],
      "scale": [
        1.0,
        1.0,
        1.0
      ],
      "translation": [
        0.0,
        0.0,
        0.0
      ]
    }
  ],
  "scene": 0,
  "scenes": [
    {
      "nodes": [
        1
      ]
    }
  ]
}
