# Blender 4.2.15 LTS
# www.blender.org
mtllib tungtungtung.mtl
o _gltfNode_0
v 0.696191 0.873027 -0.049735
v 0.653638 0.946656 -0.049735
v 0.696191 0.873027 0.158828
v 0.653638 0.946656 0.158828
v 0.696191 0.873027 0.158828
v 0.653638 0.946656 0.158828
v 0.622625 0.829902 0.158828
v 0.580073 0.903531 0.158828
v 0.622625 0.829902 0.158828
v 0.580073 0.903531 0.158828
v 0.622625 0.829902 -0.049735
v 0.580073 0.903531 -0.049735
v 0.622625 0.829902 -0.049735
v 0.580073 0.903531 -0.049735
v 0.696191 0.873027 -0.049735
v 0.653638 0.946656 -0.049735
v 0.580073 0.903531 0.158828
v 0.653638 0.946656 0.158828
v 0.580073 0.903531 -0.049735
v 0.653638 0.946656 -0.049735
v 0.696191 0.873027 0.158828
v 0.622625 0.829902 0.158828
v 0.696191 0.873027 -0.049735
v 0.622625 0.829902 -0.049735
v 0.719991 0.866716 -0.257724
v 0.660129 0.969797 -0.257724
v 0.719991 0.866716 -0.049735
v 0.660129 0.969797 -0.049735
v 0.719991 0.866716 -0.049735
v 0.660129 0.969797 -0.049735
v 0.616134 0.806761 -0.049735
v 0.556272 0.909842 -0.049735
v 0.616134 0.806761 -0.049735
v 0.556272 0.909842 -0.049735
v 0.616134 0.806761 -0.257724
v 0.556272 0.909842 -0.257724
v 0.616134 0.806761 -0.257724
v 0.556272 0.909842 -0.257724
v 0.719991 0.866716 -0.257724
v 0.660129 0.969797 -0.257724
v 0.556272 0.909842 -0.049735
v 0.660129 0.969797 -0.049735
v 0.556272 0.909842 -0.257724
v 0.660129 0.969797 -0.257724
v 0.719991 0.866716 -0.049735
v 0.616134 0.806761 -0.049735
v 0.719991 0.866716 -0.257724
v 0.616134 0.806761 -0.257724
v 0.705567 0.869872 0.151359
v 0.656523 0.956123 0.151359
v 0.705567 0.869872 0.200196
v 0.656523 0.956123 0.200196
v 0.705567 0.869872 0.200196
v 0.656523 0.956123 0.200196
v 0.620462 0.820435 0.200196
v 0.570697 0.906686 0.200196
v 0.620462 0.820435 0.200196
v 0.570697 0.906686 0.200196
v 0.620462 0.820435 0.151359
v 0.570697 0.906686 0.151359
v 0.620462 0.820435 0.151359
v 0.570697 0.906686 0.151359
v 0.705567 0.869872 0.151359
v 0.656523 0.956123 0.151359
v 0.570697 0.906686 0.200196
v 0.656523 0.956123 0.200196
v 0.570697 0.906686 0.151359
v 0.656523 0.956123 0.151359
v 0.705567 0.869872 0.200196
v 0.620462 0.820435 0.200196
v 0.705567 0.869872 0.151359
v 0.620462 0.820435 0.151359
v 0.743792 0.860405 -0.916737
v 0.666620 0.993989 -0.916737
v 0.743792 0.860405 -0.257724
v 0.666620 0.993989 -0.257724
v 0.743792 0.860405 -0.257724
v 0.666620 0.993989 -0.257724
v 0.610365 0.782569 -0.257724
v 0.533193 0.916153 -0.257724
v 0.610365 0.782569 -0.257724
v 0.533193 0.916153 -0.257724
v 0.610365 0.782569 -0.916737
v 0.533193 0.916153 -0.916737
v 0.610365 0.782569 -0.916737
v 0.533193 0.916153 -0.916737
v 0.743792 0.860405 -0.916737
v 0.666620 0.993989 -0.916737
v 0.533193 0.916153 -0.257724
v 0.666620 0.993989 -0.257724
v 0.533193 0.916153 -0.916737
v 0.666620 0.993989 -0.916737
v 0.743792 0.860405 -0.257724
v 0.610365 0.782569 -0.257724
v 0.743792 0.860405 -0.916737
v 0.610365 0.782569 -0.916737
v 0.062231 1.757625 -0.162922
v 0.062231 1.960630 -0.162922
v 0.249751 1.757625 -0.162922
v 0.249751 1.960630 -0.162922
v 0.249751 1.757625 -0.162922
v 0.249751 1.960630 -0.162922
v 0.249751 1.757625 -0.038244
v 0.249751 1.960630 -0.038244
v 0.249751 1.757625 -0.038244
v 0.249751 1.960630 -0.038244
v 0.062231 1.757625 -0.038244
v 0.062231 1.960630 -0.038244
v 0.062231 1.757625 -0.038244
v 0.062231 1.960630 -0.038244
v 0.062231 1.757625 -0.162922
v 0.062231 1.960630 -0.162922
v 0.249751 1.960630 -0.038244
v 0.249751 1.960630 -0.162922
v 0.062231 1.960630 -0.038244
v 0.062231 1.960630 -0.162922
v 0.249751 1.757625 -0.162922
v 0.249751 1.757625 -0.038244
v 0.062231 1.757625 -0.162922
v 0.062231 1.757625 -0.038244
v -0.250060 1.757625 -0.162922
v -0.250060 1.960630 -0.162922
v -0.062541 1.757625 -0.162922
v -0.062541 1.960630 -0.162922
v -0.062541 1.757625 -0.162922
v -0.062541 1.960630 -0.162922
v -0.062541 1.757625 -0.038244
v -0.062541 1.960630 -0.038244
v -0.062541 1.757625 -0.038244
v -0.062541 1.960630 -0.038244
v -0.250060 1.757625 -0.038244
v -0.250060 1.960630 -0.038244
v -0.250060 1.757625 -0.038244
v -0.250060 1.960630 -0.038244
v -0.250060 1.757625 -0.162922
v -0.250060 1.960630 -0.162922
v -0.062541 1.960630 -0.038244
v -0.062541 1.960630 -0.162922
v -0.250060 1.960630 -0.038244
v -0.250060 1.960630 -0.162922
v -0.062541 1.757625 -0.162922
v -0.062541 1.757625 -0.038244
v -0.250060 1.757625 -0.162922
v -0.250060 1.757625 -0.038244
v 0.090359 1.762884 -0.168668
v 0.090359 1.875431 -0.168668
v 0.202871 1.762884 -0.168668
v 0.202871 1.875431 -0.168668
v 0.202871 1.762884 -0.168668
v 0.202871 1.875431 -0.168668
v 0.202871 1.762884 -0.056055
v 0.202871 1.875431 -0.056055
v 0.202871 1.762884 -0.056055
v 0.202871 1.875431 -0.056055
v 0.090359 1.762884 -0.056055
v 0.090359 1.875431 -0.056055
v 0.090359 1.762884 -0.056055
v 0.090359 1.875431 -0.056055
v 0.090359 1.762884 -0.168668
v 0.090359 1.875431 -0.168668
v 0.202871 1.875431 -0.056055
v 0.202871 1.875431 -0.168668
v 0.090359 1.875431 -0.056055
v 0.090359 1.875431 -0.168668
v 0.202871 1.762884 -0.168668
v 0.202871 1.762884 -0.056055
v 0.090359 1.762884 -0.168668
v 0.090359 1.762884 -0.056055
v -0.203181 1.762884 -0.168668
v -0.203181 1.875431 -0.168668
v -0.090669 1.762884 -0.168668
v -0.090669 1.875431 -0.168668
v -0.090669 1.762884 -0.168668
v -0.090669 1.875431 -0.168668
v -0.090669 1.762884 -0.056055
v -0.090669 1.875431 -0.056055
v -0.090669 1.762884 -0.056055
v -0.090669 1.875431 -0.056055
v -0.203181 1.762884 -0.056055
v -0.203181 1.875431 -0.056055
v -0.203181 1.762884 -0.056055
v -0.203181 1.875431 -0.056055
v -0.203181 1.762884 -0.168668
v -0.203181 1.875431 -0.168668
v -0.090669 1.875431 -0.056055
v -0.090669 1.875431 -0.168668
v -0.203181 1.875431 -0.056055
v -0.203181 1.875431 -0.168668
v -0.090669 1.762884 -0.168668
v -0.090669 1.762884 -0.056055
v -0.203181 1.762884 -0.168668
v -0.203181 1.762884 -0.056055
v 0.062231 1.962734 -0.172115
v 0.062231 2.024792 -0.172115
v 0.234605 1.962734 -0.172115
v 0.234605 2.024792 -0.172115
v 0.234605 1.962734 -0.172115
v 0.234605 2.024792 -0.172115
v 0.234605 1.962734 -0.046863
v 0.234605 2.024792 -0.046863
v 0.234605 1.962734 -0.046863
v 0.234605 2.024792 -0.046863
v 0.062231 1.962734 -0.046863
v 0.062231 2.024792 -0.046863
v 0.062231 1.962734 -0.046863
v 0.062231 2.024792 -0.046863
v 0.062231 1.962734 -0.172115
v 0.062231 2.024792 -0.172115
v 0.234605 2.024792 -0.046863
v 0.234605 2.024792 -0.172115
v 0.062231 2.024792 -0.046863
v 0.062231 2.024792 -0.172115
v 0.234605 1.962734 -0.172115
v 0.234605 1.962734 -0.046863
v 0.062231 1.962734 -0.172115
v 0.062231 1.962734 -0.046863
v -0.234193 1.962734 -0.172115
v -0.234193 2.024792 -0.172115
v -0.062541 1.962734 -0.172115
v -0.062541 2.024792 -0.172115
v -0.062541 1.962734 -0.172115
v -0.062541 2.024792 -0.172115
v -0.062541 1.962734 -0.046863
v -0.062541 2.024792 -0.046863
v -0.062541 1.962734 -0.046863
v -0.062541 2.024792 -0.046863
v -0.234193 1.962734 -0.046863
v -0.234193 2.024792 -0.046863
v -0.234193 1.962734 -0.046863
v -0.234193 2.024792 -0.046863
v -0.234193 1.962734 -0.172115
v -0.234193 2.024792 -0.172115
v -0.062541 2.024792 -0.046863
v -0.062541 2.024792 -0.172115
v -0.234193 2.024792 -0.046863
v -0.234193 2.024792 -0.172115
v -0.062541 1.962734 -0.172115
v -0.062541 1.962734 -0.046863
v -0.234193 1.962734 -0.172115
v -0.234193 1.962734 -0.046863
v -0.056050 1.687152 -0.275535
v -0.056050 1.986926 -0.102594
v 0.056461 1.687152 -0.275535
v 0.056461 1.986926 -0.102594
v 0.056461 1.687152 -0.275535
v 0.056461 1.986926 -0.102594
v 0.056461 1.607212 -0.137642
v 0.056461 1.906986 0.035873
v 0.056461 1.607212 -0.137642
v 0.056461 1.906986 0.035873
v -0.056050 1.607212 -0.137642
v -0.056050 1.906986 0.035873
v -0.056050 1.607212 -0.137642
v -0.056050 1.906986 0.035873
v -0.056050 1.687152 -0.275535
v -0.056050 1.986926 -0.102594
v 0.056461 1.906986 0.035873
v 0.056461 1.986926 -0.102594
v -0.056050 1.906986 0.035873
v -0.056050 1.986926 -0.102594
v 0.056461 1.687152 -0.275535
v 0.056461 1.607212 -0.137642
v -0.056050 1.687152 -0.275535
v -0.056050 1.607212 -0.137642
v 0.029055 1.642974 -0.181308
v 0.047807 1.786025 -0.181308
v 0.249029 1.614575 -0.181308
v 0.267781 1.756573 -0.181308
v 0.249029 1.614575 -0.181308
v 0.267781 1.756573 -0.181308
v 0.249029 1.614575 -0.037670
v 0.267781 1.756573 -0.037670
v 0.249029 1.614575 -0.037670
v 0.267781 1.756573 -0.037670
v 0.029055 1.642974 -0.037670
v 0.047807 1.786025 -0.037670
v 0.029055 1.642974 -0.037670
v 0.047807 1.786025 -0.037670
v 0.029055 1.642974 -0.181308
v 0.047807 1.786025 -0.181308
v 0.267781 1.756573 -0.037670
v 0.267781 1.756573 -0.181308
v 0.047807 1.786025 -0.037670
v 0.047807 1.786025 -0.181308
v 0.249029 1.614575 -0.181308
v 0.249029 1.614575 -0.037670
v 0.029055 1.642974 -0.181308
v 0.029055 1.642974 -0.037670
v -0.249339 1.614575 -0.181308
v -0.268091 1.756573 -0.181308
v -0.029365 1.642974 -0.181308
v -0.048117 1.786025 -0.181308
v -0.029365 1.642974 -0.181308
v -0.048117 1.786025 -0.181308
v -0.029365 1.642974 -0.037670
v -0.048117 1.786025 -0.037670
v -0.029365 1.642974 -0.037670
v -0.048117 1.786025 -0.037670
v -0.249339 1.614575 -0.037670
v -0.268091 1.756573 -0.037670
v -0.249339 1.614575 -0.037670
v -0.268091 1.756573 -0.037670
v -0.249339 1.614575 -0.181308
v -0.268091 1.756573 -0.181308
v -0.048117 1.786025 -0.037670
v -0.048117 1.786025 -0.181308
v -0.268091 1.756573 -0.037670
v -0.268091 1.756573 -0.181308
v -0.029365 1.642974 -0.181308
v -0.029365 1.642974 -0.037670
v -0.249339 1.614575 -0.181308
v -0.249339 1.614575 -0.037670
v -0.228424 0.572201 -0.134195
v -0.228424 2.153117 -0.134195
v 0.228114 0.572201 -0.134195
v 0.228114 2.153117 -0.134195
v 0.228114 0.572201 -0.134195
v 0.228114 2.153117 -0.134195
v 0.228114 0.572201 0.259375
v 0.228114 2.153117 0.259375
v 0.228114 0.572201 0.259375
v 0.228114 2.153117 0.259375
v -0.228424 0.572201 0.259375
v -0.228424 2.153117 0.259375
v -0.228424 0.572201 0.259375
v -0.228424 2.153117 0.259375
v -0.228424 0.572201 -0.134195
v -0.228424 2.153117 -0.134195
v 0.228114 2.153117 0.259375
v 0.228114 2.153117 -0.134195
v -0.228424 2.153117 0.259375
v -0.228424 2.153117 -0.134195
v 0.228114 0.572201 -0.134195
v 0.228114 0.572201 0.259375
v -0.228424 0.572201 -0.134195
v -0.228424 0.572201 0.259375
v -0.732562 0.867768 -0.006069
v -0.538552 1.203305 -0.006069
v -0.613559 0.799399 -0.006069
v -0.419549 1.134935 -0.006069
v -0.613559 0.799399 -0.006069
v -0.419549 1.134935 -0.006069
v -0.613559 0.799399 0.131249
v -0.419549 1.134935 0.131249
v -0.613559 0.799399 0.131249
v -0.419549 1.134935 0.131249
v -0.732562 0.867768 0.131249
v -0.538552 1.203305 0.131249
v -0.732562 0.867768 0.131249
v -0.538552 1.203305 0.131249
v -0.732562 0.867768 -0.006069
v -0.538552 1.203305 -0.006069
v -0.419549 1.134935 0.131249
v -0.419549 1.134935 -0.006069
v -0.538552 1.203305 0.131249
v -0.538552 1.203305 -0.006069
v -0.613559 0.799399 -0.006069
v -0.613559 0.799399 0.131249
v -0.732562 0.867768 -0.006069
v -0.732562 0.867768 0.131249
v -0.538552 1.203305 -0.006069
v -0.345263 1.538842 -0.006069
v -0.419549 1.134935 -0.006069
v -0.226260 1.470472 -0.006069
v -0.419549 1.134935 -0.006069
v -0.226260 1.470472 -0.006069
v -0.419549 1.134935 0.131249
v -0.226260 1.470472 0.131249
v -0.419549 1.134935 0.131249
v -0.226260 1.470472 0.131249
v -0.538552 1.203305 0.131249
v -0.345263 1.538842 0.131249
v -0.538552 1.203305 0.131249
v -0.345263 1.538842 0.131249
v -0.538552 1.203305 -0.006069
v -0.345263 1.538842 -0.006069
v -0.226260 1.470472 0.131249
v -0.226260 1.470472 -0.006069
v -0.345263 1.538842 0.131249
v -0.345263 1.538842 -0.006069
v -0.419549 1.134935 -0.006069
v -0.419549 1.134935 0.131249
v -0.538552 1.203305 -0.006069
v -0.538552 1.203305 0.131249
v -0.219048 -0.000000 -0.187628
v -0.219048 0.125169 -0.187628
v -0.031528 -0.000000 -0.187628
v -0.031528 0.125169 -0.187628
v -0.031528 -0.000000 -0.187628
v -0.031528 0.125169 -0.187628
v -0.031528 0.000000 0.124929
v -0.031528 0.125169 0.124929
v -0.031528 0.000000 0.124929
v -0.031528 0.125169 0.124929
v -0.219048 0.000000 0.124929
v -0.219048 0.125169 0.124929
v -0.219048 0.000000 0.124929
v -0.219048 0.125169 0.124929
v -0.219048 -0.000000 -0.187628
v -0.219048 0.125169 -0.187628
v -0.031528 0.125169 0.124929
v -0.031528 0.125169 -0.187628
v -0.219048 0.125169 0.124929
v -0.219048 0.125169 -0.187628
v -0.031528 -0.000000 -0.187628
v -0.031528 0.000000 0.124929
v -0.219048 -0.000000 -0.187628
v -0.219048 0.000000 0.124929
v -0.187314 0.125169 0.000251
v -0.187314 0.390233 0.000251
v -0.062541 0.125169 0.000251
v -0.062541 0.390233 0.000251
v -0.062541 0.125169 0.000251
v -0.062541 0.390233 0.000251
v -0.062541 0.125169 0.124929
v -0.062541 0.390233 0.124929
v -0.062541 0.125169 0.124929
v -0.062541 0.390233 0.124929
v -0.187314 0.125169 0.124929
v -0.187314 0.390233 0.124929
v -0.187314 0.125169 0.124929
v -0.187314 0.390233 0.124929
v -0.187314 0.125169 0.000251
v -0.187314 0.390233 0.000251
v -0.062541 0.390233 0.124929
v -0.062541 0.390233 0.000251
v -0.187314 0.390233 0.124929
v -0.187314 0.390233 0.000251
v -0.062541 0.125169 0.000251
v -0.062541 0.125169 0.124929
v -0.187314 0.125169 0.000251
v -0.187314 0.125169 0.124929
v -0.187314 0.390233 0.000251
v -0.187314 0.656348 0.000251
v -0.062541 0.390233 0.000251
v -0.062541 0.656348 0.000251
v -0.062541 0.390233 0.000251
v -0.062541 0.656348 0.000251
v -0.062541 0.390233 0.124929
v -0.062541 0.656348 0.124929
v -0.062541 0.390233 0.124929
v -0.062541 0.656348 0.124929
v -0.187314 0.390233 0.124929
v -0.187314 0.656348 0.124929
v -0.187314 0.390233 0.124929
v -0.187314 0.656348 0.124929
v -0.187314 0.390233 0.000251
v -0.187314 0.656348 0.000251
v -0.062541 0.656348 0.124929
v -0.062541 0.656348 0.000251
v -0.187314 0.656348 0.124929
v -0.187314 0.656348 0.000251
v -0.062541 0.390233 0.000251
v -0.062541 0.390233 0.124929
v -0.187314 0.390233 0.000251
v -0.187314 0.390233 0.124929
v 0.608922 0.796243 -0.006069
v 0.414912 1.131780 -0.006069
v 0.727925 0.865664 -0.006069
v 0.533914 1.201201 -0.006069
v 0.727925 0.865664 -0.006069
v 0.533914 1.201201 -0.006069
v 0.727925 0.865664 0.131249
v 0.533914 1.201201 0.131249
v 0.727925 0.865664 0.131249
v 0.533914 1.201201 0.131249
v 0.608922 0.796243 0.131249
v 0.414912 1.131780 0.131249
v 0.608922 0.796243 0.131249
v 0.414912 1.131780 0.131249
v 0.608922 0.796243 -0.006069
v 0.414912 1.131780 -0.006069
v 0.533914 1.201201 0.131249
v 0.533914 1.201201 -0.006069
v 0.414912 1.131780 0.131249
v 0.414912 1.131780 -0.006069
v 0.727925 0.865664 -0.006069
v 0.727925 0.865664 0.131249
v 0.608922 0.796243 -0.006069
v 0.608922 0.796243 0.131249
v 0.414912 1.131780 -0.006069
v 0.221623 1.467317 -0.006069
v 0.533914 1.201201 -0.006069
v 0.340625 1.536739 -0.006069
v 0.533914 1.201201 -0.006069
v 0.340625 1.536739 -0.006069
v 0.533914 1.201201 0.131249
v 0.340625 1.536739 0.131249
v 0.533914 1.201201 0.131249
v 0.340625 1.536739 0.131249
v 0.414912 1.131780 0.131249
v 0.221623 1.467317 0.131249
v 0.414912 1.131780 0.131249
v 0.221623 1.467317 0.131249
v 0.414912 1.131780 -0.006069
v 0.221623 1.467317 -0.006069
v 0.340625 1.536739 0.131249
v 0.340625 1.536739 -0.006069
v 0.221623 1.467317 0.131249
v 0.221623 1.467317 -0.006069
v 0.533914 1.201201 -0.006069
v 0.533914 1.201201 0.131249
v 0.414912 1.131780 -0.006069
v 0.414912 1.131780 0.131249
v 0.031218 -0.000000 -0.187628
v 0.031218 0.125169 -0.187628
v 0.218738 -0.000000 -0.187628
v 0.218738 0.125169 -0.187628
v 0.218738 -0.000000 -0.187628
v 0.218738 0.125169 -0.187628
v 0.218738 0.000000 0.124929
v 0.218738 0.125169 0.124929
v 0.218738 0.000000 0.124929
v 0.218738 0.125169 0.124929
v 0.031218 0.000000 0.124929
v 0.031218 0.125169 0.124929
v 0.031218 0.000000 0.124929
v 0.031218 0.125169 0.124929
v 0.031218 -0.000000 -0.187628
v 0.031218 0.125169 -0.187628
v 0.218738 0.125169 0.124929
v 0.218738 0.125169 -0.187628
v 0.031218 0.125169 0.124929
v 0.031218 0.125169 -0.187628
v 0.218738 -0.000000 -0.187628
v 0.218738 0.000000 0.124929
v 0.031218 -0.000000 -0.187628
v 0.031218 0.000000 0.124929
v 0.062231 0.125169 0.000251
v 0.062231 0.390233 0.000251
v 0.187725 0.125169 0.000251
v 0.187725 0.390233 0.000251
v 0.187725 0.125169 0.000251
v 0.187725 0.390233 0.000251
v 0.187725 0.125169 0.124929
v 0.187725 0.390233 0.124929
v 0.187725 0.125169 0.124929
v 0.187725 0.390233 0.124929
v 0.062231 0.125169 0.124929
v 0.062231 0.390233 0.124929
v 0.062231 0.125169 0.124929
v 0.062231 0.390233 0.124929
v 0.062231 0.125169 0.000251
v 0.062231 0.390233 0.000251
v 0.187725 0.390233 0.124929
v 0.187725 0.390233 0.000251
v 0.062231 0.390233 0.124929
v 0.062231 0.390233 0.000251
v 0.187725 0.125169 0.000251
v 0.187725 0.125169 0.124929
v 0.062231 0.125169 0.000251
v 0.062231 0.125169 0.124929
v 0.062231 0.390233 0.000251
v 0.062231 0.656348 0.000251
v 0.187725 0.390233 0.000251
v 0.187725 0.656348 0.000251
v 0.187725 0.390233 0.000251
v 0.187725 0.656348 0.000251
v 0.187725 0.390233 0.124929
v 0.187725 0.656348 0.124929
v 0.187725 0.390233 0.124929
v 0.187725 0.656348 0.124929
v 0.062231 0.390233 0.124929
v 0.062231 0.656348 0.124929
v 0.062231 0.390233 0.124929
v 0.062231 0.656348 0.124929
v 0.062231 0.390233 0.000251
v 0.062231 0.656348 0.000251
v 0.187725 0.656348 0.124929
v 0.187725 0.656348 0.000251
v 0.062231 0.656348 0.124929
v 0.062231 0.656348 0.000251
v 0.187725 0.390233 0.000251
v 0.187725 0.390233 0.124929
v 0.062231 0.390233 0.000251
v 0.062231 0.390233 0.124929
vn 0.8667 0.4988 -0.0000
vn -0.0000 0.0022 1.0000
vn -0.8667 -0.4987 0.0038
vn -0.0000 -0.0022 -1.0000
vn -0.5006 0.8657 -0.0000
vn 0.5006 -0.8657 -0.0000
vn 0.8667 0.4987 -0.0000
vn -0.8667 -0.4988 0.0038
vn -0.5005 0.8657 -0.0000
vn 0.5005 -0.8657 -0.0000
vn 0.5007 -0.8656 -0.0000
vn -0.5007 0.8656 -0.0000
vn 0.8668 0.4987 -0.0000
vn -0.0000 0.0022 -1.0000
vn 1.0000 0.0022 -0.0000
vn -1.0000 0.0022 -0.0000
vn -0.0000 1.0000 -0.0000
vn -0.0000 -1.0000 -0.0000
vn 0.0038 0.4987 -0.8667
vn 0.0037 0.4988 -0.8667
vn 0.0019 -0.4987 0.8667
vn 0.0038 0.8657 0.5006
vn -0.0000 -0.8656 -0.5007
vn -0.0000 -0.8656 -0.5008
vn 0.9917 -0.1286 -0.0000
vn 0.9917 -0.1285 -0.0000
vn -0.9917 0.1285 0.0038
vn 0.1307 0.9914 -0.0000
vn 0.1308 0.9914 -0.0000
vn -0.1307 -0.9914 -0.0000
vn 0.9917 0.1285 -0.0000
vn -0.9917 -0.1285 0.0038
vn -0.1307 0.9914 -0.0000
vn -0.1308 0.9914 -0.0000
vn 0.1307 -0.9914 -0.0000
vn 0.8667 -0.4988 -0.0000
vn 0.8668 -0.4987 -0.0000
vn -0.8667 0.4988 -0.0000
vn -0.8668 0.4987 -0.0000
vn 0.5006 0.8657 -0.0000
vn -0.5006 -0.8657 -0.0000
vn 0.8667 -0.4987 -0.0000
vn -0.8667 0.4989 -0.0000
vn -0.8667 0.4987 -0.0000
vn -0.8667 -0.4988 0.0037
vn 0.8667 0.4989 -0.0000
vt 0.390617 0.406254
vt 0.390617 0.421865
vt 0.343788 0.406254
vt 0.343788 0.421865
vt 0.265646 0.421865
vt 0.265646 0.437477
vt 0.250036 0.421865
vt 0.250036 0.437477
vt 0.515589 0.359335
vt 0.515589 0.375031
vt 0.468760 0.359335
vt 0.468760 0.375031
vt 0.281256 0.421865
vt 0.281256 0.437477
vt 0.656263 0.546843
vt 0.656263 0.531231
vt 0.703093 0.546843
vt 0.703093 0.531231
vt 0.656263 0.515619
vt 0.703093 0.515619
vt 0.703093 0.968777
vt 0.703093 1.000000
vt 0.656263 0.968777
vt 0.656263 1.000000
vt 0.687483 0.843716
vt 0.687483 0.875023
vt 0.656263 0.843716
vt 0.656263 0.875023
vt 0.703093 0.937470
vt 0.656263 0.937470
vt 0.687483 0.812492
vt 0.656263 0.812492
vt 0.656263 0.906246
vt 0.703093 0.906246
vt 0.703093 0.875023
vt 0.250036 0.312500
vt 0.250036 0.343723
vt 0.234333 0.312500
vt 0.234333 0.343723
vt 0.203114 0.312500
vt 0.203114 0.343723
vt 0.171894 0.312500
vt 0.171894 0.343723
vt 0.671873 0.484396
vt 0.671873 0.515619
vt 0.656263 0.484396
vt 0.687483 0.781269
vt 0.656263 0.781269
vt 0.656263 0.453089
vt 0.671873 0.453089
vt 0.656263 0.421865
vt 0.671873 0.421865
vt 0.765625 0.359335
vt 0.765625 0.390642
vt 0.593731 0.359335
vt 0.593731 0.390642
vt 0.515589 0.328112
vt 0.343788 0.328112
vt 0.343788 0.359335
vt 0.687483 0.546843
vt 0.687483 0.578150
vt 0.656263 0.578150
vt 0.687483 0.359335
vt 0.687483 0.328112
vt 0.000000 0.312500
vt 0.000000 0.343723
vt 0.203114 0.437477
vt 0.203114 0.484396
vt 0.156284 0.437477
vt 0.156284 0.484396
vt 0.124971 0.437477
vt 0.124971 0.484396
vt 0.281256 0.484396
vt 0.234333 0.437477
vt 0.234333 0.484396
vt 0.156284 0.515619
vt 0.203114 0.515619
vt 0.250036 0.484396
vt 0.250036 0.515619
vt 0.609341 0.703127
vt 0.609341 0.749962
vt 0.562512 0.703127
vt 0.562512 0.749962
vt 0.531292 0.703127
vt 0.531292 0.749962
vt 0.687483 0.703127
vt 0.687483 0.749962
vt 0.640654 0.703127
vt 0.640654 0.749962
vt 0.562512 0.781269
vt 0.609341 0.781269
vt 0.656263 0.749962
vt 0.562512 0.359335
vt 0.562512 0.375031
vt 0.546902 0.359335
vt 0.546902 0.375031
vt 0.531292 0.359335
vt 0.531292 0.375031
vt 0.593731 0.375031
vt 0.578121 0.359335
vt 0.578121 0.375031
vt 0.546902 0.390642
vt 0.562512 0.390642
vt 0.578121 0.390642
vt 0.499979 0.375031
vt 0.499979 0.390642
vt 0.484369 0.375031
vt 0.484369 0.390642
vt 0.468760 0.390642
vt 0.531292 0.390642
vt 0.515589 0.390642
vt 0.484369 0.406254
vt 0.499979 0.406254
vt 0.515589 0.406254
vt 0.062532 0.343723
vt 0.062532 0.359335
vt 0.031219 0.343723
vt 0.031219 0.359335
vt 0.000000 0.359335
vt 0.124971 0.343723
vt 0.124971 0.359335
vt 0.093752 0.343723
vt 0.093752 0.359335
vt 0.031219 0.390642
vt 0.062532 0.390642
vt 0.093752 0.390642
vt 0.406227 0.359335
vt 0.406227 0.375031
vt 0.375008 0.359335
vt 0.375008 0.375031
vt 0.343788 0.375031
vt 0.437540 0.359335
vt 0.437540 0.375031
vt 0.375008 0.406254
vt 0.406227 0.406254
vt 0.437540 0.406254
vt 0.296865 0.312500
vt 0.296865 0.390642
vt 0.281256 0.312500
vt 0.281256 0.390642
vt 0.250036 0.390642
vt 0.343788 0.312500
vt 0.343788 0.390642
vt 0.328085 0.312500
vt 0.328085 0.390642
vt 0.296865 0.421865
vt 0.312475 0.390642
vt 0.312475 0.421865
vt 0.609341 0.640596
vt 0.609341 0.671904
vt 0.562512 0.640596
vt 0.562512 0.671904
vt 0.531292 0.640596
vt 0.531292 0.671904
vt 0.687483 0.640596
vt 0.687483 0.671904
vt 0.640654 0.640596
vt 0.640654 0.671904
vt 0.656263 0.671904
vt 0.656263 0.703127
vt 0.609341 0.578150
vt 0.609341 0.609373
vt 0.562512 0.578150
vt 0.562512 0.609373
vt 0.531292 0.578150
vt 0.531292 0.609373
vt 0.687483 0.609373
vt 0.640654 0.578150
vt 0.640654 0.609373
vt 0.656263 0.609373
vt 0.656263 0.640596
vt 0.203114 0.906246
vt 0.093752 0.515619
vt 0.093752 0.906246
vt 0.000000 0.515619
vt 0.000000 0.906246
vt 0.406227 0.515619
vt 0.406227 0.906246
vt 0.296865 0.515619
vt 0.296865 0.906246
vt 0.093752 1.000000
vt 0.203114 1.000000
vt 0.312475 0.906246
vt 0.312475 1.000000
vt 0.468760 0.656292
vt 0.468760 0.749962
vt 0.437540 0.656292
vt 0.437540 0.749962
vt 0.406227 0.656292
vt 0.406227 0.749962
vt 0.531292 0.656292
vt 0.499979 0.656292
vt 0.499979 0.749962
vt 0.437540 0.781269
vt 0.468760 0.781269
vt 0.499979 0.781269
vt 0.468760 0.531231
vt 0.468760 0.624985
vt 0.437540 0.531231
vt 0.437540 0.624985
vt 0.406227 0.531231
vt 0.406227 0.624985
vt 0.531292 0.531231
vt 0.531292 0.624985
vt 0.499979 0.531231
vt 0.499979 0.624985
vt 0.531292 0.890635
vt 0.531292 0.921858
vt 0.484369 0.890635
vt 0.484369 0.921858
vt 0.406227 0.890635
vt 0.406227 0.921858
vt 0.656263 0.890635
vt 0.656263 0.921858
vt 0.609341 0.890635
vt 0.609341 0.921858
vt 0.484369 1.000000
vt 0.531292 1.000000
vt 0.578121 0.921858
vt 0.578121 1.000000
vt 0.343788 0.484396
vt 0.312475 0.484396
vt 0.406227 0.421865
vt 0.406227 0.484396
vt 0.375008 0.421865
vt 0.375008 0.484396
vt 0.312475 0.515619
vt 0.343788 0.515619
vt 0.375008 0.515619
vt 0.593731 0.453089
vt 0.562512 0.453089
vt 0.531292 0.453089
vt 0.656263 0.390642
vt 0.625044 0.390642
vt 0.625044 0.453089
vt 0.562512 0.484396
vt 0.593731 0.484396
vt 0.625044 0.484396
vt 0.468760 0.406254
vt 0.468760 0.500008
vt 0.437540 0.500008
vt 0.406227 0.500008
vt 0.531292 0.406254
vt 0.531292 0.500008
vt 0.499979 0.500008
vt 0.062532 0.484396
vt 0.031219 0.484396
vt 0.000000 0.390642
vt 0.000000 0.484396
vt 0.124971 0.390642
vt 0.093752 0.484396
vt 0.031219 0.515619
vt 0.062532 0.515619
vt 0.531292 0.781269
vt 0.531292 0.812492
vt 0.484369 0.781269
vt 0.484369 0.812492
vt 0.406227 0.781269
vt 0.406227 0.812492
vt 0.609341 0.812492
vt 0.578121 0.812492
vt 0.578121 0.890635
vt 0.593731 0.546843
vt 0.562512 0.546843
vt 0.531292 0.484396
vt 0.531292 0.546843
vt 0.625044 0.546843
vt 0.593731 0.578150
vt 0.625044 0.578150
vt 0.187504 0.343723
vt 0.187504 0.406254
vt 0.156284 0.343723
vt 0.156284 0.406254
vt 0.124971 0.406254
vt 0.250036 0.406254
vt 0.218723 0.343723
vt 0.218723 0.406254
vt 0.187504 0.437477
vt 0.218723 0.437477
s 1
usemtl m_a5c629c9-ada8-a330-2a06-27a3a0d87051
f 1/1/1 2/2/1 3/3/1
f 2/2/1 4/4/1 3/3/1
f 5/5/2 6/6/2 7/7/2
f 6/6/2 8/8/2 7/7/2
f 9/9/3 10/10/3 11/11/3
f 10/10/3 12/12/3 11/11/3
f 13/13/4 14/14/4 15/5/4
f 14/14/4 16/6/4 15/5/4
f 17/15/5 18/16/5 19/17/5
f 18/16/5 20/18/5 19/17/5
f 21/19/6 22/16/6 23/20/6
f 22/16/6 24/18/6 23/20/6
f 25/21/7 26/22/7 27/23/7
f 26/22/7 28/24/7 27/23/7
f 29/25/2 30/26/2 31/27/2
f 30/26/2 32/28/2 31/27/2
f 33/29/8 34/21/8 35/30/8
f 34/21/8 36/23/8 35/30/8
f 37/31/4 38/25/4 39/32/4
f 38/25/4 40/27/4 39/32/4
f 41/30/9 42/33/9 43/29/9
f 42/33/9 44/34/9 43/29/9
f 45/28/10 46/33/11 47/35/6
f 46/33/11 48/34/10 47/35/6
f 49/36/7 50/37/7 51/38/7
f 50/37/7 52/39/7 51/38/7
f 53/40/2 54/41/2 55/42/2
f 54/41/2 56/43/2 55/42/2
f 57/44/3 58/45/3 59/46/3
f 58/45/3 60/19/3 59/46/3
f 61/47/4 62/31/4 63/48/4
f 62/31/4 64/32/4 63/48/4
f 65/46/12 66/49/5 67/44/5
f 66/49/5 68/50/5 67/44/5
f 69/51/11 70/49/11 71/52/11
f 70/49/11 72/50/11 71/52/11
f 73/53/1 74/54/13 75/55/1
f 74/54/13 76/56/1 75/55/1
f 77/38/2 78/39/2 79/40/2
f 78/39/2 80/41/2 79/40/2
f 81/57/3 82/9/3 83/58/3
f 82/9/3 84/59/3 83/58/3
f 85/60/4 86/61/4 87/15/4
f 86/61/4 88/62/4 87/15/4
f 89/9/12 90/57/12 91/63/5
f 90/57/12 92/64/5 91/63/5
f 93/65/6 94/66/11 95/42/6
f 94/66/11 96/43/6 95/42/6
f 97/67/14 98/68/14 99/69/14
f 98/68/14 100/70/14 99/69/14
f 101/69/15 102/70/15 103/71/15
f 102/70/15 104/72/15 103/71/15
f 105/14/2 106/73/2 107/74/2
f 106/73/2 108/75/2 107/74/2
f 109/74/16 110/75/16 111/67/16
f 110/75/16 112/68/16 111/67/16
s 0
f 113/76/17 114/70/17 115/77/17
f 114/70/17 116/68/17 115/77/17
f 117/68/18 118/77/18 119/78/18
f 118/77/18 120/79/18 119/78/18
s 1
f 121/80/14 122/81/14 123/82/14
f 122/81/14 124/83/14 123/82/14
f 125/82/15 126/83/15 127/84/15
f 126/83/15 128/85/15 127/84/15
f 129/86/2 130/87/2 131/88/2
f 130/87/2 132/89/2 131/88/2
f 133/88/16 134/89/16 135/80/16
f 134/89/16 136/81/16 135/80/16
s 0
f 137/90/17 138/83/17 139/91/17
f 138/83/17 140/81/17 139/91/17
f 141/81/18 142/91/18 143/92/18
f 142/91/18 144/48/18 143/92/18
s 1
f 145/93/14 146/94/14 147/95/14
f 146/94/14 148/96/14 147/95/14
f 149/95/15 150/96/15 151/97/15
f 150/96/15 152/98/15 151/97/15
f 153/55/2 154/99/2 155/100/2
f 154/99/2 156/101/2 155/100/2
f 157/100/16 158/101/16 159/93/16
f 158/101/16 160/94/16 159/93/16
s 0
f 161/102/17 162/96/17 163/103/17
f 162/96/17 164/94/17 163/103/17
f 165/94/18 166/103/18 167/101/18
f 166/103/18 168/104/18 167/101/18
s 1
f 169/105/14 170/106/14 171/107/14
f 170/106/14 172/108/14 171/107/14
f 173/107/15 174/108/15 175/12/15
f 174/108/15 176/109/15 175/12/15
f 177/98/2 178/110/2 179/10/2
f 178/110/2 180/111/2 179/10/2
f 181/10/16 182/111/16 183/105/16
f 182/111/16 184/106/16 183/105/16
s 0
f 185/112/17 186/108/17 187/113/17
f 186/108/17 188/106/17 187/113/17
f 189/106/18 190/113/18 191/111/18
f 190/113/18 192/114/18 191/111/18
s 1
f 193/115/14 194/116/14 195/117/14
f 194/116/14 196/118/14 195/117/14
f 197/117/15 198/118/15 199/66/15
f 198/118/15 200/119/15 199/66/15
f 201/120/2 202/121/2 203/122/2
f 202/121/2 204/123/2 203/122/2
f 205/122/16 206/123/16 207/115/16
f 206/123/16 208/116/16 207/115/16
s 0
f 209/124/17 210/118/17 211/125/17
f 210/118/17 212/116/17 211/125/17
f 213/116/18 214/125/18 215/123/18
f 214/125/18 216/126/18 215/123/18
s 1
f 217/127/14 218/128/14 219/129/14
f 218/128/14 220/130/14 219/129/14
f 221/129/15 222/130/15 223/59/15
f 222/130/15 224/131/15 223/59/15
f 225/11/2 226/12/2 227/132/2
f 226/12/2 228/133/2 227/132/2
f 229/132/16 230/133/16 231/127/16
f 230/133/16 232/128/16 231/127/16
s 0
f 233/134/17 234/130/17 235/135/17
f 234/130/17 236/128/17 235/135/17
f 237/128/18 238/135/18 239/133/18
f 238/135/18 240/136/18 239/133/18
s 1
f 241/137/19 242/138/19 243/139/19
f 242/138/19 244/140/20 243/139/19
f 245/139/15 246/140/15 247/36/15
f 246/140/15 248/141/15 247/36/15
f 249/142/21 250/143/21 251/144/21
f 250/143/21 252/145/21 251/144/21
f 253/144/16 254/145/16 255/137/16
f 254/145/16 256/138/16 255/137/16
f 257/13/22 258/140/22 259/146/22
f 258/140/22 260/138/22 259/146/22
f 261/138/23 262/146/24 263/147/24
f 262/146/24 264/148/23 263/147/24
f 265/149/14 266/150/14 267/151/14
f 266/150/14 268/152/14 267/151/14
f 269/151/25 270/152/26 271/153/26
f 270/152/26 272/154/26 271/153/26
f 273/155/2 274/156/2 275/157/2
f 274/156/2 276/158/2 275/157/2
f 277/157/27 278/158/27 279/149/27
f 278/158/27 280/150/27 279/149/27
f 281/82/28 282/152/29 283/80/29
f 282/152/29 284/150/28 283/80/29
f 285/150/30 286/80/30 287/159/30
f 286/80/30 288/160/30 287/159/30
f 289/161/14 290/162/14 291/163/14
f 290/162/14 292/164/14 291/163/14
f 293/163/31 294/164/31 295/165/31
f 294/164/31 296/166/31 295/165/31
f 297/61/2 298/167/2 299/168/2
f 298/167/2 300/169/2 299/168/2
f 301/168/32 302/169/32 303/161/32
f 302/169/32 304/162/32 303/161/32
f 305/151/33 306/164/34 307/149/34
f 306/164/34 308/162/33 307/149/34
f 309/162/35 310/149/35 311/170/35
f 310/149/35 312/171/35 311/170/35
f 313/77/14 314/172/14 315/173/14
f 314/172/14 316/174/14 315/173/14
f 317/173/15 318/174/15 319/175/15
f 318/174/15 320/176/15 319/175/15
f 321/177/2 322/178/2 323/179/2
f 322/178/2 324/180/2 323/179/2
f 325/179/16 326/180/16 327/77/16
f 326/180/16 328/172/16 327/77/16
s 0
f 329/181/17 330/174/17 331/182/17
f 330/174/17 332/172/17 331/182/17
f 333/172/18 334/182/18 335/183/18
f 334/182/18 336/184/18 335/183/18
s 1
f 337/185/14 338/186/14 339/187/14
f 338/186/14 340/188/14 339/187/14
f 341/187/36 342/188/37 343/189/36
f 342/188/37 344/190/36 343/189/36
f 345/191/2 346/85/2 347/192/2
f 346/85/2 348/193/2 347/192/2
f 349/192/38 350/193/39 351/185/39
f 350/193/39 352/186/38 351/185/39
f 353/194/40 354/188/40 355/195/40
f 354/188/40 356/186/40 355/195/40
f 357/186/41 358/195/41 359/193/41
f 358/195/41 360/196/41 359/193/41
f 361/197/14 362/198/14 363/199/14
f 362/198/14 364/200/14 363/199/14
f 365/199/42 366/200/42 367/201/42
f 366/200/42 368/202/42 367/201/42
f 369/203/2 370/204/2 371/205/2
f 370/204/2 372/206/2 371/205/2
s 0
f 373/205/43 374/206/43 375/197/43
s 1
f 374/206/44 376/198/44 375/197/44
f 377/187/40 378/200/40 379/185/40
f 378/200/40 380/198/40 379/185/40
f 381/198/41 382/185/41 383/206/41
f 382/185/41 384/192/41 383/206/41
f 385/207/14 386/208/14 387/209/14
f 386/208/14 388/210/14 387/209/14
f 389/209/15 390/210/15 391/211/15
f 390/210/15 392/212/15 391/211/15
f 393/213/2 394/214/2 395/215/2
f 394/214/2 396/216/2 395/215/2
f 397/215/16 398/216/16 399/207/16
f 398/216/16 400/208/16 399/207/16
s 0
f 401/217/17 402/210/17 403/218/17
f 402/210/17 404/208/17 403/218/17
f 405/208/18 406/218/18 407/219/18
f 406/218/18 408/220/18 407/219/18
s 1
f 409/4/14 410/221/14 411/148/14
f 410/221/14 412/222/14 411/148/14
f 413/148/15 414/222/15 415/13/15
f 414/222/15 416/73/15 415/13/15
f 417/223/2 418/224/2 419/225/2
f 418/224/2 420/226/2 419/225/2
f 421/225/16 422/226/16 423/4/16
f 422/226/16 424/221/16 423/4/16
s 0
f 425/227/17 426/222/17 427/228/17
f 426/222/17 428/221/17 427/228/17
f 429/221/18 430/228/18 431/226/18
f 430/228/18 432/229/18 431/226/18
s 1
f 433/56/14 434/230/14 435/103/14
f 434/230/14 436/231/14 435/103/14
f 437/103/15 438/231/15 439/110/15
f 438/231/15 440/232/15 439/110/15
f 441/233/2 442/49/2 443/234/2
f 442/49/2 444/235/2 443/234/2
f 445/234/16 446/235/16 447/56/16
f 446/235/16 448/230/16 447/56/16
s 0
f 449/236/17 450/231/17 451/237/17
f 450/231/17 452/230/17 451/237/17
f 453/230/18 454/237/18 455/235/18
f 454/237/18 456/238/18 455/235/18
s 1
f 457/239/14 458/240/14 459/136/14
f 458/240/14 460/241/14 459/136/14
f 461/136/1 462/241/1 463/135/13
f 462/241/1 464/242/13 463/135/13
f 465/243/2 466/244/2 467/113/2
f 466/244/2 468/245/2 467/113/2
f 469/113/45 470/245/3 471/239/3
f 470/245/3 472/240/3 471/239/3
f 473/199/5 474/241/5 475/197/5
f 474/241/5 476/240/12 475/197/5
f 477/240/11 478/197/11 479/245/11
f 478/197/11 480/205/6 479/245/11
f 481/125/14 482/246/14 483/124/14
f 482/246/14 484/247/14 483/124/14
f 485/124/7 486/247/7 487/248/46
f 486/247/7 488/249/7 487/248/46
f 489/250/2 490/72/2 491/126/2
f 490/72/2 492/251/2 491/126/2
f 493/126/3 494/251/3 495/125/3
f 494/251/3 496/246/3 495/125/3
f 497/252/5 498/247/12 499/253/12
f 498/247/12 500/246/12 499/253/12
f 501/246/6 502/253/6 503/251/6
f 502/253/6 504/173/11 503/251/6
f 505/254/14 506/255/14 507/256/14
f 506/255/14 508/257/14 507/256/14
f 509/256/15 510/257/15 511/258/15
f 510/257/15 512/259/15 511/258/15
f 513/48/2 514/32/2 515/91/2
f 514/32/2 516/260/2 515/91/2
f 517/91/16 518/260/16 519/254/16
f 518/260/16 520/255/16 519/254/16
s 0
f 521/209/17 522/257/17 523/207/17
f 522/257/17 524/255/17 523/207/17
f 525/255/18 526/207/18 527/261/18
f 526/207/18 528/262/18 527/261/18
s 1
f 529/237/14 530/263/14 531/236/14
f 530/263/14 532/264/14 531/236/14
f 533/236/15 534/264/15 535/265/15
f 534/264/15 536/266/15 535/265/15
f 537/46/2 538/15/2 539/238/2
f 538/15/2 540/267/2 539/238/2
f 541/238/16 542/267/16 543/237/16
f 542/267/16 544/263/16 543/237/16
s 0
f 545/163/17 546/264/17 547/268/17
f 546/264/17 548/263/17 547/268/17
f 549/263/18 550/268/18 551/267/18
f 550/268/18 552/269/18 551/267/18
s 1
f 553/270/14 554/271/14 555/272/14
f 554/271/14 556/273/14 555/272/14
f 557/272/15 558/273/15 559/120/15
f 558/273/15 560/274/15 559/120/15
f 561/37/2 562/275/2 563/276/2
f 562/275/2 564/277/2 563/276/2
f 565/276/16 566/277/16 567/270/16
f 566/277/16 568/271/16 567/270/16
s 0
f 569/69/17 570/273/17 571/278/17
f 570/273/17 572/271/17 571/278/17
f 573/271/18 574/278/18 575/277/18
f 574/278/18 576/279/18 575/277/18
