# Blender 4.2.15 LTS
# www.blender.org
mtllib tungtungtung.mtl
o TopLeftArm
v 0.453125 1.518750 0.078125
v 0.453125 1.675000 0.078125
v 0.296875 1.675000 0.078125
v 0.296875 1.518750 0.078125
v 0.296875 1.675000 -0.078125
v 0.453125 1.675000 -0.078125
v 0.453125 1.518750 -0.078125
v 0.296875 1.518750 -0.078125
v 0.296875 1.675000 0.078125
v 0.453125 1.675000 0.078125
v 0.453125 1.675000 -0.078125
v 0.296875 1.675000 -0.078125
v 0.453125 1.518750 -0.078125
v 0.453125 1.518750 0.078125
v 0.296875 1.518750 0.078125
v 0.296875 1.518750 -0.078125
v 0.453125 1.675000 -0.078125
v 0.453125 1.675000 0.078125
v 0.453125 1.518750 0.078125
v 0.453125 1.518750 -0.078125
v 0.296875 1.518750 0.078125
v 0.296875 1.675000 0.078125
v 0.296875 1.675000 -0.078125
v 0.296875 1.518750 -0.078125
v 0.437500 1.206250 0.062500
v 0.437500 1.706250 0.062500
v 0.312500 1.706250 0.062500
v 0.312500 1.206250 0.062500
v 0.312500 1.706250 -0.062500
v 0.437500 1.706250 -0.062500
v 0.437500 1.206250 -0.062500
v 0.312500 1.206250 -0.062500
v 0.312500 1.706250 0.062500
v 0.437500 1.706250 0.062500
v 0.437500 1.706250 -0.062500
v 0.312500 1.706250 -0.062500
v 0.437500 1.206250 -0.062500
v 0.437500 1.206250 0.062500
v 0.312500 1.206250 0.062500
v 0.312500 1.206250 -0.062500
v 0.437500 1.706250 -0.062500
v 0.437500 1.706250 0.062500
v 0.437500 1.206250 0.062500
v 0.437500 1.206250 -0.062500
v 0.312500 1.206250 0.062500
v 0.312500 1.706250 0.062500
v 0.312500 1.706250 -0.062500
v 0.312500 1.206250 -0.062500
vn -0.0000 -0.0000 1.0000
vn -0.0000 -0.0000 -1.0000
vn -0.0000 1.0000 -0.0000
vn -0.0000 -1.0000 -0.0000
vn 1.0000 -0.0000 -0.0000
vn -1.0000 -0.0000 -0.0000
vt 0.515625 0.539062
vt 0.515625 0.562500
vt 0.492188 0.562500
vt 0.492188 0.539062
vt 0.023438 0.500000
vt 0.000000 0.500000
vt 0.000000 0.476562
vt 0.023438 0.476562
vt 0.500000 1.000000
vt 0.500000 0.976562
vt 0.523438 0.976562
vt 0.523438 1.000000
vt 0.054688 0.500000
vt 0.031250 0.500000
vt 0.031250 0.476562
vt 0.054688 0.476562
vt 0.523438 0.968750
vt 0.500000 0.968750
vt 0.500000 0.945312
vt 0.523438 0.945312
vt 0.085938 0.476562
vt 0.085938 0.500000
vt 0.062500 0.500000
vt 0.062500 0.476562
vt 0.437500 0.687500
vt 0.437500 0.750000
vt 0.421875 0.750000
vt 0.421875 0.687500
vt 0.437500 0.679688
vt 0.421875 0.679688
vt 0.421875 0.617188
vt 0.437500 0.617188
vt 0.492188 0.429688
vt 0.492188 0.414062
vt 0.507812 0.414062
vt 0.507812 0.429688
vt 0.578125 0.429688
vt 0.562500 0.429688
vt 0.562500 0.414062
vt 0.578125 0.414062
vt 0.437500 0.609375
vt 0.421875 0.609375
vt 0.421875 0.546875
vt 0.437500 0.546875
vt 0.445312 0.937500
vt 0.445312 1.000000
vt 0.429688 1.000000
vt 0.429688 0.937500
s 0
usemtl Material_0
f 1/1/1 2/2/1 3/3/1
f 1/1/1 3/3/1 4/4/1
f 5/5/2 6/6/2 7/7/2
f 5/5/2 7/7/2 8/8/2
f 9/9/3 10/10/3 11/11/3
f 9/9/3 11/11/3 12/12/3
f 13/13/4 14/14/4 15/15/4
f 13/13/4 15/15/4 16/16/4
f 17/17/5 18/18/5 19/19/5
f 17/17/5 19/19/5 20/20/5
f 21/21/6 22/22/6 23/23/6
f 21/21/6 23/23/6 24/24/6
f 25/25/1 26/26/1 27/27/1
f 25/25/1 27/27/1 28/28/1
f 29/29/2 30/30/2 31/31/2
f 29/29/2 31/31/2 32/32/2
f 33/33/3 34/34/3 35/35/3
f 33/33/3 35/35/3 36/36/3
f 37/37/4 38/38/4 39/39/4
f 37/37/4 39/39/4 40/40/4
f 41/41/5 42/42/5 43/43/5
f 41/41/5 43/43/5 44/44/5
f 45/45/6 46/46/6 47/47/6
f 45/45/6 47/47/6 48/48/6
o LowLeftArm
v 0.437500 0.643750 0.062500
v 0.437500 1.143750 0.062500
v 0.312500 1.143750 0.062500
v 0.312500 0.643750 0.062500
v 0.312500 1.143750 -0.062500
v 0.437500 1.143750 -0.062500
v 0.437500 0.643750 -0.062500
v 0.312500 0.643750 -0.062500
v 0.312500 1.143750 0.062500
v 0.437500 1.143750 0.062500
v 0.437500 1.143750 -0.062500
v 0.312500 1.143750 -0.062500
v 0.437500 0.643750 -0.062500
v 0.437500 0.643750 0.062500
v 0.312500 0.643750 0.062500
v 0.312500 0.643750 -0.062500
v 0.437500 1.143750 -0.062500
v 0.437500 1.143750 0.062500
v 0.437500 0.643750 0.062500
v 0.437500 0.643750 -0.062500
v 0.312500 0.643750 0.062500
v 0.312500 1.143750 0.062500
v 0.312500 1.143750 -0.062500
v 0.312500 0.643750 -0.062500
v 0.453125 0.593750 0.078125
v 0.453125 0.750000 0.078125
v 0.296875 0.750000 0.078125
v 0.296875 0.593750 0.078125
v 0.296875 0.750000 -0.078125
v 0.453125 0.750000 -0.078125
v 0.453125 0.593750 -0.078125
v 0.296875 0.593750 -0.078125
v 0.296875 0.750000 0.078125
v 0.453125 0.750000 0.078125
v 0.453125 0.750000 -0.078125
v 0.296875 0.750000 -0.078125
v 0.453125 0.593750 -0.078125
v 0.453125 0.593750 0.078125
v 0.296875 0.593750 0.078125
v 0.296875 0.593750 -0.078125
v 0.453125 0.750000 -0.078125
v 0.453125 0.750000 0.078125
v 0.453125 0.593750 0.078125
v 0.453125 0.593750 -0.078125
v 0.296875 0.593750 0.078125
v 0.296875 0.750000 0.078125
v 0.296875 0.750000 -0.078125
v 0.296875 0.593750 -0.078125
v 0.453125 1.143750 0.078125
v 0.453125 1.300000 0.078125
v 0.296875 1.300000 0.078125
v 0.296875 1.143750 0.078125
v 0.296875 1.300000 -0.078125
v 0.453125 1.300000 -0.078125
v 0.453125 1.143750 -0.078125
v 0.296875 1.143750 -0.078125
v 0.296875 1.300000 0.078125
v 0.453125 1.300000 0.078125
v 0.453125 1.300000 -0.078125
v 0.296875 1.300000 -0.078125
v 0.453125 1.143750 -0.078125
v 0.453125 1.143750 0.078125
v 0.296875 1.143750 0.078125
v 0.296875 1.143750 -0.078125
v 0.453125 1.300000 -0.078125
v 0.453125 1.300000 0.078125
v 0.453125 1.143750 0.078125
v 0.453125 1.143750 -0.078125
v 0.296875 1.143750 0.078125
v 0.296875 1.300000 0.078125
v 0.296875 1.300000 -0.078125
v 0.296875 1.143750 -0.078125
vn -0.0000 -0.0000 1.0000
vn -0.0000 -0.0000 -1.0000
vn -0.0000 1.0000 -0.0000
vn -0.0000 -1.0000 -0.0000
vn 1.0000 -0.0000 -0.0000
vn -1.0000 -0.0000 -0.0000
vt 0.085938 0.507812
vt 0.085938 0.570312
vt 0.070312 0.570312
vt 0.070312 0.507812
vt 0.109375 0.570312
vt 0.093750 0.570312
vt 0.093750 0.507812
vt 0.109375 0.507812
vt 0.578125 0.781250
vt 0.578125 0.765625
vt 0.593750 0.765625
vt 0.593750 0.781250
vt 0.593750 0.757812
vt 0.578125 0.757812
vt 0.578125 0.742188
vt 0.593750 0.742188
vt 0.132812 0.570312
vt 0.117188 0.570312
vt 0.117188 0.507812
vt 0.132812 0.507812
vt 0.156250 0.507812
vt 0.156250 0.570312
vt 0.140625 0.570312
vt 0.140625 0.507812
vt 0.117188 0.476562
vt 0.117188 0.500000
vt 0.093750 0.500000
vt 0.093750 0.476562
vt 0.148438 0.500000
vt 0.125000 0.500000
vt 0.125000 0.476562
vt 0.148438 0.476562
vt 0.500000 0.867188
vt 0.500000 0.843750
vt 0.523438 0.843750
vt 0.523438 0.867188
vt 0.523438 0.835938
vt 0.500000 0.835938
vt 0.500000 0.812500
vt 0.523438 0.812500
vt 0.335938 0.500000
vt 0.312500 0.500000
vt 0.312500 0.476562
vt 0.335938 0.476562
vt 0.367188 0.476562
vt 0.367188 0.500000
vt 0.343750 0.500000
vt 0.343750 0.476562
vt 0.531250 0.914062
vt 0.531250 0.937500
vt 0.507812 0.937500
vt 0.507812 0.914062
vt 0.179688 0.492188
vt 0.156250 0.492188
vt 0.156250 0.468750
vt 0.179688 0.468750
vt 0.187500 0.492188
vt 0.187500 0.468750
vt 0.210938 0.468750
vt 0.210938 0.492188
vt 0.242188 0.492188
vt 0.218750 0.492188
vt 0.218750 0.468750
vt 0.242188 0.468750
vt 0.492188 0.492188
vt 0.468750 0.492188
vt 0.468750 0.468750
vt 0.492188 0.468750
vt 0.523438 0.468750
vt 0.523438 0.492188
vt 0.500000 0.492188
vt 0.500000 0.468750
s 0
usemtl Material_0
f 49/49/7 50/50/7 51/51/7
f 49/49/7 51/51/7 52/52/7
f 53/53/8 54/54/8 55/55/8
f 53/53/8 55/55/8 56/56/8
f 57/57/9 58/58/9 59/59/9
f 57/57/9 59/59/9 60/60/9
f 61/61/10 62/62/10 63/63/10
f 61/61/10 63/63/10 64/64/10
f 65/65/11 66/66/11 67/67/11
f 65/65/11 67/67/11 68/68/11
f 69/69/12 70/70/12 71/71/12
f 69/69/12 71/71/12 72/72/12
f 73/73/7 74/74/7 75/75/7
f 73/73/7 75/75/7 76/76/7
f 77/77/8 78/78/8 79/79/8
f 77/77/8 79/79/8 80/80/8
f 81/81/9 82/82/9 83/83/9
f 81/81/9 83/83/9 84/84/9
f 85/85/10 86/86/10 87/87/10
f 85/85/10 87/87/10 88/88/10
f 89/89/11 90/90/11 91/91/11
f 89/89/11 91/91/11 92/92/11
f 93/93/12 94/94/12 95/95/12
f 93/93/12 95/95/12 96/96/12
f 97/97/7 98/98/7 99/99/7
f 97/97/7 99/99/7 100/100/7
f 101/101/8 102/102/8 103/103/8
f 101/101/8 103/103/8 104/104/8
f 105/105/9 106/106/9 107/107/9
f 105/105/9 107/107/9 108/108/9
f 109/109/10 110/110/10 111/111/10
f 109/109/10 111/111/10 112/112/10
f 113/113/11 114/114/11 115/115/11
f 113/113/11 115/115/11 116/116/11
f 117/117/12 118/118/12 119/119/12
f 117/117/12 119/119/12 120/120/12
o TopRightArm
v -0.453125 1.675000 0.078125
v -0.453125 1.518750 0.078125
v -0.296875 1.675000 0.078125
v -0.296875 1.518750 0.078125
v -0.453125 1.675000 -0.078125
v -0.296875 1.675000 -0.078125
v -0.453125 1.518750 -0.078125
v -0.296875 1.518750 -0.078125
v -0.453125 1.675000 0.078125
v -0.296875 1.675000 0.078125
v -0.453125 1.675000 -0.078125
v -0.296875 1.675000 -0.078125
v -0.453125 1.518750 0.078125
v -0.453125 1.518750 -0.078125
v -0.296875 1.518750 0.078125
v -0.296875 1.518750 -0.078125
v -0.453125 1.675000 0.078125
v -0.453125 1.675000 -0.078125
v -0.453125 1.518750 0.078125
v -0.453125 1.518750 -0.078125
v -0.296875 1.675000 0.078125
v -0.296875 1.518750 0.078125
v -0.296875 1.675000 -0.078125
v -0.296875 1.518750 -0.078125
v -0.437500 1.706250 0.062500
v -0.437500 1.206250 0.062500
v -0.312500 1.706250 0.062500
v -0.312500 1.206250 0.062500
v -0.437500 1.706250 -0.062500
v -0.312500 1.706250 -0.062500
v -0.437500 1.206250 -0.062500
v -0.312500 1.206250 -0.062500
v -0.437500 1.706250 0.062500
v -0.312500 1.706250 0.062500
v -0.437500 1.706250 -0.062500
v -0.312500 1.706250 -0.062500
v -0.437500 1.206250 0.062500
v -0.437500 1.206250 -0.062500
v -0.312500 1.206250 0.062500
v -0.312500 1.206250 -0.062500
v -0.437500 1.706250 0.062500
v -0.437500 1.706250 -0.062500
v -0.437500 1.206250 0.062500
v -0.437500 1.206250 -0.062500
v -0.312500 1.706250 0.062500
v -0.312500 1.206250 0.062500
v -0.312500 1.706250 -0.062500
v -0.312500 1.206250 -0.062500
vn -0.0000 -0.0000 1.0000
vn -0.0000 -0.0000 -1.0000
vn -0.0000 1.0000 -0.0000
vn -0.0000 -1.0000 -0.0000
vn -1.0000 -0.0000 -0.0000
vn 1.0000 -0.0000 -0.0000
vt 0.539062 0.750000
vt 0.515625 0.750000
vt 0.515625 0.726562
vt 0.539062 0.726562
vt 0.539062 0.695312
vt 0.539062 0.718750
vt 0.515625 0.718750
vt 0.515625 0.695312
vt 0.515625 0.664062
vt 0.539062 0.664062
vt 0.539062 0.687500
vt 0.515625 0.687500
vt 0.539062 0.632812
vt 0.539062 0.656250
vt 0.515625 0.656250
vt 0.515625 0.632812
vt 0.398438 0.460938
vt 0.398438 0.484375
vt 0.375000 0.484375
vt 0.375000 0.460938
vt 0.539062 0.625000
vt 0.515625 0.625000
vt 0.515625 0.601562
vt 0.539062 0.601562
vt 0.445312 0.859375
vt 0.429688 0.859375
vt 0.429688 0.796875
vt 0.445312 0.796875
vt 0.343750 0.507812
vt 0.343750 0.570312
vt 0.328125 0.570312
vt 0.328125 0.507812
vt 0.578125 0.718750
vt 0.593750 0.718750
vt 0.593750 0.734375
vt 0.578125 0.734375
vt 0.593750 0.695312
vt 0.593750 0.710938
vt 0.578125 0.710938
vt 0.578125 0.695312
vt 0.367188 0.507812
vt 0.367188 0.570312
vt 0.351562 0.570312
vt 0.351562 0.507812
vt 0.453125 0.929688
vt 0.437500 0.929688
vt 0.437500 0.867188
vt 0.453125 0.867188
s 0
usemtl Material_0
f 123/121/13 121/122/13 122/123/13
f 123/121/13 122/123/13 124/124/13
f 127/125/14 125/126/14 126/127/14
f 127/125/14 126/127/14 128/128/14
f 131/129/15 129/130/15 130/131/15
f 131/129/15 130/131/15 132/132/15
f 135/133/16 133/134/16 134/135/16
f 135/133/16 134/135/16 136/136/16
f 139/137/17 137/138/17 138/139/17
f 139/137/17 138/139/17 140/140/17
f 143/141/18 141/142/18 142/143/18
f 143/141/18 142/143/18 144/144/18
f 147/145/13 145/146/13 146/147/13
f 147/145/13 146/147/13 148/148/13
f 151/149/14 149/150/14 150/151/14
f 151/149/14 150/151/14 152/152/14
f 155/153/15 153/154/15 154/155/15
f 155/153/15 154/155/15 156/156/15
f 159/157/16 157/158/16 158/159/16
f 159/157/16 158/159/16 160/160/16
f 163/161/17 161/162/17 162/163/17
f 163/161/17 162/163/17 164/164/17
f 167/165/18 165/166/18 166/167/18
f 167/165/18 166/167/18 168/168/18
o LowRightArm
v -0.437500 1.143750 0.062500
v -0.437500 0.643750 0.062500
v -0.312500 1.143750 0.062500
v -0.312500 0.643750 0.062500
v -0.437500 1.143750 -0.062500
v -0.312500 1.143750 -0.062500
v -0.437500 0.643750 -0.062500
v -0.312500 0.643750 -0.062500
v -0.437500 1.143750 0.062500
v -0.312500 1.143750 0.062500
v -0.437500 1.143750 -0.062500
v -0.312500 1.143750 -0.062500
v -0.437500 0.643750 0.062500
v -0.437500 0.643750 -0.062500
v -0.312500 0.643750 0.062500
v -0.312500 0.643750 -0.062500
v -0.437500 1.143750 0.062500
v -0.437500 1.143750 -0.062500
v -0.437500 0.643750 0.062500
v -0.437500 0.643750 -0.062500
v -0.312500 1.143750 0.062500
v -0.312500 0.643750 0.062500
v -0.312500 1.143750 -0.062500
v -0.312500 0.643750 -0.062500
v -0.453125 0.750000 0.078125
v -0.453125 0.593750 0.078125
v -0.296875 0.750000 0.078125
v -0.296875 0.593750 0.078125
v -0.453125 0.750000 -0.078125
v -0.296875 0.750000 -0.078125
v -0.453125 0.593750 -0.078125
v -0.296875 0.593750 -0.078125
v -0.453125 0.750000 0.078125
v -0.296875 0.750000 0.078125
v -0.453125 0.750000 -0.078125
v -0.296875 0.750000 -0.078125
v -0.453125 0.593750 0.078125
v -0.453125 0.593750 -0.078125
v -0.296875 0.593750 0.078125
v -0.296875 0.593750 -0.078125
v -0.453125 0.750000 0.078125
v -0.453125 0.750000 -0.078125
v -0.453125 0.593750 0.078125
v -0.453125 0.593750 -0.078125
v -0.296875 0.750000 0.078125
v -0.296875 0.593750 0.078125
v -0.296875 0.750000 -0.078125
v -0.296875 0.593750 -0.078125
v -0.453125 1.300000 0.078125
v -0.453125 1.143750 0.078125
v -0.296875 1.300000 0.078125
v -0.296875 1.143750 0.078125
v -0.453125 1.300000 -0.078125
v -0.296875 1.300000 -0.078125
v -0.453125 1.143750 -0.078125
v -0.296875 1.143750 -0.078125
v -0.453125 1.300000 0.078125
v -0.296875 1.300000 0.078125
v -0.453125 1.300000 -0.078125
v -0.296875 1.300000 -0.078125
v -0.453125 1.143750 0.078125
v -0.453125 1.143750 -0.078125
v -0.296875 1.143750 0.078125
v -0.296875 1.143750 -0.078125
v -0.453125 1.300000 0.078125
v -0.453125 1.300000 -0.078125
v -0.453125 1.143750 0.078125
v -0.453125 1.143750 -0.078125
v -0.296875 1.300000 0.078125
v -0.296875 1.143750 0.078125
v -0.296875 1.300000 -0.078125
v -0.296875 1.143750 -0.078125
vn -0.0000 -0.0000 1.0000
vn -0.0000 -0.0000 -1.0000
vn -0.0000 1.0000 -0.0000
vn -0.0000 -1.0000 -0.0000
vn -1.0000 -0.0000 -0.0000
vn 1.0000 -0.0000 -0.0000
vt 0.179688 0.562500
vt 0.164062 0.562500
vt 0.164062 0.500000
vt 0.179688 0.500000
vt 0.203125 0.500000
vt 0.203125 0.562500
vt 0.187500 0.562500
vt 0.187500 0.500000
vt 0.578125 0.671875
vt 0.593750 0.671875
vt 0.593750 0.687500
vt 0.578125 0.687500
vt 0.593750 0.648438
vt 0.593750 0.664062
vt 0.578125 0.664062
vt 0.578125 0.648438
vt 0.226562 0.500000
vt 0.226562 0.562500
vt 0.210938 0.562500
vt 0.210938 0.500000
vt 0.250000 0.562500
vt 0.234375 0.562500
vt 0.234375 0.500000
vt 0.250000 0.500000
vt 0.539062 0.593750
vt 0.515625 0.593750
vt 0.515625 0.570312
vt 0.539062 0.570312
vt 0.539062 0.507812
vt 0.539062 0.531250
vt 0.515625 0.531250
vt 0.515625 0.507812
vt 0.523438 0.882812
vt 0.546875 0.882812
vt 0.546875 0.906250
vt 0.523438 0.906250
vt 0.546875 0.781250
vt 0.546875 0.804688
vt 0.523438 0.804688
vt 0.523438 0.781250
vt 0.273438 0.453125
vt 0.273438 0.476562
vt 0.250000 0.476562
vt 0.250000 0.453125
vt 0.304688 0.476562
vt 0.281250 0.476562
vt 0.281250 0.453125
vt 0.304688 0.453125
vt 0.546875 0.562500
vt 0.523438 0.562500
vt 0.523438 0.539062
vt 0.546875 0.539062
vt 0.023438 0.445312
vt 0.023438 0.468750
vt 0.000000 0.468750
vt 0.000000 0.445312
vt 0.531250 0.976562
vt 0.554688 0.976562
vt 0.554688 1.000000
vt 0.531250 1.000000
vt 0.054688 0.445312
vt 0.054688 0.468750
vt 0.031250 0.468750
vt 0.031250 0.445312
vt 0.554688 0.945312
vt 0.554688 0.968750
vt 0.531250 0.968750
vt 0.531250 0.945312
vt 0.085938 0.468750
vt 0.062500 0.468750
vt 0.062500 0.445312
vt 0.085938 0.445312
s 0
usemtl Material_0
f 171/169/19 169/170/19 170/171/19
f 171/169/19 170/171/19 172/172/19
f 175/173/20 173/174/20 174/175/20
f 175/173/20 174/175/20 176/176/20
f 179/177/21 177/178/21 178/179/21
f 179/177/21 178/179/21 180/180/21
f 183/181/22 181/182/22 182/183/22
f 183/181/22 182/183/22 184/184/22
f 187/185/23 185/186/23 186/187/23
f 187/185/23 186/187/23 188/188/23
f 191/189/24 189/190/24 190/191/24
f 191/189/24 190/191/24 192/192/24
f 195/193/19 193/194/19 194/195/19
f 195/193/19 194/195/19 196/196/19
f 199/197/20 197/198/20 198/199/20
f 199/197/20 198/199/20 200/200/20
f 203/201/21 201/202/21 202/203/21
f 203/201/21 202/203/21 204/204/21
f 207/205/22 205/206/22 206/207/22
f 207/205/22 206/207/22 208/208/22
f 211/209/23 209/210/23 210/211/23
f 211/209/23 210/211/23 212/212/23
f 215/213/24 213/214/24 214/215/24
f 215/213/24 214/215/24 216/216/24
f 219/217/19 217/218/19 218/219/19
f 219/217/19 218/219/19 220/220/19
f 223/221/20 221/222/20 222/223/20
f 223/221/20 222/223/20 224/224/20
f 227/225/21 225/226/21 226/227/21
f 227/225/21 226/227/21 228/228/21
f 231/229/22 229/230/22 230/231/22
f 231/229/22 230/231/22 232/232/22
f 235/233/23 233/234/23 234/235/23
f 235/233/23 234/235/23 236/236/23
f 239/237/24 237/238/24 238/239/24
f 239/237/24 238/239/24 240/240/24
o Stick
v -0.421875 0.718750 -0.234375
v -0.421875 0.718750 0.234375
v -0.328125 0.718750 0.234375
v -0.328125 0.718750 -0.234375
v -0.328125 0.625000 0.234375
v -0.421875 0.625000 0.234375
v -0.421875 0.625000 -0.234375
v -0.328125 0.625000 -0.234375
v -0.421875 0.625000 0.234375
v -0.421875 0.718750 0.234375
v -0.421875 0.718750 -0.234375
v -0.421875 0.625000 -0.234375
v -0.328125 0.718750 -0.234375
v -0.328125 0.718750 0.234375
v -0.328125 0.625000 0.234375
v -0.328125 0.625000 -0.234375
v -0.312500 0.734375 -0.146875
v -0.437500 0.734375 -0.146875
v -0.437500 0.609375 -0.146875
v -0.312500 0.609375 -0.146875
v -0.437500 0.609375 -0.240625
v -0.437500 0.734375 -0.240625
v -0.312500 0.734375 -0.240625
v -0.312500 0.609375 -0.240625
v -0.437500 0.734375 -0.240625
v -0.437500 0.734375 -0.146875
v -0.312500 0.734375 -0.146875
v -0.312500 0.734375 -0.240625
v -0.312500 0.609375 -0.146875
v -0.437500 0.609375 -0.146875
v -0.437500 0.609375 -0.240625
v -0.312500 0.609375 -0.240625
v -0.437500 0.609375 -0.146875
v -0.437500 0.734375 -0.146875
v -0.437500 0.734375 -0.240625
v -0.437500 0.609375 -0.240625
v -0.312500 0.734375 -0.240625
v -0.312500 0.734375 -0.146875
v -0.312500 0.609375 -0.146875
v -0.312500 0.609375 -0.240625
v -0.437500 0.609375 0.234375
v -0.437500 0.734375 0.234375
v -0.312500 0.734375 0.234375
v -0.312500 0.609375 0.234375
v -0.437500 0.734375 0.234375
v -0.437500 0.734375 0.703125
v -0.312500 0.734375 0.703125
v -0.312500 0.734375 0.234375
v -0.312500 0.609375 0.703125
v -0.437500 0.609375 0.703125
v -0.437500 0.609375 0.234375
v -0.312500 0.609375 0.234375
v -0.437500 0.609375 0.703125
v -0.437500 0.734375 0.703125
v -0.437500 0.734375 0.234375
v -0.437500 0.609375 0.234375
v -0.312500 0.734375 0.234375
v -0.312500 0.734375 0.703125
v -0.312500 0.609375 0.703125
v -0.312500 0.609375 0.234375
v -0.296875 0.750000 1.171875
v -0.453125 0.750000 1.171875
v -0.453125 0.593750 1.171875
v -0.296875 0.593750 1.171875
v -0.453125 0.593750 0.703125
v -0.453125 0.750000 0.703125
v -0.296875 0.750000 0.703125
v -0.296875 0.593750 0.703125
v -0.453125 0.750000 0.703125
v -0.453125 0.750000 1.171875
v -0.296875 0.750000 1.171875
v -0.296875 0.750000 0.703125
v -0.296875 0.593750 1.171875
v -0.453125 0.593750 1.171875
v -0.453125 0.593750 0.703125
v -0.296875 0.593750 0.703125
v -0.453125 0.593750 1.171875
v -0.453125 0.750000 1.171875
v -0.453125 0.750000 0.703125
v -0.453125 0.593750 0.703125
v -0.296875 0.750000 0.703125
v -0.296875 0.750000 1.171875
v -0.296875 0.593750 1.171875
v -0.296875 0.593750 0.703125
vn -0.0000 1.0000 -0.0000
vn -0.0000 -1.0000 -0.0000
vn -1.0000 -0.0000 -0.0000
vn 1.0000 -0.0000 -0.0000
vn -0.0000 -0.0000 1.0000
vn -0.0000 -0.0000 -1.0000
vt 0.445312 0.734375
vt 0.507812 0.734375
vt 0.507812 0.750000
vt 0.445312 0.750000
vt 0.507812 0.710938
vt 0.507812 0.726562
vt 0.445312 0.726562
vt 0.445312 0.710938
vt 0.507812 0.687500
vt 0.507812 0.703125
vt 0.445312 0.703125
vt 0.445312 0.687500
vt 0.507812 0.679688
vt 0.445312 0.679688
vt 0.445312 0.664062
vt 0.507812 0.664062
vt 0.593750 0.640625
vt 0.578125 0.640625
vt 0.578125 0.625000
vt 0.593750 0.625000
vt 0.390625 0.406250
vt 0.390625 0.421875
vt 0.375000 0.421875
vt 0.375000 0.406250
vt 0.578125 0.601562
vt 0.593750 0.601562
vt 0.593750 0.617188
vt 0.578125 0.617188
vt 0.593750 0.515625
vt 0.593750 0.531250
vt 0.578125 0.531250
vt 0.578125 0.515625
vt 0.601562 0.898438
vt 0.601562 0.914062
vt 0.585938 0.914062
vt 0.585938 0.898438
vt 0.203125 0.414062
vt 0.187500 0.414062
vt 0.187500 0.398438
vt 0.203125 0.398438
vt 0.601562 0.796875
vt 0.601562 0.812500
vt 0.585938 0.812500
vt 0.585938 0.796875
vt 0.445312 0.640625
vt 0.507812 0.640625
vt 0.507812 0.656250
vt 0.445312 0.656250
vt 0.507812 0.617188
vt 0.507812 0.632812
vt 0.445312 0.632812
vt 0.445312 0.617188
vt 0.507812 0.593750
vt 0.507812 0.609375
vt 0.445312 0.609375
vt 0.445312 0.593750
vt 0.507812 0.585938
vt 0.445312 0.585938
vt 0.445312 0.570312
vt 0.507812 0.570312
vt 0.117188 0.468750
vt 0.093750 0.468750
vt 0.093750 0.445312
vt 0.117188 0.445312
vt 0.148438 0.445312
vt 0.148438 0.468750
vt 0.125000 0.468750
vt 0.125000 0.445312
vt 0.343750 0.648438
vt 0.406250 0.648438
vt 0.406250 0.671875
vt 0.343750 0.671875
vt 0.414062 0.718750
vt 0.414062 0.742188
vt 0.351562 0.742188
vt 0.351562 0.718750
vt 0.414062 0.687500
vt 0.414062 0.710938
vt 0.351562 0.710938
vt 0.351562 0.687500
vt 0.062500 0.640625
vt 0.000000 0.640625
vt 0.000000 0.617188
vt 0.062500 0.617188
s 0
usemtl Material_0
f 241/241/25 242/242/25 243/243/25
f 241/241/25 243/243/25 244/244/25
f 245/245/26 246/246/26 247/247/26
f 245/245/26 247/247/26 248/248/26
f 249/249/27 250/250/27 251/251/27
f 249/249/27 251/251/27 252/252/27
f 253/253/28 254/254/28 255/255/28
f 253/253/28 255/255/28 256/256/28
f 257/257/29 258/258/29 259/259/29
f 257/257/29 259/259/29 260/260/29
f 261/261/30 262/262/30 263/263/30
f 261/261/30 263/263/30 264/264/30
f 265/265/25 266/266/25 267/267/25
f 265/265/25 267/267/25 268/268/25
f 269/269/26 270/270/26 271/271/26
f 269/269/26 271/271/26 272/272/26
f 273/273/27 274/274/27 275/275/27
f 273/273/27 275/275/27 276/276/27
f 277/277/28 278/278/28 279/279/28
f 277/277/28 279/279/28 280/280/28
f 281/281/30 282/282/30 283/283/30
f 281/281/30 283/283/30 284/284/30
f 285/285/25 286/286/25 287/287/25
f 285/285/25 287/287/25 288/288/25
f 289/289/26 290/290/26 291/291/26
f 289/289/26 291/291/26 292/292/26
f 293/293/27 294/294/27 295/295/27
f 293/293/27 295/295/27 296/296/27
f 297/297/28 298/298/28 299/299/28
f 297/297/28 299/299/28 300/300/28
f 301/301/29 302/302/29 303/303/29
f 301/301/29 303/303/29 304/304/29
f 305/305/30 306/306/30 307/307/30
f 305/305/30 307/307/30 308/308/30
f 309/309/25 310/310/25 311/311/25
f 309/309/25 311/311/25 312/312/25
f 313/313/26 314/314/26 315/315/26
f 313/313/26 315/315/26 316/316/26
f 317/317/27 318/318/27 319/319/27
f 317/317/27 319/319/27 320/320/27
f 321/321/28 322/322/28 323/323/28
f 321/321/28 323/323/28 324/324/28
o Brows
v -0.015625 2.374880 0.378428
v -0.328125 2.374880 0.378428
v -0.328125 2.230524 0.438223
v -0.015625 2.230524 0.438223
v 0.328125 2.230524 0.438223
v 0.328125 2.374880 0.378428
v 0.015625 2.374880 0.378428
v 0.015625 2.230524 0.438223
vn -0.0000 0.3827 0.9239
vt 0.500000 0.937500
vt 0.460938 0.937500
vt 0.460938 0.914062
vt 0.500000 0.914062
vt 0.320312 0.523438
vt 0.320312 0.546875
vt 0.281250 0.546875
vt 0.281250 0.523438
s 0
usemtl Material_0
f 325/325/31 326/326/31 327/327/31
f 325/325/31 327/327/31 328/328/31
f 329/329/31 330/330/31 331/331/31
f 329/329/31 331/331/31 332/332/31
o EyeR
v -0.109375 2.137500 0.403125
v -0.234375 2.137500 0.403125
v -0.234375 2.012500 0.403125
v -0.109375 2.012500 0.403125
v -0.078125 2.187500 0.206250
v -0.265625 2.187500 0.206250
v -0.265625 2.187500 0.393750
v -0.078125 2.187500 0.393750
v -0.265625 2.000000 0.393750
v -0.265625 2.000000 0.206250
v -0.078125 2.000000 0.206250
v -0.078125 2.000000 0.393750
v -0.078125 2.187500 0.393750
v -0.265625 2.187500 0.393750
v -0.265625 2.000000 0.393750
v -0.078125 2.000000 0.393750
v -0.265625 2.187500 0.393750
v -0.265625 2.187500 0.206250
v -0.265625 2.000000 0.206250
v -0.265625 2.000000 0.393750
v -0.078125 2.000000 0.206250
v -0.078125 2.187500 0.206250
v -0.078125 2.187500 0.393750
v -0.078125 2.000000 0.393750
vn -0.0000 -0.0000 1.0000
vn -0.0000 1.0000 -0.0000
vn -0.0000 -1.0000 -0.0000
vn -1.0000 -0.0000 -0.0000
vn 1.0000 -0.0000 -0.0000
vt 0.273438 0.398438
vt 0.273438 0.414062
vt 0.257812 0.414062
vt 0.257812 0.398438
vt 0.570312 0.710938
vt 0.546875 0.710938
vt 0.546875 0.687500
vt 0.570312 0.687500
vt 0.570312 0.656250
vt 0.570312 0.679688
vt 0.546875 0.679688
vt 0.546875 0.656250
vt 0.570312 0.625000
vt 0.570312 0.648438
vt 0.546875 0.648438
vt 0.546875 0.625000
vt 0.398438 0.429688
vt 0.398438 0.453125
vt 0.375000 0.453125
vt 0.375000 0.429688
vt 0.570312 0.617188
vt 0.546875 0.617188
vt 0.546875 0.593750
vt 0.570312 0.593750
s 0
usemtl Material_0
f 333/333/32 334/334/32 335/335/32
f 333/333/32 335/335/32 336/336/32
f 337/337/33 338/338/33 339/339/33
f 337/337/33 339/339/33 340/340/33
f 341/341/34 342/342/34 343/343/34
f 341/341/34 343/343/34 344/344/34
f 345/345/32 346/346/32 347/347/32
f 345/345/32 347/347/32 348/348/32
f 349/349/35 350/350/35 351/351/35
f 349/349/35 351/351/35 352/352/35
f 353/353/36 354/354/36 355/355/36
f 353/353/36 355/355/36 356/356/36
o EyeR.001
v 0.234375 2.137500 0.403125
v 0.109375 2.137500 0.403125
v 0.234375 2.012500 0.403125
v 0.109375 2.012500 0.403125
v 0.265625 2.187500 0.206250
v 0.078125 2.187500 0.206250
v 0.265625 2.187500 0.393750
v 0.078125 2.187500 0.393750
v 0.265625 2.000000 0.206250
v 0.265625 2.000000 0.393750
v 0.078125 2.000000 0.206250
v 0.078125 2.000000 0.393750
v 0.265625 2.187500 0.393750
v 0.078125 2.187500 0.393750
v 0.265625 2.000000 0.393750
v 0.078125 2.000000 0.393750
v 0.265625 2.187500 0.206250
v 0.265625 2.187500 0.393750
v 0.265625 2.000000 0.206250
v 0.265625 2.000000 0.393750
v 0.078125 2.187500 0.206250
v 0.078125 2.000000 0.206250
v 0.078125 2.187500 0.393750
v 0.078125 2.000000 0.393750
vn -0.0000 -0.0000 1.0000
vn -0.0000 1.0000 -0.0000
vn -0.0000 -1.0000 -0.0000
vn 1.0000 -0.0000 -0.0000
vn -1.0000 -0.0000 -0.0000
vt 0.296875 0.414062
vt 0.281250 0.414062
vt 0.281250 0.398438
vt 0.296875 0.398438
vt 0.570312 0.507812
vt 0.570312 0.531250
vt 0.546875 0.531250
vt 0.546875 0.507812
vt 0.578125 0.906250
vt 0.554688 0.906250
vt 0.554688 0.882812
vt 0.578125 0.882812
vt 0.578125 0.812500
vt 0.554688 0.812500
vt 0.554688 0.789062
vt 0.578125 0.789062
vt 0.273438 0.445312
vt 0.250000 0.445312
vt 0.250000 0.421875
vt 0.273438 0.421875
vt 0.304688 0.421875
vt 0.304688 0.445312
vt 0.281250 0.445312
vt 0.281250 0.421875
s 0
usemtl Material_0
f 359/357/37 357/358/37 358/359/37
f 359/357/37 358/359/37 360/360/37
f 363/361/38 361/362/38 362/363/38
f 363/361/38 362/363/38 364/364/38
f 367/365/39 365/366/39 366/367/39
f 367/365/39 366/367/39 368/368/39
f 371/369/37 369/370/37 370/371/37
f 371/369/37 370/371/37 372/372/37
f 375/373/40 373/374/40 374/375/40
f 375/373/40 374/375/40 376/376/40
f 379/377/41 377/378/41 378/379/41
f 379/377/41 378/379/41 380/380/41
o EyeLidR
v -0.275000 1.980045 0.417654
v -0.275000 1.847463 0.285071
v -0.068750 1.847463 0.285071
v -0.068750 1.980045 0.417654
v -0.068750 2.103789 0.293910
v -0.275000 2.103789 0.293910
v -0.275000 1.980045 0.417654
v -0.068750 1.980045 0.417654
v -0.275000 2.103789 0.293910
v -0.275000 1.971207 0.161327
v -0.275000 1.847463 0.285071
v -0.275000 1.980045 0.417654
v -0.068750 1.847463 0.285071
v -0.068750 1.971207 0.161327
v -0.068750 2.103789 0.293910
v -0.068750 1.980045 0.417654
v -0.275000 2.163126 0.422073
v -0.275000 2.008446 0.267393
v -0.068750 2.008446 0.267393
v -0.068750 2.163126 0.422073
v -0.068750 2.295708 0.289490
v -0.275000 2.295708 0.289490
v -0.275000 2.163126 0.422073
v -0.068750 2.163126 0.422073
v -0.275000 2.295708 0.289490
v -0.275000 2.141029 0.134811
v -0.275000 2.008446 0.267393
v -0.275000 2.163126 0.422073
v -0.068750 2.008446 0.267393
v -0.068750 2.141029 0.134811
v -0.068750 2.295708 0.289490
v -0.068750 2.163126 0.422073
vn -0.0000 -0.7071 0.7071
vn -0.0000 0.7071 0.7071
vn -1.0000 -0.0000 -0.0000
vn 1.0000 -0.0000 -0.0000
vt 0.578125 0.562500
vt 0.578125 0.585938
vt 0.554688 0.585938
vt 0.554688 0.562500
vt 0.023438 0.414062
vt 0.023438 0.437500
vt 0.000000 0.437500
vt 0.000000 0.414062
vt 0.585938 0.976562
vt 0.585938 1.000000
vt 0.562500 1.000000
vt 0.562500 0.976562
vt 0.054688 0.437500
vt 0.031250 0.437500
vt 0.031250 0.414062
vt 0.054688 0.414062
vt 0.398438 0.492188
vt 0.398438 0.523438
vt 0.375000 0.523438
vt 0.375000 0.492188
vt 0.585938 0.945312
vt 0.585938 0.968750
vt 0.562500 0.968750
vt 0.562500 0.945312
vt 0.304688 0.484375
vt 0.304688 0.515625
vt 0.281250 0.515625
vt 0.281250 0.484375
vt 0.507812 0.531250
vt 0.484375 0.531250
vt 0.484375 0.500000
vt 0.507812 0.500000
s 0
usemtl Material_0
f 381/381/42 382/382/42 383/383/42
f 381/381/42 383/383/42 384/384/42
f 385/385/43 386/386/43 387/387/43
f 385/385/43 387/387/43 388/388/43
f 389/389/44 390/390/44 391/391/44
f 389/389/44 391/391/44 392/392/44
f 393/393/45 394/394/45 395/395/45
f 393/393/45 395/395/45 396/396/45
f 397/397/42 398/398/42 399/399/42
f 397/397/42 399/399/42 400/400/42
f 401/401/43 402/402/43 403/403/43
f 401/401/43 403/403/43 404/404/43
f 405/405/44 406/406/44 407/407/44
f 405/405/44 407/407/44 408/408/44
f 409/409/45 410/410/45 411/411/45
f 409/409/45 411/411/45 412/412/45
o EyeLidL
v 0.068750 2.008446 0.267393
v 0.275000 2.008446 0.267393
v 0.275000 2.163126 0.422073
v 0.068750 2.163126 0.422073
v 0.275000 2.163126 0.422073
v 0.275000 2.295708 0.289490
v 0.068750 2.295708 0.289490
v 0.068750 2.163126 0.422073
v 0.275000 2.008446 0.267393
v 0.275000 2.141029 0.134811
v 0.275000 2.295708 0.289490
v 0.275000 2.163126 0.422073
v 0.068750 2.295708 0.289490
v 0.068750 2.141029 0.134811
v 0.068750 2.008446 0.267393
v 0.068750 2.163126 0.422073
v 0.068750 1.847463 0.285071
v 0.275000 1.847463 0.285071
v 0.275000 1.980045 0.417654
v 0.068750 1.980045 0.417654
v 0.275000 1.980045 0.417654
v 0.275000 2.103789 0.293910
v 0.068750 2.103789 0.293910
v 0.068750 1.980045 0.417654
v 0.275000 1.847463 0.285071
v 0.275000 1.971207 0.161327
v 0.275000 2.103789 0.293910
v 0.275000 1.980045 0.417654
v 0.068750 2.103789 0.293910
v 0.068750 1.971207 0.161327
v 0.068750 1.847463 0.285071
v 0.068750 1.980045 0.417654
vn -0.0000 -0.7071 0.7071
vn -0.0000 0.7071 0.7071
vn 1.0000 -0.0000 -0.0000
vn -1.0000 -0.0000 -0.0000
vt 0.515625 0.906250
vt 0.492188 0.906250
vt 0.492188 0.875000
vt 0.515625 0.875000
vt 0.085938 0.437500
vt 0.062500 0.437500
vt 0.062500 0.414062
vt 0.085938 0.414062
vt 0.429688 0.507812
vt 0.406250 0.507812
vt 0.406250 0.476562
vt 0.429688 0.476562
vt 0.460938 0.476562
vt 0.460938 0.507812
vt 0.437500 0.507812
vt 0.437500 0.476562
vt 0.117188 0.437500
vt 0.093750 0.437500
vt 0.093750 0.414062
vt 0.117188 0.414062
vt 0.148438 0.437500
vt 0.125000 0.437500
vt 0.125000 0.414062
vt 0.148438 0.414062
vt 0.585938 0.875000
vt 0.562500 0.875000
vt 0.562500 0.851562
vt 0.585938 0.851562
vt 0.585938 0.820312
vt 0.585938 0.843750
vt 0.562500 0.843750
vt 0.562500 0.820312
s 0
usemtl Material_0
f 413/413/46 414/414/46 415/415/46
f 413/413/46 415/415/46 416/416/46
f 417/417/47 418/418/47 419/419/47
f 417/417/47 419/419/47 420/420/47
f 421/421/48 422/422/48 423/423/48
f 421/421/48 423/423/48 424/424/48
f 425/425/49 426/426/49 427/427/49
f 425/425/49 427/427/49 428/428/49
f 429/429/46 430/430/46 431/431/46
f 429/429/46 431/431/46 432/432/46
f 433/433/47 434/434/47 435/435/47
f 433/433/47 435/435/47 436/436/47
f 437/437/48 438/438/48 439/439/48
f 437/437/48 439/439/48 440/440/48
f 441/441/49 442/442/49 443/443/49
f 441/441/49 443/443/49 444/444/49
o LowLip
v 0.093750 1.703125 0.421875
v -0.093750 1.703125 0.421875
v -0.093750 1.609375 0.421875
v 0.093750 1.609375 0.421875
v -0.093750 1.703125 0.234375
v -0.093750 1.703125 0.421875
v 0.093750 1.703125 0.421875
v 0.093750 1.703125 0.234375
v 0.093750 1.609375 0.421875
v -0.093750 1.609375 0.421875
v -0.093750 1.609375 0.234375
v 0.093750 1.609375 0.234375
v -0.093750 1.609375 0.421875
v -0.093750 1.703125 0.421875
v -0.093750 1.703125 0.234375
v -0.093750 1.609375 0.234375
v 0.093750 1.703125 0.234375
v 0.093750 1.703125 0.421875
v 0.093750 1.609375 0.421875
v 0.093750 1.609375 0.234375
vn -0.0000 -0.0000 1.0000
vn -0.0000 1.0000 -0.0000
vn -0.0000 -1.0000 -0.0000
vn -1.0000 -0.0000 -0.0000
vn 1.0000 -0.0000 -0.0000
vt 0.585938 0.453125
vt 0.562500 0.453125
vt 0.562500 0.437500
vt 0.585938 0.437500
vt 0.312500 0.414062
vt 0.335938 0.414062
vt 0.335938 0.437500
vt 0.312500 0.437500
vt 0.367188 0.414062
vt 0.367188 0.437500
vt 0.343750 0.437500
vt 0.343750 0.414062
vt 0.593750 0.921875
vt 0.593750 0.937500
vt 0.570312 0.937500
vt 0.570312 0.921875
vt 0.179688 0.429688
vt 0.156250 0.429688
vt 0.156250 0.414062
vt 0.179688 0.414062
s 0
usemtl Material_0
f 445/445/50 446/446/50 447/447/50
f 445/445/50 447/447/50 448/448/50
f 449/449/51 450/450/51 451/451/51
f 449/449/51 451/451/51 452/452/51
f 453/453/52 454/454/52 455/455/52
f 453/453/52 455/455/52 456/456/52
f 457/457/53 458/458/53 459/459/53
f 457/457/53 459/459/53 460/460/53
f 461/461/54 462/462/54 463/463/54
f 461/461/54 463/463/54 464/464/54
o TopLip
v 0.156250 1.746875 0.406250
v -0.156250 1.746875 0.406250
v -0.156250 1.703125 0.406250
v 0.156250 1.703125 0.406250
v -0.156250 1.746875 0.218750
v -0.156250 1.746875 0.406250
v 0.156250 1.746875 0.406250
v 0.156250 1.746875 0.218750
v 0.156250 1.703125 0.406250
v -0.156250 1.703125 0.406250
v -0.156250 1.703125 0.218750
v 0.156250 1.703125 0.218750
v -0.156250 1.703125 0.406250
v -0.156250 1.746875 0.406250
v -0.156250 1.746875 0.218750
v -0.156250 1.703125 0.218750
v 0.156250 1.746875 0.218750
v 0.156250 1.746875 0.406250
v 0.156250 1.703125 0.406250
v 0.156250 1.703125 0.218750
vn -0.0000 -0.0000 1.0000
vn -0.0000 1.0000 -0.0000
vn -0.0000 -1.0000 -0.0000
vn -1.0000 -0.0000 -0.0000
vn 1.0000 -0.0000 -0.0000
vt 0.226562 0.429688
vt 0.187500 0.429688
vt 0.187500 0.421875
vt 0.226562 0.421875
vt 0.218750 0.679688
vt 0.242188 0.679688
vt 0.242188 0.718750
vt 0.218750 0.718750
vt 0.484375 0.867188
vt 0.484375 0.906250
vt 0.460938 0.906250
vt 0.460938 0.867188
vt 0.367188 0.835938
vt 0.367188 0.843750
vt 0.343750 0.843750
vt 0.343750 0.835938
vt 0.609375 0.890625
vt 0.585938 0.890625
vt 0.585938 0.882812
vt 0.609375 0.882812
s 0
usemtl Material_0
f 465/465/55 466/466/55 467/467/55
f 465/465/55 467/467/55 468/468/55
f 469/469/56 470/470/56 471/471/56
f 469/469/56 471/471/56 472/472/56
f 473/473/57 474/474/57 475/475/57
f 473/473/57 475/475/57 476/476/57
f 477/477/58 478/478/58 479/479/58
f 477/477/58 479/479/58 480/480/58
f 481/481/59 482/482/59 483/483/59
f 481/481/59 483/483/59 484/484/59
o TopRightLeg
v -0.125000 1.125000 0.062500
v -0.250000 1.125000 0.062500
v -0.250000 0.500000 0.062500
v -0.125000 0.500000 0.062500
v -0.250000 0.500000 -0.062500
v -0.250000 1.125000 -0.062500
v -0.125000 1.125000 -0.062500
v -0.125000 0.500000 -0.062500
v -0.125000 0.500000 0.062500
v -0.250000 0.500000 0.062500
v -0.250000 0.500000 -0.062500
v -0.125000 0.500000 -0.062500
v -0.250000 0.500000 0.062500
v -0.250000 1.125000 0.062500
v -0.250000 1.125000 -0.062500
v -0.250000 0.500000 -0.062500
v -0.125000 1.125000 -0.062500
v -0.125000 1.125000 0.062500
v -0.125000 0.500000 0.062500
v -0.125000 0.500000 -0.062500
vn -0.0000 -0.0000 1.0000
vn -0.0000 -0.0000 -1.0000
vn -0.0000 -1.0000 -0.0000
vn -1.0000 -0.0000 -0.0000
vn 1.0000 -0.0000 -0.0000
vt 0.296875 0.632812
vt 0.281250 0.632812
vt 0.281250 0.554688
vt 0.296875 0.554688
vt 0.320312 0.554688
vt 0.320312 0.632812
vt 0.304688 0.632812
vt 0.304688 0.554688
vt 0.226562 0.398438
vt 0.226562 0.414062
vt 0.210938 0.414062
vt 0.210938 0.398438
vt 0.390625 0.562500
vt 0.390625 0.640625
vt 0.375000 0.640625
vt 0.375000 0.562500
vt 0.015625 0.609375
vt 0.000000 0.609375
vt 0.000000 0.531250
vt 0.015625 0.531250
s 0
usemtl Material_0
f 485/485/60 486/486/60 487/487/60
f 485/485/60 487/487/60 488/488/60
f 489/489/61 490/490/61 491/491/61
f 489/489/61 491/491/61 492/492/61
f 493/493/62 494/494/62 495/495/62
f 493/493/62 495/495/62 496/496/62
f 497/497/63 498/498/63 499/499/63
f 497/497/63 499/499/63 500/500/63
f 501/501/64 502/502/64 503/503/64
f 501/501/64 503/503/64 504/504/64
o MidleRightLeg
v -0.109375 0.578125 0.140625
v -0.265625 0.578125 0.140625
v -0.265625 0.421875 0.140625
v -0.109375 0.421875 0.140625
v -0.265625 0.421875 -0.015625
v -0.265625 0.578125 -0.015625
v -0.109375 0.578125 -0.015625
v -0.109375 0.421875 -0.015625
v -0.265625 0.578125 -0.015625
v -0.265625 0.578125 0.140625
v -0.109375 0.578125 0.140625
v -0.109375 0.578125 -0.015625
v -0.109375 0.421875 0.140625
v -0.265625 0.421875 0.140625
v -0.265625 0.421875 -0.015625
v -0.109375 0.421875 -0.015625
v -0.265625 0.421875 0.140625
v -0.265625 0.578125 0.140625
v -0.265625 0.578125 -0.015625
v -0.265625 0.421875 -0.015625
v -0.109375 0.578125 -0.015625
v -0.109375 0.578125 0.140625
v -0.109375 0.421875 0.140625
v -0.109375 0.421875 -0.015625
v -0.093750 0.500000 0.093750
v -0.281250 0.500000 0.093750
v -0.281250 0.000000 0.093750
v -0.093750 0.000000 0.093750
v -0.281250 0.000000 -0.093750
v -0.281250 0.500000 -0.093750
v -0.093750 0.500000 -0.093750
v -0.093750 0.000000 -0.093750
v -0.281250 0.500000 -0.093750
v -0.281250 0.500000 0.093750
v -0.093750 0.500000 0.093750
v -0.093750 0.500000 -0.093750
v -0.093750 0.000000 0.093750
v -0.281250 0.000000 0.093750
v -0.281250 0.000000 -0.093750
v -0.093750 0.000000 -0.093750
v -0.281250 0.000000 0.093750
v -0.281250 0.500000 0.093750
v -0.281250 0.500000 -0.093750
v -0.281250 0.000000 -0.093750
v -0.093750 0.500000 -0.093750
v -0.093750 0.500000 0.093750
v -0.093750 0.000000 0.093750
v -0.093750 0.000000 -0.093750
vn -0.0000 -0.0000 1.0000
vn -0.0000 -0.0000 -1.0000
vn -0.0000 1.0000 -0.0000
vn -0.0000 -1.0000 -0.0000
vn -1.0000 -0.0000 -0.0000
vn 1.0000 -0.0000 -0.0000
vt 0.554688 0.875000
vt 0.531250 0.875000
vt 0.531250 0.851562
vt 0.554688 0.851562
vt 0.554688 0.820312
vt 0.554688 0.843750
vt 0.531250 0.843750
vt 0.531250 0.820312
vt 0.312500 0.445312
vt 0.335938 0.445312
vt 0.335938 0.468750
vt 0.312500 0.468750
vt 0.367188 0.445312
vt 0.367188 0.468750
vt 0.343750 0.468750
vt 0.343750 0.445312
vt 0.429688 0.445312
vt 0.429688 0.468750
vt 0.406250 0.468750
vt 0.406250 0.445312
vt 0.460938 0.468750
vt 0.437500 0.468750
vt 0.437500 0.445312
vt 0.460938 0.445312
vt 0.093750 0.640625
vt 0.070312 0.640625
vt 0.070312 0.578125
vt 0.093750 0.578125
vt 0.125000 0.578125
vt 0.125000 0.640625
vt 0.101562 0.640625
vt 0.101562 0.578125
vt 0.531250 0.476562
vt 0.554688 0.476562
vt 0.554688 0.500000
vt 0.531250 0.500000
vt 0.554688 0.445312
vt 0.554688 0.468750
vt 0.531250 0.468750
vt 0.531250 0.445312
vt 0.156250 0.578125
vt 0.156250 0.640625
vt 0.132812 0.640625
vt 0.132812 0.578125
vt 0.367188 0.640625
vt 0.343750 0.640625
vt 0.343750 0.578125
vt 0.367188 0.578125
s 0
usemtl Material_0
f 505/505/65 506/506/65 507/507/65
f 505/505/65 507/507/65 508/508/65
f 509/509/66 510/510/66 511/511/66
f 509/509/66 511/511/66 512/512/66
f 513/513/67 514/514/67 515/515/67
f 513/513/67 515/515/67 516/516/67
f 517/517/68 518/518/68 519/519/68
f 517/517/68 519/519/68 520/520/68
f 521/521/69 522/522/69 523/523/69
f 521/521/69 523/523/69 524/524/69
f 525/525/70 526/526/70 527/527/70
f 525/525/70 527/527/70 528/528/70
f 529/529/65 530/530/65 531/531/65
f 529/529/65 531/531/65 532/532/65
f 533/533/66 534/534/66 535/535/66
f 533/533/66 535/535/66 536/536/66
f 537/537/67 538/538/67 539/539/67
f 537/537/67 539/539/67 540/540/67
f 541/541/68 542/542/68 543/543/68
f 541/541/68 543/543/68 544/544/68
f 545/545/69 546/546/69 547/547/69
f 545/545/69 547/547/69 548/548/69
f 549/549/70 550/550/70 551/551/70
f 549/549/70 551/551/70 552/552/70
o FootRight
v -0.078125 0.093750 0.437500
v -0.296875 0.093750 0.437500
v -0.296875 0.000000 0.437500
v -0.078125 0.000000 0.437500
v -0.296875 0.000000 -0.000000
v -0.296875 0.093750 -0.000000
v -0.078125 0.093750 -0.000000
v -0.078125 0.000000 -0.000000
v -0.296875 0.093750 -0.000000
v -0.296875 0.093750 0.437500
v -0.078125 0.093750 0.437500
v -0.078125 0.093750 -0.000000
v -0.078125 0.000000 0.437500
v -0.296875 0.000000 0.437500
v -0.296875 0.000000 -0.000000
v -0.078125 0.000000 -0.000000
v -0.296875 0.000000 0.437500
v -0.296875 0.093750 0.437500
v -0.296875 0.093750 -0.000000
v -0.296875 0.000000 -0.000000
v -0.078125 0.093750 -0.000000
v -0.078125 0.093750 0.437500
v -0.078125 0.000000 0.437500
v -0.078125 0.000000 -0.000000
vn -0.0000 -0.0000 1.0000
vn -0.0000 -0.0000 -1.0000
vn -0.0000 1.0000 -0.0000
vn -0.0000 -1.0000 -0.0000
vn -1.0000 -0.0000 -0.0000
vn 1.0000 -0.0000 -0.0000
vt 0.585938 0.554688
vt 0.554688 0.554688
vt 0.554688 0.539062
vt 0.585938 0.539062
vt 0.437500 0.421875
vt 0.437500 0.437500
vt 0.406250 0.437500
vt 0.406250 0.421875
vt 0.218750 0.640625
vt 0.273438 0.640625
vt 0.273438 0.671875
vt 0.218750 0.671875
vt 0.335938 0.640625
vt 0.335938 0.671875
vt 0.281250 0.671875
vt 0.281250 0.640625
vt 0.515625 0.781250
vt 0.515625 0.796875
vt 0.460938 0.796875
vt 0.460938 0.781250
vt 0.515625 0.773438
vt 0.460938 0.773438
vt 0.460938 0.757812
vt 0.515625 0.757812
s 0
usemtl Material_0
f 553/553/71 554/554/71 555/555/71
f 553/553/71 555/555/71 556/556/71
f 557/557/72 558/558/72 559/559/72
f 557/557/72 559/559/72 560/560/72
f 561/561/73 562/562/73 563/563/73
f 561/561/73 563/563/73 564/564/73
f 565/565/74 566/566/74 567/567/74
f 565/565/74 567/567/74 568/568/74
f 569/569/75 570/570/75 571/571/75
f 569/569/75 571/571/75 572/572/75
f 573/573/76 574/574/76 575/575/76
f 573/573/76 575/575/76 576/576/76
o TopLeftLeg
v 0.250000 1.125000 0.062500
v 0.125000 1.125000 0.062500
v 0.250000 0.500000 0.062500
v 0.125000 0.500000 0.062500
v 0.250000 1.125000 -0.062500
v 0.250000 0.500000 -0.062500
v 0.125000 1.125000 -0.062500
v 0.125000 0.500000 -0.062500
v 0.250000 0.500000 0.062500
v 0.125000 0.500000 0.062500
v 0.250000 0.500000 -0.062500
v 0.125000 0.500000 -0.062500
v 0.250000 1.125000 0.062500
v 0.250000 0.500000 0.062500
v 0.250000 1.125000 -0.062500
v 0.250000 0.500000 -0.062500
v 0.125000 1.125000 0.062500
v 0.125000 1.125000 -0.062500
v 0.125000 0.500000 0.062500
v 0.125000 0.500000 -0.062500
vn -0.0000 -0.0000 1.0000
vn -0.0000 -0.0000 -1.0000
vn -0.0000 -1.0000 -0.0000
vn 1.0000 -0.0000 -0.0000
vn -1.0000 -0.0000 -0.0000
vt 0.039062 0.531250
vt 0.039062 0.609375
vt 0.023438 0.609375
vt 0.023438 0.531250
vt 0.062500 0.609375
vt 0.046875 0.609375
vt 0.046875 0.531250
vt 0.062500 0.531250
vt 0.250000 0.414062
vt 0.234375 0.414062
vt 0.234375 0.398438
vt 0.250000 0.398438
vt 0.414062 0.640625
vt 0.398438 0.640625
vt 0.398438 0.562500
vt 0.414062 0.562500
vt 0.421875 0.921875
vt 0.421875 1.000000
vt 0.406250 1.000000
vt 0.406250 0.921875
s 0
usemtl Material_0
f 579/577/77 577/578/77 578/579/77
f 579/577/77 578/579/77 580/580/77
f 583/581/78 581/582/78 582/583/78
f 583/581/78 582/583/78 584/584/78
f 587/585/79 585/586/79 586/587/79
f 587/585/79 586/587/79 588/588/79
f 591/589/80 589/590/80 590/591/80
f 591/589/80 590/591/80 592/592/80
f 595/593/81 593/594/81 594/595/81
f 595/593/81 594/595/81 596/596/81
o MidleLeftLeg
v 0.265625 0.578125 0.140625
v 0.109375 0.578125 0.140625
v 0.265625 0.421875 0.140625
v 0.109375 0.421875 0.140625
v 0.265625 0.578125 -0.015625
v 0.265625 0.421875 -0.015625
v 0.109375 0.578125 -0.015625
v 0.109375 0.421875 -0.015625
v 0.265625 0.578125 0.140625
v 0.265625 0.578125 -0.015625
v 0.109375 0.578125 0.140625
v 0.109375 0.578125 -0.015625
v 0.265625 0.421875 0.140625
v 0.109375 0.421875 0.140625
v 0.265625 0.421875 -0.015625
v 0.109375 0.421875 -0.015625
v 0.265625 0.578125 0.140625
v 0.265625 0.421875 0.140625
v 0.265625 0.578125 -0.015625
v 0.265625 0.421875 -0.015625
v 0.109375 0.578125 0.140625
v 0.109375 0.578125 -0.015625
v 0.109375 0.421875 0.140625
v 0.109375 0.421875 -0.015625
v 0.281250 0.500000 0.093750
v 0.093750 0.500000 0.093750
v 0.281250 0.000000 0.093750
v 0.093750 0.000000 0.093750
v 0.281250 0.500000 -0.093750
v 0.281250 0.000000 -0.093750
v 0.093750 0.500000 -0.093750
v 0.093750 0.000000 -0.093750
v 0.281250 0.500000 0.093750
v 0.281250 0.500000 -0.093750
v 0.093750 0.500000 0.093750
v 0.093750 0.500000 -0.093750
v 0.281250 0.000000 0.093750
v 0.093750 0.000000 0.093750
v 0.281250 0.000000 -0.093750
v 0.093750 0.000000 -0.093750
v 0.281250 0.500000 0.093750
v 0.281250 0.000000 0.093750
v 0.281250 0.500000 -0.093750
v 0.281250 0.000000 -0.093750
v 0.093750 0.500000 0.093750
v 0.093750 0.500000 -0.093750
v 0.093750 0.000000 0.093750
v 0.093750 0.000000 -0.093750
vn -0.0000 -0.0000 1.0000
vn -0.0000 -0.0000 -1.0000
vn -0.0000 1.0000 -0.0000
vn -0.0000 -1.0000 -0.0000
vn 1.0000 -0.0000 -0.0000
vn -1.0000 -0.0000 -0.0000
vt 0.562500 0.914062
vt 0.562500 0.937500
vt 0.539062 0.937500
vt 0.539062 0.914062
vt 0.179688 0.460938
vt 0.156250 0.460938
vt 0.156250 0.437500
vt 0.179688 0.437500
vt 0.187500 0.460938
vt 0.187500 0.437500
vt 0.210938 0.437500
vt 0.210938 0.460938
vt 0.242188 0.460938
vt 0.218750 0.460938
vt 0.218750 0.437500
vt 0.242188 0.437500
vt 0.492188 0.460938
vt 0.468750 0.460938
vt 0.468750 0.437500
vt 0.492188 0.437500
vt 0.523438 0.437500
vt 0.523438 0.460938
vt 0.500000 0.460938
vt 0.500000 0.437500
vt 0.390625 0.937500
vt 0.390625 1.000000
vt 0.367188 1.000000
vt 0.367188 0.937500
vt 0.187500 0.632812
vt 0.164062 0.632812
vt 0.164062 0.570312
vt 0.187500 0.570312
vt 0.546875 0.773438
vt 0.546875 0.750000
vt 0.570312 0.750000
vt 0.570312 0.773438
vt 0.570312 0.742188
vt 0.546875 0.742188
vt 0.546875 0.718750
vt 0.570312 0.718750
vt 0.218750 0.632812
vt 0.195312 0.632812
vt 0.195312 0.570312
vt 0.218750 0.570312
vt 0.250000 0.570312
vt 0.250000 0.632812
vt 0.226562 0.632812
vt 0.226562 0.570312
s 0
usemtl Material_0
f 599/597/82 597/598/82 598/599/82
f 599/597/82 598/599/82 600/600/82
f 603/601/83 601/602/83 602/603/83
f 603/601/83 602/603/83 604/604/83
f 607/605/84 605/606/84 606/607/84
f 607/605/84 606/607/84 608/608/84
f 611/609/85 609/610/85 610/611/85
f 611/609/85 610/611/85 612/612/85
f 615/613/86 613/614/86 614/615/86
f 615/613/86 614/615/86 616/616/86
f 619/617/87 617/618/87 618/619/87
f 619/617/87 618/619/87 620/620/87
f 623/621/82 621/622/82 622/623/82
f 623/621/82 622/623/82 624/624/82
f 627/625/83 625/626/83 626/627/83
f 627/625/83 626/627/83 628/628/83
f 631/629/84 629/630/84 630/631/84
f 631/629/84 630/631/84 632/632/84
f 635/633/85 633/634/85 634/635/85
f 635/633/85 634/635/85 636/636/85
f 639/637/86 637/638/86 638/639/86
f 639/637/86 638/639/86 640/640/86
f 643/641/87 641/642/87 642/643/87
f 643/641/87 642/643/87 644/644/87
o FootLeft
v 0.296875 0.093750 0.437500
v 0.078125 0.093750 0.437500
v 0.296875 0.000000 0.437500
v 0.078125 0.000000 0.437500
v 0.296875 0.093750 -0.000000
v 0.296875 0.000000 -0.000000
v 0.078125 0.093750 -0.000000
v 0.078125 0.000000 -0.000000
v 0.296875 0.093750 0.437500
v 0.296875 0.093750 -0.000000
v 0.078125 0.093750 0.437500
v 0.078125 0.093750 -0.000000
v 0.296875 0.000000 0.437500
v 0.078125 0.000000 0.437500
v 0.296875 0.000000 -0.000000
v 0.078125 0.000000 -0.000000
v 0.296875 0.093750 0.437500
v 0.296875 0.000000 0.437500
v 0.296875 0.093750 -0.000000
v 0.296875 0.000000 -0.000000
v 0.078125 0.093750 0.437500
v 0.078125 0.093750 -0.000000
v 0.078125 0.000000 0.437500
v 0.078125 0.000000 -0.000000
vn -0.0000 -0.0000 1.0000
vn -0.0000 -0.0000 -1.0000
vn -0.0000 1.0000 -0.0000
vn -0.0000 -1.0000 -0.0000
vn 1.0000 -0.0000 -0.0000
vn -1.0000 -0.0000 -0.0000
vt 0.593750 0.484375
vt 0.593750 0.500000
vt 0.562500 0.500000
vt 0.562500 0.484375
vt 0.593750 0.476562
vt 0.562500 0.476562
vt 0.562500 0.460938
vt 0.593750 0.460938
vt 0.343750 0.921875
vt 0.343750 0.890625
vt 0.398438 0.890625
vt 0.398438 0.921875
vt 0.398438 0.882812
vt 0.343750 0.882812
vt 0.343750 0.851562
vt 0.398438 0.851562
vt 0.476562 0.531250
vt 0.421875 0.531250
vt 0.421875 0.515625
vt 0.476562 0.515625
vt 0.054688 0.507812
vt 0.054688 0.523438
vt 0.000000 0.523438
vt 0.000000 0.507812
s 0
usemtl Material_0
f 647/645/88 645/646/88 646/647/88
f 647/645/88 646/647/88 648/648/88
f 651/649/89 649/650/89 650/651/89
f 651/649/89 650/651/89 652/652/89
f 655/653/90 653/654/90 654/655/90
f 655/653/90 654/655/90 656/656/90
f 659/657/91 657/658/91 658/659/91
f 659/657/91 658/659/91 660/660/91
f 663/661/92 661/662/92 662/663/92
f 663/661/92 662/663/92 664/664/92
f 667/665/93 665/666/93 666/667/93
f 667/665/93 666/667/93 668/668/93
o BodyHead
v -0.100200 1.930933 0.457731
v -0.403348 1.978986 0.341721
v -0.403348 1.834629 0.281927
v -0.100200 1.786577 0.397937
v -0.170150 2.194432 -0.178413
v -0.403348 1.978986 0.341721
v -0.100200 1.930933 0.457731
v 0.132998 2.146379 -0.062403
v -0.100200 1.786577 0.397937
v -0.403348 1.834629 0.281927
v -0.170150 2.050076 -0.238207
v 0.132998 2.002023 -0.122197
v -0.403348 1.834629 0.281927
v -0.403348 1.978986 0.341721
v -0.170150 2.194432 -0.178413
v -0.170150 2.050076 -0.238207
v 0.132998 2.146379 -0.062403
v -0.100200 1.930933 0.457731
v -0.100200 1.786577 0.397937
v 0.132998 2.002023 -0.122197
v 0.403348 1.834629 0.281927
v 0.403348 1.978986 0.341721
v 0.100200 1.930933 0.457731
v 0.100200 1.786577 0.397937
v 0.100200 1.930933 0.457731
v 0.403348 1.978986 0.341721
v 0.170150 2.194432 -0.178413
v -0.132998 2.146379 -0.062404
v 0.170150 2.050076 -0.238207
v 0.403348 1.834629 0.281927
v 0.100200 1.786577 0.397937
v -0.132998 2.002023 -0.122198
v 0.170150 2.194432 -0.178413
v 0.403348 1.978986 0.341721
v 0.403348 1.834629 0.281927
v 0.170150 2.050076 -0.238207
v 0.100200 1.786577 0.397937
v 0.100200 1.930933 0.457731
v -0.132998 2.146379 -0.062404
v -0.132998 2.002023 -0.122198
v 0.046875 1.835621 0.548965
v 0.046875 2.417721 0.245943
v -0.046875 2.417721 0.245943
v -0.046875 1.835621 0.548965
v 0.046875 1.633606 0.160898
v 0.046875 1.835621 0.548965
v -0.046875 1.835621 0.548965
v -0.046875 1.633606 0.160898
v 0.046875 2.215706 -0.142125
v 0.046875 2.417721 0.245943
v 0.046875 1.835621 0.548965
v 0.046875 1.633606 0.160898
v -0.046875 1.835621 0.548965
v -0.046875 2.417721 0.245943
v -0.046875 2.215707 -0.142125
v -0.046875 1.633606 0.160898
v 0.187500 1.584375 0.375000
v 0.187500 1.959375 0.375000
v -0.187500 1.959375 0.375000
v -0.187500 1.584375 0.375000
v -0.187500 1.959375 0.375000
v 0.187500 1.959375 0.375000
v 0.187500 1.959375 0.187500
v -0.187500 1.959375 0.187500
v 0.187500 1.584375 0.187500
v 0.187500 1.584375 0.375000
v -0.187500 1.584375 0.375000
v -0.187500 1.584375 0.187500
v 0.187500 1.959375 0.187500
v 0.187500 1.959375 0.375000
v 0.187500 1.584375 0.375000
v 0.187500 1.584375 0.187500
v -0.187500 1.584375 0.375000
v -0.187500 1.959375 0.375000
v -0.187500 1.959375 0.187500
v -0.187500 1.584375 0.187500
v -0.015625 2.366419 0.311452
v -0.328125 2.366419 0.311453
v -0.328125 2.255933 0.421938
v -0.015625 2.255933 0.421938
v -0.015625 2.255933 0.421938
v -0.328125 2.255933 0.421938
v -0.328125 2.145448 0.311453
v -0.015625 2.145448 0.311453
v -0.328125 2.255933 0.421938
v -0.328125 2.366419 0.311453
v -0.328125 2.255933 0.200967
v -0.328125 2.145448 0.311453
v -0.015625 2.255933 0.200967
v -0.015625 2.366419 0.311452
v -0.015625 2.255933 0.421938
v -0.015625 2.145448 0.311453
v 0.328125 2.255933 0.421938
v 0.328125 2.366419 0.311452
v 0.015625 2.366419 0.311453
v 0.015625 2.255933 0.421938
v 0.328125 2.145448 0.311452
v 0.328125 2.255933 0.421938
v 0.015625 2.255933 0.421938
v 0.015625 2.145448 0.311453
v 0.328125 2.255933 0.200967
v 0.328125 2.366419 0.311452
v 0.328125 2.255933 0.421938
v 0.328125 2.145448 0.311452
v 0.015625 2.255933 0.421938
v 0.015625 2.366419 0.311453
v 0.015625 2.255933 0.200967
v 0.015625 2.145448 0.311453
v 0.312500 1.000000 0.312500
v 0.312500 2.500000 0.312500
v -0.312500 2.500000 0.312500
v -0.312500 1.000000 0.312500
v -0.312500 2.500000 -0.312500
v 0.312500 2.500000 -0.312500
v 0.312500 1.000000 -0.312500
v -0.312500 1.000000 -0.312500
v -0.312500 2.500000 0.312500
v 0.312500 2.500000 0.312500
v 0.312500 2.500000 -0.312500
v -0.312500 2.500000 -0.312500
v 0.312500 1.000000 -0.312500
v 0.312500 1.000000 0.312500
v -0.312500 1.000000 0.312500
v -0.312500 1.000000 -0.312500
v 0.312500 2.500000 -0.312500
v 0.312500 2.500000 0.312500
v 0.312500 1.000000 0.312500
v 0.312500 1.000000 -0.312500
v -0.312500 1.000000 0.312500
v -0.312500 2.500000 0.312500
v -0.312500 2.500000 -0.312500
v -0.312500 1.000000 -0.312500
vn -0.3827 -0.3536 0.8536
vn -0.0000 0.9239 0.3827
vn -0.0000 -0.9239 -0.3827
vn -0.9239 0.1464 -0.3536
vn 0.9239 -0.1464 0.3536
vn 0.3827 -0.3536 0.8536
vn 0.9239 0.1464 -0.3536
vn -0.9239 -0.1464 0.3536
vn -0.0000 0.4617 0.8870
vn -0.0000 0.4618 0.8870
vn -0.0000 -0.8870 0.4617
vn 1.0000 -0.0000 -0.0000
vn -1.0000 -0.0000 -0.0000
vn -0.0000 -0.0000 1.0000
vn -0.0000 1.0000 -0.0000
vn -0.0000 -1.0000 -0.0000
vn -0.0000 0.7071 0.7071
vn -0.0000 -0.7071 0.7071
vn -0.0000 -0.0000 -1.0000
vt 0.414062 0.554688
vt 0.375000 0.554688
vt 0.375000 0.531250
vt 0.414062 0.531250
vt 0.000000 0.679688
vt 0.078125 0.679688
vt 0.078125 0.718750
vt 0.000000 0.718750
vt 0.359375 0.960938
vt 0.359375 1.000000
vt 0.281250 1.000000
vt 0.281250 0.960938
vt 0.359375 0.929688
vt 0.359375 0.953125
vt 0.281250 0.953125
vt 0.281250 0.929688
vt 0.398438 0.773438
vt 0.320312 0.773438
vt 0.320312 0.750000
vt 0.398438 0.750000
vt 0.484375 0.539062
vt 0.484375 0.562500
vt 0.445312 0.562500
vt 0.445312 0.539062
vt 0.164062 0.679688
vt 0.164062 0.718750
vt 0.085938 0.718750
vt 0.085938 0.679688
vt 0.171875 0.718750
vt 0.171875 0.640625
vt 0.210938 0.640625
vt 0.210938 0.718750
vt 0.078125 0.671875
vt 0.000000 0.671875
vt 0.000000 0.648438
vt 0.078125 0.648438
vt 0.164062 0.648438
vt 0.164062 0.671875
vt 0.085938 0.671875
vt 0.085938 0.648438
vt 0.273438 0.546875
vt 0.273438 0.632812
vt 0.257812 0.632812
vt 0.257812 0.546875
vt 0.273438 0.484375
vt 0.273438 0.539062
vt 0.257812 0.539062
vt 0.257812 0.484375
vt 0.343750 0.679688
vt 0.343750 0.734375
vt 0.257812 0.734375
vt 0.257812 0.679688
vt 0.312500 0.742188
vt 0.312500 0.828125
vt 0.257812 0.828125
vt 0.257812 0.742188
vt 0.367188 0.781250
vt 0.367188 0.828125
vt 0.320312 0.828125
vt 0.320312 0.781250
vt 0.453125 0.781250
vt 0.406250 0.781250
vt 0.406250 0.757812
vt 0.453125 0.757812
vt 0.421875 0.789062
vt 0.421875 0.812500
vt 0.375000 0.812500
vt 0.375000 0.789062
vt 0.421875 0.820312
vt 0.421875 0.843750
vt 0.375000 0.843750
vt 0.375000 0.820312
vt 0.429688 0.867188
vt 0.429688 0.914062
vt 0.406250 0.914062
vt 0.406250 0.867188
vt 0.492188 0.968750
vt 0.453125 0.968750
vt 0.453125 0.945312
vt 0.492188 0.945312
vt 0.492188 0.859375
vt 0.453125 0.859375
vt 0.453125 0.835938
vt 0.492188 0.835938
vt 0.484375 0.414062
vt 0.484375 0.429688
vt 0.468750 0.429688
vt 0.468750 0.414062
vt 0.539062 0.757812
vt 0.539062 0.773438
vt 0.523438 0.773438
vt 0.523438 0.757812
vt 0.492188 0.976562
vt 0.492188 1.000000
vt 0.453125 1.000000
vt 0.453125 0.976562
vt 0.492188 0.804688
vt 0.492188 0.828125
vt 0.453125 0.828125
vt 0.453125 0.804688
vt 0.554688 0.421875
vt 0.554688 0.437500
vt 0.531250 0.437500
vt 0.531250 0.421875
vt 0.460938 0.421875
vt 0.460938 0.437500
vt 0.445312 0.437500
vt 0.445312 0.421875
vt 0.164062 0.726562
vt 0.164062 0.914062
vt 0.085938 0.914062
vt 0.085938 0.726562
vt 0.250000 0.914062
vt 0.171875 0.914062
vt 0.171875 0.726562
vt 0.250000 0.726562
vt 0.273438 1.000000
vt 0.195312 1.000000
vt 0.195312 0.921875
vt 0.273438 0.921875
vt 0.335938 0.835938
vt 0.335938 0.914062
vt 0.257812 0.914062
vt 0.257812 0.835938
vt 0.187500 0.921875
vt 0.187500 1.000000
vt 0.000000 1.000000
vt 0.000000 0.921875
vt 0.078125 0.726562
vt 0.078125 0.914062
vt 0.000000 0.914062
vt 0.000000 0.726562
s 0
usemtl Material_0
f 669/669/94 670/670/94 671/671/94
f 669/669/94 671/671/94 672/672/94
f 673/673/95 674/674/95 675/675/95
f 673/673/95 675/675/95 676/676/95
f 677/677/96 678/678/96 679/679/96
f 677/677/96 679/679/96 680/680/96
f 681/681/97 682/682/97 683/683/97
f 681/681/97 683/683/97 684/684/97
f 685/685/98 686/686/98 687/687/98
f 685/685/98 687/687/98 688/688/98
f 689/689/99 690/690/99 691/691/99
f 689/689/99 691/691/99 692/692/99
f 693/693/95 694/694/95 695/695/95
f 693/693/95 695/695/95 696/696/95
f 697/697/96 698/698/96 699/699/96
f 697/697/96 699/699/96 700/700/96
f 701/701/100 702/702/100 703/703/100
f 701/701/100 703/703/100 704/704/100
f 705/705/101 706/706/101 707/707/101
f 705/705/101 707/707/101 708/708/101
f 709/709/102 710/710/102 711/711/102
f 709/709/103 711/711/103 712/712/103
f 713/713/104 714/714/104 715/715/104
f 713/713/104 715/715/104 716/716/104
f 717/717/105 718/718/105 719/719/105
f 717/717/105 719/719/105 720/720/105
f 721/721/106 722/722/106 723/723/106
f 721/721/106 723/723/106 724/724/106
f 725/725/107 726/726/107 727/727/107
f 725/725/107 727/727/107 728/728/107
f 729/729/108 730/730/108 731/731/108
f 729/729/108 731/731/108 732/732/108
f 733/733/109 734/734/109 735/735/109
f 733/733/109 735/735/109 736/736/109
f 737/737/105 738/738/105 739/739/105
f 737/737/105 739/739/105 740/740/105
s 1
f 741/741/106 742/742/106 743/743/106
s 0
f 741/741/106 743/743/106 744/744/106
f 745/745/110 746/746/110 747/747/110
f 745/745/110 747/747/110 748/748/110
f 749/749/111 750/750/111 751/751/111
f 749/749/111 751/751/111 752/752/111
f 753/753/106 754/754/106 755/755/106
f 753/753/106 755/755/106 756/756/106
f 757/757/105 758/758/105 759/759/105
f 757/757/105 759/759/105 760/760/105
f 761/761/110 762/762/110 763/763/110
f 761/761/110 763/763/110 764/764/110
f 765/765/111 766/766/111 767/767/111
f 765/765/111 767/767/111 768/768/111
f 769/769/105 770/770/105 771/771/105
f 769/769/105 771/771/105 772/772/105
f 773/773/106 774/774/106 775/775/106
f 773/773/106 775/775/106 776/776/106
f 777/777/107 778/778/107 779/779/107
f 777/777/107 779/779/107 780/780/107
f 781/781/112 782/782/112 783/783/112
f 781/781/112 783/783/112 784/784/112
f 785/785/108 786/786/108 787/787/108
f 785/785/108 787/787/108 788/788/108
f 789/789/109 790/790/109 791/791/109
f 789/789/109 791/791/109 792/792/109
f 793/793/105 794/794/105 795/795/105
f 793/793/105 795/795/105 796/796/105
f 797/797/106 798/798/106 799/799/106
f 797/797/106 799/799/106 800/800/106
