{
  "accessors": [
    {
      "bufferView": 2,
      "componentType": 5126,
      "count": 24,
      "max": [
        0.65625,
        1.34375,
        0.25
      ],
      "min": [
        0.34375,
        1.03125,
        0.125
      ],
      "type": "VEC3"
    },
    {
      "bufferView": 2,
      "byteOffset": 288,
      "componentType": 5126,
      "count": 24,
      "max": [
        1.0,
        1.0,
        1.0
      ],
      "min": [
        -1.0,
        -1.0,
        -1.0
      ],
      "type": "VEC3"
    },
    {
      "bufferView": 1,
      "componentType": 5126,
      "count": 24,
      "max": [
        0.21875014901161194,
        0.10937485098838806
      ],
      "min": [
        0.0,
        0.0
      ],
      "type": "VEC2"
    },
    {
      "bufferView": 0,
      "componentType": 5125,
      "count": 36,
      "type": "SCALAR"
    },
    {
      "bufferView": 2,
      "byteOffset": 576,
      "componentType": 5126,
      "count": 24,
      "max": [
        0.109375,
        0.109375,
        0.1875
      ],
      "min": [
        0.015625,
        0.015625,
        0.0
      ],
      "type": "VEC3"
    },
    {
      "bufferView": 2,
      "byteOffset": 864,
      "componentType": 5126,
      "count": 24,
      "max": [
        1.0,
        1.0,
        1.0
      ],
      "min": [
        -1.0,
        -1.0,
        -1.0
      ],
      "type": "VEC3"
    },
    {
      "bufferView": 1,
      "byteOffset": 192,
      "componentType": 5126,
      "count": 24,
      "max": [
        0.234375,
        0.5781248211860657
      ],
      "min": [
        0.10937483608722687,
        0.515625
      ],
      "type": "VEC2"
    },
    {
      "bufferView": 0,
      "byteOffset": 144,
      "componentType": 5125,
      "count": 36,
      "type": "SCALAR"
    },
    {
      "bufferView": 2,
      "byteOffset": 1152,
      "componentType": 5126,
      "count": 24,
      "max": [
        0.109375,
        0.109375,
        0.1875
      ],
      "min": [
        0.015625,
        0.015625,
        5.551115123125783e-17
      ],
      "type": "VEC3"
    },
    {
      "bufferView": 2,
      "byteOffset": 1440,
      "componentType": 5126,
      "count": 24,
      "max": [
        1.0,
        1.0,
        1.0
      ],
      "min": [
        -1.0,
        -1.0,
        -1.0
      ],
      "type": "VEC3"
    },
    {
      "bufferView": 1,
      "byteOffset": 384,
      "componentType": 5126,
      "count": 24,
      "max": [
        0.375,
        0.5781248211860657
      ],
      "min": [
        0.24999985098838806,
        0.515625
      ],
      "type": "VEC2"
    },
    {
      "bufferView": 0,
      "byteOffset": 288,
      "componentType": 5125,
      "count": 36,
      "type": "SCALAR"
    },
    {
      "bufferView": 2,
      "byteOffset": 1728,
      "componentType": 5126,
      "count": 24,
      "max": [
        0.109375,
        0.0,
        0.109375
      ],
      "min": [
        0.015625,
        -0.1875,
        0.015625
      ],
      "type": "VEC3"
    },
    {
      "bufferView": 2,
      "byteOffset": 2016,
      "componentType": 5126,
      "count": 24,
      "max": [
        1.0,
        1.0,
        1.0
      ],
      "min": [
        -1.0,
        -1.0,
        -1.0
      ],
      "type": "VEC3"
    },
    {
      "bufferView": 1,
      "byteOffset": 576,
      "componentType": 5126,
      "count": 24,
      "max": [
        0.45312514901161194,
        0.5781248211860657
      ],
      "min": [
        0.39062485098838806,
        0.515625
      ],
      "type": "VEC2"
    },
    {
      "bufferView": 0,
      "byteOffset": 432,
      "componentType": 5125,
      "count": 36,
      "type": "SCALAR"
    },
    {
      "bufferView": 2,
      "byteOffset": 2304,
      "componentType": 5126,
      "count": 24,
      "max": [
        0.359375,
        -0.125,
        0.09375
      ],
      "min": [
        0.078125,
        -0.1875,
        -0.03125
      ],
      "type": "VEC3"
    },
    {
      "bufferView": 2,
      "byteOffset": 2592,
      "componentType": 5126,
      "count": 24,
      "max": [
        1.0,
        1.0,
        1.0
      ],
      "min": [
        -1.0,
        -1.0,
        -1.0
      ],
      "type": "VEC3"
    },
    {
      "bufferView": 1,
      "byteOffset": 768,
      "componentType": 5126,
      "count": 24,
      "max": [
        0.6718748807907104,
        0.17187514901161194
      ],
      "min": [
        0.48437485098838806,
        0.12500014901161194
      ],
      "type": "VEC2"
    },
    {
      "bufferView": 0,
      "byteOffset": 576,
      "componentType": 5125,
      "count": 36,
      "type": "SCALAR"
    },
    {
      "bufferView": 2,
      "byteOffset": 2880,
      "componentType": 5126,
      "count": 24,
      "max": [
        0.359375,
        -0.125,
        0.09375
      ],
      "min": [
        0.078125,
        -0.1875,
        -0.03125
      ],
      "type": "VEC3"
    },
    {
      "bufferView": 2,
      "byteOffset": 3168,
      "componentType": 5126,
      "count": 24,
      "max": [
        1.0,
        1.0,
        1.0
      ],
      "min": [
        -1.0,
        -1.0,
        -1.0
      ],
      "type": "VEC3"
    },
    {
      "bufferView": 1,
      "byteOffset": 960,
      "componentType": 5126,
      "count": 24,
      "max": [
        0.6718748807907104,
        0.234375
      ],
      "min": [
        0.48437485098838806,
        0.1875
      ],
      "type": "VEC2"
    },
    {
      "bufferView": 0,
      "byteOffset": 720,
      "componentType": 5125,
      "count": 36,
      "type": "SCALAR"
    },
    {
      "bufferView": 2,
      "byteOffset": 3456,
      "componentType": 5126,
      "count": 24,
      "max": [
        0.359375,
        -0.125,
        0.09375
      ],
      "min": [
        0.078125,
        -0.1875,
        -0.03125
      ],
      "type": "VEC3"
    },
    {
      "bufferView": 2,
      "byteOffset": 3744,
      "componentType": 5126,
      "count": 24,
      "max": [
        1.0,
        1.0,
        1.0
      ],
      "min": [
        -1.0,
        -1.0,
        -1.0
      ],
      "type": "VEC3"
    },
    {
      "bufferView": 1,
      "byteOffset": 1152,
      "componentType": 5126,
      "count": 24,
      "max": [
        0.6718748807907104,
        0.29687485098838806
      ],
      "min": [
        0.48437485098838806,
        0.24999985098838806
      ],
      "type": "VEC2"
    },
    {
      "bufferView": 0,
      "byteOffset": 864,
      "componentType": 5125,
      "count": 36,
      "type": "SCALAR"
    },
    {
      "bufferView": 2,
      "byteOffset": 4032,
      "componentType": 5126,
      "count": 24,
      "max": [
        0.546875,
        0.8641112446784973,
        0.6225443482398987
      ],
      "min": [
        0.453125,
        0.05161124840378761,
        0.5287943482398987
      ],
      "type": "VEC3"
    },
    {
      "bufferView": 2,
      "byteOffset": 4320,
      "componentType": 5126,
      "count": 24,
      "max": [
        1.0,
        1.0,
        1.0
      ],
      "min": [
        -1.0,
        -1.0,
        -1.0
      ],
      "type": "VEC3"
    },
    {
      "bufferView": 1,
      "byteOffset": 1344,
      "componentType": 5126,
      "count": 24,
      "max": [
        0.062499843537807465,
        0.43749985098838806
      ],
      "min": [
        0.0,
        0.21875014901161194
      ],
      "type": "VEC2"
    },
    {
      "bufferView": 0,
      "byteOffset": 1008,
      "componentType": 5125,
      "count": 36,
      "type": "SCALAR"
    },
    {
      "bufferView": 2,
      "byteOffset": 4608,
      "componentType": 5126,
      "count": 24,
      "max": [
        0.5780624747276306,
        1.0311875343322754,
        0.218687504529953
      ],
      "min": [
        0.421937495470047,
        0.7031875252723694,
        0.156312495470047
      ],
      "type": "VEC3"
    },
    {
      "bufferView": 2,
      "byteOffset": 4896,
      "componentType": 5126,
      "count": 24,
      "max": [
        1.0,
        1.0,
        1.0
      ],
      "min": [
        -1.0,
        -1.0,
        -1.0
      ],
      "type": "VEC3"
    },
    {
      "bufferView": 1,
      "byteOffset": 1536,
      "componentType": 5126,
      "count": 24,
      "max": [
        0.5781248807907104,
        0.40625014901161194
      ],
      "min": [
        0.48437485098838806,
        0.31250014901161194
      ],
      "type": "VEC2"
    },
    {
      "bufferView": 0,
      "byteOffset": 1152,
      "componentType": 5125,
      "count": 36,
      "type": "SCALAR"
    },
    {
      "bufferView": 2,
      "byteOffset": 5184,
      "componentType": 5126,
      "count": 24,
      "max": [
        0.5780624747276306,
        1.6718125343322754,
        0.218687504529953
      ],
      "min": [
        0.421937495470047,
        1.3438124656677246,
        0.156312495470047
      ],
      "type": "VEC3"
    },
    {
      "bufferView": 2,
      "byteOffset": 5472,
      "componentType": 5126,
      "count": 24,
      "max": [
        1.0,
        1.0,
        1.0
      ],
      "min": [
        -1.0,
        -1.0,
        -1.0
      ],
      "type": "VEC3"
    },
    {
      "bufferView": 1,
      "byteOffset": 1728,
      "componentType": 5126,
      "count": 24,
      "max": [
        0.09375,
        0.609375
      ],
      "min": [
        0.0,
        0.515625
      ],
      "type": "VEC2"
    },
    {
      "bufferView": 0,
      "byteOffset": 1296,
      "componentType": 5125,
      "count": 36,
      "type": "SCALAR"
    },
    {
      "bufferView": 2,
      "byteOffset": 5760,
      "componentType": 5126,
      "count": 24,
      "max": [
        0.343687504529953,
        1.2655625343322754,
        0.218687504529953
      ],
      "min": [
        0.015687499195337296,
        1.1094374656677246,
        0.156312495470047
      ],
      "type": "VEC3"
    },
    {
      "bufferView": 2,
      "byteOffset": 6048,
      "componentType": 5126,
      "count": 24,
      "max": [
        1.0,
        1.0,
        1.0
      ],
      "min": [
        -1.0,
        -1.0,
        -1.0
      ],
      "type": "VEC3"
    },
    {
      "bufferView": 1,
      "byteOffset": 1920,
      "componentType": 5126,
      "count": 24,
      "max": [
        0.46875,
        0.43749985098838806
      ],
      "min": [
        0.28125,
        0.39062485098838806
      ],
      "type": "VEC2"
    },
    {
      "bufferView": 0,
      "byteOffset": 1440,
      "componentType": 5125,
      "count": 36,
      "type": "SCALAR"
    },
    {
      "bufferView": 2,
      "byteOffset": 6336,
      "componentType": 5126,
      "count": 24,
      "max": [
        0.9843124747276306,
        1.2655625343322754,
        0.218687504529953
      ],
      "min": [
        0.6563125252723694,
        1.1094374656677246,
        0.156312495470047
      ],
      "type": "VEC3"
    },
    {
      "bufferView": 2,
      "byteOffset": 6624,
      "componentType": 5126,
      "count": 24,
      "max": [
        1.0,
        1.0,
        1.0
      ],
      "min": [
        -1.0,
        -1.0,
        -1.0
      ],
      "type": "VEC3"
    },
    {
      "bufferView": 1,
      "byteOffset": 2112,
      "componentType": 5126,
      "count": 24,
      "max": [
        0.6249998807907104,
        0.046875
      ],
      "min": [
        0.43749985098838806,
        0.0
      ],
      "type": "VEC2"
    },
    {
      "bufferView": 0,
      "byteOffset": 1584,
      "componentType": 5125,
      "count": 36,
      "type": "SCALAR"
    },
    {
      "bufferView": 2,
      "byteOffset": 6912,
      "componentType": 5126,
      "count": 24,
      "max": [
        0.0780624970793724,
        0.01556249987334013,
        -0.031312499195337296
      ],
      "min": [
        -0.249937504529953,
        -0.140562504529953,
        -0.0936874970793724
      ],
      "type": "VEC3"
    },
    {
      "bufferView": 2,
      "byteOffset": 7200,
      "componentType": 5126,
      "count": 24,
      "max": [
        1.0,
        1.0,
        1.0
      ],
      "min": [
        -1.0,
        -1.0,
        -1.0
      ],
      "type": "VEC3"
    },
    {
      "bufferView": 1,
      "byteOffset": 2304,
      "componentType": 5126,
      "count": 24,
      "max": [
        0.1875,
        0.5000001192092896
      ],
      "min": [
        0.0,
        0.45312514901161194
      ],
      "type": "VEC2"
    },
    {
      "bufferView": 0,
      "byteOffset": 1728,
      "componentType": 5125,
      "count": 36,
      "type": "SCALAR"
    },
    {
      "bufferView": 2,
      "byteOffset": 7488,
      "componentType": 5126,
      "count": 24,
      "max": [
        0.0780624970793724,
        0.01556249987334013,
        -0.031312499195337296
      ],
      "min": [
        -0.249937504529953,
        -0.140562504529953,
        -0.0936874970793724
      ],
      "type": "VEC3"
    },
    {
      "bufferView": 2,
      "byteOffset": 7776,
      "componentType": 5126,
      "count": 24,
      "max": [
        1.0,
        1.0,
        1.0
      ],
      "min": [
        -1.0,
        -1.0,
        -1.0
      ],
      "type": "VEC3"
    },
    {
      "bufferView": 1,
      "byteOffset": 2496,
      "componentType": 5126,
      "count": 24,
      "max": [
        0.39062485098838806,
        0.5000001192092896
      ],
      "min": [
        0.20312485098838806,
        0.45312514901161194
      ],
      "type": "VEC2"
    },
    {
      "bufferView": 0,
      "byteOffset": 1872,
      "componentType": 5125,
      "count": 36,
      "type": "SCALAR"
    },
    {
      "bufferView": 2,
      "byteOffset": 8064,
      "componentType": 5126,
      "count": 24,
      "max": [
        0.0780624970793724,
        0.01556249987334013,
        -0.031312499195337296
      ],
      "min": [
        -0.249937504529953,
        -0.140562504529953,
        -0.0936874970793724
      ],
      "type": "VEC3"
    },
    {
      "bufferView": 2,
      "byteOffset": 8352,
      "componentType": 5126,
      "count": 24,
      "max": [
        1.0,
        1.0,
        1.0
      ],
      "min": [
        -1.0,
        -1.0,
        -1.0
      ],
      "type": "VEC3"
    },
    {
      "bufferView": 1,
      "byteOffset": 2688,
      "componentType": 5126,
      "count": 24,
      "max": [
        0.5937501192092896,
        0.5000001192092896
      ],
      "min": [
        0.40625014901161194,
        0.45312514901161194
      ],
      "type": "VEC2"
    },
    {
      "bufferView": 0,
      "byteOffset": 2016,
      "componentType": 5125,
      "count": 36,
      "type": "SCALAR"
    },
    {
      "bufferView": 2,
      "byteOffset": 8640,
      "componentType": 5126,
      "count": 24,
      "max": [
        0.0780624970793724,
        0.01556249987334013,
        -0.031312499195337296
      ],
      "min": [
        -0.249937504529953,
        -0.140562504529953,
        -0.0936874970793724
      ],
      "type": "VEC3"
    },
    {
      "bufferView": 2,
      "byteOffset": 8928,
      "componentType": 5126,
      "count": 24,
      "max": [
        1.0,
        1.0,
        1.0
      ],
      "min": [
        -1.0,
        -1.0,
        -1.0
      ],
      "type": "VEC3"
    },
    {
      "bufferView": 1,
      "byteOffset": 2880,
      "componentType": 5126,
      "count": 24,
      "max": [
        0.65625,
        0.10937485098838806
      ],
      "min": [
        0.46875,
        0.06249985098838806
      ],
      "type": "VEC2"
    },
    {
      "bufferView": 0,
      "byteOffset": 2160,
      "componentType": 5125,
      "count": 36,
      "type": "SCALAR"
    },
    {
      "bufferView": 2,
      "byteOffset": 9216,
      "componentType": 5126,
      "count": 24,
      "max": [
        0.171875,
        0.0625,
        0.171875
      ],
      "min": [
        -0.046875,
        0.0,
        -0.046875
      ],
      "type": "VEC3"
    },
    {
      "bufferView": 2,
      "byteOffset": 9504,
      "componentType": 5126,
      "count": 24,
      "max": [
        1.0,
        1.0,
        1.0
      ],
      "min": [
        -1.0,
        -1.0,
        -1.0
      ],
      "type": "VEC3"
    },
    {
      "bufferView": 1,
      "byteOffset": 3072,
      "componentType": 5126,
      "count": 24,
      "max": [
        0.26562514901161194,
        0.28125
      ],
      "min": [
        0.07812515646219254,
        0.21875014901161194
      ],
      "type": "VEC2"
    },
    {
      "bufferView": 0,
      "byteOffset": 2304,
      "componentType": 5125,
      "count": 36,
      "type": "SCALAR"
    },
    {
      "bufferView": 2,
      "byteOffset": 9792,
      "componentType": 5126,
      "count": 24,
      "max": [
        0.171875,
        0.0625,
        0.171875
      ],
      "min": [
        -0.046875,
        0.0,
        -0.046875
      ],
      "type": "VEC3"
    },
    {
      "bufferView": 2,
      "byteOffset": 10080,
      "componentType": 5126,
      "count": 24,
      "max": [
        1.0,
        1.0,
        1.0
      ],
      "min": [
        -1.0,
        -1.0,
        -1.0
      ],
      "type": "VEC3"
    },
    {
      "bufferView": 1,
      "byteOffset": 3264,
      "componentType": 5126,
      "count": 24,
      "max": [
        0.26562514901161194,
        0.43749985098838806
      ],
      "min": [
        0.07812515646219254,
        0.375
      ],
      "type": "VEC2"
    },
    {
      "bufferView": 0,
      "byteOffset": 2448,
      "componentType": 5125,
      "count": 36,
      "type": "SCALAR"
    },
    {
      "bufferView": 2,
      "byteOffset": 10368,
      "componentType": 5126,
      "count": 24,
      "max": [
        0.171875,
        0.0625,
        0.171875
      ],
      "min": [
        -0.046875,
        0.0,
        -0.046875
      ],
      "type": "VEC3"
    },
    {
      "bufferView": 2,
      "byteOffset": 10656,
      "componentType": 5126,
      "count": 24,
      "max": [
        1.0,
        1.0,
        1.0
      ],
      "min": [
        -1.0,
        -1.0,
        -1.0
      ],
      "type": "VEC3"
    },
    {
      "bufferView": 1,
      "byteOffset": 3456,
      "componentType": 5126,
      "count": 24,
      "max": [
        0.46875,
        0.29687485098838806
      ],
      "min": [
        0.28125,
        0.234375
      ],
      "type": "VEC2"
    },
    {
      "bufferView": 0,
      "byteOffset": 2592,
      "componentType": 5125,
      "count": 36,
      "type": "SCALAR"
    },
    {
      "bufferView": 2,
      "byteOffset": 10944,
      "componentType": 5126,
      "count": 24,
      "max": [
        0.171875,
        0.0625,
        0.171875
      ],
      "min": [
        -0.046875,
        0.0,
        -0.046875
      ],
      "type": "VEC3"
    },
    {
      "bufferView": 2,
      "byteOffset": 11232,
      "componentType": 5126,
      "count": 24,
      "max": [
        1.0,
        1.0,
        1.0
      ],
      "min": [
        -1.0,
        -1.0,
        -1.0
      ],
      "type": "VEC3"
    },
    {
      "bufferView": 1,
      "byteOffset": 3648,
      "componentType": 5126,
      "count": 24,
      "max": [
        0.46875,
        0.375
      ],
      "min": [
        0.28125,
        0.31250014901161194
      ],
      "type": "VEC2"
    },
    {
      "bufferView": 0,
      "byteOffset": 2736,
      "componentType": 5125,
      "count": 36,
      "type": "SCALAR"
    },
    {
      "bufferView": 2,
      "byteOffset": 11520,
      "componentType": 5126,
      "count": 24,
      "max": [
        0.171875,
        0.0625,
        0.171875
      ],
      "min": [
        -0.046875,
        0.0,
        -0.046875
      ],
      "type": "VEC3"
    },
    {
      "bufferView": 2,
      "byteOffset": 11808,
      "componentType": 5126,
      "count": 24,
      "max": [
        1.0,
        1.0,
        1.0
      ],
      "min": [
        -1.0,
        -1.0,
        -1.0
      ],
      "type": "VEC3"
    },
    {
      "bufferView": 1,
      "byteOffset": 3840,
      "componentType": 5126,
      "count": 24,
      "max": [
        0.26562514901161194,
        0.35937514901161194
      ],
      "min": [
        0.07812515646219254,
        0.29687485098838806
      ],
      "type": "VEC2"
    },
    {
      "bufferView": 0,
      "byteOffset": 2880,
      "componentType": 5125,
      "count": 36,
      "type": "SCALAR"
    },
    {
      "bufferView": 2,
      "byteOffset": 12096,
      "componentType": 5126,
      "count": 24,
      "max": [
        0.171875,
        0.0625,
        0.171875
      ],
      "min": [
        -0.046875,
        0.0,
        -0.046875
      ],
      "type": "VEC3"
    },
    {
      "bufferView": 2,
      "byteOffset": 12384,
      "componentType": 5126,
      "count": 24,
      "max": [
        1.0,
        1.0,
        1.0
      ],
      "min": [
        -1.0,
        -1.0,
        -1.0
      ],
      "type": "VEC3"
    },
    {
      "bufferView": 1,
      "byteOffset": 4032,
      "componentType": 5126,
      "count": 24,
      "max": [
        0.45312514901161194,
        0.140625
      ],
      "min": [
        0.26562514901161194,
        0.07812514901161194
      ],
      "type": "VEC2"
    },
    {
      "bufferView": 0,
      "byteOffset": 3024,
      "componentType": 5125,
      "count": 36,
      "type": "SCALAR"
    },
    {
      "bufferView": 2,
      "byteOffset": 12672,
      "componentType": 5126,
      "count": 24,
      "max": [
        0.171875,
        0.0625,
        0.171875
      ],
      "min": [
        -0.046875,
        0.0,
        -0.046875
      ],
      "type": "VEC3"
    },
    {
      "bufferView": 2,
      "byteOffset": 12960,
      "componentType": 5126,
      "count": 24,
      "max": [
        1.0,
        1.0,
        1.0
      ],
      "min": [
        -1.0,
        -1.0,
        -1.0
      ],
      "type": "VEC3"
    },
    {
      "bufferView": 1,
      "byteOffset": 4224,
      "componentType": 5126,
      "count": 24,
      "max": [
        0.46875,
        0.21875014901161194
      ],
      "min": [
        0.28125,
        0.15624985098838806
      ],
      "type": "VEC2"
    },
    {
      "bufferView": 0,
      "byteOffset": 3168,
      "componentType": 5125,
      "count": 36,
      "type": "SCALAR"
    },
    {
      "bufferView": 2,
      "byteOffset": 13248,
      "componentType": 5126,
      "count": 24,
      "max": [
        0.171875,
        0.0625,
        0.171875
      ],
      "min": [
        -0.046875,
        0.0,
        -0.046875
      ],
      "type": "VEC3"
    },
    {
      "bufferView": 2,
      "byteOffset": 13536,
      "componentType": 5126,
      "count": 24,
      "max": [
        1.0,
        1.0,
        1.0
      ],
      "min": [
        -1.0,
        -1.0,
        -1.0
      ],
      "type": "VEC3"
    },
    {
      "bufferView": 1,
      "byteOffset": 4416,
      "componentType": 5126,
      "count": 24,
      "max": [
        0.421875,
        0.06249985098838806
      ],
      "min": [
        0.234375,
        0.0
      ],
      "type": "VEC2"
    },
    {
      "bufferView": 0,
      "byteOffset": 3312,
      "componentType": 5125,
      "count": 36,
      "type": "SCALAR"
    },
    {
      "bufferView": 2,
      "byteOffset": 13824,
      "componentType": 5126,
      "count": 24,
      "max": [
        0.625,
        0.0625,
        0.703125
      ],
      "min": [
        0.375,
        0.0,
        0.453125
      ],
      "type": "VEC3"
    },
    {
      "bufferView": 2,
      "byteOffset": 14112,
      "componentType": 5126,
      "count": 24,
      "max": [
        1.0,
        1.0,
        1.0
      ],
      "min": [
        -1.0,
        -1.0,
        -1.0
      ],
      "type": "VEC3"
    },
    {
      "bufferView": 1,
      "byteOffset": 4608,
      "componentType": 5126,
      "count": 24,
      "max": [
        0.24999985098838806,
        0.20312485098838806
      ],
      "min": [
        0.0,
        0.12500014901161194
      ],
      "type": "VEC2"
    },
    {
      "bufferView": 0,
      "byteOffset": 3456,
      "componentType": 5125,
      "count": 36,
      "type": "SCALAR"
    }
  ],
  "asset": {
    "extras": {
      "author": "Vbeo_ (https://sketchfab.com/Vbeo_)",
      "license": "CC-BY-4.0 (http://creativecommons.org/licenses/by/4.0/)",
      "source": "https://sketchfab.com/3d-models/sunflower-blockbench-c8b44007d4b0407fb60711cc44822e14",
      "title": "Sunflower - Blockbench"
    },
    "generator": "Sketchfab-16.73.0",
    "version": "2.0"
  },
  "bufferViews": [
    {
      "buffer": 0,
      "byteLength": 3600,
      "name": "floatBufferViews",
      "target": 34963
    },
    {
      "buffer": 0,
      "byteLength": 4800,
      "byteOffset": 3600,
      "byteStride": 8,
      "name": "floatBufferViews",
      "target": 34962
    },
    {
      "buffer": 0,
      "byteLength": 14400,
      "byteOffset": 8400,
      "byteStride": 12,
      "name": "floatBufferViews",
      "target": 34962
    }
  ],
  "buffers": [
    {
      "byteLength": 22800,
      "uri": "scene.bin"
    }
  ],
  "images": [
    {
      "uri": "textures/material_0_baseColor.png"
    }
  ],
  "materials": [
    {
      "alphaCutoff": 0.05,
      "alphaMode": "MASK",
      "name": "material_0",
      "pbrMetallicRoughness": {
        "baseColorTexture": {
          "index": 0
        },
        "metallicFactor": 0.0
      }
    }
  ],
  "meshes": [
    {
      "name": "Object_0",
      "primitives": [
        {
          "attributes": {
            "NORMAL": 1,
            "POSITION": 0,
            "TEXCOORD_0": 2
          },
          "indices": 3,
          "material": 0,
          "mode": 4
        }
      ]
    },
    {
      "name": "Object_1",
      "primitives": [
        {
          "attributes": {
            "NORMAL": 5,
            "POSITION": 4,
            "TEXCOORD_0": 6
          },
          "indices": 7,
          "material": 0,
          "mode": 4
        }
      ]
    },
    {
      "name": "Object_2",
      "primitives": [
        {
          "attributes": {
            "NORMAL": 9,
            "POSITION": 8,
            "TEXCOORD_0": 10
          },
          "indices": 11,
          "material": 0,
          "mode": 4
        }
      ]
    },
    {
      "name": "Object_3",
      "primitives": [
        {
          "attributes": {
            "NORMAL": 13,
            "POSITION": 12,
            "TEXCOORD_0": 14
          },
          "indices": 15,
          "material": 0,
          "mode": 4
        }
      ]
    },
    {
      "name": "Object_4",
      "primitives": [
        {
          "attributes": {
            "NORMAL": 17,
            "POSITION": 16,
            "TEXCOORD_0": 18
          },
          "indices": 19,
          "material": 0,
          "mode": 4
        }
      ]
    },
    {
      "name": "Object_5",
      "primitives": [
        {
          "attributes": {
            "NORMAL": 21,
            "POSITION": 20,
            "TEXCOORD_0": 22
          },
          "indices": 23,
          "material": 0,
          "mode": 4
        }
      ]
    },
    {
      "name": "Object_6",
      "primitives": [
        {
          "attributes": {
            "NORMAL": 25,
            "POSITION": 24,
            "TEXCOORD_0": 26
          },
          "indices": 27,
          "material": 0,
          "mode": 4
        }
      ]
    },
    {
      "name": "Object_7",
      "primitives": [
        {
          "attributes": {
            "NORMAL": 29,
            "POSITION": 28,
            "TEXCOORD_0": 30
          },
          "indices": 31,
          "material": 0,
          "mode": 4
        }
      ]
    },
    {
      "name": "Object_8",
      "primitives": [
        {
          "attributes": {
            "NORMAL": 33,
            "POSITION": 32,
            "TEXCOORD_0": 34
          },
          "indices": 35,
          "material": 0,
          "mode": 4
        }
      ]
    },
    {
      "name": "Object_9",
      "primitives": [
        {
          "attributes": {
            "NORMAL": 37,
            "POSITION": 36,
            "TEXCOORD_0": 38
          },
          "indices": 39,
          "material": 0,
          "mode": 4
        }
      ]
    },
    {
      "name": "Object_10",
      "primitives": [
        {
          "attributes": {
            "NORMAL": 41,
            "POSITION": 40,
            "TEXCOORD_0": 42
          },
          "indices": 43,
          "material": 0,
          "mode": 4
        }
      ]
    },
    {
      "name": "Object_11",
      "primitives": [
        {
          "attributes": {
            "NORMAL": 45,
            "POSITION": 44,
            "TEXCOORD_0": 46
          },
          "indices": 47,
          "material": 0,
          "mode": 4
        }
      ]
    },
    {
      "name": "Object_12",
      "primitives": [
        {
          "attributes": {
            "NORMAL": 49,
            "POSITION": 48,
            "TEXCOORD_0": 50
          },
          "indices": 51,
          "material": 0,
          "mode": 4
        }
      ]
    },
    {
      "name": "Object_13",
      "primitives": [
        {
          "attributes": {
            "NORMAL": 53,
            "POSITION": 52,
            "TEXCOORD_0": 54
          },
          "indices": 55,
          "material": 0,
          "mode": 4
        }
      ]
    },
    {
      "name": "Object_14",
      "primitives": [
        {
          "attributes": {
            "NORMAL": 57,
            "POSITION": 56,
            "TEXCOORD_0": 58
          },
          "indices": 59,
          "material": 0,
          "mode": 4
        }
      ]
    },
    {
      "name": "Object_15",
      "primitives": [
        {
          "attributes": {
            "NORMAL": 61,
            "POSITION": 60,
            "TEXCOORD_0": 62
          },
          "indices": 63,
          "material": 0,
          "mode": 4
        }
      ]
    },
    {
      "name": "Object_16",
      "primitives": [
        {
          "attributes": {
            "NORMAL": 65,
            "POSITION": 64,
            "TEXCOORD_0": 66
          },
          "indices": 67,
          "material": 0,
          "mode": 4
        }
      ]
    },
    {
      "name": "Object_17",
      "primitives": [
        {
          "attributes": {
            "NORMAL": 69,
            "POSITION": 68,
            "TEXCOORD_0": 70
          },
          "indices": 71,
          "material": 0,
          "mode": 4
        }
      ]
    },
    {
      "name": "Object_18",
      "primitives": [
        {
          "attributes": {
            "NORMAL": 73,
            "POSITION": 72,
            "TEXCOORD_0": 74
          },
          "indices": 75,
          "material": 0,
          "mode": 4
        }
      ]
    },
    {
      "name": "Object_19",
      "primitives": [
        {
          "attributes": {
            "NORMAL": 77,
            "POSITION": 76,
            "TEXCOORD_0": 78
          },
          "indices": 79,
          "material": 0,
          "mode": 4
        }
      ]
    },
    {
      "name": "Object_20",
      "primitives": [
        {
          "attributes": {
            "NORMAL": 81,
            "POSITION": 80,
            "TEXCOORD_0": 82
          },
          "indices": 83,
          "material": 0,
          "mode": 4
        }
      ]
    },
    {
      "name": "Object_21",
      "primitives": [
        {
          "attributes": {
            "NORMAL": 85,
            "POSITION": 84,
            "TEXCOORD_0": 86
          },
          "indices": 87,
          "material": 0,
          "mode": 4
        }
      ]
    },
    {
      "name": "Object_22",
      "primitives": [
        {
          "attributes": {
            "NORMAL": 89,
            "POSITION": 88,
            "TEXCOORD_0": 90
          },
          "indices": 91,
          "material": 0,
          "mode": 4
        }
      ]
    },
    {
      "name": "Object_23",
      "primitives": [
        {
          "attributes": {
            "NORMAL": 93,
            "POSITION": 92,
            "TEXCOORD_0": 94
          },
          "indices": 95,
          "material": 0,
          "mode": 4
        }
      ]
    },
    {
      "name": "Object_24",
      "primitives": [
        {
          "attributes": {
            "NORMAL": 97,
            "POSITION": 96,
            "TEXCOORD_0": 98
          },
          "indices": 99,
          "material": 0,
          "mode": 4
        }
      ]
    }
  ],
  "nodes": [
    {
      "children": [
        1
      ],
      "matrix": [
        -1.0,
        3.1450057482662597e-32,
        -2.832769343193999e-16,
        0.0,
        -2.832769343193999e-16,
        6.123232939436859e-17,
        1.0,
        0.0,
        4.8795769672831353e-32,
        1.0,
        -6.123232939436859e-17,
        0.0,
        0.0,
        0.0,
        0.0,
        1.0
      ],
      "name": "Sketchfab_model"
    },
    {
      "children": [
        2
      ],
      "name": "root"
    },
    {
      "children": [
        3
      ],
      "matrix": [
        1.0,
        0.0,
        0.0,
        0.0,
        0.0,
        2.220446049250313e-16,
        1.0,
        0.0,
        0.0,
        -1.0,
        2.220446049250313e-16,
        0.0,
        0.0,
        0.0,
        0.0,
        1.0
      ],
      "name": "GLTF_SceneRootNode"
    },
    {
      "children": [
        4,
        6,
        8,
        10,
        12,
        14,
        16,
        18,
        20,
        22,
        24,
        26,
        28,
        30,
        32,
        34,
        36,
        38,
        40,
        42,
        44,
        46,
        48,
        50,
        52
      ],
      "name": "_26"
    },
    {
      "children": [
        5
      ],
      "name": "cube_0"
    },
    {
      "mesh": 0,
      "name": "Object_5"
    },
    {
      "children": [
        7
      ],
      "matrix": [
        1.0,
        0.0,
        0.0,
        0.0,
        0.0,
        0.9238795268167601,
        0.38268344611289284,
        0.0,
        0.0,
        -0.38268344611289284,
        0.9238795268167601,
        0.0,
        0.4375,
        1.140625,
        0.203125,
        1.0
      ],
      "name": "cube_1"
    },
    {
      "mesh": 1,
      "name": "Object_7"
    },
    {
      "children": [
        9
      ],
      "matrix": [
        1.0,
        0.0,
        0.0,
        0.0,
        0.0,
        0.7071067739978436,
        0.7071067883752514,
        0.0,
        0.0,
        -0.7071067883752514,
        0.7071067739978436,
        0.0,
        0.4375,
        1.0925812721252441,
        0.34086874127388,
        1.0
      ],
      "name": "cube_2"
    },
    {
      "mesh": 2,
      "name": "Object_9"
    },
    {
      "children": [
        11
      ],
      "matrix": [
        1.0,
        0.0,
        0.0,
        0.0,
        0.0,
        0.9238795268167601,
        -0.38268344611289284,
        0.0,
        0.0,
        0.38268344611289284,
        0.9238795268167601,
        0.0,
        0.4375,
        0.9954825043678284,
        0.4497418701648712,
        1.0
      ],
      "name": "cube_3"
    },
    {
      "mesh": 3,
      "name": "Object_11"
    },
    {
      "children": [
        13
      ],
      "matrix": [
        1.0,
        0.0,
        0.0,
        0.0,
        0.0,
        0.9238795268167601,
        -0.38268344611289284,
        0.0,
        0.0,
        0.38268344611289284,
        0.9238795268167601,
        0.0,
        0.09375,
        0.8079825043678284,
        0.4809918701648712,
        1.0
      ],
      "name": "cube_4"
    },
    {
      "mesh": 4,
      "name": "Object_13"
    },
    {
      "children": [
        15
      ],
      "matrix": [
        1.0,
        0.0,
        0.0,
        0.0,
        0.0,
        0.7071067739978436,
        -0.7071067883752514,
        0.0,
        0.0,
        0.7071067883752514,
        0.7071067739978436,
        0.0,
        0.46875,
        0.6204825043678284,
        0.4341168701648712,
        1.0
      ],
      "name": "cube_5"
    },
    {
      "mesh": 5,
      "name": "Object_15"
    },
    {
      "children": [
        17
      ],
      "matrix": [
        1.0,
        0.0,
        0.0,
        0.0,
        0.0,
        0.7071067739978436,
        -0.7071067883752514,
        0.0,
        0.0,
        0.7071067883752514,
        0.7071067739978436,
        0.0,
        0.09375,
        0.49548250436782837,
        0.4341168701648712,
        1.0
      ],
      "name": "cube_6"
    },
    {
      "mesh": 6,
      "name": "Object_17"
    },
    {
      "children": [
        19
      ],
      "name": "cube_7"
    },
    {
      "mesh": 7,
      "name": "Object_19"
    },
    {
      "children": [
        21
      ],
      "name": "cube_8"
    },
    {
      "mesh": 8,
      "name": "Object_21"
    },
    {
      "children": [
        23
      ],
      "name": "cube_9"
    },
    {
      "mesh": 9,
      "name": "Object_23"
    },
    {
      "children": [
        25
      ],
      "name": "cube_10"
    },
    {
      "mesh": 10,
      "name": "Object_25"
    },
    {
      "children": [
        27
      ],
      "name": "cube_11"
    },
    {
      "mesh": 11,
      "name": "Object_27"
    },
    {
      "children": [
        29
      ],
      "matrix": [
        0.7071067739978436,
        -0.7071067883752514,
        0.0,
        0.0,
        0.7071067883752514,
        0.7071067739978436,
        0.0,
        0.0,
        0.0,
        0.0,
        1.0,
        0.0,
        0.828125,
        0.953125,
        0.25,
        1.0
      ],
      "name": "cube_12"
    },
    {
      "mesh": 12,
      "name": "Object_29"
    },
    {
      "children": [
        31
      ],
      "matrix": [
        0.7071067739978436,
        -0.7071067883752514,
        0.0,
        0.0,
        0.7071067883752514,
        0.7071067739978436,
        0.0,
        0.0,
        0.0,
        0.0,
        1.0,
        0.0,
        0.390625,
        1.390625,
        0.25,
        1.0
      ],
      "name": "cube_13"
    },
    {
      "mesh": 13,
      "name": "Object_31"
    },
    {
      "children": [
        33
      ],
      "matrix": [
        0.7071067739978436,
        0.7071067883752514,
        0.0,
        0.0,
        -0.7071067883752514,
        0.7071067739978436,
        0.0,
        0.0,
        0.0,
        0.0,
        1.0,
        0.0,
        0.28125,
        1.0625,
        0.25,
        1.0
      ],
      "name": "cube_14"
    },
    {
      "mesh": 14,
      "name": "Object_33"
    },
    {
      "children": [
        35
      ],
      "matrix": [
        0.7071067739978436,
        0.7071067883752514,
        0.0,
        0.0,
        -0.7071067883752514,
        0.7071067739978436,
        0.0,
        0.0,
        0.0,
        0.0,
        1.0,
        0.0,
        0.75,
        1.53125,
        0.25,
        1.0
      ],
      "name": "cube_15"
    },
    {
      "mesh": 15,
      "name": "Object_35"
    },
    {
      "children": [
        37
      ],
      "matrix": [
        1.0,
        0.0,
        0.0,
        0.0,
        0.0,
        0.9238795268167601,
        -0.38268344611289284,
        0.0,
        0.0,
        0.38268344611289284,
        0.9238795268167601,
        0.0,
        0.25,
        0.015625,
        0.34375,
        1.0
      ],
      "name": "cube_16"
    },
    {
      "mesh": 16,
      "name": "Object_37"
    },
    {
      "children": [
        39
      ],
      "matrix": [
        1.0,
        0.0,
        0.0,
        0.0,
        0.0,
        0.9238795268167601,
        0.38268344611289284,
        0.0,
        0.0,
        -0.38268344611289284,
        0.9238795268167601,
        0.0,
        0.0625,
        0.140625,
        0.296875,
        1.0
      ],
      "name": "cube_17"
    },
    {
      "mesh": 17,
      "name": "Object_39"
    },
    {
      "children": [
        41
      ],
      "matrix": [
        1.0,
        0.0,
        0.0,
        0.0,
        0.0,
        0.9238795268167601,
        0.38268344611289284,
        0.0,
        0.0,
        -0.38268344611289284,
        0.9238795268167601,
        0.0,
        0.15625,
        0.140625,
        0.796875,
        1.0
      ],
      "name": "cube_18"
    },
    {
      "mesh": 18,
      "name": "Object_41"
    },
    {
      "children": [
        43
      ],
      "matrix": [
        1.0,
        0.0,
        0.0,
        0.0,
        0.0,
        0.9238795268167601,
        0.38268344611289284,
        0.0,
        0.0,
        -0.38268344611289284,
        0.9238795268167601,
        0.0,
        0.8125,
        0.15625,
        0.296875,
        1.0
      ],
      "name": "cube_19"
    },
    {
      "mesh": 19,
      "name": "Object_43"
    },
    {
      "children": [
        45
      ],
      "matrix": [
        1.0,
        0.0,
        0.0,
        0.0,
        0.0,
        0.9238795268167601,
        -0.38268344611289284,
        0.0,
        0.0,
        0.38268344611289284,
        0.9238795268167601,
        0.0,
        0.75,
        0.140625,
        0.796875,
        1.0
      ],
      "name": "cube_20"
    },
    {
      "mesh": 20,
      "name": "Object_45"
    },
    {
      "children": [
        47
      ],
      "matrix": [
        1.0,
        0.0,
        0.0,
        0.0,
        0.0,
        0.9238795268167601,
        0.38268344611289284,
        0.0,
        0.0,
        -0.38268344611289284,
        0.9238795268167601,
        0.0,
        0.625,
        0.09375,
        0.328125,
        1.0
      ],
      "name": "cube_21"
    },
    {
      "mesh": 21,
      "name": "Object_47"
    },
    {
      "children": [
        49
      ],
      "matrix": [
        0.9238795268167601,
        0.38268344611289284,
        0.0,
        0.0,
        -0.38268344611289284,
        0.9238795268167601,
        0.0,
        0.0,
        0.0,
        0.0,
        1.0,
        0.0,
        0.625,
        0.03125,
        0.703125,
        1.0
      ],
      "name": "cube_22"
    },
    {
      "mesh": 22,
      "name": "Object_49"
    },
    {
      "children": [
        51
      ],
      "matrix": [
        0.9238795268167601,
        -0.38268344611289284,
        0.0,
        0.0,
        0.38268344611289284,
        0.9238795268167601,
        0.0,
        0.0,
        0.0,
        0.0,
        1.0,
        0.0,
        0.25,
        0.09375,
        0.703125,
        1.0
      ],
      "name": "cube_23"
    },
    {
      "mesh": 23,
      "name": "Object_51"
    },
    {
      "children": [
        53
      ],
      "name": "cube_24"
    },
    {
      "mesh": 24,
      "name": "Object_53"
    }
  ],
  "samplers": [
    {
      "magFilter": 9728,
      "minFilter": 9728,
      "wrapS": 33071,
      "wrapT": 33071
    }
  ],
  "scene": 0,
  "scenes": [
    {
      "name": "Sketchfab_Scene",
      "nodes": [
        0
      ]
    }
  ],
  "textures": [
    {
      "sampler": 0,
      "source": 0
    }
  ]
}
