{"accessors": [{"bufferView": 0, "componentType": 5126, "count": 24, "max": [0.6875, 0.3750005066394806, 0.6875], "min": [0.375, 0.0, 0.375], "type": "VEC3"}, {"bufferView": 1, "componentType": 5125, "count": 34, "type": "SCALAR"}, {"bufferView": 2, "componentType": 5126, "count": 24, "type": "VEC3"}, {"bufferView": 3, "componentType": 5126, "count": 24, "type": "VEC4"}, {"bufferView": 4, "componentType": 5126, "count": 24, "type": "VEC2"}, {"bufferView": 5, "componentType": 5126, "count": 8, "max": [0.6874750256538391, 0.35943174362182617, 0.6874750256538391], "min": [0.3749749958515167, 0.359375, 0.3749749958515167], "type": "VEC3"}, {"bufferView": 6, "componentType": 5125, "count": 10, "type": "SCALAR"}, {"bufferView": 7, "componentType": 5126, "count": 8, "type": "VEC3"}, {"bufferView": 8, "componentType": 5126, "count": 8, "type": "VEC4"}, {"bufferView": 9, "componentType": 5126, "count": 8, "type": "VEC2"}, {"bufferView": 10, "componentType": 5126, "count": 16, "max": [0.6874750256538391, 0.35943174362182617, 0.6874750256538391], "min": [0.3749749958515167, 0.359375, 0.3749749958515167], "type": "VEC3"}, {"bufferView": 11, "componentType": 5125, "count": 22, "type": "SCALAR"}, {"bufferView": 12, "componentType": 5126, "count": 16, "type": "VEC3"}, {"bufferView": 13, "componentType": 5126, "count": 16, "type": "VEC4"}, {"bufferView": 14, "componentType": 5126, "count": 16, "type": "VEC2"}, {"bufferView": 15, "componentType": 5126, "count": 20, "max": [0.5624949932098389, 0.06249507889151573, 0.8125130534172058], "min": [0.49999499320983887, -4.921259915136034e-06, 0.6874989867210388], "type": "VEC3"}, {"bufferView": 16, "componentType": 5125, "count": 28, "type": "SCALAR"}, {"bufferView": 17, "componentType": 5126, "count": 20, "type": "VEC3"}, {"bufferView": 18, "componentType": 5126, "count": 20, "type": "VEC4"}, {"bufferView": 19, "componentType": 5126, "count": 20, "type": "VEC2"}, {"bufferView": 20, "componentType": 5126, "count": 4, "max": [0.5624949932098389, 0.06249507889151573, 0.6874989867210388], "min": [0.49999499320983887, -4.921259915136034e-06, 0.6874989867210388], "type": "VEC3"}, {"bufferView": 21, "componentType": 5125, "count": 4, "type": "SCALAR"}, {"bufferView": 22, "componentType": 5126, "count": 4, "type": "VEC3"}, {"bufferView": 23, "componentType": 5126, "count": 4, "type": "VEC4"}, {"bufferView": 24, "componentType": 5126, "count": 4, "type": "VEC2"}, {"bufferView": 25, "componentType": 5126, "count": 20, "max": [0.5624949932098389, 0.31249499320983887, 0.8125130534172058], "min": [0.49999499320983887, 0.24999499320983887, 0.6874989867210388], "type": "VEC3"}, {"bufferView": 26, "componentType": 5125, "count": 28, "type": "SCALAR"}, {"bufferView": 27, "componentType": 5126, "count": 20, "type": "VEC3"}, {"bufferView": 28, "componentType": 5126, "count": 20, "type": "VEC4"}, {"bufferView": 29, "componentType": 5126, "count": 20, "type": "VEC2"}, {"bufferView": 30, "componentType": 5126, "count": 4, "max": [0.5624949932098389, 0.31249499320983887, 0.6874989867210388], "min": [0.49999499320983887, 0.24999499320983887, 0.6874989867210388], "type": "VEC3"}, {"bufferView": 31, "componentType": 5125, "count": 4, "type": "SCALAR"}, {"bufferView": 32, "componentType": 5126, "count": 4, "type": "VEC3"}, {"bufferView": 33, "componentType": 5126, "count": 4, "type": "VEC4"}, {"bufferView": 34, "componentType": 5126, "count": 4, "type": "VEC2"}, {"bufferView": 35, "componentType": 5126, "count": 8, "max": [0.5624949932098389, 0.24999511241912842, 0.8125132322311401], "min": [0.49999499320983887, 0.06249510124325752, 0.7500061988830566], "type": "VEC3"}, {"bufferView": 36, "componentType": 5125, "count": 10, "type": "SCALAR"}, {"bufferView": 37, "componentType": 5126, "count": 8, "type": "VEC3"}, {"bufferView": 38, "componentType": 5126, "count": 8, "type": "VEC4"}, {"bufferView": 39, "componentType": 5126, "count": 8, "type": "VEC2"}, {"bufferView": 40, "componentType": 5126, "count": 16, "max": [0.5624949932098389, 0.24999511241912842, 0.8125132322311401], "min": [0.49999499320983887, 0.06249510124325752, 0.7500061988830566], "type": "VEC3"}, {"bufferView": 41, "componentType": 5125, "count": 22, "type": "SCALAR"}, {"bufferView": 42, "componentType": 5126, "count": 16, "type": "VEC3"}, {"bufferView": 43, "componentType": 5126, "count": 16, "type": "VEC4"}, {"bufferView": 44, "componentType": 5126, "count": 16, "type": "VEC2"}], "asset": {"version": "2.0"}, "bufferViews": [{"buffer": 0, "byteLength": 288, "target": 34962}, {"buffer": 1, "byteLength": 136, "target": 34963}, {"buffer": 2, "byteLength": 288, "target": 34962}, {"buffer": 3, "byteLength": 384, "target": 34962}, {"buffer": 4, "byteLength": 192, "target": 34962}, {"buffer": 5, "byteLength": 96, "target": 34962}, {"buffer": 6, "byteLength": 40, "target": 34963}, {"buffer": 7, "byteLength": 96, "target": 34962}, {"buffer": 8, "byteLength": 128, "target": 34962}, {"buffer": 9, "byteLength": 64, "target": 34962}, {"buffer": 10, "byteLength": 192, "target": 34962}, {"buffer": 11, "byteLength": 88, "target": 34963}, {"buffer": 12, "byteLength": 192, "target": 34962}, {"buffer": 13, "byteLength": 256, "target": 34962}, {"buffer": 14, "byteLength": 128, "target": 34962}, {"buffer": 15, "byteLength": 240, "target": 34962}, {"buffer": 16, "byteLength": 112, "target": 34963}, {"buffer": 17, "byteLength": 240, "target": 34962}, {"buffer": 18, "byteLength": 320, "target": 34962}, {"buffer": 19, "byteLength": 160, "target": 34962}, {"buffer": 20, "byteLength": 48, "target": 34962}, {"buffer": 21, "byteLength": 16, "target": 34963}, {"buffer": 22, "byteLength": 48, "target": 34962}, {"buffer": 23, "byteLength": 64, "target": 34962}, {"buffer": 24, "byteLength": 32, "target": 34962}, {"buffer": 25, "byteLength": 240, "target": 34962}, {"buffer": 26, "byteLength": 112, "target": 34963}, {"buffer": 27, "byteLength": 240, "target": 34962}, {"buffer": 28, "byteLength": 320, "target": 34962}, {"buffer": 29, "byteLength": 160, "target": 34962}, {"buffer": 30, "byteLength": 48, "target": 34962}, {"buffer": 31, "byteLength": 16, "target": 34963}, {"buffer": 32, "byteLength": 48, "target": 34962}, {"buffer": 33, "byteLength": 64, "target": 34962}, {"buffer": 34, "byteLength": 32, "target": 34962}, {"buffer": 35, "byteLength": 96, "target": 34962}, {"buffer": 36, "byteLength": 40, "target": 34963}, {"buffer": 37, "byteLength": 96, "target": 34962}, {"buffer": 38, "byteLength": 128, "target": 34962}, {"buffer": 39, "byteLength": 64, "target": 34962}, {"buffer": 40, "byteLength": 192, "target": 34962}, {"buffer": 41, "byteLength": 88, "target": 34963}, {"buffer": 42, "byteLength": 192, "target": 34962}, {"buffer": 43, "byteLength": 256, "target": 34962}, {"buffer": 44, "byteLength": 128, "target": 34962}], "buffers": [{"byteLength": 288, "uri": "data:application/octet-stream;base64,"}, {"byteLength": 136, "uri": "data:application/octet-stream;base64,"}, {"byteLength": 288, "uri": "data:application/octet-stream;base64,"}, {"byteLength": 384, "uri": "data:application/octet-stream;base64,"}, {"byteLength": 192, "uri": "data:application/octet-stream;base64,"}, {"byteLength": 96, "uri": "data:application/octet-stream;base64,"}, {"byteLength": 40, "uri": "data:application/octet-stream;base64,"}, {"byteLength": 96, "uri": "data:application/octet-stream;base64,"}, {"byteLength": 128, "uri": "data:application/octet-stream;base64,"}, {"byteLength": 64, "uri": "data:application/octet-stream;base64,"}, {"byteLength": 192, "uri": "data:application/octet-stream;base64,"}, {"byteLength": 88, "uri": "data:application/octet-stream;base64,"}, {"byteLength": 192, "uri": "data:application/octet-stream;base64,"}, {"byteLength": 256, "uri": "data:application/octet-stream;base64,"}, {"byteLength": 128, "uri": "data:application/octet-stream;base64,"}, {"byteLength": 240, "uri": "data:application/octet-stream;base64,"}, {"byteLength": 112, "uri": "data:application/octet-stream;base64,"}, {"byteLength": 240, "uri": "data:application/octet-stream;base64,"}, {"byteLength": 320, "uri": "data:application/octet-stream;base64,"}, {"byteLength": 160, "uri": "data:application/octet-stream;base64,"}, {"byteLength": 48, "uri": "data:application/octet-stream;base64,"}, {"byteLength": 16, "uri": "data:application/octet-stream;base64,"}, {"byteLength": 48, "uri": "data:application/octet-stream;base64,"}, {"byteLength": 64, "uri": "data:application/octet-stream;base64,"}, {"byteLength": 32, "uri": "data:application/octet-stream;base64,"}, {"byteLength": 240, "uri": "data:application/octet-stream;base64,"}, {"byteLength": 112, "uri": "data:application/octet-stream;base64,"}, {"byteLength": 240, "uri": "data:application/octet-stream;base64,"}, {"byteLength": 320, "uri": "data:application/octet-stream;base64,"}, {"byteLength": 160, "uri": "data:application/octet-stream;base64,"}, {"byteLength": 48, "uri": "data:application/octet-stream;base64,"}, {"byteLength": 16, "uri": "data:application/octet-stream;base64,"}, {"byteLength": 48, "uri": "data:application/octet-stream;base64,"}, {"byteLength": 64, "uri": "data:application/octet-stream;base64,"}, {"byteLength": 32, "uri": "data:application/octet-stream;base64,"}, {"byteLength": 96, "uri": "data:application/octet-stream;base64,"}, {"byteLength": 40, "uri": "data:application/octet-stream;base64,"}, {"byteLength": 96, "uri": "data:application/octet-stream;base64,"}, {"byteLength": 128, "uri": "data:application/octet-stream;base64,"}, {"byteLength": 64, "uri": "data:application/octet-stream;base64,"}, {"byteLength": 192, "uri": "data:application/octet-stream;base64,"}, {"byteLength": 88, "uri": "data:application/octet-stream;base64,"}, {"byteLength": 192, "uri": "data:application/octet-stream;base64,"}, {"byteLength": 256, "uri": "data:application/octet-stream;base64,"}, {"byteLength": 128, "uri": "data:application/octet-stream;base64,"}], "materials": [{"pbrMetallicRoughness": {"baseColorTexture": {"index": 0}, "metallicFactor": 0.0, "roughnessFactor": 1.0}, "doubleSided": false, "alphaMode": "MASK", "alphaCutoff": 0.05}, {"pbrMetallicRoughness": {"baseColorFactor": [1.0, 1.0, 1.0, 1.0], "metallicFactor": 0.0, "roughnessFactor": 1.0}, "doubleSided": false}, {"pbrMetallicRoughness": {"baseColorFactor": [1.0, 1.0, 1.0, 1.0], "metallicFactor": 0.0, "roughnessFactor": 1.0}, "doubleSided": false}, {"pbrMetallicRoughness": {"baseColorFactor": [1.0, 1.0, 1.0, 1.0], "metallicFactor": 0.0, "roughnessFactor": 1.0}, "doubleSided": false}], "meshes": [{"primitives": [{"attributes": {"NORMAL": 2, "POSITION": 0, "TANGENT": 3, "TEXCOORD_0": 4}, "indices": 1, "material": 0, "mode": 5}]}, {"primitives": [{"attributes": {"NORMAL": 7, "POSITION": 5, "TANGENT": 8, "TEXCOORD_0": 9}, "indices": 6, "material": 0, "mode": 5}]}, {"primitives": [{"attributes": {"NORMAL": 12, "POSITION": 10, "TANGENT": 13, "TEXCOORD_0": 14}, "indices": 11, "material": 1, "mode": 5}]}, {"primitives": [{"attributes": {"NORMAL": 17, "POSITION": 15, "TANGENT": 18, "TEXCOORD_0": 19}, "indices": 16, "material": 0, "mode": 5}]}, {"primitives": [{"attributes": {"NORMAL": 22, "POSITION": 20, "TANGENT": 23, "TEXCOORD_0": 24}, "indices": 21, "material": 2, "mode": 5}]}, {"primitives": [{"attributes": {"NORMAL": 27, "POSITION": 25, "TANGENT": 28, "TEXCOORD_0": 29}, "indices": 26, "material": 0, "mode": 5}]}, {"primitives": [{"attributes": {"NORMAL": 32, "POSITION": 30, "TANGENT": 33, "TEXCOORD_0": 34}, "indices": 31, "material": 1, "mode": 5}]}, {"primitives": [{"attributes": {"NORMAL": 37, "POSITION": 35, "TANGENT": 38, "TEXCOORD_0": 39}, "indices": 36, "material": 3, "mode": 5}]}, {"primitives": [{"attributes": {"NORMAL": 42, "POSITION": 40, "TANGENT": 43, "TEXCOORD_0": 44}, "indices": 41, "material": 0, "mode": 5}]}], "nodes": [{"mesh": 0, "name": "_gltfNode_0"}, {"children": [0], "name": "cube_0"}, {"mesh": 1, "name": "_gltfNode_2"}, {"mesh": 2, "name": "_gltfNode_3"}, {"children": [2, 3], "name": "cube_1"}, {"mesh": 3, "name": "_gltfNode_5"}, {"mesh": 4, "name": "_gltfNode_6"}, {"children": [5, 6], "name": "cube_2"}, {"mesh": 5, "name": "_gltfNode_8"}, {"mesh": 6, "name": "_gltfNode_9"}, {"children": [8, 9], "name": "cube_3"}, {"mesh": 7, "name": "_gltfNode_11"}, {"mesh": 8, "name": "_gltfNode_12"}, {"children": [11, 12], "name": "cube_4"}, {"children": [1, 4, 7, 10, 13], "name": "_5"}, {"children": [14], "name": "Coffee cup", "rotation": [-1.9753748434203095e-22, 0.0, 0.0, 1.0], "scale": [1.0, 1.0, 1.0], "translation": [0.0, 0.0, 0.0]}], "scene": 0, "scenes": [{"nodes": [15]}], "samplers": [{"magFilter": 9728, "minFilter": 9728, "wrapS": 33071, "wrapT": 33071}], "images": [{"uri": "textures/gltf_embedded_0.png"}], "textures": [{"source": 0, "sampler": 0}]}