{"accessors":[{"bufferView":0,"componentType":5126,"count":32,"max":[5.5033440589904785,0.4999954402446747,0.4994327127933502],"min":[-0.4995896816253662,-0.5000050067901611,-6.496173858642578],"type":"VEC3"},{"bufferView":1,"componentType":5125,"count":58,"type":"SCALAR"},{"bufferView":2,"componentType":5126,"count":32,"type":"VEC3"},{"bufferView":3,"componentType":5126,"count":32,"type":"VEC4"},{"bufferView":4,"componentType":5126,"count":32,"type":"VEC2"},{"bufferView":5,"componentType":5126,"count":22,"max":[7.496503829956055,0.4999954402446747,-1.5015462636947632],"min":[1.501386284828186,-0.5000050067901611,-7.496663570404053],"type":"VEC3"},{"bufferView":6,"componentType":5125,"count":34,"type":"SCALAR"},{"bufferView":7,"componentType":5126,"count":22,"type":"VEC3"},{"bufferView":8,"componentType":5126,"count":22,"type":"VEC4"},{"bufferView":9,"componentType":5126,"count":22,"type":"VEC2"},{"bufferView":10,"componentType":5126,"count":476,"max":[14.499926567077637,0.4999954402446747,1.4999070167541504],"min":[-1.5000799894332886,-0.5000050067901611,-14.500100135803224],"type":"VEC3"},{"bufferView":11,"componentType":5125,"count":826,"type":"SCALAR"},{"bufferView":12,"componentType":5126,"count":476,"type":"VEC3"},{"bufferView":13,"componentType":5126,"count":476,"type":"VEC4"},{"bufferView":14,"componentType":5126,"count":476,"type":"VEC2"},{"bufferView":15,"componentType":5126,"count":476,"max":[14.499926567077637,0.4999954402446747,1.4999070167541504],"min":[-1.5000799894332886,-0.5000050067901611,-14.500100135803224],"type":"VEC3"},{"bufferView":16,"componentType":5125,"count":15,"type":"SCALAR"},{"bufferView":17,"componentType":5126,"count":476,"type":"VEC3"},{"bufferView":18,"componentType":5126,"count":476,"type":"VEC4"},{"bufferView":19,"componentType":5126,"count":476,"type":"VEC2"},{"bufferView":20,"componentType":5126,"count":84,"max":[13.49944019317627,0.4999954402446747,-4.502999305725098],"min":[4.502856254577637,-0.5000050067901611,-13.49958324432373],"type":"VEC3"},{"bufferView":21,"componentType":5125,"count":190,"type":"SCALAR"},{"bufferView":22,"componentType":5126,"count":84,"type":"VEC3"},{"bufferView":23,"componentType":5126,"count":84,"type":"VEC4"},{"bufferView":24,"componentType":5126,"count":84,"type":"VEC2"},{"bufferView":25,"componentType":5126,"count":56,"max":[13.49944019317627,0.4999954402446747,-4.502999305725098],"min":[4.502856254577637,-0.5000050067901611,-13.49958324432373],"type":"VEC3"},{"bufferView":26,"componentType":5125,"count":104,"type":"SCALAR"},{"bufferView":27,"componentType":5126,"count":56,"type":"VEC3"},{"bufferView":28,"componentType":5126,"count":56,"type":"VEC4"},{"bufferView":29,"componentType":5126,"count":56,"type":"VEC2"},{"bufferView":30,"componentType":5126,"count":30,"max":[3.502364158630371,0.4999954402446747,-0.5010520815849304],"min":[1.501386284828186,-0.5000050067901611,-2.5020298957824707],"type":"VEC3"},{"bufferView":31,"componentType":5125,"count":46,"type":"SCALAR"},{"bufferView":32,"componentType":5126,"count":30,"type":"VEC3"},{"bufferView":33,"componentType":5126,"count":30,"type":"VEC4"},{"bufferView":34,"componentType":5126,"count":30,"type":"VEC2"},{"bufferView":35,"componentType":5126,"count":30,"max":[2.5018773078918457,0.4999954402446747,-1.501542091369629],"min":[0.5008993148803711,-0.5000050067901611,-3.5025200843811035],"type":"VEC3"},{"bufferView":36,"componentType":5125,"count":46,"type":"SCALAR"},{"bufferView":37,"componentType":5126,"count":30,"type":"VEC3"},{"bufferView":38,"componentType":5126,"count":30,"type":"VEC4"},{"bufferView":39,"componentType":5126,"count":30,"type":"VEC2"},{"bufferView":40,"componentType":5126,"count":8,"max":[2.501875162124634,0.4999954402446747,-1.501541018486023],"min":[1.501386284828186,-0.5000050067901611,-2.5020298957824707],"type":"VEC3"},{"bufferView":41,"componentType":5125,"count":10,"type":"SCALAR"},{"bufferView":42,"componentType":5126,"count":8,"type":"VEC3"},{"bufferView":43,"componentType":5126,"count":8,"type":"VEC4"},{"bufferView":44,"componentType":5126,"count":8,"type":"VEC2"},{"bufferView":45,"componentType":5126,"count":16,"max":[3.502366304397583,0.4999954402446747,-0.5010530948638916],"min":[0.5008993148803711,-0.5000050067901611,-3.5025200843811035],"type":"VEC3"},{"bufferView":46,"componentType":5125,"count":22,"type":"SCALAR"},{"bufferView":47,"componentType":5126,"count":16,"type":"VEC3"},{"bufferView":48,"componentType":5126,"count":16,"type":"VEC4"},{"bufferView":49,"componentType":5126,"count":16,"type":"VEC2"}],"asset":{"version":"2.0"},"bufferViews":[{"buffer":0,"byteLength":384,"target":34962},{"buffer":1,"byteLength":232,"target":34963},{"buffer":2,"byteLength":384,"target":34962},{"buffer":3,"byteLength":512,"target":34962},{"buffer":4,"byteLength":256,"target":34962},{"buffer":5,"byteLength":264,"target":34962},{"buffer":6,"byteLength":136,"target":34963},{"buffer":7,"byteLength":264,"target":34962},{"buffer":8,"byteLength":352,"target":34962},{"buffer":9,"byteLength":176,"target":34962},{"buffer":10,"byteLength":5712,"target":34962},{"buffer":11,"byteLength":3304,"target":34963},{"buffer":12,"byteLength":5712,"target":34962},{"buffer":13,"byteLength":7616,"target":34962},{"buffer":14,"byteLength":3808,"target":34962},{"buffer":10,"byteLength":5712,"target":34962},{"buffer":15,"byteLength":60,"target":34963},{"buffer":12,"byteLength":5712,"target":34962},{"buffer":13,"byteLength":7616,"target":34962},{"buffer":14,"byteLength":3808,"target":34962},{"buffer":16,"byteLength":1008,"target":34962},{"buffer":17,"byteLength":760,"target":34963},{"buffer":18,"byteLength":1008,"target":34962},{"buffer":19,"byteLength":1344,"target":34962},{"buffer":20,"byteLength":672,"target":34962},{"buffer":21,"byteLength":672,"target":34962},{"buffer":22,"byteLength":416,"target":34963},{"buffer":23,"byteLength":672,"target":34962},{"buffer":24,"byteLength":896,"target":34962},{"buffer":25,"byteLength":448,"target":34962},{"buffer":26,"byteLength":360,"target":34962},{"buffer":27,"byteLength":184,"target":34963},{"buffer":28,"byteLength":360,"target":34962},{"buffer":29,"byteLength":480,"target":34962},{"buffer":30,"byteLength":240,"target":34962},{"buffer":31,"byteLength":360,"target":34962},{"buffer":32,"byteLength":184,"target":34963},{"buffer":33,"byteLength":360,"target":34962},{"buffer":34,"byteLength":480,"target":34962},{"buffer":35,"byteLength":240,"target":34962},{"buffer":36,"byteLength":96,"target":34962},{"buffer":37,"byteLength":40,"target":34963},{"buffer":38,"byteLength":96,"target":34962},{"buffer":39,"byteLength":128,"target":34962},{"buffer":40,"byteLength":64,"target":34962},{"buffer":41,"byteLength":192,"target":34962},{"buffer":42,"byteLength":88,"target":34963},{"buffer":43,"byteLength":192,"target":34962},{"buffer":44,"byteLength":256,"target":34962},{"buffer":45,"byteLength":128,"target":34962}],"buffers":[{"byteLength":384,"uri":"data:application/octet-stream;base64,"},{"byteLength":232,"uri":"data:application/octet-stream;base64,"},{"byteLength":384,"uri":"data:application/octet-stream;base64,"},{"byteLength":512,"uri":"data:application/octet-stream;base64,"},{"byteLength":256,"uri":"data:application/octet-stream;base64,"},{"byteLength":264,"uri":"data:application/octet-stream;base64,"},{"byteLength":136,"uri":"data:application/octet-stream;base64,"},{"byteLength":264,"uri":"data:application/octet-stream;base64,"},{"byteLength":352,"uri":"data:application/octet-stream;base64,"},{"byteLength":176,"uri":"data:application/octet-stream;base64,"},{"byteLength":5712,"uri":"data:application/octet-stream;base64,"},{"byteLength":3304,"uri":"data:application/octet-stream;base64,"},{"byteLength":5712,"uri":"data:application/octet-stream;base64,"},{"byteLength":7616,"uri":"data:application/octet-stream;base64,"},{"byteLength":3808,"uri":"data:application/octet-stream;base64,"},{"byteLength":60,"uri":"data:application/octet-stream;base64,"},{"byteLength":1008,"uri":"data:application/octet-stream;base64,"},{"byteLength":760,"uri":"data:application/octet-stream;base64,"},{"byteLength":1008,"uri":"data:application/octet-stream;base64,"},{"byteLength":1344,"uri":"data:application/octet-stream;base64,"},{"byteLength":672,"uri":"data:application/octet-stream;base64,"},{"byteLength":672,"uri":"data:application/octet-stream;base64,"},{"byteLength":416,"uri":"data:application/octet-stream;base64,"},{"byteLength":672,"uri":"data:application/octet-stream;base64,"},{"byteLength":896,"uri":"data:application/octet-stream;base64,"},{"byteLength":448,"uri":"data:application/octet-stream;base64,"},{"byteLength":360,"uri":"data:application/octet-stream;base64,"},{"byteLength":184,"uri":"data:application/octet-stream;base64,"},{"byteLength":360,"uri":"data:application/octet-stream;base64,"},{"byteLength":480,"uri":"data:application/octet-stream;base64,"},{"byteLength":240,"uri":"data:application/octet-stream;base64,"},{"byteLength":360,"uri":"data:application/octet-stream;base64,"},{"byteLength":184,"uri":"data:application/octet-stream;base64,"},{"byteLength":360,"uri":"data:application/octet-stream;base64,"},{"byteLength":480,"uri":"data:application/octet-stream;base64,"},{"byteLength":240,"uri":"data:application/octet-stream;base64,"},{"byteLength":96,"uri":"data:application/octet-stream;base64,"},{"byteLength":40,"uri":"data:application/octet-stream;base64,"},{"byteLength":96,"uri":"data:application/octet-stream;base64,"},{"byteLength":128,"uri":"data:application/octet-stream;base64,"},{"byteLength":64,"uri":"data:application/octet-stream;base64,"},{"byteLength":192,"uri":"data:application/octet-stream;base64,"},{"byteLength":88,"uri":"data:application/octet-stream;base64,"},{"byteLength":192,"uri":"data:application/octet-stream;base64,"},{"byteLength":256,"uri":"data:application/octet-stream;base64,"},{"byteLength":128,"uri":"data:application/octet-stream;base64,"}],"images":[{"uri":"textures/Minecraft_Lmb1_lambert1_BaseColor.png"},{"uri":"textures/_nflip__Minecraft_Lmb1_lambert1_Normal.png"},{"uri":"textures/_mr__Minecraft_Lmb1_lambert1_Roughness.png"}],"materials":[{"doubleSided":false,"pbrMetallicRoughness":{"baseColorFactor":[0.0117,0.247,0.1843,1.0],"metallicFactor":0.0,"roughnessFactor":0.6}},{"doubleSided":false,"normalTexture":{"index":1},"pbrMetallicRoughness":{"baseColorTexture":{"index":0},"metallicFactor":1.0,"metallicRoughnessTexture":{"index":2},"roughnessFactor":1.0}},{"doubleSided":false,"pbrMetallicRoughness":{"baseColorFactor":[0.0,0.0196,0.0117,1.0],"metallicFactor":0.0,"roughnessFactor":0.6}},{"doubleSided":false,"pbrMetallicRoughness":{"baseColorFactor":[0.0313,0.8156,0.5921,1.0],"metallicFactor":0.0,"roughnessFactor":0.6}},{"doubleSided":false,"pbrMetallicRoughness":{"baseColorFactor":[0.0235,0.5725,0.4117,1.0],"metallicFactor":0.0,"roughnessFactor":0.6}},{"doubleSided":false,"pbrMetallicRoughness":{"baseColorFactor":[0.0196,0.0117,0.0039,1.0],"metallicFactor":0.0,"roughnessFactor":0.6}},{"doubleSided":false,"pbrMetallicRoughness":{"baseColorFactor":[0.0666,0.0352,0.0078,1.0],"metallicFactor":0.0,"roughnessFactor":0.6}},{"doubleSided":false,"pbrMetallicRoughness":{"baseColorFactor":[0.2352,0.1372,0.0156,1.0],"metallicFactor":0.0,"roughnessFactor":0.6}},{"doubleSided":false,"pbrMetallicRoughness":{"baseColorFactor":[0.1372,0.0705,0.0117,1.0],"metallicFactor":0.0,"roughnessFactor":0.6}}],"meshes":[{"name":"polySurface91_lambert5_0","primitives":[{"attributes":{"NORMAL":2,"POSITION":0,"TANGENT":3,"TEXCOORD_0":4},"indices":1,"material":0,"mode":5}]},{"name":"polySurface91_lambert7_0","primitives":[{"attributes":{"NORMAL":7,"POSITION":5,"TANGENT":8,"TEXCOORD_0":9},"indices":6,"material":1,"mode":5}]},{"name":"polySurface91_lambert2_0","primitives":[{"attributes":{"NORMAL":12,"POSITION":10,"TANGENT":13,"TEXCOORD_0":14},"indices":11,"material":2,"mode":5},{"attributes":{"NORMAL":17,"POSITION":15,"TANGENT":18,"TEXCOORD_0":19},"indices":16,"material":2,"mode":4}]},{"name":"polySurface91_lambert3_0","primitives":[{"attributes":{"NORMAL":22,"POSITION":20,"TANGENT":23,"TEXCOORD_0":24},"indices":21,"material":3,"mode":5}]},{"name":"polySurface91_lambert4_0","primitives":[{"attributes":{"NORMAL":27,"POSITION":25,"TANGENT":28,"TEXCOORD_0":29},"indices":26,"material":4,"mode":5}]},{"name":"polySurface91_lambert10_0","primitives":[{"attributes":{"NORMAL":32,"POSITION":30,"TANGENT":33,"TEXCOORD_0":34},"indices":31,"material":5,"mode":5}]},{"name":"polySurface91_lambert9_0","primitives":[{"attributes":{"NORMAL":37,"POSITION":35,"TANGENT":38,"TEXCOORD_0":39},"indices":36,"material":6,"mode":5}]},{"name":"polySurface91_lambert8_0","primitives":[{"attributes":{"NORMAL":42,"POSITION":40,"TANGENT":43,"TEXCOORD_0":44},"indices":41,"material":7,"mode":5}]},{"name":"polySurface91_lambert6_0","primitives":[{"attributes":{"NORMAL":47,"POSITION":45,"TANGENT":48,"TEXCOORD_0":49},"indices":46,"material":8,"mode":5}]}],"nodes":[{"mesh":0,"name":"polySurface91_lambert5_0"},{"mesh":1,"name":"polySurface91_lambert7_0"},{"mesh":2,"name":"polySurface91_lambert2_0"},{"mesh":3,"name":"polySurface91_lambert3_0"},{"mesh":4,"name":"polySurface91_lambert4_0"},{"mesh":5,"name":"polySurface91_lambert10_0"},{"mesh":6,"name":"polySurface91_lambert9_0"},{"mesh":7,"name":"polySurface91_lambert8_0"},{"mesh":8,"name":"polySurface91_lambert6_0"},{"children":[0,1,2,3,4,5,6,7,8],"name":"polySurface91","rotation":[0.0,0.0,0.0,1.0],"scale":[5.0,5.0,5.0],"translation":[-32.5,0.0,32.5]},{"children":[9],"name":"RootNode"},{"children":[10],"name":"Minecraft Diamond Sword - Free","rotation":[1.1102230246251563e-16,0.0,0.0,1.0],"scale":[1.0,1.0,1.0],"translation":[0.0,0.0,0.0]}],"samplers":[{"magFilter":9729,"minFilter":9729,"wrapS":10497,"wrapT":10497}],"scene":0,"scenes":[{"nodes":[11]}],"textures":[{"sampler":0,"source":0},{"sampler":0,"source":1},{"sampler":0,"source":2}]}