# Blender 4.2.15 LTS
# www.blender.org
mtllib crossbow-minecraft.mtl
o 66ee5ca1-325f-3559-1e65-fbe07178e68f
v 0.031250 0.062500 -0.218750
v 0.031250 0.031250 -0.218750
v 0.031250 0.062500 -0.765625
v 0.031250 0.031250 -0.218750
v 0.031250 0.031250 -0.765625
v 0.031250 0.062500 -0.765625
v -0.031250 0.062500 -0.765625
v -0.031250 0.031250 -0.765625
v -0.031250 0.062500 -0.218750
v -0.031250 0.031250 -0.765625
v -0.031250 0.031250 -0.218750
v -0.031250 0.062500 -0.218750
v -0.031250 0.062500 -0.765625
v -0.031250 0.062500 -0.218750
v 0.031250 0.062500 -0.765625
v -0.031250 0.062500 -0.218750
v 0.031250 0.062500 -0.218750
v 0.031250 0.062500 -0.765625
v -0.031250 0.031250 -0.218750
v -0.031250 0.031250 -0.765625
v 0.031250 0.031250 -0.218750
v -0.031250 0.031250 -0.765625
v 0.031250 0.031250 -0.765625
v 0.031250 0.031250 -0.218750
v -0.031250 0.062500 -0.218750
v -0.031250 0.031250 -0.218750
v 0.031250 0.062500 -0.218750
v -0.031250 0.031250 -0.218750
v 0.031250 0.031250 -0.218750
v 0.031250 0.062500 -0.218750
v 0.031250 0.062500 -0.765625
v 0.031250 0.031250 -0.765625
v -0.031250 0.062500 -0.765625
v 0.031250 0.031250 -0.765625
v -0.031250 0.031250 -0.765625
v -0.031250 0.062500 -0.765625
v 0.442187 0.020764 -0.673216
v 0.442187 0.011389 -0.673216
v 0.442187 0.020764 -0.682591
v 0.442187 0.011389 -0.673216
v 0.442187 0.011389 -0.682591
v 0.442187 0.020764 -0.682591
v -0.445312 0.020764 -0.682591
v -0.445312 0.011389 -0.682591
v -0.445312 0.020764 -0.673216
v -0.445312 0.011389 -0.682591
v -0.445312 0.011389 -0.673216
v -0.445312 0.020764 -0.673216
v -0.445312 0.020764 -0.682591
v -0.445312 0.020764 -0.673216
v 0.442187 0.020764 -0.682591
v -0.445312 0.020764 -0.673216
v 0.442187 0.020764 -0.673216
v 0.442187 0.020764 -0.682591
v -0.445312 0.011389 -0.673216
v -0.445312 0.011389 -0.682591
v 0.442187 0.011389 -0.673216
v -0.445312 0.011389 -0.682591
v 0.442187 0.011389 -0.682591
v 0.442187 0.011389 -0.673216
v -0.445312 0.020764 -0.673216
v -0.445312 0.011389 -0.673216
v 0.442187 0.020764 -0.673216
v -0.445312 0.011389 -0.673216
v 0.442187 0.011389 -0.673216
v 0.442187 0.020764 -0.673216
v 0.442187 0.020764 -0.682591
v 0.442187 0.011389 -0.682591
v -0.445312 0.020764 -0.682591
v 0.442187 0.011389 -0.682591
v -0.445312 0.011389 -0.682591
v -0.445312 0.020764 -0.682591
v 0.007786 0.208392 -0.774778
v 0.007786 0.192767 -0.774778
v 0.007786 0.208392 -0.790403
v 0.007786 0.192767 -0.774778
v 0.007786 0.192767 -0.790403
v 0.007786 0.208392 -0.790403
v -0.007839 0.208392 -0.790403
v -0.007839 0.192767 -0.790403
v -0.007839 0.208392 -0.774778
v -0.007839 0.192767 -0.790403
v -0.007839 0.192767 -0.774778
v -0.007839 0.208392 -0.774778
v -0.007839 0.208392 -0.790403
v -0.007839 0.208392 -0.774778
v 0.007786 0.208392 -0.790403
v -0.007839 0.208392 -0.774778
v 0.007786 0.208392 -0.774778
v 0.007786 0.208392 -0.790403
v -0.007839 0.192767 -0.774778
v -0.007839 0.192767 -0.790403
v 0.007786 0.192767 -0.774778
v -0.007839 0.192767 -0.790403
v 0.007786 0.192767 -0.790403
v 0.007786 0.192767 -0.774778
v -0.007839 0.208392 -0.774778
v -0.007839 0.192767 -0.774778
v 0.007786 0.208392 -0.774778
v -0.007839 0.192767 -0.774778
v 0.007786 0.192767 -0.774778
v 0.007786 0.208392 -0.774778
v 0.007786 0.208392 -0.790403
v 0.007786 0.192767 -0.790403
v -0.007839 0.208392 -0.790403
v 0.007786 0.192767 -0.790403
v -0.007839 0.192767 -0.790403
v -0.007839 0.208392 -0.790403
v 0.065529 0.184474 -0.774778
v 0.059549 0.170039 -0.774778
v 0.065529 0.184474 -0.790403
v 0.059549 0.170039 -0.774778
v 0.059549 0.170039 -0.790403
v 0.065529 0.184474 -0.790403
v 0.007786 0.208392 -0.790403
v 0.001807 0.193957 -0.790403
v 0.007786 0.208392 -0.774778
v 0.001807 0.193957 -0.790403
v 0.001807 0.193957 -0.774778
v 0.007786 0.208392 -0.774778
v 0.007786 0.208392 -0.790403
v 0.007786 0.208392 -0.774778
v 0.065529 0.184474 -0.790403
v 0.007786 0.208392 -0.774778
v 0.065529 0.184474 -0.774778
v 0.065529 0.184474 -0.790403
v 0.001807 0.193957 -0.774778
v 0.001807 0.193957 -0.790403
v 0.059549 0.170039 -0.774778
v 0.001807 0.193957 -0.790403
v 0.059549 0.170039 -0.790403
v 0.059549 0.170039 -0.774778
v 0.007786 0.208392 -0.774778
v 0.001807 0.193957 -0.774778
v 0.065529 0.184474 -0.774778
v 0.001807 0.193957 -0.774778
v 0.059549 0.170039 -0.774778
v 0.065529 0.184474 -0.774778
v 0.065529 0.184474 -0.790403
v 0.059549 0.170039 -0.790403
v 0.007786 0.208392 -0.790403
v 0.059549 0.170039 -0.790403
v 0.001807 0.193957 -0.790403
v 0.007786 0.208392 -0.790403
v -0.007760 0.207572 -0.774778
v -0.001781 0.193136 -0.774778
v -0.007760 0.207572 -0.790403
v -0.001781 0.193136 -0.774778
v -0.001781 0.193136 -0.790403
v -0.007760 0.207572 -0.790403
v -0.065503 0.183654 -0.790403
v -0.059523 0.169218 -0.790403
v -0.065503 0.183654 -0.774778
v -0.059523 0.169218 -0.790403
v -0.059523 0.169218 -0.774778
v -0.065503 0.183654 -0.774778
v -0.065503 0.183654 -0.790403
v -0.065503 0.183654 -0.774778
v -0.007760 0.207572 -0.790403
v -0.065503 0.183654 -0.774778
v -0.007760 0.207572 -0.774778
v -0.007760 0.207572 -0.790403
v -0.059523 0.169218 -0.774778
v -0.059523 0.169218 -0.790403
v -0.001781 0.193136 -0.774778
v -0.059523 0.169218 -0.790403
v -0.001781 0.193136 -0.790403
v -0.001781 0.193136 -0.774778
v -0.065503 0.183654 -0.774778
v -0.059523 0.169218 -0.774778
v -0.007760 0.207572 -0.774778
v -0.059523 0.169218 -0.774778
v -0.001781 0.193136 -0.774778
v -0.007760 0.207572 -0.774778
v -0.007760 0.207572 -0.790403
v -0.001781 0.193136 -0.790403
v -0.065503 0.183654 -0.790403
v -0.001781 0.193136 -0.790403
v -0.059523 0.169218 -0.790403
v -0.065503 0.183654 -0.790403
v 0.065529 0.184474 -0.774778
v 0.089446 0.126732 -0.774778
v 0.065529 0.184474 -0.790403
v 0.089446 0.126732 -0.774778
v 0.089446 0.126732 -0.790403
v 0.065529 0.184474 -0.790403
v 0.051093 0.178495 -0.790403
v 0.075011 0.120752 -0.790403
v 0.051093 0.178495 -0.774778
v 0.075011 0.120752 -0.790403
v 0.075011 0.120752 -0.774778
v 0.051093 0.178495 -0.774778
v 0.051093 0.178495 -0.790403
v 0.051093 0.178495 -0.774778
v 0.065529 0.184474 -0.790403
v 0.051093 0.178495 -0.774778
v 0.065529 0.184474 -0.774778
v 0.065529 0.184474 -0.790403
v 0.075011 0.120752 -0.774778
v 0.075011 0.120752 -0.790403
v 0.089446 0.126732 -0.774778
v 0.075011 0.120752 -0.790403
v 0.089446 0.126732 -0.790403
v 0.089446 0.126732 -0.774778
v 0.051093 0.178495 -0.774778
v 0.075011 0.120752 -0.774778
v 0.065529 0.184474 -0.774778
v 0.075011 0.120752 -0.774778
v 0.089446 0.126732 -0.774778
v 0.065529 0.184474 -0.774778
v 0.065529 0.184474 -0.790403
v 0.089446 0.126732 -0.790403
v 0.051093 0.178495 -0.790403
v 0.089446 0.126732 -0.790403
v 0.075011 0.120752 -0.790403
v 0.051093 0.178495 -0.790403
v -0.051067 0.177674 -0.774778
v -0.074985 0.119932 -0.774778
v -0.051067 0.177674 -0.790403
v -0.074985 0.119932 -0.774778
v -0.074985 0.119932 -0.790403
v -0.051067 0.177674 -0.790403
v -0.065503 0.183654 -0.790403
v -0.089420 0.125911 -0.790403
v -0.065503 0.183654 -0.774778
v -0.089420 0.125911 -0.790403
v -0.089420 0.125911 -0.774778
v -0.065503 0.183654 -0.774778
v -0.065503 0.183654 -0.790403
v -0.065503 0.183654 -0.774778
v -0.051067 0.177674 -0.790403
v -0.065503 0.183654 -0.774778
v -0.051067 0.177674 -0.774778
v -0.051067 0.177674 -0.790403
v -0.089420 0.125911 -0.774778
v -0.089420 0.125911 -0.790403
v -0.074985 0.119932 -0.774778
v -0.089420 0.125911 -0.790403
v -0.074985 0.119932 -0.790403
v -0.074985 0.119932 -0.774778
v -0.065503 0.183654 -0.774778
v -0.089420 0.125911 -0.774778
v -0.051067 0.177674 -0.774778
v -0.089420 0.125911 -0.774778
v -0.074985 0.119932 -0.774778
v -0.051067 0.177674 -0.774778
v -0.051067 0.177674 -0.790403
v -0.074985 0.119932 -0.790403
v -0.065503 0.183654 -0.790403
v -0.074985 0.119932 -0.790403
v -0.089420 0.125911 -0.790403
v -0.065503 0.183654 -0.790403
v 0.089447 0.126732 -0.774778
v 0.065529 0.068990 -0.774778
v 0.089447 0.126732 -0.790403
v 0.065529 0.068990 -0.774778
v 0.065529 0.068990 -0.790403
v 0.089447 0.126732 -0.790403
v 0.075011 0.132712 -0.790403
v 0.051093 0.074969 -0.790403
v 0.075011 0.132712 -0.774778
v 0.051093 0.074969 -0.790403
v 0.051093 0.074969 -0.774778
v 0.075011 0.132712 -0.774778
v 0.075011 0.132712 -0.790403
v 0.075011 0.132712 -0.774778
v 0.089447 0.126732 -0.790403
v 0.075011 0.132712 -0.774778
v 0.089447 0.126732 -0.774778
v 0.089447 0.126732 -0.790403
v 0.051093 0.074969 -0.774778
v 0.051093 0.074969 -0.790403
v 0.065529 0.068990 -0.774778
v 0.051093 0.074969 -0.790403
v 0.065529 0.068990 -0.790403
v 0.065529 0.068990 -0.774778
v 0.075011 0.132712 -0.774778
v 0.051093 0.074969 -0.774778
v 0.089447 0.126732 -0.774778
v 0.051093 0.074969 -0.774778
v 0.065529 0.068990 -0.774778
v 0.089447 0.126732 -0.774778
v 0.089447 0.126732 -0.790403
v 0.065529 0.068990 -0.790403
v 0.075011 0.132712 -0.790403
v 0.065529 0.068990 -0.790403
v 0.051093 0.074969 -0.790403
v 0.075011 0.132712 -0.790403
v -0.074985 0.131890 -0.774778
v -0.051067 0.074148 -0.774778
v -0.074985 0.131890 -0.790403
v -0.051067 0.074148 -0.774778
v -0.051067 0.074148 -0.790403
v -0.074985 0.131890 -0.790403
v -0.089421 0.125911 -0.790403
v -0.065503 0.068168 -0.790403
v -0.089421 0.125911 -0.774778
v -0.065503 0.068168 -0.790403
v -0.065503 0.068168 -0.774778
v -0.089421 0.125911 -0.774778
v -0.089421 0.125911 -0.790403
v -0.089421 0.125911 -0.774778
v -0.074985 0.131890 -0.790403
v -0.089421 0.125911 -0.774778
v -0.074985 0.131890 -0.774778
v -0.074985 0.131890 -0.790403
v -0.065503 0.068168 -0.774778
v -0.065503 0.068168 -0.790403
v -0.051067 0.074148 -0.774778
v -0.065503 0.068168 -0.790403
v -0.051067 0.074148 -0.790403
v -0.051067 0.074148 -0.774778
v -0.089421 0.125911 -0.774778
v -0.065503 0.068168 -0.774778
v -0.074985 0.131890 -0.774778
v -0.065503 0.068168 -0.774778
v -0.051067 0.074148 -0.774778
v -0.074985 0.131890 -0.774778
v -0.074985 0.131890 -0.790403
v -0.051067 0.074148 -0.790403
v -0.089421 0.125911 -0.790403
v -0.051067 0.074148 -0.790403
v -0.065503 0.068168 -0.790403
v -0.089421 0.125911 -0.790403
v 0.059549 0.083425 -0.774778
v 0.065529 0.068989 -0.774778
v 0.059549 0.083425 -0.790403
v 0.065529 0.068989 -0.774778
v 0.065529 0.068989 -0.790403
v 0.059549 0.083425 -0.790403
v 0.001807 0.059507 -0.790403
v 0.007786 0.045072 -0.790403
v 0.001807 0.059507 -0.774778
v 0.007786 0.045072 -0.790403
v 0.007786 0.045072 -0.774778
v 0.001807 0.059507 -0.774778
v 0.001807 0.059507 -0.790403
v 0.001807 0.059507 -0.774778
v 0.059549 0.083425 -0.790403
v 0.001807 0.059507 -0.774778
v 0.059549 0.083425 -0.774778
v 0.059549 0.083425 -0.790403
v 0.007786 0.045072 -0.774778
v 0.007786 0.045072 -0.790403
v 0.065529 0.068989 -0.774778
v 0.007786 0.045072 -0.790403
v 0.065529 0.068989 -0.790403
v 0.065529 0.068989 -0.774778
v 0.001807 0.059507 -0.774778
v 0.007786 0.045072 -0.774778
v 0.059549 0.083425 -0.774778
v 0.007786 0.045072 -0.774778
v 0.065529 0.068989 -0.774778
v 0.059549 0.083425 -0.774778
v 0.059549 0.083425 -0.790403
v 0.065529 0.068989 -0.790403
v 0.001807 0.059507 -0.790403
v 0.065529 0.068989 -0.790403
v 0.007786 0.045072 -0.790403
v 0.001807 0.059507 -0.790403
v -0.001781 0.058686 -0.774778
v -0.007760 0.044251 -0.774778
v -0.001781 0.058686 -0.790403
v -0.007760 0.044251 -0.774778
v -0.007760 0.044251 -0.790403
v -0.001781 0.058686 -0.790403
v -0.059523 0.082604 -0.790403
v -0.065503 0.068169 -0.790403
v -0.059523 0.082604 -0.774778
v -0.065503 0.068169 -0.790403
v -0.065503 0.068169 -0.774778
v -0.059523 0.082604 -0.774778
v -0.059523 0.082604 -0.790403
v -0.059523 0.082604 -0.774778
v -0.001781 0.058686 -0.790403
v -0.059523 0.082604 -0.774778
v -0.001781 0.058686 -0.774778
v -0.001781 0.058686 -0.790403
v -0.065503 0.068169 -0.774778
v -0.065503 0.068169 -0.790403
v -0.007760 0.044251 -0.774778
v -0.065503 0.068169 -0.790403
v -0.007760 0.044251 -0.790403
v -0.007760 0.044251 -0.774778
v -0.059523 0.082604 -0.774778
v -0.065503 0.068169 -0.774778
v -0.001781 0.058686 -0.774778
v -0.065503 0.068169 -0.774778
v -0.007760 0.044251 -0.774778
v -0.001781 0.058686 -0.774778
v -0.001781 0.058686 -0.790403
v -0.007760 0.044251 -0.790403
v -0.059523 0.082604 -0.790403
v -0.007760 0.044251 -0.790403
v -0.065503 0.068169 -0.790403
v -0.059523 0.082604 -0.790403
v 0.046875 -0.032361 -0.415403
v 0.046875 -0.063611 -0.415403
v 0.046875 -0.032361 -0.665403
v 0.046875 -0.063611 -0.415403
v 0.046875 -0.063611 -0.665403
v 0.046875 -0.032361 -0.665403
v 0.031250 -0.032361 -0.665403
v 0.031250 -0.063611 -0.665403
v 0.031250 -0.032361 -0.415403
v 0.031250 -0.063611 -0.665403
v 0.031250 -0.063611 -0.415403
v 0.031250 -0.032361 -0.415403
v 0.031250 -0.032361 -0.665403
v 0.031250 -0.032361 -0.415403
v 0.046875 -0.032361 -0.665403
v 0.031250 -0.032361 -0.415403
v 0.046875 -0.032361 -0.415403
v 0.046875 -0.032361 -0.665403
v 0.031250 -0.063611 -0.415403
v 0.031250 -0.063611 -0.665403
v 0.046875 -0.063611 -0.415403
v 0.031250 -0.063611 -0.665403
v 0.046875 -0.063611 -0.665403
v 0.046875 -0.063611 -0.415403
v 0.031250 -0.032361 -0.415403
v 0.031250 -0.063611 -0.415403
v 0.046875 -0.032361 -0.415403
v 0.031250 -0.063611 -0.415403
v 0.046875 -0.063611 -0.415403
v 0.046875 -0.032361 -0.415403
v 0.046875 -0.032361 -0.665403
v 0.046875 -0.063611 -0.665403
v 0.031250 -0.032361 -0.665403
v 0.046875 -0.063611 -0.665403
v 0.031250 -0.063611 -0.665403
v 0.031250 -0.032361 -0.665403
v -0.031250 -0.032361 -0.415403
v -0.031250 -0.063611 -0.415403
v -0.031250 -0.032361 -0.665403
v -0.031250 -0.063611 -0.415403
v -0.031250 -0.063611 -0.665403
v -0.031250 -0.032361 -0.665403
v -0.046875 -0.032361 -0.665403
v -0.046875 -0.063611 -0.665403
v -0.046875 -0.032361 -0.415403
v -0.046875 -0.063611 -0.665403
v -0.046875 -0.063611 -0.415403
v -0.046875 -0.032361 -0.415403
v -0.046875 -0.032361 -0.665403
v -0.046875 -0.032361 -0.415403
v -0.031250 -0.032361 -0.665403
v -0.046875 -0.032361 -0.415403
v -0.031250 -0.032361 -0.415403
v -0.031250 -0.032361 -0.665403
v -0.046875 -0.063611 -0.415403
v -0.046875 -0.063611 -0.665403
v -0.031250 -0.063611 -0.415403
v -0.046875 -0.063611 -0.665403
v -0.031250 -0.063611 -0.665403
v -0.031250 -0.063611 -0.415403
v -0.046875 -0.032361 -0.415403
v -0.046875 -0.063611 -0.415403
v -0.031250 -0.032361 -0.415403
v -0.046875 -0.063611 -0.415403
v -0.031250 -0.063611 -0.415403
v -0.031250 -0.032361 -0.415403
v -0.031250 -0.032361 -0.665403
v -0.031250 -0.063611 -0.665403
v -0.046875 -0.032361 -0.665403
v -0.031250 -0.063611 -0.665403
v -0.046875 -0.063611 -0.665403
v -0.046875 -0.032361 -0.665403
v 0.046875 -0.063611 -0.415403
v 0.046875 -0.079236 -0.415403
v 0.046875 -0.063611 -0.665403
v 0.046875 -0.079236 -0.415403
v 0.046875 -0.079236 -0.665403
v 0.046875 -0.063611 -0.665403
v -0.046875 -0.063611 -0.665403
v -0.046875 -0.079236 -0.665403
v -0.046875 -0.063611 -0.415403
v -0.046875 -0.079236 -0.665403
v -0.046875 -0.079236 -0.415403
v -0.046875 -0.063611 -0.415403
v -0.046875 -0.063611 -0.665403
v -0.046875 -0.063611 -0.415403
v 0.046875 -0.063611 -0.665403
v -0.046875 -0.063611 -0.415403
v 0.046875 -0.063611 -0.415403
v 0.046875 -0.063611 -0.665403
v -0.046875 -0.079236 -0.415403
v -0.046875 -0.079236 -0.665403
v 0.046875 -0.079236 -0.415403
v -0.046875 -0.079236 -0.665403
v 0.046875 -0.079236 -0.665403
v 0.046875 -0.079236 -0.415403
v -0.046875 -0.063611 -0.415403
v -0.046875 -0.079236 -0.415403
v 0.046875 -0.063611 -0.415403
v -0.046875 -0.079236 -0.415403
v 0.046875 -0.079236 -0.415403
v 0.046875 -0.063611 -0.415403
v 0.046875 -0.063611 -0.665403
v 0.046875 -0.079236 -0.665403
v -0.046875 -0.063611 -0.665403
v 0.046875 -0.079236 -0.665403
v -0.046875 -0.079236 -0.665403
v -0.046875 -0.063611 -0.665403
v 0.447220 0.045764 -0.666088
v 0.447220 -0.016736 -0.666088
v 0.469317 0.045764 -0.688185
v 0.447220 -0.016736 -0.666088
v 0.469317 -0.016736 -0.688185
v 0.469317 0.045764 -0.688185
v 0.391977 0.045764 -0.765525
v 0.391977 -0.016736 -0.765525
v 0.369880 0.045764 -0.743428
v 0.391977 -0.016736 -0.765525
v 0.369880 -0.016736 -0.743428
v 0.369880 0.045764 -0.743428
v 0.391977 0.045764 -0.765525
v 0.369880 0.045764 -0.743428
v 0.469317 0.045764 -0.688185
v 0.369880 0.045764 -0.743428
v 0.447220 0.045764 -0.666088
v 0.469317 0.045764 -0.688185
v 0.369880 -0.016736 -0.743428
v 0.391977 -0.016736 -0.765525
v 0.447220 -0.016736 -0.666088
v 0.391977 -0.016736 -0.765525
v 0.469317 -0.016736 -0.688185
v 0.447220 -0.016736 -0.666088
v 0.369880 0.045764 -0.743428
v 0.369880 -0.016736 -0.743428
v 0.447220 0.045764 -0.666088
v 0.369880 -0.016736 -0.743428
v 0.447220 -0.016736 -0.666088
v 0.447220 0.045764 -0.666088
v 0.469317 0.045764 -0.688185
v 0.469317 -0.016736 -0.688185
v 0.391977 0.045764 -0.765525
v 0.469317 -0.016736 -0.688185
v 0.391977 -0.016736 -0.765525
v 0.391977 0.045764 -0.765525
v 0.380018 0.045764 -0.736654
v 0.380018 -0.016736 -0.736654
v 0.391977 0.045764 -0.765525
v 0.380018 -0.016736 -0.736654
v 0.391977 -0.016736 -0.765525
v 0.391977 0.045764 -0.765525
v 0.218750 0.045764 -0.837278
v 0.218750 -0.016736 -0.837278
v 0.206791 0.045764 -0.808407
v 0.218750 -0.016736 -0.837278
v 0.206791 -0.016736 -0.808407
v 0.206791 0.045764 -0.808407
v 0.218750 0.045764 -0.837278
v 0.206791 0.045764 -0.808407
v 0.391977 0.045764 -0.765525
v 0.206791 0.045764 -0.808407
v 0.380018 0.045764 -0.736654
v 0.391977 0.045764 -0.765525
v 0.206791 -0.016736 -0.808407
v 0.218750 -0.016736 -0.837278
v 0.380018 -0.016736 -0.736654
v 0.218750 -0.016736 -0.837278
v 0.391977 -0.016736 -0.765525
v 0.380018 -0.016736 -0.736654
v 0.206791 0.045764 -0.808407
v 0.206791 -0.016736 -0.808407
v 0.380018 0.045764 -0.736654
v 0.206791 -0.016736 -0.808407
v 0.380018 -0.016736 -0.736654
v 0.380018 0.045764 -0.736654
v 0.391977 0.045764 -0.765525
v 0.391977 -0.016736 -0.765525
v 0.218750 0.045764 -0.837278
v 0.391977 -0.016736 -0.765525
v 0.218750 -0.016736 -0.837278
v 0.218750 0.045764 -0.837278
v -0.369881 0.045764 -0.743428
v -0.369881 -0.016736 -0.743428
v -0.391978 0.045764 -0.765525
v -0.369881 -0.016736 -0.743428
v -0.391978 -0.016736 -0.765525
v -0.391978 0.045764 -0.765525
v -0.469317 0.045764 -0.688185
v -0.469317 -0.016736 -0.688185
v -0.447220 0.045764 -0.666088
v -0.469317 -0.016736 -0.688185
v -0.447220 -0.016736 -0.666088
v -0.447220 0.045764 -0.666088
v -0.469317 0.045764 -0.688185
v -0.447220 0.045764 -0.666088
v -0.391978 0.045764 -0.765525
v -0.447220 0.045764 -0.666088
v -0.369881 0.045764 -0.743428
v -0.391978 0.045764 -0.765525
v -0.447220 -0.016736 -0.666088
v -0.469317 -0.016736 -0.688185
v -0.369881 -0.016736 -0.743428
v -0.469317 -0.016736 -0.688185
v -0.391978 -0.016736 -0.765525
v -0.369881 -0.016736 -0.743428
v -0.447220 0.045764 -0.666088
v -0.447220 -0.016736 -0.666088
v -0.369881 0.045764 -0.743428
v -0.447220 -0.016736 -0.666088
v -0.369881 -0.016736 -0.743428
v -0.369881 0.045764 -0.743428
v -0.391978 0.045764 -0.765525
v -0.391978 -0.016736 -0.765525
v -0.469317 0.045764 -0.688185
v -0.391978 -0.016736 -0.765525
v -0.469317 -0.016736 -0.688185
v -0.469317 0.045764 -0.688185
v -0.206791 0.045764 -0.808407
v -0.206791 -0.016736 -0.808407
v -0.218750 0.045764 -0.837278
v -0.206791 -0.016736 -0.808407
v -0.218750 -0.016736 -0.837278
v -0.218750 0.045764 -0.837278
v -0.391977 0.045764 -0.765525
v -0.391977 -0.016736 -0.765525
v -0.380018 0.045764 -0.736654
v -0.391977 -0.016736 -0.765525
v -0.380018 -0.016736 -0.736654
v -0.380018 0.045764 -0.736654
v -0.391977 0.045764 -0.765525
v -0.380018 0.045764 -0.736654
v -0.218750 0.045764 -0.837278
v -0.380018 0.045764 -0.736654
v -0.206791 0.045764 -0.808407
v -0.218750 0.045764 -0.837278
v -0.380018 -0.016736 -0.736654
v -0.391977 -0.016736 -0.765525
v -0.206791 -0.016736 -0.808407
v -0.391977 -0.016736 -0.765525
v -0.218750 -0.016736 -0.837278
v -0.206791 -0.016736 -0.808407
v -0.380018 0.045764 -0.736654
v -0.380018 -0.016736 -0.736654
v -0.206791 0.045764 -0.808407
v -0.380018 -0.016736 -0.736654
v -0.206791 -0.016736 -0.808407
v -0.206791 0.045764 -0.808407
v -0.218750 0.045764 -0.837278
v -0.218750 -0.016736 -0.837278
v -0.391977 0.045764 -0.765525
v -0.218750 -0.016736 -0.837278
v -0.391977 -0.016736 -0.765525
v -0.391977 0.045764 -0.765525
v 0.218750 0.045764 -0.806028
v 0.218750 -0.016736 -0.806028
v 0.218750 0.045764 -0.837278
v 0.218750 -0.016736 -0.806028
v 0.218750 -0.016736 -0.837278
v 0.218750 0.045764 -0.837278
v -0.218750 0.045764 -0.837278
v -0.218750 -0.016736 -0.837278
v -0.218750 0.045764 -0.806028
v -0.218750 -0.016736 -0.837278
v -0.218750 -0.016736 -0.806028
v -0.218750 0.045764 -0.806028
v -0.218750 0.045764 -0.837278
v -0.218750 0.045764 -0.806028
v 0.218750 0.045764 -0.837278
v -0.218750 0.045764 -0.806028
v 0.218750 0.045764 -0.806028
v 0.218750 0.045764 -0.837278
v -0.218750 -0.016736 -0.806028
v -0.218750 -0.016736 -0.837278
v 0.218750 -0.016736 -0.806028
v -0.218750 -0.016736 -0.837278
v 0.218750 -0.016736 -0.837278
v 0.218750 -0.016736 -0.806028
v -0.218750 0.045764 -0.806028
v -0.218750 -0.016736 -0.806028
v 0.218750 0.045764 -0.806028
v -0.218750 -0.016736 -0.806028
v 0.218750 -0.016736 -0.806028
v 0.218750 0.045764 -0.806028
v 0.218750 0.045764 -0.837278
v 0.218750 -0.016736 -0.837278
v -0.218750 0.045764 -0.837278
v 0.218750 -0.016736 -0.837278
v -0.218750 -0.016736 -0.837278
v -0.218750 0.045764 -0.837278
v 0.031250 0.000000 -0.218750
v 0.031250 -0.062500 -0.218750
v 0.031250 0.000000 -0.765625
v 0.031250 -0.062500 -0.218750
v 0.031250 -0.062500 -0.765625
v 0.031250 0.000000 -0.765625
v -0.031250 0.000000 -0.765625
v -0.031250 -0.062500 -0.765625
v -0.031250 0.000000 -0.218750
v -0.031250 -0.062500 -0.765625
v -0.031250 -0.062500 -0.218750
v -0.031250 0.000000 -0.218750
v -0.031250 0.000000 -0.765625
v -0.031250 0.000000 -0.218750
v 0.031250 0.000000 -0.765625
v -0.031250 0.000000 -0.218750
v 0.031250 0.000000 -0.218750
v 0.031250 0.000000 -0.765625
v -0.031250 -0.062500 -0.218750
v -0.031250 -0.062500 -0.765625
v 0.031250 -0.062500 -0.218750
v -0.031250 -0.062500 -0.765625
v 0.031250 -0.062500 -0.765625
v 0.031250 -0.062500 -0.218750
v -0.031250 0.000000 -0.218750
v -0.031250 -0.062500 -0.218750
v 0.031250 0.000000 -0.218750
v -0.031250 -0.062500 -0.218750
v 0.031250 -0.062500 -0.218750
v 0.031250 0.000000 -0.218750
v 0.031250 0.000000 -0.765625
v 0.031250 -0.062500 -0.765625
v -0.031250 0.000000 -0.765625
v 0.031250 -0.062500 -0.765625
v -0.031250 -0.062500 -0.765625
v -0.031250 0.000000 -0.765625
v 0.006250 -0.045271 0.042838
v 0.006250 -0.056320 0.053886
v 0.006250 -0.078417 0.009692
v 0.006250 -0.056320 0.053886
v 0.006250 -0.089465 0.020741
v 0.006250 -0.078417 0.009692
v -0.006250 -0.078417 0.009692
v -0.006250 -0.089465 0.020741
v -0.006250 -0.045271 0.042838
v -0.006250 -0.089465 0.020741
v -0.006250 -0.056320 0.053886
v -0.006250 -0.045271 0.042838
v -0.006250 -0.078417 0.009692
v -0.006250 -0.045271 0.042838
v 0.006250 -0.078417 0.009692
v -0.006250 -0.045271 0.042838
v 0.006250 -0.045271 0.042838
v 0.006250 -0.078417 0.009692
v -0.006250 -0.056320 0.053886
v -0.006250 -0.089465 0.020741
v 0.006250 -0.056320 0.053886
v -0.006250 -0.089465 0.020741
v 0.006250 -0.089465 0.020741
v 0.006250 -0.056320 0.053886
v -0.006250 -0.045271 0.042838
v -0.006250 -0.056320 0.053886
v 0.006250 -0.045271 0.042838
v -0.006250 -0.056320 0.053886
v 0.006250 -0.056320 0.053886
v 0.006250 -0.045271 0.042838
v 0.006250 -0.078417 0.009692
v 0.006250 -0.089465 0.020741
v -0.006250 -0.078417 0.009692
v 0.006250 -0.089465 0.020741
v -0.006250 -0.089465 0.020741
v -0.006250 -0.078417 0.009692
v 0.006250 -0.075030 0.014761
v 0.006250 -0.089465 0.020741
v 0.006250 -0.104927 -0.057417
v 0.006250 -0.089465 0.020741
v 0.006250 -0.119363 -0.051437
v 0.006250 -0.104927 -0.057417
v -0.006250 -0.104927 -0.057417
v -0.006250 -0.119363 -0.051437
v -0.006250 -0.075030 0.014761
v -0.006250 -0.119363 -0.051437
v -0.006250 -0.089465 0.020741
v -0.006250 -0.075030 0.014761
v -0.006250 -0.104927 -0.057417
v -0.006250 -0.075030 0.014761
v 0.006250 -0.104927 -0.057417
v -0.006250 -0.075030 0.014761
v 0.006250 -0.075030 0.014761
v 0.006250 -0.104927 -0.057417
v -0.006250 -0.089465 0.020741
v -0.006250 -0.119363 -0.051437
v 0.006250 -0.089465 0.020741
v -0.006250 -0.119363 -0.051437
v 0.006250 -0.119363 -0.051437
v 0.006250 -0.089465 0.020741
v -0.006250 -0.075030 0.014761
v -0.006250 -0.089465 0.020741
v 0.006250 -0.075030 0.014761
v -0.006250 -0.089465 0.020741
v 0.006250 -0.089465 0.020741
v 0.006250 -0.075030 0.014761
v 0.006250 -0.104927 -0.057417
v 0.006250 -0.119363 -0.051437
v -0.006250 -0.104927 -0.057417
v 0.006250 -0.119363 -0.051437
v -0.006250 -0.119363 -0.051437
v -0.006250 -0.104927 -0.057417
v 0.006250 -0.104927 -0.045458
v 0.006250 -0.119363 -0.051438
v 0.006250 -0.086989 -0.088765
v 0.006250 -0.119363 -0.051438
v 0.006250 -0.101424 -0.094744
v 0.006250 -0.086989 -0.088765
v -0.006250 -0.086989 -0.088765
v -0.006250 -0.101424 -0.094744
v -0.006250 -0.104927 -0.045458
v -0.006250 -0.101424 -0.094744
v -0.006250 -0.119363 -0.051438
v -0.006250 -0.104927 -0.045458
v -0.006250 -0.086989 -0.088765
v -0.006250 -0.104927 -0.045458
v 0.006250 -0.086989 -0.088765
v -0.006250 -0.104927 -0.045458
v 0.006250 -0.104927 -0.045458
v 0.006250 -0.086989 -0.088765
v -0.006250 -0.119363 -0.051438
v -0.006250 -0.101424 -0.094744
v 0.006250 -0.119363 -0.051438
v -0.006250 -0.101424 -0.094744
v 0.006250 -0.101424 -0.094744
v 0.006250 -0.119363 -0.051438
v -0.006250 -0.104927 -0.045458
v -0.006250 -0.119363 -0.051438
v 0.006250 -0.104927 -0.045458
v -0.006250 -0.119363 -0.051438
v 0.006250 -0.119363 -0.051438
v 0.006250 -0.104927 -0.045458
v 0.006250 -0.086989 -0.088765
v 0.006250 -0.101424 -0.094744
v -0.006250 -0.086989 -0.088765
v 0.006250 -0.101424 -0.094744
v -0.006250 -0.101424 -0.094744
v -0.006250 -0.086989 -0.088765
v 0.028125 0.075043 -0.129681
v 0.028125 0.059417 -0.129681
v 0.028125 0.075043 -0.789056
v 0.028125 0.059417 -0.129681
v 0.028125 0.059417 -0.789056
v 0.028125 0.075043 -0.789056
v 0.015625 0.075043 -0.789056
v 0.015625 0.059417 -0.789056
v 0.015625 0.075043 -0.129681
v 0.015625 0.059417 -0.789056
v 0.015625 0.059417 -0.129681
v 0.015625 0.075043 -0.129681
v 0.015625 0.075043 -0.789056
v 0.015625 0.075043 -0.129681
v 0.028125 0.075043 -0.789056
v 0.015625 0.075043 -0.129681
v 0.028125 0.075043 -0.129681
v 0.028125 0.075043 -0.789056
v 0.015625 0.059417 -0.129681
v 0.015625 0.059417 -0.789056
v 0.028125 0.059417 -0.129681
v 0.015625 0.059417 -0.789056
v 0.028125 0.059417 -0.789056
v 0.028125 0.059417 -0.129681
v 0.015625 0.075043 -0.129681
v 0.015625 0.059417 -0.129681
v 0.028125 0.075043 -0.129681
v 0.015625 0.059417 -0.129681
v 0.028125 0.059417 -0.129681
v 0.028125 0.075043 -0.129681
v 0.028125 0.075043 -0.789056
v 0.028125 0.059417 -0.789056
v 0.015625 0.075043 -0.789056
v 0.028125 0.059417 -0.789056
v 0.015625 0.059417 -0.789056
v 0.015625 0.075043 -0.789056
v -0.015625 0.075043 -0.789056
v -0.015625 0.068413 -0.782427
v -0.015625 0.059575 -0.804524
v -0.015625 0.068413 -0.782427
v -0.015625 0.052945 -0.797895
v -0.015625 0.059575 -0.804524
v -0.028125 0.059575 -0.804524
v -0.028125 0.052945 -0.797895
v -0.028125 0.075043 -0.789056
v -0.028125 0.052945 -0.797895
v -0.028125 0.068413 -0.782427
v -0.028125 0.075043 -0.789056
v -0.028125 0.059575 -0.804524
v -0.028125 0.075043 -0.789056
v -0.015625 0.059575 -0.804524
v -0.028125 0.075043 -0.789056
v -0.015625 0.075043 -0.789056
v -0.015625 0.059575 -0.804524
v -0.028125 0.068413 -0.782427
v -0.028125 0.052945 -0.797895
v -0.015625 0.068413 -0.782427
v -0.028125 0.052945 -0.797895
v -0.015625 0.052945 -0.797895
v -0.015625 0.068413 -0.782427
v -0.028125 0.075043 -0.789056
v -0.028125 0.068413 -0.782427
v -0.015625 0.075043 -0.789056
v -0.028125 0.068413 -0.782427
v -0.015625 0.068413 -0.782427
v -0.015625 0.075043 -0.789056
v -0.015625 0.059575 -0.804524
v -0.015625 0.052945 -0.797895
v -0.028125 0.059575 -0.804524
v -0.015625 0.052945 -0.797895
v -0.028125 0.052945 -0.797895
v -0.028125 0.059575 -0.804524
v 0.028125 0.075043 -0.789056
v 0.028125 0.068413 -0.782427
v 0.028125 0.059575 -0.804524
v 0.028125 0.068413 -0.782427
v 0.028125 0.052945 -0.797895
v 0.028125 0.059575 -0.804524
v 0.015625 0.059575 -0.804524
v 0.015625 0.052945 -0.797895
v 0.015625 0.075043 -0.789056
v 0.015625 0.052945 -0.797895
v 0.015625 0.068413 -0.782427
v 0.015625 0.075043 -0.789056
v 0.015625 0.059575 -0.804524
v 0.015625 0.075043 -0.789056
v 0.028125 0.059575 -0.804524
v 0.015625 0.075043 -0.789056
v 0.028125 0.075043 -0.789056
v 0.028125 0.059575 -0.804524
v 0.015625 0.068413 -0.782427
v 0.015625 0.052945 -0.797895
v 0.028125 0.068413 -0.782427
v 0.015625 0.052945 -0.797895
v 0.028125 0.052945 -0.797895
v 0.028125 0.068413 -0.782427
v 0.015625 0.075043 -0.789056
v 0.015625 0.068413 -0.782427
v 0.028125 0.075043 -0.789056
v 0.015625 0.068413 -0.782427
v 0.028125 0.068413 -0.782427
v 0.028125 0.075043 -0.789056
v 0.028125 0.059575 -0.804524
v 0.028125 0.052945 -0.797895
v 0.015625 0.059575 -0.804524
v 0.028125 0.052945 -0.797895
v 0.015625 0.052945 -0.797895
v 0.015625 0.059575 -0.804524
v 0.028125 0.075043 -0.128793
v 0.028125 0.059575 -0.113325
v 0.028125 0.068413 -0.135422
v 0.028125 0.059575 -0.113325
v 0.028125 0.052946 -0.119954
v 0.028125 0.068413 -0.135422
v 0.015625 0.068413 -0.135422
v 0.015625 0.052946 -0.119954
v 0.015625 0.075043 -0.128793
v 0.015625 0.052946 -0.119954
v 0.015625 0.059575 -0.113325
v 0.015625 0.075043 -0.128793
v 0.015625 0.068413 -0.135422
v 0.015625 0.075043 -0.128793
v 0.028125 0.068413 -0.135422
v 0.015625 0.075043 -0.128793
v 0.028125 0.075043 -0.128793
v 0.028125 0.068413 -0.135422
v 0.015625 0.059575 -0.113325
v 0.015625 0.052946 -0.119954
v 0.028125 0.059575 -0.113325
v 0.015625 0.052946 -0.119954
v 0.028125 0.052946 -0.119954
v 0.028125 0.059575 -0.113325
v 0.015625 0.075043 -0.128793
v 0.015625 0.059575 -0.113325
v 0.028125 0.075043 -0.128793
v 0.015625 0.059575 -0.113325
v 0.028125 0.059575 -0.113325
v 0.028125 0.075043 -0.128793
v 0.028125 0.068413 -0.135422
v 0.028125 0.052946 -0.119954
v 0.015625 0.068413 -0.135422
v 0.028125 0.052946 -0.119954
v 0.015625 0.052946 -0.119954
v 0.015625 0.068413 -0.135422
v -0.015625 0.075043 -0.128793
v -0.015625 0.059575 -0.113325
v -0.015625 0.068413 -0.135422
v -0.015625 0.059575 -0.113325
v -0.015625 0.052946 -0.119954
v -0.015625 0.068413 -0.135422
v -0.028125 0.068413 -0.135422
v -0.028125 0.052946 -0.119954
v -0.028125 0.075043 -0.128793
v -0.028125 0.052946 -0.119954
v -0.028125 0.059575 -0.113325
v -0.028125 0.075043 -0.128793
v -0.028125 0.068413 -0.135422
v -0.028125 0.075043 -0.128793
v -0.015625 0.068413 -0.135422
v -0.028125 0.075043 -0.128793
v -0.015625 0.075043 -0.128793
v -0.015625 0.068413 -0.135422
v -0.028125 0.059575 -0.113325
v -0.028125 0.052946 -0.119954
v -0.015625 0.059575 -0.113325
v -0.028125 0.052946 -0.119954
v -0.015625 0.052946 -0.119954
v -0.015625 0.059575 -0.113325
v -0.028125 0.075043 -0.128793
v -0.028125 0.059575 -0.113325
v -0.015625 0.075043 -0.128793
v -0.028125 0.059575 -0.113325
v -0.015625 0.059575 -0.113325
v -0.015625 0.075043 -0.128793
v -0.015625 0.068413 -0.135422
v -0.015625 0.052946 -0.119954
v -0.028125 0.068413 -0.135422
v -0.015625 0.052946 -0.119954
v -0.028125 0.052946 -0.119954
v -0.028125 0.068413 -0.135422
v -0.015625 0.075043 -0.129681
v -0.015625 0.059417 -0.129681
v -0.015625 0.075043 -0.789056
v -0.015625 0.059417 -0.129681
v -0.015625 0.059417 -0.789056
v -0.015625 0.075043 -0.789056
v -0.028125 0.075043 -0.789056
v -0.028125 0.059417 -0.789056
v -0.028125 0.075043 -0.129681
v -0.028125 0.059417 -0.789056
v -0.028125 0.059417 -0.129681
v -0.028125 0.075043 -0.129681
v -0.028125 0.075043 -0.789056
v -0.028125 0.075043 -0.129681
v -0.015625 0.075043 -0.789056
v -0.028125 0.075043 -0.129681
v -0.015625 0.075043 -0.129681
v -0.015625 0.075043 -0.789056
v -0.028125 0.059417 -0.129681
v -0.028125 0.059417 -0.789056
v -0.015625 0.059417 -0.129681
v -0.028125 0.059417 -0.789056
v -0.015625 0.059417 -0.789056
v -0.015625 0.059417 -0.129681
v -0.028125 0.075043 -0.129681
v -0.028125 0.059417 -0.129681
v -0.015625 0.075043 -0.129681
v -0.028125 0.059417 -0.129681
v -0.015625 0.059417 -0.129681
v -0.015625 0.075043 -0.129681
v -0.015625 0.075043 -0.789056
v -0.015625 0.059417 -0.789056
v -0.028125 0.075043 -0.789056
v -0.015625 0.059417 -0.789056
v -0.028125 0.059417 -0.789056
v -0.028125 0.075043 -0.789056
v 0.009375 0.087542 -0.675403
v 0.009375 0.015667 -0.675403
v 0.009375 0.087542 -0.681028
v 0.009375 0.015667 -0.675403
v 0.009375 0.015667 -0.681028
v 0.009375 0.087542 -0.681028
v -0.009375 0.087542 -0.681028
v -0.009375 0.015667 -0.681028
v -0.009375 0.087542 -0.675403
v -0.009375 0.015667 -0.681028
v -0.009375 0.015667 -0.675403
v -0.009375 0.087542 -0.675403
v -0.009375 0.087542 -0.681028
v -0.009375 0.087542 -0.675403
v 0.009375 0.087542 -0.681028
v -0.009375 0.087542 -0.675403
v 0.009375 0.087542 -0.675403
v 0.009375 0.087542 -0.681028
v -0.009375 0.015667 -0.675403
v -0.009375 0.015667 -0.681028
v 0.009375 0.015667 -0.675403
v -0.009375 0.015667 -0.681028
v 0.009375 0.015667 -0.681028
v 0.009375 0.015667 -0.675403
v -0.009375 0.087542 -0.675403
v -0.009375 0.015667 -0.675403
v 0.009375 0.087542 -0.675403
v -0.009375 0.015667 -0.675403
v 0.009375 0.015667 -0.675403
v 0.009375 0.087542 -0.675403
v 0.009375 0.087542 -0.681028
v 0.009375 0.015667 -0.681028
v -0.009375 0.087542 -0.681028
v 0.009375 0.015667 -0.681028
v -0.009375 0.015667 -0.681028
v -0.009375 0.087542 -0.681028
v 0.003125 -0.057537 -0.032714
v 0.003125 -0.089296 -0.045868
v 0.003125 -0.053950 -0.041375
v 0.003125 -0.089296 -0.045868
v 0.003125 -0.085708 -0.054530
v 0.003125 -0.053950 -0.041375
v -0.003125 -0.053950 -0.041375
v -0.003125 -0.085708 -0.054530
v -0.003125 -0.057537 -0.032714
v -0.003125 -0.085708 -0.054530
v -0.003125 -0.089296 -0.045868
v -0.003125 -0.057537 -0.032714
v -0.003125 -0.053950 -0.041375
v -0.003125 -0.057537 -0.032714
v 0.003125 -0.053950 -0.041375
v -0.003125 -0.057537 -0.032714
v 0.003125 -0.057537 -0.032714
v 0.003125 -0.053950 -0.041375
v -0.003125 -0.089296 -0.045868
v -0.003125 -0.085708 -0.054530
v 0.003125 -0.089296 -0.045868
v -0.003125 -0.085708 -0.054530
v 0.003125 -0.085708 -0.054530
v 0.003125 -0.089296 -0.045868
v -0.003125 -0.057537 -0.032714
v -0.003125 -0.089296 -0.045868
v 0.003125 -0.057537 -0.032714
v -0.003125 -0.089296 -0.045868
v 0.003125 -0.089296 -0.045868
v 0.003125 -0.057537 -0.032714
v 0.003125 -0.053950 -0.041375
v 0.003125 -0.085708 -0.054530
v -0.003125 -0.053950 -0.041375
v 0.003125 -0.085708 -0.054530
v -0.003125 -0.085708 -0.054530
v -0.003125 -0.053950 -0.041375
v 0.006250 -0.052138 -0.098247
v 0.006250 -0.095444 -0.080308
v 0.006250 -0.058117 -0.112682
v 0.006250 -0.095444 -0.080308
v 0.006250 -0.101424 -0.094744
v 0.006250 -0.058117 -0.112682
v -0.006250 -0.058117 -0.112682
v -0.006250 -0.101424 -0.094744
v -0.006250 -0.052138 -0.098247
v -0.006250 -0.101424 -0.094744
v -0.006250 -0.095444 -0.080308
v -0.006250 -0.052138 -0.098247
v -0.006250 -0.058117 -0.112682
v -0.006250 -0.052138 -0.098247
v 0.006250 -0.058117 -0.112682
v -0.006250 -0.052138 -0.098247
v 0.006250 -0.052138 -0.098247
v 0.006250 -0.058117 -0.112682
v -0.006250 -0.095444 -0.080308
v -0.006250 -0.101424 -0.094744
v 0.006250 -0.095444 -0.080308
v -0.006250 -0.101424 -0.094744
v 0.006250 -0.101424 -0.094744
v 0.006250 -0.095444 -0.080308
v -0.006250 -0.052138 -0.098247
v -0.006250 -0.095444 -0.080308
v 0.006250 -0.052138 -0.098247
v -0.006250 -0.095444 -0.080308
v 0.006250 -0.095444 -0.080308
v 0.006250 -0.052138 -0.098247
v 0.006250 -0.058117 -0.112682
v 0.006250 -0.101424 -0.094744
v -0.006250 -0.058117 -0.112682
v 0.006250 -0.101424 -0.094744
v -0.006250 -0.101424 -0.094744
v -0.006250 -0.058117 -0.112682
v 0.031250 0.062500 -0.765625
v 0.031250 -0.062500 -0.765625
v 0.031250 0.062500 -0.859375
v 0.031250 -0.062500 -0.765625
v 0.031250 -0.062500 -0.859375
v 0.031250 0.062500 -0.859375
v -0.031250 0.062500 -0.859375
v -0.031250 -0.062500 -0.859375
v -0.031250 0.062500 -0.765625
v -0.031250 -0.062500 -0.859375
v -0.031250 -0.062500 -0.765625
v -0.031250 0.062500 -0.765625
v -0.031250 0.062500 -0.859375
v -0.031250 0.062500 -0.765625
v 0.031250 0.062500 -0.859375
v -0.031250 0.062500 -0.765625
v 0.031250 0.062500 -0.765625
v 0.031250 0.062500 -0.859375
v -0.031250 -0.062500 -0.765625
v -0.031250 -0.062500 -0.859375
v 0.031250 -0.062500 -0.765625
v -0.031250 -0.062500 -0.859375
v 0.031250 -0.062500 -0.859375
v 0.031250 -0.062500 -0.765625
v -0.031250 0.062500 -0.765625
v -0.031250 -0.062500 -0.765625
v 0.031250 0.062500 -0.765625
v -0.031250 -0.062500 -0.765625
v 0.031250 -0.062500 -0.765625
v 0.031250 0.062500 -0.765625
v 0.031250 0.062500 -0.859375
v 0.031250 -0.062500 -0.859375
v -0.031250 0.062500 -0.859375
v 0.031250 -0.062500 -0.859375
v -0.031250 -0.062500 -0.859375
v -0.031250 0.062500 -0.859375
v 0.031250 0.062500 -0.031250
v 0.031250 -0.062500 -0.031250
v 0.031250 0.062500 -0.218750
v 0.031250 -0.062500 -0.031250
v 0.031250 -0.062500 -0.218750
v 0.031250 0.062500 -0.218750
v -0.031250 0.062500 -0.218750
v -0.031250 -0.062500 -0.218750
v -0.031250 0.062500 -0.031250
v -0.031250 -0.062500 -0.218750
v -0.031250 -0.062500 -0.031250
v -0.031250 0.062500 -0.031250
v -0.031250 0.062500 -0.218750
v -0.031250 0.062500 -0.031250
v 0.031250 0.062500 -0.218750
v -0.031250 0.062500 -0.031250
v 0.031250 0.062500 -0.031250
v 0.031250 0.062500 -0.218750
v -0.031250 -0.062500 -0.031250
v -0.031250 -0.062500 -0.218750
v 0.031250 -0.062500 -0.031250
v -0.031250 -0.062500 -0.218750
v 0.031250 -0.062500 -0.218750
v 0.031250 -0.062500 -0.031250
v -0.031250 0.062500 -0.031250
v -0.031250 -0.062500 -0.031250
v 0.031250 0.062500 -0.031250
v -0.031250 -0.062500 -0.031250
v 0.031250 -0.062500 -0.031250
v 0.031250 0.062500 -0.031250
v 0.031250 0.062500 -0.218750
v 0.031250 -0.062500 -0.218750
v -0.031250 0.062500 -0.218750
v 0.031250 -0.062500 -0.218750
v -0.031250 -0.062500 -0.218750
v -0.031250 0.062500 -0.218750
v 0.031250 0.062500 0.062500
v 0.031250 -0.062500 0.062500
v 0.031250 0.062500 -0.031250
v 0.031250 -0.062500 0.062500
v 0.031250 -0.062500 -0.031250
v 0.031250 0.062500 -0.031250
v -0.031250 0.062500 -0.031250
v -0.031250 -0.062500 -0.031250
v -0.031250 0.062500 0.062500
v -0.031250 -0.062500 -0.031250
v -0.031250 -0.062500 0.062500
v -0.031250 0.062500 0.062500
v -0.031250 0.062500 -0.031250
v -0.031250 0.062500 0.062500
v 0.031250 0.062500 -0.031250
v -0.031250 0.062500 0.062500
v 0.031250 0.062500 0.062500
v 0.031250 0.062500 -0.031250
v -0.031250 -0.062500 0.062500
v -0.031250 -0.062500 -0.031250
v 0.031250 -0.062500 0.062500
v -0.031250 -0.062500 -0.031250
v 0.031250 -0.062500 -0.031250
v 0.031250 -0.062500 0.062500
v -0.031250 0.062500 0.062500
v -0.031250 -0.062500 0.062500
v 0.031250 0.062500 0.062500
v -0.031250 -0.062500 0.062500
v 0.031250 -0.062500 0.062500
v 0.031250 0.062500 0.062500
v 0.031250 0.062500 -0.031250
v 0.031250 -0.062500 -0.031250
v -0.031250 0.062500 -0.031250
v 0.031250 -0.062500 -0.031250
v -0.031250 -0.062500 -0.031250
v -0.031250 0.062500 -0.031250
v 0.018750 0.062500 0.062500
v 0.018750 -0.103228 0.228228
v 0.018750 -0.003791 -0.003791
v 0.018750 -0.103228 0.228228
v 0.018750 -0.169520 0.161937
v 0.018750 -0.003791 -0.003791
v -0.018750 -0.003791 -0.003791
v -0.018750 -0.169520 0.161937
v -0.018750 0.062500 0.062500
v -0.018750 -0.169520 0.161937
v -0.018750 -0.103228 0.228228
v -0.018750 0.062500 0.062500
v -0.018750 -0.003791 -0.003791
v -0.018750 0.062500 0.062500
v 0.018750 -0.003791 -0.003791
v -0.018750 0.062500 0.062500
v 0.018750 0.062500 0.062500
v 0.018750 -0.003791 -0.003791
v -0.018750 -0.103228 0.228228
v -0.018750 -0.169520 0.161937
v 0.018750 -0.103228 0.228228
v -0.018750 -0.169520 0.161937
v 0.018750 -0.169520 0.161937
v 0.018750 -0.103228 0.228228
v -0.018750 0.062500 0.062500
v -0.018750 -0.103228 0.228228
v 0.018750 0.062500 0.062500
v -0.018750 -0.103228 0.228228
v 0.018750 -0.103228 0.228228
v 0.018750 0.062500 0.062500
v 0.018750 -0.003791 -0.003791
v 0.018750 -0.169520 0.161937
v -0.018750 -0.003791 -0.003791
v 0.018750 -0.169520 0.161937
v -0.018750 -0.169520 0.161937
v -0.018750 -0.003791 -0.003791
vn 1.0000 -0.0000 -0.0000
vn -1.0000 -0.0000 -0.0000
vn -0.0000 1.0000 -0.0000
vn -0.0000 -1.0000 -0.0000
vn -0.0000 -0.0000 1.0000
vn -0.0000 -0.0000 -1.0000
vn 0.9239 -0.3827 -0.0000
vn -0.9239 0.3827 -0.0000
vn 0.3827 0.9239 -0.0000
vn -0.3827 -0.9239 -0.0000
vn 0.9239 0.3827 -0.0000
vn -0.9239 -0.3827 -0.0000
vn -0.3827 0.9239 -0.0000
vn 0.3827 -0.9239 -0.0000
vn 0.7071 -0.0000 0.7071
vn -0.7071 -0.0000 -0.7071
vn -0.7071 -0.0000 0.7071
vn 0.7071 -0.0000 -0.7071
vn 0.9239 -0.0000 0.3827
vn -0.9239 -0.0000 -0.3827
vn -0.3827 -0.0000 0.9239
vn 0.3827 -0.0000 -0.9239
vn 0.9239 -0.0000 -0.3827
vn -0.9239 -0.0000 0.3827
vn 0.3827 -0.0000 0.9239
vn -0.3827 -0.0000 -0.9239
vn -0.0000 0.7071 -0.7071
vn -0.0000 -0.7071 0.7071
vn -0.0000 0.7071 0.7071
vn -0.0000 -0.7071 -0.7071
vn -0.0000 0.9239 -0.3827
vn -0.0000 -0.9239 0.3827
vn -0.0000 0.3827 0.9239
vn -0.0000 -0.3827 -0.9239
vn -0.0000 0.9239 0.3827
vn -0.0000 -0.9239 -0.3827
vn -0.0000 -0.3827 0.9239
vn -0.0000 0.3827 -0.9239
vt 0.000000 0.000000
vt 0.000000 0.062500
vt 0.375000 0.000000
vt 0.375000 0.062500
vt 0.000000 0.437500
vt 1.000000 0.437500
vt 0.000000 0.312500
vt 1.000000 0.312500
vt 1.000000 0.750000
vt 0.000000 0.750000
vt 1.000000 0.875000
vt 0.000000 0.875000
vt 0.015625 0.000000
vt 0.015625 0.918750
vt 0.000000 0.918750
vt 0.068750 0.015625
vt 0.068750 0.000000
vt 0.000000 0.015625
vt 0.062500 0.000000
vt 0.062500 0.015625
vt 0.000000 0.031250
vt 0.125000 0.000000
vt 0.125000 0.031250
vt 0.062500 0.562500
vt 0.062500 0.687500
vt 0.500000 0.562500
vt 0.500000 0.687500
vt 0.000000 0.625000
vt 0.000000 0.812500
vt 1.000000 0.625000
vt 1.000000 0.812500
vt 0.000000 0.375000
vt 0.000000 0.562500
vt 1.000000 0.375000
vt 1.000000 0.562500
vt 0.000000 0.687500
vt 1.000000 0.687500
vt 0.000000 0.125000
vt 1.000000 0.125000
vt 1.000000 0.000000
vt 0.031250 0.000000
vt 0.031250 0.062500
vt 0.750000 0.000000
vt 0.750000 0.250000
vt 0.937500 0.000000
vt 0.937500 0.250000
vt 0.000000 0.250000
vt 0.187500 0.000000
vt 0.187500 0.250000
vt 0.125000 0.250000
vt 0.187500 0.437500
vt 0.187500 0.687500
vt 0.312500 0.437500
vt 0.312500 0.687500
vt 0.812500 0.500000
vt 0.812500 0.750000
vt 0.937500 0.500000
vt 0.937500 0.750000
vt 0.687500 0.062500
vt 0.687500 0.312500
vt 0.812500 0.062500
vt 0.812500 0.312500
vt 0.375000 0.250000
vt 0.125000 0.375000
vt 0.375000 0.125000
vt 0.250000 0.000000
vt 0.250000 0.250000
s 0
usemtl Material_1
f 1/1/1 2/2/1 3/3/1
f 4/2/1 5/4/1 6/3/1
f 7/1/2 8/2/2 9/3/2
f 10/2/2 11/4/2 12/3/2
f 13/5/3 14/6/3 15/7/3
f 16/6/3 17/8/3 18/7/3
f 19/9/4 20/10/4 21/11/4
f 22/10/4 23/12/4 24/11/4
f 25/1/5 26/2/5 27/3/5
f 28/2/5 29/4/5 30/3/5
f 31/1/6 32/2/6 33/3/6
f 34/2/6 35/4/6 36/3/6
f 73/16/1 74/17/1 75/18/1
f 76/17/1 77/1/1 78/18/1
f 79/16/2 80/17/2 81/18/2
f 82/17/2 83/1/2 84/18/2
f 85/16/3 86/17/3 87/18/3
f 88/17/3 89/1/3 90/18/3
f 91/16/4 92/17/4 93/18/4
f 94/17/4 95/1/4 96/18/4
f 97/16/5 98/17/5 99/18/5
f 100/17/5 101/1/5 102/18/5
f 103/16/6 104/17/6 105/18/6
f 106/17/6 107/1/6 108/18/6
f 109/16/7 110/17/7 111/18/7
f 112/17/7 113/1/7 114/18/7
f 115/16/8 116/17/8 117/18/8
f 118/17/8 119/1/8 120/18/8
f 121/16/9 122/17/9 123/18/9
f 124/17/9 125/1/9 126/18/9
f 127/16/10 128/17/10 129/18/10
f 130/17/10 131/1/10 132/18/10
f 133/16/5 134/17/5 135/18/5
f 136/17/5 137/1/5 138/18/5
f 139/16/6 140/17/6 141/18/6
f 142/17/6 143/1/6 144/18/6
f 145/16/11 146/17/11 147/18/11
f 148/17/11 149/1/11 150/18/11
f 151/16/12 152/17/12 153/18/12
f 154/17/12 155/1/12 156/18/12
f 157/16/13 158/17/13 159/18/13
f 160/17/13 161/1/13 162/18/13
f 163/16/14 164/17/14 165/18/14
f 166/17/14 167/1/14 168/18/14
f 169/16/5 170/17/5 171/18/5
f 172/17/5 173/1/5 174/18/5
f 175/16/6 176/17/6 177/18/6
f 178/17/6 179/1/6 180/18/6
f 181/19/11 182/1/11 183/20/11
f 184/1/11 185/18/11 186/20/11
f 187/19/12 188/1/12 189/20/12
f 190/1/12 191/18/12 192/20/12
f 193/19/13 194/1/13 195/20/13
f 196/1/13 197/18/13 198/20/13
f 199/19/14 200/1/14 201/20/14
f 202/1/14 203/18/14 204/20/14
f 205/19/5 206/1/5 207/20/5
f 208/1/5 209/18/5 210/20/5
f 211/19/6 212/1/6 213/20/6
f 214/1/6 215/18/6 216/20/6
f 217/19/7 218/1/7 219/20/7
f 220/1/7 221/18/7 222/20/7
f 223/19/8 224/1/8 225/20/8
f 226/1/8 227/18/8 228/20/8
f 229/19/9 230/1/9 231/20/9
f 232/1/9 233/18/9 234/20/9
f 235/19/10 236/1/10 237/20/10
f 238/1/10 239/18/10 240/20/10
f 241/19/5 242/1/5 243/20/5
f 244/1/5 245/18/5 246/20/5
f 247/19/6 248/1/6 249/20/6
f 250/1/6 251/18/6 252/20/6
f 253/19/7 254/1/7 255/20/7
f 256/1/7 257/18/7 258/20/7
f 259/19/8 260/1/8 261/20/8
f 262/1/8 263/18/8 264/20/8
f 265/19/9 266/1/9 267/20/9
f 268/1/9 269/18/9 270/20/9
f 271/19/10 272/1/10 273/20/10
f 274/1/10 275/18/10 276/20/10
f 277/19/5 278/1/5 279/20/5
f 280/1/5 281/18/5 282/20/5
f 283/19/6 284/1/6 285/20/6
f 286/1/6 287/18/6 288/20/6
f 289/19/11 290/1/11 291/20/11
f 292/1/11 293/18/11 294/20/11
f 295/19/12 296/1/12 297/20/12
f 298/1/12 299/18/12 300/20/12
f 301/19/13 302/1/13 303/20/13
f 304/1/13 305/18/13 306/20/13
f 307/19/14 308/1/14 309/20/14
f 310/1/14 311/18/14 312/20/14
f 313/19/5 314/1/5 315/20/5
f 316/1/5 317/18/5 318/20/5
f 319/19/6 320/1/6 321/20/6
f 322/1/6 323/18/6 324/20/6
f 325/20/11 326/19/11 327/18/11
f 328/19/11 329/1/11 330/18/11
f 331/20/12 332/19/12 333/18/12
f 334/19/12 335/1/12 336/18/12
f 337/20/13 338/19/13 339/18/13
f 340/19/13 341/1/13 342/18/13
f 343/20/14 344/19/14 345/18/14
f 346/19/14 347/1/14 348/18/14
f 349/20/5 350/19/5 351/18/5
f 352/19/5 353/1/5 354/18/5
f 355/20/6 356/19/6 357/18/6
f 358/19/6 359/1/6 360/18/6
f 361/1/7 362/18/7 363/19/7
f 364/18/7 365/20/7 366/19/7
f 367/1/8 368/18/8 369/19/8
f 370/18/8 371/20/8 372/19/8
f 373/1/9 374/18/9 375/19/9
f 376/18/9 377/20/9 378/19/9
f 379/1/10 380/18/10 381/19/10
f 382/18/10 383/20/10 384/19/10
f 385/1/5 386/18/5 387/19/5
f 388/18/5 389/20/5 390/19/5
f 391/1/6 392/18/6 393/19/6
f 394/18/6 395/20/6 396/19/6
f 505/24/15 506/25/15 507/26/15
f 508/25/15 509/27/15 510/26/15
f 511/24/16 512/25/16 513/26/16
f 514/25/16 515/27/16 516/26/16
f 517/24/3 518/25/3 519/26/3
f 520/25/3 521/27/3 522/26/3
f 523/24/4 524/25/4 525/26/4
f 526/25/4 527/27/4 528/26/4
f 529/24/17 530/25/17 531/26/17
f 532/25/17 533/27/17 534/26/17
f 535/24/18 536/25/18 537/26/18
f 538/25/18 539/27/18 540/26/18
f 541/24/19 542/25/19 543/26/19
f 544/25/19 545/27/19 546/26/19
f 547/24/20 548/25/20 549/26/20
f 550/25/20 551/27/20 552/26/20
f 553/24/3 554/25/3 555/26/3
f 556/25/3 557/27/3 558/26/3
f 559/24/4 560/25/4 561/26/4
f 562/25/4 563/27/4 564/26/4
f 565/24/21 566/25/21 567/26/21
f 568/25/21 569/27/21 570/26/21
f 571/24/22 572/25/22 573/26/22
f 574/25/22 575/27/22 576/26/22
f 577/24/18 578/25/18 579/26/18
f 580/25/18 581/27/18 582/26/18
f 583/24/17 584/25/17 585/26/17
f 586/25/17 587/27/17 588/26/17
f 589/24/3 590/25/3 591/26/3
f 592/25/3 593/27/3 594/26/3
f 595/24/4 596/25/4 597/26/4
f 598/25/4 599/27/4 600/26/4
f 601/24/15 602/25/15 603/26/15
f 604/25/15 605/27/15 606/26/15
f 607/24/16 608/25/16 609/26/16
f 610/25/16 611/27/16 612/26/16
f 613/24/23 614/25/23 615/26/23
f 616/25/23 617/27/23 618/26/23
f 619/24/24 620/25/24 621/26/24
f 622/25/24 623/27/24 624/26/24
f 625/24/3 626/25/3 627/26/3
f 628/25/3 629/27/3 630/26/3
f 631/24/4 632/25/4 633/26/4
f 634/25/4 635/27/4 636/26/4
f 637/24/25 638/25/25 639/26/25
f 640/25/25 641/27/25 642/26/25
f 643/24/26 644/25/26 645/26/26
f 646/25/26 647/27/26 648/26/26
f 649/24/1 650/25/1 651/26/1
f 652/25/1 653/27/1 654/26/1
f 655/24/2 656/25/2 657/26/2
f 658/25/2 659/27/2 660/26/2
f 661/24/3 662/25/3 663/26/3
f 664/25/3 665/27/3 666/26/3
f 667/24/4 668/25/4 669/26/4
f 670/25/4 671/27/4 672/26/4
f 673/24/5 674/25/5 675/26/5
f 676/25/5 677/27/5 678/26/5
f 679/24/6 680/25/6 681/26/6
f 682/25/6 683/27/6 684/26/6
f 685/28/1 686/29/1 687/30/1
f 688/29/1 689/31/1 690/30/1
f 691/32/2 692/33/2 693/34/2
f 694/33/2 695/35/2 696/34/2
f 697/36/3 698/37/3 699/33/3
f 700/37/3 701/35/3 702/33/3
f 703/38/4 704/39/4 705/1/4
f 706/39/4 707/40/4 708/1/4
f 709/1/5 710/2/5 711/3/5
f 712/2/5 713/4/5 714/3/5
f 715/1/6 716/2/6 717/3/6
f 718/2/6 719/4/6 720/3/6
f 721/41/1 722/1/1 723/42/1
f 724/1/1 725/2/1 726/42/1
f 727/41/2 728/1/2 729/42/2
f 730/1/2 731/2/2 732/42/2
f 733/41/27 734/1/27 735/42/27
f 736/1/27 737/2/27 738/42/27
f 739/41/28 740/1/28 741/42/28
f 742/1/28 743/2/28 744/42/28
f 745/41/29 746/1/29 747/42/29
f 748/1/29 749/2/29 750/42/29
f 751/41/30 752/1/30 753/42/30
f 754/1/30 755/2/30 756/42/30
f 757/41/1 758/1/1 759/42/1
f 760/1/1 761/2/1 762/42/1
f 763/41/2 764/1/2 765/42/2
f 766/1/2 767/2/2 768/42/2
f 769/41/31 770/1/31 771/42/31
f 772/1/31 773/2/31 774/42/31
f 775/41/32 776/1/32 777/42/32
f 778/1/32 779/2/32 780/42/32
f 781/41/33 782/1/33 783/42/33
f 784/1/33 785/2/33 786/42/33
f 787/41/34 788/1/34 789/42/34
f 790/1/34 791/2/34 792/42/34
f 793/41/1 794/1/1 795/42/1
f 796/1/1 797/2/1 798/42/1
f 799/41/2 800/1/2 801/42/2
f 802/1/2 803/2/2 804/42/2
f 805/41/35 806/1/35 807/42/35
f 808/1/35 809/2/35 810/42/35
f 811/41/36 812/1/36 813/42/36
f 814/1/36 815/2/36 816/42/36
f 817/41/37 818/1/37 819/42/37
f 820/1/37 821/2/37 822/42/37
f 823/41/38 824/1/38 825/42/38
f 826/1/38 827/2/38 828/42/38
f 829/1/1 830/2/1 831/41/1
f 832/2/1 833/42/1 834/41/1
f 835/1/2 836/2/2 837/41/2
f 838/2/2 839/42/2 840/41/2
f 841/1/3 842/2/3 843/41/3
f 844/2/3 845/42/3 846/41/3
f 847/1/4 848/2/4 849/41/4
f 850/2/4 851/42/4 852/41/4
f 853/1/5 854/2/5 855/41/5
f 856/2/5 857/42/5 858/41/5
f 859/1/6 860/2/6 861/41/6
f 862/2/6 863/42/6 864/41/6
f 865/1/1 866/2/1 867/41/1
f 868/2/1 869/42/1 870/41/1
f 871/1/2 872/2/2 873/41/2
f 874/2/2 875/42/2 876/41/2
f 877/1/27 878/2/27 879/41/27
f 880/2/27 881/42/27 882/41/27
f 883/1/28 884/2/28 885/41/28
f 886/2/28 887/42/28 888/41/28
f 889/1/29 890/2/29 891/41/29
f 892/2/29 893/42/29 894/41/29
f 895/1/30 896/2/30 897/41/30
f 898/2/30 899/42/30 900/41/30
f 901/1/1 902/2/1 903/41/1
f 904/2/1 905/42/1 906/41/1
f 907/1/2 908/2/2 909/41/2
f 910/2/2 911/42/2 912/41/2
f 913/1/27 914/2/27 915/41/27
f 916/2/27 917/42/27 918/41/27
f 919/1/28 920/2/28 921/41/28
f 922/2/28 923/42/28 924/41/28
f 925/1/29 926/2/29 927/41/29
f 928/2/29 929/42/29 930/41/29
f 931/1/30 932/2/30 933/41/30
f 934/2/30 935/42/30 936/41/30
f 937/1/1 938/2/1 939/41/1
f 940/2/1 941/42/1 942/41/1
f 943/1/2 944/2/2 945/41/2
f 946/2/2 947/42/2 948/41/2
f 949/1/27 950/2/27 951/41/27
f 952/2/27 953/42/27 954/41/27
f 955/1/28 956/2/28 957/41/28
f 958/2/28 959/42/28 960/41/28
f 961/1/29 962/2/29 963/41/29
f 964/2/29 965/42/29 966/41/29
f 967/1/30 968/2/30 969/41/30
f 970/2/30 971/42/30 972/41/30
f 973/1/1 974/2/1 975/41/1
f 976/2/1 977/42/1 978/41/1
f 979/1/2 980/2/2 981/41/2
f 982/2/2 983/42/2 984/41/2
f 985/1/27 986/2/27 987/41/27
f 988/2/27 989/42/27 990/41/27
f 991/1/28 992/2/28 993/41/28
f 994/2/28 995/42/28 996/41/28
f 997/1/29 998/2/29 999/41/29
f 1000/2/29 1001/42/29 1002/41/29
f 1003/1/30 1004/2/30 1005/41/30
f 1006/2/30 1007/42/30 1008/41/30
f 1009/1/1 1010/2/1 1011/41/1
f 1012/2/1 1013/42/1 1014/41/1
f 1015/1/2 1016/2/2 1017/41/2
f 1018/2/2 1019/42/2 1020/41/2
f 1021/1/3 1022/2/3 1023/41/3
f 1024/2/3 1025/42/3 1026/41/3
f 1027/1/4 1028/2/4 1029/41/4
f 1030/2/4 1031/42/4 1032/41/4
f 1033/1/5 1034/2/5 1035/41/5
f 1036/2/5 1037/42/5 1038/41/5
f 1039/1/6 1040/2/6 1041/41/6
f 1042/2/6 1043/42/6 1044/41/6
f 1045/1/1 1046/2/1 1047/41/1
f 1048/2/1 1049/42/1 1050/41/1
f 1051/1/2 1052/2/2 1053/41/2
f 1054/2/2 1055/42/2 1056/41/2
f 1057/1/3 1058/2/3 1059/41/3
f 1060/2/3 1061/42/3 1062/41/3
f 1063/1/4 1064/2/4 1065/41/4
f 1066/2/4 1067/42/4 1068/41/4
f 1069/1/5 1070/2/5 1071/41/5
f 1072/2/5 1073/42/5 1074/41/5
f 1075/1/6 1076/2/6 1077/41/6
f 1078/2/6 1079/42/6 1080/41/6
f 1081/1/1 1082/2/1 1083/41/1
f 1084/2/1 1085/42/1 1086/41/1
f 1087/1/2 1088/2/2 1089/41/2
f 1090/2/2 1091/42/2 1092/41/2
f 1093/1/35 1094/2/35 1095/41/35
f 1096/2/35 1097/42/35 1098/41/35
f 1099/1/36 1100/2/36 1101/41/36
f 1102/2/36 1103/42/36 1104/41/36
f 1105/1/37 1106/2/37 1107/41/37
f 1108/2/37 1109/42/37 1110/41/37
f 1111/1/38 1112/2/38 1113/41/38
f 1114/2/38 1115/42/38 1116/41/38
f 1117/1/1 1118/2/1 1119/41/1
f 1120/2/1 1121/42/1 1122/41/1
f 1123/1/2 1124/2/2 1125/41/2
f 1126/2/2 1127/42/2 1128/41/2
f 1129/1/31 1130/2/31 1131/41/31
f 1132/2/31 1133/42/31 1134/41/31
f 1135/1/32 1136/2/32 1137/41/32
f 1138/2/32 1139/42/32 1140/41/32
f 1141/1/33 1142/2/33 1143/41/33
f 1144/2/33 1145/42/33 1146/41/33
f 1147/1/34 1148/2/34 1149/41/34
f 1150/2/34 1151/42/34 1152/41/34
f 1153/43/1 1154/44/1 1155/45/1
f 1156/44/1 1157/46/1 1158/45/1
f 1159/1/2 1160/47/2 1161/48/2
f 1162/47/2 1163/49/2 1164/48/2
f 1165/1/3 1166/47/3 1167/22/3
f 1168/47/3 1169/50/3 1170/22/3
f 1171/51/4 1172/52/4 1173/53/4
f 1174/52/4 1175/54/4 1176/53/4
f 1177/55/5 1178/56/5 1179/57/5
f 1180/56/5 1181/58/5 1182/57/5
f 1183/59/6 1184/60/6 1185/61/6
f 1186/60/6 1187/62/6 1188/61/6
f 1189/1/1 1190/47/1 1191/3/1
f 1192/47/1 1193/63/1 1194/3/1
f 1195/1/2 1196/47/2 1197/3/2
f 1198/47/2 1199/63/2 1200/3/2
f 1201/1/3 1202/32/3 1203/22/3
f 1204/32/3 1205/64/3 1206/22/3
f 1207/38/4 1208/65/4 1209/1/4
f 1210/65/4 1211/3/4 1212/1/4
f 1213/1/5 1214/47/5 1215/3/5
f 1216/47/5 1217/63/5 1218/3/5
f 1219/1/6 1220/47/6 1221/22/6
f 1222/47/6 1223/50/6 1224/22/6
usemtl Material_0
f 37/13/1 38/1/1 39/14/1
f 40/1/1 41/15/1 42/14/1
f 43/13/2 44/1/2 45/14/2
f 46/1/2 47/15/2 48/14/2
f 49/13/3 50/1/3 51/14/3
f 52/1/3 53/15/3 54/14/3
f 55/13/4 56/1/4 57/14/4
f 58/1/4 59/15/4 60/14/4
f 61/13/5 62/1/5 63/14/5
f 64/1/5 65/15/5 66/14/5
f 67/13/6 68/1/6 69/14/6
f 70/1/6 71/15/6 72/14/6
usemtl Material_2
f 397/1/1 398/21/1 399/22/1
f 400/21/1 401/23/1 402/22/1
f 403/1/2 404/21/2 405/22/2
f 406/21/2 407/23/2 408/22/2
f 409/1/3 410/21/3 411/22/3
f 412/21/3 413/23/3 414/22/3
f 415/1/4 416/21/4 417/22/4
f 418/21/4 419/23/4 420/22/4
f 421/1/5 422/21/5 423/22/5
f 424/21/5 425/23/5 426/22/5
f 427/1/6 428/21/6 429/22/6
f 430/21/6 431/23/6 432/22/6
f 433/1/1 434/21/1 435/22/1
f 436/21/1 437/23/1 438/22/1
f 439/1/2 440/21/2 441/22/2
f 442/21/2 443/23/2 444/22/2
f 445/1/3 446/21/3 447/22/3
f 448/21/3 449/23/3 450/22/3
f 451/1/4 452/21/4 453/22/4
f 454/21/4 455/23/4 456/22/4
f 457/1/5 458/21/5 459/22/5
f 460/21/5 461/23/5 462/22/5
f 463/1/6 464/21/6 465/22/6
f 466/21/6 467/23/6 468/22/6
f 469/1/1 470/21/1 471/22/1
f 472/21/1 473/23/1 474/22/1
f 475/1/2 476/21/2 477/22/2
f 478/21/2 479/23/2 480/22/2
f 481/1/3 482/21/3 483/22/3
f 484/21/3 485/23/3 486/22/3
f 487/1/4 488/21/4 489/22/4
f 490/21/4 491/23/4 492/22/4
f 493/1/5 494/21/5 495/22/5
f 496/21/5 497/23/5 498/22/5
f 499/1/6 500/21/6 501/22/6
f 502/21/6 503/23/6 504/22/6
f 1225/1/1 1226/47/1 1227/66/1
f 1228/47/1 1229/67/1 1230/66/1
f 1231/1/2 1232/47/2 1233/66/2
f 1234/47/2 1235/67/2 1236/66/2
f 1237/1/3 1238/47/3 1239/66/3
f 1240/47/3 1241/67/3 1242/66/3
f 1243/1/4 1244/47/4 1245/66/4
f 1246/47/4 1247/67/4 1248/66/4
f 1249/1/5 1250/47/5 1251/66/5
f 1252/47/5 1253/67/5 1254/66/5
f 1255/1/6 1256/47/6 1257/66/6
f 1258/47/6 1259/67/6 1260/66/6
f 1261/1/1 1262/47/1 1263/66/1
f 1264/47/1 1265/67/1 1266/66/1
f 1267/1/2 1268/47/2 1269/66/2
f 1270/47/2 1271/67/2 1272/66/2
f 1273/1/27 1274/47/27 1275/66/27
f 1276/47/27 1277/67/27 1278/66/27
f 1279/1/28 1280/47/28 1281/66/28
f 1282/47/28 1283/67/28 1284/66/28
f 1285/1/29 1286/47/29 1287/66/29
f 1288/47/29 1289/67/29 1290/66/29
f 1291/1/30 1292/47/30 1293/66/30
f 1294/47/30 1295/67/30 1296/66/30
