# Blender 4.2.15 LTS
# www.blender.org
mtllib ronin.mtl
o head.001
v 0.259250 2.006250 0.256250
v 0.259250 2.006250 -0.256250
v 0.259250 1.493750 0.256250
v 0.259250 1.493750 -0.256250
v -0.259250 2.006250 -0.256250
v -0.259250 2.006250 0.256250
v -0.259250 1.493750 -0.256250
v -0.259250 1.493750 0.256250
v -0.259250 2.006250 -0.256250
v 0.259250 2.006250 -0.256250
v -0.259250 2.006250 0.256250
v 0.259250 2.006250 0.256250
v -0.259250 1.493750 0.256250
v 0.259250 1.493750 0.256250
v -0.259250 1.493750 -0.256250
v 0.259250 1.493750 -0.256250
v -0.259250 2.006250 0.256250
v 0.259250 2.006250 0.256250
v -0.259250 1.493750 0.256250
v 0.259250 1.493750 0.256250
v 0.259250 2.006250 -0.256250
v -0.259250 2.006250 -0.256250
v 0.259250 1.493750 -0.256250
v -0.259250 1.493750 -0.256250
vn 1.0000 -0.0000 -0.0000
vn -1.0000 -0.0000 -0.0000
vn -0.0000 1.0000 -0.0000
vn -0.0000 -1.0000 -0.0000
vn -0.0000 -0.0000 1.0000
vn -0.0000 -0.0000 -1.0000
vt 0.000000 0.937500
vt 0.000000 0.875000
vt 0.062500 0.937500
vt 0.062500 0.875000
vt 0.125000 0.937500
vt 0.125000 0.875000
vt 0.187500 0.937500
vt 0.187500 0.875000
vt 0.125000 1.000000
vt 0.062500 1.000000
vt 0.187500 1.000000
vt 0.250000 0.937500
vt 0.250000 0.875000
s 0
usemtl Material_0
f 1/1/1 3/2/1 2/3/1
f 3/2/1 4/4/1 2/3/1
f 5/5/2 7/6/2 6/7/2
f 7/6/2 8/8/2 6/7/2
f 9/5/3 11/9/3 10/3/3
f 11/9/3 12/10/3 10/3/3
f 13/11/4 15/7/4 14/9/4
f 15/7/4 16/5/4 14/9/4
f 17/7/5 19/8/5 18/12/5
f 19/8/5 20/13/5 18/12/5
f 21/3/6 23/4/6 22/5/6
f 23/4/6 24/6/6 22/5/6
o head.002
v 0.315500 2.312500 -0.312438
v 0.315500 2.312500 -0.312500
v 0.315500 1.750000 -0.312438
v 0.315500 1.750000 -0.312500
v -0.315500 2.312500 -0.312500
v -0.315500 2.312500 -0.312438
v -0.315500 1.750000 -0.312500
v -0.315500 1.750000 -0.312438
v -0.315500 2.312500 -0.312500
v 0.315500 2.312500 -0.312500
v -0.315500 2.312500 -0.312438
v 0.315500 2.312500 -0.312438
v -0.315500 1.750000 -0.312438
v 0.315500 1.750000 -0.312438
v -0.315500 1.750000 -0.312500
v 0.315500 1.750000 -0.312500
v -0.315500 2.312500 -0.312438
v 0.315500 2.312500 -0.312438
v -0.315500 1.750000 -0.312438
v 0.315500 1.750000 -0.312438
v 0.315500 2.312500 -0.312500
v -0.315500 2.312500 -0.312500
v 0.315500 1.750000 -0.312500
v -0.315500 1.750000 -0.312500
vn 1.0000 -0.0000 -0.0000
vn -1.0000 -0.0000 -0.0000
vn -0.0000 1.0000 -0.0000
vn -0.0000 -1.0000 -0.0000
vn -0.0000 -0.0000 1.0000
vn -0.0000 -0.0000 -1.0000
vt 0.468750 0.906250
vt 0.468750 0.835938
vt 0.546875 0.906250
vt 0.546875 0.835938
vt 0.625000 0.906250
vt 0.625000 0.835938
s 0
usemtl Material_0
f 25/14/7 27/15/7 26/14/7
f 27/15/7 28/15/7 26/14/7
f 29/16/8 31/17/8 30/16/8
f 31/17/8 32/17/8 30/16/8
f 33/16/9 35/16/9 34/14/9
f 35/16/9 36/14/9 34/14/9
f 37/18/10 39/18/10 38/16/10
f 39/18/10 40/16/10 38/16/10
f 41/16/11 43/17/11 42/18/11
f 43/17/11 44/19/11 42/18/11
f 45/14/12 47/15/12 46/16/12
f 47/15/12 48/17/12 46/16/12
o head.003
v 0.250000 1.787492 -0.194054
v 0.250000 1.763018 -0.379950
v 0.250000 1.725526 -0.185896
v 0.250000 1.701053 -0.371792
v -0.250000 1.763018 -0.379950
v -0.250000 1.787492 -0.194054
v -0.250000 1.701053 -0.371792
v -0.250000 1.725526 -0.185896
v -0.250000 1.763018 -0.379950
v 0.250000 1.763018 -0.379950
v -0.250000 1.787492 -0.194054
v 0.250000 1.787492 -0.194054
v -0.250000 1.725526 -0.185896
v 0.250000 1.725526 -0.185896
v -0.250000 1.701053 -0.371792
v 0.250000 1.701053 -0.371792
v -0.250000 1.787492 -0.194054
v 0.250000 1.787492 -0.194054
v -0.250000 1.725526 -0.185896
v 0.250000 1.725526 -0.185896
v 0.250000 1.763018 -0.379950
v -0.250000 1.763018 -0.379950
v 0.250000 1.701053 -0.371792
v -0.250000 1.701053 -0.371792
vn 1.0000 -0.0000 -0.0000
vn -1.0000 -0.0000 -0.0000
vn -0.0000 0.9914 -0.1305
vn -0.0000 -0.9914 0.1305
vn -0.0000 0.1305 0.9914
vn -0.0000 -0.1305 -0.9914
vt 0.343750 0.976562
vt 0.343750 0.968750
vt 0.367188 0.976562
vt 0.367188 0.968750
vt 0.429688 0.976562
vt 0.429688 0.968750
vt 0.453125 0.976562
vt 0.453125 0.968750
vt 0.429688 1.000000
vt 0.367188 1.000000
vt 0.492188 1.000000
vt 0.492188 0.976562
vt 0.515625 0.976562
vt 0.515625 0.968750
s 0
usemtl Material_0
f 49/20/13 51/21/13 50/22/13
f 51/21/13 52/23/13 50/22/13
f 53/24/14 55/25/14 54/26/14
f 55/25/14 56/27/14 54/26/14
f 57/24/15 59/28/15 58/22/15
f 59/28/15 60/29/15 58/22/15
f 61/30/16 63/31/16 62/28/16
f 63/31/16 64/24/16 62/28/16
f 65/26/17 67/27/17 66/32/17
f 67/27/17 68/33/17 66/32/17
f 69/22/18 71/23/18 70/24/18
f 71/23/18 72/25/18 70/24/18
o head.004
v 0.093750 1.943474 -0.198133
v 0.093750 1.923080 -0.353046
v 0.093750 1.788561 -0.177738
v 0.093750 1.768166 -0.332651
v -0.093750 1.923080 -0.353046
v -0.093750 1.943474 -0.198133
v -0.093750 1.768166 -0.332651
v -0.093750 1.788561 -0.177738
v -0.093750 1.923080 -0.353046
v 0.093750 1.923080 -0.353046
v -0.093750 1.943474 -0.198133
v 0.093750 1.943474 -0.198133
v -0.093750 1.788561 -0.177738
v 0.093750 1.788561 -0.177738
v -0.093750 1.768166 -0.332651
v 0.093750 1.768166 -0.332651
v -0.093750 1.943474 -0.198133
v 0.093750 1.943474 -0.198133
v -0.093750 1.788561 -0.177738
v 0.093750 1.788561 -0.177738
v 0.093750 1.923080 -0.353046
v -0.093750 1.923080 -0.353046
v 0.093750 1.768166 -0.332651
v -0.093750 1.768166 -0.332651
vn 1.0000 -0.0000 -0.0000
vn -1.0000 -0.0000 -0.0000
vn -0.0000 0.9914 -0.1305
vn -0.0000 -0.9914 0.1305
vn -0.0000 0.1305 0.9914
vn -0.0000 -0.1305 -0.9914
vt 0.437500 0.750000
vt 0.437500 0.734375
vt 0.453125 0.750000
vt 0.453125 0.734375
vt 0.484375 0.750000
vt 0.484375 0.734375
vt 0.500000 0.750000
vt 0.500000 0.734375
vt 0.484375 0.765625
vt 0.453125 0.765625
vt 0.515625 0.765625
vt 0.515625 0.750000
vt 0.531250 0.750000
vt 0.531250 0.734375
s 0
usemtl Material_0
f 73/34/19 75/35/19 74/36/19
f 75/35/19 76/37/19 74/36/19
f 77/38/20 79/39/20 78/40/20
f 79/39/20 80/41/20 78/40/20
f 81/38/21 83/42/21 82/36/21
f 83/42/21 84/43/21 82/36/21
f 85/44/22 87/45/22 86/42/22
f 87/45/22 88/38/22 86/42/22
f 89/40/23 91/41/23 90/46/23
f 91/41/23 92/47/23 90/46/23
f 93/36/24 95/37/24 94/38/24
f 95/37/24 96/39/24 94/38/24
o head.005
v 0.249995 1.999000 -0.256562
v 0.250000 1.999000 -0.256625
v 0.249995 1.438500 -0.256562
v 0.250000 1.438500 -0.256625
v -0.000045 1.999000 -0.278501
v -0.000050 1.999000 -0.278439
v -0.000045 1.438500 -0.278501
v -0.000050 1.438500 -0.278439
v -0.000045 1.999000 -0.278501
v 0.250000 1.999000 -0.256625
v -0.000050 1.999000 -0.278439
v 0.249995 1.999000 -0.256562
v -0.000050 1.438500 -0.278439
v 0.249995 1.438500 -0.256562
v -0.000045 1.438500 -0.278501
v 0.250000 1.438500 -0.256625
v -0.000050 1.999000 -0.278439
v 0.249995 1.999000 -0.256562
v -0.000050 1.438500 -0.278439
v 0.249995 1.438500 -0.256562
v 0.250000 1.999000 -0.256625
v -0.000045 1.999000 -0.278501
v 0.250000 1.438500 -0.256625
v -0.000045 1.438500 -0.278501
vn 0.9962 -0.0000 0.0872
vn -0.9962 -0.0000 -0.0872
vn -0.0000 1.0000 -0.0000
vn -0.0000 -1.0000 -0.0000
vn -0.0872 -0.0000 0.9962
vn 0.0872 -0.0000 -0.9962
vt 0.187500 1.000000
vt 0.187500 0.937500
vt 0.218750 1.000000
vt 0.218750 0.937500
vt 0.250000 1.000000
vt 0.250000 0.937500
s 0
usemtl Material_0
f 97/48/25 99/49/25 98/48/25
f 99/49/25 100/49/25 98/48/25
f 101/50/26 103/51/26 102/50/26
f 103/51/26 104/51/26 102/50/26
f 105/50/27 107/50/27 106/48/27
f 107/50/27 108/48/27 106/48/27
f 109/52/28 111/52/28 110/50/28
f 111/52/28 112/50/28 110/50/28
f 113/50/29 115/51/29 114/52/29
f 115/51/29 116/53/29 114/52/29
f 117/48/30 119/49/30 118/50/30
f 119/49/30 120/51/30 118/50/30
o head.006
v 0.000050 1.999000 -0.278439
v 0.000045 1.999000 -0.278501
v 0.000050 1.438500 -0.278439
v 0.000045 1.438500 -0.278501
v -0.250000 1.999000 -0.256625
v -0.249995 1.999000 -0.256562
v -0.250000 1.438500 -0.256625
v -0.249995 1.438500 -0.256562
v -0.250000 1.999000 -0.256625
v 0.000045 1.999000 -0.278501
v -0.249995 1.999000 -0.256562
v 0.000050 1.999000 -0.278439
v -0.249995 1.438500 -0.256562
v 0.000050 1.438500 -0.278439
v -0.250000 1.438500 -0.256625
v 0.000045 1.438500 -0.278501
v -0.249995 1.999000 -0.256562
v 0.000050 1.999000 -0.278439
v -0.249995 1.438500 -0.256562
v 0.000050 1.438500 -0.278439
v 0.000045 1.999000 -0.278501
v -0.250000 1.999000 -0.256625
v 0.000045 1.438500 -0.278501
v -0.250000 1.438500 -0.256625
vn 0.9962 -0.0000 -0.0872
vn -0.9962 -0.0000 0.0872
vn -0.0000 1.0000 -0.0000
vn -0.0000 -1.0000 -0.0000
vn 0.0872 -0.0000 0.9962
vn -0.0872 -0.0000 -0.9962
vt 0.000000 1.000000
vt 0.000000 0.937500
vt 0.031250 1.000000
vt 0.031250 0.937500
vt 0.062500 1.000000
vt 0.062500 0.937500
s 0
usemtl Material_0
f 121/54/31 123/55/31 122/54/31
f 123/55/31 124/55/31 122/54/31
f 125/56/32 127/57/32 126/56/32
f 127/57/32 128/57/32 126/56/32
f 129/56/33 131/56/33 130/54/33
f 131/56/33 132/54/33 130/54/33
f 133/58/34 135/58/34 134/56/34
f 135/58/34 136/56/34 134/56/34
f 137/56/35 139/57/35 138/58/35
f 139/57/35 140/59/35 138/58/35
f 141/54/36 143/55/36 142/56/36
f 143/55/36 144/57/36 142/56/36
o head.007
v 0.001921 1.871595 0.234375
v 0.001921 1.871595 -0.234375
v -0.141585 1.525140 0.234375
v -0.141585 1.525140 -0.234375
v -0.229049 1.967266 -0.234375
v -0.229049 1.967266 0.234375
v -0.372555 1.620811 -0.234375
v -0.372555 1.620811 0.234375
v -0.229049 1.967266 -0.234375
v 0.001921 1.871595 -0.234375
v -0.229049 1.967266 0.234375
v 0.001921 1.871595 0.234375
v -0.372555 1.620811 0.234375
v -0.141585 1.525140 0.234375
v -0.372555 1.620811 -0.234375
v -0.141585 1.525140 -0.234375
v -0.229049 1.967266 0.234375
v 0.001921 1.871595 0.234375
v -0.372555 1.620811 0.234375
v -0.141585 1.525140 0.234375
v 0.001921 1.871595 -0.234375
v -0.229049 1.967266 -0.234375
v -0.141585 1.525140 -0.234375
v -0.372555 1.620811 -0.234375
vn 0.9239 -0.3827 -0.0000
vn -0.9239 0.3827 -0.0000
vn 0.3827 0.9239 -0.0000
vn -0.3827 -0.9239 -0.0000
vn -0.0000 -0.0000 1.0000
vn -0.0000 -0.0000 -1.0000
vt 0.132812 0.718750
vt 0.132812 0.671875
vt 0.187500 0.718750
vt 0.187500 0.671875
vt 0.218750 0.718750
vt 0.218750 0.671875
vt 0.273438 0.718750
vt 0.273438 0.671875
vt 0.218750 0.773438
vt 0.187500 0.773438
vt 0.250000 0.773438
vt 0.250000 0.718750
vt 0.304688 0.718750
vt 0.304688 0.671875
s 0
usemtl Material_0
f 145/60/37 147/61/37 146/62/37
f 147/61/37 148/63/37 146/62/37
f 149/64/38 151/65/38 150/66/38
f 151/65/38 152/67/38 150/66/38
f 153/64/39 155/68/39 154/62/39
f 155/68/39 156/69/39 154/62/39
f 157/70/40 159/71/40 158/68/40
f 159/71/40 160/64/40 158/68/40
f 161/66/41 163/67/41 162/72/41
f 163/67/41 164/73/41 162/72/41
f 165/62/42 167/63/42 166/64/42
f 167/63/42 168/65/42 166/64/42
o head.008
v -0.027151 1.899186 -0.174875
v -0.027151 1.899186 -0.268625
v -0.260167 1.566405 -0.174875
v -0.260167 1.566405 -0.268625
v -0.257538 2.060504 -0.268625
v -0.257538 2.060504 -0.174875
v -0.490553 1.727724 -0.268625
v -0.490553 1.727724 -0.174875
v -0.257538 2.060504 -0.268625
v -0.027151 1.899186 -0.268625
v -0.257538 2.060504 -0.174875
v -0.027151 1.899186 -0.174875
v -0.490553 1.727724 -0.174875
v -0.260167 1.566405 -0.174875
v -0.490553 1.727724 -0.268625
v -0.260167 1.566405 -0.268625
v -0.257538 2.060504 -0.174875
v -0.027151 1.899186 -0.174875
v -0.490553 1.727724 -0.174875
v -0.260167 1.566405 -0.174875
v -0.027151 1.899186 -0.268625
v -0.257538 2.060504 -0.268625
v -0.260167 1.566405 -0.268625
v -0.490553 1.727724 -0.268625
vn 0.8192 -0.5736 -0.0000
vn -0.8192 0.5736 -0.0000
vn 0.5736 0.8192 -0.0000
vn -0.5736 -0.8192 -0.0000
vn -0.0000 -0.0000 1.0000
vn -0.0000 -0.0000 -1.0000
vt 0.117188 0.539062
vt 0.117188 0.492188
vt 0.125000 0.539062
vt 0.125000 0.492188
vt 0.156250 0.539062
vt 0.156250 0.492188
vt 0.164062 0.539062
vt 0.164062 0.492188
vt 0.156250 0.546875
vt 0.125000 0.546875
vt 0.187500 0.546875
vt 0.187500 0.539062
vt 0.195312 0.539062
vt 0.195312 0.492188
s 0
usemtl Material_0
f 169/74/43 171/75/43 170/76/43
f 171/75/43 172/77/43 170/76/43
f 173/78/44 175/79/44 174/80/44
f 175/79/44 176/81/44 174/80/44
f 177/78/45 179/82/45 178/76/45
f 179/82/45 180/83/45 178/76/45
f 181/84/46 183/85/46 182/82/46
f 183/85/46 184/78/46 182/82/46
f 185/80/47 187/81/47 186/86/47
f 187/81/47 188/87/47 186/86/47
f 189/76/48 191/77/48 190/78/48
f 191/77/48 192/79/48 190/78/48
o head.009
v 0.257538 2.060504 -0.174875
v 0.257538 2.060504 -0.268625
v 0.490553 1.727724 -0.174875
v 0.490553 1.727724 -0.268625
v 0.027151 1.899186 -0.268625
v 0.027151 1.899186 -0.174875
v 0.260167 1.566405 -0.268625
v 0.260167 1.566405 -0.174875
v 0.027151 1.899186 -0.268625
v 0.257538 2.060504 -0.268625
v 0.027151 1.899186 -0.174875
v 0.257538 2.060504 -0.174875
v 0.260167 1.566405 -0.174875
v 0.490553 1.727724 -0.174875
v 0.260167 1.566405 -0.268625
v 0.490553 1.727724 -0.268625
v 0.027151 1.899186 -0.174875
v 0.257538 2.060504 -0.174875
v 0.260167 1.566405 -0.174875
v 0.490553 1.727724 -0.174875
v 0.257538 2.060504 -0.268625
v 0.027151 1.899186 -0.268625
v 0.490553 1.727724 -0.268625
v 0.260167 1.566405 -0.268625
vn 0.8192 0.5736 -0.0000
vn -0.8192 -0.5736 -0.0000
vn -0.5736 0.8192 -0.0000
vn 0.5736 -0.8192 -0.0000
vn -0.0000 -0.0000 1.0000
vn -0.0000 -0.0000 -1.0000
vt 0.164062 0.539062
vt 0.164062 0.492188
vt 0.156250 0.539062
vt 0.156250 0.492188
vt 0.125000 0.539062
vt 0.125000 0.492188
vt 0.117188 0.539062
vt 0.117188 0.492188
vt 0.125000 0.546875
vt 0.156250 0.546875
vt 0.187500 0.546875
vt 0.187500 0.539062
vt 0.195312 0.539062
vt 0.195312 0.492188
s 0
usemtl Material_0
f 193/88/49 195/89/49 194/90/49
f 195/89/49 196/91/49 194/90/49
f 197/92/50 199/93/50 198/94/50
f 199/93/50 200/95/50 198/94/50
f 201/92/51 203/96/51 202/90/51
f 203/96/51 204/97/51 202/90/51
f 205/97/52 207/90/52 206/98/52
f 207/90/52 208/99/52 206/98/52
f 209/100/53 211/101/53 210/88/53
f 211/101/53 212/89/53 210/88/53
f 213/90/54 215/91/54 214/92/54
f 215/91/54 216/93/54 214/92/54
o head.010
v 0.229049 1.967266 0.234375
v 0.229049 1.967266 -0.234375
v 0.372555 1.620811 0.234375
v 0.372555 1.620811 -0.234375
v -0.001921 1.871595 -0.234375
v -0.001921 1.871595 0.234375
v 0.141585 1.525140 -0.234375
v 0.141585 1.525140 0.234375
v -0.001921 1.871595 -0.234375
v 0.229049 1.967266 -0.234375
v -0.001921 1.871595 0.234375
v 0.229049 1.967266 0.234375
v 0.141585 1.525140 0.234375
v 0.372555 1.620811 0.234375
v 0.141585 1.525140 -0.234375
v 0.372555 1.620811 -0.234375
v -0.001921 1.871595 0.234375
v 0.229049 1.967266 0.234375
v 0.141585 1.525140 0.234375
v 0.372555 1.620811 0.234375
v 0.229049 1.967266 -0.234375
v -0.001921 1.871595 -0.234375
v 0.372555 1.620811 -0.234375
v 0.141585 1.525140 -0.234375
vn 0.9239 0.3827 -0.0000
vn -0.9239 -0.3827 -0.0000
vn -0.3827 0.9239 -0.0000
vn 0.3827 -0.9239 -0.0000
vn -0.0000 -0.0000 1.0000
vn -0.0000 -0.0000 -1.0000
vt 0.187500 0.820312
vt 0.187500 0.773438
vt 0.242188 0.820312
vt 0.242188 0.773438
vt 0.273438 0.820312
vt 0.273438 0.773438
vt 0.328125 0.820312
vt 0.328125 0.773438
vt 0.273438 0.875000
vt 0.242188 0.875000
vt 0.304688 0.875000
vt 0.304688 0.820312
vt 0.359375 0.820312
vt 0.359375 0.773438
s 0
usemtl Material_0
f 217/102/55 219/103/55 218/104/55
f 219/103/55 220/105/55 218/104/55
f 221/106/56 223/107/56 222/108/56
f 223/107/56 224/109/56 222/108/56
f 225/106/57 227/110/57 226/104/57
f 227/110/57 228/111/57 226/104/57
f 229/112/58 231/113/58 230/110/58
f 231/113/58 232/106/58 230/110/58
f 233/108/59 235/109/59 234/114/59
f 235/109/59 236/115/59 234/114/59
f 237/104/60 239/105/60 238/106/60
f 239/105/60 240/107/60 238/106/60
o body.001
v 0.256250 1.506250 0.131250
v 0.256250 1.506250 -0.131250
v 0.256250 0.743750 0.131250
v 0.256250 0.743750 -0.131250
v -0.256250 1.506250 -0.131250
v -0.256250 1.506250 0.131250
v -0.256250 0.743750 -0.131250
v -0.256250 0.743750 0.131250
v -0.256250 1.506250 -0.131250
v 0.256250 1.506250 -0.131250
v -0.256250 1.506250 0.131250
v 0.256250 1.506250 0.131250
v -0.256250 0.743750 0.131250
v 0.256250 0.743750 0.131250
v -0.256250 0.743750 -0.131250
v 0.256250 0.743750 -0.131250
v -0.256250 1.506250 0.131250
v 0.256250 1.506250 0.131250
v -0.256250 0.743750 0.131250
v 0.256250 0.743750 0.131250
v 0.256250 1.506250 -0.131250
v -0.256250 1.506250 -0.131250
v 0.256250 0.743750 -0.131250
v -0.256250 0.743750 -0.131250
vn 1.0000 -0.0000 -0.0000
vn -1.0000 -0.0000 -0.0000
vn -0.0000 1.0000 -0.0000
vn -0.0000 -1.0000 -0.0000
vn -0.0000 -0.0000 1.0000
vn -0.0000 -0.0000 -1.0000
vt 0.000000 0.843750
vt 0.000000 0.750000
vt 0.031250 0.843750
vt 0.031250 0.750000
vt 0.093750 0.843750
vt 0.093750 0.750000
vt 0.125000 0.843750
vt 0.125000 0.750000
vt 0.093750 0.875000
vt 0.031250 0.875000
vt 0.156250 0.875000
vt 0.156250 0.843750
vt 0.187500 0.843750
vt 0.187500 0.750000
s 0
usemtl Material_0
f 241/116/61 243/117/61 242/118/61
f 243/117/61 244/119/61 242/118/61
f 245/120/62 247/121/62 246/122/62
f 247/121/62 248/123/62 246/122/62
f 249/120/63 251/124/63 250/118/63
f 251/124/63 252/125/63 250/118/63
f 253/126/64 255/127/64 254/124/64
f 255/127/64 256/120/64 254/124/64
f 257/122/65 259/123/65 258/128/65
f 259/123/65 260/129/65 258/128/65
f 261/118/66 263/119/66 262/120/66
f 263/119/66 264/121/66 262/120/66
o body.002
v 0.254705 1.500000 0.109819
v 0.265610 1.500000 -0.139943
v 0.254705 0.859375 0.109819
v 0.265610 0.859375 -0.139943
v -0.000250 1.500000 -0.151551
v -0.011154 1.500000 0.098211
v -0.000250 0.859375 -0.151551
v -0.011154 0.859375 0.098211
v -0.000250 1.500000 -0.151551
v 0.265610 1.500000 -0.139943
v -0.011154 1.500000 0.098211
v 0.254705 1.500000 0.109819
v -0.011154 0.859375 0.098211
v 0.254705 0.859375 0.109819
v -0.000250 0.859375 -0.151551
v 0.265610 0.859375 -0.139943
v -0.011154 1.500000 0.098211
v 0.254705 1.500000 0.109819
v -0.011154 0.859375 0.098211
v 0.254705 0.859375 0.109819
v 0.265610 1.500000 -0.139943
v -0.000250 1.500000 -0.151551
v 0.265610 0.859375 -0.139943
v -0.000250 0.859375 -0.151551
vn 0.9990 -0.0000 0.0436
vn -0.9990 -0.0000 -0.0436
vn -0.0000 1.0000 -0.0000
vn -0.0000 -1.0000 -0.0000
vn -0.0436 -0.0000 0.9990
vn 0.0436 -0.0000 -0.9990
vt 0.523438 0.656250
vt 0.523438 0.578125
vt 0.554688 0.656250
vt 0.554688 0.578125
vt 0.500000 0.578125
vt 0.500000 0.500000
vt 0.531250 0.578125
vt 0.531250 0.500000
vt 0.281250 0.968750
vt 0.281250 1.000000
vt 0.250000 0.968750
vt 0.250000 1.000000
vt 0.156250 0.671875
vt 0.156250 0.640625
vt 0.125000 0.671875
vt 0.125000 0.640625
vt 0.492188 0.656250
vt 0.492188 0.578125
vt 0.468750 0.546875
vt 0.468750 0.468750
vt 0.500000 0.546875
vt 0.500000 0.468750
s 0
usemtl Material_0
f 265/130/67 267/131/67 266/132/67
f 267/131/67 268/133/67 266/132/67
f 269/134/68 271/135/68 270/136/68
f 271/135/68 272/137/68 270/136/68
f 273/138/69 275/139/69 274/140/69
f 275/139/69 276/141/69 274/140/69
f 277/142/70 279/143/70 278/144/70
f 279/143/70 280/145/70 278/144/70
f 281/146/71 283/147/71 282/130/71
f 283/147/71 284/131/71 282/130/71
f 285/148/72 287/149/72 286/150/72
f 287/149/72 288/151/72 286/150/72
o body.003
v 0.011399 1.500000 0.098200
v 0.000494 1.500000 -0.151562
v 0.011399 0.859375 0.098200
v 0.000494 0.859375 -0.151562
v -0.265610 1.500000 -0.139943
v -0.254705 1.500000 0.109819
v -0.265610 0.859375 -0.139943
v -0.254705 0.859375 0.109819
v -0.265610 1.500000 -0.139943
v 0.000494 1.500000 -0.151562
v -0.254705 1.500000 0.109819
v 0.011399 1.500000 0.098200
v -0.254705 0.859375 0.109819
v 0.011399 0.859375 0.098200
v -0.265610 0.859375 -0.139943
v 0.000494 0.859375 -0.151562
v -0.254705 1.500000 0.109819
v 0.011399 1.500000 0.098200
v -0.254705 0.859375 0.109819
v 0.011399 0.859375 0.098200
v 0.000494 1.500000 -0.151562
v -0.265610 1.500000 -0.139943
v 0.000494 0.859375 -0.151562
v -0.265610 0.859375 -0.139943
vn 0.9990 -0.0000 -0.0436
vn -0.9990 -0.0000 0.0436
vn -0.0000 1.0000 -0.0000
vn -0.0000 -1.0000 -0.0000
vn 0.0436 -0.0000 0.9990
vn -0.0436 -0.0000 -0.9990
vt 0.000000 0.539062
vt 0.000000 0.460938
vt 0.031250 0.539062
vt 0.031250 0.460938
vt 0.062500 0.539062
vt 0.062500 0.460938
vt 0.093750 0.539062
vt 0.093750 0.460938
vt 0.031250 0.843750
vt 0.031250 0.875000
vt 0.000000 0.843750
vt 0.000000 0.875000
vt 0.031250 0.750000
vt 0.031250 0.718750
vt 0.000000 0.750000
vt 0.000000 0.718750
vt 0.406250 0.820312
vt 0.406250 0.742188
vt 0.437500 0.820312
vt 0.437500 0.742188
s 0
usemtl Material_0
f 289/152/73 291/153/73 290/154/73
f 291/153/73 292/155/73 290/154/73
f 293/156/74 295/157/74 294/158/74
f 295/157/74 296/159/74 294/158/74
f 297/160/75 299/161/75 298/162/75
f 299/161/75 300/163/75 298/162/75
f 301/164/76 303/165/76 302/166/76
f 303/165/76 304/167/76 302/166/76
f 305/154/77 307/155/77 306/156/77
f 307/155/77 308/157/77 306/156/77
f 309/168/78 311/169/78 310/170/78
f 311/169/78 312/171/78 310/170/78
o body.004
v 0.265610 1.500000 0.139943
v 0.254705 1.500000 -0.109819
v 0.265610 0.859375 0.139943
v 0.254705 0.859375 -0.109819
v -0.011154 1.500000 -0.098211
v -0.000250 1.500000 0.151551
v -0.011154 0.859375 -0.098211
v -0.000250 0.859375 0.151551
v -0.011154 1.500000 -0.098211
v 0.254705 1.500000 -0.109819
v -0.000250 1.500000 0.151551
v 0.265610 1.500000 0.139943
v -0.000250 0.859375 0.151551
v 0.265610 0.859375 0.139943
v -0.011154 0.859375 -0.098211
v 0.254705 0.859375 -0.109819
v -0.000250 1.500000 0.151551
v 0.265610 1.500000 0.139943
v -0.000250 0.859375 0.151551
v 0.265610 0.859375 0.139943
v 0.254705 1.500000 -0.109819
v -0.011154 1.500000 -0.098211
v 0.254705 0.859375 -0.109819
v -0.011154 0.859375 -0.098211
vn 0.9990 -0.0000 -0.0436
vn -0.9990 -0.0000 0.0436
vn -0.0000 1.0000 -0.0000
vn -0.0000 -1.0000 -0.0000
vn 0.0436 -0.0000 0.9990
vn -0.0436 -0.0000 -0.9990
vt 0.195312 0.492188
vt 0.195312 0.410156
vt 0.226562 0.492188
vt 0.226562 0.410156
vt 0.257812 0.492188
vt 0.257812 0.410156
vt 0.433594 0.609375
vt 0.433594 0.640625
vt 0.398438 0.609375
vt 0.398438 0.640625
vt 0.472656 0.820312
vt 0.472656 0.789062
vt 0.437500 0.820312
vt 0.437500 0.789062
vt 0.093750 0.492188
vt 0.093750 0.410156
vt 0.128906 0.492188
vt 0.128906 0.410156
vt 0.500000 0.500000
vt 0.500000 0.417969
vt 0.535156 0.500000
vt 0.535156 0.417969
s 0
usemtl Material_0
f 313/172/79 315/173/79 314/174/79
f 315/173/79 316/175/79 314/174/79
f 317/174/80 319/175/80 318/176/80
f 319/175/80 320/177/80 318/176/80
f 321/178/81 323/179/81 322/180/81
f 323/179/81 324/181/81 322/180/81
f 325/182/82 327/183/82 326/184/82
f 327/183/82 328/185/82 326/184/82
f 329/186/83 331/187/83 330/188/83
f 331/187/83 332/189/83 330/188/83
f 333/190/84 335/191/84 334/192/84
f 335/191/84 336/193/84 334/192/84
o body.005
v 0.000494 1.500000 0.151562
v 0.011399 1.500000 -0.098200
v 0.000494 0.859375 0.151562
v 0.011399 0.859375 -0.098200
v -0.254705 1.500000 -0.109819
v -0.265610 1.500000 0.139943
v -0.254705 0.859375 -0.109819
v -0.265610 0.859375 0.139943
v -0.254705 1.500000 -0.109819
v 0.011399 1.500000 -0.098200
v -0.265610 1.500000 0.139943
v 0.000494 1.500000 0.151562
v -0.265610 0.859375 0.139943
v 0.000494 0.859375 0.151562
v -0.254705 0.859375 -0.109819
v 0.011399 0.859375 -0.098200
v -0.265610 1.500000 0.139943
v 0.000494 1.500000 0.151562
v -0.265610 0.859375 0.139943
v 0.000494 0.859375 0.151562
v 0.011399 1.500000 -0.098200
v -0.254705 1.500000 -0.109819
v 0.011399 0.859375 -0.098200
v -0.254705 0.859375 -0.109819
vn 0.9990 -0.0000 0.0436
vn -0.9990 -0.0000 -0.0436
vn -0.0000 1.0000 -0.0000
vn -0.0000 -1.0000 -0.0000
vn -0.0436 -0.0000 0.9990
vn 0.0436 -0.0000 -0.9990
vt 0.132812 0.492188
vt 0.132812 0.410156
vt 0.164062 0.492188
vt 0.164062 0.410156
vt 0.195312 0.492188
vt 0.195312 0.410156
vt 0.253906 0.640625
vt 0.253906 0.671875
vt 0.218750 0.640625
vt 0.218750 0.671875
vt 0.402344 0.726562
vt 0.402344 0.695312
vt 0.367188 0.726562
vt 0.367188 0.695312
vt 0.351562 0.546875
vt 0.351562 0.464844
vt 0.386719 0.546875
vt 0.386719 0.464844
vt 0.312500 0.578125
vt 0.312500 0.496094
vt 0.347656 0.578125
vt 0.347656 0.496094
s 0
usemtl Material_0
f 337/194/85 339/195/85 338/196/85
f 339/195/85 340/197/85 338/196/85
f 341/196/86 343/197/86 342/198/86
f 343/197/86 344/199/86 342/198/86
f 345/200/87 347/201/87 346/202/87
f 347/201/87 348/203/87 346/202/87
f 349/204/88 351/205/88 350/206/88
f 351/205/88 352/207/88 350/206/88
f 353/208/89 355/209/89 354/210/89
f 355/209/89 356/211/89 354/210/89
f 357/212/90 359/213/90 358/214/90
f 359/213/90 360/215/90 358/214/90
o body.006
v 0.265625 0.875000 0.140625
v 0.265625 0.875000 -0.140625
v 0.265625 0.750000 0.140625
v 0.265625 0.750000 -0.140625
v -0.265625 0.875000 -0.140625
v -0.265625 0.875000 0.140625
v -0.265625 0.750000 -0.140625
v -0.265625 0.750000 0.140625
v -0.265625 0.875000 -0.140625
v 0.265625 0.875000 -0.140625
v -0.265625 0.875000 0.140625
v 0.265625 0.875000 0.140625
v -0.265625 0.750000 0.140625
v 0.265625 0.750000 0.140625
v -0.265625 0.750000 -0.140625
v 0.265625 0.750000 -0.140625
v -0.265625 0.875000 0.140625
v 0.265625 0.875000 0.140625
v -0.265625 0.750000 0.140625
v 0.265625 0.750000 0.140625
v 0.265625 0.875000 -0.140625
v -0.265625 0.875000 -0.140625
v 0.265625 0.750000 -0.140625
v -0.265625 0.750000 -0.140625
vn 1.0000 -0.0000 -0.0000
vn -1.0000 -0.0000 -0.0000
vn -0.0000 1.0000 -0.0000
vn -0.0000 -1.0000 -0.0000
vn -0.0000 -0.0000 1.0000
vn -0.0000 -0.0000 -1.0000
vt 0.250000 0.742188
vt 0.250000 0.726562
vt 0.281250 0.742188
vt 0.281250 0.726562
vt 0.343750 0.742188
vt 0.343750 0.726562
vt 0.375000 0.742188
vt 0.375000 0.726562
vt 0.343750 0.773438
vt 0.281250 0.773438
vt 0.406250 0.773438
vt 0.406250 0.742188
vt 0.437500 0.742188
vt 0.437500 0.726562
s 0
usemtl Material_0
f 361/216/91 363/217/91 362/218/91
f 363/217/91 364/219/91 362/218/91
f 365/220/92 367/221/92 366/222/92
f 367/221/92 368/223/92 366/222/92
f 369/220/93 371/224/93 370/218/93
f 371/224/93 372/225/93 370/218/93
f 373/226/94 375/227/94 374/224/94
f 375/227/94 376/220/94 374/224/94
f 377/222/95 379/223/95 378/228/95
f 379/223/95 380/229/95 378/228/95
f 381/218/96 383/219/96 382/220/96
f 383/219/96 384/221/96 382/220/96
o body.007
v 0.260862 0.808176 -0.089611
v 0.265681 0.842156 -0.176854
v 0.338014 0.585182 -0.172203
v 0.342833 0.619162 -0.259445
v 0.176638 0.816824 -0.191639
v 0.171819 0.782844 -0.104396
v 0.253790 0.593830 -0.274230
v 0.248971 0.559851 -0.186988
v 0.176638 0.816824 -0.191639
v 0.265681 0.842156 -0.176854
v 0.171819 0.782844 -0.104396
v 0.260862 0.808176 -0.089611
v 0.248971 0.559851 -0.186988
v 0.338014 0.585182 -0.172203
v 0.253790 0.593830 -0.274230
v 0.342833 0.619162 -0.259445
v 0.171819 0.782844 -0.104396
v 0.260862 0.808176 -0.089611
v 0.248971 0.559851 -0.186988
v 0.338014 0.585182 -0.172203
v 0.265681 0.842156 -0.176854
v 0.176638 0.816824 -0.191639
v 0.342833 0.619162 -0.259445
v 0.253790 0.593830 -0.274230
vn 0.9498 0.2702 0.1577
vn -0.9498 -0.2702 -0.1577
vn -0.3086 0.8920 0.3304
vn 0.3086 -0.8920 -0.3304
vn -0.0514 -0.3625 0.9306
vn 0.0514 0.3625 -0.9306
vt 0.359375 0.812500
vt 0.359375 0.781250
vt 0.367188 0.812500
vt 0.367188 0.781250
vt 0.375000 0.812500
vt 0.375000 0.781250
vt 0.382812 0.812500
vt 0.382812 0.781250
vt 0.375000 0.820312
vt 0.367188 0.820312
vt 0.382812 0.820312
vt 0.390625 0.812500
vt 0.390625 0.781250
s 0
usemtl Material_0
f 385/230/97 387/231/97 386/232/97
f 387/231/97 388/233/97 386/232/97
f 389/234/98 391/235/98 390/236/98
f 391/235/98 392/237/98 390/236/98
f 393/234/99 395/238/99 394/232/99
f 395/238/99 396/239/99 394/232/99
f 397/240/100 399/236/100 398/238/100
f 399/236/100 400/234/100 398/238/100
f 401/236/101 403/237/101 402/241/101
f 403/237/101 404/242/101 402/241/101
f 405/232/102 407/233/102 406/234/102
f 407/233/102 408/235/102 406/234/102
o body.008
v 0.253231 0.804146 -0.138580
v 0.191649 0.829489 -0.204568
v 0.224817 0.564558 -0.204080
v 0.163236 0.589901 -0.270068
v 0.121769 0.820854 -0.142670
v 0.183351 0.795511 -0.076682
v 0.093356 0.581267 -0.208171
v 0.154937 0.555923 -0.142183
v 0.121769 0.820854 -0.142670
v 0.191649 0.829489 -0.204568
v 0.183351 0.795511 -0.076682
v 0.253231 0.804146 -0.138580
v 0.154937 0.555923 -0.142183
v 0.224817 0.564558 -0.204080
v 0.093356 0.581267 -0.208171
v 0.163236 0.589901 -0.270068
v 0.183351 0.795511 -0.076682
v 0.253231 0.804146 -0.138580
v 0.154937 0.555923 -0.142183
v 0.224817 0.564558 -0.204080
v 0.191649 0.829489 -0.204568
v 0.121769 0.820854 -0.142670
v 0.163236 0.589901 -0.270068
v 0.093356 0.581267 -0.208171
vn 0.7454 0.0921 -0.6602
vn -0.7454 -0.0921 0.6602
vn 0.1137 0.9584 0.2620
vn -0.1137 -0.9584 -0.2620
vn 0.6569 -0.2703 0.7039
vn -0.6569 0.2703 -0.7039
vt 0.304688 0.867188
vt 0.304688 0.835938
vt 0.312500 0.867188
vt 0.312500 0.835938
vt 0.320312 0.867188
vt 0.320312 0.835938
vt 0.328125 0.867188
vt 0.328125 0.835938
vt 0.320312 0.875000
vt 0.312500 0.875000
vt 0.328125 0.875000
vt 0.335938 0.867188
vt 0.335938 0.835938
s 0
usemtl Material_0
f 409/243/103 411/244/103 410/245/103
f 411/244/103 412/246/103 410/245/103
f 413/247/104 415/248/104 414/249/104
f 415/248/104 416/250/104 414/249/104
f 417/247/105 419/251/105 418/245/105
f 419/251/105 420/252/105 418/245/105
f 421/253/106 423/249/106 422/251/106
f 423/249/106 424/247/106 422/251/106
f 425/249/107 427/250/107 426/254/107
f 427/250/107 428/255/107 426/254/107
f 429/245/108 431/246/108 430/247/108
f 431/246/108 432/248/108 430/247/108
o body.009
v 0.312600 0.833479 -0.120181
v 0.213405 0.869582 -0.235380
v 0.269847 0.716017 -0.120181
v 0.170652 0.752121 -0.235380
v 0.105153 0.908983 -0.129819
v 0.204348 0.872879 -0.014620
v 0.062400 0.791521 -0.129819
v 0.161595 0.755418 -0.014620
v 0.105153 0.908983 -0.129819
v 0.213405 0.869582 -0.235380
v 0.204348 0.872879 -0.014620
v 0.312600 0.833479 -0.120181
v 0.161595 0.755418 -0.014620
v 0.269847 0.716017 -0.120181
v 0.062400 0.791521 -0.129819
v 0.170652 0.752121 -0.235380
v 0.204348 0.872879 -0.014620
v 0.312600 0.833479 -0.120181
v 0.161595 0.755418 -0.014620
v 0.269847 0.716017 -0.120181
v 0.213405 0.869582 -0.235380
v 0.105153 0.908983 -0.129819
v 0.170652 0.752121 -0.235380
v 0.062400 0.791521 -0.129819
vn 0.6928 -0.2522 -0.6756
vn -0.6928 0.2522 0.6756
vn 0.3420 0.9397 -0.0000
vn -0.3420 -0.9397 -0.0000
vn 0.6348 -0.2311 0.7373
vn -0.6348 0.2311 -0.7373
vt 0.093750 0.734375
vt 0.093750 0.718750
vt 0.109375 0.734375
vt 0.109375 0.718750
vt 0.125000 0.734375
vt 0.125000 0.718750
vt 0.140625 0.734375
vt 0.140625 0.718750
vt 0.125000 0.750000
vt 0.109375 0.750000
vt 0.140625 0.750000
vt 0.156250 0.734375
vt 0.156250 0.718750
s 0
usemtl Material_0
f 433/256/109 435/257/109 434/258/109
f 435/257/109 436/259/109 434/258/109
f 437/260/110 439/261/110 438/262/110
f 439/261/110 440/263/110 438/262/110
f 441/260/111 443/264/111 442/258/111
f 443/264/111 444/265/111 442/258/111
f 445/266/112 447/262/112 446/264/112
f 447/262/112 448/260/112 446/264/112
f 449/262/113 451/263/113 450/267/113
f 451/263/113 452/268/113 450/267/113
f 453/258/114 455/259/114 454/260/114
f 455/259/114 456/261/114 454/260/114
o body.010
v 0.262294 0.973687 -0.081448
v 0.120155 0.976069 -0.146292
v 0.299759 0.890236 -0.166638
v 0.157620 0.892618 -0.231482
v 0.075241 0.859764 -0.052112
v 0.217380 0.857382 0.012732
v 0.112706 0.776313 -0.137302
v 0.254845 0.773931 -0.072458
v 0.075241 0.859764 -0.052112
v 0.120155 0.976069 -0.146292
v 0.217380 0.857382 0.012732
v 0.262294 0.973687 -0.081448
v 0.254845 0.773931 -0.072458
v 0.299759 0.890236 -0.166638
v 0.112706 0.776313 -0.137302
v 0.157620 0.892618 -0.231482
v 0.217380 0.857382 0.012732
v 0.262294 0.973687 -0.081448
v 0.254845 0.773931 -0.072458
v 0.299759 0.890236 -0.166638
v 0.120155 0.976069 -0.146292
v 0.075241 0.859764 -0.052112
v 0.157620 0.892618 -0.231482
v 0.112706 0.776313 -0.137302
vn 0.2875 0.7444 -0.6028
vn -0.2875 -0.7444 0.6028
vn -0.2997 0.6676 0.6815
vn 0.2997 -0.6676 -0.6815
vn 0.9097 -0.0152 0.4150
vn -0.9097 0.0152 -0.4150
vt 0.156250 0.859375
vt 0.156250 0.843750
vt 0.171875 0.859375
vt 0.171875 0.843750
vt 0.187500 0.859375
vt 0.187500 0.843750
vt 0.203125 0.859375
vt 0.203125 0.843750
vt 0.187500 0.875000
vt 0.171875 0.875000
vt 0.203125 0.875000
vt 0.218750 0.859375
vt 0.218750 0.843750
s 0
usemtl Material_0
f 457/269/115 459/270/115 458/271/115
f 459/270/115 460/272/115 458/271/115
f 461/273/116 463/274/116 462/275/116
f 463/274/116 464/276/116 462/275/116
f 465/273/117 467/277/117 466/271/117
f 467/277/117 468/278/117 466/271/117
f 469/279/118 471/275/118 470/277/118
f 471/275/118 472/273/118 470/277/118
f 473/275/119 475/276/119 474/280/119
f 475/276/119 476/281/119 474/280/119
f 477/271/120 479/272/120 478/273/120
f 479/272/120 480/274/120 478/273/120
o body.011
v -0.128209 0.769623 0.131625
v -0.128209 0.769623 -0.131625
v -0.226283 0.327239 0.131625
v -0.226283 0.327239 -0.131625
v -0.250246 0.796678 -0.131625
v -0.250246 0.796678 0.131625
v -0.348320 0.354294 -0.131625
v -0.348320 0.354294 0.131625
v -0.250246 0.796678 -0.131625
v -0.128209 0.769623 -0.131625
v -0.250246 0.796678 0.131625
v -0.128209 0.769623 0.131625
v -0.348320 0.354294 0.131625
v -0.226283 0.327239 0.131625
v -0.348320 0.354294 -0.131625
v -0.226283 0.327239 -0.131625
v -0.250246 0.796678 0.131625
v -0.128209 0.769623 0.131625
v -0.348320 0.354294 0.131625
v -0.226283 0.327239 0.131625
v -0.128209 0.769623 -0.131625
v -0.250246 0.796678 -0.131625
v -0.226283 0.327239 -0.131625
v -0.348320 0.354294 -0.131625
vn 0.9763 -0.2164 -0.0000
vn -0.9763 0.2164 -0.0000
vn 0.2164 0.9763 -0.0000
vn -0.2164 -0.9763 -0.0000
vn -0.0000 -0.0000 1.0000
vn -0.0000 -0.0000 -1.0000
vt 0.218750 0.546875
vt 0.218750 0.492188
vt 0.250000 0.546875
vt 0.250000 0.492188
vt 0.265625 0.546875
vt 0.265625 0.492188
vt 0.296875 0.546875
vt 0.296875 0.492188
vt 0.265625 0.578125
vt 0.250000 0.578125
vt 0.281250 0.578125
vt 0.281250 0.546875
vt 0.312500 0.546875
vt 0.312500 0.492188
s 0
usemtl Material_0
f 481/282/121 483/283/121 482/284/121
f 483/283/121 484/285/121 482/284/121
f 485/286/122 487/287/122 486/288/122
f 487/287/122 488/289/122 486/288/122
f 489/286/123 491/290/123 490/284/123
f 491/290/123 492/291/123 490/284/123
f 493/292/124 495/293/124 494/290/124
f 495/293/124 496/286/124 494/290/124
f 497/288/125 499/289/125 498/294/125
f 499/289/125 500/295/125 498/294/125
f 501/284/126 503/285/126 502/286/126
f 503/285/126 504/287/126 502/286/126
o body.012
v 0.250246 0.796678 0.131625
v 0.250246 0.796678 -0.131625
v 0.348320 0.354294 0.131625
v 0.348320 0.354294 -0.131625
v 0.128209 0.769623 -0.131625
v 0.128209 0.769623 0.131625
v 0.226283 0.327239 -0.131625
v 0.226283 0.327239 0.131625
v 0.128209 0.769623 -0.131625
v 0.250246 0.796678 -0.131625
v 0.128209 0.769623 0.131625
v 0.250246 0.796678 0.131625
v 0.226283 0.327239 0.131625
v 0.348320 0.354294 0.131625
v 0.226283 0.327239 -0.131625
v 0.348320 0.354294 -0.131625
v 0.128209 0.769623 0.131625
v 0.250246 0.796678 0.131625
v 0.226283 0.327239 0.131625
v 0.348320 0.354294 0.131625
v 0.250246 0.796678 -0.131625
v 0.128209 0.769623 -0.131625
v 0.348320 0.354294 -0.131625
v 0.226283 0.327239 -0.131625
vn 0.9763 0.2164 -0.0000
vn -0.9763 -0.2164 -0.0000
vn -0.2164 0.9763 -0.0000
vn 0.2164 -0.9763 -0.0000
vn -0.0000 -0.0000 1.0000
vn -0.0000 -0.0000 -1.0000
vt 0.398438 0.695312
vt 0.398438 0.640625
vt 0.429688 0.695312
vt 0.429688 0.640625
vt 0.445312 0.695312
vt 0.445312 0.640625
vt 0.476562 0.695312
vt 0.476562 0.640625
vt 0.445312 0.726562
vt 0.429688 0.726562
vt 0.460938 0.726562
vt 0.460938 0.695312
vt 0.492188 0.695312
vt 0.492188 0.640625
s 0
usemtl Material_0
f 505/296/127 507/297/127 506/298/127
f 507/297/127 508/299/127 506/298/127
f 509/300/128 511/301/128 510/302/128
f 511/301/128 512/303/128 510/302/128
f 513/300/129 515/304/129 514/298/129
f 515/304/129 516/305/129 514/298/129
f 517/306/130 519/307/130 518/304/130
f 519/307/130 520/300/130 518/304/130
f 521/302/131 523/303/131 522/308/131
f 523/303/131 524/309/131 522/308/131
f 525/298/132 527/299/132 526/300/132
f 527/299/132 528/301/132 526/300/132
o body.013
v 0.156250 0.780740 -0.118937
v 0.156250 0.781720 -0.130144
v 0.156250 0.344905 -0.157067
v 0.156250 0.345885 -0.168275
v -0.156250 0.781720 -0.130144
v -0.156250 0.780740 -0.118937
v -0.156250 0.345885 -0.168275
v -0.156250 0.344905 -0.157067
v -0.156250 0.781720 -0.130144
v 0.156250 0.781720 -0.130144
v -0.156250 0.780740 -0.118937
v 0.156250 0.780740 -0.118937
v -0.156250 0.344905 -0.157067
v 0.156250 0.344905 -0.157067
v -0.156250 0.345885 -0.168275
v 0.156250 0.345885 -0.168275
v -0.156250 0.780740 -0.118937
v 0.156250 0.780740 -0.118937
v -0.156250 0.344905 -0.157067
v 0.156250 0.344905 -0.157067
v 0.156250 0.781720 -0.130144
v -0.156250 0.781720 -0.130144
v 0.156250 0.345885 -0.168275
v -0.156250 0.345885 -0.168275
vn 1.0000 -0.0000 -0.0000
vn -1.0000 -0.0000 -0.0000
vn -0.0000 0.9962 0.0872
vn -0.0000 -0.9962 -0.0872
vn -0.0000 -0.0872 0.9962
vn -0.0000 0.0872 -0.9962
vt 0.390625 0.546875
vt 0.390625 0.492188
vt 0.394531 0.546875
vt 0.394531 0.492188
vt 0.429688 0.546875
vt 0.429688 0.492188
vt 0.425781 0.546875
vt 0.425781 0.492188
vt 0.601562 0.707031
vt 0.601562 0.703125
vt 0.562500 0.707031
vt 0.562500 0.703125
vt 0.468750 0.546875
vt 0.468750 0.492188
s 0
usemtl Material_0
f 529/310/133 531/311/133 530/312/133
f 531/311/133 532/313/133 530/312/133
f 533/314/134 535/315/134 534/316/134
f 535/315/134 536/317/134 534/316/134
f 537/314/135 539/314/135 538/310/135
f 539/314/135 540/310/135 538/310/135
f 541/318/136 543/319/136 542/320/136
f 543/319/136 544/321/136 542/320/136
f 545/314/137 547/315/137 546/322/137
f 547/315/137 548/323/137 546/322/137
f 549/310/138 551/311/138 550/314/138
f 551/311/138 552/315/138 550/314/138
o body.014
v 0.148092 0.406721 -0.152663
v 0.148092 0.407527 -0.161878
v 0.156250 0.344992 -0.158064
v 0.156250 0.345798 -0.167278
v -0.008061 0.387048 -0.163670
v -0.008061 0.386242 -0.154455
v 0.000097 0.325318 -0.169070
v 0.000097 0.324512 -0.159855
v -0.008061 0.387048 -0.163670
v 0.148092 0.407527 -0.161878
v -0.008061 0.386242 -0.154455
v 0.148092 0.406721 -0.152663
v 0.000097 0.324512 -0.159855
v 0.156250 0.344992 -0.158064
v 0.000097 0.325318 -0.169070
v 0.156250 0.345798 -0.167278
v -0.008061 0.386242 -0.154455
v 0.148092 0.406721 -0.152663
v 0.000097 0.324512 -0.159855
v 0.156250 0.344992 -0.158064
v 0.148092 0.407527 -0.161878
v -0.008061 0.387048 -0.163670
v 0.156250 0.345798 -0.167278
v 0.000097 0.325318 -0.169070
vn 0.9914 0.1300 0.0114
vn -0.9914 -0.1300 -0.0114
vn -0.1305 0.9877 0.0864
vn 0.1305 -0.9877 -0.0864
vn -0.0000 -0.0872 0.9962
vn -0.0000 0.0872 -0.9962
vt 0.250000 0.773438
vt 0.250000 0.765625
vt 0.265625 0.773438
vt 0.265625 0.765625
vt 0.578125 0.718750
vt 0.578125 0.714844
vt 0.562500 0.718750
vt 0.562500 0.714844
vt 0.281250 0.773438
vt 0.281250 0.765625
s 0
usemtl Material_0
f 553/324/139 555/325/139 554/324/139
f 555/325/139 556/325/139 554/324/139
f 557/326/140 559/327/140 558/326/140
f 559/327/140 560/327/140 558/326/140
f 561/326/141 563/326/141 562/324/141
f 563/326/141 564/324/141 562/324/141
f 565/328/142 567/329/142 566/330/142
f 567/329/142 568/331/142 566/330/142
f 569/326/143 571/327/143 570/332/143
f 571/327/143 572/333/143 570/332/143
f 573/324/144 575/325/144 574/326/144
f 575/325/144 576/327/144 574/326/144
o body.015
v 0.008061 0.386242 -0.154455
v 0.008061 0.387048 -0.163670
v -0.000097 0.324512 -0.159855
v -0.000097 0.325318 -0.169070
v -0.148092 0.407527 -0.161878
v -0.148092 0.406721 -0.152663
v -0.156250 0.345798 -0.167278
v -0.156250 0.344992 -0.158064
v -0.148092 0.407527 -0.161878
v 0.008061 0.387048 -0.163670
v -0.148092 0.406721 -0.152663
v 0.008061 0.386242 -0.154455
v -0.156250 0.344992 -0.158064
v -0.000097 0.324512 -0.159855
v -0.156250 0.345798 -0.167278
v -0.000097 0.325318 -0.169070
v -0.148092 0.406721 -0.152663
v 0.008061 0.386242 -0.154455
v -0.156250 0.344992 -0.158064
v -0.000097 0.324512 -0.159855
v 0.008061 0.387048 -0.163670
v -0.148092 0.407527 -0.161878
v -0.000097 0.325318 -0.169070
v -0.156250 0.345798 -0.167278
vn 0.9914 -0.1300 -0.0114
vn -0.9914 0.1300 0.0114
vn 0.1305 0.9877 0.0864
vn -0.1305 -0.9877 -0.0864
vn -0.0000 -0.0872 0.9962
vn -0.0000 0.0872 -0.9962
vt 0.140625 0.750000
vt 0.140625 0.742188
vt 0.156250 0.750000
vt 0.156250 0.742188
vt 0.593750 0.718750
vt 0.593750 0.714844
vt 0.578125 0.718750
vt 0.578125 0.714844
vt 0.171875 0.750000
vt 0.171875 0.742188
s 0
usemtl Material_0
f 577/334/145 579/335/145 578/334/145
f 579/335/145 580/335/145 578/334/145
f 581/336/146 583/337/146 582/336/146
f 583/337/146 584/337/146 582/336/146
f 585/336/147 587/336/147 586/334/147
f 587/336/147 588/334/147 586/334/147
f 589/338/148 591/339/148 590/340/148
f 591/339/148 592/341/148 590/340/148
f 593/336/149 595/337/149 594/342/149
f 595/337/149 596/343/149 594/342/149
f 597/334/150 599/335/150 598/336/150
f 599/335/150 600/337/150 598/336/150
o body.016
v 0.008061 0.387048 0.163670
v 0.008061 0.386242 0.154455
v -0.000097 0.325318 0.169070
v -0.000097 0.324512 0.159855
v -0.148092 0.406721 0.152663
v -0.148092 0.407527 0.161878
v -0.156250 0.344992 0.158064
v -0.156250 0.345798 0.167278
v -0.148092 0.406721 0.152663
v 0.008061 0.386242 0.154455
v -0.148092 0.407527 0.161878
v 0.008061 0.387048 0.163670
v -0.156250 0.345798 0.167278
v -0.000097 0.325318 0.169070
v -0.156250 0.344992 0.158064
v -0.000097 0.324512 0.159855
v -0.148092 0.407527 0.161878
v 0.008061 0.387048 0.163670
v -0.156250 0.345798 0.167278
v -0.000097 0.325318 0.169070
v 0.008061 0.386242 0.154455
v -0.148092 0.406721 0.152663
v -0.000097 0.324512 0.159855
v -0.156250 0.344992 0.158064
vn 0.9914 -0.1300 0.0114
vn -0.9914 0.1300 -0.0114
vn 0.1305 0.9877 -0.0864
vn -0.1305 -0.9877 0.0864
vn -0.0000 0.0872 0.9962
vn -0.0000 -0.0872 -0.9962
vt 0.140625 0.750000
vt 0.140625 0.742188
vt 0.156250 0.750000
vt 0.156250 0.742188
vt 0.593750 0.714844
vt 0.593750 0.718750
vt 0.578125 0.714844
vt 0.578125 0.718750
vt 0.171875 0.750000
vt 0.171875 0.742188
s 0
usemtl Material_0
f 601/344/151 603/345/151 602/344/151
f 603/345/151 604/345/151 602/344/151
f 605/346/152 607/347/152 606/346/152
f 607/347/152 608/347/152 606/346/152
f 609/346/153 611/346/153 610/344/153
f 611/346/153 612/344/153 610/344/153
f 613/348/154 615/349/154 614/350/154
f 615/349/154 616/351/154 614/350/154
f 617/346/155 619/347/155 618/344/155
f 619/347/155 620/345/155 618/344/155
f 621/352/156 623/353/156 622/346/156
f 623/353/156 624/347/156 622/346/156
o body.017
v 0.148092 0.407527 0.161878
v 0.148092 0.406721 0.152663
v 0.156250 0.345798 0.167278
v 0.156250 0.344992 0.158064
v -0.008061 0.386242 0.154455
v -0.008061 0.387048 0.163670
v 0.000097 0.324512 0.159855
v 0.000097 0.325318 0.169070
v -0.008061 0.386242 0.154455
v 0.148092 0.406721 0.152663
v -0.008061 0.387048 0.163670
v 0.148092 0.407527 0.161878
v 0.000097 0.325318 0.169070
v 0.156250 0.345798 0.167278
v 0.000097 0.324512 0.159855
v 0.156250 0.344992 0.158064
v -0.008061 0.387048 0.163670
v 0.148092 0.407527 0.161878
v 0.000097 0.325318 0.169070
v 0.156250 0.345798 0.167278
v 0.148092 0.406721 0.152663
v -0.008061 0.386242 0.154455
v 0.156250 0.344992 0.158064
v 0.000097 0.324512 0.159855
vn 0.9914 0.1300 -0.0114
vn -0.9914 -0.1300 0.0114
vn -0.1305 0.9877 -0.0864
vn 0.1305 -0.9877 0.0864
vn -0.0000 0.0872 0.9962
vn -0.0000 -0.0872 -0.9962
vt 0.250000 0.773438
vt 0.250000 0.765625
vt 0.265625 0.773438
vt 0.265625 0.765625
vt 0.578125 0.714844
vt 0.578125 0.718750
vt 0.562500 0.714844
vt 0.562500 0.718750
vt 0.281250 0.773438
vt 0.281250 0.765625
s 0
usemtl Material_0
f 625/354/157 627/355/157 626/354/157
f 627/355/157 628/355/157 626/354/157
f 629/356/158 631/357/158 630/356/158
f 631/357/158 632/357/158 630/356/158
f 633/356/159 635/356/159 634/354/159
f 635/356/159 636/354/159 634/354/159
f 637/358/160 639/359/160 638/360/160
f 639/359/160 640/361/160 638/360/160
f 641/356/161 643/357/161 642/354/161
f 643/357/161 644/355/161 642/354/161
f 645/362/162 647/363/162 646/356/162
f 647/363/162 648/357/162 646/356/162
o body.018
v 0.156250 0.781720 0.130144
v 0.156250 0.780740 0.118937
v 0.156250 0.345885 0.168275
v 0.156250 0.344905 0.157067
v -0.156250 0.780740 0.118937
v -0.156250 0.781720 0.130144
v -0.156250 0.344905 0.157067
v -0.156250 0.345885 0.168275
v -0.156250 0.780740 0.118937
v 0.156250 0.780740 0.118937
v -0.156250 0.781720 0.130144
v 0.156250 0.781720 0.130144
v -0.156250 0.345885 0.168275
v 0.156250 0.345885 0.168275
v -0.156250 0.344905 0.157067
v 0.156250 0.344905 0.157067
v -0.156250 0.781720 0.130144
v 0.156250 0.781720 0.130144
v -0.156250 0.345885 0.168275
v 0.156250 0.345885 0.168275
v 0.156250 0.780740 0.118937
v -0.156250 0.780740 0.118937
v 0.156250 0.344905 0.157067
v -0.156250 0.344905 0.157067
vn 1.0000 -0.0000 -0.0000
vn -1.0000 -0.0000 -0.0000
vn -0.0000 0.9962 -0.0872
vn -0.0000 -0.9962 0.0872
vn -0.0000 0.0872 0.9962
vn -0.0000 -0.0872 -0.9962
vt 0.394531 0.546875
vt 0.394531 0.492188
vt 0.390625 0.546875
vt 0.390625 0.492188
vt 0.425781 0.546875
vt 0.425781 0.492188
vt 0.429688 0.546875
vt 0.429688 0.492188
vt 0.601562 0.703125
vt 0.601562 0.707031
vt 0.562500 0.703125
vt 0.562500 0.707031
vt 0.468750 0.546875
vt 0.468750 0.492188
s 0
usemtl Material_0
f 649/364/163 651/365/163 650/366/163
f 651/365/163 652/367/163 650/366/163
f 653/368/164 655/369/164 654/370/164
f 655/369/164 656/371/164 654/370/164
f 657/370/165 659/370/165 658/366/165
f 659/370/165 660/366/165 658/366/165
f 661/372/166 663/373/166 662/374/166
f 663/373/166 664/375/166 662/374/166
f 665/370/167 667/371/167 666/366/167
f 667/371/167 668/367/167 666/366/167
f 669/376/168 671/377/168 670/370/168
f 671/377/168 672/371/168 670/370/168
o leftArm.001
v -0.243750 1.506250 0.131250
v -0.243750 1.506250 -0.131250
v -0.243750 0.743750 0.131250
v -0.243750 0.743750 -0.131250
v -0.506250 1.506250 -0.131250
v -0.506250 1.506250 0.131250
v -0.506250 0.743750 -0.131250
v -0.506250 0.743750 0.131250
v -0.506250 1.506250 -0.131250
v -0.243750 1.506250 -0.131250
v -0.506250 1.506250 0.131250
v -0.243750 1.506250 0.131250
v -0.506250 0.743750 0.131250
v -0.243750 0.743750 0.131250
v -0.506250 0.743750 -0.131250
v -0.243750 0.743750 -0.131250
v -0.506250 1.506250 0.131250
v -0.243750 1.506250 0.131250
v -0.506250 0.743750 0.131250
v -0.243750 0.743750 0.131250
v -0.243750 1.506250 -0.131250
v -0.506250 1.506250 -0.131250
v -0.243750 0.743750 -0.131250
v -0.506250 0.743750 -0.131250
vn 1.0000 -0.0000 -0.0000
vn -1.0000 -0.0000 -0.0000
vn -0.0000 1.0000 -0.0000
vn -0.0000 -1.0000 -0.0000
vn -0.0000 -0.0000 1.0000
vn -0.0000 -0.0000 -1.0000
vt 0.125000 0.640625
vt 0.125000 0.546875
vt 0.156250 0.640625
vt 0.156250 0.546875
vt 0.187500 0.640625
vt 0.187500 0.546875
vt 0.218750 0.640625
vt 0.218750 0.546875
vt 0.187500 0.671875
vt 0.156250 0.671875
vt 0.218750 0.671875
vt 0.250000 0.640625
vt 0.250000 0.546875
s 0
usemtl Material_0
f 673/378/169 675/379/169 674/380/169
f 675/379/169 676/381/169 674/380/169
f 677/382/170 679/383/170 678/384/170
f 679/383/170 680/385/170 678/384/170
f 681/382/171 683/386/171 682/380/171
f 683/386/171 684/387/171 682/380/171
f 685/388/172 687/384/172 686/386/172
f 687/384/172 688/382/172 686/386/172
f 689/384/173 691/385/173 690/389/173
f 691/385/173 692/390/173 690/389/173
f 693/380/174 695/381/174 694/382/174
f 695/381/174 696/383/174 694/382/174
o leftArm.002
v -0.279659 1.071438 0.148625
v -0.279659 1.071438 -0.148625
v -0.257870 0.822389 0.148625
v -0.257870 0.822389 -0.148625
v -0.528708 1.049649 -0.148625
v -0.528708 1.049649 0.148625
v -0.506919 0.800600 -0.148625
v -0.506919 0.800600 0.148625
v -0.528708 1.049649 -0.148625
v -0.279659 1.071438 -0.148625
v -0.528708 1.049649 0.148625
v -0.279659 1.071438 0.148625
v -0.506919 0.800600 0.148625
v -0.257870 0.822389 0.148625
v -0.506919 0.800600 -0.148625
v -0.257870 0.822389 -0.148625
v -0.528708 1.049649 0.148625
v -0.279659 1.071438 0.148625
v -0.506919 0.800600 0.148625
v -0.257870 0.822389 0.148625
v -0.279659 1.071438 -0.148625
v -0.528708 1.049649 -0.148625
v -0.257870 0.822389 -0.148625
v -0.506919 0.800600 -0.148625
vn 0.9962 0.0872 -0.0000
vn -0.9962 -0.0872 -0.0000
vn -0.0872 0.9962 -0.0000
vn 0.0872 -0.9962 -0.0000
vn -0.0000 -0.0000 1.0000
vn -0.0000 -0.0000 -1.0000
vt 0.367188 0.578125
vt 0.367188 0.546875
vt 0.398438 0.578125
vt 0.398438 0.546875
vt 0.429688 0.578125
vt 0.429688 0.546875
vt 0.460938 0.578125
vt 0.460938 0.546875
vt 0.429688 0.609375
vt 0.398438 0.609375
vt 0.460938 0.609375
vt 0.492188 0.578125
vt 0.492188 0.546875
s 0
usemtl Material_0
f 697/391/175 699/392/175 698/393/175
f 699/392/175 700/394/175 698/393/175
f 701/395/176 703/396/176 702/397/176
f 703/396/176 704/398/176 702/397/176
f 705/395/177 707/399/177 706/393/177
f 707/399/177 708/400/177 706/393/177
f 709/401/178 711/397/178 710/399/178
f 711/397/178 712/395/178 710/399/178
f 713/397/179 715/398/179 714/402/179
f 715/398/179 716/403/179 714/402/179
f 717/393/180 719/394/180 718/395/180
f 719/394/180 720/396/180 718/395/180
o leftArm.003
v -0.255466 1.500574 0.156250
v -0.255466 1.500574 -0.156250
v -0.334151 1.054333 0.156250
v -0.334151 1.054333 -0.156250
v -0.532443 1.549412 -0.156250
v -0.532443 1.549412 0.156250
v -0.611128 1.103172 -0.156250
v -0.611128 1.103172 0.156250
v -0.532443 1.549412 -0.156250
v -0.255466 1.500574 -0.156250
v -0.532443 1.549412 0.156250
v -0.255466 1.500574 0.156250
v -0.611128 1.103172 0.156250
v -0.334151 1.054333 0.156250
v -0.611128 1.103172 -0.156250
v -0.334151 1.054333 -0.156250
v -0.532443 1.549412 0.156250
v -0.255466 1.500574 0.156250
v -0.611128 1.103172 0.156250
v -0.334151 1.054333 0.156250
v -0.255466 1.500574 -0.156250
v -0.532443 1.549412 -0.156250
v -0.334151 1.054333 -0.156250
v -0.611128 1.103172 -0.156250
vn 0.9848 -0.1736 -0.0000
vn -0.9848 0.1736 -0.0000
vn 0.1736 0.9848 -0.0000
vn -0.1736 -0.9848 -0.0000
vn -0.0000 -0.0000 1.0000
vn -0.0000 -0.0000 -1.0000
vt 0.000000 0.593750
vt 0.000000 0.539062
vt 0.031250 0.593750
vt 0.031250 0.539062
vt 0.062500 0.593750
vt 0.062500 0.539062
vt 0.093750 0.593750
vt 0.093750 0.539062
vt 0.062500 0.625000
vt 0.031250 0.625000
vt 0.093750 0.625000
vt 0.125000 0.593750
vt 0.125000 0.539062
s 0
usemtl Material_0
f 721/404/181 723/405/181 722/406/181
f 723/405/181 724/407/181 722/406/181
f 725/408/182 727/409/182 726/410/182
f 727/409/182 728/411/182 726/410/182
f 729/408/183 731/412/183 730/406/183
f 731/412/183 732/413/183 730/406/183
f 733/414/184 735/410/184 734/412/184
f 735/410/184 736/408/184 734/412/184
f 737/410/185 739/411/185 738/415/185
f 739/411/185 740/416/185 738/415/185
f 741/406/186 743/407/186 742/408/186
f 743/407/186 744/409/186 742/408/186
o rightArm.001
v 0.506250 1.506250 0.131250
v 0.506250 1.506250 -0.131250
v 0.506250 0.743750 0.131250
v 0.506250 0.743750 -0.131250
v 0.243750 1.506250 -0.131250
v 0.243750 1.506250 0.131250
v 0.243750 0.743750 -0.131250
v 0.243750 0.743750 0.131250
v 0.243750 1.506250 -0.131250
v 0.506250 1.506250 -0.131250
v 0.243750 1.506250 0.131250
v 0.506250 1.506250 0.131250
v 0.243750 0.743750 0.131250
v 0.506250 0.743750 0.131250
v 0.243750 0.743750 -0.131250
v 0.506250 0.743750 -0.131250
v 0.243750 1.506250 0.131250
v 0.506250 1.506250 0.131250
v 0.243750 0.743750 0.131250
v 0.506250 0.743750 0.131250
v 0.506250 1.506250 -0.131250
v 0.243750 1.506250 -0.131250
v 0.506250 0.743750 -0.131250
v 0.243750 0.743750 -0.131250
vn 1.0000 -0.0000 -0.0000
vn -1.0000 -0.0000 -0.0000
vn -0.0000 1.0000 -0.0000
vn -0.0000 -1.0000 -0.0000
vn -0.0000 -0.0000 1.0000
vn -0.0000 -0.0000 -1.0000
vt 0.000000 0.718750
vt 0.000000 0.625000
vt 0.031250 0.718750
vt 0.031250 0.625000
vt 0.062500 0.718750
vt 0.062500 0.625000
vt 0.093750 0.718750
vt 0.093750 0.625000
vt 0.062500 0.750000
vt 0.031250 0.750000
vt 0.093750 0.750000
vt 0.125000 0.718750
vt 0.125000 0.625000
s 0
usemtl Material_0
f 745/417/187 747/418/187 746/419/187
f 747/418/187 748/420/187 746/419/187
f 749/421/188 751/422/188 750/423/188
f 751/422/188 752/424/188 750/423/188
f 753/421/189 755/425/189 754/419/189
f 755/425/189 756/426/189 754/419/189
f 757/427/190 759/423/190 758/425/190
f 759/423/190 760/421/190 758/425/190
f 761/423/191 763/424/191 762/428/191
f 763/424/191 764/429/191 762/428/191
f 765/419/192 767/420/192 766/421/192
f 767/420/192 768/422/192 766/421/192
o rightArm.002
v 0.528708 1.049649 0.148625
v 0.528708 1.049649 -0.148625
v 0.506919 0.800600 0.148625
v 0.506919 0.800600 -0.148625
v 0.279659 1.071438 -0.148625
v 0.279659 1.071438 0.148625
v 0.257870 0.822389 -0.148625
v 0.257870 0.822389 0.148625
v 0.279659 1.071438 -0.148625
v 0.528708 1.049649 -0.148625
v 0.279659 1.071438 0.148625
v 0.528708 1.049649 0.148625
v 0.257870 0.822389 0.148625
v 0.506919 0.800600 0.148625
v 0.257870 0.822389 -0.148625
v 0.506919 0.800600 -0.148625
v 0.279659 1.071438 0.148625
v 0.528708 1.049649 0.148625
v 0.257870 0.822389 0.148625
v 0.506919 0.800600 0.148625
v 0.528708 1.049649 -0.148625
v 0.279659 1.071438 -0.148625
v 0.506919 0.800600 -0.148625
v 0.257870 0.822389 -0.148625
vn 0.9962 -0.0872 -0.0000
vn -0.9962 0.0872 -0.0000
vn 0.0872 0.9962 -0.0000
vn -0.0872 -0.9962 -0.0000
vn -0.0000 -0.0000 1.0000
vn -0.0000 -0.0000 -1.0000
vt 0.375000 0.937500
vt 0.375000 0.906250
vt 0.406250 0.937500
vt 0.406250 0.906250
vt 0.437500 0.937500
vt 0.437500 0.906250
vt 0.468750 0.937500
vt 0.468750 0.906250
vt 0.437500 0.968750
vt 0.406250 0.968750
vt 0.468750 0.968750
vt 0.500000 0.937500
vt 0.500000 0.906250
s 0
usemtl Material_0
f 769/430/193 771/431/193 770/432/193
f 771/431/193 772/433/193 770/432/193
f 773/434/194 775/435/194 774/436/194
f 775/435/194 776/437/194 774/436/194
f 777/434/195 779/438/195 778/432/195
f 779/438/195 780/439/195 778/432/195
f 781/440/196 783/436/196 782/438/196
f 783/436/196 784/434/196 782/438/196
f 785/436/197 787/437/197 786/441/197
f 787/437/197 788/442/197 786/441/197
f 789/432/198 791/433/198 790/434/198
f 791/433/198 792/435/198 790/434/198
o rightArm.003
v 0.517056 1.546699 0.156250
v 0.517056 1.546699 -0.156250
v 0.595740 1.100458 0.156250
v 0.595740 1.100458 -0.156250
v 0.255466 1.500574 -0.156250
v 0.255466 1.500574 0.156250
v 0.334151 1.054333 -0.156250
v 0.334151 1.054333 0.156250
v 0.255466 1.500574 -0.156250
v 0.517056 1.546699 -0.156250
v 0.255466 1.500574 0.156250
v 0.517056 1.546699 0.156250
v 0.334151 1.054333 0.156250
v 0.595740 1.100458 0.156250
v 0.334151 1.054333 -0.156250
v 0.595740 1.100458 -0.156250
v 0.255466 1.500574 0.156250
v 0.517056 1.546699 0.156250
v 0.334151 1.054333 0.156250
v 0.595740 1.100458 0.156250
v 0.517056 1.546699 -0.156250
v 0.255466 1.500574 -0.156250
v 0.595740 1.100458 -0.156250
v 0.334151 1.054333 -0.156250
vn 0.9848 0.1736 -0.0000
vn -0.9848 -0.1736 -0.0000
vn -0.1736 0.9848 -0.0000
vn 0.1736 -0.9848 -0.0000
vn -0.0000 -0.0000 1.0000
vn -0.0000 -0.0000 -1.0000
vt 0.343750 0.875000
vt 0.343750 0.820312
vt 0.375000 0.875000
vt 0.375000 0.820312
vt 0.406250 0.875000
vt 0.406250 0.820312
vt 0.437500 0.875000
vt 0.437500 0.820312
vt 0.406250 0.906250
vt 0.375000 0.906250
vt 0.437500 0.906250
vt 0.468750 0.875000
vt 0.468750 0.820312
s 0
usemtl Material_0
f 793/443/199 795/444/199 794/445/199
f 795/444/199 796/446/199 794/445/199
f 797/447/200 799/448/200 798/449/200
f 799/448/200 800/450/200 798/449/200
f 801/447/201 803/451/201 802/445/201
f 803/451/201 804/452/201 802/445/201
f 805/453/202 807/449/202 806/451/202
f 807/449/202 808/447/202 806/451/202
f 809/449/203 811/450/203 810/454/203
f 811/450/203 812/455/203 810/454/203
f 813/445/204 815/446/204 814/447/204
f 815/446/204 816/448/204 814/447/204
o leftLeg.001
v 0.006250 0.750000 0.125000
v 0.006250 0.750000 -0.125000
v 0.006250 0.000000 0.125000
v 0.006250 0.000000 -0.125000
v -0.243750 0.750000 -0.125000
v -0.243750 0.750000 0.125000
v -0.243750 0.000000 -0.125000
v -0.243750 0.000000 0.125000
v -0.243750 0.750000 -0.125000
v 0.006250 0.750000 -0.125000
v -0.243750 0.750000 0.125000
v 0.006250 0.750000 0.125000
v -0.243750 0.000000 0.125000
v 0.006250 0.000000 0.125000
v -0.243750 0.000000 -0.125000
v 0.006250 0.000000 -0.125000
v -0.243750 0.750000 0.125000
v 0.006250 0.750000 0.125000
v -0.243750 0.000000 0.125000
v 0.006250 0.000000 0.125000
v 0.006250 0.750000 -0.125000
v -0.243750 0.750000 -0.125000
v 0.006250 0.000000 -0.125000
v -0.243750 0.000000 -0.125000
vn 1.0000 -0.0000 -0.0000
vn -1.0000 -0.0000 -0.0000
vn -0.0000 1.0000 -0.0000
vn -0.0000 -1.0000 -0.0000
vn -0.0000 -0.0000 1.0000
vn -0.0000 -0.0000 -1.0000
vt 0.273438 0.671875
vt 0.273438 0.578125
vt 0.304688 0.671875
vt 0.304688 0.578125
vt 0.335938 0.671875
vt 0.335938 0.578125
vt 0.367188 0.671875
vt 0.367188 0.578125
vt 0.335938 0.703125
vt 0.304688 0.703125
vt 0.367188 0.703125
vt 0.398438 0.671875
vt 0.398438 0.578125
s 0
usemtl Material_0
f 817/456/205 819/457/205 818/458/205
f 819/457/205 820/459/205 818/458/205
f 821/460/206 823/461/206 822/462/206
f 823/461/206 824/463/206 822/462/206
f 825/460/207 827/464/207 826/458/207
f 827/464/207 828/465/207 826/458/207
f 829/466/208 831/462/208 830/464/208
f 831/462/208 832/460/208 830/464/208
f 833/462/209 835/463/209 834/467/209
f 835/463/209 836/468/209 834/467/209
f 837/458/210 839/459/210 838/460/210
f 839/459/210 840/461/210 838/460/210
o rightLeg.001
v 0.243750 0.750000 0.125000
v 0.243750 0.750000 -0.125000
v 0.243750 0.000000 0.125000
v 0.243750 0.000000 -0.125000
v -0.006250 0.750000 -0.125000
v -0.006250 0.750000 0.125000
v -0.006250 0.000000 -0.125000
v -0.006250 0.000000 0.125000
v -0.006250 0.750000 -0.125000
v 0.243750 0.750000 -0.125000
v -0.006250 0.750000 0.125000
v 0.243750 0.750000 0.125000
v -0.006250 0.000000 0.125000
v 0.243750 0.000000 0.125000
v -0.006250 0.000000 -0.125000
v 0.243750 0.000000 -0.125000
v -0.006250 0.750000 0.125000
v 0.243750 0.750000 0.125000
v -0.006250 0.000000 0.125000
v 0.243750 0.000000 0.125000
v 0.243750 0.750000 -0.125000
v -0.006250 0.750000 -0.125000
v 0.243750 0.000000 -0.125000
v -0.006250 0.000000 -0.125000
vn 1.0000 -0.0000 -0.0000
vn -1.0000 -0.0000 -0.0000
vn -0.0000 1.0000 -0.0000
vn -0.0000 -1.0000 -0.0000
vn -0.0000 -0.0000 1.0000
vn -0.0000 -0.0000 -1.0000
vt 0.250000 0.968750
vt 0.250000 0.875000
vt 0.281250 0.968750
vt 0.281250 0.875000
vt 0.312500 0.968750
vt 0.312500 0.875000
vt 0.343750 0.968750
vt 0.343750 0.875000
vt 0.312500 1.000000
vt 0.281250 1.000000
vt 0.343750 1.000000
vt 0.375000 0.968750
vt 0.375000 0.875000
s 0
usemtl Material_0
f 841/469/211 843/470/211 842/471/211
f 843/470/211 844/472/211 842/471/211
f 845/473/212 847/474/212 846/475/212
f 847/474/212 848/476/212 846/475/212
f 849/473/213 851/477/213 850/471/213
f 851/477/213 852/478/213 850/471/213
f 853/479/214 855/475/214 854/477/214
f 855/475/214 856/473/214 854/477/214
f 857/475/215 859/476/215 858/480/215
f 859/476/215 860/481/215 858/480/215
f 861/471/216 863/472/216 862/473/216
f 863/472/216 864/474/216 862/473/216
