{"accessors":[{"bufferView":0,"componentType":5126,"count":1155,"max":[0.6137294173240662,1.9000002145767212,0.3792297840118408],"min":[-0.594760000705719,-0.00031999999191612005,-0.23999999463558197],"type":"VEC3"},{"bufferView":1,"componentType":5125,"count":1842,"type":"SCALAR"},{"bufferView":2,"componentType":5126,"count":1155,"type":"VEC3"},{"bufferView":3,"componentType":5126,"count":1155,"type":"VEC4"},{"bufferView":4,"componentType":5126,"count":1155,"type":"VEC2"},{"bufferView":5,"componentType":5126,"count":1155,"max":[0.6137294173240662,1.9000002145767212,0.3792297840118408],"min":[-0.594760000705719,-0.00031999999191612005,-0.23999999463558197],"type":"VEC3"},{"bufferView":6,"componentType":5125,"count":24,"type":"SCALAR"},{"bufferView":7,"componentType":5126,"count":1155,"type":"VEC3"},{"bufferView":8,"componentType":5126,"count":1155,"type":"VEC4"},{"bufferView":9,"componentType":5126,"count":1155,"type":"VEC2"},{"bufferView":10,"componentType":5126,"count":74,"max":[0.11999952048063278,1.5519999265670776,0.2160000205039978],"min":[-0.119999997317791,1.468000054359436,0.09600000083446504],"type":"VEC3"},{"bufferView":11,"componentType":5125,"count":125,"type":"SCALAR"},{"bufferView":12,"componentType":5126,"count":74,"type":"VEC3"},{"bufferView":13,"componentType":5126,"count":74,"type":"VEC4"},{"bufferView":14,"componentType":5126,"count":74,"type":"VEC2"},{"bufferView":15,"componentType":5126,"count":74,"max":[0.11999952048063278,1.5519999265670776,0.2160000205039978],"min":[-0.119999997317791,1.468000054359436,0.09600000083446504],"type":"VEC3"},{"bufferView":16,"componentType":5125,"count":9,"type":"SCALAR"},{"bufferView":17,"componentType":5126,"count":74,"type":"VEC3"},{"bufferView":18,"componentType":5126,"count":74,"type":"VEC4"},{"bufferView":19,"componentType":5126,"count":74,"type":"VEC2"}],"asset":{"version":"2.0"},"bufferViews":[{"buffer":0,"byteLength":13860,"target":34962},{"buffer":1,"byteLength":7368,"target":34963},{"buffer":2,"byteLength":13860,"target":34962},{"buffer":3,"byteLength":18480,"target":34962},{"buffer":4,"byteLength":9240,"target":34962},{"buffer":0,"byteLength":13860,"target":34962},{"buffer":5,"byteLength":96,"target":34963},{"buffer":2,"byteLength":13860,"target":34962},{"buffer":3,"byteLength":18480,"target":34962},{"buffer":4,"byteLength":9240,"target":34962},{"buffer":6,"byteLength":888,"target":34962},{"buffer":7,"byteLength":500,"target":34963},{"buffer":8,"byteLength":888,"target":34962},{"buffer":9,"byteLength":1184,"target":34962},{"buffer":10,"byteLength":592,"target":34962},{"buffer":6,"byteLength":888,"target":34962},{"buffer":11,"byteLength":36,"target":34963},{"buffer":8,"byteLength":888,"target":34962},{"buffer":9,"byteLength":1184,"target":34962},{"buffer":10,"byteLength":592,"target":34962}],"buffers":[{"byteLength":13860,"uri":"data:application/octet-stream;base64,"},{"byteLength":7368,"uri":"data:application/octet-stream;base64,"},{"byteLength":13860,"uri":"data:application/octet-stream;base64,"},{"byteLength":18480,"uri":"data:application/octet-stream;base64,"},{"byteLength":9240,"uri":"data:application/octet-stream;base64,"},{"byteLength":96,"uri":"data:application/octet-stream;base64,"},{"byteLength":888,"uri":"data:application/octet-stream;base64,"},{"byteLength":500,"uri":"data:application/octet-stream;base64,"},{"byteLength":888,"uri":"data:application/octet-stream;base64,"},{"byteLength":1184,"uri":"data:application/octet-stream;base64,"},{"byteLength":592,"uri":"data:application/octet-stream;base64,"},{"byteLength":36,"uri":"data:application/octet-stream;base64,"}],"images":[{"uri":"textures/Steve.png"}],"materials":[{"doubleSided":false,"pbrMetallicRoughness":{"baseColorTexture":{"index":0},"metallicFactor":0.0,"roughnessFactor":1.0}},{"doubleSided":false,"pbrMetallicRoughness":{"baseColorTexture":{"index":1},"metallicFactor":0.0,"roughnessFactor":1.0}}],"meshes":[{"name":"Player_Char_0","primitives":[{"attributes":{"NORMAL":2,"POSITION":0,"TANGENT":3,"TEXCOORD_0":4},"indices":1,"material":0,"mode":5},{"attributes":{"NORMAL":7,"POSITION":5,"TANGENT":8,"TEXCOORD_0":9},"indices":6,"material":0,"mode":4}]},{"name":"Player_Char_1","primitives":[{"attributes":{"NORMAL":12,"POSITION":10,"TANGENT":13,"TEXCOORD_0":14},"indices":11,"material":1,"mode":5},{"attributes":{"NORMAL":17,"POSITION":15,"TANGENT":18,"TEXCOORD_0":19},"indices":16,"material":1,"mode":4}]}],"nodes":[{"mesh":0,"name":"Player_Char_0"},{"mesh":1,"name":"Player_Char_1"},{"children":[0,1],"name":"Steve","rotation":[1.1102230246251563e-16,0.0,0.0,1.0],"scale":[1.0,1.0,1.0],"translation":[0.0,0.0,0.0]}],"samplers":[{"magFilter":9729,"minFilter":9729,"wrapS":10497,"wrapT":10497}],"scene":0,"scenes":[{"nodes":[2]}],"textures":[{"sampler":0,"source":0},{"sampler":0,"source":0}]}