solid exported
	facet normal 1 0 0
		outer loop
			vertex 1.5 71.79597 -14.5821
			vertex 1.5 68.79597 -14.5821
			vertex 1.5 71.79597 -40.5821
		endloop
	endfacet
	facet normal 1 0 0
		outer loop
			vertex 1.5 68.79597 -14.5821
			vertex 1.5 68.79597 -40.5821
			vertex 1.5 71.79597 -40.5821
		endloop
	endfacet
	facet normal -1 0 0
		outer loop
			vertex -1.5 71.79597 -40.5821
			vertex -1.5 68.79597 -40.5821
			vertex -1.5 71.79597 -14.5821
		endloop
	endfacet
	facet normal -1 0 0
		outer loop
			vertex -1.5 68.79597 -40.5821
			vertex -1.5 68.79597 -14.5821
			vertex -1.5 71.79597 -14.5821
		endloop
	endfacet
	facet normal 0 1 0
		outer loop
			vertex -1.5 71.79597 -40.5821
			vertex -1.5 71.79597 -14.5821
			vertex 1.5 71.79597 -40.5821
		endloop
	endfacet
	facet normal 0 1 0
		outer loop
			vertex -1.5 71.79597 -14.5821
			vertex 1.5 71.79597 -14.5821
			vertex 1.5 71.79597 -40.5821
		endloop
	endfacet
	facet normal 0 -1 0
		outer loop
			vertex -1.5 68.79597 -14.5821
			vertex -1.5 68.79597 -40.5821
			vertex 1.5 68.79597 -14.5821
		endloop
	endfacet
	facet normal 0 -1 0
		outer loop
			vertex -1.5 68.79597 -40.5821
			vertex 1.5 68.79597 -40.5821
			vertex 1.5 68.79597 -14.5821
		endloop
	endfacet
	facet normal 0 0 1
		outer loop
			vertex -1.5 71.79597 -14.5821
			vertex -1.5 68.79597 -14.5821
			vertex 1.5 71.79597 -14.5821
		endloop
	endfacet
	facet normal 0 0 1
		outer loop
			vertex -1.5 68.79597 -14.5821
			vertex 1.5 68.79597 -14.5821
			vertex 1.5 71.79597 -14.5821
		endloop
	endfacet
	facet normal 0 0 -1
		outer loop
			vertex 1.5 71.79597 -40.5821
			vertex 1.5 68.79597 -40.5821
			vertex -1.5 71.79597 -40.5821
		endloop
	endfacet
	facet normal 0 0 -1
		outer loop
			vertex 1.5 68.79597 -40.5821
			vertex -1.5 68.79597 -40.5821
			vertex -1.5 71.79597 -40.5821
		endloop
	endfacet
	facet normal 1 0 0
		outer loop
			vertex 1.495000009536743 71.79597 -14.587500002002717
			vertex 1.495000009536743 70.79597 -14.587500002002717
			vertex 1.495000009536743 71.79597 -40.57749947509765
		endloop
	endfacet
	facet normal 1 0 0
		outer loop
			vertex 1.495000009536743 70.79597 -14.587500002002717
			vertex 1.495000009536743 70.79597 -40.57749947509765
			vertex 1.495000009536743 71.79597 -40.57749947509765
		endloop
	endfacet
	facet normal -1 0 0
		outer loop
			vertex -1.495 71.79597 -40.57749947509765
			vertex -1.495 70.79597 -40.57749947509765
			vertex -1.495 71.79597 -14.587500002002717
		endloop
	endfacet
	facet normal -1 0 0
		outer loop
			vertex -1.495 70.79597 -40.57749947509765
			vertex -1.495 70.79597 -14.587500002002717
			vertex -1.495 71.79597 -14.587500002002717
		endloop
	endfacet
	facet normal 0 1 0
		outer loop
			vertex -1.495 71.79597 -40.57749947509765
			vertex -1.495 71.79597 -14.587500002002717
			vertex 1.495000009536743 71.79597 -40.57749947509765
		endloop
	endfacet
	facet normal 0 1 0
		outer loop
			vertex -1.495 71.79597 -14.587500002002717
			vertex 1.495000009536743 71.79597 -14.587500002002717
			vertex 1.495000009536743 71.79597 -40.57749947509765
		endloop
	endfacet
	facet normal 0 -1 0
		outer loop
			vertex -1.495 70.79597 -14.587500002002717
			vertex -1.495 70.79597 -40.57749947509765
			vertex 1.495000009536743 70.79597 -14.587500002002717
		endloop
	endfacet
	facet normal 0 -1 0
		outer loop
			vertex -1.495 70.79597 -40.57749947509765
			vertex 1.495000009536743 70.79597 -40.57749947509765
			vertex 1.495000009536743 70.79597 -14.587500002002717
		endloop
	endfacet
	facet normal 0 0 1
		outer loop
			vertex -1.495 71.79597 -14.587500002002717
			vertex -1.495 70.79597 -14.587500002002717
			vertex 1.495000009536743 71.79597 -14.587500002002717
		endloop
	endfacet
	facet normal 0 0 1
		outer loop
			vertex -1.495 70.79597 -14.587500002002717
			vertex 1.495000009536743 70.79597 -14.587500002002717
			vertex 1.495000009536743 71.79597 -14.587500002002717
		endloop
	endfacet
	facet normal 0 0 -1
		outer loop
			vertex 1.495000009536743 71.79597 -40.57749947509765
			vertex 1.495000009536743 70.79597 -40.57749947509765
			vertex -1.495 71.79597 -40.57749947509765
		endloop
	endfacet
	facet normal 0 0 -1
		outer loop
			vertex 1.495000009536743 70.79597 -40.57749947509765
			vertex -1.495 70.79597 -40.57749947509765
			vertex -1.495 71.79597 -40.57749947509765
		endloop
	endfacet
	facet normal 1 0 0
		outer loop
			vertex 2 68.79597 -4.5821000000000005
			vertex 2 64.79597 -4.5821000000000005
			vertex 2 68.79597 -8.5821
		endloop
	endfacet
	facet normal 1 0 0
		outer loop
			vertex 2 64.79597 -4.5821000000000005
			vertex 2 64.79597 -8.5821
			vertex 2 68.79597 -8.5821
		endloop
	endfacet
	facet normal -1 0 0
		outer loop
			vertex -2 68.79597 -8.5821
			vertex -2 64.79597 -8.5821
			vertex -2 68.79597 -4.5821000000000005
		endloop
	endfacet
	facet normal -1 0 0
		outer loop
			vertex -2 64.79597 -8.5821
			vertex -2 64.79597 -4.5821000000000005
			vertex -2 68.79597 -4.5821000000000005
		endloop
	endfacet
	facet normal 0 1 0
		outer loop
			vertex -2 68.79597 -8.5821
			vertex -2 68.79597 -4.5821000000000005
			vertex 2 68.79597 -8.5821
		endloop
	endfacet
	facet normal 0 1 0
		outer loop
			vertex -2 68.79597 -4.5821000000000005
			vertex 2 68.79597 -4.5821000000000005
			vertex 2 68.79597 -8.5821
		endloop
	endfacet
	facet normal 0 -1 0
		outer loop
			vertex -2 64.79597 -4.5821000000000005
			vertex -2 64.79597 -8.5821
			vertex 2 64.79597 -4.5821000000000005
		endloop
	endfacet
	facet normal 0 -1 0
		outer loop
			vertex -2 64.79597 -8.5821
			vertex 2 64.79597 -8.5821
			vertex 2 64.79597 -4.5821000000000005
		endloop
	endfacet
	facet normal 0 0 1
		outer loop
			vertex -2 68.79597 -4.5821000000000005
			vertex -2 64.79597 -4.5821000000000005
			vertex 2 68.79597 -4.5821000000000005
		endloop
	endfacet
	facet normal 0 0 1
		outer loop
			vertex -2 64.79597 -4.5821000000000005
			vertex 2 64.79597 -4.5821000000000005
			vertex 2 68.79597 -4.5821000000000005
		endloop
	endfacet
	facet normal 0 0 -1
		outer loop
			vertex 2 68.79597 -8.5821
			vertex 2 64.79597 -8.5821
			vertex -2 68.79597 -8.5821
		endloop
	endfacet
	facet normal 0 0 -1
		outer loop
			vertex 2 64.79597 -8.5821
			vertex -2 64.79597 -8.5821
			vertex -2 68.79597 -8.5821
		endloop
	endfacet
	facet normal 1 0 0
		outer loop
			vertex -2.009000039100647 73 -9.6
			vertex -2.009000039100647 72 -9.6
			vertex -2.009000039100647 73 -11.6
		endloop
	endfacet
	facet normal 1 0 0
		outer loop
			vertex -2.009000039100647 72 -9.6
			vertex -2.009000039100647 72 -11.6
			vertex -2.009000039100647 73 -11.6
		endloop
	endfacet
	facet normal -1 0 0
		outer loop
			vertex -2.009999966621399 73 -11.6
			vertex -2.009999966621399 72 -11.6
			vertex -2.009999966621399 73 -9.6
		endloop
	endfacet
	facet normal -1 0 0
		outer loop
			vertex -2.009999966621399 72 -11.6
			vertex -2.009999966621399 72 -9.6
			vertex -2.009999966621399 73 -9.6
		endloop
	endfacet
	facet normal 0 1 0
		outer loop
			vertex -2.009999966621399 73 -11.6
			vertex -2.009999966621399 73 -9.6
			vertex -2.009000039100647 73 -11.6
		endloop
	endfacet
	facet normal 0 1 0
		outer loop
			vertex -2.009999966621399 73 -9.6
			vertex -2.009000039100647 73 -9.6
			vertex -2.009000039100647 73 -11.6
		endloop
	endfacet
	facet normal 0 -1 0
		outer loop
			vertex -2.009999966621399 72 -9.6
			vertex -2.009999966621399 72 -11.6
			vertex -2.009000039100647 72 -9.6
		endloop
	endfacet
	facet normal 0 -1 0
		outer loop
			vertex -2.009999966621399 72 -11.6
			vertex -2.009000039100647 72 -11.6
			vertex -2.009000039100647 72 -9.6
		endloop
	endfacet
	facet normal 0 0 1
		outer loop
			vertex -2.009999966621399 73 -9.6
			vertex -2.009999966621399 72 -9.6
			vertex -2.009000039100647 73 -9.6
		endloop
	endfacet
	facet normal 0 0 1
		outer loop
			vertex -2.009999966621399 72 -9.6
			vertex -2.009000039100647 72 -9.6
			vertex -2.009000039100647 73 -9.6
		endloop
	endfacet
	facet normal 0 0 -1
		outer loop
			vertex -2.009000039100647 73 -11.6
			vertex -2.009000039100647 72 -11.6
			vertex -2.009999966621399 73 -11.6
		endloop
	endfacet
	facet normal 0 0 -1
		outer loop
			vertex -2.009000039100647 72 -11.6
			vertex -2.009999966621399 72 -11.6
			vertex -2.009999966621399 73 -11.6
		endloop
	endfacet
	facet normal 1 0 0
		outer loop
			vertex 2.0110000133514405 73 -9.6
			vertex 2.0110000133514405 72 -9.6
			vertex 2.0110000133514405 73 -11.6
		endloop
	endfacet
	facet normal 1 0 0
		outer loop
			vertex 2.0110000133514405 72 -9.6
			vertex 2.0110000133514405 72 -11.6
			vertex 2.0110000133514405 73 -11.6
		endloop
	endfacet
	facet normal -1 0 0
		outer loop
			vertex 2.009999966621399 73 -11.6
			vertex 2.009999966621399 72 -11.6
			vertex 2.009999966621399 73 -9.6
		endloop
	endfacet
	facet normal -1 0 0
		outer loop
			vertex 2.009999966621399 72 -11.6
			vertex 2.009999966621399 72 -9.6
			vertex 2.009999966621399 73 -9.6
		endloop
	endfacet
	facet normal 0 1 0
		outer loop
			vertex 2.009999966621399 73 -11.6
			vertex 2.009999966621399 73 -9.6
			vertex 2.0110000133514405 73 -11.6
		endloop
	endfacet
	facet normal 0 1 0
		outer loop
			vertex 2.009999966621399 73 -9.6
			vertex 2.0110000133514405 73 -9.6
			vertex 2.0110000133514405 73 -11.6
		endloop
	endfacet
	facet normal 0 -1 0
		outer loop
			vertex 2.009999966621399 72 -9.6
			vertex 2.009999966621399 72 -11.6
			vertex 2.0110000133514405 72 -9.6
		endloop
	endfacet
	facet normal 0 -1 0
		outer loop
			vertex 2.009999966621399 72 -11.6
			vertex 2.0110000133514405 72 -11.6
			vertex 2.0110000133514405 72 -9.6
		endloop
	endfacet
	facet normal 0 0 1
		outer loop
			vertex 2.009999966621399 73 -9.6
			vertex 2.009999966621399 72 -9.6
			vertex 2.0110000133514405 73 -9.6
		endloop
	endfacet
	facet normal 0 0 1
		outer loop
			vertex 2.009999966621399 72 -9.6
			vertex 2.0110000133514405 72 -9.6
			vertex 2.0110000133514405 73 -9.6
		endloop
	endfacet
	facet normal 0 0 -1
		outer loop
			vertex 2.0110000133514405 73 -11.6
			vertex 2.0110000133514405 72 -11.6
			vertex 2.009999966621399 73 -11.6
		endloop
	endfacet
	facet normal 0 0 -1
		outer loop
			vertex 2.0110000133514405 72 -11.6
			vertex 2.009999966621399 72 -11.6
			vertex 2.009999966621399 73 -11.6
		endloop
	endfacet
	facet normal 1 0 0
		outer loop
			vertex 2 76.79597 -4.5821
			vertex 2 68.79597 -4.5821
			vertex 2 76.79597 -14.5821
		endloop
	endfacet
	facet normal 1 0 0
		outer loop
			vertex 2 68.79597 -4.5821
			vertex 2 68.79597 -14.5821
			vertex 2 76.79597 -14.5821
		endloop
	endfacet
	facet normal -1 0 0
		outer loop
			vertex -2 76.79597 -14.5821
			vertex -2 68.79597 -14.5821
			vertex -2 76.79597 -4.5821
		endloop
	endfacet
	facet normal -1 0 0
		outer loop
			vertex -2 68.79597 -14.5821
			vertex -2 68.79597 -4.5821
			vertex -2 76.79597 -4.5821
		endloop
	endfacet
	facet normal 0 1 0
		outer loop
			vertex -2 76.79597 -14.5821
			vertex -2 76.79597 -4.5821
			vertex 2 76.79597 -14.5821
		endloop
	endfacet
	facet normal 0 1 0
		outer loop
			vertex -2 76.79597 -4.5821
			vertex 2 76.79597 -4.5821
			vertex 2 76.79597 -14.5821
		endloop
	endfacet
	facet normal 0 -1 0
		outer loop
			vertex -2 68.79597 -4.5821
			vertex -2 68.79597 -14.5821
			vertex 2 68.79597 -4.5821
		endloop
	endfacet
	facet normal 0 -1 0
		outer loop
			vertex -2 68.79597 -14.5821
			vertex 2 68.79597 -14.5821
			vertex 2 68.79597 -4.5821
		endloop
	endfacet
	facet normal 0 0 1
		outer loop
			vertex -2 76.79597 -4.5821
			vertex -2 68.79597 -4.5821
			vertex 2 76.79597 -4.5821
		endloop
	endfacet
	facet normal 0 0 1
		outer loop
			vertex -2 68.79597 -4.5821
			vertex 2 68.79597 -4.5821
			vertex 2 76.79597 -4.5821
		endloop
	endfacet
	facet normal 0 0 -1
		outer loop
			vertex 2 76.79597 -14.5821
			vertex 2 68.79597 -14.5821
			vertex -2 76.79597 -14.5821
		endloop
	endfacet
	facet normal 0 0 -1
		outer loop
			vertex 2 68.79597 -14.5821
			vertex -2 68.79597 -14.5821
			vertex -2 76.79597 -14.5821
		endloop
	endfacet
	facet normal 1 0 0
		outer loop
			vertex 1.5 75.79597 -14.5821
			vertex 1.5 71.79597 -14.5821
			vertex 1.5 75.79597 -40.5821
		endloop
	endfacet
	facet normal 1 0 0
		outer loop
			vertex 1.5 71.79597 -14.5821
			vertex 1.5 71.79597 -40.5821
			vertex 1.5 75.79597 -40.5821
		endloop
	endfacet
	facet normal -1 0 0
		outer loop
			vertex -1.5 75.79597 -40.5821
			vertex -1.5 71.79597 -40.5821
			vertex -1.5 75.79597 -14.5821
		endloop
	endfacet
	facet normal -1 0 0
		outer loop
			vertex -1.5 71.79597 -40.5821
			vertex -1.5 71.79597 -14.5821
			vertex -1.5 75.79597 -14.5821
		endloop
	endfacet
	facet normal 0 1 0
		outer loop
			vertex -1.5 75.79597 -40.5821
			vertex -1.5 75.79597 -14.5821
			vertex 1.5 75.79597 -40.5821
		endloop
	endfacet
	facet normal 0 1 0
		outer loop
			vertex -1.5 75.79597 -14.5821
			vertex 1.5 75.79597 -14.5821
			vertex 1.5 75.79597 -40.5821
		endloop
	endfacet
	facet normal 0 -1 0
		outer loop
			vertex -1.5 71.79597 -14.5821
			vertex -1.5 71.79597 -40.5821
			vertex 1.5 71.79597 -14.5821
		endloop
	endfacet
	facet normal 0 -1 0
		outer loop
			vertex -1.5 71.79597 -40.5821
			vertex 1.5 71.79597 -40.5821
			vertex 1.5 71.79597 -14.5821
		endloop
	endfacet
	facet normal 0 0 1
		outer loop
			vertex -1.5 75.79597 -14.5821
			vertex -1.5 71.79597 -14.5821
			vertex 1.5 75.79597 -14.5821
		endloop
	endfacet
	facet normal 0 0 1
		outer loop
			vertex -1.5 71.79597 -14.5821
			vertex 1.5 71.79597 -14.5821
			vertex 1.5 75.79597 -14.5821
		endloop
	endfacet
	facet normal 0 0 -1
		outer loop
			vertex 1.5 75.79597 -40.5821
			vertex 1.5 71.79597 -40.5821
			vertex -1.5 75.79597 -40.5821
		endloop
	endfacet
	facet normal 0 0 -1
		outer loop
			vertex 1.5 71.79597 -40.5821
			vertex -1.5 71.79597 -40.5821
			vertex -1.5 75.79597 -40.5821
		endloop
	endfacet
	facet normal 1 0 0
		outer loop
			vertex 0.0010000000474974513 78.2097787934836 -5.0987091439458245
			vertex 0.0010000000474974513 75.2808907721238 -5.7480279857601335
			vertex 0.0010000000474974513 79.72485609105031 -11.932781193785358
		endloop
	endfacet
	facet normal 1 0 0
		outer loop
			vertex 0.0010000000474974513 75.2808907721238 -5.7480279857601335
			vertex 0.0010000000474974513 76.79596806969052 -12.582100035599666
			vertex 0.0010000000474974513 79.72485609105031 -11.932781193785358
		endloop
	endfacet
	facet normal -1 0 0
		outer loop
			vertex 0 79.72485609105031 -11.932781193785358
			vertex 0 76.79596806969052 -12.582100035599666
			vertex 0 78.2097787934836 -5.0987091439458245
		endloop
	endfacet
	facet normal -1 0 0
		outer loop
			vertex 0 76.79596806969052 -12.582100035599666
			vertex 0 75.2808907721238 -5.7480279857601335
			vertex 0 78.2097787934836 -5.0987091439458245
		endloop
	endfacet
	facet normal 0 0.9762960071199335 0.2164396139381028
		outer loop
			vertex 0 79.72485609105031 -11.932781193785358
			vertex 0 78.2097787934836 -5.0987091439458245
			vertex 0.0010000000474974513 79.72485609105031 -11.932781193785358
		endloop
	endfacet
	facet normal 0 0.9762960071199335 0.2164396139381028
		outer loop
			vertex 0 78.2097787934836 -5.0987091439458245
			vertex 0.0010000000474974513 78.2097787934836 -5.0987091439458245
			vertex 0.0010000000474974513 79.72485609105031 -11.932781193785358
		endloop
	endfacet
	facet normal 0 -0.9762960071199335 -0.21643961393810285
		outer loop
			vertex 0 75.2808907721238 -5.7480279857601335
			vertex 0 76.79596806969052 -12.582100035599666
			vertex 0.0010000000474974513 75.2808907721238 -5.7480279857601335
		endloop
	endfacet
	facet normal 0 -0.9762960071199335 -0.21643961393810285
		outer loop
			vertex 0 76.79596806969052 -12.582100035599666
			vertex 0.0010000000474974513 76.79596806969052 -12.582100035599666
			vertex 0.0010000000474974513 75.2808907721238 -5.7480279857601335
		endloop
	endfacet
	facet normal 0 -0.21643961393810326 0.9762960071199334
		outer loop
			vertex 0 78.2097787934836 -5.0987091439458245
			vertex 0 75.2808907721238 -5.7480279857601335
			vertex 0.0010000000474974513 78.2097787934836 -5.0987091439458245
		endloop
	endfacet
	facet normal 0 -0.21643961393810326 0.9762960071199334
		outer loop
			vertex 0 75.2808907721238 -5.7480279857601335
			vertex 0.0010000000474974513 75.2808907721238 -5.7480279857601335
			vertex 0.0010000000474974513 78.2097787934836 -5.0987091439458245
		endloop
	endfacet
	facet normal 0 0.21643961393810301 -0.9762960071199335
		outer loop
			vertex 0.0010000000474974513 79.72485609105031 -11.932781193785358
			vertex 0.0010000000474974513 76.79596806969052 -12.582100035599666
			vertex 0 79.72485609105031 -11.932781193785358
		endloop
	endfacet
	facet normal 0 0.21643961393810301 -0.9762960071199335
		outer loop
			vertex 0.0010000000474974513 76.79596806969052 -12.582100035599666
			vertex 0 76.79596806969052 -12.582100035599666
			vertex 0 79.72485609105031 -11.932781193785358
		endloop
	endfacet
	facet normal 1 0 0
		outer loop
			vertex 1.495000009536743 72.79597 -14.587500002002717
			vertex 1.495000009536743 71.79597 -14.587500002002717
			vertex 1.495000009536743 72.79597 -40.57749947509765
		endloop
	endfacet
	facet normal 1 0 0
		outer loop
			vertex 1.495000009536743 71.79597 -14.587500002002717
			vertex 1.495000009536743 71.79597 -40.57749947509765
			vertex 1.495000009536743 72.79597 -40.57749947509765
		endloop
	endfacet
	facet normal -1 0 0
		outer loop
			vertex -1.495 72.79597 -40.57749947509765
			vertex -1.495 71.79597 -40.57749947509765
			vertex -1.495 72.79597 -14.587500002002717
		endloop
	endfacet
	facet normal -1 0 0
		outer loop
			vertex -1.495 71.79597 -40.57749947509765
			vertex -1.495 71.79597 -14.587500002002717
			vertex -1.495 72.79597 -14.587500002002717
		endloop
	endfacet
	facet normal 0 1 0
		outer loop
			vertex -1.495 72.79597 -40.57749947509765
			vertex -1.495 72.79597 -14.587500002002717
			vertex 1.495000009536743 72.79597 -40.57749947509765
		endloop
	endfacet
	facet normal 0 1 0
		outer loop
			vertex -1.495 72.79597 -14.587500002002717
			vertex 1.495000009536743 72.79597 -14.587500002002717
			vertex 1.495000009536743 72.79597 -40.57749947509765
		endloop
	endfacet
	facet normal 0 -1 0
		outer loop
			vertex -1.495 71.79597 -14.587500002002717
			vertex -1.495 71.79597 -40.57749947509765
			vertex 1.495000009536743 71.79597 -14.587500002002717
		endloop
	endfacet
	facet normal 0 -1 0
		outer loop
			vertex -1.495 71.79597 -40.57749947509765
			vertex 1.495000009536743 71.79597 -40.57749947509765
			vertex 1.495000009536743 71.79597 -14.587500002002717
		endloop
	endfacet
	facet normal 0 0 1
		outer loop
			vertex -1.495 72.79597 -14.587500002002717
			vertex -1.495 71.79597 -14.587500002002717
			vertex 1.495000009536743 72.79597 -14.587500002002717
		endloop
	endfacet
	facet normal 0 0 1
		outer loop
			vertex -1.495 71.79597 -14.587500002002717
			vertex 1.495000009536743 71.79597 -14.587500002002717
			vertex 1.495000009536743 72.79597 -14.587500002002717
		endloop
	endfacet
	facet normal 0 0 -1
		outer loop
			vertex 1.495000009536743 72.79597 -40.57749947509765
			vertex 1.495000009536743 71.79597 -40.57749947509765
			vertex -1.495 72.79597 -40.57749947509765
		endloop
	endfacet
	facet normal 0 0 -1
		outer loop
			vertex 1.495000009536743 71.79597 -40.57749947509765
			vertex -1.495 71.79597 -40.57749947509765
			vertex -1.495 72.79597 -40.57749947509765
		endloop
	endfacet
	facet normal 1 0 0
		outer loop
			vertex 2.5000000953674317 76.7959698526001 1.4179000000000004
			vertex 2.5000000953674317 61.79597000161171 1.4179000000000004
			vertex 2.5000000953674317 76.7959698526001 -4.5821
		endloop
	endfacet
	facet normal 1 0 0
		outer loop
			vertex 2.5000000953674317 61.79597000161171 1.4179000000000004
			vertex 2.5000000953674317 61.79597000161171 -4.5821
			vertex 2.5000000953674317 76.7959698526001 -4.5821
		endloop
	endfacet
	facet normal -1 0 0
		outer loop
			vertex -2.4999999046325683 76.7959698526001 -4.5821
			vertex -2.4999999046325683 61.79597000161171 -4.5821
			vertex -2.4999999046325683 76.7959698526001 1.4179000000000004
		endloop
	endfacet
	facet normal -1 0 0
		outer loop
			vertex -2.4999999046325683 61.79597000161171 -4.5821
			vertex -2.4999999046325683 61.79597000161171 1.4179000000000004
			vertex -2.4999999046325683 76.7959698526001 1.4179000000000004
		endloop
	endfacet
	facet normal 0 1 0
		outer loop
			vertex -2.4999999046325683 76.7959698526001 -4.5821
			vertex -2.4999999046325683 76.7959698526001 1.4179000000000004
			vertex 2.5000000953674317 76.7959698526001 -4.5821
		endloop
	endfacet
	facet normal 0 1 0
		outer loop
			vertex -2.4999999046325683 76.7959698526001 1.4179000000000004
			vertex 2.5000000953674317 76.7959698526001 1.4179000000000004
			vertex 2.5000000953674317 76.7959698526001 -4.5821
		endloop
	endfacet
	facet normal 0 -1 0
		outer loop
			vertex -2.4999999046325683 61.79597000161171 1.4179000000000004
			vertex -2.4999999046325683 61.79597000161171 -4.5821
			vertex 2.5000000953674317 61.79597000161171 1.4179000000000004
		endloop
	endfacet
	facet normal 0 -1 0
		outer loop
			vertex -2.4999999046325683 61.79597000161171 -4.5821
			vertex 2.5000000953674317 61.79597000161171 -4.5821
			vertex 2.5000000953674317 61.79597000161171 1.4179000000000004
		endloop
	endfacet
	facet normal 0 0 1
		outer loop
			vertex -2.4999999046325683 76.7959698526001 1.4179000000000004
			vertex -2.4999999046325683 61.79597000161171 1.4179000000000004
			vertex 2.5000000953674317 76.7959698526001 1.4179000000000004
		endloop
	endfacet
	facet normal 0 0 1
		outer loop
			vertex -2.4999999046325683 61.79597000161171 1.4179000000000004
			vertex 2.5000000953674317 61.79597000161171 1.4179000000000004
			vertex 2.5000000953674317 76.7959698526001 1.4179000000000004
		endloop
	endfacet
	facet normal 0 0 -1
		outer loop
			vertex 2.5000000953674317 76.7959698526001 -4.5821
			vertex 2.5000000953674317 61.79597000161171 -4.5821
			vertex -2.4999999046325683 76.7959698526001 -4.5821
		endloop
	endfacet
	facet normal 0 0 -1
		outer loop
			vertex 2.5000000953674317 61.79597000161171 -4.5821
			vertex -2.4999999046325683 61.79597000161171 -4.5821
			vertex -2.4999999046325683 76.7959698526001 -4.5821
		endloop
	endfacet
	facet normal 1 0 0
		outer loop
			vertex 2.5000000953674317 61.795969852600095 1.4179000000000004
			vertex 2.5000000953674317 46.79597000161171 1.4179000000000004
			vertex 2.5000000953674317 61.795969852600095 -4.5821
		endloop
	endfacet
	facet normal 1 0 0
		outer loop
			vertex 2.5000000953674317 46.79597000161171 1.4179000000000004
			vertex 2.5000000953674317 46.79597000161171 -4.5821
			vertex 2.5000000953674317 61.795969852600095 -4.5821
		endloop
	endfacet
	facet normal -1 0 0
		outer loop
			vertex -2.4999999046325683 61.795969852600095 -4.5821
			vertex -2.4999999046325683 46.79597000161171 -4.5821
			vertex -2.4999999046325683 61.795969852600095 1.4179000000000004
		endloop
	endfacet
	facet normal -1 0 0
		outer loop
			vertex -2.4999999046325683 46.79597000161171 -4.5821
			vertex -2.4999999046325683 46.79597000161171 1.4179000000000004
			vertex -2.4999999046325683 61.795969852600095 1.4179000000000004
		endloop
	endfacet
	facet normal 0 1 0
		outer loop
			vertex -2.4999999046325683 61.795969852600095 -4.5821
			vertex -2.4999999046325683 61.795969852600095 1.4179000000000004
			vertex 2.5000000953674317 61.795969852600095 -4.5821
		endloop
	endfacet
	facet normal 0 1 0
		outer loop
			vertex -2.4999999046325683 61.795969852600095 1.4179000000000004
			vertex 2.5000000953674317 61.795969852600095 1.4179000000000004
			vertex 2.5000000953674317 61.795969852600095 -4.5821
		endloop
	endfacet
	facet normal 0 -1 0
		outer loop
			vertex -2.4999999046325683 46.79597000161171 1.4179000000000004
			vertex -2.4999999046325683 46.79597000161171 -4.5821
			vertex 2.5000000953674317 46.79597000161171 1.4179000000000004
		endloop
	endfacet
	facet normal 0 -1 0
		outer loop
			vertex -2.4999999046325683 46.79597000161171 -4.5821
			vertex 2.5000000953674317 46.79597000161171 -4.5821
			vertex 2.5000000953674317 46.79597000161171 1.4179000000000004
		endloop
	endfacet
	facet normal 0 0 1
		outer loop
			vertex -2.4999999046325683 61.795969852600095 1.4179000000000004
			vertex -2.4999999046325683 46.79597000161171 1.4179000000000004
			vertex 2.5000000953674317 61.795969852600095 1.4179000000000004
		endloop
	endfacet
	facet normal 0 0 1
		outer loop
			vertex -2.4999999046325683 46.79597000161171 1.4179000000000004
			vertex 2.5000000953674317 46.79597000161171 1.4179000000000004
			vertex 2.5000000953674317 61.795969852600095 1.4179000000000004
		endloop
	endfacet
	facet normal 0 0 -1
		outer loop
			vertex 2.5000000953674317 61.795969852600095 -4.5821
			vertex 2.5000000953674317 46.79597000161171 -4.5821
			vertex -2.4999999046325683 61.795969852600095 -4.5821
		endloop
	endfacet
	facet normal 0 0 -1
		outer loop
			vertex 2.5000000953674317 46.79597000161171 -4.5821
			vertex -2.4999999046325683 46.79597000161171 -4.5821
			vertex -2.4999999046325683 61.795969852600095 -4.5821
		endloop
	endfacet
	facet normal 1 0 0
		outer loop
			vertex -6.100000023841858 -0.025120072479246858 -2.19276
			vertex -6.100000023841858 -0.02611999999999881 -2.19276
			vertex -6.100000023841858 -0.025120072479246858 -8.19276
		endloop
	endfacet
	facet normal 1 0 0
		outer loop
			vertex -6.100000023841858 -0.02611999999999881 -2.19276
			vertex -6.100000023841858 -0.02611999999999881 -8.19276
			vertex -6.100000023841858 -0.025120072479246858 -8.19276
		endloop
	endfacet
	facet normal -1 0 0
		outer loop
			vertex -12.099999904632568 -0.025120072479246858 -8.19276
			vertex -12.099999904632568 -0.02611999999999881 -8.19276
			vertex -12.099999904632568 -0.025120072479246858 -2.19276
		endloop
	endfacet
	facet normal -1 0 0
		outer loop
			vertex -12.099999904632568 -0.02611999999999881 -8.19276
			vertex -12.099999904632568 -0.02611999999999881 -2.19276
			vertex -12.099999904632568 -0.025120072479246858 -2.19276
		endloop
	endfacet
	facet normal 0 1 0
		outer loop
			vertex -12.099999904632568 -0.025120072479246858 -8.19276
			vertex -12.099999904632568 -0.025120072479246858 -2.19276
			vertex -6.100000023841858 -0.025120072479246858 -8.19276
		endloop
	endfacet
	facet normal 0 1 0
		outer loop
			vertex -12.099999904632568 -0.025120072479246858 -2.19276
			vertex -6.100000023841858 -0.025120072479246858 -2.19276
			vertex -6.100000023841858 -0.025120072479246858 -8.19276
		endloop
	endfacet
	facet normal 0 -1 0
		outer loop
			vertex -12.099999904632568 -0.02611999999999881 -2.19276
			vertex -12.099999904632568 -0.02611999999999881 -8.19276
			vertex -6.100000023841858 -0.02611999999999881 -2.19276
		endloop
	endfacet
	facet normal 0 -1 0
		outer loop
			vertex -12.099999904632568 -0.02611999999999881 -8.19276
			vertex -6.100000023841858 -0.02611999999999881 -8.19276
			vertex -6.100000023841858 -0.02611999999999881 -2.19276
		endloop
	endfacet
	facet normal 0 0 1
		outer loop
			vertex -12.099999904632568 -0.025120072479246858 -2.19276
			vertex -12.099999904632568 -0.02611999999999881 -2.19276
			vertex -6.100000023841858 -0.025120072479246858 -2.19276
		endloop
	endfacet
	facet normal 0 0 1
		outer loop
			vertex -12.099999904632568 -0.02611999999999881 -2.19276
			vertex -6.100000023841858 -0.02611999999999881 -2.19276
			vertex -6.100000023841858 -0.025120072479246858 -2.19276
		endloop
	endfacet
	facet normal 0 0 -1
		outer loop
			vertex -6.100000023841858 -0.025120072479246858 -8.19276
			vertex -6.100000023841858 -0.02611999999999881 -8.19276
			vertex -12.099999904632568 -0.025120072479246858 -8.19276
		endloop
	endfacet
	facet normal 0 0 -1
		outer loop
			vertex -6.100000023841858 -0.02611999999999881 -8.19276
			vertex -12.099999904632568 -0.02611999999999881 -8.19276
			vertex -12.099999904632568 -0.025120072479246858 -8.19276
		endloop
	endfacet
	facet normal 1 0 0
		outer loop
			vertex -7.504000008106232 33.232050807568875 26.830127018922195
			vertex -7.504000008106232 -7.47114317029974 3.330127018922198
			vertex -7.504000008106232 45.732050807568875 5.179491924311225
		endloop
	endfacet
	facet normal 1 0 0
		outer loop
			vertex -7.504000008106232 -7.47114317029974 3.330127018922198
			vertex -7.504000008106232 5.02885682970026 -18.32050807568877
			vertex -7.504000008106232 45.732050807568875 5.179491924311225
		endloop
	endfacet
	facet normal -1 0 0
		outer loop
			vertex -7.504999995231628 45.732050807568875 5.179491924311225
			vertex -7.504999995231628 5.02885682970026 -18.32050807568877
			vertex -7.504999995231628 33.232050807568875 26.830127018922195
		endloop
	endfacet
	facet normal -1 0 0
		outer loop
			vertex -7.504999995231628 5.02885682970026 -18.32050807568877
			vertex -7.504999995231628 -7.47114317029974 3.330127018922198
			vertex -7.504999995231628 33.232050807568875 26.830127018922195
		endloop
	endfacet
	facet normal 0 0.8660254037844388 0.5
		outer loop
			vertex -7.504999995231628 45.732050807568875 5.179491924311225
			vertex -7.504999995231628 33.232050807568875 26.830127018922195
			vertex -7.504000008106232 45.732050807568875 5.179491924311225
		endloop
	endfacet
	facet normal 0 0.8660254037844388 0.5
		outer loop
			vertex -7.504999995231628 33.232050807568875 26.830127018922195
			vertex -7.504000008106232 33.232050807568875 26.830127018922195
			vertex -7.504000008106232 45.732050807568875 5.179491924311225
		endloop
	endfacet
	facet normal 0 -0.8660254037844388 -0.5
		outer loop
			vertex -7.504999995231628 -7.47114317029974 3.330127018922198
			vertex -7.504999995231628 5.02885682970026 -18.32050807568877
			vertex -7.504000008106232 -7.47114317029974 3.330127018922198
		endloop
	endfacet
	facet normal 0 -0.8660254037844388 -0.5
		outer loop
			vertex -7.504999995231628 5.02885682970026 -18.32050807568877
			vertex -7.504000008106232 5.02885682970026 -18.32050807568877
			vertex -7.504000008106232 -7.47114317029974 3.330127018922198
		endloop
	endfacet
	facet normal 0 -0.5 0.8660254037844387
		outer loop
			vertex -7.504999995231628 33.232050807568875 26.830127018922195
			vertex -7.504999995231628 -7.47114317029974 3.330127018922198
			vertex -7.504000008106232 33.232050807568875 26.830127018922195
		endloop
	endfacet
	facet normal 0 -0.5 0.8660254037844387
		outer loop
			vertex -7.504999995231628 -7.47114317029974 3.330127018922198
			vertex -7.504000008106232 -7.47114317029974 3.330127018922198
			vertex -7.504000008106232 33.232050807568875 26.830127018922195
		endloop
	endfacet
	facet normal 0 0.5 -0.8660254037844387
		outer loop
			vertex -7.504000008106232 45.732050807568875 5.179491924311225
			vertex -7.504000008106232 5.02885682970026 -18.32050807568877
			vertex -7.504999995231628 45.732050807568875 5.179491924311225
		endloop
	endfacet
	facet normal 0 0.5 -0.8660254037844387
		outer loop
			vertex -7.504000008106232 5.02885682970026 -18.32050807568877
			vertex -7.504999995231628 5.02885682970026 -18.32050807568877
			vertex -7.504999995231628 45.732050807568875 5.179491924311225
		endloop
	endfacet
	facet normal 1 0 0
		outer loop
			vertex -7.4989999999525025 41 9.5
			vertex -7.4989999999525025 -2 9.5
			vertex -7.4989999999525025 41 -10.5
		endloop
	endfacet
	facet normal 1 0 0
		outer loop
			vertex -7.4989999999525025 -2 9.5
			vertex -7.4989999999525025 -2 -10.5
			vertex -7.4989999999525025 41 -10.5
		endloop
	endfacet
	facet normal -1 0 0
		outer loop
			vertex -7.5 41 -10.5
			vertex -7.5 -2 -10.5
			vertex -7.5 41 9.5
		endloop
	endfacet
	facet normal -1 0 0
		outer loop
			vertex -7.5 -2 -10.5
			vertex -7.5 -2 9.5
			vertex -7.5 41 9.5
		endloop
	endfacet
	facet normal 0 1 0
		outer loop
			vertex -7.5 41 -10.5
			vertex -7.5 41 9.5
			vertex -7.4989999999525025 41 -10.5
		endloop
	endfacet
	facet normal 0 1 0
		outer loop
			vertex -7.5 41 9.5
			vertex -7.4989999999525025 41 9.5
			vertex -7.4989999999525025 41 -10.5
		endloop
	endfacet
	facet normal 0 -1 0
		outer loop
			vertex -7.5 -2 9.5
			vertex -7.5 -2 -10.5
			vertex -7.4989999999525025 -2 9.5
		endloop
	endfacet
	facet normal 0 -1 0
		outer loop
			vertex -7.5 -2 -10.5
			vertex -7.4989999999525025 -2 -10.5
			vertex -7.4989999999525025 -2 9.5
		endloop
	endfacet
	facet normal 0 0 1
		outer loop
			vertex -7.5 41 9.5
			vertex -7.5 -2 9.5
			vertex -7.4989999999525025 41 9.5
		endloop
	endfacet
	facet normal 0 0 1
		outer loop
			vertex -7.5 -2 9.5
			vertex -7.4989999999525025 -2 9.5
			vertex -7.4989999999525025 41 9.5
		endloop
	endfacet
	facet normal 0 0 -1
		outer loop
			vertex -7.4989999999525025 41 -10.5
			vertex -7.4989999999525025 -2 -10.5
			vertex -7.5 41 -10.5
		endloop
	endfacet
	facet normal 0 0 -1
		outer loop
			vertex -7.4989999999525025 -2 -10.5
			vertex -7.5 -2 -10.5
			vertex -7.5 41 -10.5
		endloop
	endfacet
	facet normal 1 0 0
		outer loop
			vertex -6.100000023841858 21.97388 -4.19276
			vertex -6.100000023841858 -0.026120000000000587 -4.19276
			vertex -6.100000023841858 21.97388 -8.19276
		endloop
	endfacet
	facet normal 1 0 0
		outer loop
			vertex -6.100000023841858 -0.026120000000000587 -4.19276
			vertex -6.100000023841858 -0.026120000000000587 -8.19276
			vertex -6.100000023841858 21.97388 -8.19276
		endloop
	endfacet
	facet normal -1 0 0
		outer loop
			vertex -9.099999904632568 21.97388 -8.19276
			vertex -9.099999904632568 -0.026120000000000587 -8.19276
			vertex -9.099999904632568 21.97388 -4.19276
		endloop
	endfacet
	facet normal -1 0 0
		outer loop
			vertex -9.099999904632568 -0.026120000000000587 -8.19276
			vertex -9.099999904632568 -0.026120000000000587 -4.19276
			vertex -9.099999904632568 21.97388 -4.19276
		endloop
	endfacet
	facet normal 0 1 0
		outer loop
			vertex -9.099999904632568 21.97388 -8.19276
			vertex -9.099999904632568 21.97388 -4.19276
			vertex -6.100000023841858 21.97388 -8.19276
		endloop
	endfacet
	facet normal 0 1 0
		outer loop
			vertex -9.099999904632568 21.97388 -4.19276
			vertex -6.100000023841858 21.97388 -4.19276
			vertex -6.100000023841858 21.97388 -8.19276
		endloop
	endfacet
	facet normal 0 -1 0
		outer loop
			vertex -9.099999904632568 -0.026120000000000587 -4.19276
			vertex -9.099999904632568 -0.026120000000000587 -8.19276
			vertex -6.100000023841858 -0.026120000000000587 -4.19276
		endloop
	endfacet
	facet normal 0 -1 0
		outer loop
			vertex -9.099999904632568 -0.026120000000000587 -8.19276
			vertex -6.100000023841858 -0.026120000000000587 -8.19276
			vertex -6.100000023841858 -0.026120000000000587 -4.19276
		endloop
	endfacet
	facet normal 0 0 1
		outer loop
			vertex -9.099999904632568 21.97388 -4.19276
			vertex -9.099999904632568 -0.026120000000000587 -4.19276
			vertex -6.100000023841858 21.97388 -4.19276
		endloop
	endfacet
	facet normal 0 0 1
		outer loop
			vertex -9.099999904632568 -0.026120000000000587 -4.19276
			vertex -6.100000023841858 -0.026120000000000587 -4.19276
			vertex -6.100000023841858 21.97388 -4.19276
		endloop
	endfacet
	facet normal 0 0 -1
		outer loop
			vertex -6.100000023841858 21.97388 -8.19276
			vertex -6.100000023841858 -0.026120000000000587 -8.19276
			vertex -9.099999904632568 21.97388 -8.19276
		endloop
	endfacet
	facet normal 0 0 -1
		outer loop
			vertex -6.100000023841858 -0.026120000000000587 -8.19276
			vertex -9.099999904632568 -0.026120000000000587 -8.19276
			vertex -9.099999904632568 21.97388 -8.19276
		endloop
	endfacet
	facet normal 1 0 0
		outer loop
			vertex -6.050000011920929 37.53589984983684 6.4641019875196
			vertex -6.050000011920929 19.82467948776624 -4.819189787763701
			vertex -6.050000011920929 39.685098283224136 3.0905362042680573
		endloop
	endfacet
	facet normal 1 0 0
		outer loop
			vertex -6.050000011920929 19.82467948776624 -4.819189787763701
			vertex -6.050000011920929 21.973877921153537 -8.192755571015244
			vertex -6.050000011920929 39.685098283224136 3.0905362042680573
		endloop
	endfacet
	facet normal -1 0 0
		outer loop
			vertex -9.049999952316284 39.685098283224136 3.0905362042680573
			vertex -9.049999952316284 21.973877921153537 -8.192755571015244
			vertex -9.049999952316284 37.53589984983684 6.4641019875196
		endloop
	endfacet
	facet normal -1 0 0
		outer loop
			vertex -9.049999952316284 21.973877921153537 -8.192755571015244
			vertex -9.049999952316284 19.82467948776624 -4.819189787763701
			vertex -9.049999952316284 37.53589984983684 6.4641019875196
		endloop
	endfacet
	facet normal 0 0.8433914458128854 0.5372996083468243
		outer loop
			vertex -9.049999952316284 39.685098283224136 3.0905362042680573
			vertex -9.049999952316284 37.53589984983684 6.4641019875196
			vertex -6.050000011920929 39.685098283224136 3.0905362042680573
		endloop
	endfacet
	facet normal 0 0.8433914458128854 0.5372996083468243
		outer loop
			vertex -9.049999952316284 37.53589984983684 6.4641019875196
			vertex -6.050000011920929 37.53589984983684 6.4641019875196
			vertex -6.050000011920929 39.685098283224136 3.0905362042680573
		endloop
	endfacet
	facet normal 0 -0.8433914458128854 -0.5372996083468243
		outer loop
			vertex -9.049999952316284 19.82467948776624 -4.819189787763701
			vertex -9.049999952316284 21.973877921153537 -8.192755571015244
			vertex -6.050000011920929 19.82467948776624 -4.819189787763701
		endloop
	endfacet
	facet normal 0 -0.8433914458128854 -0.5372996083468243
		outer loop
			vertex -9.049999952316284 21.973877921153537 -8.192755571015244
			vertex -6.050000011920929 21.973877921153537 -8.192755571015244
			vertex -6.050000011920929 19.82467948776624 -4.819189787763701
		endloop
	endfacet
	facet normal 0 -0.537299608346824 0.8433914458128858
		outer loop
			vertex -9.049999952316284 37.53589984983684 6.4641019875196
			vertex -9.049999952316284 19.82467948776624 -4.819189787763701
			vertex -6.050000011920929 37.53589984983684 6.4641019875196
		endloop
	endfacet
	facet normal 0 -0.537299608346824 0.8433914458128858
		outer loop
			vertex -9.049999952316284 19.82467948776624 -4.819189787763701
			vertex -6.050000011920929 19.82467948776624 -4.819189787763701
			vertex -6.050000011920929 37.53589984983684 6.4641019875196
		endloop
	endfacet
	facet normal 0 0.537299608346824 -0.8433914458128858
		outer loop
			vertex -6.050000011920929 39.685098283224136 3.0905362042680573
			vertex -6.050000011920929 21.973877921153537 -8.192755571015244
			vertex -9.049999952316284 39.685098283224136 3.0905362042680573
		endloop
	endfacet
	facet normal 0 0.537299608346824 -0.8433914458128858
		outer loop
			vertex -6.050000011920929 21.973877921153537 -8.192755571015244
			vertex -9.049999952316284 21.973877921153537 -8.192755571015244
			vertex -9.049999952316284 39.685098283224136 3.0905362042680573
		endloop
	endfacet
	facet normal 1 0 0
		outer loop
			vertex -7.4989999532699585 43.97388 5.807239999999999
			vertex -7.4989999532699585 12.973880000000001 5.807239999999999
			vertex -7.4989999532699585 43.97388 -11.19276
		endloop
	endfacet
	facet normal 1 0 0
		outer loop
			vertex -7.4989999532699585 12.973880000000001 5.807239999999999
			vertex -7.4989999532699585 12.973880000000001 -11.19276
			vertex -7.4989999532699585 43.97388 -11.19276
		endloop
	endfacet
	facet normal -1 0 0
		outer loop
			vertex -7.5 43.97388 -11.19276
			vertex -7.5 12.973880000000001 -11.19276
			vertex -7.5 43.97388 5.807239999999999
		endloop
	endfacet
	facet normal -1 0 0
		outer loop
			vertex -7.5 12.973880000000001 -11.19276
			vertex -7.5 12.973880000000001 5.807239999999999
			vertex -7.5 43.97388 5.807239999999999
		endloop
	endfacet
	facet normal 0 1 0
		outer loop
			vertex -7.5 43.97388 -11.19276
			vertex -7.5 43.97388 5.807239999999999
			vertex -7.4989999532699585 43.97388 -11.19276
		endloop
	endfacet
	facet normal 0 1 0
		outer loop
			vertex -7.5 43.97388 5.807239999999999
			vertex -7.4989999532699585 43.97388 5.807239999999999
			vertex -7.4989999532699585 43.97388 -11.19276
		endloop
	endfacet
	facet normal 0 -1 0
		outer loop
			vertex -7.5 12.973880000000001 5.807239999999999
			vertex -7.5 12.973880000000001 -11.19276
			vertex -7.4989999532699585 12.973880000000001 5.807239999999999
		endloop
	endfacet
	facet normal 0 -1 0
		outer loop
			vertex -7.5 12.973880000000001 -11.19276
			vertex -7.4989999532699585 12.973880000000001 -11.19276
			vertex -7.4989999532699585 12.973880000000001 5.807239999999999
		endloop
	endfacet
	facet normal 0 0 1
		outer loop
			vertex -7.5 43.97388 5.807239999999999
			vertex -7.5 12.973880000000001 5.807239999999999
			vertex -7.4989999532699585 43.97388 5.807239999999999
		endloop
	endfacet
	facet normal 0 0 1
		outer loop
			vertex -7.5 12.973880000000001 5.807239999999999
			vertex -7.4989999532699585 12.973880000000001 5.807239999999999
			vertex -7.4989999532699585 43.97388 5.807239999999999
		endloop
	endfacet
	facet normal 0 0 -1
		outer loop
			vertex -7.4989999532699585 43.97388 -11.19276
			vertex -7.4989999532699585 12.973880000000001 -11.19276
			vertex -7.5 43.97388 -11.19276
		endloop
	endfacet
	facet normal 0 0 -1
		outer loop
			vertex -7.4989999532699585 12.973880000000001 -11.19276
			vertex -7.5 12.973880000000001 -11.19276
			vertex -7.5 43.97388 -11.19276
		endloop
	endfacet
	facet normal 1 0 0
		outer loop
			vertex -6 46.19615242270663 1.4641016151377553
			vertex -6 37.53589838486224 6.464101615137754
			vertex -6 43.69615242270663 -2.8660254037844384
		endloop
	endfacet
	facet normal 1 0 0
		outer loop
			vertex -6 37.53589838486224 6.464101615137754
			vertex -6 35.03589838486224 2.133974596215561
			vertex -6 43.69615242270663 -2.8660254037844384
		endloop
	endfacet
	facet normal -1 0 0
		outer loop
			vertex -9 43.69615242270663 -2.8660254037844384
			vertex -9 35.03589838486224 2.133974596215561
			vertex -9 46.19615242270663 1.4641016151377553
		endloop
	endfacet
	facet normal -1 0 0
		outer loop
			vertex -9 35.03589838486224 2.133974596215561
			vertex -9 37.53589838486224 6.464101615137754
			vertex -9 46.19615242270663 1.4641016151377553
		endloop
	endfacet
	facet normal 0 0.8660254037844387 -0.5
		outer loop
			vertex -9 43.69615242270663 -2.8660254037844384
			vertex -9 46.19615242270663 1.4641016151377553
			vertex -6 43.69615242270663 -2.8660254037844384
		endloop
	endfacet
	facet normal 0 0.8660254037844387 -0.5
		outer loop
			vertex -9 46.19615242270663 1.4641016151377553
			vertex -6 46.19615242270663 1.4641016151377553
			vertex -6 43.69615242270663 -2.8660254037844384
		endloop
	endfacet
	facet normal 0 -0.8660254037844387 0.5000000000000001
		outer loop
			vertex -9 37.53589838486224 6.464101615137754
			vertex -9 35.03589838486224 2.133974596215561
			vertex -6 37.53589838486224 6.464101615137754
		endloop
	endfacet
	facet normal 0 -0.8660254037844387 0.5000000000000001
		outer loop
			vertex -9 35.03589838486224 2.133974596215561
			vertex -6 35.03589838486224 2.133974596215561
			vertex -6 37.53589838486224 6.464101615137754
		endloop
	endfacet
	facet normal 0 0.4999999999999999 0.8660254037844389
		outer loop
			vertex -9 46.19615242270663 1.4641016151377553
			vertex -9 37.53589838486224 6.464101615137754
			vertex -6 46.19615242270663 1.4641016151377553
		endloop
	endfacet
	facet normal 0 0.4999999999999999 0.8660254037844389
		outer loop
			vertex -9 37.53589838486224 6.464101615137754
			vertex -6 37.53589838486224 6.464101615137754
			vertex -6 46.19615242270663 1.4641016151377553
		endloop
	endfacet
	facet normal 0 -0.4999999999999999 -0.8660254037844387
		outer loop
			vertex -6 43.69615242270663 -2.8660254037844384
			vertex -6 35.03589838486224 2.133974596215561
			vertex -9 43.69615242270663 -2.8660254037844384
		endloop
	endfacet
	facet normal 0 -0.4999999999999999 -0.8660254037844387
		outer loop
			vertex -6 35.03589838486224 2.133974596215561
			vertex -9 35.03589838486224 2.133974596215561
			vertex -9 43.69615242270663 -2.8660254037844384
		endloop
	endfacet
	facet normal 1 0 0
		outer loop
			vertex 12.099999904632568 -0.025120072479246858 -2.19276
			vertex 12.099999904632568 -0.02611999999999881 -2.19276
			vertex 12.099999904632568 -0.025120072479246858 -8.19276
		endloop
	endfacet
	facet normal 1 0 0
		outer loop
			vertex 12.099999904632568 -0.02611999999999881 -2.19276
			vertex 12.099999904632568 -0.02611999999999881 -8.19276
			vertex 12.099999904632568 -0.025120072479246858 -8.19276
		endloop
	endfacet
	facet normal -1 0 0
		outer loop
			vertex 6.100000023841858 -0.025120072479246858 -8.19276
			vertex 6.100000023841858 -0.02611999999999881 -8.19276
			vertex 6.100000023841858 -0.025120072479246858 -2.19276
		endloop
	endfacet
	facet normal -1 0 0
		outer loop
			vertex 6.100000023841858 -0.02611999999999881 -8.19276
			vertex 6.100000023841858 -0.02611999999999881 -2.19276
			vertex 6.100000023841858 -0.025120072479246858 -2.19276
		endloop
	endfacet
	facet normal 0 1 0
		outer loop
			vertex 6.100000023841858 -0.025120072479246858 -8.19276
			vertex 6.100000023841858 -0.025120072479246858 -2.19276
			vertex 12.099999904632568 -0.025120072479246858 -8.19276
		endloop
	endfacet
	facet normal 0 1 0
		outer loop
			vertex 6.100000023841858 -0.025120072479246858 -2.19276
			vertex 12.099999904632568 -0.025120072479246858 -2.19276
			vertex 12.099999904632568 -0.025120072479246858 -8.19276
		endloop
	endfacet
	facet normal 0 -1 0
		outer loop
			vertex 6.100000023841858 -0.02611999999999881 -2.19276
			vertex 6.100000023841858 -0.02611999999999881 -8.19276
			vertex 12.099999904632568 -0.02611999999999881 -2.19276
		endloop
	endfacet
	facet normal 0 -1 0
		outer loop
			vertex 6.100000023841858 -0.02611999999999881 -8.19276
			vertex 12.099999904632568 -0.02611999999999881 -8.19276
			vertex 12.099999904632568 -0.02611999999999881 -2.19276
		endloop
	endfacet
	facet normal 0 0 1
		outer loop
			vertex 6.100000023841858 -0.025120072479246858 -2.19276
			vertex 6.100000023841858 -0.02611999999999881 -2.19276
			vertex 12.099999904632568 -0.025120072479246858 -2.19276
		endloop
	endfacet
	facet normal 0 0 1
		outer loop
			vertex 6.100000023841858 -0.02611999999999881 -2.19276
			vertex 12.099999904632568 -0.02611999999999881 -2.19276
			vertex 12.099999904632568 -0.025120072479246858 -2.19276
		endloop
	endfacet
	facet normal 0 0 -1
		outer loop
			vertex 12.099999904632568 -0.025120072479246858 -8.19276
			vertex 12.099999904632568 -0.02611999999999881 -8.19276
			vertex 6.100000023841858 -0.025120072479246858 -8.19276
		endloop
	endfacet
	facet normal 0 0 -1
		outer loop
			vertex 12.099999904632568 -0.02611999999999881 -8.19276
			vertex 6.100000023841858 -0.02611999999999881 -8.19276
			vertex 6.100000023841858 -0.025120072479246858 -8.19276
		endloop
	endfacet
	facet normal 1 0 0
		outer loop
			vertex 7.5060000032186505 33.232050807568875 26.830127018922195
			vertex 7.5060000032186505 -7.47114317029974 3.330127018922198
			vertex 7.5060000032186505 45.732050807568875 5.179491924311225
		endloop
	endfacet
	facet normal 1 0 0
		outer loop
			vertex 7.5060000032186505 -7.47114317029974 3.330127018922198
			vertex 7.5060000032186505 5.02885682970026 -18.32050807568877
			vertex 7.5060000032186505 45.732050807568875 5.179491924311225
		endloop
	endfacet
	facet normal -1 0 0
		outer loop
			vertex 7.5050000011920925 45.732050807568875 5.179491924311225
			vertex 7.5050000011920925 5.02885682970026 -18.32050807568877
			vertex 7.5050000011920925 33.232050807568875 26.830127018922195
		endloop
	endfacet
	facet normal -1 0 0
		outer loop
			vertex 7.5050000011920925 5.02885682970026 -18.32050807568877
			vertex 7.5050000011920925 -7.47114317029974 3.330127018922198
			vertex 7.5050000011920925 33.232050807568875 26.830127018922195
		endloop
	endfacet
	facet normal 0 0.8660254037844388 0.5
		outer loop
			vertex 7.5050000011920925 45.732050807568875 5.179491924311225
			vertex 7.5050000011920925 33.232050807568875 26.830127018922195
			vertex 7.5060000032186505 45.732050807568875 5.179491924311225
		endloop
	endfacet
	facet normal 0 0.8660254037844388 0.5
		outer loop
			vertex 7.5050000011920925 33.232050807568875 26.830127018922195
			vertex 7.5060000032186505 33.232050807568875 26.830127018922195
			vertex 7.5060000032186505 45.732050807568875 5.179491924311225
		endloop
	endfacet
	facet normal 0 -0.8660254037844388 -0.5
		outer loop
			vertex 7.5050000011920925 -7.47114317029974 3.330127018922198
			vertex 7.5050000011920925 5.02885682970026 -18.32050807568877
			vertex 7.5060000032186505 -7.47114317029974 3.330127018922198
		endloop
	endfacet
	facet normal 0 -0.8660254037844388 -0.5
		outer loop
			vertex 7.5050000011920925 5.02885682970026 -18.32050807568877
			vertex 7.5060000032186505 5.02885682970026 -18.32050807568877
			vertex 7.5060000032186505 -7.47114317029974 3.330127018922198
		endloop
	endfacet
	facet normal 0 -0.5 0.8660254037844387
		outer loop
			vertex 7.5050000011920925 33.232050807568875 26.830127018922195
			vertex 7.5050000011920925 -7.47114317029974 3.330127018922198
			vertex 7.5060000032186505 33.232050807568875 26.830127018922195
		endloop
	endfacet
	facet normal 0 -0.5 0.8660254037844387
		outer loop
			vertex 7.5050000011920925 -7.47114317029974 3.330127018922198
			vertex 7.5060000032186505 -7.47114317029974 3.330127018922198
			vertex 7.5060000032186505 33.232050807568875 26.830127018922195
		endloop
	endfacet
	facet normal 0 0.5 -0.8660254037844387
		outer loop
			vertex 7.5060000032186505 45.732050807568875 5.179491924311225
			vertex 7.5060000032186505 5.02885682970026 -18.32050807568877
			vertex 7.5050000011920925 45.732050807568875 5.179491924311225
		endloop
	endfacet
	facet normal 0 0.5 -0.8660254037844387
		outer loop
			vertex 7.5060000032186505 5.02885682970026 -18.32050807568877
			vertex 7.5050000011920925 5.02885682970026 -18.32050807568877
			vertex 7.5050000011920925 45.732050807568875 5.179491924311225
		endloop
	endfacet
	facet normal 1 0 0
		outer loop
			vertex 7.5010000000474975 41 9.5
			vertex 7.5010000000474975 -2 9.5
			vertex 7.5010000000474975 41 -10.5
		endloop
	endfacet
	facet normal 1 0 0
		outer loop
			vertex 7.5010000000474975 -2 9.5
			vertex 7.5010000000474975 -2 -10.5
			vertex 7.5010000000474975 41 -10.5
		endloop
	endfacet
	facet normal -1 0 0
		outer loop
			vertex 7.5 41 -10.5
			vertex 7.5 -2 -10.5
			vertex 7.5 41 9.5
		endloop
	endfacet
	facet normal -1 0 0
		outer loop
			vertex 7.5 -2 -10.5
			vertex 7.5 -2 9.5
			vertex 7.5 41 9.5
		endloop
	endfacet
	facet normal 0 1 0
		outer loop
			vertex 7.5 41 -10.5
			vertex 7.5 41 9.5
			vertex 7.5010000000474975 41 -10.5
		endloop
	endfacet
	facet normal 0 1 0
		outer loop
			vertex 7.5 41 9.5
			vertex 7.5010000000474975 41 9.5
			vertex 7.5010000000474975 41 -10.5
		endloop
	endfacet
	facet normal 0 -1 0
		outer loop
			vertex 7.5 -2 9.5
			vertex 7.5 -2 -10.5
			vertex 7.5010000000474975 -2 9.5
		endloop
	endfacet
	facet normal 0 -1 0
		outer loop
			vertex 7.5 -2 -10.5
			vertex 7.5010000000474975 -2 -10.5
			vertex 7.5010000000474975 -2 9.5
		endloop
	endfacet
	facet normal 0 0 1
		outer loop
			vertex 7.5 41 9.5
			vertex 7.5 -2 9.5
			vertex 7.5010000000474975 41 9.5
		endloop
	endfacet
	facet normal 0 0 1
		outer loop
			vertex 7.5 -2 9.5
			vertex 7.5010000000474975 -2 9.5
			vertex 7.5010000000474975 41 9.5
		endloop
	endfacet
	facet normal 0 0 -1
		outer loop
			vertex 7.5010000000474975 41 -10.5
			vertex 7.5010000000474975 -2 -10.5
			vertex 7.5 41 -10.5
		endloop
	endfacet
	facet normal 0 0 -1
		outer loop
			vertex 7.5010000000474975 -2 -10.5
			vertex 7.5 -2 -10.5
			vertex 7.5 41 -10.5
		endloop
	endfacet
	facet normal 1 0 0
		outer loop
			vertex 9.099999904632568 21.97388 -4.19276
			vertex 9.099999904632568 -0.026120000000000587 -4.19276
			vertex 9.099999904632568 21.97388 -8.19276
		endloop
	endfacet
	facet normal 1 0 0
		outer loop
			vertex 9.099999904632568 -0.026120000000000587 -4.19276
			vertex 9.099999904632568 -0.026120000000000587 -8.19276
			vertex 9.099999904632568 21.97388 -8.19276
		endloop
	endfacet
	facet normal -1 0 0
		outer loop
			vertex 6.100000023841858 21.97388 -8.19276
			vertex 6.100000023841858 -0.026120000000000587 -8.19276
			vertex 6.100000023841858 21.97388 -4.19276
		endloop
	endfacet
	facet normal -1 0 0
		outer loop
			vertex 6.100000023841858 -0.026120000000000587 -8.19276
			vertex 6.100000023841858 -0.026120000000000587 -4.19276
			vertex 6.100000023841858 21.97388 -4.19276
		endloop
	endfacet
	facet normal 0 1 0
		outer loop
			vertex 6.100000023841858 21.97388 -8.19276
			vertex 6.100000023841858 21.97388 -4.19276
			vertex 9.099999904632568 21.97388 -8.19276
		endloop
	endfacet
	facet normal 0 1 0
		outer loop
			vertex 6.100000023841858 21.97388 -4.19276
			vertex 9.099999904632568 21.97388 -4.19276
			vertex 9.099999904632568 21.97388 -8.19276
		endloop
	endfacet
	facet normal 0 -1 0
		outer loop
			vertex 6.100000023841858 -0.026120000000000587 -4.19276
			vertex 6.100000023841858 -0.026120000000000587 -8.19276
			vertex 9.099999904632568 -0.026120000000000587 -4.19276
		endloop
	endfacet
	facet normal 0 -1 0
		outer loop
			vertex 6.100000023841858 -0.026120000000000587 -8.19276
			vertex 9.099999904632568 -0.026120000000000587 -8.19276
			vertex 9.099999904632568 -0.026120000000000587 -4.19276
		endloop
	endfacet
	facet normal 0 0 1
		outer loop
			vertex 6.100000023841858 21.97388 -4.19276
			vertex 6.100000023841858 -0.026120000000000587 -4.19276
			vertex 9.099999904632568 21.97388 -4.19276
		endloop
	endfacet
	facet normal 0 0 1
		outer loop
			vertex 6.100000023841858 -0.026120000000000587 -4.19276
			vertex 9.099999904632568 -0.026120000000000587 -4.19276
			vertex 9.099999904632568 21.97388 -4.19276
		endloop
	endfacet
	facet normal 0 0 -1
		outer loop
			vertex 9.099999904632568 21.97388 -8.19276
			vertex 9.099999904632568 -0.026120000000000587 -8.19276
			vertex 6.100000023841858 21.97388 -8.19276
		endloop
	endfacet
	facet normal 0 0 -1
		outer loop
			vertex 9.099999904632568 -0.026120000000000587 -8.19276
			vertex 6.100000023841858 -0.026120000000000587 -8.19276
			vertex 6.100000023841858 21.97388 -8.19276
		endloop
	endfacet
	facet normal 1 0 0
		outer loop
			vertex 9.049999952316284 37.53589984983684 6.4641019875196
			vertex 9.049999952316284 19.82467948776624 -4.819189787763701
			vertex 9.049999952316284 39.685098283224136 3.0905362042680573
		endloop
	endfacet
	facet normal 1 0 0
		outer loop
			vertex 9.049999952316284 19.82467948776624 -4.819189787763701
			vertex 9.049999952316284 21.973877921153537 -8.192755571015244
			vertex 9.049999952316284 39.685098283224136 3.0905362042680573
		endloop
	endfacet
	facet normal -1 0 0
		outer loop
			vertex 6.050000011920929 39.685098283224136 3.0905362042680573
			vertex 6.050000011920929 21.973877921153537 -8.192755571015244
			vertex 6.050000011920929 37.53589984983684 6.4641019875196
		endloop
	endfacet
	facet normal -1 0 0
		outer loop
			vertex 6.050000011920929 21.973877921153537 -8.192755571015244
			vertex 6.050000011920929 19.82467948776624 -4.819189787763701
			vertex 6.050000011920929 37.53589984983684 6.4641019875196
		endloop
	endfacet
	facet normal 0 0.8433914458128854 0.5372996083468243
		outer loop
			vertex 6.050000011920929 39.685098283224136 3.0905362042680573
			vertex 6.050000011920929 37.53589984983684 6.4641019875196
			vertex 9.049999952316284 39.685098283224136 3.0905362042680573
		endloop
	endfacet
	facet normal 0 0.8433914458128854 0.5372996083468243
		outer loop
			vertex 6.050000011920929 37.53589984983684 6.4641019875196
			vertex 9.049999952316284 37.53589984983684 6.4641019875196
			vertex 9.049999952316284 39.685098283224136 3.0905362042680573
		endloop
	endfacet
	facet normal 0 -0.8433914458128854 -0.5372996083468243
		outer loop
			vertex 6.050000011920929 19.82467948776624 -4.819189787763701
			vertex 6.050000011920929 21.973877921153537 -8.192755571015244
			vertex 9.049999952316284 19.82467948776624 -4.819189787763701
		endloop
	endfacet
	facet normal 0 -0.8433914458128854 -0.5372996083468243
		outer loop
			vertex 6.050000011920929 21.973877921153537 -8.192755571015244
			vertex 9.049999952316284 21.973877921153537 -8.192755571015244
			vertex 9.049999952316284 19.82467948776624 -4.819189787763701
		endloop
	endfacet
	facet normal 0 -0.537299608346824 0.8433914458128858
		outer loop
			vertex 6.050000011920929 37.53589984983684 6.4641019875196
			vertex 6.050000011920929 19.82467948776624 -4.819189787763701
			vertex 9.049999952316284 37.53589984983684 6.4641019875196
		endloop
	endfacet
	facet normal 0 -0.537299608346824 0.8433914458128858
		outer loop
			vertex 6.050000011920929 19.82467948776624 -4.819189787763701
			vertex 9.049999952316284 19.82467948776624 -4.819189787763701
			vertex 9.049999952316284 37.53589984983684 6.4641019875196
		endloop
	endfacet
	facet normal 0 0.537299608346824 -0.8433914458128858
		outer loop
			vertex 9.049999952316284 39.685098283224136 3.0905362042680573
			vertex 9.049999952316284 21.973877921153537 -8.192755571015244
			vertex 6.050000011920929 39.685098283224136 3.0905362042680573
		endloop
	endfacet
	facet normal 0 0.537299608346824 -0.8433914458128858
		outer loop
			vertex 9.049999952316284 21.973877921153537 -8.192755571015244
			vertex 6.050000011920929 21.973877921153537 -8.192755571015244
			vertex 6.050000011920929 39.685098283224136 3.0905362042680573
		endloop
	endfacet
	facet normal 1 0 0
		outer loop
			vertex 7.500999987125397 43.97388 5.807239999999999
			vertex 7.500999987125397 12.973880000000001 5.807239999999999
			vertex 7.500999987125397 43.97388 -11.19276
		endloop
	endfacet
	facet normal 1 0 0
		outer loop
			vertex 7.500999987125397 12.973880000000001 5.807239999999999
			vertex 7.500999987125397 12.973880000000001 -11.19276
			vertex 7.500999987125397 43.97388 -11.19276
		endloop
	endfacet
	facet normal -1 0 0
		outer loop
			vertex 7.5 43.97388 -11.19276
			vertex 7.5 12.973880000000001 -11.19276
			vertex 7.5 43.97388 5.807239999999999
		endloop
	endfacet
	facet normal -1 0 0
		outer loop
			vertex 7.5 12.973880000000001 -11.19276
			vertex 7.5 12.973880000000001 5.807239999999999
			vertex 7.5 43.97388 5.807239999999999
		endloop
	endfacet
	facet normal 0 1 0
		outer loop
			vertex 7.5 43.97388 -11.19276
			vertex 7.5 43.97388 5.807239999999999
			vertex 7.500999987125397 43.97388 -11.19276
		endloop
	endfacet
	facet normal 0 1 0
		outer loop
			vertex 7.5 43.97388 5.807239999999999
			vertex 7.500999987125397 43.97388 5.807239999999999
			vertex 7.500999987125397 43.97388 -11.19276
		endloop
	endfacet
	facet normal 0 -1 0
		outer loop
			vertex 7.5 12.973880000000001 5.807239999999999
			vertex 7.5 12.973880000000001 -11.19276
			vertex 7.500999987125397 12.973880000000001 5.807239999999999
		endloop
	endfacet
	facet normal 0 -1 0
		outer loop
			vertex 7.5 12.973880000000001 -11.19276
			vertex 7.500999987125397 12.973880000000001 -11.19276
			vertex 7.500999987125397 12.973880000000001 5.807239999999999
		endloop
	endfacet
	facet normal 0 0 1
		outer loop
			vertex 7.5 43.97388 5.807239999999999
			vertex 7.5 12.973880000000001 5.807239999999999
			vertex 7.500999987125397 43.97388 5.807239999999999
		endloop
	endfacet
	facet normal 0 0 1
		outer loop
			vertex 7.5 12.973880000000001 5.807239999999999
			vertex 7.500999987125397 12.973880000000001 5.807239999999999
			vertex 7.500999987125397 43.97388 5.807239999999999
		endloop
	endfacet
	facet normal 0 0 -1
		outer loop
			vertex 7.500999987125397 43.97388 -11.19276
			vertex 7.500999987125397 12.973880000000001 -11.19276
			vertex 7.5 43.97388 -11.19276
		endloop
	endfacet
	facet normal 0 0 -1
		outer loop
			vertex 7.500999987125397 12.973880000000001 -11.19276
			vertex 7.5 12.973880000000001 -11.19276
			vertex 7.5 43.97388 -11.19276
		endloop
	endfacet
	facet normal 1 0 0
		outer loop
			vertex 9 46.19615242270663 1.4641016151377553
			vertex 9 37.53589838486224 6.464101615137754
			vertex 9 43.69615242270663 -2.8660254037844384
		endloop
	endfacet
	facet normal 1 0 0
		outer loop
			vertex 9 37.53589838486224 6.464101615137754
			vertex 9 35.03589838486224 2.133974596215561
			vertex 9 43.69615242270663 -2.8660254037844384
		endloop
	endfacet
	facet normal -1 0 0
		outer loop
			vertex 6 43.69615242270663 -2.8660254037844384
			vertex 6 35.03589838486224 2.133974596215561
			vertex 6 46.19615242270663 1.4641016151377553
		endloop
	endfacet
	facet normal -1 0 0
		outer loop
			vertex 6 35.03589838486224 2.133974596215561
			vertex 6 37.53589838486224 6.464101615137754
			vertex 6 46.19615242270663 1.4641016151377553
		endloop
	endfacet
	facet normal 0 0.8660254037844387 -0.5
		outer loop
			vertex 6 43.69615242270663 -2.8660254037844384
			vertex 6 46.19615242270663 1.4641016151377553
			vertex 9 43.69615242270663 -2.8660254037844384
		endloop
	endfacet
	facet normal 0 0.8660254037844387 -0.5
		outer loop
			vertex 6 46.19615242270663 1.4641016151377553
			vertex 9 46.19615242270663 1.4641016151377553
			vertex 9 43.69615242270663 -2.8660254037844384
		endloop
	endfacet
	facet normal 0 -0.8660254037844387 0.5000000000000001
		outer loop
			vertex 6 37.53589838486224 6.464101615137754
			vertex 6 35.03589838486224 2.133974596215561
			vertex 9 37.53589838486224 6.464101615137754
		endloop
	endfacet
	facet normal 0 -0.8660254037844387 0.5000000000000001
		outer loop
			vertex 6 35.03589838486224 2.133974596215561
			vertex 9 35.03589838486224 2.133974596215561
			vertex 9 37.53589838486224 6.464101615137754
		endloop
	endfacet
	facet normal 0 0.4999999999999999 0.8660254037844389
		outer loop
			vertex 6 46.19615242270663 1.4641016151377553
			vertex 6 37.53589838486224 6.464101615137754
			vertex 9 46.19615242270663 1.4641016151377553
		endloop
	endfacet
	facet normal 0 0.4999999999999999 0.8660254037844389
		outer loop
			vertex 6 37.53589838486224 6.464101615137754
			vertex 9 37.53589838486224 6.464101615137754
			vertex 9 46.19615242270663 1.4641016151377553
		endloop
	endfacet
	facet normal 0 -0.4999999999999999 -0.8660254037844387
		outer loop
			vertex 9 43.69615242270663 -2.8660254037844384
			vertex 9 35.03589838486224 2.133974596215561
			vertex 6 43.69615242270663 -2.8660254037844384
		endloop
	endfacet
	facet normal 0 -0.4999999999999999 -0.8660254037844387
		outer loop
			vertex 9 35.03589838486224 2.133974596215561
			vertex 6 35.03589838486224 2.133974596215561
			vertex 6 43.69615242270663 -2.8660254037844384
		endloop
	endfacet
	facet normal 1 0 0
		outer loop
			vertex 6.025 48.70609728269372 6.250781174788219
			vertex 6.025 35.90359649353501 8.508207484458314
			vertex 6.025 46.795967328357484 -4.582104108346069
		endloop
	endfacet
	facet normal 1 0 0
		outer loop
			vertex 6.025 35.90359649353501 8.508207484458314
			vertex 6.025 33.99346653919878 -2.3246777986759746
			vertex 6.025 46.795967328357484 -4.582104108346069
		endloop
	endfacet
	facet normal -1 0 0
		outer loop
			vertex -5.975 46.795967328357484 -4.582104108346069
			vertex -5.975 33.99346653919878 -2.3246777986759746
			vertex -5.975 48.70609728269372 6.250781174788219
		endloop
	endfacet
	facet normal -1 0 0
		outer loop
			vertex -5.975 33.99346653919878 -2.3246777986759746
			vertex -5.975 35.90359649353501 8.508207484458314
			vertex -5.975 48.70609728269372 6.250781174788219
		endloop
	endfacet
	facet normal 0 0.9848077530122081 -0.17364817766693041
		outer loop
			vertex -5.975 46.795967328357484 -4.582104108346069
			vertex -5.975 48.70609728269372 6.250781174788219
			vertex 6.025 46.795967328357484 -4.582104108346069
		endloop
	endfacet
	facet normal 0 0.9848077530122081 -0.17364817766693041
		outer loop
			vertex -5.975 48.70609728269372 6.250781174788219
			vertex 6.025 48.70609728269372 6.250781174788219
			vertex 6.025 46.795967328357484 -4.582104108346069
		endloop
	endfacet
	facet normal 0 -0.9848077530122081 0.17364817766693041
		outer loop
			vertex -5.975 35.90359649353501 8.508207484458314
			vertex -5.975 33.99346653919878 -2.3246777986759746
			vertex 6.025 35.90359649353501 8.508207484458314
		endloop
	endfacet
	facet normal 0 -0.9848077530122081 0.17364817766693041
		outer loop
			vertex -5.975 33.99346653919878 -2.3246777986759746
			vertex 6.025 33.99346653919878 -2.3246777986759746
			vertex 6.025 35.90359649353501 8.508207484458314
		endloop
	endfacet
	facet normal 0 0.17364817766693036 0.9848077530122082
		outer loop
			vertex -5.975 48.70609728269372 6.250781174788219
			vertex -5.975 35.90359649353501 8.508207484458314
			vertex 6.025 48.70609728269372 6.250781174788219
		endloop
	endfacet
	facet normal 0 0.17364817766693036 0.9848077530122082
		outer loop
			vertex -5.975 35.90359649353501 8.508207484458314
			vertex 6.025 35.90359649353501 8.508207484458314
			vertex 6.025 48.70609728269372 6.250781174788219
		endloop
	endfacet
	facet normal 0 -0.17364817766693036 -0.9848077530122082
		outer loop
			vertex 6.025 46.795967328357484 -4.582104108346069
			vertex 6.025 33.99346653919878 -2.3246777986759746
			vertex -5.975 46.795967328357484 -4.582104108346069
		endloop
	endfacet
	facet normal 0 -0.17364817766693036 -0.9848077530122082
		outer loop
			vertex 6.025 33.99346653919878 -2.3246777986759746
			vertex -5.975 33.99346653919878 -2.3246777986759746
			vertex -5.975 46.795967328357484 -4.582104108346069
		endloop
	endfacet
	facet normal 1 0 0
		outer loop
			vertex -5.600000023841858 0.011989927520751564 11.35726
			vertex -5.600000023841858 0.010989999999999611 11.35726
			vertex -5.600000023841858 0.011989927520751564 4.35726
		endloop
	endfacet
	facet normal 1 0 0
		outer loop
			vertex -5.600000023841858 0.010989999999999611 11.35726
			vertex -5.600000023841858 0.010989999999999611 4.35726
			vertex -5.600000023841858 0.011989927520751564 4.35726
		endloop
	endfacet
	facet normal -1 0 0
		outer loop
			vertex -11.599999904632568 0.011989927520751564 4.35726
			vertex -11.599999904632568 0.010989999999999611 4.35726
			vertex -11.599999904632568 0.011989927520751564 11.35726
		endloop
	endfacet
	facet normal -1 0 0
		outer loop
			vertex -11.599999904632568 0.010989999999999611 4.35726
			vertex -11.599999904632568 0.010989999999999611 11.35726
			vertex -11.599999904632568 0.011989927520751564 11.35726
		endloop
	endfacet
	facet normal 0 1 0
		outer loop
			vertex -11.599999904632568 0.011989927520751564 4.35726
			vertex -11.599999904632568 0.011989927520751564 11.35726
			vertex -5.600000023841858 0.011989927520751564 4.35726
		endloop
	endfacet
	facet normal 0 1 0
		outer loop
			vertex -11.599999904632568 0.011989927520751564 11.35726
			vertex -5.600000023841858 0.011989927520751564 11.35726
			vertex -5.600000023841858 0.011989927520751564 4.35726
		endloop
	endfacet
	facet normal 0 -1 0
		outer loop
			vertex -11.599999904632568 0.010989999999999611 11.35726
			vertex -11.599999904632568 0.010989999999999611 4.35726
			vertex -5.600000023841858 0.010989999999999611 11.35726
		endloop
	endfacet
	facet normal 0 -1 0
		outer loop
			vertex -11.599999904632568 0.010989999999999611 4.35726
			vertex -5.600000023841858 0.010989999999999611 4.35726
			vertex -5.600000023841858 0.010989999999999611 11.35726
		endloop
	endfacet
	facet normal 0 0 1
		outer loop
			vertex -11.599999904632568 0.011989927520751564 11.35726
			vertex -11.599999904632568 0.010989999999999611 11.35726
			vertex -5.600000023841858 0.011989927520751564 11.35726
		endloop
	endfacet
	facet normal 0 0 1
		outer loop
			vertex -11.599999904632568 0.010989999999999611 11.35726
			vertex -5.600000023841858 0.010989999999999611 11.35726
			vertex -5.600000023841858 0.011989927520751564 11.35726
		endloop
	endfacet
	facet normal 0 0 -1
		outer loop
			vertex -5.600000023841858 0.011989927520751564 4.35726
			vertex -5.600000023841858 0.010989999999999611 4.35726
			vertex -11.599999904632568 0.011989927520751564 4.35726
		endloop
	endfacet
	facet normal 0 0 -1
		outer loop
			vertex -5.600000023841858 0.010989999999999611 4.35726
			vertex -11.599999904632568 0.010989999999999611 4.35726
			vertex -11.599999904632568 0.011989927520751564 4.35726
		endloop
	endfacet
	facet normal 1 0 0
		outer loop
			vertex -5.600000023841858 7.01099 11.35726
			vertex -5.600000023841858 0.010989999999999611 11.35726
			vertex -5.600000023841858 7.01099 7.35726
		endloop
	endfacet
	facet normal 1 0 0
		outer loop
			vertex -5.600000023841858 0.010989999999999611 11.35726
			vertex -5.600000023841858 0.010989999999999611 7.35726
			vertex -5.600000023841858 7.01099 7.35726
		endloop
	endfacet
	facet normal -1 0 0
		outer loop
			vertex -8.599999904632568 7.01099 7.35726
			vertex -8.599999904632568 0.010989999999999611 7.35726
			vertex -8.599999904632568 7.01099 11.35726
		endloop
	endfacet
	facet normal -1 0 0
		outer loop
			vertex -8.599999904632568 0.010989999999999611 7.35726
			vertex -8.599999904632568 0.010989999999999611 11.35726
			vertex -8.599999904632568 7.01099 11.35726
		endloop
	endfacet
	facet normal 0 1 0
		outer loop
			vertex -8.599999904632568 7.01099 7.35726
			vertex -8.599999904632568 7.01099 11.35726
			vertex -5.600000023841858 7.01099 7.35726
		endloop
	endfacet
	facet normal 0 1 0
		outer loop
			vertex -8.599999904632568 7.01099 11.35726
			vertex -5.600000023841858 7.01099 11.35726
			vertex -5.600000023841858 7.01099 7.35726
		endloop
	endfacet
	facet normal 0 -1 0
		outer loop
			vertex -8.599999904632568 0.010989999999999611 11.35726
			vertex -8.599999904632568 0.010989999999999611 7.35726
			vertex -5.600000023841858 0.010989999999999611 11.35726
		endloop
	endfacet
	facet normal 0 -1 0
		outer loop
			vertex -8.599999904632568 0.010989999999999611 7.35726
			vertex -5.600000023841858 0.010989999999999611 7.35726
			vertex -5.600000023841858 0.010989999999999611 11.35726
		endloop
	endfacet
	facet normal 0 0 1
		outer loop
			vertex -8.599999904632568 7.01099 11.35726
			vertex -8.599999904632568 0.010989999999999611 11.35726
			vertex -5.600000023841858 7.01099 11.35726
		endloop
	endfacet
	facet normal 0 0 1
		outer loop
			vertex -8.599999904632568 0.010989999999999611 11.35726
			vertex -5.600000023841858 0.010989999999999611 11.35726
			vertex -5.600000023841858 7.01099 11.35726
		endloop
	endfacet
	facet normal 0 0 -1
		outer loop
			vertex -5.600000023841858 7.01099 7.35726
			vertex -5.600000023841858 0.010989999999999611 7.35726
			vertex -8.599999904632568 7.01099 7.35726
		endloop
	endfacet
	facet normal 0 0 -1
		outer loop
			vertex -5.600000023841858 0.010989999999999611 7.35726
			vertex -8.599999904632568 0.010989999999999611 7.35726
			vertex -8.599999904632568 7.01099 7.35726
		endloop
	endfacet
	facet normal 1 0 0
		outer loop
			vertex -5.550000011920929 18.287301879407906 7.253016142449702
			vertex -5.550000011920929 7.010990429977006 11.357257862357727
			vertex -5.550000011920929 16.919221306105232 3.4942456593060687
		endloop
	endfacet
	facet normal 1 0 0
		outer loop
			vertex -5.550000011920929 7.010990429977006 11.357257862357727
			vertex -5.550000011920929 5.642909856674331 7.598487379214093
			vertex -5.550000011920929 16.919221306105232 3.4942456593060687
		endloop
	endfacet
	facet normal -1 0 0
		outer loop
			vertex -8.549999952316284 16.919221306105232 3.4942456593060687
			vertex -8.549999952316284 5.642909856674331 7.598487379214093
			vertex -8.549999952316284 18.287301879407906 7.253016142449702
		endloop
	endfacet
	facet normal -1 0 0
		outer loop
			vertex -8.549999952316284 5.642909856674331 7.598487379214093
			vertex -8.549999952316284 7.010990429977006 11.357257862357727
			vertex -8.549999952316284 18.287301879407906 7.253016142449702
		endloop
	endfacet
	facet normal 0 0.9396926207859085 -0.3420201433256685
		outer loop
			vertex -8.549999952316284 16.919221306105232 3.4942456593060687
			vertex -8.549999952316284 18.287301879407906 7.253016142449702
			vertex -5.550000011920929 16.919221306105232 3.4942456593060687
		endloop
	endfacet
	facet normal 0 0.9396926207859085 -0.3420201433256685
		outer loop
			vertex -8.549999952316284 18.287301879407906 7.253016142449702
			vertex -5.550000011920929 18.287301879407906 7.253016142449702
			vertex -5.550000011920929 16.919221306105232 3.4942456593060687
		endloop
	endfacet
	facet normal 0 -0.9396926207859085 0.3420201433256686
		outer loop
			vertex -8.549999952316284 7.010990429977006 11.357257862357727
			vertex -8.549999952316284 5.642909856674331 7.598487379214093
			vertex -5.550000011920929 7.010990429977006 11.357257862357727
		endloop
	endfacet
	facet normal 0 -0.9396926207859085 0.3420201433256686
		outer loop
			vertex -8.549999952316284 5.642909856674331 7.598487379214093
			vertex -5.550000011920929 5.642909856674331 7.598487379214093
			vertex -5.550000011920929 7.010990429977006 11.357257862357727
		endloop
	endfacet
	facet normal 0 0.34202014332566877 0.9396926207859085
		outer loop
			vertex -8.549999952316284 18.287301879407906 7.253016142449702
			vertex -8.549999952316284 7.010990429977006 11.357257862357727
			vertex -5.550000011920929 18.287301879407906 7.253016142449702
		endloop
	endfacet
	facet normal 0 0.34202014332566877 0.9396926207859085
		outer loop
			vertex -8.549999952316284 7.010990429977006 11.357257862357727
			vertex -5.550000011920929 7.010990429977006 11.357257862357727
			vertex -5.550000011920929 18.287301879407906 7.253016142449702
		endloop
	endfacet
	facet normal 0 -0.3420201433256687 -0.9396926207859085
		outer loop
			vertex -5.550000011920929 16.919221306105232 3.4942456593060687
			vertex -5.550000011920929 5.642909856674331 7.598487379214093
			vertex -8.549999952316284 16.919221306105232 3.4942456593060687
		endloop
	endfacet
	facet normal 0 -0.3420201433256687 -0.9396926207859085
		outer loop
			vertex -5.550000011920929 5.642909856674331 7.598487379214093
			vertex -8.549999952316284 5.642909856674331 7.598487379214093
			vertex -8.549999952316284 16.919221306105232 3.4942456593060687
		endloop
	endfacet
	facet normal 1 0 0
		outer loop
			vertex -6.9989999999525025 32.7 14
			vertex -6.9989999999525025 4.699999999999999 14
			vertex -6.9989999999525025 32.7 4
		endloop
	endfacet
	facet normal 1 0 0
		outer loop
			vertex -6.9989999999525025 4.699999999999999 14
			vertex -6.9989999999525025 4.699999999999999 4
			vertex -6.9989999999525025 32.7 4
		endloop
	endfacet
	facet normal -1 0 0
		outer loop
			vertex -7 32.7 4
			vertex -7 4.699999999999999 4
			vertex -7 32.7 14
		endloop
	endfacet
	facet normal -1 0 0
		outer loop
			vertex -7 4.699999999999999 4
			vertex -7 4.699999999999999 14
			vertex -7 32.7 14
		endloop
	endfacet
	facet normal 0 1 0
		outer loop
			vertex -7 32.7 4
			vertex -7 32.7 14
			vertex -6.9989999999525025 32.7 4
		endloop
	endfacet
	facet normal 0 1 0
		outer loop
			vertex -7 32.7 14
			vertex -6.9989999999525025 32.7 14
			vertex -6.9989999999525025 32.7 4
		endloop
	endfacet
	facet normal 0 -1 0
		outer loop
			vertex -7 4.699999999999999 14
			vertex -7 4.699999999999999 4
			vertex -6.9989999999525025 4.699999999999999 14
		endloop
	endfacet
	facet normal 0 -1 0
		outer loop
			vertex -7 4.699999999999999 4
			vertex -6.9989999999525025 4.699999999999999 4
			vertex -6.9989999999525025 4.699999999999999 14
		endloop
	endfacet
	facet normal 0 0 1
		outer loop
			vertex -7 32.7 14
			vertex -7 4.699999999999999 14
			vertex -6.9989999999525025 32.7 14
		endloop
	endfacet
	facet normal 0 0 1
		outer loop
			vertex -7 4.699999999999999 14
			vertex -6.9989999999525025 4.699999999999999 14
			vertex -6.9989999999525025 32.7 14
		endloop
	endfacet
	facet normal 0 0 -1
		outer loop
			vertex -6.9989999999525025 32.7 4
			vertex -6.9989999999525025 4.699999999999999 4
			vertex -7 32.7 4
		endloop
	endfacet
	facet normal 0 0 -1
		outer loop
			vertex -6.9989999999525025 4.699999999999999 4
			vertex -7 4.699999999999999 4
			vertex -7 32.7 4
		endloop
	endfacet
	facet normal 1 0 0
		outer loop
			vertex -5.5 30.996748503145703 10.038201391039788
			vertex -5.5 16.224632207962586 7.433478726035833
			vertex -5.5 31.691341213813423 6.0989703789909555
		endloop
	endfacet
	facet normal 1 0 0
		outer loop
			vertex -5.5 16.224632207962586 7.433478726035833
			vertex -5.5 16.919224918630306 3.4942477139870007
			vertex -5.5 31.691341213813423 6.0989703789909555
		endloop
	endfacet
	facet normal -1 0 0
		outer loop
			vertex -8.5 31.691341213813423 6.0989703789909555
			vertex -8.5 16.919224918630306 3.4942477139870007
			vertex -8.5 30.996748503145703 10.038201391039788
		endloop
	endfacet
	facet normal -1 0 0
		outer loop
			vertex -8.5 16.919224918630306 3.4942477139870007
			vertex -8.5 16.224632207962586 7.433478726035833
			vertex -8.5 30.996748503145703 10.038201391039788
		endloop
	endfacet
	facet normal 0 0.9848077530122081 0.17364817766693008
		outer loop
			vertex -8.5 31.691341213813423 6.0989703789909555
			vertex -8.5 30.996748503145703 10.038201391039788
			vertex -5.5 31.691341213813423 6.0989703789909555
		endloop
	endfacet
	facet normal 0 0.9848077530122081 0.17364817766693008
		outer loop
			vertex -8.5 30.996748503145703 10.038201391039788
			vertex -5.5 30.996748503145703 10.038201391039788
			vertex -5.5 31.691341213813423 6.0989703789909555
		endloop
	endfacet
	facet normal 0 -0.9848077530122081 -0.17364817766693008
		outer loop
			vertex -8.5 16.224632207962586 7.433478726035833
			vertex -8.5 16.919224918630306 3.4942477139870007
			vertex -5.5 16.224632207962586 7.433478726035833
		endloop
	endfacet
	facet normal 0 -0.9848077530122081 -0.17364817766693008
		outer loop
			vertex -8.5 16.919224918630306 3.4942477139870007
			vertex -5.5 16.919224918630306 3.4942477139870007
			vertex -5.5 16.224632207962586 7.433478726035833
		endloop
	endfacet
	facet normal 0 -0.1736481776669304 0.9848077530122082
		outer loop
			vertex -8.5 30.996748503145703 10.038201391039788
			vertex -8.5 16.224632207962586 7.433478726035833
			vertex -5.5 30.996748503145703 10.038201391039788
		endloop
	endfacet
	facet normal 0 -0.1736481776669304 0.9848077530122082
		outer loop
			vertex -8.5 16.224632207962586 7.433478726035833
			vertex -5.5 16.224632207962586 7.433478726035833
			vertex -5.5 30.996748503145703 10.038201391039788
		endloop
	endfacet
	facet normal 0 0.1736481776669304 -0.9848077530122082
		outer loop
			vertex -5.5 31.691341213813423 6.0989703789909555
			vertex -5.5 16.919224918630306 3.4942477139870007
			vertex -8.5 31.691341213813423 6.0989703789909555
		endloop
	endfacet
	facet normal 0 0.1736481776669304 -0.9848077530122082
		outer loop
			vertex -5.5 16.919224918630306 3.4942477139870007
			vertex -8.5 16.919224918630306 3.4942477139870007
			vertex -8.5 31.691341213813423 6.0989703789909555
		endloop
	endfacet
	facet normal 1 0 0
		outer loop
			vertex 11.599999904632568 0.011989927520751564 11.35726
			vertex 11.599999904632568 0.010989999999999611 11.35726
			vertex 11.599999904632568 0.011989927520751564 4.35726
		endloop
	endfacet
	facet normal 1 0 0
		outer loop
			vertex 11.599999904632568 0.010989999999999611 11.35726
			vertex 11.599999904632568 0.010989999999999611 4.35726
			vertex 11.599999904632568 0.011989927520751564 4.35726
		endloop
	endfacet
	facet normal -1 0 0
		outer loop
			vertex 5.600000023841858 0.011989927520751564 4.35726
			vertex 5.600000023841858 0.010989999999999611 4.35726
			vertex 5.600000023841858 0.011989927520751564 11.35726
		endloop
	endfacet
	facet normal -1 0 0
		outer loop
			vertex 5.600000023841858 0.010989999999999611 4.35726
			vertex 5.600000023841858 0.010989999999999611 11.35726
			vertex 5.600000023841858 0.011989927520751564 11.35726
		endloop
	endfacet
	facet normal 0 1 0
		outer loop
			vertex 5.600000023841858 0.011989927520751564 4.35726
			vertex 5.600000023841858 0.011989927520751564 11.35726
			vertex 11.599999904632568 0.011989927520751564 4.35726
		endloop
	endfacet
	facet normal 0 1 0
		outer loop
			vertex 5.600000023841858 0.011989927520751564 11.35726
			vertex 11.599999904632568 0.011989927520751564 11.35726
			vertex 11.599999904632568 0.011989927520751564 4.35726
		endloop
	endfacet
	facet normal 0 -1 0
		outer loop
			vertex 5.600000023841858 0.010989999999999611 11.35726
			vertex 5.600000023841858 0.010989999999999611 4.35726
			vertex 11.599999904632568 0.010989999999999611 11.35726
		endloop
	endfacet
	facet normal 0 -1 0
		outer loop
			vertex 5.600000023841858 0.010989999999999611 4.35726
			vertex 11.599999904632568 0.010989999999999611 4.35726
			vertex 11.599999904632568 0.010989999999999611 11.35726
		endloop
	endfacet
	facet normal 0 0 1
		outer loop
			vertex 5.600000023841858 0.011989927520751564 11.35726
			vertex 5.600000023841858 0.010989999999999611 11.35726
			vertex 11.599999904632568 0.011989927520751564 11.35726
		endloop
	endfacet
	facet normal 0 0 1
		outer loop
			vertex 5.600000023841858 0.010989999999999611 11.35726
			vertex 11.599999904632568 0.010989999999999611 11.35726
			vertex 11.599999904632568 0.011989927520751564 11.35726
		endloop
	endfacet
	facet normal 0 0 -1
		outer loop
			vertex 11.599999904632568 0.011989927520751564 4.35726
			vertex 11.599999904632568 0.010989999999999611 4.35726
			vertex 5.600000023841858 0.011989927520751564 4.35726
		endloop
	endfacet
	facet normal 0 0 -1
		outer loop
			vertex 11.599999904632568 0.010989999999999611 4.35726
			vertex 5.600000023841858 0.010989999999999611 4.35726
			vertex 5.600000023841858 0.011989927520751564 4.35726
		endloop
	endfacet
	facet normal 1 0 0
		outer loop
			vertex 8.599999904632568 7.01099 11.35726
			vertex 8.599999904632568 0.010989999999999611 11.35726
			vertex 8.599999904632568 7.01099 7.35726
		endloop
	endfacet
	facet normal 1 0 0
		outer loop
			vertex 8.599999904632568 0.010989999999999611 11.35726
			vertex 8.599999904632568 0.010989999999999611 7.35726
			vertex 8.599999904632568 7.01099 7.35726
		endloop
	endfacet
	facet normal -1 0 0
		outer loop
			vertex 5.600000023841858 7.01099 7.35726
			vertex 5.600000023841858 0.010989999999999611 7.35726
			vertex 5.600000023841858 7.01099 11.35726
		endloop
	endfacet
	facet normal -1 0 0
		outer loop
			vertex 5.600000023841858 0.010989999999999611 7.35726
			vertex 5.600000023841858 0.010989999999999611 11.35726
			vertex 5.600000023841858 7.01099 11.35726
		endloop
	endfacet
	facet normal 0 1 0
		outer loop
			vertex 5.600000023841858 7.01099 7.35726
			vertex 5.600000023841858 7.01099 11.35726
			vertex 8.599999904632568 7.01099 7.35726
		endloop
	endfacet
	facet normal 0 1 0
		outer loop
			vertex 5.600000023841858 7.01099 11.35726
			vertex 8.599999904632568 7.01099 11.35726
			vertex 8.599999904632568 7.01099 7.35726
		endloop
	endfacet
	facet normal 0 -1 0
		outer loop
			vertex 5.600000023841858 0.010989999999999611 11.35726
			vertex 5.600000023841858 0.010989999999999611 7.35726
			vertex 8.599999904632568 0.010989999999999611 11.35726
		endloop
	endfacet
	facet normal 0 -1 0
		outer loop
			vertex 5.600000023841858 0.010989999999999611 7.35726
			vertex 8.599999904632568 0.010989999999999611 7.35726
			vertex 8.599999904632568 0.010989999999999611 11.35726
		endloop
	endfacet
	facet normal 0 0 1
		outer loop
			vertex 5.600000023841858 7.01099 11.35726
			vertex 5.600000023841858 0.010989999999999611 11.35726
			vertex 8.599999904632568 7.01099 11.35726
		endloop
	endfacet
	facet normal 0 0 1
		outer loop
			vertex 5.600000023841858 0.010989999999999611 11.35726
			vertex 8.599999904632568 0.010989999999999611 11.35726
			vertex 8.599999904632568 7.01099 11.35726
		endloop
	endfacet
	facet normal 0 0 -1
		outer loop
			vertex 8.599999904632568 7.01099 7.35726
			vertex 8.599999904632568 0.010989999999999611 7.35726
			vertex 5.600000023841858 7.01099 7.35726
		endloop
	endfacet
	facet normal 0 0 -1
		outer loop
			vertex 8.599999904632568 0.010989999999999611 7.35726
			vertex 5.600000023841858 0.010989999999999611 7.35726
			vertex 5.600000023841858 7.01099 7.35726
		endloop
	endfacet
	facet normal 1 0 0
		outer loop
			vertex 8.549999952316284 18.287301879407906 7.253016142449702
			vertex 8.549999952316284 7.010990429977006 11.357257862357727
			vertex 8.549999952316284 16.919221306105232 3.4942456593060687
		endloop
	endfacet
	facet normal 1 0 0
		outer loop
			vertex 8.549999952316284 7.010990429977006 11.357257862357727
			vertex 8.549999952316284 5.642909856674331 7.598487379214093
			vertex 8.549999952316284 16.919221306105232 3.4942456593060687
		endloop
	endfacet
	facet normal -1 0 0
		outer loop
			vertex 5.550000011920929 16.919221306105232 3.4942456593060687
			vertex 5.550000011920929 5.642909856674331 7.598487379214093
			vertex 5.550000011920929 18.287301879407906 7.253016142449702
		endloop
	endfacet
	facet normal -1 0 0
		outer loop
			vertex 5.550000011920929 5.642909856674331 7.598487379214093
			vertex 5.550000011920929 7.010990429977006 11.357257862357727
			vertex 5.550000011920929 18.287301879407906 7.253016142449702
		endloop
	endfacet
	facet normal 0 0.9396926207859085 -0.3420201433256685
		outer loop
			vertex 5.550000011920929 16.919221306105232 3.4942456593060687
			vertex 5.550000011920929 18.287301879407906 7.253016142449702
			vertex 8.549999952316284 16.919221306105232 3.4942456593060687
		endloop
	endfacet
	facet normal 0 0.9396926207859085 -0.3420201433256685
		outer loop
			vertex 5.550000011920929 18.287301879407906 7.253016142449702
			vertex 8.549999952316284 18.287301879407906 7.253016142449702
			vertex 8.549999952316284 16.919221306105232 3.4942456593060687
		endloop
	endfacet
	facet normal 0 -0.9396926207859085 0.3420201433256686
		outer loop
			vertex 5.550000011920929 7.010990429977006 11.357257862357727
			vertex 5.550000011920929 5.642909856674331 7.598487379214093
			vertex 8.549999952316284 7.010990429977006 11.357257862357727
		endloop
	endfacet
	facet normal 0 -0.9396926207859085 0.3420201433256686
		outer loop
			vertex 5.550000011920929 5.642909856674331 7.598487379214093
			vertex 8.549999952316284 5.642909856674331 7.598487379214093
			vertex 8.549999952316284 7.010990429977006 11.357257862357727
		endloop
	endfacet
	facet normal 0 0.34202014332566877 0.9396926207859085
		outer loop
			vertex 5.550000011920929 18.287301879407906 7.253016142449702
			vertex 5.550000011920929 7.010990429977006 11.357257862357727
			vertex 8.549999952316284 18.287301879407906 7.253016142449702
		endloop
	endfacet
	facet normal 0 0.34202014332566877 0.9396926207859085
		outer loop
			vertex 5.550000011920929 7.010990429977006 11.357257862357727
			vertex 8.549999952316284 7.010990429977006 11.357257862357727
			vertex 8.549999952316284 18.287301879407906 7.253016142449702
		endloop
	endfacet
	facet normal 0 -0.3420201433256687 -0.9396926207859085
		outer loop
			vertex 8.549999952316284 16.919221306105232 3.4942456593060687
			vertex 8.549999952316284 5.642909856674331 7.598487379214093
			vertex 5.550000011920929 16.919221306105232 3.4942456593060687
		endloop
	endfacet
	facet normal 0 -0.3420201433256687 -0.9396926207859085
		outer loop
			vertex 8.549999952316284 5.642909856674331 7.598487379214093
			vertex 5.550000011920929 5.642909856674331 7.598487379214093
			vertex 5.550000011920929 16.919221306105232 3.4942456593060687
		endloop
	endfacet
	facet normal 1 0 0
		outer loop
			vertex 7.0010000000474975 32.7 14
			vertex 7.0010000000474975 4.699999999999999 14
			vertex 7.0010000000474975 32.7 4
		endloop
	endfacet
	facet normal 1 0 0
		outer loop
			vertex 7.0010000000474975 4.699999999999999 14
			vertex 7.0010000000474975 4.699999999999999 4
			vertex 7.0010000000474975 32.7 4
		endloop
	endfacet
	facet normal -1 0 0
		outer loop
			vertex 7 32.7 4
			vertex 7 4.699999999999999 4
			vertex 7 32.7 14
		endloop
	endfacet
	facet normal -1 0 0
		outer loop
			vertex 7 4.699999999999999 4
			vertex 7 4.699999999999999 14
			vertex 7 32.7 14
		endloop
	endfacet
	facet normal 0 1 0
		outer loop
			vertex 7 32.7 4
			vertex 7 32.7 14
			vertex 7.0010000000474975 32.7 4
		endloop
	endfacet
	facet normal 0 1 0
		outer loop
			vertex 7 32.7 14
			vertex 7.0010000000474975 32.7 14
			vertex 7.0010000000474975 32.7 4
		endloop
	endfacet
	facet normal 0 -1 0
		outer loop
			vertex 7 4.699999999999999 14
			vertex 7 4.699999999999999 4
			vertex 7.0010000000474975 4.699999999999999 14
		endloop
	endfacet
	facet normal 0 -1 0
		outer loop
			vertex 7 4.699999999999999 4
			vertex 7.0010000000474975 4.699999999999999 4
			vertex 7.0010000000474975 4.699999999999999 14
		endloop
	endfacet
	facet normal 0 0 1
		outer loop
			vertex 7 32.7 14
			vertex 7 4.699999999999999 14
			vertex 7.0010000000474975 32.7 14
		endloop
	endfacet
	facet normal 0 0 1
		outer loop
			vertex 7 4.699999999999999 14
			vertex 7.0010000000474975 4.699999999999999 14
			vertex 7.0010000000474975 32.7 14
		endloop
	endfacet
	facet normal 0 0 -1
		outer loop
			vertex 7.0010000000474975 32.7 4
			vertex 7.0010000000474975 4.699999999999999 4
			vertex 7 32.7 4
		endloop
	endfacet
	facet normal 0 0 -1
		outer loop
			vertex 7.0010000000474975 4.699999999999999 4
			vertex 7 4.699999999999999 4
			vertex 7 32.7 4
		endloop
	endfacet
	facet normal 1 0 0
		outer loop
			vertex 8.5 30.996748503145703 10.038201391039788
			vertex 8.5 16.224632207962586 7.433478726035833
			vertex 8.5 31.691341213813423 6.0989703789909555
		endloop
	endfacet
	facet normal 1 0 0
		outer loop
			vertex 8.5 16.224632207962586 7.433478726035833
			vertex 8.5 16.919224918630306 3.4942477139870007
			vertex 8.5 31.691341213813423 6.0989703789909555
		endloop
	endfacet
	facet normal -1 0 0
		outer loop
			vertex 5.5 31.691341213813423 6.0989703789909555
			vertex 5.5 16.919224918630306 3.4942477139870007
			vertex 5.5 30.996748503145703 10.038201391039788
		endloop
	endfacet
	facet normal -1 0 0
		outer loop
			vertex 5.5 16.919224918630306 3.4942477139870007
			vertex 5.5 16.224632207962586 7.433478726035833
			vertex 5.5 30.996748503145703 10.038201391039788
		endloop
	endfacet
	facet normal 0 0.9848077530122081 0.17364817766693008
		outer loop
			vertex 5.5 31.691341213813423 6.0989703789909555
			vertex 5.5 30.996748503145703 10.038201391039788
			vertex 8.5 31.691341213813423 6.0989703789909555
		endloop
	endfacet
	facet normal 0 0.9848077530122081 0.17364817766693008
		outer loop
			vertex 5.5 30.996748503145703 10.038201391039788
			vertex 8.5 30.996748503145703 10.038201391039788
			vertex 8.5 31.691341213813423 6.0989703789909555
		endloop
	endfacet
	facet normal 0 -0.9848077530122081 -0.17364817766693008
		outer loop
			vertex 5.5 16.224632207962586 7.433478726035833
			vertex 5.5 16.919224918630306 3.4942477139870007
			vertex 8.5 16.224632207962586 7.433478726035833
		endloop
	endfacet
	facet normal 0 -0.9848077530122081 -0.17364817766693008
		outer loop
			vertex 5.5 16.919224918630306 3.4942477139870007
			vertex 8.5 16.919224918630306 3.4942477139870007
			vertex 8.5 16.224632207962586 7.433478726035833
		endloop
	endfacet
	facet normal 0 -0.1736481776669304 0.9848077530122082
		outer loop
			vertex 5.5 30.996748503145703 10.038201391039788
			vertex 5.5 16.224632207962586 7.433478726035833
			vertex 8.5 30.996748503145703 10.038201391039788
		endloop
	endfacet
	facet normal 0 -0.1736481776669304 0.9848077530122082
		outer loop
			vertex 5.5 16.224632207962586 7.433478726035833
			vertex 8.5 16.224632207962586 7.433478726035833
			vertex 8.5 30.996748503145703 10.038201391039788
		endloop
	endfacet
	facet normal 0 0.1736481776669304 -0.9848077530122082
		outer loop
			vertex 8.5 31.691341213813423 6.0989703789909555
			vertex 8.5 16.919224918630306 3.4942477139870007
			vertex 5.5 31.691341213813423 6.0989703789909555
		endloop
	endfacet
	facet normal 0 0.1736481776669304 -0.9848077530122082
		outer loop
			vertex 8.5 16.919224918630306 3.4942477139870007
			vertex 5.5 16.919224918630306 3.4942477139870007
			vertex 5.5 31.691341213813423 6.0989703789909555
		endloop
	endfacet
	facet normal 1 0 0
		outer loop
			vertex 2.5 26.19255 12.813890046730041
			vertex 2.5 12.19255 12.813890046730041
			vertex 2.5 26.19255 12.81289
		endloop
	endfacet
	facet normal 1 0 0
		outer loop
			vertex 2.5 12.19255 12.813890046730041
			vertex 2.5 12.19255 12.81289
			vertex 2.5 26.19255 12.81289
		endloop
	endfacet
	facet normal -1 0 0
		outer loop
			vertex -2.5 26.19255 12.81289
			vertex -2.5 12.19255 12.81289
			vertex -2.5 26.19255 12.813890046730041
		endloop
	endfacet
	facet normal -1 0 0
		outer loop
			vertex -2.5 12.19255 12.81289
			vertex -2.5 12.19255 12.813890046730041
			vertex -2.5 26.19255 12.813890046730041
		endloop
	endfacet
	facet normal 0 1 0
		outer loop
			vertex -2.5 26.19255 12.81289
			vertex -2.5 26.19255 12.813890046730041
			vertex 2.5 26.19255 12.81289
		endloop
	endfacet
	facet normal 0 1 0
		outer loop
			vertex -2.5 26.19255 12.813890046730041
			vertex 2.5 26.19255 12.813890046730041
			vertex 2.5 26.19255 12.81289
		endloop
	endfacet
	facet normal 0 -1 0
		outer loop
			vertex -2.5 12.19255 12.813890046730041
			vertex -2.5 12.19255 12.81289
			vertex 2.5 12.19255 12.813890046730041
		endloop
	endfacet
	facet normal 0 -1 0
		outer loop
			vertex -2.5 12.19255 12.81289
			vertex 2.5 12.19255 12.81289
			vertex 2.5 12.19255 12.813890046730041
		endloop
	endfacet
	facet normal 0 0 1
		outer loop
			vertex -2.5 26.19255 12.813890046730041
			vertex -2.5 12.19255 12.813890046730041
			vertex 2.5 26.19255 12.813890046730041
		endloop
	endfacet
	facet normal 0 0 1
		outer loop
			vertex -2.5 12.19255 12.813890046730041
			vertex 2.5 12.19255 12.813890046730041
			vertex 2.5 26.19255 12.813890046730041
		endloop
	endfacet
	facet normal 0 0 -1
		outer loop
			vertex 2.5 26.19255 12.81289
			vertex 2.5 12.19255 12.81289
			vertex -2.5 26.19255 12.81289
		endloop
	endfacet
	facet normal 0 0 -1
		outer loop
			vertex 2.5 12.19255 12.81289
			vertex -2.5 12.19255 12.81289
			vertex -2.5 26.19255 12.81289
		endloop
	endfacet
	facet normal 1 0 0
		outer loop
			vertex 5.5 38.20298824629762 7.838000704366701
			vertex 5.5 26.1925543236509 12.812885325112866
			vertex 5.5 34.75883735501182 -0.4769150882348798
		endloop
	endfacet
	facet normal 1 0 0
		outer loop
			vertex 5.5 26.1925543236509 12.812885325112866
			vertex 5.5 22.74840343236509 4.497969532511285
			vertex 5.5 34.75883735501182 -0.4769150882348798
		endloop
	endfacet
	facet normal -1 0 0
		outer loop
			vertex -5.5 34.75883735501182 -0.4769150882348798
			vertex -5.5 22.74840343236509 4.497969532511285
			vertex -5.5 38.20298824629762 7.838000704366701
		endloop
	endfacet
	facet normal -1 0 0
		outer loop
			vertex -5.5 22.74840343236509 4.497969532511285
			vertex -5.5 26.1925543236509 12.812885325112866
			vertex -5.5 38.20298824629762 7.838000704366701
		endloop
	endfacet
	facet normal 0 0.9238795325112872 -0.38268343236508917
		outer loop
			vertex -5.5 34.75883735501182 -0.4769150882348798
			vertex -5.5 38.20298824629762 7.838000704366701
			vertex 5.5 34.75883735501182 -0.4769150882348798
		endloop
	endfacet
	facet normal 0 0.9238795325112872 -0.38268343236508917
		outer loop
			vertex -5.5 38.20298824629762 7.838000704366701
			vertex 5.5 38.20298824629762 7.838000704366701
			vertex 5.5 34.75883735501182 -0.4769150882348798
		endloop
	endfacet
	facet normal 0 -0.9238795325112867 0.3826834323650898
		outer loop
			vertex -5.5 26.1925543236509 12.812885325112866
			vertex -5.5 22.74840343236509 4.497969532511285
			vertex 5.5 26.1925543236509 12.812885325112866
		endloop
	endfacet
	facet normal 0 -0.9238795325112867 0.3826834323650898
		outer loop
			vertex -5.5 22.74840343236509 4.497969532511285
			vertex 5.5 22.74840343236509 4.497969532511285
			vertex 5.5 26.1925543236509 12.812885325112866
		endloop
	endfacet
	facet normal 0 0.38268343236508984 0.9238795325112868
		outer loop
			vertex -5.5 38.20298824629762 7.838000704366701
			vertex -5.5 26.1925543236509 12.812885325112866
			vertex 5.5 38.20298824629762 7.838000704366701
		endloop
	endfacet
	facet normal 0 0.38268343236508984 0.9238795325112868
		outer loop
			vertex -5.5 26.1925543236509 12.812885325112866
			vertex 5.5 26.1925543236509 12.812885325112866
			vertex 5.5 38.20298824629762 7.838000704366701
		endloop
	endfacet
	facet normal 0 -0.3826834323650896 -0.923879532511287
		outer loop
			vertex 5.5 34.75883735501182 -0.4769150882348798
			vertex 5.5 22.74840343236509 4.497969532511285
			vertex -5.5 34.75883735501182 -0.4769150882348798
		endloop
	endfacet
	facet normal 0 -0.3826834323650896 -0.923879532511287
		outer loop
			vertex 5.5 22.74840343236509 4.497969532511285
			vertex -5.5 22.74840343236509 4.497969532511285
			vertex -5.5 34.75883735501182 -0.4769150882348798
		endloop
	endfacet
	facet normal 1 0 0
		outer loop
			vertex 1 0 44
			vertex 1 -2 44
			vertex 1 0 -62
		endloop
	endfacet
	facet normal 1 0 0
		outer loop
			vertex 1 -2 44
			vertex 1 -2 -62
			vertex 1 0 -62
		endloop
	endfacet
	facet normal -1 0 0
		outer loop
			vertex -1 0 -62
			vertex -1 -2 -62
			vertex -1 0 44
		endloop
	endfacet
	facet normal -1 0 0
		outer loop
			vertex -1 -2 -62
			vertex -1 -2 44
			vertex -1 0 44
		endloop
	endfacet
	facet normal 0 1 0
		outer loop
			vertex -1 0 -62
			vertex -1 0 44
			vertex 1 0 -62
		endloop
	endfacet
	facet normal 0 1 0
		outer loop
			vertex -1 0 44
			vertex 1 0 44
			vertex 1 0 -62
		endloop
	endfacet
	facet normal 0 -1 0
		outer loop
			vertex -1 -2 44
			vertex -1 -2 -62
			vertex 1 -2 44
		endloop
	endfacet
	facet normal 0 -1 0
		outer loop
			vertex -1 -2 -62
			vertex 1 -2 -62
			vertex 1 -2 44
		endloop
	endfacet
	facet normal 0 0 1
		outer loop
			vertex -1 0 44
			vertex -1 -2 44
			vertex 1 0 44
		endloop
	endfacet
	facet normal 0 0 1
		outer loop
			vertex -1 -2 44
			vertex 1 -2 44
			vertex 1 0 44
		endloop
	endfacet
	facet normal 0 0 -1
		outer loop
			vertex 1 0 -62
			vertex 1 -2 -62
			vertex -1 0 -62
		endloop
	endfacet
	facet normal 0 0 -1
		outer loop
			vertex 1 -2 -62
			vertex -1 -2 -62
			vertex -1 0 -62
		endloop
	endfacet
endsolid exported
